<svg width="120" height="120" viewBox="0 0 120 120" fill="none" xmlns="http://www.w3.org/2000/svg">
<path d="M113.366 71.961C118.57 63.963 112.018 56.9292 112.018 56.9292C116.932 48.7392 113.077 42.861 108.645 39.9708C114.137 26.4804 97.7568 16.3632 88.8918 21.0846C87.4464 13.4724 82.629 7.40455 78.7746 6.43855C74.9202 5.47255 65.4774 6.24595 65.4774 29.76V95.8571C65.4774 103.565 68.2716 114.55 77.811 114.55C87.3504 114.55 91.7826 109.347 90.2412 102.891C95.733 102.313 105.08 97.6878 104.695 90.75C115.775 87.2813 119.63 78.0312 113.366 71.961ZM75.306 14.241C82.5324 14.241 82.5324 25.4184 75.306 25.4184C68.0796 25.4184 68.079 14.2434 75.306 14.2434V14.241ZM76.7508 102.696C69.5244 102.696 69.5244 91.5186 76.7508 91.5186C83.9772 91.5186 83.9778 102.698 76.7508 102.698V102.696ZM76.7508 84.7739C69.5244 84.7739 69.5244 73.5966 76.7508 73.5966C83.9772 73.5966 83.9778 84.7764 76.7508 84.7764V84.7739ZM96.12 28.6968C103.346 28.6968 103.346 39.8742 96.12 39.8742C88.8936 39.8742 88.8918 28.6968 96.12 28.6968ZM89.76 59.2416C82.533 59.2416 82.533 48.0642 89.76 48.0642C96.987 48.0642 96.9858 59.2416 89.76 59.2416ZM98.9136 78.7056C91.6866 78.7056 91.6866 67.5282 98.9136 67.5282C106.141 67.5282 106.14 78.7056 98.913 78.7056H98.9136Z" fill="#644DF6"/>
<path d="M56.9016 14.0508C56.223 11.9322 39.75 0.946189 31.1748 21.66C31.1748 21.66 15.7578 19.8288 14.3148 38.4258C14.3148 38.4258 4.4862 46.3272 11.2314 58.179C11.2314 58.179 4.4862 62.9964 9.9786 73.8852C9.9786 73.8852 2.2698 85.1586 16.6272 90.0726C16.6272 90.0726 18.6504 100.768 29.5386 102.214C29.5386 102.214 26.3586 109.934 36.573 112.717C46.8798 115.523 57.5784 112.331 58.1568 99.9012C58.7352 87.4716 58.8168 20.0286 56.9016 14.0508ZM20.19 48.8352C27.417 48.8352 27.417 60.0126 20.19 60.0126C13.0596 60.0126 13.0596 48.8352 20.19 48.8352ZM20.2866 78.0312C13.0596 78.0312 13.0596 66.8538 20.2866 66.8538C27.5136 66.8538 27.513 78.0312 20.2866 78.0312ZM30.2112 95.6646C22.9842 95.6646 22.9842 84.4872 30.2112 84.4872C37.4382 84.4872 37.44 95.6646 30.2112 95.6646ZM31.9452 45.9444C24.7188 45.9444 24.7188 34.7676 31.9452 34.7676C39.0756 34.7676 39.0756 45.9444 31.9452 45.9444ZM44.76 19.4466C51.987 19.4466 51.987 30.624 44.76 30.624C37.533 30.624 37.5342 19.4466 44.76 19.4466ZM47.073 70.9008C39.846 70.9008 39.846 59.7234 47.073 59.7234C54.3 59.7234 54.3 70.9008 47.0736 70.9008H47.073Z" fill="#644DF6"/>
<path d="M83.6886 54.6167C83.9095 56.0416 84.6336 57.3401 85.7296 58.2769C86.8256 59.2137 88.221 59.7269 89.6628 59.7233C91.3099 59.7066 92.8833 59.0382 94.039 57.8645C95.1946 56.6907 95.8384 55.1071 95.8296 53.4599L108.742 51.7253L100.069 38.8145C104.689 34.7693 101.089 27.3545 95.1552 28.2149C94.2812 28.3391 93.4449 28.6526 92.7047 29.1337C91.9646 29.6148 91.3384 30.2518 90.8702 31.0001C90.4019 31.7484 90.1028 32.59 89.9937 33.4661C89.8846 34.3421 89.9683 35.2313 90.2388 36.0716C90.5093 36.9119 90.9601 37.683 91.5597 38.3309C92.1593 38.9788 92.8932 39.4878 93.7101 39.8225C94.527 40.1571 95.4071 40.3092 96.2889 40.2682C97.1707 40.2272 98.0329 39.994 98.8152 39.5849L106.14 50.5697L95.5404 52.0151C95.1639 50.5727 94.266 49.3211 93.0202 48.5024C91.7743 47.6838 90.2692 47.3561 88.7958 47.5829C87.1881 47.8432 85.7487 48.7289 84.7918 50.0467C83.835 51.3646 83.4384 53.0075 83.6886 54.6167ZM96.6966 38.8139C95.4847 38.993 94.2508 38.6897 93.2601 37.9691C92.2693 37.2486 91.6005 36.1683 91.3974 34.9601C90.9672 32.2763 92.919 29.8535 95.2512 29.6603C102.04 29.0999 102.06 38.0045 96.6966 38.8139ZM88.9884 49.1243C89.181 49.1243 89.4684 49.0277 89.6628 49.0277C90.7757 49.0359 91.8499 49.4368 92.6961 50.1596C93.5423 50.8824 94.1062 51.8808 94.2882 52.9787C94.9374 57.0311 90.24 59.9099 86.9646 57.4109C85.9857 56.6523 85.3314 55.5502 85.134 54.3275C84.9571 53.1267 85.2634 51.9047 85.9859 50.9294C86.7084 49.9541 87.7881 49.305 88.9884 49.1243Z" fill="#252525"/>
<path d="M77.6184 85.1616C78.8094 84.9805 79.92 84.4503 80.8096 83.638C81.6993 82.8257 82.3282 81.7679 82.6166 80.5982C82.9051 79.4285 82.8402 78.1996 82.4303 77.0668C82.0203 75.934 81.2836 74.9482 80.3134 74.2341C79.3432 73.5199 78.183 73.1095 76.9795 73.0548C75.7761 73 74.5834 73.3033 73.5523 73.9264C72.5212 74.5494 71.6981 75.4643 71.1869 76.5551C70.6758 77.646 70.4996 78.864 70.6806 80.055C70.8621 81.3778 71.4836 82.6009 72.445 83.5273C73.4065 84.4537 74.6518 85.0294 75.9804 85.1616V91.0416H75.7872C75.0007 91.1573 74.2455 91.4302 73.5668 91.8441C72.8881 92.258 72.2997 92.8044 71.8368 93.4506C71.1606 94.3508 70.7477 95.4211 70.6439 96.5422C70.5402 97.6633 70.7498 98.7911 71.2493 99.8001C71.7488 100.809 72.5187 101.66 73.4731 102.257C74.4275 102.854 75.529 103.175 76.6548 103.183C77.536 103.181 78.4065 102.99 79.2073 102.622C80.0081 102.255 80.7205 101.719 81.2962 101.052C81.8719 100.385 82.2974 99.6018 82.5439 98.7558C82.7905 97.9098 82.8522 97.0208 82.725 96.1488C82.5443 94.8258 81.9231 93.6023 80.9617 92.6757C80.0002 91.749 78.7546 91.1734 77.4258 91.0416V85.1616H77.6184ZM72.126 79.86C71.9832 78.9549 72.112 78.0278 72.4961 77.1959C72.8802 76.3639 73.5024 75.6646 74.2839 75.1863C75.0654 74.7079 75.9713 74.472 76.8869 74.5085C77.8024 74.5449 78.6867 74.852 79.4277 75.391C80.1688 75.9299 80.7334 76.6765 81.0501 77.5363C81.3669 78.3961 81.4216 79.3306 81.2073 80.2215C80.9931 81.1124 80.5194 81.9197 79.8463 82.5415C79.1732 83.1632 78.3309 83.5714 77.4258 83.7144C76.8237 83.8182 76.2069 83.8003 75.6119 83.6616C75.0169 83.5229 74.4557 83.2662 73.9616 82.9069C73.4675 82.5475 73.0505 82.0927 72.7352 81.5694C72.4199 81.0461 72.2127 80.4648 72.126 79.86ZM77.4258 101.733C76.6726 101.853 75.9014 101.785 75.1809 101.535C74.4603 101.285 73.8127 100.861 73.2957 100.3C72.7788 99.7395 72.4085 99.0596 72.2178 98.3212C72.0272 97.5827 72.0221 96.8085 72.203 96.0676C72.3839 95.3266 72.7452 94.6419 73.2547 94.0744C73.7642 93.5069 74.4062 93.0741 75.1234 92.8147C75.8406 92.5552 76.6108 92.4771 77.3655 92.5874C78.1202 92.6976 78.8359 92.9927 79.449 93.4464C82.836 95.9112 81.3504 101.131 77.4258 101.735V101.733Z" fill="#252525"/>
<path d="M74.535 25.8059V44.1137C73.7615 44.7188 73.0798 45.4328 72.5112 46.2335C72.0216 46.9025 73.0896 47.6789 73.6674 47.1011L75.6912 45.0773C76.4622 44.4989 77.2266 43.9109 78.0036 43.4393C79.6606 42.4535 81.4934 41.799 83.4 41.5121C83.979 41.4203 83.7858 40.4525 83.304 40.5485C81.2201 40.7401 79.1922 41.3289 77.3298 42.2831C76.8601 42.5033 76.4091 42.7611 75.981 43.0541V25.9025H76.1736C77.7695 25.6569 79.2029 24.7889 80.1601 23.4885C81.1172 22.1881 81.52 20.5615 81.2802 18.9647C80.493 13.5341 73.4622 11.9681 70.392 16.2647C69.4433 17.5715 69.0297 19.1913 69.2358 20.7929C69.4655 22.086 70.1044 23.2711 71.0584 24.1736C72.0125 25.0762 73.2312 25.6484 74.535 25.8059ZM74.631 15.2069C74.8242 15.2069 75.111 15.1103 75.306 15.1103C76.1562 15.1101 76.9896 15.3466 77.7128 15.7935C78.436 16.2404 79.0204 16.88 79.4005 17.6405C79.7805 18.4009 79.9412 19.2523 79.8644 20.0989C79.7877 20.9456 79.4766 21.7542 78.966 22.4339C78.4243 23.1666 77.6782 23.7228 76.8214 24.0329C75.9646 24.343 75.0353 24.3931 74.1502 24.1769C73.265 23.9607 72.4634 23.4879 71.8461 22.8177C71.2287 22.1476 70.823 21.31 70.68 20.4101C70.5354 19.1998 70.8666 17.9807 71.6037 17.0099C72.3409 16.0391 73.4263 15.3927 74.631 15.2069Z" fill="#252525"/>
<path d="M31.6566 46.5228C37.9452 46.5228 39.8586 39.5976 36.474 36.2124L41.3886 30.24C42.1901 30.7157 43.0718 31.0411 43.9902 31.2V44.304L29.3436 71.2866C29.3436 85.5258 29.4264 84.1014 29.151 84.1014C28.3599 84.2212 27.6002 84.4957 26.9154 84.9093C26.2305 85.3229 25.6338 85.8674 25.1596 86.5118C24.6853 87.1561 24.3427 87.8876 24.1513 88.6645C23.96 89.4414 23.9236 90.2483 24.0444 91.0392C24.8616 96.414 31.7994 98.124 34.9326 93.7392C37.7004 89.8638 35.487 84.6066 30.789 84.1032V71.6718L45.4356 44.6922V31.2C50.988 30.3456 52.2504 24.582 49.2894 21.0822C48.2029 19.8684 46.6788 19.1359 45.0522 19.0458C43.4257 18.9557 41.8299 19.5155 40.6161 20.6019C39.4023 21.6884 38.6697 23.2125 38.5796 24.8391C38.4896 26.4657 39.0493 28.0614 40.1358 29.2752C40.2768 29.4156 40.7958 28.6872 35.3178 35.3454C34.5367 34.8439 33.6512 34.528 32.7291 34.4219C31.8069 34.3159 30.8728 34.4225 29.9983 34.7336C29.1237 35.0447 28.3321 35.552 27.6842 36.2166C27.0362 36.8812 26.5491 37.6854 26.2602 38.5675C25.9714 39.4496 25.8885 40.3862 26.0179 41.3053C26.1473 42.2245 26.4855 43.1017 27.0066 43.8698C27.5278 44.6379 28.218 45.2764 29.0242 45.7363C29.8305 46.1962 30.7314 46.4653 31.6578 46.5228H31.6566ZM34.6434 89.4C34.7405 90.0049 34.7164 90.6229 34.5727 91.2184C34.429 91.8139 34.1685 92.3749 33.8063 92.8689C33.4441 93.3629 32.9874 93.78 32.4627 94.0961C31.938 94.4122 31.3557 94.621 30.7497 94.7103C30.1437 94.7996 29.526 94.7676 28.9324 94.6163C28.3388 94.465 27.7812 94.1973 27.2919 93.8288C26.8026 93.4603 26.3913 92.9983 26.0819 92.4695C25.7726 91.9408 25.5713 91.3559 25.4898 90.7488C25.2983 89.5351 25.5967 88.295 26.3194 87.3012C27.0421 86.3075 28.1299 85.6415 29.3436 85.4496C30.5659 85.2976 31.7997 85.6237 32.7873 86.3599C33.7749 87.096 34.4399 88.1852 34.6434 89.4ZM40.0392 24.939C40.3848 20.4456 45.8736 19.32 48.1332 22.1448C48.6407 22.7152 48.9996 23.4021 49.1779 24.1445C49.3562 24.8869 49.3485 25.6619 49.1555 26.4006C48.9624 27.1393 48.59 27.8189 48.0712 28.3791C47.5524 28.9393 46.9034 29.3628 46.1817 29.6119C45.46 29.8611 44.6879 29.9282 43.934 29.8073C43.1801 29.6865 42.4677 29.3814 41.8601 28.9191C41.2524 28.4568 40.7683 27.8517 40.4506 27.1574C40.133 26.463 39.9917 25.7011 40.0392 24.939ZM28.86 36.9834C29.546 36.3737 30.3975 35.981 31.3067 35.8551C32.2159 35.7293 33.142 35.8758 33.9679 36.2763C34.7938 36.6767 35.4825 37.3131 35.9467 38.1049C36.411 38.8967 36.63 39.8084 36.5762 40.7247C36.5223 41.6409 36.1979 42.5207 35.6441 43.2526C35.0903 43.9846 34.3318 44.5359 33.4647 44.8368C32.5975 45.1377 31.6606 45.1748 30.7725 44.9432C29.8843 44.7117 29.0847 44.222 28.4748 43.536C26.7096 41.5728 27.021 38.8242 28.86 36.9834Z" fill="#252525"/>
<path d="M46.3026 59.34C39.3468 60.465 39.4626 70.6314 46.4952 71.3844C46.4952 99.1788 46.6752 97.0968 46.11 96.5334C45.2424 95.9556 43.8936 95.4738 42.93 95.859C42.5448 96.0516 42.5448 96.726 42.93 96.8226C44.325 97.3806 44.337 96.8418 45.7242 97.8822C47.9526 99.2754 48.7242 102.646 46.3026 106.073C46.2485 106.176 46.2327 106.294 46.2582 106.407C46.2836 106.521 46.3486 106.621 46.4415 106.691C46.5344 106.76 46.6491 106.795 46.765 106.787C46.8808 106.78 46.9903 106.731 47.0736 106.651C49.2 104.071 50.1474 100.583 48.0366 98.1714V71.3826C50.7642 71.3826 53.9448 68.2578 53.3364 64.4448C53.0737 62.8385 52.1873 61.401 50.87 60.445C49.5527 59.489 47.9112 59.0919 46.3026 59.34ZM51.795 64.6398C51.9809 65.8512 51.6793 67.0868 50.9563 68.0763C50.2333 69.0658 49.1477 69.7287 47.9372 69.9197C46.7267 70.1108 45.4898 69.8145 44.4971 69.0958C43.5045 68.377 42.8371 67.2943 42.6408 66.0846C42.5453 65.4264 42.59 64.7554 42.7719 64.1156C42.9539 63.4759 43.269 62.8818 43.6966 62.3723C44.1242 61.8629 44.6547 61.4495 45.2532 61.1594C45.8517 60.8693 46.5048 60.7089 47.1696 60.6888C48.2865 60.6812 49.3688 61.0762 50.2182 61.8015C51.0677 62.5268 51.6274 63.5337 51.795 64.638V64.6398Z" fill="#252525"/>
<path d="M21.2496 78.3204C28.182 77.1 28.1142 67.032 21.06 66.276V60.396C21.8819 60.3139 22.6767 60.0566 23.3908 59.6414C24.105 59.2263 24.7219 58.663 25.2 57.9894C25.9273 57.0255 26.3501 55.8662 26.414 54.6604C26.478 53.4545 26.1802 52.257 25.5589 51.2216C24.9377 50.1861 24.0212 49.3599 22.9271 48.8488C21.833 48.3378 20.6112 48.1653 19.4184 48.3534C12.5442 49.35 12.5028 59.6364 19.611 60.3978C19.611 66.9252 19.6944 66.2778 19.4184 66.2778C18.2306 66.4561 17.1225 66.9829 16.2342 67.7913C15.3459 68.5997 14.7175 69.6535 14.4284 70.8193C14.1393 71.9851 14.2026 73.2104 14.6102 74.3402C15.0179 75.47 15.7516 76.4534 16.7184 77.166C18.3948 78.3702 19.8288 78.3204 21.2496 78.3204ZM15.7578 55.1004C15.6622 54.4422 15.7068 53.7711 15.8887 53.1313C16.0706 52.4915 16.3857 51.8974 16.8134 51.3879C17.241 50.8784 17.7715 50.4651 18.37 50.175C18.9686 49.8849 19.6217 49.7246 20.2866 49.7046C21.3756 49.7064 22.4286 50.0948 23.2579 50.8006C24.0872 51.5064 24.6389 52.4837 24.8148 53.5584C24.9908 54.77 24.6864 56.0024 23.9664 56.9925C23.2463 57.9827 22.1678 58.6522 20.961 58.8582C20.3721 58.9561 19.7697 58.9362 19.1886 58.7998C18.6075 58.6634 18.0591 58.4132 17.5753 58.0636C17.0915 57.714 16.6817 57.272 16.3697 56.763C16.0578 56.2541 15.8498 55.6884 15.7578 55.0986V55.1004ZM17.5884 76.0098C13.8402 73.1502 16.1718 67.6266 20.2884 67.6266C21.3775 67.6284 22.4305 68.0169 23.2599 68.7228C24.0892 69.4287 24.6409 70.4062 24.8166 71.481C25.458 75.4902 20.7396 78.4122 17.5884 76.008V76.0098Z" fill="#252525"/>
<path d="M114.233 71.7684C117.557 67.779 117.647 61.3062 113.174 56.8326C113.909 55.811 114.464 54.6703 114.812 53.4606C116.432 48.3408 113.533 42.1128 109.319 39.585C110.654 36.0822 110.36 30.7806 107.778 26.577C102.416 17.85 91.458 18.4998 89.3736 19.5432C87.8592 8.94 78.8202 2.96581 70.68 5.0898C63.6222 6.9312 61.3836 12.4926 61.14 19.6392C60.54 37.3842 60.9822 96.9516 61.14 97.11C60.3768 109.324 67.1136 115.83 77.8098 115.321C88.506 114.812 92.9724 108.139 91.2036 103.081C92.7432 102.922 94.2614 102.599 95.7324 102.118C98.634 101.09 101.993 99.1086 103.826 96.7212C105.806 94.1454 105.74 91.2156 105.464 90.9402C117.013 89.706 119.803 75.3324 114.233 71.7684ZM66.9228 110.214C64.7818 107.914 63.3731 105.03 62.8758 101.927C62.4558 100.247 62.5452 94.4574 64.1286 92.1954C64.6911 91.2412 65.4868 90.4455 66.441 89.883C66.9156 89.583 66.5376 88.9194 65.961 89.112C65.8644 89.112 65.8644 89.2086 65.7684 89.2086C64.0464 90.0696 63.5136 91.0014 62.5884 92.3886C62.7132 88.5258 62.685 86.9706 62.685 62.9034C63.4008 63.9665 64.325 64.8734 65.4015 65.569C66.478 66.2646 67.6844 66.7346 68.9478 66.9504C69.0482 66.9709 69.1527 66.9519 69.2394 66.8973C69.3261 66.8427 69.3885 66.7568 69.4134 66.6574C69.4383 66.5579 69.4239 66.4528 69.3731 66.3637C69.3224 66.2747 69.2392 66.2086 69.141 66.1794C65.8746 65.1744 64.0782 62.9016 62.685 59.9166C62.685 33.0258 63.2628 16.8966 63.2628 16.845C63.7842 14.2392 64.4724 11.589 66.4428 9.6186C74.1984 1.86301 89.5848 8.43601 88.7028 25.2282C88.7028 25.9026 89.6664 25.9026 89.763 25.2282C89.9394 23.8865 89.9716 22.5298 89.859 21.1812C90.6744 21.1812 92.9106 20.373 96.0258 20.892C99.1552 21.2186 102.095 22.5497 104.405 24.6861C106.714 26.8225 108.271 29.6494 108.84 32.7438C109.299 34.9121 109.233 37.1588 108.647 39.2964C108.088 38.9994 107.508 38.7417 106.913 38.5254C106.335 38.3328 106.046 39.1998 106.528 39.489C112.33 42.2196 114.877 48.3456 113.658 52.9788C112.84 56.088 110.922 57.3864 108.358 60.591C107.808 61.2792 106.738 62.991 106.624 63.867C106.51 64.743 107.498 65.2206 107.973 64.4454C109.309 62.2638 109.558 61.5114 111.827 59.2422C112.02 59.049 112.213 58.7622 112.405 58.5672C117.799 64.2606 114.887 72.1188 109.418 74.0808C109.301 74.1193 109.2 74.1965 109.133 74.2996C109.065 74.4028 109.034 74.5258 109.045 74.6488C109.056 74.7717 109.109 74.8872 109.194 74.9765C109.279 75.0658 109.392 75.1236 109.514 75.1404C110.929 75.0104 112.256 74.3982 113.273 73.4064C113.418 73.4784 113.548 73.5764 113.658 73.6956C117.973 78.0102 113.927 89.2842 104.793 89.5956C97.8786 89.8302 94.3596 84.6414 90.147 80.2494C89.7696 79.8558 89.0766 80.352 89.376 80.8272C92.6376 86.0058 97.374 91.2342 104.023 91.3272C104.023 93.1992 104.263 95.3808 99.6864 98.6502C95.6304 101.548 91.1952 102.119 86.871 102.119C86.7392 102.122 86.6129 102.173 86.5164 102.263C86.4199 102.352 86.3599 102.475 86.3479 102.606C86.336 102.737 86.3729 102.868 86.4516 102.974C86.5303 103.08 86.6452 103.153 86.7744 103.179C87.7474 103.446 88.7529 103.576 89.7618 103.565C89.7618 103.625 92.4066 110.029 83.1132 113.008C79.4238 114.184 75.4703 114.251 71.7432 113.2C71.3598 113.096 70.9722 112.911 70.587 112.815C69.9246 111.716 69.0516 112.343 66.9228 110.214Z" fill="#252525"/>
<path d="M75.7878 63L92.94 71.0934C91.4742 74.7582 94.422 79.284 98.625 79.284C99.5065 79.2833 100.378 79.0928 101.179 78.7255C101.98 78.3581 102.693 77.8226 103.269 77.1552C103.845 76.4878 104.271 75.7043 104.517 74.8578C104.763 74.0113 104.824 73.1217 104.696 72.2496C104.577 71.458 104.303 70.6976 103.89 70.0121C103.477 69.3266 102.932 68.7294 102.288 68.2549C101.643 67.7804 100.911 67.4379 100.134 67.2471C99.3565 67.0563 98.5491 67.0209 97.758 67.143C96.9281 67.2765 96.1336 67.5756 95.4217 68.0225C94.7098 68.4695 94.0952 69.0551 93.6144 69.7446L77.52 62.1324L78.9654 57.0258L69.1374 52.6896L68.559 54.0384L77.2308 57.8928L75.7878 63ZM98.0478 68.5884C102.161 67.9674 104.959 72.6624 102.48 75.9114C101.938 76.6436 101.192 77.1996 100.335 77.5095C99.4785 77.8194 98.5494 77.8694 97.6644 77.6534C96.7794 77.4373 95.9779 76.9647 95.3604 76.2949C94.7429 75.625 94.3369 74.7878 94.1934 73.8882C94.0806 73.2853 94.0921 72.6657 94.2271 72.0674C94.362 71.4691 94.6176 70.9046 94.9783 70.4085C95.3389 69.9124 95.797 69.4951 96.3245 69.1822C96.8519 68.8692 97.4377 68.6671 98.046 68.5884H98.0478Z" fill="#252525"/>
<path d="M59.118 42.861C58.8612 18.201 59.1558 15.423 56.8056 10.9674C51.2112 0.35996 33.0918 3.12716 30.5004 19.5432C25.9116 17.5032 12.1404 19.6428 10.0728 32.1654C9.675 34.5726 9.687 37.3692 10.6506 39.6816C4.743 43.8168 2.8686 51.3702 6.8928 56.7366C2.7258 61.0926 2.2872 67.0728 5.7366 71.6718C0.6894 74.9166 2.5836 87.9246 12.2886 90.4613C13.0194 90.6321 13.7594 90.7607 14.505 90.8465C14.2476 91.104 14.1114 93.8214 15.6612 96.1464C18.3012 100.106 24.7746 103.084 28.6692 103.084C27.4782 106.061 28.0296 109.059 30.789 111.178C34.764 114.229 41.604 115.186 45.1464 114.743C48.7812 114.484 53.2212 112.591 55.842 109.058C58.758 105.126 58.9254 99.3456 58.9254 95.1828C58.9254 95.1168 59.3598 66.06 59.118 42.861ZM17.5884 95.76C17.0264 95.1012 16.6077 94.3327 16.3588 93.5033C16.11 92.674 16.0365 91.8019 16.143 90.9426C17.1936 90.6797 18.7332 90.5148 19.6116 90.075C20.19 89.8824 19.7082 89.1114 19.2264 89.2079C17.312 89.5615 15.3463 89.5286 13.4448 89.1114C2.7582 86.2991 3.8448 73.854 6.7002 73.3092C7.1802 73.2174 7.9524 73.9836 8.4342 74.2728C11.7006 75.906 11.5116 74.1102 10.8432 73.8876C5.253 72.024 2.592 63.639 7.8564 58.3746C8.12366 58.655 8.41365 58.9129 8.7234 59.1456C8.87152 59.2276 9.0423 59.2591 9.20996 59.2355C9.37761 59.2119 9.53303 59.1344 9.65275 59.0147C9.77247 58.895 9.84998 58.7396 9.87359 58.5719C9.89719 58.4043 9.86561 58.2335 9.7836 58.0854C9.4176 57.3534 8.2134 56.4252 7.7598 55.2912C3.9798 48.8466 8.6964 39.6912 19.5156 37.851C20.0934 37.7526 19.9008 36.7908 19.419 36.8874C16.9302 37.0788 16.0338 37.134 11.7108 39.2958C9.7692 30.561 14.7504 22.3986 23.6586 20.9886C25.9354 20.6346 28.2597 20.7326 30.4986 21.2772C30.4235 22.6266 30.4558 23.9798 30.5952 25.3242C30.6918 25.9992 31.6554 25.9992 31.6554 25.3242C30.7974 9.88436 44.4354 2.18996 53.2392 9.23276C57.9408 12.3678 57.594 22.3416 57.4788 27.6372C57.3822 32.0694 57.5748 36.5982 57.5748 41.0304C57.5748 44.3124 55.1646 47.622 52.179 49.4136C51.5824 49.6398 51.0286 49.9656 50.541 50.3772C50.2518 50.5698 50.4444 51.1482 50.7336 51.2442C52.7298 51.5292 56.3844 47.9286 57.5736 45.945C57.5736 48.8352 57.6702 89.4978 57.6702 93.7374C57.6702 103.577 55.9644 104.993 55.6464 106.264C52.2726 113.012 43.9848 114.684 36.8574 112.334C35.034 111.734 32.6208 110.886 31.2684 109.444C28.9542 106.974 30.498 103.664 30.498 103.469C31.5076 103.497 32.5154 103.367 33.4848 103.084C33.608 103.051 33.7156 102.976 33.7886 102.872C33.8616 102.767 33.8953 102.64 33.8838 102.513C33.8722 102.386 33.8161 102.268 33.7254 102.178C33.6347 102.089 33.5153 102.034 33.3882 102.024C31.9061 102.024 30.4256 101.927 28.956 101.735C24.3468 101.139 19.7754 98.4234 17.5884 95.76Z" fill="#252525"/>
</svg>
