<svg width="120" height="120" viewBox="0 0 120 120" fill="none" xmlns="http://www.w3.org/2000/svg">
<path d="M63.3072 21.3528C63.6781 21.1306 64.117 21.0507 64.5424 21.1279C64.9678 21.2052 65.3506 21.4344 65.6196 21.7728C66.3396 22.5684 66.3018 23.7438 66.2262 24.7674C66.1884 25.0704 66.681 25.1082 66.7188 24.843C67.2324 22.2738 65.892 20.6736 64.293 20.6736C64.0712 20.6768 63.8524 20.7256 63.6502 20.8168C63.4481 20.908 63.2668 21.0398 63.1176 21.204C63.0979 21.2291 63.0889 21.2611 63.0928 21.2928C63.0966 21.3245 63.1129 21.3535 63.138 21.3732C63.1631 21.3929 63.1951 21.4019 63.2268 21.398C63.2586 21.3942 63.2875 21.3779 63.3072 21.3528Z" fill="#644DF6"/>
<path d="M67.4766 22.6039C67.5935 22.946 67.6574 23.3039 67.6662 23.6653V24.2335C67.6662 24.4231 67.5912 24.6535 67.7046 24.8023C67.7331 24.8437 67.7752 24.8739 67.8236 24.8877C67.872 24.9015 67.9237 24.8981 67.9698 24.8779C68.1594 24.7645 68.1594 24.5371 68.1594 24.3475C68.2011 23.7319 68.1237 23.114 67.9314 22.5277C67.711 21.7158 67.2154 21.0057 66.5292 20.5189C66.4152 20.4433 66.2262 20.5945 66.3018 20.7463C66.8156 21.2792 67.2154 21.9112 67.4766 22.6039Z" fill="#644DF6"/>
<path d="M68.9178 22.3002C69.3258 23.49 68.841 24.0402 68.9928 24.3474C69.0019 24.3729 69.0161 24.3963 69.0347 24.416C69.0532 24.4358 69.0756 24.4515 69.1006 24.4622C69.1255 24.4728 69.1523 24.4782 69.1794 24.4779C69.2065 24.4777 69.2333 24.4719 69.258 24.4608C69.5616 24.2712 69.6 23.6652 69.6 23.3208C69.623 22.7072 69.4759 22.0992 69.1748 21.564C68.8738 21.0288 68.4305 20.5873 67.8942 20.2884C67.7046 20.1744 67.5528 20.478 67.7046 20.5884C68.2703 21.0256 68.6927 21.6216 68.9178 22.3002Z" fill="#644DF6"/>
<path d="M69.8652 22.0728C69.9335 22.296 69.9841 22.5243 70.0164 22.7556C70.0164 24.1278 70.4718 23.6526 70.4718 23.1756V22.7556C70.4449 22.4705 70.3811 22.1902 70.2822 21.9216C70.0832 21.3955 69.7576 20.9267 69.3342 20.5566C69.304 20.5268 69.2632 20.5101 69.2207 20.5103C69.1783 20.5104 69.1376 20.5273 69.1076 20.5574C69.0776 20.5874 69.0606 20.628 69.0605 20.6705C69.0603 20.7129 69.077 20.7537 69.1068 20.784C69.4573 21.148 69.7172 21.5895 69.8652 22.0728Z" fill="#644DF6"/>
<path d="M56.2566 46.98C57.0156 48.534 58.1898 50.2398 59.8956 50.8842C60.2082 50.8842 61.29 50.4918 62.1702 50.316C68.955 49.0236 74.2242 50.6064 79.3458 48.744C80.5304 48.3446 81.6332 47.7348 82.6014 46.944H82.6392C82.9044 46.9818 82.9806 46.4892 82.7154 46.4514C81.9938 46.3363 81.3145 46.0359 80.7438 45.5796C79.1838 44.3328 78.4698 41.7996 78.4698 39.7038C78.3726 34.3788 80.4654 25.2732 77.9388 20.2206C78.0288 20.0856 77.9694 19.8912 77.4876 19.971C77.0934 20.0364 76.8132 20.3592 70.8876 21.891C70.698 21.9294 70.7736 22.2324 70.9632 22.1946C73.1772 21.8484 77.4072 20.7162 77.7102 20.4126C78.897 24.7644 78.7902 27.2922 78.279 33.225C77.8518 38.01 77.334 40.8528 78.7338 43.9146C79.0176 44.6009 79.4506 45.2153 80.0013 45.7135C80.5521 46.2116 81.2068 46.5809 81.918 46.7946C80.8474 47.4578 79.7023 47.9923 78.5064 48.387C74.3322 49.6626 69.522 48.9006 64.8222 49.407C63.9504 49.4832 63.0786 49.6344 62.2068 49.7862C61.4034 49.905 60.6233 50.1479 59.8944 50.5062C59.3156 50.0404 58.7711 49.5337 58.2648 48.99C57.7257 48.4168 57.2787 47.7635 56.94 47.0532C55.1856 43.7118 55.32 39.9528 55.6128 36.174C55.7646 34.1268 56.4468 23.814 56.4468 23.3238C59.1236 23.5265 61.8132 23.4885 64.4832 23.2104C64.8618 23.172 65.241 23.0586 65.6202 22.9824C65.6583 22.9751 65.6923 22.9535 65.7151 22.9221C65.738 22.8907 65.748 22.8518 65.7432 22.8132C65.7384 22.7746 65.7191 22.7394 65.6892 22.7145C65.6594 22.6897 65.6212 22.6771 65.5824 22.6794C65.1654 22.7172 64.7862 22.7172 64.3692 22.755C63.99 22.7934 63.6114 22.8312 63.27 22.8312C60.9227 23.0059 58.5653 22.9933 56.22 22.7934C56.175 22.7908 56.1302 22.8014 56.0912 22.8239C56.0522 22.8465 56.0206 22.8799 56.0005 22.9202C55.9803 22.9605 55.9724 23.0059 55.9777 23.0506C55.983 23.0954 56.0013 23.1376 56.0304 23.172C55.8462 24.2784 55.161 34.872 55.1208 35.6052C54.8166 39.5094 54.5532 43.4886 56.2566 46.98Z" fill="#252525"/>
<path d="M70.0164 26.6598C68.8038 27.4932 68.1972 28.896 67.7424 30.2598C67.098 29.1228 66.3024 27.9858 65.013 27.4926C62.739 26.583 60.8814 28.5924 61.1088 30.8286C61.3362 32.9136 62.8902 34.695 64.4088 36.0216C65.4797 37.0108 66.6781 37.8523 67.9722 38.5236C68.01 38.7132 68.2374 38.9028 68.427 38.6754C69.6 37.2 70.74 35.7192 71.9118 34.2408C73.0872 32.7246 74.4918 31.0188 74.6412 29.0478C74.8116 26.4066 72.1446 25.218 70.0164 26.6598Z" fill="#644DF6"/>
<path d="M74.0346 38.4864C74.0322 38.4325 74.0113 38.3811 73.9756 38.3407C73.9398 38.3003 73.8912 38.2734 73.838 38.2645C73.7848 38.2556 73.7301 38.2652 73.6831 38.2917C73.6361 38.3182 73.5997 38.36 73.5798 38.4102C73.0116 39.9648 72.48 41.5188 71.9118 43.0728C71.8356 42.8832 71.7606 42.6936 71.6844 42.4662C71.571 42.2388 71.1918 42.2388 71.1918 42.5424C71.1918 43.0728 70.2822 42.9624 69.9408 43.035C69.687 43.0861 69.4514 43.2037 69.258 43.3758C69.1824 43.1484 69.1452 42.921 69.069 42.6558C69.0531 42.608 69.0225 42.5664 68.9817 42.537C68.9408 42.5075 68.8917 42.4917 68.8413 42.4917C68.7909 42.4917 68.7418 42.5075 68.701 42.537C68.6601 42.5664 68.6295 42.608 68.6136 42.6558C68.3547 43.3717 68.152 44.1068 68.0076 44.8542C67.9698 43.0728 67.8942 41.3292 67.8558 39.5478C67.8523 39.4897 67.829 39.4345 67.7898 39.3914C67.7506 39.3483 67.6978 39.3199 67.6402 39.311C67.5827 39.3021 67.5238 39.3132 67.4734 39.3424C67.423 39.3716 67.3841 39.4172 67.3632 39.4716C67.0359 40.8709 66.592 42.2403 66.036 43.5654C65.9232 43.2246 65.847 42.921 65.736 42.5802C65.6598 42.3528 65.319 42.315 65.2806 42.5802C65.205 43.1484 64.7118 43.7928 64.0674 43.4898C64.0101 43.4638 63.9458 43.4571 63.8844 43.4707C63.8229 43.4843 63.7675 43.5176 63.7266 43.5654C63.651 43.7172 63.6132 43.8312 63.537 43.9854C63.4534 43.6767 63.3522 43.373 63.234 43.0758C63.1584 42.8862 62.8548 42.9624 62.7792 43.1514C62.5437 44.0233 62.3663 44.9098 62.2482 45.8052C62.097 43.8342 61.983 41.8248 61.983 39.8538C61.9841 39.8024 61.9669 39.7522 61.9343 39.7124C61.9017 39.6725 61.856 39.6456 61.8053 39.6365C61.7547 39.6274 61.7024 39.6366 61.658 39.6626C61.6136 39.6886 61.5799 39.7296 61.563 39.7782C61.2603 40.6165 61.032 41.4799 60.8808 42.3582C60.8417 42.9965 60.7009 43.6244 60.4638 44.2182C60.3498 43.953 60.2364 43.65 60.123 43.3842C60.0468 43.1952 59.7438 43.1952 59.7438 43.4226C59.7438 43.6122 59.2512 43.9908 59.1366 44.0286C58.9854 44.067 58.3032 44.067 58.1166 44.1048C58.0828 44.116 58.0546 44.1398 58.0379 44.1713C58.0213 44.2027 58.0174 44.2394 58.0272 44.2737C58.0369 44.3079 58.0596 44.3371 58.0903 44.355C58.1211 44.373 58.1576 44.3784 58.1922 44.37C58.647 44.2944 59.0646 44.5218 59.4816 44.2944C59.6619 44.225 59.8194 44.1068 59.9364 43.953C60.0498 44.1804 60.126 44.4078 60.2364 44.673C60.245 44.7036 60.2615 44.7313 60.2842 44.7534C60.3069 44.7755 60.3351 44.7912 60.3658 44.799C60.3966 44.8067 60.4288 44.8062 60.4593 44.7974C60.4898 44.7887 60.5174 44.7721 60.5394 44.7492C61.0704 44.1804 61.1082 43.3842 61.2216 42.6642C61.2972 42.1716 61.4112 41.7168 61.5252 41.2242C61.54 43.5927 61.6792 45.9588 61.9422 48.3126C61.98 48.6162 62.4348 48.654 62.4348 48.3126C62.5016 46.894 62.7047 45.4851 63.0414 44.1054C63.11 44.3284 63.1606 44.5565 63.1926 44.7876C63.231 45.015 63.534 45.015 63.648 44.8632C63.8093 44.6236 63.9486 44.37 64.0644 44.1054C64.3377 44.1653 64.6228 44.1391 64.8806 44.0305C65.1384 43.9219 65.3563 43.7362 65.5044 43.4988C65.6178 43.7988 65.694 44.1054 65.8044 44.4462C65.8183 44.4921 65.8448 44.5332 65.8808 44.5648C65.9168 44.5964 65.9609 44.6174 66.0082 44.6253C66.0555 44.6333 66.104 44.6278 66.1484 44.6096C66.1927 44.5915 66.2311 44.5612 66.2592 44.5224C66.7064 43.4952 67.0988 42.4449 67.4346 41.376C67.5102 43.4232 67.548 45.432 67.6614 47.4792C67.6614 47.5349 67.6835 47.5883 67.7229 47.6277C67.7623 47.6671 67.8157 47.6892 67.8714 47.6892C67.9271 47.6892 67.9805 47.6671 68.0199 47.6277C68.0593 47.5883 68.0814 47.5349 68.0814 47.4792C68.1835 46.1901 68.4379 44.9177 68.8392 43.6884C68.8725 43.8574 68.9231 44.0225 68.9904 44.181C69.0666 44.4084 69.4104 44.4084 69.4452 44.181C69.5976 43.4988 70.2798 43.6128 70.8102 43.5366C71.0381 43.4984 71.2494 43.3929 71.4168 43.2336C71.493 43.461 71.6064 43.6884 71.682 43.9158C71.6979 43.9636 71.7285 44.0052 71.7694 44.0347C71.8102 44.0641 71.8593 44.08 71.9097 44.08C71.9601 44.08 72.0092 44.0641 72.0501 44.0347C72.0909 44.0052 72.1215 43.9636 72.1374 43.9158C72.63 42.5514 73.1226 41.1486 73.6152 39.7842C73.767 42.2478 73.9152 44.6736 74.0706 47.1378C74.075 47.2001 74.1028 47.2584 74.1484 47.301C74.1941 47.3436 74.2542 47.3672 74.3166 47.3672C74.379 47.3672 74.4391 47.3436 74.4848 47.301C74.5304 47.2584 74.5583 47.2001 74.5626 47.1378C74.7231 45.7228 74.9635 44.3179 75.2826 42.93C75.6569 42.8571 76.0389 42.8317 76.4196 42.8544C76.4849 42.8695 76.5536 42.8581 76.6105 42.8226C76.6673 42.7871 76.7078 42.7304 76.7229 42.6651C76.738 42.5998 76.7266 42.5311 76.6911 42.4743C76.6556 42.4174 76.5989 42.3769 76.5336 42.3618C76.089 42.3617 75.6452 42.3997 75.207 42.4752C74.7144 42.4752 74.5248 44.2572 74.4108 44.712C74.262 42.54 74.1486 40.533 74.0346 38.4864Z" fill="#252525"/>
<path d="M39.0858 14.8709C39.1614 15.0983 39.351 15.2909 39.5028 15.0227C39.654 14.7191 39.0858 11.9141 39.0474 11.6489C39.0096 11.4971 38.7474 11.5349 38.7474 11.6867C38.82 12.2555 39.0474 14.6813 39.0858 14.8709Z" fill="#644DF6"/>
<path d="M39.768 11.8386C39.8436 12.066 39.9954 12.2556 40.1466 12.2178C40.5258 12.1038 40.2606 11.232 39.9192 11.3454C39.768 11.3838 39.7296 11.6112 39.768 11.8386Z" fill="#644DF6"/>
<path d="M37.2282 12.2549C37.3038 12.4829 37.4556 12.6749 37.6068 12.6341C37.986 12.5207 37.7208 11.6489 37.3794 11.7623C37.3367 11.7843 37.2989 11.8146 37.268 11.8514C37.2372 11.8883 37.2141 11.9309 37.2 11.9768C37.1859 12.0227 37.1812 12.0709 37.186 12.1187C37.1908 12.1665 37.2052 12.2128 37.2282 12.2549Z" fill="#644DF6"/>
<path d="M36.9246 16.2732C37.2576 16.809 37.569 17.676 38.2896 17.7894C39.0474 17.9034 39.5022 17.3346 39.9192 16.8042C40.0332 16.6524 39.768 16.425 39.6192 16.5768C38.9706 17.3328 38.3196 17.7096 37.8378 16.842C37.763 16.6937 37.674 16.5531 37.572 16.422C38.0533 16.4565 38.537 16.4311 39.012 16.3464C39.5371 16.2704 40.0481 16.1169 40.5282 15.891C40.6422 15.8154 40.6044 15.702 40.4904 15.6258C40.3764 15.5496 40.0704 15.702 39.9216 15.702C39.0157 15.9154 38.0809 15.9793 37.1544 15.891C37.1096 15.8913 37.0656 15.903 37.0267 15.9252C36.9877 15.9473 36.9551 15.9791 36.9321 16.0175C36.909 16.0559 36.8962 16.0996 36.8949 16.1444C36.8935 16.1892 36.9038 16.2336 36.9246 16.2732Z" fill="#644DF6"/>
<path d="M24.8706 73.8144C24.6846 73.8144 24.507 74.1312 24.7572 74.2314C25.8654 74.6652 27.4182 75.018 28.8132 75.4818C29.0262 75.546 29.2752 75.6462 29.526 75.708C30.0204 75.828 30.0798 75.8202 31.3194 75.543C31.3794 75.5292 40.6536 73.3002 40.7154 73.284C40.9494 73.224 40.908 72.8316 40.8294 72.753C40.4562 72.4266 38.7156 71.9976 38.2494 71.8812C37.7832 71.7648 37.3392 71.616 36.8466 71.502C36.7599 71.6609 36.6443 71.8023 36.5058 71.919L38.0976 72.3744C38.8866 72.5712 39.765 72.9048 39.9168 72.9426C39.2346 73.0944 33.5112 74.421 32.6394 74.6484C31.8054 74.8758 30.9714 75.0654 30.1374 75.3684C29.7216 75.0036 25.9866 74.0934 25.4142 73.9842C26.1276 73.7898 26.7258 73.6242 27.4842 73.4352C28.2042 73.2456 28.962 73.0938 29.6826 72.9042C29.6826 72.8256 29.703 72.9162 29.4174 72.4872C27.8767 72.8384 26.3583 73.2816 24.8706 73.8144Z" fill="#252525"/>
<path d="M35.4084 71.6159C35.4468 71.4641 35.4468 71.3123 35.4846 71.1611C35.0352 71.1611 31.503 72.0707 30.8976 72.2225C30.9522 72.3851 30.9996 72.6653 31.0116 72.6773C31.6182 72.5255 32.2248 72.3743 32.8308 72.2573C33.6648 72.0329 34.5366 71.8433 35.4084 71.6159Z" fill="#252525"/>
<path d="M35.0298 70.0243C35.2663 70.1002 35.5066 70.1635 35.7498 70.2139C35.7876 70.0999 35.8254 69.9481 35.8632 69.8347C35.6154 69.7535 35.3622 69.6902 35.1054 69.6451C35.0955 69.6251 35.0818 69.6073 35.065 69.5927C35.0482 69.5781 35.0286 69.5669 35.0075 69.5599C34.9863 69.5528 34.964 69.5501 34.9418 69.5517C34.9195 69.5534 34.8979 69.5594 34.878 69.5695C33.753 69.8017 30.3522 70.6153 30.2916 70.6303C30.3384 70.7883 30.4017 70.941 30.4806 71.0857C30.723 71.0161 34.3764 70.1827 35.0298 70.0243Z" fill="#252525"/>
<path d="M35.1432 75.4447C34.655 75.3959 34.1621 75.4608 33.7032 75.6343C33.3246 75.8233 32.8692 76.1647 33.0966 76.6543C33.4002 77.3743 34.4238 77.1091 34.992 76.9201C35.3192 76.8358 35.6112 76.6499 35.826 76.3891C36.2046 75.7477 35.7498 75.4849 35.1432 75.4447Z" fill="#252525"/>
<path d="M39.1236 74.6483C38.6386 74.5733 38.1424 74.6254 37.6836 74.7995C37.5425 74.8442 37.4123 74.9179 37.3013 75.0158C37.1903 75.1138 37.101 75.2338 37.0392 75.3683C37.0137 75.4555 37.0064 75.547 37.0176 75.6371C37.0289 75.7272 37.0585 75.8141 37.1047 75.8923C37.1509 75.9705 37.2126 76.0385 37.2861 76.0919C37.3595 76.1453 37.4432 76.1831 37.5318 76.2029C37.9172 76.2858 38.3167 76.2776 38.6984 76.1789C39.08 76.0801 39.4334 75.8936 39.7302 75.6341C40.26 74.9891 39.7668 74.7323 39.1236 74.6483Z" fill="#252525"/>
<path d="M41.739 74.838C42.2644 74.9257 42.8041 74.8599 43.293 74.6484C44.127 74.307 44.4678 73.3218 43.3308 73.17C42.8101 73.1028 42.2814 73.1955 41.8146 73.4358C41.1768 73.86 40.956 74.664 41.739 74.838Z" fill="#252525"/>
<path d="M38.6688 77.1505C38.2896 77.3017 37.8348 77.4157 37.4178 77.5675C37.38 77.6053 36.3564 78.0979 36.8112 78.1357H36.849C37.2282 78.1735 39.1614 77.9083 38.9718 77.3401C38.966 77.3069 38.9533 77.2752 38.9345 77.2473C38.9157 77.2193 38.8912 77.1956 38.8626 77.1777C38.834 77.1598 38.802 77.1481 38.7686 77.1434C38.7352 77.1388 38.7012 77.1412 38.6688 77.1505Z" fill="#252525"/>
<path d="M40.98 76.9985C41.6813 76.8853 42.368 76.6945 43.0272 76.4297C43.0797 76.3922 43.119 76.339 43.1394 76.2778C43.1598 76.2165 43.1602 76.1504 43.1406 76.0889C42.8754 75.5201 41.2074 76.4297 40.8288 76.5815C40.7759 76.6034 40.7336 76.6447 40.7105 76.6971C40.6874 76.7494 40.6854 76.8086 40.7049 76.8623C40.7244 76.9161 40.7639 76.9602 40.8151 76.9856C40.8664 77.011 40.9254 77.0156 40.98 76.9985Z" fill="#252525"/>
<path d="M45.1506 75.6719C45.8706 75.8231 46.8564 75.4067 47.5008 75.1415C47.6142 75.1031 47.652 74.9135 47.6142 74.7995C47.5939 74.74 47.5512 74.6909 47.4951 74.6626C47.439 74.6344 47.374 74.6292 47.3142 74.6483C46.5222 74.7084 45.7557 74.9552 45.0774 75.3683C44.961 75.4439 45.0366 75.6335 45.1506 75.6719Z" fill="#252525"/>
<path d="M73.3146 55.5816C63.0846 59.5482 52.9914 65.9448 39.9576 70.2894C39.9233 70.304 39.8953 70.3304 39.8788 70.3638C39.8622 70.3972 39.8581 70.4355 39.8672 70.4717C39.8763 70.5078 39.8981 70.5396 39.9285 70.5611C39.9589 70.5827 39.9961 70.5927 40.0332 70.5894C50.3358 67.8294 59.229 62.0448 71.8362 56.7894C75.7266 55.1694 79.0842 54.1824 83.2458 54.0222C87.6232 53.9177 91.9781 54.6797 96.06 56.2644C96.36 56.3778 96.477 55.8852 96.2112 55.7712C92.5797 54.3099 88.715 53.5138 84.8016 53.421C80.8672 53.3725 76.9625 54.1069 73.3146 55.5816Z" fill="#252525"/>
<path d="M106.406 83.7078C105.627 83.9386 104.877 84.2566 104.17 84.6558C99.7296 86.9958 97.5696 88.872 93.3288 90.1158C88.152 91.5396 83.7978 90.6846 79.3416 90.6846C75.468 90.6846 73.5876 91.173 71.2296 92.352C69.1446 93.4134 64.9752 95.802 64.9374 95.802C65.5374 92.055 63.9312 87.2562 62.0574 83.9754C60.4537 81.1726 58.1897 78.8039 55.4622 77.0754C55.1586 76.8864 54.8556 76.7346 54.5142 76.545C54.5642 76.2462 54.5877 75.9437 54.5844 75.6408C54.579 75.4254 54.4836 75.4098 54.4074 75.387C53.2482 75.0384 37.827 70.4016 37.6074 70.3284C37.569 70.3662 37.4178 70.6698 37.3416 70.7448C38.8578 71.2002 53.3016 75.5592 53.4516 75.5976C48.4164 76.7418 38.6736 79.386 37.6452 79.7292C37.5732 79.7052 23.076 75.1026 18.7302 73.9692C19.6398 73.7796 27.4104 71.8848 28.737 71.544C28.6614 71.3922 28.5858 71.2782 28.5096 71.124C28.434 71.124 17.934 73.7772 17.8584 73.8534C17.7519 74.2024 17.6631 74.5567 17.5926 74.9148C15.3564 75.2562 13.6128 77.4168 13.2726 78.4026C12.06 78.8196 8.4588 80.2974 7.8522 80.5248C7.36262 80.675 6.9015 80.9057 6.4878 81.2076C6.46134 81.2368 6.44394 81.2732 6.4377 81.3121C6.43146 81.3511 6.43666 81.391 6.45266 81.4271C6.46867 81.4632 6.49479 81.4938 6.52786 81.5153C6.56093 81.5369 6.59954 81.5483 6.639 81.5484C7.4352 81.4728 16.8738 77.7198 17.559 77.4546C17.6352 77.4924 19.1892 78.0234 19.9092 78.2508C30.9606 81.648 38.0514 83.3622 37.6092 83.2542C38.8429 84.0408 40.0093 84.9282 41.0964 85.9074C43.3373 88.021 45.051 90.631 46.0998 93.5274C47.1894 96.2874 48.0126 99.6804 47.3508 102.549C46.563 105.621 43.9686 107.289 41.1708 108.729C33.4134 112.782 31.8564 113.289 24.4542 116.649C24.2646 116.725 24.3786 117.069 24.606 116.99C32.7312 113.94 40.6638 109.56 41.5116 109.181C41.5341 109.22 41.5677 109.252 41.6081 109.272C41.6486 109.292 41.6941 109.3 41.739 109.294C43.2708 109.363 44.7919 109.009 46.1358 108.271C50.19 106.774 54.0558 105.373 57.5838 103.457C60.8994 101.712 64.1838 100.029 64.9368 96.2568C67.1214 95.5308 71.1204 92.6244 73.9212 91.7832C80.5578 89.913 88.1814 93.558 96.9672 89.3958C100.22 87.8112 101.382 86.6358 106.633 84.0126C106.634 83.8596 106.56 83.6676 106.406 83.7078ZM54.096 75.9C54.096 75.9378 54.0204 76.5066 54.0204 76.5444C53.262 76.6962 38.1378 80.5998 37.7604 80.7138C37.7793 80.4489 37.7793 80.183 37.7604 79.9182C38.7822 79.6902 52.9968 76.1646 54.096 75.9ZM17.9718 77.04C18.0096 76.8126 18.237 74.16 18.237 74.16C20.5116 74.8428 37.1904 79.92 37.3038 79.9602C37.1904 80.3802 37.0386 82.1964 37.0008 82.6512C36.9408 82.6464 18.5922 77.262 17.9718 77.0364V77.04ZM61.9428 99.9732C60.7811 100.96 59.4936 101.788 58.1142 102.437C52.995 105.065 52.7208 105 47.4246 107.177C47.652 106.911 47.9178 106.646 48.1068 106.38C51.1482 102.22 51.3246 93.3654 44.0514 85.38C42.4611 83.5218 40.5149 82.0009 38.3274 80.907C39.204 80.7006 52.7352 77.2752 54.2874 76.8132C56.9664 78.416 59.2477 80.6048 60.96 83.2152C62.5881 85.8246 63.7078 88.7185 64.26 91.7442C64.5506 93.2351 64.5375 94.7692 64.2216 96.255C63.8777 97.7046 63.0792 99.0062 61.9428 99.9696V99.9732Z" fill="#252525"/>
<path d="M113.533 74.4211C112.341 73.448 111.029 72.6327 109.628 71.9953C106.762 70.6557 103.65 69.9205 100.487 69.8357C97.3245 69.7508 94.178 70.3181 91.2438 71.5021C90.9786 71.6161 91.1682 72.0709 91.4334 71.9569C95.0086 70.5601 98.8743 70.0715 102.685 70.5346C106.495 70.9977 110.131 72.3982 113.267 74.6107C113.46 74.7241 113.647 74.4967 113.533 74.4211Z" fill="#252525"/>
<path d="M87.15 64.6409C86.85 64.7171 86.9982 65.1341 87.2634 65.0957C90.1992 64.396 93.1949 63.9773 96.21 63.8453C98.939 63.7717 101.659 64.1823 104.245 65.0579C104.946 65.3024 105.63 65.5938 106.292 65.9303C106.982 66.2589 107.653 66.6257 108.301 67.0289C108.415 67.1051 108.491 66.9533 108.377 66.8777C107.319 66.0118 106.129 65.3206 104.852 64.8305C103.581 64.315 102.26 63.9339 100.91 63.6935C96.6204 62.8241 91.2558 63.5213 87.15 64.6409Z" fill="#252525"/>
<path d="M85.9368 58.1591C84.3294 58.343 82.7583 58.7646 81.2748 59.4101C81.1608 59.4857 81.237 59.5997 81.3504 59.5997C82.2696 59.4977 83.6598 59.0693 85.482 58.7657C89.6509 58.1015 93.9128 58.3211 97.9914 59.4101C99.5106 59.8661 101.026 60.3587 102.54 60.9641C102.691 61.0403 102.844 60.8129 102.691 60.7367C102.047 60.4367 101.402 60.0923 100.759 59.8271C96.0485 57.9861 90.9383 57.411 85.9368 58.1591Z" fill="#252525"/>
<path d="M18.1992 45.3852C18.768 47.1666 19.4502 48.9102 20.1702 50.6538C20.9664 52.587 21.7626 54.5586 22.5966 56.4918C24.5658 61.0566 28.4214 69.7986 30.9738 74.0796C31.0116 74.118 31.125 74.118 31.0872 74.0418C30.3294 72.147 29.4576 70.3272 28.5858 68.4696C27.7134 66.5742 22.5582 55.0512 20.9658 51.1092C20.2836 49.479 19.6392 47.8092 18.957 46.1814C20.1795 46.9785 21.506 47.6033 22.899 48.0384C32.3088 51.1752 41.07 49.5792 47.007 45.423C46.3248 47.0154 45.7182 48.6072 45.0738 50.199C44.3538 52.0188 39.7674 62.8974 38.1372 66.459C37.2276 68.4678 36.2772 70.479 35.4456 72.5616C35.4078 72.6372 35.5218 72.6756 35.5596 72.6C37.4842 69.16 39.2178 65.6167 40.7526 61.986C42.345 58.4232 46.1352 49.0224 46.5126 47.961C46.9273 47.0843 47.2943 46.1858 47.6118 45.2694C47.8014 44.3976 47.4222 43.9428 47.3118 43.071C46.9159 40.6156 46.7636 38.1271 46.857 35.6418C48.1858 36.3964 49.5976 36.9942 51.0642 37.4232C52.0122 37.6128 53.4144 37.878 54.2106 37.1196C54.2372 37.0874 54.2547 37.0487 54.2611 37.0074C54.2675 36.9662 54.2627 36.924 54.2472 36.8852C54.2317 36.8465 54.206 36.8126 54.1728 36.7872C54.1397 36.7619 54.1003 36.7459 54.0588 36.741C53.7588 36.7788 53.49 36.8922 53.187 36.9306C51.633 37.2306 50.079 36.5892 48.6762 36.0204C48.0583 35.7971 47.462 35.518 46.8948 35.1864C46.9326 34.3908 47.16 30.2592 47.1978 28.9704C47.1996 28.9519 47.1974 28.9333 47.1916 28.9157C47.1857 28.8981 47.1762 28.8819 47.1638 28.8682C47.1513 28.8544 47.1361 28.8435 47.1191 28.836C47.1021 28.8285 47.0838 28.8246 47.0652 28.8246C47.0466 28.8246 47.0283 28.8285 47.0113 28.836C46.9944 28.8435 46.9791 28.8544 46.9667 28.8682C46.9542 28.8819 46.9447 28.8981 46.9388 28.9157C46.933 28.9333 46.9308 28.9519 46.9326 28.9704C46.3638 34.0104 45.7194 37.0062 47.1222 44.739C41.4578 48.4664 34.5688 49.8524 27.9036 48.6054C27.942 47.9988 27.9036 47.43 27.942 46.824C28.0542 40.5906 29.28 32.928 28.74 26.9628C28.7411 26.9472 28.739 26.9315 28.7338 26.9167C28.7286 26.9019 28.7205 26.8884 28.7098 26.8769C28.6991 26.8654 28.6862 26.8563 28.6718 26.85C28.6575 26.8438 28.642 26.8406 28.6263 26.8406C28.6106 26.8406 28.5951 26.8438 28.5808 26.85C28.5664 26.8563 28.5535 26.8654 28.5428 26.8769C28.5322 26.8884 28.524 26.9019 28.5188 26.9167C28.5136 26.9315 28.5115 26.9472 28.5126 26.9628C28.2996 33.114 27.1866 45.2856 27.3756 48.4932C24.525 47.9232 20.8452 46.974 18.5814 45.1932C18.5138 44.856 18.4757 44.5135 18.4674 44.1696C18.522 38.5218 18.1956 31.9296 21.8412 27.3396C23.9084 24.8359 26.7483 23.0893 29.9154 22.374C30.9756 22.1586 32.0557 22.0569 33.1374 22.0704C33.2868 23.34 34.7466 25.2306 36.6624 25.7094C37.3048 25.8835 37.987 25.836 38.5992 25.5748C39.2113 25.3135 39.7175 24.8537 40.0362 24.2694C40.4766 23.3343 40.6968 22.3107 40.68 21.2772C43.452 21.1572 44.9346 21.6258 47.5032 23.7408C48.1812 24.2838 53.6742 28.7616 53.6058 28.7064C53.3784 29.01 52.6584 29.9574 52.5822 30.1092C52.4806 30.256 52.4156 30.4249 52.3926 30.6018C52.3982 30.6468 52.4211 30.6879 52.4565 30.7163C52.492 30.7446 52.537 30.758 52.5822 30.7536C52.745 30.6884 52.8892 30.5841 53.0022 30.45C53.154 30.2988 55.1622 27.4176 55.3524 27.0768C55.428 26.9628 55.239 26.7732 55.125 26.925C54.8598 27.228 54.5946 27.4938 54.3672 27.7968C54.2418 27.972 54.1023 28.1368 53.9502 28.2894C53.3988 27.8046 49.7868 24.7926 48.0744 23.4756C46.74 22.452 45.378 21.4284 43.71 21.0114C41.55 20.481 39.5406 21.2772 38.8962 21.0876C38.403 20.9358 38.3652 19.0782 38.3652 18.9276C38.8512 19.0025 39.3473 18.9773 39.8232 18.8535C40.2991 18.7297 40.7446 18.5099 41.1324 18.2076C41.45 17.9567 41.7021 17.6326 41.8671 17.263C42.0321 16.8934 42.1051 16.4894 42.0798 16.0854C42.06 15.5606 41.9838 15.0394 41.8524 14.5308C41.739 14.0004 41.3598 12.1806 41.2842 11.8398C43.0278 11.688 43.2174 10.3614 42.9516 9.52742C43.1866 9.20267 43.2934 8.80255 43.2514 8.40388C43.2095 8.00522 43.0217 7.6361 42.7242 7.36742C43.2552 6.30602 42.876 5.43422 41.8524 5.16902C42.156 4.29722 41.5494 3.19802 40.2228 3.76622C40.1559 3.57596 40.0378 3.40783 39.8816 3.28031C39.7254 3.1528 39.537 3.07083 39.3372 3.04342C39.1374 3.01601 38.9339 3.04422 38.7491 3.12495C38.5642 3.20568 38.4053 3.3358 38.2896 3.50102C38.1253 3.32255 37.9209 3.18575 37.6933 3.10194C37.4657 3.01812 37.2214 2.9897 36.9806 3.01901C36.7398 3.04833 36.5094 3.13454 36.3086 3.27052C36.1077 3.4065 35.9421 3.58835 35.8254 3.80102C35.5709 3.65423 35.2849 3.5705 34.9913 3.55681C34.6978 3.54311 34.4053 3.59987 34.1382 3.72232C33.8711 3.84478 33.6371 4.02938 33.4559 4.2607C33.2747 4.49203 33.1515 4.76335 33.0966 5.05202C32.8579 5.08973 32.6293 5.17535 32.4245 5.30373C32.2198 5.4321 32.0431 5.60057 31.9052 5.799C31.7672 5.99742 31.6708 6.22171 31.6218 6.45836C31.5728 6.69501 31.5722 6.93912 31.62 7.17602C31.2629 7.46692 31.0265 7.87996 30.9564 8.33518C30.8864 8.7904 30.9877 9.25542 31.2408 9.64022C30.786 10.512 31.089 11.649 32.1126 11.8002C31.8096 12.2928 32.037 13.9224 33.1362 13.809C31.6962 15.8556 34.6146 16.2726 34.6524 16.2726C34.6902 16.3488 34.9554 19.0398 34.9554 19.7982C34.9885 20.1749 34.9232 20.5536 34.7658 20.8974C34.6481 21.129 34.4765 21.3291 34.2655 21.4808C34.0545 21.6325 33.8103 21.7314 33.5532 21.7692C32.4789 21.7065 31.4013 21.7318 30.3312 21.8448C27.155 22.4217 24.2536 24.0189 22.0674 26.394C19.3002 29.4264 18.3906 33.4824 18.0876 37.4622C17.9358 39.6984 17.898 41.9352 17.9358 44.2092C17.8962 44.5512 18.0474 45.3852 18.1992 45.3852ZM34.6506 21.732C35.5356 21.024 35.3214 19.6962 35.2572 18.6618C35.2393 17.9115 35.1632 17.1636 35.0298 16.425C34.9914 16.2354 34.9536 15.9702 34.764 15.8946C34.6128 15.8184 32.4138 15.4746 33.3996 14.2266C34.0596 13.3494 35.0196 14.7066 35.2188 14.1126C35.2061 13.6544 35.1556 13.1981 35.0676 12.7482C34.9566 12.0757 35.0628 11.3853 35.3706 10.7772C35.5385 10.5274 35.7638 10.3213 36.0275 10.1762C36.2913 10.0312 36.5859 9.95126 36.8868 9.94322C38.0784 9.94322 39.657 10.2642 40.5258 9.82922C40.791 11.6868 41.0564 13.5442 41.322 15.4014C41.4557 16.0662 41.3761 16.7562 41.0946 17.373C40.8842 17.6959 40.6054 17.9686 40.2778 18.1716C39.9502 18.3746 39.582 18.5031 39.1992 18.5478C38.103 18.7278 37.1922 18.2226 36.2424 17.6382C36.0906 17.562 35.9772 17.7516 36.0906 17.8278C36.5364 18.3825 37.1474 18.7808 37.8348 18.9648C37.7784 19.4822 37.7911 20.0048 37.8726 20.5188C38.0766 21.7428 38.6304 21.8388 39.1848 21.7656C39.4638 21.7278 39.7296 21.6828 39.9954 21.6558C39.8814 23.0208 39.6162 24.7644 38.1756 25.2948C36.243 26.007 34.0956 24.1284 33.3996 22.149C33.8549 22.1775 34.3034 22.028 34.6506 21.732Z" fill="#644DF6"/>
</svg>
