<svg width="120" height="120" viewBox="0 0 120 120" fill="none" xmlns="http://www.w3.org/2000/svg">
<path d="M112.136 23.4539C112.651 25.0794 111.676 27.4263 109.558 29.4481C109.469 29.5334 109.562 29.6805 109.676 29.6323C112.439 28.4428 115.34 25.527 114.619 22.3194C114.258 20.7181 113.331 19.5452 112.578 18.5392C110.874 16.264 111.591 14.2447 112.209 13.5875C112.29 13.501 112.203 13.365 112.091 13.4045C111.301 13.6846 110.306 14.3338 109.57 15.8226C108.149 18.6994 111.469 21.3505 112.136 23.4539Z" fill="#644DF6"/>
<path d="M80.9119 93.5011L85.6905 64.5078C85.6781 64.5326 85.6658 64.5567 85.654 64.5814C84.2035 67.5108 82.609 70.3895 81.2909 73.3819C79.8237 76.7125 81.6686 85.0994 80.9125 93.4931L80.9119 93.5011Z" fill="#644DF6"/>
<path d="M93.7571 7.31084L91.216 6.89222C90.4846 6.77168 89.7946 7.26692 89.674 7.99832L84.6536 38.4588C86.4182 40.1028 87.6343 42.2946 88.1073 44.7046C88.2508 45.436 88.4189 46.1754 88.5896 46.9198L94.8638 8.85338C94.9844 8.12198 94.4891 7.43138 93.7583 7.31144L93.7571 7.31084Z" fill="#644DF6"/>
<path d="M106.442 11.8254C105.644 10.7125 105.678 10.7224 105.57 10.7033L94.87 8.81384L91.7255 28.6548L102.233 30.3866C102.404 30.415 102.524 30.2221 102.423 30.0812L100.936 26.6628L103.611 25.4713C103.698 25.4083 103.718 25.2871 103.656 25.1993L102.015 22.9111L104.159 21.3734C104.246 21.311 104.267 21.1892 104.204 21.1014L102.481 18.6982L104.913 16.954C105 16.8916 105.021 16.7698 104.958 16.682L103.276 14.3362L106.399 12.0969C106.486 12.0344 106.506 11.9126 106.443 11.8254H106.442Z" fill="#644DF6"/>
<path d="M106.911 11.4576C106.078 10.3182 106.083 10.2322 105.753 10.1376C105.692 10.1203 99.6715 9.02287 96.148 8.70505C95.1062 8.61109 94.7142 8.57275 94.4032 9.48349C94.0885 10.4047 93.861 11.3692 93.7064 12.3461C93.6242 12.8636 91.5752 25.8541 91.5097 26.6505C91.3378 28.7421 91.4089 28.8132 93.4504 29.2992C95.7523 29.8469 98.1388 30.3156 100.54 30.7113C102.057 30.9616 102.286 31.0544 102.578 30.9184C102.823 30.8139 103 30.5814 103.038 30.3496C103.105 29.9582 103.061 30.0553 101.717 26.9658L103.824 26.0266C104.022 25.9357 104.16 25.7917 104.239 25.5796C104.38 25.132 104.177 24.9137 104.01 24.672L102.845 23.0472C104.686 21.7272 104.612 21.7902 104.691 21.6678C104.806 21.5176 104.863 21.2647 104.822 21.0724C104.8 20.8789 104.802 20.9141 103.311 18.8343L105.258 17.4376C105.483 17.2638 105.584 17.0641 105.588 16.7995C105.593 16.4842 105.587 16.5392 104.105 14.4729L106.744 12.5811C107.112 12.3065 107.176 11.8193 106.911 11.457L106.911 11.4576ZM101.613 29.7165C99.2102 29.3368 94.227 28.1955 92.4155 27.9198C92.5991 27.2409 92.7005 26.4514 92.8006 25.7274C93.482 25.9982 93.1592 25.9104 99.0656 26.8792C99.4156 26.9367 100.085 27.0325 100.476 27.035C101.73 29.9038 101.682 29.7505 101.613 29.7171L101.613 29.7165ZM102.896 25.1326C102.899 25.1388 102.911 25.1449 102.905 25.153L100.595 26.1874C100.321 26.0872 100.042 26.0044 99.7556 25.9573C99.1911 25.8646 93.4665 24.9106 92.9181 24.9286L93.3849 21.8984C94.0953 22.1933 93.8591 22.1061 99.7073 23.0737C100.245 23.1628 100.969 23.2734 101.509 23.2042L102.896 25.1326ZM103.498 21.1219C103.498 21.1293 103.504 21.1231 103.483 21.1386L101.565 22.5167C101.191 22.3429 100.8 22.218 100.399 22.1519C100.159 22.1123 94.1312 21.1274 93.7577 21.1175C93.6736 21.1156 93.589 21.12 93.5048 21.1243L94.0545 17.5291C94.7846 17.8432 94.5596 17.7541 100.425 18.7242C100.766 18.7804 101.476 18.8837 101.887 18.8788L103.499 21.1219H103.498ZM104.244 16.7074L102.236 18.1492C101.875 17.9872 101.501 17.8666 101.115 17.803C94.3624 16.6901 94.4792 16.7562 94.1689 16.7773L94.7161 13.1579C95.4697 13.4949 95.3152 13.4194 101.141 14.3752C101.576 14.4463 102.242 14.5441 102.683 14.5273L104.243 16.7068L104.244 16.7074ZM105.726 11.8477L102.986 13.8139C102.616 13.6432 102.229 13.5196 101.832 13.4541C94.9726 12.3238 95.1655 12.4017 94.8379 12.4296C94.7741 12.4395 94.8663 12.4698 95.236 9.58921C97.6961 10.1574 100.231 10.3664 105.305 11.2617C105.324 11.287 105.708 11.8218 105.726 11.8477Z" fill="#252525"/>
<path d="M113.408 18.6543C112.73 17.748 112.125 16.9461 112.117 15.657C112.083 13.6488 113.554 13.6401 113.866 12.7084C114.065 12.1056 113.636 11.3915 113.024 11.3878C110.927 11.2258 107.864 12.696 106.285 15.6996C103.882 20.1722 107.378 23.4107 108.5 25.8467C109.033 27.053 107.857 28.0242 106.691 28.6401C104.798 29.6405 105.911 30.8943 106.863 30.8387C111.67 30.5598 115.182 26.7185 115.321 23.5387C115.386 21.6159 114.406 19.9874 113.408 18.6543ZM110.58 28.0688C109.43 29.45 108.502 29.4871 107.38 29.6225C108.384 29.0358 109.418 28.2258 109.736 27.1012C110.158 25.6798 109.109 24.5366 108.036 22.7263C107.51 21.8465 107.004 20.9228 106.781 19.9341C106.013 17.2255 108.35 13.3155 112.072 12.6255C110.718 13.3669 109.793 14.0433 109.077 15.5042C108.067 17.4945 109.005 19.3962 110.326 21.188C110.616 21.5738 113.579 24.523 110.58 28.0688ZM114.102 23.9016C113.866 25.4349 112.914 26.6832 111.719 27.691C112.284 26.7741 112.512 26.0483 112.566 25.8239C112.941 24.3962 112.585 22.8314 111.932 21.6789C111.322 20.5994 110.398 19.6547 110.044 18.6451C109.516 17.2045 109.927 15.8876 111.01 14.8007C110.704 16.5807 111.322 17.8902 112.412 19.3011C113.435 20.6656 114.362 22.2168 114.102 23.9022V23.9016Z" fill="#252525"/>
<path d="M106.277 104.748C106.179 97.2336 106.237 89.6963 106.237 82.1706C106.237 79.2431 103.338 78.3819 100.936 78.2242C96.6148 77.941 92.2399 78.0338 87.9422 78.5748C85.7857 78.8462 83.3695 79.5671 83.3695 82.1712V105.983C83.3695 107.302 84.0923 108.626 85.2954 109.204C85.918 109.503 86.6062 109.636 87.2875 109.752C92.1515 110.579 97.6986 110.909 102.556 109.702C105.146 109.058 106.319 107.912 106.277 104.749L106.277 104.748ZM101.518 99.9577C101.601 100.938 101.67 103.132 100.87 103.242C99.993 103.363 99.5651 100.453 98.647 100.574C97.7728 100.69 97.3839 103.359 96.5319 103.242C95.7313 103.132 95.8005 100.937 95.8834 99.9577C95.9662 98.9778 94.3649 96.1207 94.917 94.6857C95.1593 94.0551 95.6824 93.6056 96.3569 93.5122C97.1477 93.4028 97.6232 93.9122 98.3471 94.0613C99.193 94.2356 99.836 93.54 100.648 93.4961C101.474 93.451 102.187 93.9122 102.484 94.6857C103.036 96.1214 101.435 98.9778 101.518 99.9577Z" fill="#644DF6"/>
<path d="M106.845 89.3518C106.829 81.0466 106.841 81.6902 106.663 80.9606C106.374 80.0054 105.778 79.2431 104.8 78.6551C103.007 77.6201 101.014 77.6312 99.0229 77.5329C95.8258 77.408 92.7054 77.4946 89.6308 77.7957C87.975 77.9806 86.1375 78.0881 84.6778 78.9228C83.4406 79.627 82.7927 80.7368 82.7902 82.0865C82.7475 107.336 82.7018 106.439 83.0622 107.426C83.3683 108.278 83.9272 109.009 84.6419 109.469C85.3709 109.934 86.1041 110.086 86.7539 110.216C88.6928 110.56 90.6862 110.808 92.7549 110.929C99.4582 111.254 103.552 109.678 102.353 109.669C100.717 109.657 96.7965 110.755 87.9373 109.268C86.7088 109.061 85.5316 108.873 84.8299 108.141C84.4354 107.729 84.1825 107.244 84.0551 106.716C83.9012 106.114 83.9649 106.616 83.9649 86.7761C85.2082 87.0327 86.932 87.1984 88.1648 87.314C88.2279 87.3202 88.1797 104.159 88.2601 105.543C88.2897 106.054 88.4059 107.431 88.5544 107.827C88.6273 108.021 88.7441 108.132 88.8616 108.014C89.3117 107.561 89.3822 103.957 89.3822 103.307C89.3822 86.2024 89.2931 87.4197 89.4007 87.4296L94.7606 87.2083C95.0344 87.2027 95.4351 87.1669 95.4654 87.1972C95.6132 87.2355 95.722 87.3733 95.7399 87.5007C95.9513 89.0204 96.632 90.1846 98.1746 90.3553C99.6183 90.5605 101.034 89.7556 101.612 88.2921C101.736 87.9458 101.79 87.8779 101.922 87.0976C102.02 86.7489 102.272 86.7798 102.676 86.7458C105.052 86.5442 103.972 86.6567 105.648 86.5436C105.648 86.8756 105.827 104.978 105.807 105.561C105.749 107.724 104.819 108.568 103.364 109.233C102.69 109.521 102.275 109.723 102.758 109.727C103.073 109.728 103.672 109.639 104.309 109.367C104.951 109.111 105.588 108.574 105.942 108.012C106.675 106.863 106.73 105.481 106.739 104.266C106.762 103.034 106.848 91.4305 106.844 89.3524L106.845 89.3518ZM102.188 85.6267C101.544 85.6805 101.081 86.0471 100.857 86.5597C100.782 86.7359 100.76 86.841 100.721 87.0834C100.449 88.754 99.2653 89.4341 98.0467 89.1212C97.034 88.8609 96.977 87.505 96.8645 87.1261C96.6698 86.4719 96.0224 85.9767 95.3337 86.0051C90.7004 86.1986 91.6358 86.1102 89.3389 86.2011C89.3278 84.9009 89.3359 84.0532 89.1163 82.6967C89.0929 82.5508 89.0656 82.4037 89.0193 82.2794C88.9463 82.0859 88.8295 81.9746 88.712 82.0927C88.3039 82.5032 88.2236 85.5519 88.2118 86.1158C86.9246 85.9711 84.9121 85.7324 83.9655 85.7362C83.9655 81.8095 83.8573 81.3662 84.4793 80.5897C85.411 79.457 87.371 79.2356 88.8128 79.0699C91.9153 78.7237 95.0969 78.592 98.5234 78.7015C100.023 78.754 101.607 78.8066 102.73 79.0996C103.965 79.4081 104.976 80.0388 105.367 80.8963C105.729 81.6451 105.642 82.1774 105.648 85.704C104.703 85.5587 102.732 85.6138 102.189 85.6267H102.188Z" fill="#252525"/>
<path d="M102.282 86.1139C102.381 85.7219 102.052 84.7407 103.045 84.0575C103.842 83.5091 105.357 83.2482 106.588 83.6346C107.054 83.6859 110.206 85.955 113.094 85.2848C116.424 84.5114 117.747 80.1945 115.351 76.5023C114.556 75.2762 113.689 73.9413 113.544 72.549C113.434 71.4899 113.797 70.2014 114.585 69.5473C115.107 69.1139 115.725 69.0317 116.379 69.2147C117.582 69.6542 118.04 71.1734 118.385 71.8887C119.073 73.3206 119.121 69.2394 116.835 68.2409C114.425 67.188 112.052 69.611 112.393 72.7481C112.611 74.7569 114.131 76.6544 114.675 77.6634C115.463 79.1286 115.695 81.1925 114.842 82.6213C114.364 83.4213 113.464 84.0711 112.5 84.1849C110.219 84.4545 108.065 82.8544 106.87 82.489C104.639 81.8071 101.387 82.9508 101.682 85.2947C101.732 85.5395 101.78 85.7813 101.903 85.9488C102.07 86.2221 102.228 86.3216 102.281 86.1133L102.282 86.1139Z" fill="#252525"/>
<path d="M88.1469 45.2733C88.3286 46.9191 89.1745 50.0482 89.2654 52.7593C89.4267 57.5725 86.9468 60.9663 84.718 65.4129C83.4796 67.8842 80.7128 72.8309 80.4785 74.2134C79.0694 79.742 82.9615 93.4213 77.3834 104.179C76.5821 105.725 75.0173 108.188 73.2775 108.262C72.9782 108.275 72.5992 108.187 72.4063 108.055C70.11 106.491 71.5432 95.0894 69.9876 91.5597C69.7817 90.9977 69.1715 90.2996 68.3492 90.2663C64.7533 90.1215 64.8832 95.1234 64.3372 99.0896C63.7016 103.707 61.9371 112.933 57.4317 111.861C56.8271 111.679 56.2459 111.475 55.7228 111.014C54.3502 109.802 53.8334 106.977 53.6869 105.149C53.3066 100.405 55.0748 92.8692 51.9841 91.1287C50.8193 90.4727 49.7627 90.7355 49.098 91.6011C48.4996 92.3807 48.2522 93.2154 48.0704 94.0309C47.3588 97.2187 47.0948 100.481 47.2586 103.803C47.3508 105.675 47.9789 107.517 47.6549 109.083C47.561 109.536 47.4287 109.906 46.9854 110.108C45.917 110.599 43.9726 109.443 43.1477 108.757C41.8661 107.543 41.2039 106.949 40.2685 105.165C39.3862 103.198 38.7364 101.425 38.5546 98.3631C38.3599 95.0826 38.6294 92.1501 39.2217 88.9171C40.1139 84.0451 40.6814 84.3036 40.2771 81.7248C39.5488 77.0834 35.2623 68.32 33.6158 62.2313C33.2443 60.8575 32.9512 59.4132 32.6266 58.0258C31.2293 52.0471 29.4994 43.9192 32.4714 38.8519C33.0607 37.8472 33.8644 37.0533 34.7491 36.3417C39.5556 32.4769 45.7921 33.978 51.8889 34.6439C59.3162 35.4551 60.8495 33.05 64.1518 32.3736C68.1841 31.5476 70.2164 34.3533 74.5393 35.4168C76.4294 35.8817 77.4397 35.8391 78.5018 35.9757C82.3871 36.4759 85.4438 38.9094 87.0556 42.203C87.5416 43.1959 87.8056 44.0355 87.9491 44.4423C88.0925 44.8491 88.1525 44.8232 88.0529 44.135C87.9206 43.2219 87.3944 41.5012 86.2414 39.8597C85.0883 38.2182 83.3015 36.7968 81.6118 36.053C79.2722 35.0235 77.7643 35.1608 76.231 34.8857C72.491 34.2149 71.0888 32.8627 68.7177 31.8716C66.7924 31.0666 64.8349 31.019 62.9783 31.5921C60.7487 32.2803 58.7548 33.6912 55.1534 33.7165C49.4974 33.7561 43.5769 31.3566 37.2105 33.6238C36.6899 33.8093 36.0747 34.1271 35.3483 34.5172C33.3321 35.8793 32.0732 36.8883 30.9764 39.1932C29.8302 41.6026 29.5062 44.7168 29.7405 48.0537C30.0262 52.1201 31.2238 57.3197 32.3045 61.8312C34.0023 68.9203 40.0335 80.3937 39.1401 83.9864C38.554 86.3451 37.9945 88.7682 37.6655 91.2592C37.0058 96.2536 37.0355 102.126 39.6323 106.411C40.8323 108.392 41.5805 108.887 42.2154 109.498C43.1533 110.401 44.9197 111.253 45.9102 111.383C46.9304 111.516 47.7267 111.185 48.2059 110.647C49.5222 109.168 48.6473 106.012 48.5063 104.547C48.2665 102.048 48.3796 99.5174 48.7493 97.0314C49.0678 94.8872 49.5073 91.057 51.3683 92.1377C53.7456 93.5177 52.0187 101.281 52.5715 105.906C52.8553 108.282 53.6096 111.392 55.7463 112.469C60.7321 114.984 63.2132 109.842 64.5511 104.441C66.2093 97.7461 65.6003 92.4772 67.5065 91.5813C67.7872 91.3995 68.4661 91.2839 68.8049 91.8613C70.1193 94.102 69.2704 102.719 70.3524 106.659C70.3753 106.778 70.4575 107.01 70.5626 107.34C70.7048 107.668 70.8532 108.108 71.2662 108.602C71.7812 109.218 72.5021 109.474 73.2947 109.452C75.8581 109.379 77.8249 106.124 78.8951 103.781C83.9266 92.7708 80.3585 80.4648 81.4967 74.5615C81.7527 73.2347 83.6045 69.7204 87.3184 62.3228C90.2336 56.516 90.667 53.9384 88.921 47.3253C88.6415 46.2662 88.508 45.6696 88.3664 45.2454C88.2174 44.7972 88.0696 44.569 88.1475 45.2739L88.1469 45.2733Z" fill="#252525"/>
<path d="M59.7614 51.7824C59.1437 51.4257 58.1563 51.9796 57.556 53.019C56.9557 54.0583 56.9699 55.1904 57.5875 55.5471C58.2052 55.9038 59.1926 55.3498 59.7929 54.3106C60.3932 53.2713 60.379 52.1392 59.7614 51.7824Z" fill="#252525"/>
<path d="M76.8331 51.0898C76.2155 50.7331 75.228 51.287 74.6277 52.3264C74.0274 53.3657 74.0416 54.4978 74.6592 54.8539C75.2769 55.2106 76.2643 54.6572 76.8647 53.6173C77.465 52.578 77.4507 51.4466 76.8331 51.0898Z" fill="#252525"/>
<path d="M73.2434 64.1003C72.9912 64.1664 72.9139 64.3636 72.0273 65.6954C70.5379 67.6894 67.9349 67.5231 66.5859 66.851C65.9435 66.5307 65.9156 66.3978 64.9227 65.68C64.535 65.3999 64.2506 65.6744 64.4244 66.1678C65.2591 68.542 69.3032 69.0829 71.4733 67.8081C73.7591 66.4658 73.9353 63.9198 73.2434 64.1003Z" fill="#252525"/>
<path d="M57.5628 40.9498C56.1859 39.2997 53.1261 37.9741 51.2861 37.4634C46.8302 36.2269 44.2396 37.4195 44.7713 37.916C45.2431 38.3562 47.7477 37.6817 51.0178 38.6128C54.3583 39.5643 56.678 41.6194 57.5164 41.6454C57.7903 41.6541 57.9449 41.4067 57.5628 40.9498Z" fill="#252525"/>
<path d="M82.3426 38.7227C82.3506 38.3864 81.5987 37.9771 81.2767 37.88C79.6741 37.3965 77.7142 37.7996 76.1815 38.4037C75.0834 38.8371 72.5386 40.0675 71.8678 41.1012C71.6273 41.4722 71.8727 41.7467 72.3828 41.5723C73.8555 41.0684 75.4278 39.7008 77.6721 39.1592C80.2886 38.3369 82.3252 39.4826 82.3426 38.7227Z" fill="#252525"/>
<path d="M31.9852 68.0876L27.7556 65.2336L15.1511 83.9116L19.3807 86.7662L31.9852 68.0876Z" fill="#252525"/>
<path d="M43.5076 21.2437C29.6206 21.2437 18.3637 32.5012 18.3637 46.3876C18.3637 60.2739 29.6212 71.5314 43.5076 71.5314C57.394 71.5314 68.6515 60.2739 68.6515 46.3876C68.6515 32.5012 57.394 21.2437 43.5076 21.2437ZM43.5076 68.0759C31.5298 68.0759 21.8192 58.366 21.8192 46.3876C21.8192 34.4092 31.5292 24.6992 43.5076 24.6992C55.486 24.6992 65.196 34.4092 65.196 46.3876C65.196 58.366 55.486 68.0759 43.5076 68.0759Z" fill="#644DF6"/>
<path d="M23.5893 70.2392H22.8944L1.48296 102.102C1.08852 102.69 1.10892 103.46 1.52874 104.028C2.23356 104.984 3.61788 106.321 6.08046 106.894C6.75312 107.051 7.45362 106.772 7.83882 106.199L28.9367 74.8336V73.9067C28.9367 73.9067 25.7706 73.1537 23.5887 70.2385L23.5893 70.2392Z" fill="#644DF6"/>
<path d="M40.7216 27.9842C40.658 27.803 40.5424 27.722 40.4632 27.6843C40.1442 27.5328 39.8276 27.5038 39.5302 27.5644C39.4517 27.5804 38.4235 27.8042 37.4201 28.1517C36.4166 28.4992 35.4527 28.966 35.3588 29.0513C35.0694 29.3153 34.9161 29.6337 35.1615 29.9503C35.2796 30.1024 35.4113 30.1469 35.4948 30.1605C35.8311 30.2155 36.1205 30.1766 36.3789 30.0653C38.9843 28.9462 39.9445 29.0983 40.4855 28.6568C40.7117 28.472 40.8286 28.2877 40.721 27.9829L40.7216 27.9842Z" fill="#644DF6"/>
<path d="M27.0028 36.5094C23.4038 42.5573 23.8088 49.9482 25.8677 53.2275C25.945 53.3511 26.0296 53.4723 26.128 53.5632C26.2813 53.7042 26.4507 53.7474 26.5366 53.5873C27.1234 52.4942 23.0471 44.5024 29.0369 36.0234C30.0787 34.5488 30.5999 34.1291 32.4028 32.0708C33.8885 30.3749 30.0231 31.4352 27.0028 36.5094Z" fill="#644DF6"/>
<path d="M3.81018 98.639L2.5563 100.504C2.5563 100.504 4.35114 103.48 8.87383 104.66L10.0949 102.844C10.0949 102.844 5.44428 101.429 3.80952 98.6383L3.81018 98.639Z" fill="#252525"/>
</svg>
