<?xml version="1.0" encoding="UTF-8"?>
<svg xmlns="http://www.w3.org/2000/svg" xmlns:xlink="http://www.w3.org/1999/xlink" width="120" height="120" viewBox="0 0 2112 2112">
<rect x="-211.2" y="-211.2" width="2534.4" height="2534.4" fill="rgb(100%, 100%, 100%)" fill-opacity="1"/>
<path fill-rule="nonzero" fill="rgb(67.771912%, 94.53125%, 100%)" fill-opacity="1" d="M 683.300781 232.5 C 210.277344 734.601562 -165.847656 1602.378906 779.070312 1914.992188 C 1377.011719 2112.832031 1625.410156 1823.109375 1722.121094 1366.496094 C 1825.460938 878.488281 2234.351562 681.058594 1428.609375 248.578125 C 1269.328125 128.429688 839.511719 72.558594 683.300781 232.5 "/>
<path fill-rule="evenodd" fill="rgb(80.076599%, 80.076599%, 80.076599%)" fill-opacity="1" d="M 756.960938 1679.359375 C 894.808594 1679.359375 1006.558594 1694.0625 1006.558594 1712.199219 C 1006.558594 1730.335938 894.808594 1745.039062 756.960938 1745.039062 C 619.109375 1745.039062 507.359375 1730.335938 507.359375 1712.199219 C 507.359375 1694.0625 619.109375 1679.359375 756.960938 1679.359375 "/>
<path fill-rule="evenodd" fill="rgb(80.076599%, 80.076599%, 80.076599%)" fill-opacity="1" d="M 1513.199219 1700.398438 C 1638.460938 1700.398438 1740 1722.75 1740 1750.320312 C 1740 1777.890625 1638.460938 1800.238281 1513.199219 1800.238281 C 1387.941406 1800.238281 1286.398438 1777.890625 1286.398438 1750.320312 C 1286.398438 1722.75 1387.941406 1700.398438 1513.199219 1700.398438 "/>
<path fill-rule="evenodd" fill="rgb(0%, 0%, 0%)" fill-opacity="1" d="M 316.527344 460.921875 L 1227.511719 460.921875 L 1227.511719 1123.324219 L 316.527344 1123.324219 L 316.527344 460.921875 "/>
<path fill-rule="evenodd" fill="rgb(100%, 100%, 100%)" fill-opacity="1" d="M 353.007812 494.519531 L 1192.871094 494.519531 L 1192.871094 1082.519531 L 353.007812 1082.519531 L 353.007812 494.519531 "/>
<path fill-rule="nonzero" fill="rgb(0%, 0%, 0%)" fill-opacity="1" d="M 1429.828125 1683.289062 C 1429.828125 1683.289062 1372.308594 1715.21875 1365.179688 1726.824219 C 1340.339844 1771.101562 1386.601562 1756.460938 1418.109375 1745.140625 C 1442.140625 1736.503906 1471.320312 1727.058594 1471.320312 1727.058594 L 1470.359375 1685.34375 C 1470.359375 1685.34375 1469.519531 1677.738281 1462.589844 1683.339844 C 1455.660156 1688.9375 1450.820312 1682.605469 1444.390625 1679.136719 C 1437.960938 1675.671875 1433.621094 1682.933594 1429.828125 1683.289062 "/>
<path fill-rule="nonzero" fill="rgb(0%, 0%, 0%)" fill-opacity="1" d="M 1630.21875 1683.691406 C 1630.21875 1683.691406 1692.421875 1718.28125 1699.371094 1730.082031 C 1723.019531 1774.988281 1677.089844 1759.101562 1645.949219 1746.96875 C 1622.148438 1737.695312 1593.179688 1727.5 1593.179688 1727.5 L 1595.238281 1685.816406 C 1595.238281 1685.816406 1595.980469 1680.976562 1602.761719 1686.878906 C 1609.550781 1692.777344 1614.949219 1689.210938 1621.390625 1685.859375 C 1627.828125 1682.507812 1626.449219 1683.242188 1630.21875 1683.691406 "/>
<path fill-rule="nonzero" fill="rgb(40.380859%, 58.789062%, 66.992188%)" fill-opacity="1" d="M 1680.761719 1247.460938 L 1638.589844 1688.441406 L 1594.949219 1691.707031 L 1526.449219 1240.503906 L 1470.398438 1687.273438 L 1426.558594 1685.128906 L 1368.488281 1216.1875 L 1531.25 1163.472656 L 1680.761719 1247.460938 "/>
<path fill-rule="nonzero" fill="rgb(99.21875%, 79.6875%, 48.631287%)" fill-opacity="1" d="M 1125.289062 777.589844 C 1125.289062 777.589844 1110.070312 767.640625 1098.171875 739.570312 C 1086.269531 711.5 1036.140625 693.488281 1036.140625 693.488281 C 1033.289062 698.699219 1033.949219 705.140625 1037.808594 709.660156 L 985.605469 670.890625 C 985.605469 670.890625 972.921875 672.359375 980.5625 705.761719 C 988.199219 739.171875 1010.851562 758.230469 1021.890625 769.628906 C 1040.429688 788.828125 1070.648438 792.460938 1078.371094 802.121094 C 1084.710938 809.578125 1091.570312 816.578125 1098.910156 823.058594 L 1125.289062 777.589844 "/>
<path fill-rule="nonzero" fill="rgb(90.234375%, 90.234375%, 90.234375%)" fill-opacity="1" d="M 1559.761719 601.71875 C 1559.761719 601.71875 1663.691406 606.601562 1672.230469 612.898438 C 1680.769531 619.191406 1702.941406 634.730469 1715.980469 672.609375 C 1729.019531 710.5 1795.429688 918.539062 1795.429688 918.539062 C 1795.429688 918.539062 1800.5 939.960938 1779 960.128906 C 1757.5 980.300781 1688.941406 1053.570312 1688.941406 1053.570312 L 1704.808594 1247.632812 C 1704.808594 1247.632812 1583.761719 1257.371094 1525.890625 1211.984375 C 1525.890625 1211.984375 1466.878906 1232.824219 1380.410156 1239.175781 L 1351.828125 1242.464844 L 1367.199219 884.28125 C 1326.398438 915.308594 1188.878906 931.28125 1091.070312 845.921875 L 1136.03125 767.421875 C 1136.03125 767.421875 1215.878906 811.808594 1272.980469 791.769531 C 1357.578125 762.011719 1324.050781 638.421875 1393.019531 625.640625 L 1468.171875 611.671875 L 1559.761719 601.71875 "/>
<path fill-rule="nonzero" fill="rgb(40.380859%, 58.789062%, 66.992188%)" fill-opacity="1" d="M 1562.5 640.628906 C 1562.5 640.628906 1502.28125 675.089844 1472.589844 645.078125 L 1528.949219 1008.019531 L 1562.5 640.628906 "/>
<path fill-rule="nonzero" fill="rgb(100%, 75.78125%, 36.863708%)" fill-opacity="1" d="M 1552.96875 546.078125 C 1552.96875 546.078125 1574.519531 648.949219 1554.53125 670.089844 C 1534.539062 691.238281 1475.410156 690.179688 1472.96875 648.679688 C 1470.519531 607.171875 1453.769531 551.019531 1453.769531 551.019531 L 1552.96875 546.078125 "/>
<path fill-rule="nonzero" fill="rgb(99.21875%, 79.6875%, 48.631287%)" fill-opacity="1" d="M 1419.558594 483.511719 C 1416.371094 547.960938 1450.109375 602 1494.941406 604.21875 C 1539.761719 606.429688 1578.648438 555.921875 1581.828125 491.539062 C 1585.019531 427.160156 1546.410156 401.339844 1501.539062 399.121094 C 1456.660156 396.898438 1422.761719 419.011719 1419.558594 483.511719 "/>
<path fill-rule="nonzero" fill="rgb(39.988708%, 19.604492%, 19.604492%)" fill-opacity="1" d="M 1396.78125 442.640625 C 1398.949219 460.390625 1408.429688 478.179688 1419.359375 492.339844 C 1421.679688 465.429688 1420.261719 432.851562 1455.519531 427.121094 C 1464.828125 425.589844 1474.640625 427.738281 1484.140625 428.699219 C 1491.910156 429.46875 1499.460938 429.460938 1506.359375 425.96875 C 1509.550781 423.921875 1512.910156 422.148438 1516.398438 420.671875 C 1536.191406 414.539062 1547.5 450.050781 1547.621094 463.429688 C 1547.75 478.871094 1544.460938 494.808594 1549.171875 509.550781 C 1553.988281 507.941406 1555.988281 502.378906 1558 497.679688 C 1560.011719 492.96875 1563.980469 487.859375 1568.96875 488.921875 C 1571.449219 489.628906 1573.511719 491.378906 1574.621094 493.71875 C 1578.25 500.308594 1576.851562 508.601562 1573.738281 515.449219 C 1570.628906 522.308594 1565.988281 528.421875 1562.980469 535.328125 C 1558.050781 546.851562 1557.96875 559.859375 1562.75 571.441406 C 1574.589844 557.039062 1583.320312 540.339844 1588.398438 522.410156 C 1604.25 480.390625 1610.941406 427.5 1581.148438 389.140625 C 1564.898438 368.191406 1538.5 357.269531 1512.269531 353.558594 C 1483.140625 349.441406 1451.988281 353.648438 1427.449219 370.03125 C 1402.921875 386.398438 1393.179688 413.421875 1396.78125 442.640625 "/>
<path fill-rule="nonzero" fill="rgb(100%, 75.78125%, 36.863708%)" fill-opacity="1" d="M 1557.179688 518.488281 C 1557.179688 518.488281 1565.421875 515.609375 1563.210938 509.179688 C 1560.988281 502.75 1563.421875 499.480469 1566.089844 498.789062 C 1568.75 498.089844 1576.101562 505.011719 1567.449219 519 C 1558.808594 532.988281 1557.179688 518.488281 1557.179688 518.488281 "/>
<path fill-rule="nonzero" fill="rgb(80.076599%, 80.076599%, 80.076599%)" fill-opacity="1" d="M 1598.070312 602.378906 C 1601.378906 618.808594 1612.101562 704.261719 1613.671875 719.980469 L 1577.210938 722.261719 L 1596.878906 752.46875 L 1529 1007.371094 L 1561.289062 600.609375 L 1565.910156 599.980469 L 1598.070312 602.378906 "/>
<path fill-rule="nonzero" fill="rgb(80.076599%, 80.076599%, 80.076599%)" fill-opacity="1" d="M 1468.101562 611.578125 L 1442.070312 615.578125 L 1429.371094 730.160156 L 1465.480469 731.949219 L 1448.511719 762.449219 L 1528.949219 1008.019531 C 1531.078125 1007.640625 1478.980469 695.269531 1468.101562 611.578125 "/>
<path fill-rule="nonzero" fill="rgb(90.234375%, 90.234375%, 90.234375%)" fill-opacity="1" d="M 1668.359375 731.671875 L 1695.378906 921.96875 L 1617.480469 991.601562 Z M 1668.359375 731.671875 "/>
<path fill-rule="nonzero" fill="rgb(40.380859%, 58.789062%, 66.992188%)" fill-opacity="1" d="M 1617.480469 991.601562 L 1668.070312 1061.441406 L 1688.960938 1053.589844 L 1624.210938 985.570312 L 1617.480469 991.601562 "/>
<path fill-rule="nonzero" fill="rgb(99.21875%, 79.6875%, 48.631287%)" fill-opacity="1" d="M 1623.148438 999.410156 C 1623.148438 999.410156 1605.101562 1034.03125 1601.488281 1054.328125 L 1668.171875 1061.390625 L 1623.148438 999.410156 "/>
<path fill-rule="nonzero" fill="rgb(100%, 100%, 100%)" fill-opacity="1" d="M 1675.300781 1061.75 L 1569.519531 1052.699219 C 1569.519531 1052.699219 1571.789062 1161.714844 1571.859375 1173.792969 C 1571.921875 1185.867188 1685.839844 1199.769531 1685.839844 1199.769531 L 1675.300781 1061.75 "/>
<path fill-rule="nonzero" fill="rgb(100%, 100%, 100%)" fill-opacity="1" d="M 1368.210938 1050.519531 L 1472.871094 1048.601562 C 1472.871094 1048.601562 1478.839844 1157.042969 1477.578125 1169.125 C 1476.320312 1181.207031 1369.519531 1191.40625 1369.519531 1191.40625 L 1368.210938 1050.519531 "/>
<path fill-rule="nonzero" fill="rgb(80.076599%, 80.076599%, 80.076599%)" fill-opacity="1" d="M 1675.300781 1061.75 L 1569.519531 1052.699219 C 1569.519531 1052.699219 1571.789062 1161.714844 1571.859375 1173.792969 C 1571.921875 1185.867188 1685.839844 1199.769531 1685.839844 1199.769531 L 1675.300781 1061.75 "/>
<path fill-rule="nonzero" fill="rgb(80.076599%, 80.076599%, 80.076599%)" fill-opacity="1" d="M 1368.210938 1050.519531 L 1472.871094 1048.601562 C 1472.871094 1048.601562 1478.839844 1157.042969 1477.578125 1169.125 C 1476.320312 1181.207031 1369.519531 1191.40625 1369.519531 1191.40625 L 1368.210938 1050.519531 "/>
<path fill-rule="nonzero" fill="rgb(40.380859%, 58.789062%, 66.992188%)" fill-opacity="1" d="M 1136.03125 767.421875 L 1126.941406 763.070312 L 1087.820312 835.808594 L 1091.070312 845.921875 L 1136.03125 767.421875 "/>
<path fill-rule="nonzero" fill="rgb(14.109802%, 12.939453%, 22.75238%)" fill-opacity="1" d="M 1609.070312 671.28125 C 1611.03125 671.378906 1612.699219 669.878906 1612.808594 667.921875 C 1615.121094 632.359375 1601.308594 609.871094 1589.320312 597.25 C 1581.699219 589.121094 1572.46875 582.660156 1562.230469 578.269531 C 1560.378906 577.570312 1558.320312 578.5 1557.621094 580.351562 C 1556.921875 582.199219 1557.851562 584.261719 1559.699219 584.960938 C 1561.738281 585.75 1609.710938 604.808594 1605.679688 667.589844 C 1605.539062 669.539062 1607.019531 671.238281 1608.96875 671.371094 C 1608.988281 671.371094 1609 671.378906 1609.019531 671.378906 L 1609.070312 671.28125 "/>
<path fill-rule="nonzero" fill="rgb(14.109802%, 12.939453%, 22.75238%)" fill-opacity="1" d="M 1561.339844 757.359375 L 1561.621094 757.371094 C 1563.589844 757.320312 1565.148438 755.679688 1565.089844 753.710938 C 1565.101562 753.699219 1565.089844 753.691406 1565.089844 753.691406 C 1564 715.539062 1574.289062 686.621094 1592.601562 676.328125 C 1601.679688 671.078125 1612.988281 671.578125 1621.578125 677.601562 C 1643.921875 692.148438 1648.929688 728.671875 1646.191406 757.820312 C 1645.789062 759.75 1647.039062 761.640625 1648.96875 762.03125 C 1650.898438 762.429688 1652.789062 761.179688 1653.179688 759.25 C 1653.230469 759 1653.261719 758.75 1653.261719 758.5 C 1657.089844 717.921875 1646.691406 685.421875 1625.429688 671.589844 C 1614.601562 664.140625 1600.449219 663.558594 1589.050781 670.089844 C 1568.058594 681.859375 1556.699219 712.410156 1557.890625 753.78125 C 1557.890625 755.710938 1559.410156 757.289062 1561.339844 757.359375 "/>
<path fill-rule="nonzero" fill="rgb(40.771484%, 88.28125%, 99.21875%)" fill-opacity="1" d="M 1638.378906 761.621094 C 1638.070312 767.480469 1642.578125 772.46875 1648.429688 772.769531 C 1654.289062 773.078125 1659.28125 768.578125 1659.578125 762.71875 C 1659.878906 756.859375 1655.378906 751.871094 1649.53125 751.570312 C 1643.671875 751.269531 1638.679688 755.769531 1638.378906 761.621094 "/>
<path fill-rule="nonzero" fill="rgb(40.771484%, 88.28125%, 99.21875%)" fill-opacity="1" d="M 1551.988281 758.648438 C 1551.699219 764.511719 1556.21875 769.488281 1562.070312 769.78125 C 1567.929688 770.070312 1572.910156 765.558594 1573.199219 759.699219 C 1573.488281 753.839844 1568.980469 748.859375 1563.121094 748.570312 C 1557.269531 748.28125 1552.28125 752.789062 1551.988281 758.648438 "/>
<path fill-rule="nonzero" fill="rgb(0%, 0%, 0%)" fill-opacity="1" d="M 1638.378906 761.621094 C 1638.070312 767.480469 1642.578125 772.46875 1648.429688 772.769531 C 1654.289062 773.078125 1659.28125 768.578125 1659.578125 762.71875 C 1659.878906 756.859375 1655.378906 751.871094 1649.53125 751.570312 C 1643.671875 751.269531 1638.679688 755.769531 1638.378906 761.621094 "/>
<path fill-rule="nonzero" fill="rgb(0%, 0%, 0%)" fill-opacity="1" d="M 1551.988281 758.648438 C 1551.699219 764.511719 1556.21875 769.488281 1562.070312 769.78125 C 1567.929688 770.070312 1572.910156 765.558594 1573.199219 759.699219 C 1573.488281 753.839844 1568.980469 748.859375 1563.121094 748.570312 C 1557.269531 748.28125 1552.28125 752.789062 1551.988281 758.648438 "/>
<path fill-rule="nonzero" fill="rgb(14.109802%, 12.939453%, 22.75238%)" fill-opacity="1" d="M 1437.730469 825.71875 C 1439.71875 825.820312 1441.398438 824.28125 1441.488281 822.300781 C 1441.519531 821.769531 1441.421875 821.25 1441.21875 820.761719 L 1423.230469 777.628906 C 1385.210938 637 1462.679688 602.550781 1463.398438 602.230469 C 1465.230469 601.460938 1466.089844 599.351562 1465.320312 597.519531 C 1464.539062 595.691406 1462.429688 594.828125 1460.601562 595.601562 C 1459.730469 595.988281 1438.828125 604.988281 1423.03125 632.5 C 1408.578125 657.519531 1395.710938 703.378906 1416.378906 779.730469 L 1416.53125 780.171875 L 1434.601562 823.511719 C 1435.121094 824.789062 1436.351562 825.660156 1437.730469 825.71875 Z M 1419.738281 778.878906 L 1419.738281 778.878906 "/>
<path fill-rule="nonzero" fill="rgb(40.771484%, 88.28125%, 99.21875%)" fill-opacity="1" d="M 1446.128906 810.25 C 1434.710938 809.691406 1425 818.480469 1424.441406 829.890625 C 1423.871094 841.308594 1432.671875 851.019531 1444.078125 851.578125 C 1455.488281 852.148438 1465.199219 843.351562 1465.769531 831.941406 C 1466.328125 820.53125 1457.539062 810.820312 1446.128906 810.25 "/>
<path fill-rule="nonzero" fill="rgb(0%, 0%, 0%)" fill-opacity="1" d="M 1446.128906 810.25 C 1434.710938 809.691406 1425 818.480469 1424.441406 829.890625 C 1423.871094 841.308594 1432.671875 851.019531 1444.078125 851.578125 C 1455.488281 852.148438 1465.199219 843.351562 1465.769531 831.941406 C 1466.328125 820.53125 1457.539062 810.820312 1446.128906 810.25 "/>
<path fill-rule="nonzero" fill="rgb(40.380859%, 58.789062%, 66.992188%)" fill-opacity="1" d="M 1455.03125 819.238281 C 1449.628906 813.28125 1440.421875 812.820312 1434.460938 818.21875 C 1428.5 823.621094 1428.039062 832.828125 1433.441406 838.800781 C 1438.839844 844.761719 1448.050781 845.210938 1454.019531 839.808594 C 1459.980469 834.410156 1460.429688 825.199219 1455.03125 819.238281 "/>
<path fill-rule="nonzero" fill="rgb(40.771484%, 88.28125%, 99.21875%)" fill-opacity="1" d="M 1450.789062 810.429688 C 1445.390625 804.460938 1436.179688 804.011719 1430.21875 809.410156 C 1424.261719 814.808594 1423.800781 824.019531 1429.199219 829.980469 C 1434.601562 835.941406 1443.808594 836.398438 1449.769531 831 C 1455.738281 825.601562 1456.191406 816.390625 1450.789062 810.429688 "/>
<path fill-rule="nonzero" fill="rgb(0%, 0%, 0%)" fill-opacity="1" d="M 1450.789062 810.429688 C 1445.390625 804.460938 1436.179688 804.011719 1430.21875 809.410156 C 1424.261719 814.808594 1423.800781 824.019531 1429.199219 829.980469 C 1434.601562 835.941406 1443.808594 836.398438 1449.769531 831 C 1455.738281 825.601562 1456.191406 816.390625 1450.789062 810.429688 "/>
<path fill-rule="nonzero" fill="rgb(80.076599%, 80.076599%, 80.076599%)" fill-opacity="1" d="M 1639.179688 785.78125 C 1638.890625 784.488281 1639.710938 783.210938 1641 782.929688 C 1642.289062 782.640625 1643.558594 783.460938 1643.851562 784.75 C 1654.871094 834.5 1675.359375 886.480469 1675.421875 886.628906 L 1675.390625 888.429688 C 1675.289062 888.671875 1639.480469 973.269531 1628.878906 984.609375 C 1627.980469 985.578125 1626.460938 985.628906 1625.488281 984.730469 C 1624.519531 983.828125 1624.46875 982.320312 1625.371094 981.351562 C 1634.820312 971.238281 1666.78125 896.480469 1670.609375 887.46875 C 1667.851562 880.351562 1649.460938 832.191406 1639.179688 785.78125 "/>
<path fill-rule="evenodd" fill="rgb(0%, 0%, 0%)" fill-opacity="1" d="M 740.289062 1110.480469 L 778.703125 1110.480469 L 778.703125 1697.042969 L 740.289062 1697.042969 L 740.289062 1110.480469 "/>
<path fill="none" stroke-width="5.0003" stroke-linecap="butt" stroke-linejoin="miter" stroke="rgb(0%, 0%, 0%)" stroke-opacity="1" stroke-miterlimit="2.61313" d="M 7402.890625 10015.195312 L 7787.03125 10015.195312 L 7787.03125 4149.570312 L 7402.890625 4149.570312 Z M 7402.890625 10015.195312 " transform="matrix(0.1, 0, 0, -0.1, 0, 2112)"/>
<path fill-rule="evenodd" fill="rgb(0%, 0%, 0%)" fill-opacity="1" d="M 558.625 1680.242188 L 954.867188 1680.242188 L 954.867188 1713.84375 L 558.625 1713.84375 L 558.625 1680.242188 "/>
<path fill="none" stroke-width="5.0003" stroke-linecap="butt" stroke-linejoin="miter" stroke="rgb(0%, 0%, 0%)" stroke-opacity="1" stroke-miterlimit="2.61313" d="M 5586.25 4317.578125 L 9548.671875 4317.578125 L 9548.671875 3981.5625 L 5586.25 3981.5625 Z M 5586.25 4317.578125 " transform="matrix(0.1, 0, 0, -0.1, 0, 2112)"/>
<path fill-rule="evenodd" fill="rgb(59.959412%, 59.959412%, 59.959412%)" fill-opacity="1" d="M 678.898438 915.71875 C 679.273438 914.589844 679.652344 913.460938 680.066406 912.328125 C 682.765625 905.421875 689.527344 900.191406 698.222656 898.351562 C 751.703125 887.039062 780.984375 838.269531 773.785156 801.589844 C 772.070312 792.789062 770.136719 785.78125 767.828125 779.789062 C 774.65625 773.191406 785.554688 771.878906 791.339844 772.761719 C 830.066406 778.710938 855.898438 816.558594 883.558594 841.699219 C 903.785156 860.121094 927.25 871.089844 951.714844 874.261719 C 930.484375 921.359375 886.75 977.460938 809.234375 977.460938 C 779.203125 977.460938 745.734375 969.160156 709.789062 952.800781 L 708.992188 952.449219 L 708.164062 952.160156 C 701.269531 949.691406 693.1875 944.160156 687.691406 940.199219 C 679.722656 934.429688 676.183594 924.601562 678.898438 915.71875 Z M 820.816406 699.988281 C 827.589844 699.988281 833.089844 705.5 833.089844 712.269531 C 833.09375 719.03125 827.585938 724.550781 820.8125 724.550781 C 814.03125 724.550781 808.53125 719.03125 808.53125 712.269531 C 808.535156 705.5 814.023438 699.988281 820.816406 699.988281 Z M 890.847656 629.179688 C 900.996094 629.179688 909.257812 637.398438 909.257812 647.589844 C 909.261719 657.738281 900.996094 665.980469 890.839844 665.980469 C 880.679688 665.980469 872.433594 657.738281 872.433594 647.589844 C 872.441406 637.398438 880.679688 629.179688 890.847656 629.179688 Z M 944.996094 795.160156 C 944.996094 812.121094 931.253906 825.859375 914.3125 825.859375 C 897.367188 825.851562 883.625 812.121094 883.625 795.160156 C 883.628906 778.25 897.363281 764.5 914.3125 764.5 C 931.257812 764.5 944.996094 778.25 944.996094 795.160156 Z M 586.863281 927.878906 C 623.257812 905.839844 662.214844 962.578125 697.769531 975.269531 C 904.371094 1069.261719 975.503906 887.210938 983.964844 831.351562 C 993.046875 771.511719 1002.609375 634.039062 878.984375 595.089844 C 781.929688 564.519531 746.871094 635.730469 746.871094 635.730469 C 739.136719 647.460938 731.648438 650.980469 721.472656 635.730469 C 713.367188 623.589844 717.125 590.96875 718.984375 578.269531 C 719.371094 575.519531 717.234375 573.101562 714.46875 573.101562 L 656.746094 573.101562 C 654.90625 573.101562 653.207031 574.210938 652.53125 575.929688 C 647.449219 588.890625 630.039062 644.828125 677.453125 708.539062 C 731.648438 781.378906 741.792969 766.109375 750.273438 809.429688 C 758.742188 852.75 697.796875 898.199219 657.132812 879.578125 C 636.484375 870.160156 589.402344 844.03125 540.285156 889.761719 C 492.457031 934.320312 537.214844 1015.46875 545.738281 1029.828125 C 546.535156 1031.199219 548.023438 1031.988281 549.621094 1031.988281 L 600.128906 1031.988281 C 604.015625 1031.988281 606.035156 1027.539062 603.585938 1024.53125 C 581.148438 997.011719 563.878906 941.75 586.863281 927.878906 "/>
<path fill-rule="evenodd" fill="rgb(67.771912%, 94.53125%, 100%)" fill-opacity="1" d="M 698.226562 898.351562 C 689.527344 900.191406 682.761719 905.421875 680.066406 912.328125 C 679.660156 913.460938 679.265625 914.589844 678.894531 915.71875 C 676.191406 924.601562 679.722656 934.429688 687.691406 940.199219 C 693.191406 944.160156 701.265625 949.691406 708.164062 952.160156 L 708.992188 952.449219 L 709.789062 952.800781 C 745.738281 969.160156 779.199219 977.460938 809.234375 977.460938 C 886.75 977.460938 930.484375 921.359375 951.714844 874.261719 C 927.253906 871.089844 903.78125 860.121094 883.558594 841.699219 C 855.898438 816.558594 830.0625 778.710938 791.339844 772.761719 C 785.558594 771.871094 774.652344 773.191406 767.828125 779.789062 C 770.140625 785.78125 772.066406 792.789062 773.785156 801.589844 C 780.988281 838.269531 751.703125 887.050781 698.226562 898.351562 "/>
<path fill-rule="evenodd" fill="rgb(67.771912%, 94.53125%, 100%)" fill-opacity="1" d="M 883.628906 795.160156 C 883.628906 812.121094 897.363281 825.859375 914.3125 825.859375 C 931.257812 825.851562 944.996094 812.121094 944.996094 795.160156 C 944.996094 778.25 931.253906 764.5 914.3125 764.5 C 897.367188 764.5 883.625 778.25 883.628906 795.160156 "/>
<path fill-rule="evenodd" fill="rgb(100%, 100%, 100%)" fill-opacity="1" d="M 872.441406 647.589844 C 872.441406 657.738281 880.679688 665.980469 890.839844 665.980469 C 900.996094 665.980469 909.257812 657.738281 909.257812 647.589844 C 909.261719 637.398438 900.996094 629.179688 890.839844 629.179688 C 880.679688 629.179688 872.433594 637.398438 872.441406 647.589844 "/>
<path fill-rule="evenodd" fill="rgb(67.771912%, 94.53125%, 100%)" fill-opacity="1" d="M 808.535156 712.269531 C 808.535156 719.03125 814.023438 724.550781 820.8125 724.550781 C 827.589844 724.550781 833.089844 719.03125 833.089844 712.269531 C 833.09375 705.5 827.585938 699.988281 820.8125 699.988281 C 814.03125 699.988281 808.53125 705.5 808.535156 712.269531 "/>
</svg>
