<svg width="120" height="120" viewBox="0 0 120 120" fill="none" xmlns="http://www.w3.org/2000/svg">
<path d="M69.2544 65.7978C69.4192 67.2058 69.8494 68.5699 70.5222 69.8178C70.7947 70.2676 71.1713 70.6453 71.6203 70.9192C72.0693 71.1931 72.5775 71.3551 73.1022 71.3916C74.8119 71.4311 76.5149 71.1648 78.1308 70.605C78.1859 70.5852 78.2313 70.5451 78.2576 70.4929C78.284 70.4407 78.2894 70.3803 78.2726 70.3243C78.2559 70.2682 78.2183 70.2208 78.1676 70.1916C78.1168 70.1624 78.0569 70.1538 78 70.1676C76.588 70.5564 75.1348 70.7765 73.671 70.8234C73.1709 70.8674 72.6681 70.7771 72.2145 70.5618C71.761 70.3465 71.3731 70.0141 71.091 69.5988C69.0006 66.3312 69.771 60.0714 69.8664 56.262C69.8649 56.2392 69.8551 56.2178 69.839 56.2017C69.8229 56.1856 69.8015 56.1759 69.7788 56.1744C69.5604 55.7376 69.3852 55.344 69.1668 54.9066C68.19 52.8102 68.9346 52.035 69.2544 50.7522C69.2982 50.6214 69.0798 50.49 68.9922 50.5776C68.6598 50.9988 68.4183 51.4844 68.2828 52.0036C68.1473 52.5228 68.1208 53.0644 68.205 53.5944C68.3928 54.5947 68.8631 55.5204 69.5604 56.262C69.0161 59.4109 68.9131 62.6204 69.2544 65.7978Z" fill="#252525"/>
<path d="M82.5912 61.731C84.5034 61.3404 86.0238 61.9794 86.8326 63.6984C86.9202 63.8736 87.2268 63.7859 87.1824 63.6113C87.1392 62.2121 85.6086 61.2935 84.3402 61.1189C82.5474 60.8561 80.8002 61.6434 79.1802 62.2992C78.174 62.6928 77.2122 63.1739 76.2504 63.6113C76.2188 63.6314 76.1915 63.6575 76.1699 63.6882C76.1484 63.7189 76.1332 63.7534 76.125 63.79C76.1169 63.8265 76.116 63.8643 76.1225 63.9012C76.129 63.9381 76.1427 63.9734 76.1628 64.005C77.4128 66.3721 78.4516 68.8449 79.2672 71.3945C79.311 71.4821 79.3554 71.526 79.4424 71.4822C79.4487 71.5341 79.4751 71.5815 79.5159 71.6142C79.5567 71.647 79.6087 71.6624 79.6608 71.6573C80.867 71.4359 82.0418 71.0688 83.1594 70.5642C82.908 71.7558 82.767 72.8645 82.2408 78.1289C82.0884 79.1124 82.0444 80.1095 82.1094 81.1026C82.119 81.1358 82.1392 81.165 82.1668 81.1857C82.1945 81.2065 82.2281 81.2178 82.2627 81.2178C82.2973 81.2178 82.3309 81.2065 82.3586 81.1857C82.3862 81.165 82.4064 81.1358 82.416 81.1026C82.6308 80.511 82.6488 79.9835 82.8096 78.216C82.8966 77.3417 82.9842 76.5107 83.028 75.6359C83.2532 73.9104 83.37 72.1724 83.3778 70.4322C84.1817 70.1346 84.9232 69.6898 85.5642 69.1205C85.6518 69.0329 85.5642 68.9015 85.4772 68.9453C84.9729 69.0698 84.4874 69.2609 84.0336 69.5136C82.5872 70.2192 81.0976 70.8326 79.5738 71.3501V71.3064C78.9362 68.7614 78.0119 66.297 76.8186 63.9605C78.6656 63.0312 80.599 62.2845 82.5912 61.731Z" fill="#252525"/>
<path d="M93.0858 48.3942C91.863 48.4932 90.6372 48.6564 89.4132 48.831C89.238 48.831 89.2812 49.0938 89.457 49.0938C92.9112 48.831 96.4098 48.744 99.8634 48.7002C98.5232 51.7072 98.2011 55.0694 98.946 58.2762C99.1366 59.0911 99.4151 59.8829 99.7764 60.6378C96.5406 60.288 93.3042 59.9382 90.069 59.6778C89.763 59.634 89.7618 60.1224 90.069 60.1578C98.1276 61.1106 98.6322 61.128 102.181 61.6008C102.935 61.7103 103.701 61.7103 104.455 61.6008C104.586 61.557 104.718 61.3824 104.674 61.251C104.115 59.6789 103.835 58.0219 103.843 56.3538C103.843 50.4558 106.199 48.4656 105.463 48.2202C104.288 48.0516 95.8326 48.171 93.0858 48.3942ZM104.936 48.6564C104.324 49.5744 103.712 52.2858 103.537 53.1606C103.075 55.7708 103.239 58.4535 104.017 60.9876C102.774 61.0456 101.528 60.9724 100.3 60.7692C99.5052 58.8261 99.0897 56.7486 99.0762 54.6492C99.0762 51.765 99.819 50.181 100.388 48.615C100.782 48.7002 104.411 48.7002 104.936 48.6564Z" fill="#252525"/>
<path d="M83.2914 48.8748C80.7786 48.8748 80.7054 48.8616 78.0876 48.9624C76.3692 49.0404 67.902 49.4658 65.3628 49.7934C65.1 49.8372 65.1876 50.2308 65.4066 50.2308C68.0304 50.2308 70.6536 49.968 73.2774 49.8372C83.58 49.3218 81.2952 49.2618 83.2914 49.1376C83.4654 49.1814 83.4654 48.8748 83.2914 48.8748Z" fill="#252525"/>
<path d="M111.715 82.1514C111.446 82.0236 111.146 81.9763 110.851 82.0152C110.556 82.054 110.278 82.1774 110.052 82.3704C109.6 82.8654 109.324 83.4955 109.265 84.1632C109.222 84.3378 109.528 84.4254 109.571 84.2508C109.677 83.7178 109.918 83.2207 110.271 82.8072C110.45 82.6232 110.686 82.5056 110.94 82.474C111.194 82.4424 111.452 82.4985 111.67 82.6332C112.601 83.1912 113.474 85.008 114.775 86.3058C115.125 86.6562 115.518 86.9184 115.868 87.2244C116.156 87.4749 116.38 87.7893 116.524 88.1424C116.243 88.4232 115.228 88.2204 114.6 88.0116C110.129 86.5212 111.364 87.006 110.665 86.7432C110.577 86.6994 110.534 86.8746 110.621 86.8746C114.565 88.3536 115.505 89.0346 116.656 88.6236C117.18 88.4052 117.005 87.8802 116.786 87.4866C116.465 87.0419 116.082 86.6445 115.65 86.3058C113.92 85.1952 113.28 82.9356 111.715 82.1514Z" fill="#252525"/>
<path d="M79.62 112.237C80.7648 111.745 80.8512 111.562 81.5004 111.318C81.588 111.275 81.5004 111.143 81.4566 111.187C80.0718 111.705 81.7878 110.898 77.4336 112.761C76.7538 113.044 75.906 113.537 75.7284 114.248C75.7284 114.51 75.9906 114.685 76.2084 114.773C76.7681 114.974 77.3654 115.049 77.9574 114.992C80.343 114.841 82.3518 115.947 83.7732 115.472C84.0493 115.394 84.2961 115.236 84.4828 115.018C84.6695 114.801 84.7877 114.532 84.8226 114.248C84.8488 113.554 84.6323 112.874 84.2106 112.323C84.123 112.148 83.8608 112.323 83.9484 112.498C84.2247 112.977 84.375 113.519 84.3852 114.072C84.3739 114.314 84.2815 114.544 84.1228 114.727C83.9642 114.909 83.7486 115.033 83.511 115.078C82.6812 115.229 81.1296 114.858 80.319 114.685C78.0018 114.325 78.1272 114.643 77.0394 114.554C76.7803 114.563 76.5235 114.503 76.296 114.379C76.1646 114.291 76.1646 114.248 76.2522 114.116C76.944 113.19 77.9076 113.09 79.62 112.237Z" fill="#252525"/>
<path d="M16.9122 37.1562C16.9122 37.2438 16.9998 37.3746 17.0874 37.3308C19.3608 36.5004 21.6348 35.6256 23.9088 34.7508C42.4524 27.8832 52.08 26.8674 53.6874 26.2242C53.7394 26.2179 53.7868 26.1914 53.8195 26.1504C53.8522 26.1095 53.8674 26.0573 53.862 26.0052C53.7515 24.6351 53.3653 23.3014 52.7267 22.0841C52.0881 20.8669 51.2102 19.7912 50.1456 18.9216C46.7856 16.3314 41.6724 16.2048 37.5954 17.0412C37.5599 17.0523 37.5296 17.0757 37.5098 17.1071C37.49 17.1386 37.482 17.176 37.4872 17.2128C37.4925 17.2496 37.5107 17.2833 37.5385 17.308C37.5664 17.3326 37.602 17.3465 37.6392 17.3472C40.4376 17.2164 43.3674 17.0412 46.1226 17.7846C51.2874 19.1754 52.1826 22.6302 53.3826 25.8306C49.7826 25.8306 28.815 31.479 17.1756 36.981C15.5298 32.043 17.7234 25.0662 25.9212 21.2826C28.044 20.2722 31.7664 19.0818 31.8684 18.8778C31.7129 18.2944 31.4775 17.7353 31.1688 17.2164C31.0692 17.1162 26.3766 18.4212 24.3474 14.0238C22.1958 9.18541 27.1872 4.82401 32.4792 5.01601C36.0312 5.11741 38.4474 7.42141 38.8638 10.0014C38.9551 10.9625 38.8027 11.9312 38.4205 12.8177C38.0384 13.7043 37.4388 14.4803 36.6774 15.0738C36.1086 15.5538 34.5348 16.2102 34.5348 16.3416C34.6073 16.9311 34.7691 17.5061 35.0148 18.0468C35.0321 18.1222 35.0787 18.1877 35.1443 18.2288C35.2099 18.2698 35.2892 18.2832 35.3646 18.2658C35.44 18.2485 35.5055 18.2019 35.5465 18.1363C35.5876 18.0707 35.6009 17.9914 35.5836 17.916C35.496 17.6532 35.1036 16.6914 35.0148 16.473C35.6721 16.3559 36.2977 16.1027 36.8514 15.7296C37.6066 15.1939 38.2389 14.5034 38.7065 13.7042C39.174 12.905 39.4659 12.0154 39.5628 11.0946C39.8028 8.31421 37.7124 5.27941 34.0092 4.57861C28.4214 3.49861 22.0368 7.69861 23.5146 13.2372C24.3264 16.2138 26.6028 17.9874 29.9424 17.6532C30.2955 17.6167 30.6459 17.5584 30.9918 17.4786C31.0356 17.7408 31.3416 18.7464 31.3416 18.7902C27.9443 19.607 24.7274 21.0452 21.8532 23.0322C16.9368 26.6796 15.2016 32.9298 16.9122 37.1562Z" fill="#252525"/>
<path d="M35.5842 11.925C35.6607 11.4413 35.6342 10.9469 35.5066 10.4742C35.3789 10.0014 35.1529 9.56096 34.8434 9.18153C34.5339 8.80211 34.1477 8.49228 33.7102 8.2723C33.2728 8.05232 32.7938 7.92715 32.3046 7.90496C31.384 7.84823 30.4644 8.0321 29.6364 8.43849C28.8083 8.84488 28.1003 9.45979 27.582 10.2228C26.0172 12.6114 27.6342 15.2514 31.0362 15.2514C33.0642 15.1518 35.2314 14.076 35.5842 11.925ZM27.7566 11.0502C28.0994 10.365 28.606 9.77502 29.2315 9.33259C29.857 8.89017 30.582 8.60898 31.3422 8.51396C32.1698 8.36227 33.024 8.53725 33.7253 9.00213C34.4266 9.46702 34.9204 10.1856 35.103 11.007C35.463 13.2444 33.33 14.6796 31.386 14.6796C29.0562 14.913 26.8008 13.3452 27.7566 11.0502Z" fill="#252525"/>
<path d="M50.8014 18.7902C51.8697 19.3922 52.6907 20.3526 53.1192 21.5016C53.25 21.8514 54.2994 24.5616 54.2994 24.5616C55.2908 24.3372 56.301 24.2056 57.3168 24.1686C58.1478 27.4476 63.7446 47.6064 64.3572 49.443C64.4004 49.5744 64.5318 49.6176 64.707 49.5744C66.4122 48.9618 70.4352 48.918 71.6592 48.7434C71.6964 48.7427 71.732 48.7287 71.7599 48.7041C71.7877 48.6795 71.8059 48.6458 71.8112 48.609C71.8164 48.5722 71.8085 48.5347 71.7886 48.5033C71.7688 48.4719 71.7385 48.4485 71.703 48.4374C71.0034 46.1196 64.923 24.693 64.5756 23.5974C63.9234 21.6414 63.4956 19.6374 61.7334 18.3936C60.2263 17.4362 58.4325 17.0343 56.661 17.2572C54.8682 17.3472 49.9596 18.3282 50.8014 18.7902Z" fill="#644DF6"/>
<path d="M110.665 87.7927C110.116 86.6021 109.441 85.4733 108.653 84.4255C105.984 85.7605 101.273 87.3991 96.8466 92.1217C96.7152 92.2531 96.5844 92.0779 96.672 91.9471C97.3716 91.0723 98.9454 89.3671 98.9454 89.3671C98.9016 89.1481 97.8084 84.5569 97.2402 82.5457C97.1088 82.1083 96.0594 78.4351 95.535 77.2981C96.3402 77.0053 97.8102 76.5277 97.896 77.3857C97.8958 77.7163 97.8255 78.0431 97.6898 78.3445C97.5541 78.646 97.3561 78.9153 97.1088 79.1347C96.978 79.2661 97.1088 79.4407 97.284 79.3969C97.5254 79.3111 97.7476 79.1785 97.9377 79.0067C98.1278 78.8349 98.2821 78.6273 98.3918 78.3958C98.5015 78.1642 98.5644 77.9133 98.5769 77.6574C98.5894 77.4015 98.5513 77.1456 98.4648 76.9045C97.3148 74.6848 96.2784 72.408 95.3598 70.0831C94.8354 68.8147 94.2666 67.5469 93.6984 66.2353C93.8376 65.6767 95.5962 62.2189 95.5962 61.5175C95.5962 61.2991 95.2464 61.2115 95.1588 61.3867C94.9404 61.8667 93.873 64.6609 93.5232 65.8867C92.844 64.4305 92.232 62.5507 90.7686 61.1641C90.7448 61.1442 90.7145 61.134 90.6835 61.1354C90.6526 61.1367 90.6233 61.1496 90.6014 61.1715C90.5794 61.1933 90.5665 61.2226 90.565 61.2535C90.5635 61.2844 90.5736 61.3148 90.5934 61.3387C91.7304 62.4319 92.2134 63.9625 92.7798 65.4055C97.7118 76.9129 97.4514 76.1875 97.4598 76.2055C97.2729 76.1617 97.0785 76.1617 96.8916 76.2055C93.0306 76.6855 87.4782 81.2455 82.2426 81.6715C82.2094 81.6737 82.1782 81.6885 82.1555 81.7128C82.1327 81.7372 82.1201 81.7692 82.1201 81.8026C82.1201 81.8359 82.1327 81.8679 82.1555 81.8923C82.1782 81.9166 82.2094 81.9314 82.2426 81.9337C83.0675 81.9209 83.8885 81.8183 84.6912 81.6277C84.4632 82.9975 80.4438 109.151 81.4554 109.657C82.7177 110.103 84.0022 110.484 85.3038 110.797C85.3038 109.989 83.8956 116.543 94.5738 81.4573C94.5819 81.4306 94.5996 81.4079 94.6235 81.3936C94.6474 81.3793 94.6758 81.3744 94.7032 81.3798C94.7305 81.3853 94.7548 81.4007 94.7714 81.4232C94.7879 81.4456 94.7956 81.4733 94.7928 81.5011C94.5738 82.6813 92.3874 91.5583 91.9506 93.0451C95.1258 98.1259 98.8428 99.4903 103.582 95.6683C104.805 94.7017 109.484 89.3233 110.665 87.7927Z" fill="#252525"/>
<path d="M69.648 52.9416C69.7518 51.2808 70.7118 50.6736 70.26 50.493C69.885 50.3052 69.432 51.4746 69.3852 51.8922C69.342 52.1087 69.342 52.3316 69.3852 52.548C69.3852 52.6794 69.4296 53.028 69.5604 53.073C69.6036 53.073 69.648 53.0292 69.648 52.9416Z" fill="#252525"/>
<path d="M70.6974 52.9416C70.7464 52.2197 70.9554 51.5177 71.3094 50.8866C71.3976 50.7114 71.6592 50.493 71.6592 50.274C71.6615 50.2505 71.6586 50.2268 71.6507 50.2045C71.6427 50.1823 71.6299 50.1621 71.6132 50.1454C71.5965 50.1287 71.5763 50.1159 71.5541 50.1079C71.5318 50.1 71.5081 50.0971 71.4846 50.0994C71.1786 50.0994 71.0046 50.5368 70.872 50.7552C70.5046 51.4052 70.3659 52.1597 70.4784 52.8978C70.4784 53.073 70.6536 53.0292 70.6974 52.9416Z" fill="#252525"/>
<path d="M72.1842 50.6244C71.9271 51.1122 71.778 51.6495 71.7468 52.2C71.7468 52.419 71.6592 53.16 71.9658 53.2494C72.4314 53.3274 71.9538 52.3344 72.3588 50.7132C72.4026 50.58 72.2718 50.493 72.1842 50.6244Z" fill="#252525"/>
<path d="M85.521 47.8255C84.7146 47.5951 83.3148 49.1515 83.9472 50.0995C84.078 50.3179 84.1656 50.1433 84.1656 49.9681C84.339 48.9295 84.429 48.7681 85.3464 48.2191C85.4334 48.2191 85.827 47.9131 85.521 47.8255Z" fill="#252525"/>
<path d="M85.215 49.8371C85.2183 49.866 85.2299 49.8932 85.2482 49.9157C85.2665 49.9382 85.2909 49.955 85.3184 49.9642C85.3459 49.9733 85.3755 49.9744 85.4036 49.9673C85.4318 49.9602 85.4573 49.9452 85.4772 49.9241C85.687 49.307 86.104 48.7817 86.6574 48.4373C86.7894 48.3503 87.0078 48.2189 87.0078 48.0443C87.0078 47.1503 85.215 48.3245 85.215 49.8371Z" fill="#252525"/>
<path d="M87.36 48.0882C87.0786 48.3604 86.8555 48.687 86.7042 49.0482C86.6598 49.2234 86.3544 50.0537 86.7042 50.0537C86.9916 50.0537 86.9592 49.0781 87.8442 48.3923C87.975 48.2609 88.1934 47.9987 87.9318 47.8673C87.7074 47.7383 87.5322 47.9568 87.36 48.0882Z" fill="#252525"/>
<path d="M89.28 47.8692C89.0184 47.7816 88.7562 48.0438 88.581 48.1752C88.0995 48.6009 87.8017 49.1966 87.75 49.8372C87.75 49.968 87.8814 50.2302 88.056 50.0556C88.2744 49.8372 88.3188 49.4436 88.4934 49.1808C88.7244 48.798 89.856 48.0126 89.28 47.8692Z" fill="#252525"/>
<path d="M83.8158 56.88C84.1008 57.1008 84.0132 57.1068 83.8596 58.1922C83.7639 58.8039 83.9044 59.4292 84.2526 59.9412C84.4118 60.1414 84.6105 60.3067 84.8362 60.4271C85.0619 60.5474 85.3099 60.6201 85.5648 60.6408H86.0022C86.0022 60.7284 85.9152 61.3842 86.0022 61.4718C86.022 61.4924 86.0457 61.5089 86.072 61.5201C86.0983 61.5313 86.1266 61.5371 86.1552 61.5371C86.1838 61.5371 86.2121 61.5313 86.2384 61.5201C86.2647 61.5089 86.2884 61.4924 86.3082 61.4718C86.3739 61.1839 86.3739 60.8849 86.3082 60.597C86.4844 60.5649 86.6524 60.4981 86.8025 60.4005C86.9526 60.3028 87.0817 60.1762 87.1824 60.0282C87.203 59.9979 87.2124 59.9614 87.209 59.925C87.2055 59.8886 87.1895 59.8545 87.1636 59.8286C87.1377 59.8027 87.1036 59.7867 87.0672 59.7832C87.0308 59.7798 86.9943 59.7892 86.964 59.8098C86.727 59.9982 86.4509 60.1313 86.1559 60.1994C85.8609 60.2675 85.5544 60.2689 85.2588 60.2034C84.9407 60.089 84.6695 59.8724 84.4875 59.5876C84.3054 59.3028 84.2229 58.9657 84.2526 58.629C84.2746 58.2189 84.3187 57.8103 84.3846 57.405C84.3846 56.6088 84.162 56.79 83.9472 56.574C83.8842 56.4492 84.2064 56.274 84.3402 56.1366C84.7762 55.7437 85.1063 55.2475 85.3002 54.6936C85.3434 54.606 85.2126 54.5628 85.125 54.6498C84.7372 55.3051 84.2157 55.8714 83.5944 56.3118C83.466 56.4396 83.5944 56.7054 83.8158 56.88Z" fill="#252525"/>
<path d="M89.8062 54.4723C89.6472 54.308 89.457 54.177 89.2469 54.0869C89.0368 53.9967 88.8108 53.9493 88.5822 53.9473C88.3523 53.4492 88.0893 52.9671 87.795 52.5043C87.5098 52.1908 87.1222 51.9893 86.7018 51.9361C85.1898 51.6361 83.9514 52.8727 85.2618 54.0361C85.7862 54.5161 86.5296 54.8671 87.0108 55.3915C87.4044 55.8289 87.3168 56.1787 87.0978 56.7475C86.9238 57.2275 87.1854 57.3157 87.4044 57.0973C87.7542 56.7913 88.104 57.0973 88.017 57.4909C88.0006 57.663 87.9189 57.8224 87.7887 57.9362C87.6584 58.05 87.4896 58.1096 87.3168 58.1029C87.2559 58.1051 87.1973 58.127 87.1499 58.1654C87.1025 58.2038 87.0688 58.2565 87.054 58.3157C87.0392 58.3748 87.044 58.4372 87.0677 58.4934C87.0914 58.5496 87.1327 58.5966 87.1854 58.6273C87.5785 58.8226 88.0154 58.9132 88.4538 58.8901C88.3206 59.6127 88.2328 60.3429 88.191 61.0765C87.728 61.4111 87.2103 61.6627 86.661 61.8199C86.6434 61.83 86.6296 61.8457 86.6216 61.8644C86.6137 61.8831 86.6121 61.9039 86.617 61.9237C86.622 61.9434 86.6332 61.961 86.6491 61.9738C86.6649 61.9865 86.6845 61.9938 86.7048 61.9945C87.4062 62.1949 89.2698 61.5259 89.3286 60.5953C89.3267 60.5335 89.3041 60.4741 89.2645 60.4266C89.225 60.3791 89.1706 60.3461 89.1102 60.3331C88.9344 60.2893 88.8474 60.4207 88.7604 60.5515C88.8036 59.9833 88.8474 59.4145 88.8474 58.8463C90.1062 58.4947 91.0062 55.5919 89.8062 54.4723Z" fill="#252525"/>
<path d="M73.8456 58.4515C73.5428 57.4753 73.1626 56.5249 72.7086 55.6093C72.9995 55.4462 73.2443 55.2121 73.4203 54.9288C73.5962 54.6455 73.6976 54.3223 73.7148 53.9893C73.8018 53.3773 73.758 52.7653 73.89 52.1527C73.9541 51.9536 73.998 51.7485 74.0208 51.5407C74.0208 51.3655 73.8456 51.3223 73.7148 51.4093C73.5244 51.6452 73.4167 51.9372 73.4082 52.2403C73.365 52.6777 73.3212 53.1583 73.3212 53.6395C73.2174 55.3003 72.2802 55.3969 72.4902 55.6075C72.5896 56.0871 72.7361 56.5558 72.9276 57.0067L73.32 58.3201C74.5764 62.7187 74.3172 65.0743 74.6316 66.8035C74.6754 66.9349 74.85 66.9349 74.85 66.8035C75.2946 64.8493 74.6508 60.9529 74.0196 58.9327C77.2116 59.1511 80.4036 59.3695 83.5518 59.6323C83.8584 59.6761 83.8584 59.1949 83.5518 59.1523C80.3172 58.9327 77.0814 58.7137 73.8456 58.4515Z" fill="#252525"/>
<path d="M64.8816 58.0578C66.1062 58.233 67.3308 58.32 68.5548 58.4514C68.8614 58.4952 68.8614 58.014 68.5548 57.9714C67.374 57.8406 66.1494 57.7968 64.9692 57.5778C64.707 57.5766 64.5756 58.014 64.8816 58.0578Z" fill="#252525"/>
<path d="M106.38 48.3504C108.195 48.4007 109.974 48.8643 111.583 49.7058C112.975 50.3744 114.078 51.5237 114.688 52.9416C115.5 55.3032 114.292 58.5216 110.797 60.1128C109.049 60.8298 107.175 61.1867 105.287 61.1622C105.112 61.1622 105.112 61.4688 105.287 61.4688C107.077 61.6238 108.88 61.4002 110.578 60.8124C114.317 59.4624 116.008 56.0418 115.388 53.2476C114.543 49.7736 109.949 47.6022 106.38 47.8254C106.316 47.8335 106.257 47.8646 106.215 47.913C106.172 47.9613 106.149 48.0235 106.149 48.0879C106.149 48.1523 106.172 48.2145 106.215 48.2629C106.257 48.3112 106.316 48.3423 106.38 48.3504Z" fill="#644DF6"/>
<path d="M64.794 57.5329C65.044 57.387 65.2368 57.16 65.3402 56.8896C65.4436 56.6192 65.4516 56.3216 65.3628 56.0461C65.1567 55.4992 64.7908 55.0269 64.3128 54.6907C64.8654 54.1891 66.2262 53.7049 65.8002 51.7171C65.7126 51.3673 65.5818 50.7991 65.2314 50.6677C65.1444 50.6239 65.0124 50.7115 64.9692 50.7991C64.8816 51.0613 65.1 51.3235 65.1876 51.5425C65.5374 52.6825 65.2752 53.5975 64.2276 54.1225C63.9654 54.2533 63.528 54.3847 63.834 54.7783C64.3584 55.3903 65.802 56.4835 64.6644 57.3145C64.6451 57.3354 64.6331 57.3621 64.6302 57.3904C64.6272 57.4188 64.6335 57.4473 64.648 57.4718C64.6626 57.4963 64.6846 57.5155 64.7109 57.5265C64.7372 57.5375 64.7663 57.5397 64.794 57.5329Z" fill="#252525"/>
<path d="M64.2696 57.708C64.3572 57.7506 64.4442 57.6204 64.3566 57.5772C62.2896 56.3838 60.414 55.848 56.8362 54.2976C56.707 53.7976 56.769 53.2674 57.0102 52.8108C59.5902 51.9798 62.2146 51.2364 64.7502 50.3616C64.7882 50.3478 64.8196 50.32 64.8379 50.284C64.8562 50.2479 64.8602 50.2063 64.849 50.1674C64.8378 50.1285 64.8123 50.0954 64.7776 50.0746C64.7428 50.0539 64.7015 50.0471 64.662 50.0556C61.7786 50.72 58.9326 51.5374 56.136 52.5042C55.6116 52.6794 53.6436 52.461 53.6436 53.3352C53.6436 53.379 52.8132 56.1342 52.6836 56.7462C52.5084 57.4896 51.678 60.9462 51.7236 60.9462C50.892 60.5088 50.2806 59.766 49.5372 59.241C49.3614 59.1096 49.0998 59.3286 49.2744 59.5032C49.887 60.1158 50.499 60.7278 51.1548 61.296C51.6798 61.7334 52.1604 61.602 52.3356 60.9462C52.9554 58.7778 53.1378 56.8344 54.1284 53.8626C54.1284 53.8626 55.3092 54.2562 55.9206 54.387C56.6198 54.6111 57.3061 54.874 57.9762 55.1742C59.1642 55.62 63.1428 57.1626 64.2696 57.708Z" fill="#252525"/>
<path d="M51.4134 57.36C50.3202 57.5346 49.227 57.7974 48.1338 57.972C48.1098 57.9759 48.087 57.985 48.0669 57.9987C48.0468 58.0123 48.0299 58.0302 48.0175 58.0511C48.005 58.0719 47.9973 58.0953 47.9948 58.1194C47.9923 58.1436 47.9951 58.168 48.003 58.191C49.7088 64.1628 48.9864 63.2484 49.3584 63.744C49.6464 64.2054 50.115 63.7866 54.7806 62.826C54.8182 62.8179 54.8538 62.8023 54.8852 62.7802C54.9167 62.7581 54.9434 62.7299 54.9638 62.6973C54.9841 62.6646 54.9977 62.6283 55.0038 62.5903C55.0098 62.5523 55.0082 62.5135 54.999 62.4762C54.7501 61.401 54.4138 60.3478 53.9934 59.3274C53.862 58.9776 53.2938 59.109 53.4252 59.5026C53.7312 60.4626 54.081 61.4268 54.3432 62.3886C54.2742 62.1126 49.9236 63.6534 49.7958 63.5286C49.7736 63.4686 48.6948 58.284 48.4398 58.3686C49.446 58.1502 50.4516 57.8886 51.4572 57.669C51.4915 57.6564 51.5204 57.6324 51.5391 57.6011C51.5578 57.5697 51.5653 57.5329 51.5601 57.4968C51.555 57.4606 51.5377 57.4273 51.511 57.4024C51.4843 57.3776 51.4498 57.3626 51.4134 57.36Z" fill="#252525"/>
<path d="M52.9878 72.4002C52.5169 72.4231 52.0556 72.5421 51.6324 72.75C51.501 72.8376 51.501 73.1004 51.6756 73.1436C52.146 73.2092 52.6253 73.1644 53.0754 73.0128C53.6124 72.9228 57.0576 72.2172 57.4914 72.1386C57.529 72.1306 57.5647 72.115 57.5962 72.0929C57.6277 72.0709 57.6545 72.0427 57.6749 72.01C57.6954 71.9774 57.709 71.941 57.7151 71.903C57.7212 71.865 57.7196 71.8262 57.7104 71.7888C57.2948 69.9225 56.7243 68.0942 56.0046 66.3228C55.9614 66.1908 55.7862 66.1908 55.6986 66.1908C53.8444 66.4053 52.0235 66.846 50.2764 67.503C50.1894 67.503 50.058 67.5906 50.1018 67.7214C50.6262 69.8214 50.6682 70.4718 51.1074 71.7888C51.2388 72.1386 51.807 72.0072 51.6756 71.613C51.2496 70.3344 50.9958 68.8902 50.4954 67.7214C52.1568 67.3716 53.862 66.9342 55.5678 66.7158C56.1947 68.2906 56.6919 69.914 57.0546 71.5698C56.589 71.6808 53.0478 72.3894 52.9878 72.4002Z" fill="#252525"/>
<path d="M29.5932 66.3228C34.7094 65.4036 40.0008 64.617 45.0294 63.174C45.2033 63.1276 45.3517 63.014 45.4419 62.8583C45.5321 62.7025 45.5567 62.5172 45.5103 62.3433C45.4639 62.1694 45.3503 62.021 45.1946 61.9308C45.0388 61.8406 44.8535 61.816 44.6796 61.8624C40.6596 62.3868 36.6774 63.6114 32.7858 64.7478C31.6458 65.0544 30.5556 65.4918 29.4624 65.841C29.3985 65.8583 29.3441 65.9004 29.3112 65.9578C29.2783 66.0152 29.2696 66.0834 29.2869 66.1473C29.3042 66.2112 29.3463 66.2656 29.4037 66.2985C29.4611 66.3314 29.5293 66.3401 29.5932 66.3228Z" fill="#252525"/>
<path d="M54.1248 82.3704C54.1355 82.4102 54.1549 82.4472 54.1817 82.4785C54.2085 82.5098 54.242 82.5348 54.2796 82.5515C54.3173 82.5682 54.3582 82.5763 54.3995 82.5752C54.4407 82.5741 54.4811 82.5638 54.5178 82.545C54.7806 82.545 59.853 81.585 60.0276 81.3648C60.2466 81.1458 60.159 80.8398 60.0714 80.5776C60.0144 80.3784 58.506 75.912 58.3224 75.6366C58.191 75.4176 57.9294 75.5058 57.7542 75.549C57.4038 75.6366 54.4746 76.2486 53.3814 76.599C53.25 76.6422 53.25 76.9044 53.4246 76.8606C54.9555 76.6725 56.4741 76.395 57.9726 76.0296C57.9726 76.0896 59.7336 80.8836 59.547 80.8836C59.46 80.9274 54.8244 81.8436 54.6054 81.8892C54.5616 81.5832 53.25 77.7354 52.944 76.8606C52.9002 76.7292 52.6818 76.773 52.725 76.9044C52.944 77.9106 54.0036 81.93 54.1248 82.3704Z" fill="#252525"/>
<path d="M34.0974 84.6001C36.8634 84.1393 39.6072 83.4193 42.3174 82.7197C44.985 82.0201 47.6958 81.4519 50.3634 80.7523C50.4514 80.731 50.5343 80.6924 50.6071 80.6386C50.68 80.5849 50.7414 80.5171 50.7877 80.4393C50.834 80.3615 50.8642 80.2752 50.8767 80.1855C50.8891 80.0958 50.8836 80.0046 50.8602 79.9171C50.8369 79.8296 50.7963 79.7477 50.7409 79.6761C50.6854 79.6045 50.6162 79.5447 50.5374 79.5003C50.4585 79.4559 50.3715 79.4276 50.2816 79.4173C50.1916 79.4069 50.1005 79.4147 50.0136 79.4401C45.6984 80.0503 41.0502 81.7255 34.0092 84.1627C33.66 84.2509 33.792 84.6517 34.0974 84.6001Z" fill="#252525"/>
<path d="M31.7796 75.5053C35.388 75.2251 43.689 72.9337 44.8104 72.6631C45.6852 72.4447 47.3466 72.3571 47.9592 71.5231C48.03 71.4001 48.0513 71.2548 48.0187 71.1167C47.9862 70.9786 47.9022 70.8581 47.784 70.7797C47.2301 70.6482 46.6489 70.6942 46.1226 70.9111C38.4426 72.8311 34.1034 73.7107 31.7358 75.0655C31.6836 75.0782 31.6377 75.1095 31.6067 75.1533C31.5756 75.1972 31.5615 75.2509 31.5668 75.3044C31.5721 75.3579 31.5966 75.4076 31.6357 75.4446C31.6748 75.4815 31.7259 75.503 31.7796 75.5053Z" fill="#252525"/>
<path d="M38.7324 43.365C39.4269 43.3159 40.1005 43.1064 40.7004 42.753C41.0064 42.4908 40.7874 42.0972 40.4814 41.9658C39.6942 41.7036 38.82 42.0096 38.0328 42.1848C27.6192 44.5596 25.5222 44.8104 22.9902 46.0764C22.9125 46.121 22.8521 46.1905 22.8188 46.2736C22.7854 46.3567 22.781 46.4487 22.8063 46.5346C22.8317 46.6205 22.8852 46.6954 22.9583 46.7471C23.0314 46.7989 23.1198 46.8245 23.2092 46.8198C24.8087 46.5955 26.3878 46.2446 27.9318 45.7704C29.7192 45.4128 33.024 44.4726 38.7324 43.365Z" fill="#252525"/>
<path d="M24.96 51.4985C26.4731 51.2929 27.9655 50.9564 29.4204 50.4929C35.127 49.0661 34.0404 49.3655 39.39 48.2189C40.3086 48.0443 41.664 48.0443 42.45 47.3879C42.756 47.1257 42.5376 46.7321 42.231 46.6013C40.9194 46.1213 39.2142 46.9511 37.9458 47.2133C37.0368 47.4035 27.3858 49.4135 24.7404 50.7113C24.39 50.9303 24.5208 51.5399 24.96 51.4985Z" fill="#252525"/>
<path d="M46.9098 36.8065C46.2097 36.7259 45.5015 36.858 44.8775 37.1856C44.2534 37.5131 43.7425 38.021 43.4112 38.6431C43.2311 38.9827 43.1443 39.364 43.1597 39.7481C43.175 40.1322 43.2921 40.5054 43.4988 40.8295C43.8048 41.3977 44.3298 41.2225 44.1546 40.6981C43.8486 39.6925 44.8104 38.5981 45.7746 38.3365C46.2896 38.2192 46.83 38.3035 47.285 38.5719C47.7399 38.8403 48.0749 39.2725 48.2214 39.7801C48.7464 41.3545 47.3904 41.8357 46.6014 42.8401C46.2928 43.2857 46.1168 43.8096 46.0937 44.3511C46.0705 44.8927 46.2012 45.4297 46.4706 45.9001C46.8204 46.5121 47.9574 46.4683 48.0906 45.6811C48.222 44.7631 47.4348 44.1943 48.3972 43.4071C49.5774 42.4015 50.277 41.1775 49.8402 39.6031C49.6487 38.9163 49.2754 38.2939 48.7596 37.8017C48.2439 37.3095 47.6048 36.9656 46.9098 36.8065Z" fill="#252525"/>
<path d="M49.1832 48.744C49.1426 48.5396 49.0342 48.3549 48.8755 48.2199C48.7169 48.0848 48.5172 48.0073 48.309 48C48.1493 47.9976 47.9919 48.0378 47.8529 48.1164C47.7139 48.195 47.5983 48.3092 47.518 48.4473C47.4377 48.5853 47.3955 48.7422 47.3959 48.9019C47.3962 49.0616 47.4391 49.2183 47.52 49.356C47.9496 50.2116 49.356 49.6938 49.1832 48.744Z" fill="#252525"/>
<path d="M85.1712 56.0466C85.1854 56.0783 85.2067 56.1063 85.2333 56.1286C85.2599 56.1508 85.2913 56.1668 85.325 56.1751C85.3586 56.1835 85.3938 56.1841 85.4278 56.1769C85.4617 56.1698 85.4936 56.1549 85.521 56.1336C85.7832 56.0028 86.001 55.3464 85.5648 55.3464C85.488 55.3576 85.4148 55.3862 85.3508 55.4302C85.2868 55.4741 85.2338 55.5321 85.1958 55.5997C85.1578 55.6674 85.1358 55.7428 85.1315 55.8203C85.1272 55.8978 85.1408 55.9752 85.1712 56.0466Z" fill="#252525"/>
<path d="M85.5648 58.5828C85.5474 58.5993 85.5267 58.6117 85.5039 58.6192C85.4812 58.6266 85.4571 58.629 85.4334 58.626H85.3458C85.2803 58.637 85.2196 58.6675 85.1718 58.7136C85.0518 58.83 85.0416 59.0196 85.215 59.0196C85.5042 59.1354 86.1198 58.7922 86.2206 58.1892V57.7956C86.1896 57.6673 86.1299 57.5477 86.046 57.4458C85.8276 57.2268 85.56 57.4926 85.3026 57.6204C85.1801 57.6835 85.0631 57.7568 84.9528 57.8394C84.822 57.9264 84.7344 58.014 84.603 58.1016C84.5799 58.1168 84.5628 58.1395 84.5545 58.1659C84.5462 58.1922 84.5472 58.2206 84.5575 58.2463C84.5677 58.272 84.5865 58.2933 84.6106 58.3068C84.6348 58.3202 84.6628 58.3249 84.69 58.32C84.7967 58.3114 84.9007 58.2818 84.996 58.233C85.2804 58.131 85.5463 57.9833 85.7832 57.7956C85.7832 58.1496 85.8 58.1724 85.7394 58.233L85.6962 58.2762C85.6086 58.539 85.6086 58.539 85.5648 58.5828Z" fill="#252525"/>
<path d="M16.8684 26.88C12.5436 27.921 5.88 28.2498 3.66 32.1276C2.7 33.8328 3.0042 35.8878 3.2232 37.7244C4.1022 44.6322 6.3402 55.1772 7.8582 62.3844C8.4222 65.049 12.5442 86.6364 17.3034 102.788C18.1992 105.925 18.8946 109.544 25.5678 110.092C32.4864 110.6 41.8878 107.164 47.694 105.325C71.4672 97.4046 79.935 96.7398 81.7584 90.1956C83.1078 85.4682 79.533 75.9288 78.1722 71.3928C78.1284 71.2614 77.9538 71.13 77.823 71.1738C75.8634 71.8518 72.6408 72.2034 70.695 71.3046C70.6395 71.2526 70.567 71.2225 70.491 71.22C70.415 71.2175 70.3407 71.2428 70.282 71.291C70.2232 71.3393 70.184 71.4073 70.1717 71.4823C70.1594 71.5573 70.1748 71.6343 70.215 71.6988C71.352 75.5898 72.2268 79.5252 73.3638 83.3742C72.2928 83.7306 27.435 97.2264 25.3068 97.8912C25.2948 97.8312 18.0024 68.5848 16.5612 61.86C15.0744 55.0386 11.6202 37.7658 11.2704 35.973C15.663 34.827 15.3534 34.995 15.5118 34.833C15.6205 34.6812 15.6673 34.4937 15.6426 34.3086C15.6896 32.8674 15.8653 31.4333 16.1676 30.0234C16.3066 28.9769 16.6803 27.9754 17.2608 27.0936C17.3934 26.9232 16.8684 26.8362 16.8684 26.88Z" fill="#644DF6"/>
</svg>
