<svg width="120" height="120" viewBox="0 0 120 120" fill="none" xmlns="http://www.w3.org/2000/svg">
<path fill-rule="evenodd" clip-rule="evenodd" d="M87.9624 100.614C91.0968 101.802 93.5142 102.706 94.8396 103.182C94.9992 103.239 95.1162 103.286 95.2248 103.27C95.6142 103.213 95.8818 102.334 97.5396 98.1558C100.325 91.1358 112.787 58.6314 112.918 58.2708C116.246 49.1059 117.327 47.4816 116.917 46.8862C116.811 46.7329 116.606 46.6478 116.316 46.5198C114.635 45.7792 76.6524 31.0588 63.8346 26.3804C63.8406 26.8795 63.8466 27.3863 63.8532 27.9001C65.8392 28.6838 69.5202 30.2488 76.4922 32.9634C111.58 46.6295 115.073 47.218 115.104 47.9515C115.108 48.0458 115.055 48.1426 115.004 48.27C110.303 60.0534 96.3618 96.66 94.899 100.853C94.6572 101.548 94.6554 101.546 90.864 100.004C90.2142 99.7398 89.4534 99.4302 88.5612 99.0714C88.3536 99.6054 88.1538 100.12 87.9624 100.614Z" fill="#252525"/>
<path fill-rule="evenodd" clip-rule="evenodd" d="M60.9684 72.972C60.4764 72.9804 59.9379 72.9888 59.3575 72.9978C60.0762 74.67 60.9594 76.6554 62.0502 79.0086C62.268 79.479 62.0958 79.6003 61.7802 79.7976L60.9828 80.2962H60.9822C51.8774 85.9848 48.6871 87.9781 45.2201 90.4062C44.8063 90.6949 44.6901 90.6487 42.5418 89.7937C40.7183 89.0683 37.431 87.7596 31.2551 85.5786C30.5633 85.3344 30.5363 85.2979 30.7955 84.6456L35.316 73.2336C34.7288 73.2378 34.1411 73.2426 33.5539 73.2468C31.0539 79.8829 29.2886 84.6126 28.9891 85.4154L28.9439 85.536C28.7681 85.9956 28.8791 86.2314 29.3315 86.3586C29.4551 86.3934 30.0193 86.6214 31.111 87.0625C34.3638 88.3759 42.2997 91.581 57.2177 97.206C57.9693 97.4904 59.7687 98.1859 62.1336 99.1003H62.1348L62.136 99.1008C68.6898 101.634 79.5864 105.846 84.5718 107.638C84.9984 107.791 85.1892 107.739 85.3584 107.311C85.9788 105.739 103.372 60.9636 106.591 52.3086C106.901 51.4728 106.841 51.3252 106.051 50.9772C104.444 50.2689 80.1438 40.8534 63.933 34.715C63.9402 35.3193 63.9468 35.9271 63.9534 36.5374C67.7364 38.0173 69.6198 38.7207 71.4894 39.4191C72.6708 39.8605 73.8474 40.2999 75.4944 40.932C76.698 41.3931 78.5136 42.0992 80.7042 42.9512L80.7048 42.9513C87.3522 45.5366 97.455 49.4657 104.411 51.972C104.872 52.1376 104.901 52.3188 104.738 52.7268C102.449 58.452 98.8392 67.6585 96.9534 72.7878C96.3066 74.5471 95.622 76.2907 94.9368 78.0343C94.314 79.6207 93.6912 81.2064 93.0972 82.8036C93.0564 82.9116 93.0234 83.0214 92.9904 83.1306C92.9496 83.2638 92.91 83.3958 92.8572 83.5236C92.8362 83.5734 92.8224 83.6322 92.8086 83.6916C92.7708 83.853 92.7312 84.0204 92.5506 84.0246C92.5422 84.0246 92.5338 84.0253 92.5266 84.0253C92.5164 84.0253 92.5068 84.0246 92.4972 84.0228C92.3892 84.003 92.3112 83.8134 91.6584 82.215C91.4856 81.792 91.2726 81.2706 91.008 80.6274C90.9186 80.4096 90.7914 80.0988 90.636 79.7172L90.6354 79.716C89.5734 77.1132 87.1734 71.232 86.1792 69.2874C85.9644 68.868 85.7802 68.4942 85.617 68.1642C84.6546 66.216 84.4482 65.7978 83.3058 66.501L63.8094 78.5538C63.453 78.7999 63.2676 78.7579 63.1014 78.3199C62.55 76.8661 61.7898 74.961 60.9684 72.972ZM91.2792 87.6372C91.833 86.5692 91.9992 85.5588 91.143 84.5863C91.0884 84.5262 85.1106 71.3076 84.0312 68.0862C83.9172 67.7472 83.7822 67.566 83.4162 67.8336C82.9794 68.1528 53.7599 86.5897 46.4441 90.7351C46.4209 90.7483 46.3951 90.7608 46.3688 90.774C46.2632 90.8256 46.1486 90.8826 46.1525 90.9918C46.1581 91.1736 46.1698 91.1779 49.0578 92.2585C52.9679 93.7207 62.1504 97.1556 83.7288 105.673C84.1944 105.857 84.4416 105.861 84.6336 105.313C86.898 98.8201 90.9054 88.3584 91.2792 87.6372Z" fill="#252525"/>
<path d="M63.6474 13.3632C63.6288 12.4716 63.5178 12.3552 62.6544 12.324C59.9646 12.2268 13.0853 12.6444 3.83697 13.0278C3.05697 13.0602 3.00897 13.0908 3.00657 13.8618C2.92917 34.9218 3.70977 72.8004 3.71097 72.8676C3.71697 73.3578 3.90657 73.5384 4.37397 73.4892C5.05917 73.4172 56.3603 73.149 63.567 72.9138C64.0218 72.8988 64.1772 72.78 64.1772 72.3192C64.1766 70.6284 63.9102 26.16 63.6474 13.3632ZM4.59117 15.1308C4.57977 14.5692 4.72797 14.4108 5.29497 14.4108C24.6371 14.4624 23.9015 14.319 30.546 14.2464C36.12 14.1864 51.3527 14.1696 61.4982 13.8546C61.9872 13.839 62.0814 13.9962 62.0802 14.4366C62.0646 20.4846 62.3892 47.1906 62.3856 47.442C62.3856 47.6418 62.5122 47.922 62.2854 48.0198C62.1156 48.093 62.181 48.1074 59.6003 45.432C58.2599 44.0442 52.8131 38.322 50.9339 36.6702C48.5033 34.5336 48.1805 33.8754 47.2367 35.1378L33.5568 53.5272C33.3168 53.8872 33.1284 53.916 32.8122 53.5704C29.8158 50.2932 24.0689 44.409 21.4799 42.1632C20.9249 41.6832 20.6951 41.6754 20.1887 42.1674C17.1815 45.0876 14.1983 48.033 11.1659 50.9274C5.19777 56.6244 5.78937 56.4 5.08557 56.8164C4.91157 37.8252 4.85997 27.9636 4.59117 15.1308ZM5.87577 72.054C5.14377 72.0822 5.10417 72.0582 5.10417 71.3556V58.926C5.08335 58.8026 5.09405 58.676 5.13528 58.5579C5.1765 58.4397 5.24691 58.3339 5.33997 58.2504C7.33554 56.6568 8.26974 55.6146 16.5599 47.442C17.8997 46.122 19.2485 44.8092 20.5835 43.482C21.3503 42.72 20.7678 43.8654 32.0826 54.5988C32.4582 54.9546 32.3429 55.1304 32.1215 55.4304C25.4327 64.5048 23.0514 67.7232 20.64 71.3958C20.1312 72.1656 20.2925 71.4996 5.87577 72.054ZM62.0628 71.4C48.3257 71.4084 24.9468 71.694 24.8628 71.6958C21.8736 71.748 21.8027 71.7996 21.7181 71.5998C21.6641 71.4744 21.8111 71.3598 21.8951 71.2536C26.9573 64.98 47.4749 36.8946 47.8259 36.3366C48.0659 35.9526 48.2591 36.0702 48.4901 36.3444C50.7263 38.9952 61.1214 49.032 61.182 49.0644C62.3334 49.6554 62.556 50.652 62.4342 51.8502C62.352 52.6578 62.4804 63.7596 62.7702 70.7292C62.7948 71.31 62.5638 71.4 62.0628 71.4Z" fill="#644DF6"/>
<path d="M16.8155 32.6688C20.1155 32.7048 22.6013 29.7732 22.6235 26.8584C22.5951 25.3554 21.9729 23.9248 20.893 22.8793C19.813 21.8336 18.363 21.2581 16.8599 21.2784C13.6799 21.3258 10.8815 23.6298 10.8923 27.0876C10.9031 30.3 13.4861 32.6328 16.8155 32.6688ZM12.3353 25.4963C12.6648 24.6178 13.2554 23.8612 14.0278 23.3283C14.8001 22.7954 15.717 22.5118 16.6553 22.5156C17.6713 22.4892 18.6697 22.785 19.5073 23.3604C20.345 23.9359 20.9792 24.7617 21.3191 25.7196C21.6512 26.7542 21.5774 27.8764 21.1127 28.8587C20.648 29.841 19.8271 30.6097 18.8165 31.0091C18.1721 31.2752 17.4809 31.4096 16.7837 31.4046C13.5035 31.3667 11.3597 28.4741 12.3353 25.4963Z" fill="#644DF6"/>
</svg>
