<?xml version="1.0" encoding="UTF-8"?>
<svg xmlns="http://www.w3.org/2000/svg" xmlns:xlink="http://www.w3.org/1999/xlink" width="120" height="120" viewBox="0 0 2500 2500">
<path fill-rule="evenodd" fill="rgb(71.484375%, 83.59375%, 93.359375%)" fill-opacity="1" d="M 491.808594 2029.363281 C 342.480469 1971.828125 216.710938 1888.40625 149.371094 1738.546875 C -34.398438 1329.589844 424.925781 1428.671875 481.21875 1103.691406 C 510.300781 935.789062 310.414062 712.949219 414.078125 577.261719 C 552.410156 396.210938 772.3125 495.238281 955.160156 440.539062 C 1151.371094 381.859375 1347.199219 203.960938 1565.441406 261.199219 C 1841.96875 333.71875 1897.179688 678.890625 2015.089844 893.371094 C 2079.308594 1010.160156 2180.230469 1080.460938 2271 1173.191406 C 2486.488281 1393.320312 2384.890625 1643.34375 2221.789062 1852.152344 C 2137.828125 1959.640625 2108.609375 2080.945312 1967.019531 2116.972656 L 491.808594 2029.363281 "/>
<path fill-rule="evenodd" fill="rgb(82.421875%, 91.40625%, 98.4375%)" fill-opacity="1" d="M 1213.128906 1869.714844 C 1733.339844 1869.714844 2155.691406 1954.914062 2155.691406 2059.859375 C 2155.691406 2164.800781 1733.339844 2250 1213.128906 2250 C 692.90625 2250 270.558594 2164.800781 270.558594 2059.859375 C 270.558594 1954.914062 692.90625 1869.714844 1213.128906 1869.714844 "/>
<path fill-rule="evenodd" fill="rgb(81.25%, 58.006287%, 34.49707%)" fill-opacity="1" d="M 1910.890625 1651.453125 L 1834.191406 1651.453125 L 1845.460938 2097.230469 L 1880.351562 2097.230469 L 1910.890625 1651.453125 "/>
<path fill-rule="evenodd" fill="rgb(81.25%, 58.006287%, 34.49707%)" fill-opacity="1" d="M 1767.089844 1594.367188 L 1690.390625 1594.367188 L 1701.660156 2040.148438 L 1736.550781 2040.148438 L 1767.089844 1594.367188 "/>
<path fill-rule="evenodd" fill="rgb(81.25%, 58.006287%, 34.49707%)" fill-opacity="1" d="M 1500.839844 1651.453125 L 1577.53125 1651.453125 L 1566.269531 2097.230469 L 1531.371094 2097.230469 L 1500.839844 1651.453125 "/>
<path fill-rule="evenodd" fill="rgb(19.189453%, 12.5%, 7.788086%)" fill-opacity="1" d="M 1496.480469 1559.160156 C 1496.859375 1519.886719 1590.339844 1488.039062 1705.429688 1488.039062 C 1820.738281 1488.039062 1914.371094 1520.011719 1914.371094 1559.390625 L 1914.371094 1661.59375 C 1914.371094 1700.96875 1820.738281 1732.941406 1705.429688 1732.941406 C 1590.109375 1732.941406 1496.480469 1700.96875 1496.480469 1661.59375 L 1496.480469 1559.160156 "/>
<path fill-rule="evenodd" fill="rgb(0%, 0%, 0%)" fill-opacity="1" d="M 1449.421875 2033.613281 C 1449.421875 2033.613281 1385.941406 2101.296875 1371.421875 2119.890625 C 1366.011719 2126.808594 1359.148438 2139.9375 1364.011719 2145.164062 C 1374.691406 2156.65625 1436.558594 2131.875 1465.539062 2119.890625 C 1492.050781 2108.929688 1527.558594 2088.808594 1537.878906 2073.265625 C 1546.679688 2059.992188 1525.679688 2026.640625 1525.679688 2026.640625 L 1449.421875 2033.613281 "/>
<path fill-rule="evenodd" fill="rgb(0%, 0%, 0%)" fill-opacity="1" d="M 1257.691406 2027.945312 C 1257.691406 2027.945312 1194.210938 2095.636719 1179.691406 2114.226562 C 1174.28125 2121.144531 1167.421875 2134.273438 1172.28125 2139.5 C 1182.949219 2150.992188 1244.828125 2126.210938 1273.808594 2114.226562 C 1300.320312 2103.261719 1335.828125 2083.144531 1346.140625 2067.601562 C 1354.949219 2054.328125 1333.941406 2020.976562 1333.941406 2020.976562 L 1257.691406 2027.945312 "/>
<path fill-rule="evenodd" fill="rgb(14.501953%, 16.088867%, 19.993591%)" fill-opacity="1" d="M 1021.75 937.179688 C 1023.230469 933.121094 1021.140625 928.628906 1017.078125 927.160156 C 991.964844 918.011719 909.6875 888.03125 884.574219 878.878906 C 880.515625 877.398438 876.027344 879.488281 874.550781 883.550781 C 863.355469 914.269531 820.355469 1032.289062 809.160156 1063.011719 C 807.683594 1067.058594 809.773438 1071.550781 813.832031 1073.03125 C 838.945312 1082.179688 921.21875 1112.160156 946.335938 1121.308594 C 950.394531 1122.789062 954.882812 1120.699219 956.359375 1116.640625 C 967.554688 1085.921875 1010.550781 967.898438 1021.75 937.179688 "/>
<path fill-rule="evenodd" fill="rgb(93.75%, 96.09375%, 96.09375%)" fill-opacity="1" d="M 1015.210938 934.800781 C 1015.921875 932.851562 1015.828125 930.699219 1014.949219 928.820312 C 1014.078125 926.941406 1012.488281 925.480469 1010.539062 924.769531 C 987.90625 916.53125 919.410156 891.570312 896.773438 883.320312 C 894.828125 882.609375 892.675781 882.710938 890.796875 883.578125 C 888.917969 884.460938 887.460938 886.039062 886.753906 887.988281 C 875.773438 918.128906 834.25 1032.089844 823.269531 1062.21875 C 822.558594 1064.171875 822.652344 1066.320312 823.527344 1068.199219 C 824.402344 1070.078125 825.988281 1071.539062 827.9375 1072.25 C 850.570312 1080.488281 919.070312 1105.449219 941.703125 1113.699219 C 943.652344 1114.410156 945.804688 1114.320312 947.683594 1113.441406 C 949.5625 1112.558594 951.019531 1110.980469 951.726562 1109.03125 C 962.707031 1078.890625 1004.230469 964.929688 1015.210938 934.800781 "/>
<path fill-rule="evenodd" fill="rgb(69.726562%, 71.484375%, 71.484375%)" fill-opacity="1" d="M 990.71875 910.371094 C 992.195312 906.320312 990.105469 901.828125 986.050781 900.351562 C 975.382812 896.460938 955.71875 889.300781 945.054688 885.410156 C 940.996094 883.941406 936.507812 886.019531 935.03125 890.078125 C 932.765625 896.289062 929.539062 905.148438 927.277344 911.359375 C 925.796875 915.421875 927.886719 919.910156 931.945312 921.390625 C 942.613281 925.269531 962.273438 932.441406 972.941406 936.320312 C 976.996094 937.800781 981.488281 935.710938 982.964844 931.660156 C 985.230469 925.441406 988.453125 916.589844 990.71875 910.371094 "/>
<path fill-rule="evenodd" fill="rgb(0%, 0%, 0%)" fill-opacity="1" d="M 868.121094 2046.683594 C 890.5625 2052.261719 910.460938 2067.453125 927.816406 2078.496094 C 943.226562 2088.296875 970.085938 2100.28125 975.753906 2109.867188 C 979.84375 2116.792969 975.246094 2130.035156 967.472656 2132.09375 C 932.03125 2141.460938 796.460938 2141.566406 765.71875 2123.8125 C 749.335938 2114.351562 777.480469 2046.683594 777.480469 2046.683594 C 777.480469 2046.683594 842.121094 2040.21875 868.121094 2046.683594 "/>
<path fill-rule="evenodd" fill="rgb(0%, 0%, 0%)" fill-opacity="1" d="M 655.585938 2047.183594 C 678.023438 2052.761719 697.925781 2067.953125 715.28125 2078.992188 C 730.691406 2088.792969 757.550781 2100.78125 763.214844 2110.367188 C 767.304688 2117.289062 762.710938 2130.535156 754.933594 2132.589844 C 719.492188 2141.957031 583.921875 2142.066406 553.179688 2124.308594 C 536.800781 2114.847656 564.945312 2047.183594 564.945312 2047.183594 C 564.945312 2047.183594 629.585938 2040.71875 655.585938 2047.183594 "/>
<path fill-rule="evenodd" fill="rgb(14.501953%, 16.088867%, 19.993591%)" fill-opacity="1" d="M 552.195312 1278.011719 C 552.195312 1278.011719 573.113281 1518.03125 573.113281 1640.121094 C 573.113281 1769.398438 556.554688 2049.296875 556.554688 2049.296875 C 596.070312 2063.71875 635.914062 2065.527344 674.644531 2049.296875 C 674.644531 2049.296875 708.050781 1748.261719 719.527344 1672.371094 C 725.875 1630.386719 742.621094 1408.300781 742.621094 1408.300781 C 742.621094 1408.300781 766.96875 1677.796875 769.636719 1720.738281 C 774.359375 1796.632812 769.636719 2049.296875 769.636719 2049.296875 C 807.886719 2062.105469 850.1875 2062.210938 888.164062 2049.296875 C 888.164062 2049.296875 908.210938 1830.882812 908.210938 1720.738281 C 908.210938 1589.285156 888.164062 1260.578125 888.164062 1260.578125 L 818.445312 1177.789062 L 630.195312 1177.789062 L 552.195312 1278.011719 "/>
<path fill-rule="evenodd" fill="rgb(45.896912%, 31.396484%, 12.5%)" fill-opacity="1" d="M 809.554688 507.550781 C 827.363281 505.960938 842.296875 452.191406 834.199219 436.640625 C 815.421875 442.019531 785.890625 431.429688 777.464844 428.339844 C 744.226562 416.171875 735 415.539062 702.167969 421.710938 C 665.394531 428.621094 632.171875 457.621094 629.765625 484.03125 C 627.3125 510.941406 648.386719 568.441406 648.386719 568.441406 L 800.074219 544.238281 C 800.074219 544.238281 808.710938 507.628906 809.554688 507.550781 "/>
<path fill-rule="evenodd" fill="rgb(0%, 0%, 0%)" fill-opacity="1" d="M 668.980469 1210.03125 C 726.644531 1214.980469 801.738281 1213.941406 858.96875 1199.570312 L 837.183594 1142.921875 L 668.980469 1157.308594 L 668.980469 1210.03125 "/>
<path fill-rule="evenodd" fill="rgb(64.256287%, 83.984375%, 89.0625%)" fill-opacity="1" d="M 661.734375 686.140625 L 661.734375 764.25 L 682.925781 1163.839844 C 737.925781 1174.53125 794.726562 1172.640625 848.945312 1161.660156 L 837.617188 867.089844 L 746.546875 692.160156 L 661.734375 686.140625 "/>
<path fill-rule="evenodd" fill="rgb(41.992188%, 60.351562%, 67.771912%)" fill-opacity="1" d="M 661.734375 686.140625 L 678.128906 785.949219 L 703.402344 772.03125 C 703.402344 772.03125 705.4375 780.320312 709.503906 786.820312 C 713.570312 793.328125 726.933594 801.730469 730.855469 799.960938 C 734.777344 798.199219 734.34375 780.660156 734.34375 780.660156 C 734.34375 780.660156 743.203125 795.679688 746.980469 795.679688 C 750.757812 795.679688 756.503906 779.488281 757.003906 772.46875 C 757.511719 765.320312 753.078125 756.578125 753.078125 756.578125 L 774.867188 759.949219 L 746.546875 692.789062 L 661.734375 686.140625 "/>
<path fill-rule="evenodd" fill="rgb(92.1875%, 71.875%, 57.617188%)" fill-opacity="1" d="M 901.671875 1123.75 C 901.671875 1123.75 914.761719 1137.980469 936.53125 1133.339844 C 967.925781 1126.640625 999.066406 1068.699219 1002.328125 1047.488281 C 1003.960938 1036.960938 994.496094 1020.300781 990.132812 1016.558594 C 978.011719 1006.179688 969.550781 1019.710938 971.828125 1029.191406 C 964.21875 1021.070312 952.550781 1032.371094 953.09375 1040.960938 C 946.53125 1037 935.660156 1043.480469 936.53125 1056.640625 C 936.53125 1056.640625 926.570312 1054.839844 922.152344 1062.308594 C 918.019531 1069.300781 922.152344 1084.101562 922.152344 1084.101562 C 922.152344 1084.101562 908.136719 1086.640625 901.671875 1098.910156 C 898.207031 1105.488281 901.671875 1123.75 901.671875 1123.75 "/>
<path fill-rule="evenodd" fill="rgb(93.75%, 96.09375%, 96.09375%)" fill-opacity="1" d="M 746.546875 692.160156 C 746.546875 692.160156 795.195312 866.738281 801.449219 922.429688 C 812.851562 1024 811.90625 1309.820312 811.90625 1309.820312 C 854.117188 1310.71875 896.582031 1310.019531 939.582031 1305.898438 C 939.582031 1305.898438 909.804688 1149.101562 899.492188 1088.890625 C 891.089844 1039.828125 883.125 971.410156 874.21875 922.429688 C 863.617188 864.109375 850.253906 781.640625 828.902344 740.289062 C 814.332031 712.058594 746.546875 692.160156 746.546875 692.160156 "/>
<path fill-rule="evenodd" fill="rgb(0%, 0%, 0%)" fill-opacity="1" d="M 743.652344 691.039062 C 743.652344 691.039062 768.429688 703.601562 780.304688 723.5 C 790.605469 740.761719 798.65625 793.988281 798.65625 793.988281 C 799.191406 797.449219 802.445312 799.828125 805.910156 799.289062 C 809.378906 798.761719 811.753906 795.5 811.214844 792.039062 C 811.214844 792.039062 802.199219 735.390625 791.21875 716.988281 C 777.640625 694.230469 749.433594 679.71875 749.433594 679.71875 C 746.3125 678.128906 742.480469 679.371094 740.886719 682.488281 C 739.289062 685.609375 740.53125 689.441406 743.652344 691.039062 "/>
<path fill-rule="evenodd" fill="rgb(93.75%, 96.09375%, 96.09375%)" fill-opacity="1" d="M 661.734375 686.140625 C 661.734375 686.140625 710.09375 782.871094 718.65625 861.429688 C 729.984375 965.398438 731.292969 1309.820312 731.292969 1309.820312 C 659.921875 1322.148438 588.417969 1322.328125 522.128906 1309.820312 L 536.945312 901.078125 L 661.734375 686.140625 "/>
<path fill-rule="evenodd" fill="rgb(0%, 0%, 0%)" fill-opacity="1" d="M 798.863281 880.660156 C 798.863281 880.660156 786.914062 838.179688 788.996094 824.011719 C 790.703125 812.421875 799.253906 802.550781 807.953125 799.429688 C 816.308594 796.429688 828.953125 798.820312 834.964844 805.859375 C 837.320312 808.621094 839.683594 814.109375 842.023438 820.339844 C 848.101562 836.539062 853.230469 857.691406 853.230469 857.691406 C 854.054688 861.109375 857.496094 863.199219 860.902344 862.371094 C 864.3125 861.550781 866.40625 858.109375 865.578125 854.699219 C 865.578125 854.699219 860.242188 832.71875 853.921875 815.871094 C 850.945312 807.941406 847.628906 801.109375 844.628906 797.601562 C 835.492188 786.910156 816.363281 782.910156 803.660156 787.46875 C 791.296875 791.898438 778.847656 805.691406 776.425781 822.160156 C 774.152344 837.609375 786.605469 884.019531 786.605469 884.019531 C 787.535156 887.410156 791.03125 889.398438 794.417969 888.46875 C 797.796875 887.539062 799.789062 884.039062 798.863281 880.660156 "/>
<path fill-rule="evenodd" fill="rgb(92.1875%, 71.875%, 57.617188%)" fill-opacity="1" d="M 844.152344 923.738281 C 844.152344 923.738281 902.058594 921.519531 928.691406 918.949219 C 961.660156 915.761719 996.726562 889.539062 981.417969 878.421875 C 990.359375 867.558594 984.796875 858.871094 979.238281 859.25 C 990.734375 849.21875 988.40625 828.890625 957.886719 839.199219 C 946.988281 842.890625 916.925781 851.410156 916.925781 851.410156 C 916.925781 851.410156 922.734375 842.46875 916.925781 836.589844 C 913.867188 833.488281 903.894531 834.191406 897.316406 836.589844 C 889.328125 839.5 878.058594 844.640625 866.8125 846.171875 C 855.121094 847.769531 845.160156 840.769531 828.902344 846.171875 C 813.558594 851.28125 801.015625 869.269531 801.015625 869.269531 L 802.757812 911.539062 L 844.152344 923.738281 "/>
<path fill-rule="evenodd" fill="rgb(93.75%, 96.09375%, 96.09375%)" fill-opacity="1" d="M 661.734375 686.140625 C 661.734375 686.140625 538.734375 700.628906 517.335938 793.011719 C 496.445312 883.199219 538.089844 1095.71875 598.820312 1122.011719 C 661.472656 1149.128906 835.40625 919.078125 844.152344 923.738281 C 819.863281 907.53125 813.5625 892.078125 801.015625 869.269531 L 675.515625 953.371094 L 661.734375 686.140625 "/>
<path fill-rule="evenodd" fill="rgb(0%, 0%, 0%)" fill-opacity="1" d="M 664.671875 668.191406 C 664.667969 668.191406 647.097656 669.140625 635.53125 684.691406 C 628.355469 694.328125 623.214844 709.898438 627.414062 735.230469 C 631.480469 759.71875 639.476562 771.078125 649.671875 783.539062 C 655.890625 791.140625 663.011719 799.179688 670.515625 811.558594 C 678.640625 824.949219 690.132812 852.539062 690.132812 852.539062 C 691.480469 855.78125 695.207031 857.308594 698.445312 855.960938 C 701.679688 854.609375 703.210938 850.890625 701.859375 847.648438 C 701.859375 847.648438 689.84375 818.921875 681.386719 804.96875 C 673.496094 791.960938 666.046875 783.480469 659.507812 775.488281 C 650.570312 764.558594 643.515625 754.628906 639.953125 733.148438 C 636.566406 712.71875 639.945312 700.058594 645.730469 692.28125 C 653.59375 681.699219 665.441406 680.871094 665.441406 680.871094 C 668.945312 680.660156 671.613281 677.640625 671.398438 674.140625 C 671.1875 670.640625 668.175781 667.96875 664.671875 668.191406 "/>
<path fill-rule="evenodd" fill="rgb(92.1875%, 71.875%, 57.617188%)" fill-opacity="1" d="M 744.050781 591.761719 L 661.734375 594.089844 L 661.734375 686.140625 C 661.734375 686.140625 720.8125 769.851562 729.273438 768.121094 C 736.046875 766.738281 746.546875 692.160156 746.546875 692.160156 L 744.050781 591.761719 "/>
<path fill-rule="evenodd" fill="rgb(92.1875%, 71.875%, 57.617188%)" fill-opacity="1" d="M 669.308594 551.988281 C 672.003906 521.828125 676.378906 495.46875 678.898438 495.859375 C 684.128906 496.660156 767.226562 517.828125 810.714844 497.308594 C 810.714844 497.308594 816.347656 510.910156 816.644531 518.109375 C 817.445312 537.621094 821.246094 588.570312 815.535156 614.378906 C 810.671875 636.359375 795.597656 659.539062 782.390625 672.949219 C 773.894531 681.558594 733.324219 686.011719 725.796875 682.648438 C 708.324219 674.839844 675.132812 652.238281 669.507812 629.828125 C 667.796875 623.011719 667.046875 612.71875 666.96875 600.808594 C 663.605469 601.03125 660.117188 600.640625 656.675781 599.539062 C 642.847656 595.128906 634.972656 581.039062 639.101562 568.089844 C 643 555.871094 656.210938 549.011719 669.308594 551.988281 "/>
<path fill-rule="evenodd" fill="rgb(100%, 100%, 100%)" fill-opacity="1" d="M 701.445312 849.660156 C 712.628906 849.660156 721.703125 858.738281 721.703125 869.921875 C 721.703125 881.109375 712.628906 890.191406 701.445312 890.191406 C 690.261719 890.191406 681.179688 881.109375 681.179688 869.921875 C 681.179688 858.738281 690.261719 849.660156 701.445312 849.660156 "/>
<path fill-rule="evenodd" fill="rgb(69.726562%, 71.484375%, 71.484375%)" fill-opacity="1" d="M 701.445312 843.308594 C 686.753906 843.308594 674.824219 855.230469 674.824219 869.921875 C 674.824219 884.609375 686.753906 896.539062 701.445312 896.539062 C 716.132812 896.539062 728.058594 884.609375 728.058594 869.921875 C 728.058594 855.230469 716.132812 843.308594 701.445312 843.308594 Z M 701.445312 856.019531 C 709.117188 856.019531 715.351562 862.25 715.351562 869.921875 C 715.351562 877.601562 709.117188 883.828125 701.445312 883.828125 C 693.765625 883.828125 687.535156 877.601562 687.535156 869.921875 C 687.535156 862.25 693.765625 856.019531 701.445312 856.019531 "/>
<path fill-rule="evenodd" fill="rgb(26.708984%, 21.604919%, 16.50238%)" fill-opacity="1" d="M 1477.738281 1103.710938 L 1477.738281 1033.550781 L 1405.410156 936.808594 C 1365.289062 934.300781 1376.609375 780.5 1447.679688 793.878906 C 1518.769531 762.320312 1587.789062 798.828125 1581.449219 898.03125 C 1581.449219 898.03125 1604.03125 924.359375 1615.878906 929.839844 C 1633.160156 937.828125 1665.191406 931.871094 1686.039062 947.710938 C 1703.710938 961.128906 1706.589844 998.429688 1725.25 1010.460938 C 1751.621094 1027.449219 1795.21875 1031.761719 1791.921875 1071.019531 C 1787.800781 1120.140625 1731.351562 1115.910156 1731.351562 1115.910156 L 1477.738281 1103.710938 "/>
<path fill-rule="evenodd" fill="rgb(50.584412%, 34.104919%, 20.800781%)" fill-opacity="1" d="M 1813.710938 1386.511719 C 1813.710938 1386.511719 1861.859375 1422.320312 1868.621094 1491.53125 C 1871.929688 1525.488281 1861.980469 1583.269531 1823.730469 1604.828125 C 1763.949219 1638.53125 1556.378906 1702.433594 1543.980469 1732.066406 C 1526.691406 1773.367188 1534.828125 2039.710938 1534.828125 2039.710938 C 1496.480469 2051.976562 1462.78125 2053.019531 1435.039062 2039.710938 L 1395.820312 1746.449219 C 1395.820312 1746.449219 1373.671875 1757.789062 1364.878906 1800.480469 C 1354.859375 1849.199219 1340.480469 2029.691406 1340.480469 2029.691406 C 1309.910156 2039.324219 1280.800781 2040.523438 1253.761719 2029.691406 C 1253.761719 2029.691406 1220.648438 1770.632812 1253.761719 1671.0625 C 1290.929688 1559.328125 1611.960938 1429.21875 1611.960938 1429.21875 L 1813.710938 1386.511719 "/>
<path fill-rule="evenodd" fill="rgb(92.576599%, 71.875%, 33.300781%)" fill-opacity="1" d="M 1518.828125 1056.308594 L 1472.078125 1220.929688 C 1472.078125 1220.929688 1471.910156 1252.519531 1483.410156 1275.390625 C 1490.941406 1290.390625 1521.511719 1315.75 1530.589844 1329.859375 C 1547.878906 1356.738281 1570.390625 1433.140625 1570.390625 1433.140625 C 1602.339844 1475.671875 1758.078125 1459.660156 1813.710938 1386.511719 L 1778.03125 1311.371094 L 1577.800781 1037.011719 L 1518.828125 1056.308594 "/>
<path fill-rule="evenodd" fill="rgb(81.25%, 58.006287%, 34.49707%)" fill-opacity="1" d="M 1378.390625 1375.179688 C 1378.390625 1375.179688 1365.238281 1499.519531 1399.308594 1508.523438 C 1433.371094 1517.53125 1582.761719 1429.21875 1582.761719 1429.21875 C 1582.761719 1429.21875 1637.441406 1364.019531 1628.519531 1356.449219 C 1620.828125 1349.921875 1603.238281 1374.75 1603.238281 1374.75 C 1603.238281 1374.75 1622.640625 1342.410156 1612.828125 1339.449219 C 1602.039062 1336.199219 1585.808594 1374.75 1585.808594 1374.75 C 1585.808594 1374.75 1604.929688 1333.171875 1595.398438 1330.300781 C 1582.148438 1326.320312 1568.820312 1374.75 1568.820312 1374.75 C 1568.820312 1374.75 1574.71875 1337.96875 1561.410156 1339.449219 C 1555.03125 1340.160156 1551.101562 1373.851562 1542.671875 1383.03125 C 1538.921875 1387.109375 1531.671875 1395.601562 1522.738281 1399.398438 C 1501.878906 1408.269531 1473.820312 1410.910156 1473.820312 1410.910156 L 1478.179688 1368.210938 L 1378.390625 1375.179688 "/>
<path fill-rule="evenodd" fill="rgb(81.25%, 58.006287%, 34.49707%)" fill-opacity="1" d="M 1815.890625 1225.28125 C 1815.890625 1225.28125 1851.878906 1313.148438 1829.398438 1338.140625 C 1796.210938 1375.039062 1621.539062 1448.390625 1621.539062 1448.390625 C 1621.539062 1448.390625 1581.050781 1475.429688 1559.671875 1480.199219 C 1530.691406 1486.660156 1499.660156 1480.269531 1492.121094 1471.921875 C 1485.019531 1464.050781 1492.121094 1461.898438 1492.121094 1461.898438 C 1479.738281 1457.371094 1478.519531 1445.949219 1484.28125 1443.160156 C 1474.058594 1435.671875 1477.089844 1424.160156 1484.28125 1424.859375 C 1484.28125 1424.859375 1472.828125 1416.339844 1476.441406 1408.300781 C 1480.089844 1400.140625 1506.800781 1409.03125 1518.699219 1411.351562 C 1529.890625 1413.53125 1553.558594 1411.351562 1553.558594 1411.351562 C 1553.558594 1411.351562 1530.429688 1388.839844 1537.878906 1383.898438 C 1546.390625 1378.238281 1576.050781 1404.480469 1591.910156 1397.410156 C 1620.890625 1384.480469 1698.011719 1329.660156 1715.230469 1307.210938 C 1720.410156 1300.441406 1704.339844 1270.171875 1704.339844 1270.171875 L 1815.890625 1225.28125 "/>
<path fill-rule="evenodd" fill="rgb(92.576599%, 71.875%, 33.300781%)" fill-opacity="1" d="M 1577.800781 1037.011719 C 1676.210938 1027.960938 1756.390625 1091.871094 1815.890625 1225.28125 C 1784.75 1253.191406 1746.808594 1274.488281 1700.421875 1287.601562 L 1577.800781 1037.011719 "/>
<path fill-rule="evenodd" fill="rgb(92.576599%, 71.875%, 33.300781%)" fill-opacity="1" d="M 1518.828125 1056.308594 C 1518.828125 1056.308594 1440.179688 1101.960938 1412.378906 1162.539062 C 1388.160156 1215.308594 1378.390625 1375.179688 1378.390625 1375.179688 C 1419.039062 1380.449219 1458.191406 1380.21875 1496.039062 1375.179688 L 1508.679688 1288.03125 L 1518.828125 1056.308594 "/>
<path fill-rule="evenodd" fill="rgb(81.25%, 58.006287%, 34.49707%)" fill-opacity="1" d="M 1548.648438 947.96875 L 1489.671875 967.28125 L 1518.828125 1056.308594 C 1518.929688 1086.589844 1538.820312 1131.480469 1548.648438 1128.261719 C 1558.480469 1125.039062 1565.441406 1072.511719 1577.800781 1037.011719 L 1548.648438 947.96875 "/>
<path fill-rule="evenodd" fill="rgb(81.25%, 58.006287%, 34.49707%)" fill-opacity="1" d="M 1550.539062 961.910156 C 1546.550781 1006.101562 1523.839844 1040.640625 1491.941406 1045.320312 C 1451.261719 1051.300781 1410.929688 1006.460938 1401.941406 945.25 C 1401.089844 939.441406 1400.550781 933.691406 1400.300781 928.039062 C 1397.96875 874.121094 1452.398438 828.308594 1452.398438 828.308594 C 1452.398438 828.308594 1492.890625 878.648438 1548.039062 915.761719 C 1548.789062 915.351562 1549.558594 914.949219 1550.351562 914.578125 C 1565.390625 907.550781 1582.25 911.800781 1587.988281 924.070312 C 1593.738281 936.339844 1586.191406 952.011719 1571.160156 959.039062 C 1564.25 962.269531 1556.960938 963.121094 1550.539062 961.910156 "/>
<path fill-rule="evenodd" fill="rgb(100%, 100%, 100%)" fill-opacity="1" d="M 729.28125 631.140625 C 728.089844 631.179688 726.980469 631.761719 726.28125 632.730469 C 725.578125 633.699219 725.367188 634.941406 725.707031 636.078125 C 728.496094 645.339844 742.679688 652.011719 754.160156 651.671875 C 765.636719 651.320312 770.683594 644.078125 772.910156 634.660156 C 773.179688 633.5 772.894531 632.28125 772.136719 631.359375 C 771.382812 630.429688 770.238281 629.910156 769.046875 629.949219 C 762.074219 630.160156 749.164062 630.539062 749.164062 630.539062 C 749.164062 630.539062 736.257812 630.929688 729.28125 631.140625 "/>
<path fill-rule="evenodd" fill="rgb(76.5625%, 47.801208%, 28.588867%)" fill-opacity="1" d="M 656.421875 568.160156 C 660.003906 571.378906 662.074219 574.359375 662.804688 576.988281 C 663.253906 578.601562 663.144531 579.980469 662.367188 580.980469 C 660.953125 582.789062 658.050781 583.171875 654.632812 582.378906 C 652.679688 581.941406 650.730469 583.160156 650.28125 585.109375 C 649.835938 587.070312 651.058594 589.011719 653.011719 589.460938 C 661.253906 591.359375 667.53125 588.089844 669.585938 582.828125 C 671.441406 578.058594 669.992188 570.589844 661.273438 562.761719 C 659.785156 561.421875 657.488281 561.539062 656.148438 563.03125 C 654.808594 564.519531 654.933594 566.820312 656.421875 568.160156 "/>
<path fill-rule="evenodd" fill="rgb(45.896912%, 31.396484%, 12.5%)" fill-opacity="1" d="M 729.816406 544.859375 C 735.851562 546.160156 741.425781 550.578125 741.425781 550.578125 C 743.394531 552.128906 746.246094 551.789062 747.796875 549.820312 C 749.34375 547.851562 749.003906 544.988281 747.035156 543.449219 C 747.035156 543.449219 739.527344 537.589844 731.5 535.929688 C 729.710938 535.558594 725.367188 536.191406 720.238281 537.679688 C 710.390625 540.53125 696.777344 545.871094 696.777344 545.871094 C 694.445312 546.789062 693.296875 549.421875 694.210938 551.761719 C 695.128906 554.089844 697.765625 555.238281 700.09375 554.320312 C 700.09375 554.320312 713.246094 549.160156 722.769531 546.398438 C 725.695312 545.550781 729.421875 544.921875 729.816406 544.859375 "/>
<path fill-rule="evenodd" fill="rgb(45.896912%, 31.396484%, 12.5%)" fill-opacity="1" d="M 774.960938 550.578125 C 774.960938 550.578125 789.886719 546.03125 795.050781 546.359375 C 796.121094 546.429688 797.480469 547.460938 798.855469 548.410156 C 801.796875 550.429688 804.441406 552.890625 804.441406 552.890625 C 806.277344 554.589844 809.152344 554.480469 810.855469 552.648438 C 812.5625 550.808594 812.453125 547.941406 810.617188 546.230469 C 810.617188 546.230469 806.300781 542.230469 802.148438 539.730469 C 799.800781 538.308594 797.433594 537.421875 795.632812 537.300781 C 789.671875 536.921875 772.390625 541.878906 772.390625 541.878906 C 769.988281 542.589844 768.613281 545.109375 769.320312 547.519531 C 770.03125 549.921875 772.558594 551.289062 774.960938 550.578125 "/>
<path fill-rule="evenodd" fill="rgb(76.5625%, 47.801208%, 28.588867%)" fill-opacity="1" d="M 757.808594 567.910156 C 757.808594 567.910156 769.378906 590.238281 772.730469 599.828125 C 773.285156 601.410156 773.382812 602.761719 773.058594 603.910156 C 772.574219 605.640625 771.203125 606.839844 769.722656 607.761719 C 767.65625 609.03125 765.273438 609.71875 763.601562 610.011719 C 761.625 610.359375 760.304688 612.238281 760.648438 614.210938 C 760.992188 616.191406 762.875 617.511719 764.851562 617.171875 C 771.363281 616.03125 784.128906 610.421875 779.585938 597.429688 C 776.136719 587.570312 764.261719 564.570312 764.261719 564.570312 C 763.339844 562.789062 761.148438 562.089844 759.367188 563.011719 C 757.585938 563.941406 756.890625 566.128906 757.808594 567.910156 "/>
<path fill-rule="evenodd" fill="rgb(14.501953%, 16.088867%, 19.993591%)" fill-opacity="1" d="M 732.300781 564.738281 C 736 565.03125 738.628906 570.019531 738.164062 575.878906 C 737.699219 581.730469 734.320312 586.25 730.621094 585.960938 C 726.921875 585.660156 724.296875 580.671875 724.757812 574.820312 C 725.222656 568.960938 728.601562 564.449219 732.300781 564.738281 "/>
<path fill-rule="evenodd" fill="rgb(14.501953%, 16.088867%, 19.993591%)" fill-opacity="1" d="M 794.371094 565.261719 C 798.070312 565.550781 800.695312 570.539062 800.234375 576.390625 C 799.769531 582.25 796.390625 586.761719 792.691406 586.46875 C 788.992188 586.179688 786.367188 581.191406 786.828125 575.328125 C 787.292969 569.480469 790.671875 564.960938 794.371094 565.261719 "/>
<path fill-rule="evenodd" fill="rgb(76.5625%, 47.801208%, 28.588867%)" fill-opacity="1" d="M 741.226562 682.339844 C 741.226562 682.339844 736.988281 682.878906 732.394531 682.519531 C 729.703125 682.308594 726.847656 681.851562 724.894531 680.558594 C 713.320312 672.910156 685.328125 646.941406 676.648438 634.390625 C 674.664062 631.519531 673.863281 626.761719 673.441406 622.128906 C 672.746094 614.480469 673.351562 607.058594 673.351562 607.058594 C 673.511719 605.058594 672.023438 603.308594 670.023438 603.140625 C 668.027344 602.980469 666.273438 604.46875 666.109375 606.46875 C 666.109375 606.46875 665.222656 617.449219 666.71875 626.980469 C 667.429688 631.5 668.710938 635.679688 670.675781 638.519531 C 679.714844 651.578125 708.835938 678.660156 720.890625 686.621094 C 723.761719 688.519531 727.878906 689.449219 731.828125 689.761719 C 737.195312 690.179688 742.148438 689.539062 742.148438 689.539062 C 744.136719 689.28125 745.542969 687.460938 745.289062 685.480469 C 745.03125 683.488281 743.214844 682.078125 741.226562 682.339844 "/>
<path fill-rule="evenodd" fill="rgb(27.806091%, 18.406677%, 7.495117%)" fill-opacity="1" d="M 700.488281 494.609375 C 707.550781 491.378906 712.171875 486.148438 715.589844 479.28125 C 716.480469 477.480469 715.746094 475.300781 713.953125 474.410156 C 712.160156 473.519531 709.976562 474.25 709.085938 476.039062 C 706.4375 481.371094 702.941406 485.5 697.46875 488 C 695.644531 488.839844 694.84375 490.988281 695.675781 492.808594 C 696.507812 494.640625 698.664062 495.441406 700.488281 494.609375 "/>
<path fill-rule="evenodd" fill="rgb(27.806091%, 18.406677%, 7.495117%)" fill-opacity="1" d="M 727.558594 497.578125 C 733.433594 492.679688 741.183594 484.761719 743.277344 477.089844 C 743.804688 475.160156 742.664062 473.160156 740.730469 472.628906 C 738.796875 472.109375 736.800781 473.25 736.273438 475.179688 C 734.527344 481.558594 727.796875 487.929688 722.90625 492.011719 C 721.367188 493.289062 721.160156 495.578125 722.445312 497.121094 C 723.726562 498.660156 726.019531 498.871094 727.558594 497.578125 "/>
<path fill-rule="evenodd" fill="rgb(27.806091%, 18.406677%, 7.495117%)" fill-opacity="1" d="M 749.363281 501.679688 C 758.613281 497.210938 765.125 486.398438 768.410156 477.03125 C 769.074219 475.140625 768.078125 473.070312 766.1875 472.410156 C 764.296875 471.738281 762.222656 472.738281 761.558594 474.628906 C 758.855469 482.339844 753.816406 491.46875 746.203125 495.140625 C 744.398438 496.011719 743.640625 498.191406 744.515625 499.988281 C 745.386719 501.789062 747.558594 502.550781 749.363281 501.679688 "/>
<path fill-rule="evenodd" fill="rgb(27.806091%, 18.406677%, 7.495117%)" fill-opacity="1" d="M 779.0625 500.050781 C 785.835938 494.71875 789.851562 487.691406 792.148438 479.441406 C 792.6875 477.511719 791.554688 475.511719 789.625 474.96875 C 787.691406 474.441406 785.691406 475.570312 785.152344 477.5 C 783.28125 484.21875 780.09375 490 774.574219 494.339844 C 773 495.578125 772.726562 497.859375 773.964844 499.441406 C 775.203125 501.011719 777.488281 501.289062 779.0625 500.050781 "/>
<path fill-rule="evenodd" fill="rgb(27.806091%, 18.406677%, 7.495117%)" fill-opacity="1" d="M 807.015625 493.148438 C 811.160156 488.429688 813.628906 483.441406 814.695312 477.230469 C 815.03125 475.25 813.703125 473.371094 811.726562 473.039062 C 809.753906 472.699219 807.875 474.03125 807.535156 476 C 806.710938 480.828125 804.777344 484.691406 801.558594 488.359375 C 800.234375 489.859375 800.382812 492.160156 801.890625 493.480469 C 803.394531 494.808594 805.691406 494.660156 807.015625 493.148438 "/>
<path fill-rule="evenodd" fill="rgb(69.726562%, 71.484375%, 71.484375%)" fill-opacity="1" d="M 536.398438 1005.738281 C 536.398438 1005.738281 542.65625 1049.671875 561.410156 1083.710938 C 574.429688 1107.339844 593.496094 1126.019531 620.03125 1123.878906 C 639.246094 1122.339844 667.390625 1104.128906 697.160156 1079.03125 C 765.125 1021.730469 842.582031 929.121094 842.582031 929.121094 C 843.867188 927.578125 843.660156 925.289062 842.125 924.011719 C 840.589844 922.71875 838.296875 922.921875 837.011719 924.460938 C 837.011719 924.460938 760.03125 1016.519531 692.480469 1073.480469 C 664.175781 1097.339844 637.71875 1115.171875 619.445312 1116.648438 C 595.835938 1118.550781 579.355469 1101.230469 567.773438 1080.199219 C 549.617188 1047.25 543.589844 1004.710938 543.589844 1004.710938 C 543.308594 1002.730469 541.46875 1001.351562 539.484375 1001.628906 C 537.5 1001.910156 536.117188 1003.75 536.398438 1005.738281 "/>
<path fill-rule="evenodd" fill="rgb(69.726562%, 71.484375%, 71.484375%)" fill-opacity="1" d="M 677.820312 952.578125 L 666.929688 841.898438 C 666.730469 839.898438 664.953125 838.441406 662.960938 838.640625 C 660.964844 838.839844 659.503906 840.609375 659.699219 842.609375 L 670.59375 953.289062 C 670.789062 955.289062 672.570312 956.738281 674.5625 956.550781 C 676.558594 956.351562 678.019531 954.570312 677.820312 952.578125 "/>
<path fill-rule="evenodd" fill="rgb(69.726562%, 71.484375%, 71.484375%)" fill-opacity="1" d="M 649.480469 793.839844 C 634.285156 767 601.734375 741.910156 564.417969 756.058594 C 562.542969 756.769531 561.597656 758.871094 562.308594 760.75 C 563.019531 762.621094 565.121094 763.570312 566.992188 762.859375 C 600.527344 750.128906 629.507812 773.300781 643.160156 797.421875 C 644.148438 799.160156 646.363281 799.769531 648.109375 798.789062 C 649.855469 797.800781 650.46875 795.578125 649.480469 793.839844 "/>
<path fill-rule="evenodd" fill="rgb(69.726562%, 71.484375%, 71.484375%)" fill-opacity="1" d="M 869.769531 932.199219 L 903.324219 1128.289062 C 903.65625 1130.261719 905.539062 1131.589844 907.511719 1131.25 C 909.488281 1130.910156 910.820312 1129.039062 910.480469 1127.058594 L 876.929688 930.96875 C 876.589844 928.988281 874.710938 927.671875 872.738281 928.011719 C 870.761719 928.339844 869.433594 930.21875 869.769531 932.199219 "/>
<path fill-rule="evenodd" fill="rgb(0%, 0%, 0%)" fill-opacity="1" d="M 748.820312 1403.640625 L 755.359375 1362.679688 C 755.675781 1360.699219 754.324219 1358.839844 752.34375 1358.519531 C 750.363281 1358.210938 748.503906 1359.558594 748.1875 1361.539062 L 741.648438 1402.5 C 741.335938 1404.480469 742.683594 1406.339844 744.664062 1406.660156 C 746.644531 1406.96875 748.507812 1405.621094 748.820312 1403.640625 "/>
<path fill-rule="evenodd" fill="rgb(69.726562%, 71.484375%, 71.484375%)" fill-opacity="1" d="M 647.53125 978.128906 L 720.304688 927.148438 C 721.945312 926 722.34375 923.730469 721.195312 922.089844 C 720.042969 920.449219 717.777344 920.050781 716.136719 921.199219 L 643.363281 972.191406 C 641.722656 973.328125 641.324219 975.601562 642.472656 977.238281 C 643.625 978.878906 645.890625 979.28125 647.53125 978.128906 "/>
<path fill-rule="evenodd" fill="rgb(69.726562%, 71.484375%, 71.484375%)" fill-opacity="1" d="M 684.410156 1159.480469 C 684.410156 1156.980469 682.378906 1154.941406 679.875 1154.941406 L 581.390625 1154.941406 C 578.886719 1154.941406 576.855469 1156.980469 576.855469 1159.480469 C 576.855469 1159.480469 576.855469 1191.460938 576.855469 1220.910156 C 576.855469 1234.941406 582.429688 1248.410156 592.355469 1258.328125 C 602.28125 1268.261719 615.742188 1273.828125 629.78125 1273.828125 C 630.347656 1273.828125 630.917969 1273.828125 631.484375 1273.828125 C 645.523438 1273.828125 658.984375 1268.261719 668.910156 1258.328125 C 678.835938 1248.410156 684.410156 1234.941406 684.410156 1220.910156 Z M 675.335938 1164.019531 L 675.335938 1220.910156 C 675.335938 1232.539062 670.714844 1243.691406 662.488281 1251.910156 C 654.265625 1260.128906 643.113281 1264.761719 631.484375 1264.761719 C 630.917969 1264.761719 630.347656 1264.761719 629.78125 1264.761719 C 618.152344 1264.761719 607 1260.128906 598.773438 1251.910156 C 590.550781 1243.691406 585.933594 1232.539062 585.933594 1220.910156 L 585.933594 1164.019531 L 675.335938 1164.019531 "/>
<path fill-rule="evenodd" fill="rgb(69.726562%, 71.484375%, 71.484375%)" fill-opacity="1" d="M 903.496094 1154.941406 L 848.945312 1154.941406 C 846.441406 1154.941406 844.40625 1156.980469 844.40625 1159.480469 L 844.40625 1220.910156 C 844.40625 1234.941406 849.984375 1248.410156 859.910156 1258.328125 C 869.835938 1268.261719 883.296875 1273.828125 897.335938 1273.828125 C 897.902344 1273.828125 898.46875 1273.828125 899.039062 1273.828125 C 908.46875 1273.828125 917.636719 1271.320312 925.652344 1266.660156 C 927.816406 1265.398438 928.554688 1262.609375 927.292969 1260.449219 C 926.03125 1258.289062 923.253906 1257.550781 921.085938 1258.808594 C 914.449219 1262.671875 906.851562 1264.761719 899.039062 1264.761719 C 898.46875 1264.761719 897.902344 1264.761719 897.335938 1264.761719 C 885.707031 1264.761719 874.554688 1260.128906 866.328125 1251.910156 C 858.105469 1243.691406 853.484375 1232.539062 853.484375 1220.910156 L 853.484375 1164.019531 L 903.496094 1164.019531 C 905.996094 1164.019531 908.03125 1161.988281 908.03125 1159.480469 C 908.03125 1156.980469 905.996094 1154.941406 903.496094 1154.941406 "/>
<path fill-rule="evenodd" fill="rgb(14.501953%, 16.088867%, 19.993591%)" fill-opacity="1" d="M 905.558594 935.710938 C 908.480469 935.808594 911.808594 935.589844 914.5625 936.699219 C 915.601562 937.121094 916.324219 937.949219 917.1875 938.589844 C 918.308594 939.421875 919.527344 940.109375 921.027344 940.460938 C 922.863281 940.898438 924.90625 940.851562 926.929688 940.839844 C 928.117188 940.828125 929.300781 940.769531 930.316406 941.21875 C 931.410156 941.699219 932.039062 942.851562 932.875 943.75 C 934.03125 945 935.324219 946.078125 936.941406 946.710938 C 939.3125 947.640625 941.863281 947.738281 944.421875 947.761719 C 946.105469 947.769531 947.792969 947.699219 949.34375 948.28125 C 950.1875 948.601562 950.804688 949.300781 951.488281 949.910156 C 952.363281 950.691406 953.261719 951.429688 954.261719 951.988281 C 957.140625 953.621094 960.546875 953.628906 963.691406 954.289062 C 964.570312 954.46875 965.378906 954.890625 966.21875 955.171875 C 967.253906 955.519531 968.308594 955.738281 969.425781 955.730469 C 971.429688 955.710938 973.039062 954.058594 973.015625 952.058594 C 972.992188 950.058594 971.34375 948.449219 969.34375 948.46875 C 968.757812 948.480469 968.242188 948.191406 967.707031 947.988281 C 966.882812 947.671875 966.050781 947.359375 965.183594 947.179688 C 962.746094 946.671875 960.054688 946.921875 957.824219 945.671875 C 956.851562 945.121094 956.078125 944.238281 955.207031 943.519531 C 954.199219 942.671875 953.121094 941.941406 951.898438 941.480469 C 949.953125 940.761719 947.886719 940.558594 945.789062 940.511719 C 943.6875 940.46875 941.53125 940.710938 939.578125 939.941406 C 938.46875 939.511719 937.859375 938.421875 937.078125 937.558594 C 935.964844 936.320312 934.746094 935.238281 933.257812 934.578125 C 931.652344 933.871094 929.859375 933.621094 928 933.578125 C 926.214844 933.539062 924.347656 933.789062 922.707031 933.398438 C 921.78125 933.179688 921.199219 932.511719 920.527344 931.980469 C 919.539062 931.191406 918.507812 930.460938 917.28125 929.96875 C 913.761719 928.550781 909.546875 928.578125 905.820312 928.449219 C 903.816406 928.378906 902.132812 929.949219 902.058594 931.949219 C 901.988281 933.960938 903.558594 935.640625 905.558594 935.710938 "/>
<path fill-rule="evenodd" fill="rgb(14.501953%, 16.088867%, 19.993591%)" fill-opacity="1" d="M 898.183594 960.671875 C 900.203125 960.421875 902.566406 960.261719 904.8125 960.578125 C 906.570312 960.828125 908.28125 961.359375 909.492188 962.621094 C 910.546875 963.71875 911.078125 965.089844 911.78125 966.320312 C 913.003906 968.449219 914.503906 970.320312 917.140625 971.5 C 919.746094 972.660156 922.59375 972.820312 925.492188 972.710938 C 927.570312 972.628906 929.671875 972.378906 931.632812 972.710938 C 933.523438 973.019531 935 974.300781 936.585938 975.378906 C 938.226562 976.5 939.914062 977.539062 941.792969 978.140625 C 943.738281 978.769531 945.671875 978.820312 947.605469 978.671875 C 949.441406 978.53125 951.273438 978.070312 953.113281 978.511719 C 955.378906 979.039062 957.054688 980.46875 958.808594 981.730469 C 961.441406 983.628906 964.167969 985.320312 967.765625 985.730469 C 969.753906 985.949219 971.554688 984.519531 971.777344 982.519531 C 972.003906 980.53125 970.566406 978.730469 968.578125 978.511719 C 965.738281 978.191406 963.847656 976.390625 961.761719 974.910156 C 959.667969 973.410156 957.472656 972.078125 954.789062 971.441406 C 952.917969 971 951.058594 971.050781 949.191406 971.21875 C 947.472656 971.378906 945.75 971.789062 944.023438 971.230469 C 941.996094 970.570312 940.355469 969.101562 938.574219 967.960938 C 936.792969 966.808594 934.925781 965.890625 932.828125 965.539062 C 930.394531 965.140625 927.789062 965.351562 925.207031 965.449219 C 923.445312 965.519531 921.6875 965.578125 920.09375 964.871094 C 918.71875 964.25 918.246094 963.03125 917.632812 961.890625 C 916.824219 960.390625 915.980469 958.890625 914.734375 957.589844 C 910.40625 953.089844 902.933594 952.761719 897.28125 953.46875 C 895.289062 953.71875 893.878906 955.539062 894.128906 957.519531 C 894.378906 959.511719 896.195312 960.921875 898.183594 960.671875 "/>
<path fill-rule="evenodd" fill="rgb(14.501953%, 16.088867%, 19.993591%)" fill-opacity="1" d="M 898.503906 991.960938 C 900.65625 992.140625 903.023438 992.050781 905.355469 992.160156 C 907.136719 992.238281 908.898438 992.421875 910.425781 993.171875 C 912.460938 994.179688 913.910156 996.011719 915.507812 997.589844 C 917.0625 999.128906 918.703125 1000.5 920.625 1001.378906 C 922.148438 1002.078125 923.75 1002.398438 925.386719 1002.570312 C 927.015625 1002.75 928.6875 1002.710938 930.253906 1003.210938 C 932.160156 1003.828125 934.210938 1002.78125 934.824219 1000.871094 C 935.4375 998.960938 934.386719 996.910156 932.480469 996.300781 C 931.015625 995.828125 929.492188 995.640625 927.960938 995.511719 C 926.492188 995.390625 925.003906 995.398438 923.648438 994.78125 C 922.117188 994.078125 920.949219 992.78125 919.71875 991.519531 C 917.886719 989.660156 915.988281 987.820312 913.636719 986.660156 C 909.308594 984.519531 903.753906 985.109375 899.097656 984.71875 C 897.101562 984.558594 895.34375 986.050781 895.183594 988.039062 C 895.015625 990.039062 896.503906 991.800781 898.503906 991.960938 "/>
<path fill-rule="evenodd" fill="rgb(14.501953%, 16.088867%, 19.993591%)" fill-opacity="1" d="M 904.574219 1017.46875 C 908.773438 1017.980469 911.027344 1020.210938 914.675781 1021.980469 C 916.855469 1023.039062 919.351562 1023.140625 921.671875 1023.730469 C 924.703125 1024.5 926.992188 1025.609375 930.171875 1025.558594 C 932.175781 1025.519531 933.773438 1023.871094 933.738281 1021.859375 C 933.699219 1019.859375 932.046875 1018.261719 930.039062 1018.300781 C 927.566406 1018.339844 925.828125 1017.289062 923.464844 1016.691406 C 921.609375 1016.21875 919.582031 1016.289062 917.84375 1015.449219 C 913.414062 1013.300781 910.546875 1010.878906 905.453125 1010.261719 C 903.46875 1010.019531 901.652344 1011.441406 901.410156 1013.429688 C 901.171875 1015.421875 902.589844 1017.230469 904.574219 1017.46875 "/>
<path fill-rule="evenodd" fill="rgb(76.5625%, 47.801208%, 28.588867%)" fill-opacity="1" d="M 914.066406 854.128906 C 907.609375 860.898438 890.929688 868.820312 872.214844 874.96875 C 870.308594 875.601562 869.273438 877.648438 869.898438 879.558594 C 870.523438 881.460938 872.578125 882.5 874.484375 881.871094 C 894.605469 875.25 912.382812 866.421875 919.324219 859.140625 C 920.707031 857.691406 920.652344 855.390625 919.203125 854.011719 C 917.75 852.621094 915.449219 852.679688 914.066406 854.128906 "/>
<path fill-rule="evenodd" fill="rgb(76.5625%, 47.801208%, 28.588867%)" fill-opacity="1" d="M 976.230469 861.269531 C 955.152344 872.421875 936.199219 876.640625 918.160156 879.179688 C 916.175781 879.460938 914.792969 881.300781 915.070312 883.289062 C 915.351562 885.269531 917.191406 886.660156 919.175781 886.371094 C 937.960938 883.71875 957.679688 879.300781 979.628906 867.691406 C 981.398438 866.75 982.078125 864.550781 981.140625 862.78125 C 980.203125 861.011719 978.003906 860.328125 976.230469 861.269531 "/>
<path fill-rule="evenodd" fill="rgb(76.5625%, 47.801208%, 28.588867%)" fill-opacity="1" d="M 976.4375 881.011719 C 959.058594 891.890625 940.195312 897.851562 919.8125 898.761719 C 917.8125 898.851562 916.257812 900.550781 916.34375 902.550781 C 916.4375 904.550781 918.132812 906.109375 920.136719 906.011719 C 941.789062 905.050781 961.832031 898.730469 980.292969 887.160156 C 981.992188 886.101562 982.507812 883.859375 981.445312 882.160156 C 980.378906 880.460938 978.136719 879.941406 976.4375 881.011719 "/>
<path fill-rule="evenodd" fill="rgb(76.5625%, 47.801208%, 28.588867%)" fill-opacity="1" d="M 974.382812 1032.519531 C 979.851562 1038.488281 983.808594 1044.570312 985.285156 1050.929688 C 985.742188 1052.878906 987.695312 1054.101562 989.648438 1053.648438 C 991.597656 1053.191406 992.816406 1051.238281 992.363281 1049.289062 C 990.628906 1041.828125 986.148438 1034.609375 979.738281 1027.609375 C 978.382812 1026.128906 976.085938 1026.03125 974.605469 1027.390625 C 973.128906 1028.738281 973.027344 1031.039062 974.382812 1032.519531 "/>
<path fill-rule="evenodd" fill="rgb(76.5625%, 47.801208%, 28.588867%)" fill-opacity="1" d="M 956.027344 1046.398438 C 961.445312 1052.578125 964.640625 1061.199219 965.152344 1072.929688 C 965.238281 1074.929688 966.933594 1076.480469 968.9375 1076.398438 C 970.941406 1076.308594 972.496094 1074.609375 972.40625 1072.609375 C 971.808594 1058.871094 967.835938 1048.859375 961.488281 1041.609375 C 960.164062 1040.109375 957.871094 1039.960938 956.363281 1041.28125 C 954.855469 1042.601562 954.703125 1044.898438 956.027344 1046.398438 "/>
<path fill-rule="evenodd" fill="rgb(76.5625%, 47.801208%, 28.588867%)" fill-opacity="1" d="M 939.398438 1061.140625 C 944.570312 1067.398438 946.992188 1075.648438 947.28125 1085.511719 C 947.34375 1087.519531 949.019531 1089.089844 951.023438 1089.039062 C 953.023438 1088.980469 954.605469 1087.300781 954.542969 1085.300781 C 954.195312 1073.621094 951.121094 1063.921875 945 1056.511719 C 943.722656 1054.96875 941.429688 1054.75 939.886719 1056.019531 C 938.339844 1057.300781 938.121094 1059.589844 939.398438 1061.140625 "/>
<path fill-rule="evenodd" fill="rgb(76.5625%, 47.801208%, 28.588867%)" fill-opacity="1" d="M 919.433594 1088.808594 C 918.648438 1094.210938 919.367188 1099.539062 923.726562 1104.730469 C 925.019531 1106.269531 927.308594 1106.46875 928.84375 1105.179688 C 930.378906 1103.890625 930.582031 1101.601562 929.292969 1100.070312 C 926.5 1096.738281 926.121094 1093.300781 926.617188 1089.851562 C 926.90625 1087.859375 925.527344 1086.019531 923.542969 1085.730469 C 921.558594 1085.449219 919.71875 1086.820312 919.433594 1088.808594 "/>
<path fill-rule="evenodd" fill="rgb(52.929688%, 34.104919%, 15.306091%)" fill-opacity="1" d="M 1566.371094 922.039062 C 1559.960938 924.160156 1556.328125 927.578125 1554.488281 931.460938 C 1551.820312 937.128906 1553.050781 944.171875 1556.441406 950.71875 C 1557.359375 952.5 1559.558594 953.199219 1561.339844 952.269531 C 1563.109375 951.359375 1563.808594 949.160156 1562.890625 947.378906 C 1560.621094 943 1559.28125 938.351562 1561.058594 934.558594 C 1562.210938 932.140625 1564.660156 930.25 1568.648438 928.929688 C 1570.550781 928.300781 1571.589844 926.238281 1570.960938 924.339844 C 1570.328125 922.441406 1568.269531 921.410156 1566.371094 922.039062 "/>
<path fill-rule="evenodd" fill="rgb(26.708984%, 21.604919%, 16.50238%)" fill-opacity="1" d="M 1465.53125 898.308594 C 1476.328125 911.328125 1493.960938 917.371094 1516.351562 918.25 C 1518.851562 918.351562 1520.960938 916.398438 1521.058594 913.898438 C 1521.160156 911.390625 1519.210938 909.28125 1516.699219 909.179688 C 1497.339844 908.421875 1481.859375 903.789062 1472.519531 892.519531 C 1470.929688 890.589844 1468.058594 890.320312 1466.128906 891.921875 C 1464.199219 893.519531 1463.941406 896.378906 1465.53125 898.308594 "/>
<path fill-rule="evenodd" fill="rgb(26.708984%, 21.604919%, 16.50238%)" fill-opacity="1" d="M 1438.210938 896.851562 C 1431.640625 906.878906 1423.191406 914.820312 1408.898438 916.171875 C 1406.410156 916.410156 1404.570312 918.621094 1404.808594 921.121094 C 1405.050781 923.609375 1407.261719 925.441406 1409.761719 925.210938 C 1427.238281 923.550781 1437.761719 914.101562 1445.808594 901.820312 C 1447.179688 899.730469 1446.589844 896.910156 1444.5 895.539062 C 1442.398438 894.171875 1439.589844 894.761719 1438.210938 896.851562 "/>
<path fill-rule="evenodd" fill="rgb(52.929688%, 34.104919%, 15.306091%)" fill-opacity="1" d="M 1448.46875 893.050781 L 1450.648438 904.378906 C 1451.03125 906.351562 1452.929688 907.640625 1454.898438 907.261719 C 1456.871094 906.878906 1458.160156 904.980469 1457.78125 903.011719 L 1455.601562 891.679688 C 1455.21875 889.710938 1453.308594 888.421875 1451.351562 888.800781 C 1449.378906 889.179688 1448.089844 891.078125 1448.46875 893.050781 "/>
<path fill-rule="evenodd" fill="rgb(52.929688%, 34.104919%, 15.306091%)" fill-opacity="1" d="M 1473.558594 935.21875 C 1484.429688 925.949219 1496.648438 926.648438 1509.320312 930.691406 C 1511.230469 931.289062 1513.28125 930.238281 1513.890625 928.328125 C 1514.488281 926.421875 1513.441406 924.371094 1511.53125 923.761719 C 1496.378906 918.941406 1481.839844 918.621094 1468.851562 929.691406 C 1467.328125 930.988281 1467.140625 933.289062 1468.441406 934.808594 C 1469.738281 936.339844 1472.039062 936.519531 1473.558594 935.21875 "/>
<path fill-rule="evenodd" fill="rgb(52.929688%, 34.104919%, 15.306091%)" fill-opacity="1" d="M 1449.199219 934.191406 C 1439.011719 927.648438 1429.289062 928.050781 1419.960938 934.21875 C 1418.289062 935.320312 1417.828125 937.578125 1418.941406 939.25 C 1420.039062 940.921875 1422.300781 941.378906 1423.96875 940.28125 C 1430.769531 935.78125 1437.851562 935.539062 1445.28125 940.300781 C 1446.960938 941.390625 1449.210938 940.898438 1450.289062 939.210938 C 1451.378906 937.519531 1450.890625 935.269531 1449.199219 934.191406 "/>
<path fill-rule="evenodd" fill="rgb(52.929688%, 34.104919%, 15.306091%)" fill-opacity="1" d="M 1450.660156 965.160156 C 1450.78125 964.648438 1451.339844 962.261719 1452.078125 960.550781 C 1455.199219 953.28125 1461.601562 943.609375 1461.601562 943.609375 C 1462.699219 941.941406 1462.238281 939.679688 1460.570312 938.578125 C 1458.898438 937.46875 1456.640625 937.929688 1455.539062 939.601562 C 1455.539062 939.601562 1448.730469 949.929688 1445.398438 957.691406 C 1444.230469 960.410156 1443.5 962.890625 1443.390625 964.660156 C 1443.308594 966.03125 1443.550781 967.160156 1443.96875 968.03125 C 1446.488281 973.21875 1450.910156 975.191406 1455.371094 975.578125 C 1461.160156 976.101562 1466.929688 973.71875 1466.929688 973.71875 C 1468.789062 972.949219 1469.660156 970.820312 1468.890625 968.96875 C 1468.128906 967.121094 1466 966.238281 1464.148438 967.011719 L 1457.941406 968.371094 C 1455.339844 968.511719 1452.269531 968.109375 1450.660156 965.160156 "/>
<path fill-rule="evenodd" fill="rgb(100%, 100%, 100%)" fill-opacity="1" d="M 1462.058594 996.511719 C 1482.898438 996.429688 1513.789062 998.101562 1506.5 987.800781 C 1496.710938 973.949219 1480.660156 984.191406 1462.058594 996.511719 "/>
<path fill-rule="evenodd" fill="rgb(52.929688%, 34.104919%, 15.306091%)" fill-opacity="1" d="M 1473.71875 1016.261719 L 1489.410156 1016.699219 C 1491.410156 1016.761719 1493.078125 1015.171875 1493.140625 1013.171875 C 1493.191406 1011.171875 1491.609375 1009.488281 1489.609375 1009.441406 L 1473.921875 1009.011719 C 1471.921875 1008.949219 1470.25 1010.53125 1470.191406 1012.53125 C 1470.140625 1014.539062 1471.71875 1016.210938 1473.71875 1016.261719 "/>
<path fill-rule="evenodd" fill="rgb(52.929688%, 34.104919%, 15.306091%)" fill-opacity="1" d="M 1521.148438 1039.628906 C 1545.050781 1023.761719 1554.058594 1001.96875 1555.019531 977.921875 C 1555.089844 975.910156 1553.53125 974.21875 1551.53125 974.140625 C 1549.53125 974.070312 1547.839844 975.628906 1547.761719 977.628906 C 1546.890625 999.421875 1538.789062 1019.199219 1517.128906 1033.570312 C 1515.460938 1034.691406 1515.011719 1036.941406 1516.121094 1038.609375 C 1517.21875 1040.28125 1519.480469 1040.730469 1521.148438 1039.628906 "/>
<path fill-rule="evenodd" fill="rgb(74.804688%, 50.584412%, 8.203125%)" fill-opacity="1" d="M 1502.519531 1077.019531 C 1502.519531 1077.019531 1510.738281 1115.058594 1525.851562 1135.75 C 1533.128906 1145.71875 1542.089844 1151.640625 1552.128906 1149.53125 C 1555.828125 1148.75 1559.339844 1146.53125 1562.558594 1143.070312 C 1566.78125 1138.539062 1570.578125 1131.789062 1573.890625 1123.851562 C 1586.171875 1094.390625 1592.03125 1048.390625 1592.03125 1048.390625 C 1592.28125 1046.398438 1590.871094 1044.578125 1588.878906 1044.328125 C 1586.890625 1044.078125 1585.078125 1045.480469 1584.820312 1047.46875 C 1584.820312 1047.46875 1579.160156 1092.339844 1567.179688 1121.058594 C 1564.25 1128.078125 1560.980469 1134.109375 1557.25 1138.121094 C 1555.179688 1140.351562 1553.011719 1141.921875 1550.640625 1142.421875 C 1543.238281 1143.980469 1537.078125 1138.820312 1531.710938 1131.46875 C 1517.328125 1111.769531 1509.621094 1075.488281 1509.621094 1075.488281 C 1509.199219 1073.53125 1507.269531 1072.28125 1505.308594 1072.699219 C 1503.351562 1073.121094 1502.101562 1075.058594 1502.519531 1077.019531 "/>
<path fill-rule="evenodd" fill="rgb(74.804688%, 50.584412%, 8.203125%)" fill-opacity="1" d="M 1638.359375 1177.269531 L 1695.878906 1289.261719 C 1696.671875 1290.789062 1698.429688 1291.558594 1700.089844 1291.089844 C 1744.390625 1278.558594 1782.421875 1257.878906 1814.390625 1229.300781 C 1815.878906 1227.960938 1816.011719 1225.660156 1814.679688 1224.171875 C 1813.339844 1222.679688 1811.039062 1222.550781 1809.550781 1223.878906 C 1779.078125 1251.128906 1742.929688 1270.988281 1700.96875 1283.28125 L 1644.820312 1173.949219 C 1643.898438 1172.160156 1641.710938 1171.460938 1639.929688 1172.378906 C 1638.140625 1173.289062 1637.441406 1175.480469 1638.359375 1177.269531 "/>
<path fill-rule="evenodd" fill="rgb(74.804688%, 50.584412%, 8.203125%)" fill-opacity="1" d="M 1469.328125 1215.011719 C 1469.328125 1215.011719 1466.738281 1253.371094 1481.660156 1276.488281 C 1488.738281 1287.460938 1497.601562 1296.570312 1500.941406 1299.851562 L 1492.339844 1370.679688 C 1450.230469 1376.671875 1413.820312 1377.25 1383.859375 1371.609375 C 1381.890625 1371.238281 1379.988281 1372.539062 1379.621094 1374.511719 C 1379.238281 1376.480469 1380.539062 1378.378906 1382.511719 1378.75 C 1413.78125 1384.628906 1451.941406 1383.960938 1496.140625 1377.46875 C 1497.761719 1377.230469 1499.019531 1375.941406 1499.210938 1374.308594 L 1508.371094 1298.929688 C 1508.511719 1297.769531 1508.078125 1296.621094 1507.230469 1295.828125 C 1507.230469 1295.828125 1496.171875 1285.570312 1487.769531 1272.558594 C 1473.941406 1251.128906 1476.570312 1215.519531 1476.570312 1215.519531 C 1476.710938 1213.519531 1475.210938 1211.78125 1473.210938 1211.640625 C 1471.210938 1211.5 1469.46875 1213.011719 1469.328125 1215.011719 "/>
<path fill-rule="evenodd" fill="rgb(74.804688%, 50.584412%, 8.203125%)" fill-opacity="1" d="M 1572.199219 1280.398438 C 1587.601562 1292.800781 1604.828125 1302.378906 1623.78125 1309.308594 C 1625.671875 1310 1627.75 1309.03125 1628.441406 1307.140625 C 1629.128906 1305.261719 1628.160156 1303.179688 1626.28125 1302.488281 C 1608.089844 1295.839844 1591.539062 1286.648438 1576.761719 1274.75 C 1575.199219 1273.488281 1572.910156 1273.730469 1571.648438 1275.300781 C 1570.390625 1276.859375 1570.640625 1279.140625 1572.199219 1280.398438 "/>
<path fill-rule="evenodd" fill="rgb(52.929688%, 34.104919%, 15.306091%)" fill-opacity="1" d="M 1434.691406 1430.980469 C 1449.171875 1427.011719 1460.910156 1422.691406 1470.578125 1418.121094 C 1472.390625 1417.261719 1473.171875 1415.101562 1472.308594 1413.289062 C 1471.460938 1411.46875 1469.289062 1410.699219 1467.480469 1411.550781 C 1458.128906 1415.96875 1446.769531 1420.128906 1432.769531 1423.96875 C 1430.839844 1424.5 1429.699219 1426.5 1430.230469 1428.441406 C 1430.761719 1430.371094 1432.761719 1431.511719 1434.691406 1430.980469 "/>
<path fill-rule="evenodd" fill="rgb(52.929688%, 34.104919%, 15.306091%)" fill-opacity="1" d="M 1612.898438 1382.851562 L 1590.070312 1394.671875 C 1584.640625 1392.21875 1566.808594 1384.429688 1553.210938 1381.601562 C 1548.660156 1380.648438 1544.539062 1380.269531 1541.378906 1380.671875 C 1538.550781 1381.03125 1536.351562 1382.03125 1534.871094 1383.511719 C 1531.820312 1386.570312 1531.949219 1391.269531 1534.808594 1396.300781 C 1537.148438 1400.421875 1541.289062 1404.910156 1544.828125 1408.351562 C 1539.289062 1408.589844 1531.488281 1408.621094 1523.058594 1407.738281 C 1511.910156 1406.570312 1499.539062 1403.101562 1490.320312 1402.730469 C 1482.488281 1402.410156 1476.679688 1404.460938 1474.058594 1409.730469 C 1471.878906 1414.109375 1472.910156 1417.980469 1475.03125 1421.058594 C 1475.929688 1422.351562 1477.03125 1423.46875 1478.101562 1424.390625 C 1475.679688 1427.289062 1474.359375 1430.671875 1474.558594 1433.910156 C 1474.761719 1437.140625 1476.390625 1440.511719 1480.328125 1443.199219 C 1477.941406 1446.148438 1477.199219 1450.210938 1478.640625 1454.238281 C 1479.730469 1457.269531 1482.160156 1460.398438 1486.398438 1462.78125 C 1485.621094 1465.089844 1485.539062 1467.28125 1486.109375 1469.320312 C 1487.25 1473.449219 1491.449219 1477.449219 1500.191406 1480.179688 C 1502.101562 1480.78125 1504.140625 1479.710938 1504.738281 1477.800781 C 1505.339844 1475.878906 1504.269531 1473.851562 1502.359375 1473.25 C 1499.289062 1472.289062 1496.941406 1471.230469 1495.28125 1470.019531 C 1494.148438 1469.191406 1493.378906 1468.359375 1493.101562 1467.371094 C 1492.730469 1466.011719 1493.320312 1464.570312 1494.328125 1462.960938 C 1494.910156 1462.03125 1495.039062 1460.898438 1494.691406 1459.859375 C 1494.339844 1458.828125 1493.550781 1458.011719 1492.53125 1457.628906 C 1489.488281 1456.488281 1487.410156 1454.960938 1486.21875 1453.230469 C 1485.210938 1451.738281 1484.941406 1450.160156 1485.441406 1448.820312 C 1485.910156 1447.558594 1487.050781 1446.621094 1488.589844 1446.261719 C 1490.179688 1445.890625 1491.328125 1444.511719 1491.390625 1442.878906 C 1491.460938 1441.25 1490.429688 1439.769531 1488.878906 1439.269531 C 1484.289062 1437.789062 1481.960938 1435.898438 1481.808594 1433.460938 C 1481.660156 1431.039062 1483.519531 1428.710938 1485.96875 1426.929688 C 1486.988281 1426.191406 1487.558594 1424.96875 1487.460938 1423.710938 C 1487.371094 1422.460938 1486.628906 1421.339844 1485.511719 1420.761719 C 1485.511719 1420.761719 1483.5 1419.71875 1481.851562 1417.960938 C 1480.691406 1416.71875 1479.539062 1415.019531 1480.558594 1412.96875 C 1481.289062 1411.488281 1482.691406 1410.761719 1484.421875 1410.359375 C 1486.050781 1409.980469 1487.941406 1409.898438 1490.03125 1409.980469 C 1499.121094 1410.351562 1511.308594 1413.808594 1522.308594 1414.960938 C 1539.359375 1416.761719 1554.011719 1414.960938 1554.011719 1414.960938 C 1555.449219 1414.78125 1556.648438 1413.761719 1557.058594 1412.359375 C 1557.460938 1410.960938 1556.980469 1409.449219 1555.851562 1408.53125 C 1555.851562 1408.53125 1548.011719 1402.179688 1543.121094 1395.699219 C 1541.699219 1393.820312 1540.53125 1391.960938 1540.03125 1390.269531 C 1539.839844 1389.640625 1539.601562 1389.058594 1540.019531 1388.640625 C 1540.730469 1387.929688 1541.96875 1387.839844 1543.460938 1387.78125 C 1545.808594 1387.691406 1548.640625 1388.070312 1551.730469 1388.710938 C 1567.300781 1391.949219 1588.621094 1402 1588.621094 1402 C 1589.640625 1402.480469 1590.828125 1402.460938 1591.839844 1401.941406 L 1616.238281 1389.300781 C 1618.019531 1388.378906 1618.71875 1386.191406 1617.789062 1384.410156 C 1616.871094 1382.628906 1614.679688 1381.929688 1612.898438 1382.851562 "/>
<path fill-rule="evenodd" fill="rgb(52.929688%, 34.104919%, 15.306091%)" fill-opacity="1" d="M 1489.238281 1466.398438 C 1498.53125 1471 1512.558594 1471.710938 1533.570312 1469.460938 C 1536.058594 1469.199219 1537.859375 1466.960938 1537.601562 1464.46875 C 1537.328125 1461.96875 1535.089844 1460.171875 1532.601562 1460.441406 C 1513.96875 1462.429688 1501.5 1462.339844 1493.261719 1458.269531 C 1491.019531 1457.160156 1488.289062 1458.078125 1487.179688 1460.320312 C 1486.070312 1462.570312 1486.988281 1465.289062 1489.238281 1466.398438 "/>
<path fill-rule="evenodd" fill="rgb(52.929688%, 34.104919%, 15.306091%)" fill-opacity="1" d="M 1484.78125 1447.621094 C 1496.269531 1453.648438 1512.980469 1455.179688 1532.960938 1453.789062 C 1535.460938 1453.621094 1537.351562 1451.449219 1537.179688 1448.949219 C 1537 1446.449219 1534.828125 1444.558594 1532.328125 1444.730469 C 1514.378906 1445.980469 1499.320312 1445 1489.011719 1439.578125 C 1486.789062 1438.410156 1484.039062 1439.269531 1482.878906 1441.488281 C 1481.710938 1443.710938 1482.558594 1446.449219 1484.78125 1447.621094 "/>
<path fill-rule="evenodd" fill="rgb(52.929688%, 34.104919%, 15.306091%)" fill-opacity="1" d="M 1482.5 1428.320312 C 1497.539062 1433 1512.859375 1435.71875 1531.289062 1435.941406 C 1533.789062 1435.960938 1535.851562 1433.949219 1535.878906 1431.449219 C 1535.910156 1428.941406 1533.898438 1426.890625 1531.390625 1426.859375 C 1513.941406 1426.648438 1499.441406 1424.078125 1485.191406 1419.648438 C 1482.800781 1418.910156 1480.25 1420.25 1479.511719 1422.640625 C 1478.769531 1425.03125 1480.101562 1427.578125 1482.5 1428.320312 "/>
<path fill-rule="evenodd" fill="rgb(52.929688%, 34.104919%, 15.306091%)" fill-opacity="1" d="M 1720.871094 1309.5 L 1741.351562 1312.109375 C 1743.339844 1312.371094 1745.160156 1310.960938 1745.410156 1308.96875 C 1745.671875 1306.980469 1744.261719 1305.160156 1742.269531 1304.910156 L 1721.789062 1302.300781 C 1719.800781 1302.039062 1717.980469 1303.449219 1717.730469 1305.441406 C 1717.480469 1307.429688 1718.878906 1309.25 1720.871094 1309.5 "/>
<path fill-rule="evenodd" fill="rgb(19.189453%, 12.5%, 7.788086%)" fill-opacity="1" d="M 1396.398438 1738.90625 C 1396.398438 1738.90625 1394.949219 1699.804688 1401.300781 1667.667969 C 1403.921875 1654.410156 1407.789062 1642.339844 1413.859375 1635.039062 C 1456.308594 1584.003906 1621.851562 1502.191406 1621.851562 1502.191406 C 1623.640625 1501.304688 1624.378906 1499.121094 1623.488281 1497.328125 C 1622.601562 1495.53125 1620.421875 1494.789062 1618.621094 1495.679688 C 1618.621094 1495.679688 1451.238281 1578.738281 1408.28125 1630.394531 C 1401.589844 1638.441406 1397.058594 1651.648438 1394.171875 1666.261719 C 1387.679688 1699.152344 1389.140625 1739.171875 1389.140625 1739.171875 C 1389.210938 1741.175781 1390.898438 1742.742188 1392.910156 1742.667969 C 1394.910156 1742.59375 1396.46875 1740.910156 1396.398438 1738.90625 "/>
<path fill-rule="evenodd" fill="rgb(19.189453%, 12.5%, 7.788086%)" fill-opacity="1" d="M 1536.550781 1727.417969 L 1520.429688 1742.234375 C 1518.578125 1743.929688 1518.460938 1746.804688 1520.160156 1748.648438 C 1521.851562 1750.492188 1524.71875 1750.613281 1526.570312 1748.917969 L 1542.691406 1734.101562 C 1544.539062 1732.40625 1544.660156 1729.535156 1542.960938 1727.691406 C 1541.269531 1725.84375 1538.390625 1725.722656 1536.550781 1727.417969 "/>
<path fill-rule="evenodd" fill="rgb(19.189453%, 12.5%, 7.788086%)" fill-opacity="1" d="M 1368.101562 1771.527344 L 1349.371094 1762.8125 C 1347.089844 1761.757812 1344.390625 1762.742188 1343.339844 1765.015625 C 1342.28125 1767.285156 1343.269531 1769.988281 1345.539062 1771.046875 L 1364.28125 1779.761719 C 1366.550781 1780.816406 1369.25 1779.828125 1370.308594 1777.558594 C 1371.359375 1775.285156 1370.378906 1772.585938 1368.101562 1771.527344 "/>
<path fill-rule="evenodd" fill="rgb(19.189453%, 12.5%, 7.788086%)" fill-opacity="1" d="M 1595.078125 965.640625 C 1606.660156 974.019531 1619.199219 976.691406 1630.738281 978.480469 C 1641.171875 980.089844 1650.710938 980.769531 1657.46875 985.378906 C 1668.5 992.890625 1674.929688 1005.210938 1682.75 1016.210938 C 1691.371094 1028.320312 1701.488281 1038.941406 1719.300781 1041.789062 C 1721.28125 1042.109375 1723.140625 1040.761719 1723.460938 1038.78125 C 1723.78125 1036.800781 1722.429688 1034.941406 1720.449219 1034.621094 C 1704.878906 1032.128906 1696.199219 1022.589844 1688.671875 1012 C 1680.351562 1000.289062 1673.289062 987.371094 1661.558594 979.378906 C 1655.429688 975.199219 1647.359375 973.609375 1638.308594 972.261719 C 1626.160156 970.441406 1612.070312 968.96875 1599.328125 959.761719 C 1597.710938 958.578125 1595.441406 958.949219 1594.261719 960.570312 C 1593.089844 962.191406 1593.449219 964.46875 1595.078125 965.640625 "/>
<path fill-rule="evenodd" fill="rgb(19.189453%, 12.5%, 7.788086%)" fill-opacity="1" d="M 1584.359375 990.808594 C 1596.078125 1000.578125 1605.308594 1006.210938 1618.578125 1011.519531 C 1622.199219 1012.96875 1624.75 1015.730469 1627.269531 1018.558594 C 1630.410156 1022.070312 1633.480469 1025.691406 1637.570312 1028.148438 C 1639.289062 1029.179688 1641.519531 1028.628906 1642.550781 1026.910156 C 1643.589844 1025.191406 1643.03125 1022.960938 1641.308594 1021.929688 C 1637.851562 1019.851562 1635.339844 1016.691406 1632.691406 1013.71875 C 1629.421875 1010.058594 1625.980469 1006.648438 1621.269531 1004.769531 C 1608.769531 999.769531 1600.058594 994.441406 1589.011719 985.230469 C 1587.46875 983.941406 1585.179688 984.148438 1583.898438 985.691406 C 1582.609375 987.230469 1582.820312 989.519531 1584.359375 990.808594 "/>
<path fill-rule="evenodd" fill="rgb(19.189453%, 12.5%, 7.788086%)" fill-opacity="1" d="M 1454.949219 816.238281 C 1454.210938 813.621094 1453.179688 810.289062 1453.589844 807.519531 C 1453.890625 805.539062 1452.53125 803.691406 1450.539062 803.390625 C 1448.558594 803.101562 1446.710938 804.460938 1446.410156 806.441406 C 1445.851562 810.160156 1446.960938 814.691406 1447.960938 818.21875 C 1448.5 820.140625 1450.511719 821.269531 1452.441406 820.71875 C 1454.371094 820.179688 1455.488281 818.171875 1454.949219 816.238281 "/>
<path fill-rule="evenodd" fill="rgb(19.189453%, 12.5%, 7.788086%)" fill-opacity="1" d="M 1487.628906 813.511719 C 1513.671875 819.230469 1536.191406 826.308594 1551.621094 849.679688 C 1552.730469 851.351562 1554.980469 851.808594 1556.648438 850.710938 C 1558.320312 849.609375 1558.789062 847.351562 1557.679688 845.679688 C 1541.109375 820.578125 1517.160156 812.558594 1489.191406 806.410156 C 1487.230469 805.980469 1485.289062 807.21875 1484.859375 809.179688 C 1484.429688 811.140625 1485.671875 813.078125 1487.628906 813.511719 "/>
<path fill-rule="evenodd" fill="rgb(19.189453%, 12.5%, 7.788086%)" fill-opacity="1" d="M 1489.691406 838.71875 C 1509.460938 844.679688 1531.921875 857.210938 1542.101562 876.078125 C 1543.050781 877.851562 1545.25 878.511719 1547.019531 877.558594 C 1548.78125 876.609375 1549.441406 874.398438 1548.488281 872.640625 C 1537.441406 852.140625 1513.261719 838.238281 1491.78125 831.761719 C 1489.859375 831.191406 1487.839844 832.269531 1487.261719 834.191406 C 1486.679688 836.109375 1487.769531 838.140625 1489.691406 838.71875 "/>
<path fill-rule="evenodd" fill="rgb(19.189453%, 12.5%, 7.788086%)" fill-opacity="1" d="M 1426.078125 816.710938 C 1409.039062 825.289062 1401.46875 836.320312 1396.910156 854.910156 C 1396.429688 856.851562 1397.628906 858.820312 1399.570312 859.300781 C 1401.519531 859.78125 1403.488281 858.578125 1403.960938 856.640625 C 1407.949219 840.398438 1414.460938 830.691406 1429.339844 823.199219 C 1431.128906 822.300781 1431.851562 820.109375 1430.949219 818.320312 C 1430.050781 816.53125 1427.871094 815.808594 1426.078125 816.710938 "/>
</svg>
