<svg width="120" height="120" viewBox="0 0 120 120" fill="none" xmlns="http://www.w3.org/2000/svg">
<path d="M73.8798 37.5295C73.0962 41.6155 70.7124 44.0395 66.462 44.1295C66.7839 45.7838 67.0153 47.4545 67.155 49.1341C67.1712 49.6141 66.4776 49.6039 66.3624 49.1941C65.937 47.5231 65.6449 45.8209 65.4888 44.1037C63.0467 43.8472 60.6788 43.1133 58.5198 41.9437C58.4248 41.8999 58.3507 41.8205 58.3136 41.7227C58.2764 41.6249 58.2791 41.5164 58.321 41.4206C58.363 41.3247 58.4409 41.2491 58.5379 41.2101C58.635 41.171 58.7435 41.1716 58.8402 41.2117C61.2264 41.9755 63.5802 43.0507 66.1392 43.0303C71.022 42.9919 72.6192 40.0651 73.1592 35.6797C73.7844 30.6133 73.3992 26.7223 72.7614 21.7267C72.7552 21.6745 72.7594 21.6216 72.7736 21.571C72.7879 21.5204 72.812 21.4731 72.8445 21.4318C72.8771 21.3905 72.9174 21.3561 72.9633 21.3304C73.0091 21.3047 73.0596 21.2883 73.1118 21.2821C73.164 21.2759 73.2169 21.28 73.2675 21.2943C73.3181 21.3086 73.3654 21.3327 73.4067 21.3652C73.448 21.3977 73.4824 21.4381 73.5081 21.4839C73.5338 21.5298 73.5502 21.5803 73.5564 21.6325C74.6406 26.8665 74.7502 32.2557 73.8798 37.5295Z" fill="#252525"/>
<path d="M54.42 40.0799C54.4167 39.9791 54.3748 39.8834 54.303 39.8126C54.2312 39.7418 54.135 39.7012 54.0341 39.6993C53.9333 39.6974 53.8355 39.7342 53.7611 39.8023C53.6866 39.8703 53.6411 39.9643 53.634 40.0649C53.4904 41.3597 53.4522 42.664 53.52 43.9649C53.5512 44.9093 53.595 46.9859 53.97 47.7731C54.0118 47.8445 54.0734 47.9021 54.1474 47.939C54.2214 47.9759 54.3045 47.9904 54.3866 47.9808C54.4687 47.9712 54.5462 47.9379 54.6097 47.8849C54.6732 47.8319 54.7199 47.7616 54.744 47.6825C54.8868 46.9025 54.5682 44.8565 54.5094 43.9109C54.4308 42.6305 54.462 41.3555 54.42 40.0799Z" fill="#252525"/>
<path d="M54.3798 20.5007C47.8782 20.9963 49.311 33.0083 54.3798 32.7329C59.4486 32.4575 58.1148 20.2163 54.3798 20.5007ZM51.8892 28.0715C51.3342 27.3827 51.2424 25.5173 51.6924 24.7151C51.969 24.2231 52.7172 24.0791 52.5954 24.9299C52.4139 25.8712 52.4249 26.8394 52.6278 27.7763C52.6376 27.866 52.6178 27.9564 52.5713 28.0337C52.5249 28.1111 52.4544 28.1711 52.3706 28.2045C52.2869 28.238 52.1945 28.2431 52.1075 28.2191C52.0206 28.1951 51.9439 28.1433 51.8892 28.0715ZM53.3892 23.2421L53.0244 23.4779C52.935 23.5163 52.8361 23.5267 52.7408 23.5076C52.6454 23.4885 52.5581 23.4409 52.4904 23.3711C52.0644 22.9391 52.9272 22.0181 53.4606 22.4807C53.5152 22.5308 53.5574 22.5928 53.584 22.662C53.6106 22.7311 53.6208 22.8054 53.6139 22.8792C53.607 22.9529 53.5831 23.024 53.5441 23.087C53.5051 23.15 53.4521 23.2031 53.3892 23.2421Z" fill="#252525"/>
<path d="M70.2792 27.2239C69.324 27.2713 69.5694 29.4979 70.2732 29.4481C71.4978 29.3617 71.2338 27.1765 70.2792 27.2239Z" fill="#252525"/>
<path d="M65.1456 20.1241C71.3166 21.3913 76.2756 19.3525 77.3772 18.1957C78.4788 17.0389 77.8734 10.1515 73.5756 8.71867C69.2778 7.28587 57.099 11.6875 53.4924 14.3401C59.526 14.3401 63.3276 16.4875 65.1456 20.1241Z" fill="#252525"/>
<path d="M28.4748 42.3684C26.8956 43.467 25.731 44.283 25.365 44.5506C25.8028 45.8025 26.6421 46.8745 27.7524 47.5998C28.1352 47.4198 29.232 46.71 30.7086 45.72C30.6449 45.0195 30.4071 44.346 30.017 43.7607C29.6269 43.1754 29.0968 42.6968 28.4748 42.3684Z" fill="#252525"/>
<path d="M62.7318 18.9858C58.7916 14.2746 49.905 13.9698 45.6558 18.5274C42.3732 22.0494 41.745 27.5874 43.6986 31.914C43.0386 32.3472 41.8248 33.174 40.3194 34.2C41.2041 35.2467 41.7891 36.5132 42.0126 37.8654C43.5018 36.8142 45.1326 35.6742 45.8706 35.1492C47.8277 37.2056 50.4889 38.4475 53.3221 38.6265C56.1553 38.8054 58.9517 37.9084 61.152 36.1146C66.0138 32.268 66.6084 23.6202 62.7318 18.9858ZM59.6274 34.5888C55.2192 37.7088 49.1682 36.8238 46.2474 32.136C43.9386 28.4292 44.2536 22.9764 47.3526 19.788C50.8032 16.2366 58.0266 16.6854 61.0872 20.5008C64.14 24.3072 63.8472 31.6044 59.6274 34.5888Z" fill="#252525"/>
<path d="M67.4538 36.8501C66.7304 37.1676 65.9303 37.2679 65.151 37.1387C64.3744 37.0163 63.6351 36.7215 62.9874 36.2759C62.6784 36.1091 62.274 36.5225 62.5116 36.8159C63.1673 37.5095 64.053 37.9407 65.0034 38.0291C65.8026 38.1353 67.1298 38.0291 67.7634 37.4891C67.8328 37.4398 67.8825 37.3675 67.9036 37.285C67.9248 37.2026 67.916 37.1153 67.8789 37.0387C67.8418 36.962 67.7787 36.9011 67.7009 36.8665C67.6231 36.832 67.5355 36.8262 67.4538 36.8501Z" fill="#252525"/>
<path d="M69.18 31.4305C68.9417 30.8568 68.6569 30.3036 68.3286 29.7763C68.2755 29.691 68.1913 29.6298 68.0938 29.6056C67.9964 29.5814 67.8933 29.5961 67.8065 29.6466C67.7197 29.6971 67.6559 29.7793 67.6287 29.876C67.6015 29.9727 67.613 30.0761 67.6608 30.1645C67.9572 30.8707 68.307 31.5445 68.5962 32.2645C68.7576 32.6653 68.9874 32.9281 68.4984 33.1453C67.7972 33.4143 67.0655 33.5957 66.3198 33.6853C65.8938 33.7555 66.012 34.4149 66.4212 34.4161C67.0471 34.4034 67.6683 34.3038 68.2668 34.1203C70.0602 33.6061 69.8118 32.8555 69.18 31.4305Z" fill="#252525"/>
<path d="M71.8104 23.9477C71.37 22.7423 69.126 22.1891 68.046 22.9595C67.9853 23.0166 67.9448 23.0919 67.9307 23.1741C67.9166 23.2562 67.9297 23.3408 67.9679 23.4148C68.0062 23.4889 68.0675 23.5485 68.1427 23.5845C68.2178 23.6206 68.3027 23.6312 68.3844 23.6147C69.7938 23.3063 70.095 23.5019 71.1198 24.4253C71.1889 24.5012 71.2831 24.5494 71.385 24.561C71.4869 24.5726 71.5896 24.5469 71.674 24.4885C71.7583 24.4302 71.8187 24.3432 71.8438 24.2437C71.8689 24.1443 71.857 24.0391 71.8104 23.9477Z" fill="#252525"/>
<path d="M25.86 47.9675C24.3246 49.6553 23.3904 52.0103 22.68 54.1475C21.8745 56.367 21.5016 58.7202 21.5814 61.0799C21.6114 61.5197 22.3014 61.6139 22.3758 61.1489C22.6654 58.9389 23.1215 56.7539 23.7402 54.6125C24.4245 52.4583 25.3799 50.3997 26.5836 48.4865C26.85 48.0713 26.2116 47.5799 25.86 47.9675Z" fill="#252525"/>
<path d="M41.6742 40.1334C41.0628 37.4628 38.7156 31.8294 35.4582 31.5492C33.8178 31.4082 31.5906 32.3454 29.9322 32.9658C21.54 36.105 13.98 42.2592 8.826 49.572C5.2932 54.5856 1.6992 61.7718 3.4638 68.052C4.4286 71.4852 6.6438 73.6446 10.26 74.5182C14.1492 75.459 18.3492 74.5242 22.2552 74.1504C22.3506 74.1411 22.4388 74.0953 22.5012 74.0224C22.5635 73.9496 22.5952 73.8554 22.5896 73.7597C22.5841 73.6639 22.5416 73.5741 22.4712 73.509C22.4008 73.4439 22.3079 73.4086 22.212 73.4106C18.552 73.4238 14.901 74.3472 11.2608 73.5504C8.0208 72.8424 5.238 70.995 4.464 67.626C3.108 61.719 6.033 55.5792 9.4092 50.613C14.5662 43.1299 21.8201 37.3382 30.2592 33.966C31.6722 33.393 34.0212 32.3304 35.4354 32.598C38.0784 33.0966 40.1994 38.1414 40.7304 40.41C40.8744 41.0268 41.8146 40.7484 41.6742 40.1334Z" fill="#252525"/>
<path d="M38.1684 38.7318C37.668 37.8798 36.7194 36.6516 35.8026 36.258C35.7008 36.2234 35.5905 36.2232 35.4886 36.2576C35.3868 36.2919 35.2991 36.3589 35.2391 36.4481C35.1791 36.5373 35.1502 36.6438 35.1569 36.7511C35.1635 36.8584 35.2053 36.9605 35.2758 37.0416C36.2394 38.4114 37.4406 38.8092 38.4648 42.0384C38.508 42.1242 38.578 42.1935 38.6641 42.236C38.7502 42.2785 38.8477 42.2918 38.9421 42.2739C39.0364 42.256 39.1223 42.2079 39.1869 42.1368C39.2515 42.0658 39.2912 41.9756 39.3 41.88C39.1458 40.7634 38.7604 39.6911 38.1684 38.7318Z" fill="#252525"/>
<path d="M32.6076 38.196C32.4996 38.1848 32.391 38.2095 32.2984 38.2663C32.2059 38.323 32.1346 38.4087 32.0956 38.5099C32.0565 38.6112 32.0519 38.7226 32.0824 38.8267C32.1129 38.9309 32.1769 39.0221 32.2644 39.0864C33.0444 39.825 33.5466 39.921 34.3566 40.9704C34.9506 41.7318 35.4306 42.5757 35.7816 43.4754C36.0588 44.235 36.6216 43.7262 36.678 43.2564C36.7704 42.462 35.7408 40.7568 35.283 40.1832C34.6962 39.4476 33.54 38.3904 32.6076 38.196Z" fill="#252525"/>
<path d="M29.1888 41.172C30.0132 41.7312 30.5688 41.832 31.2942 42.6786C31.7858 43.2632 32.0997 43.9763 32.199 44.7336C32.3676 45.6234 33.4056 45.435 33.339 44.601C33.219 43.6039 32.8069 42.6646 32.1546 41.901C30.3786 39.8082 28.2186 40.5132 29.1888 41.172Z" fill="#252525"/>
<path d="M99.4722 77.6118C98.2252 80.0138 96.6993 82.2603 94.926 84.3048C94.044 85.2966 90.9738 88.4532 89.2446 89.3142C88.7598 89.5542 87.0804 89.283 86.679 89.2296C86.3634 89.1882 86.1708 89.7756 86.706 90.006C87.6124 90.3134 88.5714 90.4358 89.526 90.366C90.6894 90.186 93.9324 86.9946 95.7114 84.9786C97.5664 82.9191 99.084 80.5792 100.208 78.0456C100.417 77.5584 99.7392 77.1132 99.4722 77.6118Z" fill="#252525"/>
<path d="M74.9442 95.7858C78.7403 96.1374 82.5501 95.2761 85.8258 93.3258C86.2566 93.036 85.7424 92.4258 85.3176 92.6166C81.213 94.4856 77.6646 95.0844 74.9754 95.01C74.58 94.998 74.2554 95.7132 74.9442 95.7858Z" fill="#252525"/>
<path d="M80.2248 98.4863C81.5742 98.2997 84.6168 97.7147 85.6692 96.9755C86.0292 96.7211 85.8072 96.0347 85.3692 96.1589C83.6207 96.7148 81.8353 97.1473 80.0262 97.4531C78.2041 97.6814 76.3662 97.7577 74.5314 97.6811C74.0802 97.6667 74.076 98.3897 74.505 98.4611C76.3996 98.7557 78.3277 98.7642 80.2248 98.4863Z" fill="#252525"/>
<path d="M86.1162 100.416C87.3504 99.7613 86.8362 99.1019 85.5486 99.4565C82.4724 100.31 80.3058 101.212 75.0444 100.749C74.5956 100.709 74.5578 101.366 74.9652 101.505C77.1132 102.246 83.7912 101.651 86.1162 100.416Z" fill="#252525"/>
<path d="M114.979 74.2561C113.67 72.506 112.156 70.9203 110.467 69.5335C110.093 69.2047 109.524 69.7135 109.893 70.0735C111.412 71.447 112.797 72.9618 114.029 74.5975C116.412 78.0439 116.782 81.5149 113.747 84.7843C110.303 88.6517 106.475 92.1591 102.322 95.2525C93.7506 101.45 84.1542 104.236 76.023 103.393C75.5166 103.34 75.501 104.075 75.9768 104.162C81.489 105.167 88.6284 103.457 93.7218 101.277C101.362 98.0065 109.011 91.7731 114.523 85.4971C117.785 81.7801 117.708 78.2035 114.979 74.2561Z" fill="#252525"/>
<path d="M48.27 22.3746C48.2985 22.2737 48.2937 22.1663 48.2564 22.0683C48.2191 21.9703 48.1512 21.887 48.0628 21.8306C47.9744 21.7743 47.8702 21.7479 47.7656 21.7554C47.661 21.7629 47.5616 21.8039 47.4822 21.8724C46.707 22.671 46.1952 24.5322 46.0758 25.632C45.8754 26.9717 46.0948 28.3406 46.704 29.5506C46.7478 29.6304 46.8186 29.6921 46.9037 29.7246C46.9888 29.7571 47.0827 29.7583 47.1686 29.7279C47.2545 29.6975 47.3268 29.6376 47.3726 29.5589C47.4184 29.4801 47.4347 29.3876 47.4186 29.298C47.1046 28.1388 46.9922 26.9343 47.0862 25.737C47.2632 24.1464 47.7438 23.706 48.27 22.3746Z" fill="#644DF6"/>
<path d="M49.4616 20.7C49.6728 20.5626 49.8648 20.4072 50.0616 20.28C50.1595 20.2162 50.2285 20.1167 50.2539 20.0027C50.2793 19.8886 50.259 19.7692 50.1975 19.6699C50.1359 19.5707 50.0379 19.4994 49.9245 19.4715C49.8111 19.4435 49.6912 19.4611 49.5906 19.5204C49.3353 19.6491 49.1103 19.8308 48.9306 20.0532C48.6678 20.4096 49.02 20.991 49.4616 20.7Z" fill="#644DF6"/>
<path d="M70.545 48.9954C67.0926 56.1954 53.3544 54.2112 51.225 48.9954C44.52 50.373 32.0298 54.4254 24.924 57.96C23.9694 62.88 24.0426 74.6364 24.924 79.1916C27.108 79.0506 34.2156 77.9646 39.1362 77.0982C39.5357 74.0888 40.1716 71.1156 41.0382 68.2062C41.1888 67.7178 42.048 67.842 41.9382 68.3634C39.6276 79.5588 38.8182 94.692 39.027 107.695C53.427 114.454 80.3502 110.965 87.7704 107.695C87.513 106.924 87.1458 105.397 86.9256 104.794C84.8682 105.088 80.1648 105.914 76.5654 105.326C72.966 104.739 72.195 94.509 74.3256 93.9948C76.4562 93.4806 81.1896 93.8472 85.3056 90.9822C85.4088 86.2338 83.4252 72.753 82.3794 69.1152C82.242 68.6388 83.0562 68.265 83.256 68.7948C83.8038 70.245 84.8268 75.4596 85.0212 76.5444C88.1466 77.8164 90.1314 78.4044 94.6416 80.22C97.8 75.8094 105 70.1526 109.775 67.3614C102.135 58.1784 85.752 49.7298 70.545 48.9954Z" fill="#644DF6"/>
</svg>
