<?xml version="1.0" encoding="UTF-8"?>
<svg xmlns="http://www.w3.org/2000/svg" xmlns:xlink="http://www.w3.org/1999/xlink" width="120" height="120" viewBox="0 0 4500 3000">
<path fill-rule="nonzero" fill="rgb(94.921875%, 94.921875%, 94.921875%)" fill-opacity="1" d="M 2.8125 0 L 4497.191406 0 C 4498.75 0 4500 1.160156 4500 2.589844 L 4500 2997.40625 C 4500 2998.84375 4498.75 3000 4497.191406 3000 L 2.8125 3000 C 1.253906 3000 0 2998.84375 0 2997.40625 L 0 2.589844 C 0 1.160156 1.253906 0 2.8125 0 Z M 2.8125 0 "/>
<path fill-rule="nonzero" fill="rgb(100%, 70.117188%, 50.193787%)" fill-opacity="1" d="M 3269.121094 945.441406 C 3214.140625 1001.53125 3120.980469 1030.371094 3043.980469 1014.921875 C 2980.71875 1002.230469 2951.949219 921.910156 2895.359375 890.921875 C 2835.75 858.269531 2701 829.359375 2701 829.359375 L 2672.859375 758.121094 C 2672.859375 758.121094 2743.289062 766.21875 2776.628906 777.46875 C 2821.109375 792.46875 2855.480469 839.25 2902.390625 840.789062 C 2948.210938 842.300781 2984.128906 796.359375 3029.03125 787.140625 C 3095.078125 773.578125 3166.621094 767.238281 3231.300781 786.269531 C 3258.140625 794.160156 3301.660156 832 3301.660156 832 C 3301.660156 832 3296.660156 917.351562 3269.121094 945.441406 Z M 3269.121094 945.441406 "/>
<path fill-rule="nonzero" fill="rgb(100%, 70.117188%, 50.193787%)" fill-opacity="1" d="M 3269.121094 945.441406 C 3214.140625 1001.53125 3120.980469 1030.371094 3043.980469 1014.921875 C 2980.71875 1002.230469 2951.949219 921.910156 2895.359375 890.921875 C 2835.75 858.269531 2701 829.359375 2701 829.359375 L 2672.859375 758.121094 C 2672.859375 758.121094 2743.289062 766.21875 2776.628906 777.46875 C 2821.109375 792.46875 2855.480469 839.25 2902.390625 840.789062 C 2948.210938 842.300781 2984.128906 796.359375 3029.03125 787.140625 C 3095.078125 773.578125 3166.621094 767.238281 3231.300781 786.269531 C 3258.140625 794.160156 3301.660156 832 3301.660156 832 C 3301.660156 832 3296.660156 917.351562 3269.121094 945.441406 Z M 3269.121094 945.441406 "/>
<path fill-rule="nonzero" fill="rgb(100%, 70.117188%, 50.193787%)" fill-opacity="1" d="M 1230.878906 945.441406 C 1285.859375 1001.53125 1379.019531 1030.371094 1456.019531 1014.921875 C 1519.28125 1002.230469 1548.058594 921.910156 1604.640625 890.921875 C 1664.25 858.269531 1799 829.359375 1799 829.359375 L 1827.140625 758.121094 C 1827.140625 758.121094 1756.710938 766.21875 1723.371094 777.46875 C 1678.890625 792.46875 1644.519531 839.25 1597.609375 840.789062 C 1551.789062 842.300781 1515.878906 796.359375 1470.96875 787.140625 C 1404.921875 773.578125 1333.378906 767.238281 1268.699219 786.269531 C 1241.859375 794.160156 1198.339844 832 1198.339844 832 C 1198.339844 832 1203.339844 917.351562 1230.878906 945.441406 Z M 1230.878906 945.441406 "/>
<path fill-rule="nonzero" fill="rgb(100%, 16.479492%, 16.479492%)" fill-opacity="1" d="M 2250 507.738281 C 1813.550781 566.320312 1643.46875 802.730469 1891.191406 1318.070312 C 1935.839844 1424.660156 1941.871094 1441.601562 1948.390625 1536.570312 C 1976.28125 1712.800781 2101.789062 1795.78125 2250 1857.070312 C 2398.21875 1795.78125 2523.71875 1712.800781 2551.609375 1536.570312 C 2558.128906 1441.601562 2564.160156 1424.660156 2608.808594 1318.070312 C 2856.53125 802.730469 2686.449219 566.320312 2250 507.738281 Z M 2250 507.738281 "/>
<path fill-rule="nonzero" fill="rgb(100%, 16.479492%, 16.479492%)" fill-opacity="1" d="M 2467.890625 2187.953125 C 2389.671875 2416.832031 2349.160156 2610.792969 2250 2602.371094 C 2171.238281 2595.683594 2114.28125 2421.636719 2032.109375 2187.953125 C 1956.191406 1972.03125 2129.660156 1773.53125 2250 1773.53125 C 2370.339844 1773.53125 2541.898438 1971.371094 2467.890625 2187.953125 Z M 2467.890625 2187.953125 "/>
<path fill-rule="nonzero" fill="rgb(100%, 33.325195%, 33.325195%)" fill-opacity="1" d="M 1845.320312 691.890625 C 1826.171875 716.859375 1810.878906 744.398438 1799.640625 774.640625 C 1901.871094 962.609375 2131.339844 1308.359375 2179.429688 1490.308594 C 2203.96875 1583.121094 2215.980469 1735.28125 2221.71875 1844.960938 C 2231.039062 1849.101562 2240.46875 1853.128906 2250 1857.070312 C 2259.53125 1853.128906 2268.960938 1849.101562 2278.28125 1844.960938 C 2284.019531 1735.28125 2296.039062 1583.121094 2320.570312 1490.308594 C 2368.660156 1308.359375 2598.128906 962.609375 2700.359375 774.640625 C 2689.128906 744.398438 2673.828125 716.859375 2654.679688 691.890625 C 2518.558594 769.660156 2301.328125 800.871094 2250 807.371094 C 2198.671875 800.871094 1981.441406 769.660156 1845.320312 691.890625 Z M 1845.320312 691.890625 "/>
<path fill-rule="nonzero" fill="rgb(100%, 33.325195%, 33.325195%)" fill-opacity="1" d="M 2394.191406 2187.953125 C 2342.390625 2416.832031 2315.558594 2610.792969 2249.890625 2602.371094 C 2197.730469 2595.683594 2160 2421.636719 2105.589844 2187.953125 C 2055.308594 1972.03125 2170.191406 1773.53125 2249.890625 1773.53125 C 2329.578125 1773.53125 2443.210938 1971.371094 2394.191406 2187.953125 Z M 2394.191406 2187.953125 "/>
<path fill-rule="nonzero" fill="rgb(100%, 16.479492%, 16.479492%)" fill-opacity="1" d="M 1107.300781 397.371094 C 1102.210938 397.339844 1097.109375 397.511719 1091.988281 397.910156 C 1059.210938 400.480469 1024.550781 415.5 1001.570312 445.691406 C 971.375 485.390625 970.914062 535.699219 980.917969 582.78125 C 990.921875 629.871094 1011.839844 677.308594 1034.921875 720.800781 C 1063.570312 774.800781 1096.101562 822.839844 1116.671875 851.550781 C 1117.960938 879.351562 1123.398438 923.710938 1144.441406 937.640625 C 1156.828125 945.839844 1173.910156 928.230469 1188.519531 930.960938 C 1220.28125 936.878906 1249.429688 1001.488281 1272.671875 979.050781 C 1286.421875 965.761719 1234.148438 943.320312 1245.949219 928.289062 C 1262.960938 906.628906 1311.890625 971.910156 1326.101562 948.320312 C 1335.058594 933.46875 1285.980469 926.070312 1291.371094 909.589844 C 1296.75 893.148438 1335.75 914.96875 1342.128906 898.898438 C 1349.339844 880.769531 1301.21875 868.820312 1308.730469 850.808594 C 1318.648438 827.03125 1382.730469 863.140625 1384.878906 837.460938 C 1386.761719 814.859375 1323.148438 837.300781 1320.761719 814.75 C 1318.609375 794.46875 1375.828125 802.859375 1372.851562 782.691406 C 1369.289062 758.550781 1308.101562 787.640625 1302.058594 763.988281 C 1296.289062 741.410156 1365.988281 735.128906 1352.820312 715.910156 C 1319.179688 666.808594 1221.429688 736.910156 1162.691406 786.429688 C 1144.460938 759.769531 1121.601562 724.140625 1101.179688 685.640625 C 1080.019531 645.789062 1061.898438 603.058594 1054.28125 567.199219 C 1046.660156 531.339844 1050 505.910156 1061.261719 491.109375 C 1071.289062 477.929688 1080.289062 474.058594 1097.851562 472.691406 C 1115.421875 471.308594 1140.429688 475.460938 1168.550781 483.160156 C 1224.769531 498.558594 1290.890625 528.03125 1358.058594 527.449219 C 1430.539062 526.820312 1489.859375 502.300781 1535.109375 511.328125 C 1607.070312 525.699219 1718.558594 581.828125 1808.21875 634.621094 C 1897.878906 687.421875 1967.289062 736.140625 1967.289062 736.140625 L 2010.390625 674.761719 C 2010.390625 674.761719 1938.738281 624.441406 1846.28125 569.988281 C 1753.808594 515.539062 1642.109375 456.21875 1549.800781 437.78125 C 1473.878906 422.621094 1408.511719 452.011719 1357.421875 452.449219 C 1315.589844 452.808594 1251.539062 428.121094 1188.359375 410.820312 C 1164.660156 404.339844 1140.738281 398.871094 1116.429688 397.628906 C 1113.390625 397.46875 1110.351562 397.378906 1107.300781 397.371094 Z M 1107.300781 397.371094 "/>
<path fill-rule="nonzero" fill="rgb(100%, 33.325195%, 33.325195%)" fill-opacity="1" d="M 1096.25 421.570312 C 1035.941406 422.109375 988.421875 485.621094 1000.28125 543.78125 C 1007.359375 636.28125 1059.828125 716.75 1106.570312 793.980469 C 1124.410156 819.371094 1145.238281 846.160156 1143.460938 878.980469 C 1144.558594 891.261719 1148.171875 903.460938 1155.441406 913.558594 C 1176.980469 903.980469 1205 903.429688 1222.539062 921.371094 C 1228.761719 901.679688 1251.539062 899.21875 1269 899.371094 C 1272.089844 888.140625 1289.691406 884.640625 1290.789062 876.160156 C 1279.859375 860.460938 1283.050781 836.648438 1298.660156 825.179688 C 1290.539062 813.539062 1308.441406 795.179688 1290.519531 788.699219 C 1272.929688 773.941406 1275.988281 747.671875 1288.160156 730.429688 C 1239.839844 753.660156 1198.179688 787.890625 1157.511719 822.28125 C 1098.511719 732.488281 1032.75 638.320312 1025.460938 527.5 C 1025.199219 489.660156 1053.660156 448.359375 1094.558594 449.421875 C 1168.621094 444.308594 1235.101562 487.441406 1307.148438 498.230469 C 1362.46875 508.871094 1418.828125 499.730469 1473.121094 488.070312 C 1521.25 480.949219 1571.078125 490.140625 1615.308594 511.429688 C 1738.710938 558.960938 1921.160156 671.300781 1980.730469 779.191406 C 1985.28125 771.921875 2001.210938 761.800781 1989.71875 753.148438 C 1947.230469 617.609375 1706.300781 504.488281 1554.480469 463.609375 C 1490.128906 446.101562 1425.230469 472.148438 1361.429688 476.289062 C 1270.390625 476.648438 1188.339844 419.449219 1096.25 421.570312 Z M 1096.25 421.570312 "/>
<path fill-rule="nonzero" fill="rgb(100%, 33.325195%, 33.325195%)" fill-opacity="1" d="M 1890.488281 665.019531 C 1882.179688 665.03125 1873.941406 666.558594 1866.261719 669.511719 C 1851.289062 685.769531 1838.171875 703.269531 1826.949219 722.03125 C 1826.898438 722.691406 1826.871094 723.351562 1826.839844 724.011719 C 1826.839844 756.589844 1855.339844 782.988281 1890.488281 783 C 1925.648438 783 1954.140625 756.589844 1954.140625 724.011719 C 1954.140625 708.359375 1947.441406 693.359375 1935.5 682.300781 C 1923.570312 671.230469 1907.378906 665.019531 1890.488281 665.019531 Z M 1890.488281 665.019531 "/>
<path fill-rule="nonzero" fill="rgb(100%, 16.479492%, 16.479492%)" fill-opacity="1" d="M 3392.699219 397.371094 C 3397.789062 397.339844 3402.890625 397.511719 3408.011719 397.910156 C 3440.78125 400.480469 3475.449219 415.5 3498.429688 445.691406 C 3528.628906 485.390625 3529.089844 535.699219 3519.078125 582.78125 C 3509.078125 629.871094 3488.160156 677.308594 3465.078125 720.800781 C 3436.429688 774.800781 3403.898438 822.839844 3383.328125 851.550781 C 3382.03125 879.351562 3376.601562 923.710938 3355.558594 937.640625 C 3343.171875 945.839844 3326.089844 928.230469 3311.480469 930.960938 C 3279.71875 936.878906 3250.570312 1001.488281 3227.328125 979.050781 C 3213.578125 965.761719 3265.851562 943.320312 3254.050781 928.289062 C 3237.039062 906.628906 3188.109375 971.910156 3173.898438 948.320312 C 3164.949219 933.46875 3214.019531 926.070312 3208.628906 909.589844 C 3203.25 893.148438 3164.25 914.96875 3157.871094 898.898438 C 3150.660156 880.769531 3198.769531 868.820312 3191.269531 850.808594 C 3181.351562 827.03125 3117.269531 863.140625 3115.128906 837.460938 C 3113.238281 814.859375 3176.851562 837.300781 3179.238281 814.75 C 3181.390625 794.46875 3124.171875 802.859375 3127.148438 782.691406 C 3130.71875 758.550781 3191.898438 787.640625 3197.941406 763.988281 C 3203.710938 741.410156 3134.011719 735.128906 3147.179688 715.910156 C 3180.820312 666.808594 3278.570312 736.910156 3337.308594 786.429688 C 3355.539062 759.769531 3378.398438 724.140625 3398.820312 685.640625 C 3419.980469 645.789062 3438.101562 603.058594 3445.71875 567.199219 C 3453.339844 531.339844 3450 505.910156 3438.738281 491.109375 C 3428.71875 477.929688 3419.71875 474.058594 3402.148438 472.691406 C 3384.578125 471.308594 3359.570312 475.460938 3331.449219 483.160156 C 3275.230469 498.558594 3209.109375 528.03125 3141.941406 527.449219 C 3069.46875 526.820312 3010.140625 502.300781 2964.890625 511.328125 C 2892.929688 525.699219 2781.441406 581.828125 2691.78125 634.621094 C 2602.128906 687.421875 2532.71875 736.140625 2532.71875 736.140625 L 2489.609375 674.761719 C 2489.609375 674.761719 2561.261719 624.441406 2653.71875 569.988281 C 2746.191406 515.539062 2857.890625 456.21875 2950.199219 437.78125 C 3026.128906 422.621094 3091.488281 452.011719 3142.578125 452.449219 C 3184.410156 452.808594 3248.460938 428.121094 3311.640625 410.820312 C 3335.339844 404.339844 3359.261719 398.871094 3383.570312 397.628906 C 3386.609375 397.46875 3389.648438 397.378906 3392.699219 397.371094 Z M 3392.699219 397.371094 "/>
<path fill-rule="nonzero" fill="rgb(100%, 33.325195%, 33.325195%)" fill-opacity="1" d="M 3403.75 421.570312 C 3464.058594 422.109375 3511.578125 485.621094 3499.71875 543.78125 C 3492.640625 636.28125 3440.171875 716.75 3393.429688 793.980469 C 3375.589844 819.371094 3354.761719 846.160156 3356.539062 878.980469 C 3355.441406 891.261719 3351.828125 903.460938 3344.558594 913.558594 C 3323.019531 903.980469 3295 903.429688 3277.460938 921.371094 C 3271.238281 901.679688 3248.46875 899.21875 3231 899.371094 C 3227.910156 888.140625 3210.308594 884.640625 3209.21875 876.160156 C 3220.140625 860.460938 3216.949219 836.648438 3201.339844 825.179688 C 3209.46875 813.539062 3191.558594 795.179688 3209.480469 788.699219 C 3227.070312 773.941406 3224.011719 747.671875 3211.839844 730.429688 C 3260.160156 753.660156 3301.820312 787.890625 3342.488281 822.28125 C 3401.488281 732.488281 3467.25 638.320312 3474.53125 527.5 C 3474.800781 489.660156 3446.339844 448.359375 3405.441406 449.421875 C 3331.378906 444.308594 3264.898438 487.441406 3192.851562 498.230469 C 3137.53125 508.871094 3081.171875 499.730469 3026.878906 488.070312 C 2978.75 480.949219 2928.921875 490.140625 2884.691406 511.429688 C 2761.289062 558.960938 2578.839844 671.300781 2519.269531 779.191406 C 2514.71875 771.921875 2498.789062 761.800781 2510.28125 753.148438 C 2552.769531 617.609375 2793.699219 504.488281 2945.519531 463.609375 C 3009.871094 446.101562 3074.769531 472.148438 3138.570312 476.289062 C 3229.609375 476.648438 3311.660156 419.449219 3403.75 421.570312 Z M 3403.75 421.570312 "/>
<path fill-rule="nonzero" fill="rgb(100%, 33.325195%, 33.325195%)" fill-opacity="1" d="M 2609.511719 665.019531 C 2617.820312 665.03125 2626.058594 666.558594 2633.738281 669.511719 C 2648.710938 685.769531 2661.828125 703.269531 2673.050781 722.03125 C 2673.101562 722.691406 2673.128906 723.351562 2673.160156 724.011719 C 2673.160156 756.589844 2644.660156 782.988281 2609.511719 783 C 2574.351562 783 2545.859375 756.589844 2545.859375 724.011719 C 2545.859375 708.359375 2552.558594 693.359375 2564.5 682.300781 C 2576.429688 671.230469 2592.628906 665.019531 2609.511719 665.019531 Z M 2609.511719 665.019531 "/>
<path fill-rule="nonzero" fill="rgb(100%, 16.479492%, 16.479492%)" fill-opacity="1" d="M 3392.699219 397.371094 C 3397.789062 397.339844 3402.890625 397.511719 3408.011719 397.910156 C 3440.78125 400.480469 3475.449219 415.5 3498.429688 445.691406 C 3528.628906 485.390625 3529.089844 535.699219 3519.078125 582.78125 C 3509.078125 629.871094 3488.160156 677.308594 3465.078125 720.800781 C 3436.429688 774.800781 3403.898438 822.839844 3383.328125 851.550781 C 3382.03125 879.351562 3376.601562 923.710938 3355.558594 937.640625 C 3343.171875 945.839844 3326.089844 928.230469 3311.480469 930.960938 C 3279.71875 936.878906 3250.570312 1001.488281 3227.328125 979.050781 C 3213.578125 965.761719 3265.851562 943.320312 3254.050781 928.289062 C 3237.039062 906.628906 3188.109375 971.910156 3173.898438 948.320312 C 3164.949219 933.46875 3214.019531 926.070312 3208.628906 909.589844 C 3203.25 893.148438 3164.25 914.96875 3157.871094 898.898438 C 3150.660156 880.769531 3198.769531 868.820312 3191.269531 850.808594 C 3181.351562 827.03125 3117.269531 863.140625 3115.128906 837.460938 C 3113.238281 814.859375 3176.851562 837.300781 3179.238281 814.75 C 3181.390625 794.46875 3124.171875 802.859375 3127.148438 782.691406 C 3130.71875 758.550781 3191.898438 787.640625 3197.941406 763.988281 C 3203.710938 741.410156 3134.011719 735.128906 3147.179688 715.910156 C 3180.820312 666.808594 3278.570312 736.910156 3337.308594 786.429688 C 3355.539062 759.769531 3378.398438 724.140625 3398.820312 685.640625 C 3419.980469 645.789062 3438.101562 603.058594 3445.71875 567.199219 C 3453.339844 531.339844 3450 505.910156 3438.738281 491.109375 C 3428.71875 477.929688 3419.71875 474.058594 3402.148438 472.691406 C 3384.578125 471.308594 3359.570312 475.460938 3331.449219 483.160156 C 3275.230469 498.558594 3209.109375 528.03125 3141.941406 527.449219 C 3069.46875 526.820312 3010.140625 502.300781 2964.890625 511.328125 C 2892.929688 525.699219 2781.441406 581.828125 2691.78125 634.621094 C 2602.128906 687.421875 2532.71875 736.140625 2532.71875 736.140625 L 2489.609375 674.761719 C 2489.609375 674.761719 2561.261719 624.441406 2653.71875 569.988281 C 2746.191406 515.539062 2857.890625 456.21875 2950.199219 437.78125 C 3026.128906 422.621094 3091.488281 452.011719 3142.578125 452.449219 C 3184.410156 452.808594 3248.460938 428.121094 3311.640625 410.820312 C 3335.339844 404.339844 3359.261719 398.871094 3383.570312 397.628906 C 3386.609375 397.46875 3389.648438 397.378906 3392.699219 397.371094 Z M 3392.699219 397.371094 "/>
<path fill-rule="nonzero" fill="rgb(100%, 33.325195%, 33.325195%)" fill-opacity="1" d="M 3403.75 421.570312 C 3464.058594 422.109375 3511.578125 485.621094 3499.71875 543.78125 C 3492.640625 636.28125 3440.171875 716.75 3393.429688 793.980469 C 3375.589844 819.371094 3354.761719 846.160156 3356.539062 878.980469 C 3355.441406 891.261719 3351.828125 903.460938 3344.558594 913.558594 C 3323.019531 903.980469 3295 903.429688 3277.460938 921.371094 C 3271.238281 901.679688 3248.46875 899.21875 3231 899.371094 C 3227.910156 888.140625 3210.308594 884.640625 3209.21875 876.160156 C 3220.140625 860.460938 3216.949219 836.648438 3201.339844 825.179688 C 3209.46875 813.539062 3191.558594 795.179688 3209.480469 788.699219 C 3227.070312 773.941406 3224.011719 747.671875 3211.839844 730.429688 C 3260.160156 753.660156 3301.820312 787.890625 3342.488281 822.28125 C 3401.488281 732.488281 3467.25 638.320312 3474.53125 527.5 C 3474.800781 489.660156 3446.339844 448.359375 3405.441406 449.421875 C 3331.378906 444.308594 3264.898438 487.441406 3192.851562 498.230469 C 3137.53125 508.871094 3081.171875 499.730469 3026.878906 488.070312 C 2978.75 480.949219 2928.921875 490.140625 2884.691406 511.429688 C 2761.289062 558.960938 2578.839844 671.300781 2519.269531 779.191406 C 2514.71875 771.921875 2498.789062 761.800781 2510.28125 753.148438 C 2552.769531 617.609375 2793.699219 504.488281 2945.519531 463.609375 C 3009.871094 446.101562 3074.769531 472.148438 3138.570312 476.289062 C 3229.609375 476.648438 3311.660156 419.449219 3403.75 421.570312 Z M 3403.75 421.570312 "/>
<path fill-rule="nonzero" fill="rgb(100%, 33.325195%, 33.325195%)" fill-opacity="1" d="M 2609.511719 665.019531 C 2617.820312 665.03125 2626.058594 666.558594 2633.738281 669.511719 C 2648.710938 685.769531 2661.828125 703.269531 2673.050781 722.03125 C 2673.101562 722.691406 2673.128906 723.351562 2673.160156 724.011719 C 2673.160156 756.589844 2644.660156 782.988281 2609.511719 783 C 2574.351562 783 2545.859375 756.589844 2545.859375 724.011719 C 2545.859375 708.359375 2552.558594 693.359375 2564.5 682.300781 C 2576.429688 671.230469 2592.628906 665.019531 2609.511719 665.019531 Z M 2609.511719 665.019531 "/>
<path fill-rule="nonzero" fill="rgb(100%, 70.117188%, 50.193787%)" fill-opacity="1" d="M 139.160156 737.160156 L 171.765625 737.160156 C 172.304688 737.160156 172.734375 737.589844 172.734375 738.121094 L 172.734375 753.460938 C 172.734375 754 172.304688 754.429688 171.765625 754.429688 L 139.160156 754.429688 C 138.621094 754.429688 138.1875 754 138.1875 753.460938 L 138.1875 738.121094 C 138.1875 737.589844 138.621094 737.160156 139.160156 737.160156 Z M 139.160156 737.160156 "/>
</svg>
