<svg width="120" height="120" viewBox="0 0 120 120" fill="none" xmlns="http://www.w3.org/2000/svg">
<path d="M85.6986 58.6404C84.7518 55.224 80.9742 42.6204 81.0084 42.1692C81.0426 41.718 81.7014 40.0908 81.7962 39.6438C81.7962 39.6438 80.1162 38.1936 79.9362 38.073C79.4646 38.6945 79.0333 39.3457 78.645 40.0224C78.885 40.5624 80.1642 41.898 80.1642 42.2508C80.1642 42.5394 79.5312 54.0576 79.497 58.6404H85.6986Z" fill="#644DF6"/>
<path d="M53.9094 47.6124C50.5104 48.903 43.7154 52.1958 42.615 51.5124C38.301 48.8466 38.712 35.6508 22.2 35.199C23.34 37.7244 27.531 65.5074 27.9786 68.3304C29.7342 67.3104 34.863 65.8992 37.3416 65.5206C37.3842 64.776 37.4406 63.6702 37.4664 62.5944C34.6908 60.7014 30.1014 54.5196 28.6716 51.4374C28.4316 50.9172 28.8822 50.805 29.067 51.1146C30.3984 53.3472 34.9974 61.1346 39.183 62.3022C43.095 63.3912 49.2816 60.4002 57.9948 52.4832C58.2168 50.667 54.9378 47.7456 53.9094 47.6124Z" fill="#644DF6"/>
<path d="M12.1944 80.8338C15.1284 81.4338 43.7724 80.9406 45.0246 80.8338C46.6002 80.7 50.6928 70.9836 51.2076 69.4338C51.7794 67.7136 52.9806 64.3158 47.1714 64.7868C41.0916 65.2794 33.351 66.9078 27.5424 69.5196C25.5414 58.1046 22.4262 38.7846 21.8064 36.3024C20.9244 32.7696 19.5864 31.8444 17.3964 31.599C15.2064 31.3536 9.2208 31.41 6.0798 31.4658C2.9388 31.5216 2.8614 34.2972 3.0678 37.3608C3.615 45.4884 6.51 70.4922 7.0878 74.7258C7.6656 78.9594 9.2598 80.2362 12.1944 80.8338ZM47.0898 67.0692C48.6732 66.9894 50.0652 66.8292 49.323 69.1908C48.7992 70.8564 46.1304 77.8524 44.2368 77.8692C40.3644 77.9039 29.7114 78.3048 29.2074 77.895C29.0556 77.775 28.5576 75.2448 27.8874 71.4972C33.342 69.3 45.519 67.1484 47.0898 67.0692Z" fill="#252525"/>
<path d="M116.593 101.746C79.3824 101.948 41.2926 102.238 3.8208 102.253C3.3906 102.253 3.3906 103.067 3.8424 103.067C40.8204 103.051 79.3482 102.94 116.498 102.739C117.096 102.736 117.199 101.742 116.593 101.746Z" fill="#252525"/>
<path d="M74.619 26.9802C74.6244 27.4104 75.399 27.483 75.1698 26.55C75.0846 26.2014 74.6082 26.1498 74.619 26.9802Z" fill="#252525"/>
<path d="M77.1 30.3798C78.0792 31.5864 79.6482 30.7794 79.1562 28.8996C78.8772 27.8322 78.6702 28.383 78.3732 28.7964C78.0858 29.1608 77.7095 29.4453 77.2806 29.6226C77.0346 29.7216 76.6638 29.8404 77.1 30.3798ZM78.6918 29.2092C78.8424 30.2034 78.2058 30.9306 77.5044 30.0696C77.9833 29.9186 78.4005 29.6168 78.6936 29.2092H78.6918Z" fill="#252525"/>
<path d="M75.135 24.1494C74.9564 24.1631 74.7872 24.235 74.6535 24.3543C74.5198 24.4736 74.429 24.6335 74.3952 24.8094C74.31 25.2612 74.6532 25.188 74.748 25.0458C74.8997 24.8706 75.0983 24.7424 75.3204 24.6762C75.6 24.5754 75.6864 24.105 75.135 24.1494Z" fill="#252525"/>
<path d="M77.9064 26.1601C77.6988 25.6309 77.2134 26.2099 77.3982 26.7751C77.5572 27.2587 78.2442 27.0199 77.9064 26.1601Z" fill="#252525"/>
<path d="M76.0344 26.4C75.897 26.8608 75.6072 28.3986 75.9744 28.8138C76.239 29.1138 77.073 28.962 77.3124 28.7064C77.4768 28.5312 77.3598 28.3236 77.136 28.3794C76.8886 28.4411 76.6336 28.4672 76.3788 28.4568C76.1652 26.7822 76.5648 26.3436 76.2588 26.2548C76.2345 26.2477 76.2089 26.2459 76.1838 26.2495C76.1586 26.2532 76.1346 26.2622 76.1133 26.276C76.092 26.2898 76.0739 26.308 76.0603 26.3294C76.0467 26.3508 76.0379 26.3749 76.0344 26.4Z" fill="#252525"/>
<path d="M77.5962 24.0462C77.2464 24.1308 77.2518 24.555 77.5362 24.5796C77.8201 24.6059 78.0883 24.7219 78.3018 24.9108C78.5886 25.1586 78.7326 24.8718 78.6894 24.6786C78.6216 24.4541 78.4708 24.2638 78.2678 24.1463C78.0648 24.0289 77.8246 23.9931 77.5962 24.0462Z" fill="#252525"/>
<path d="M74.5584 58.4856C73.9932 55.5168 73.6188 52.146 73.2246 47.8746C73.1958 47.5608 72.6474 47.5908 72.6612 47.9178C72.8512 51.4797 73.2608 55.0264 73.8876 58.5378C73.95 58.911 74.6316 58.8684 74.5584 58.4856Z" fill="#252525"/>
<path d="M92.6778 58.6704C92.9994 55.7106 92.2944 50.3142 91.2234 48.0552C91.1917 48.0058 91.144 47.9688 91.0882 47.9506C91.0324 47.9323 90.9721 47.934 90.9173 47.9551C90.8626 47.9763 90.8169 48.0158 90.7879 48.0668C90.759 48.1178 90.7485 48.1773 90.7584 48.2352C91.9722 52.9206 91.9098 55.0044 92.0496 58.5618C92.0628 58.9116 92.6352 59.0622 92.6778 58.6704Z" fill="#252525"/>
<path d="M68.2506 58.4124C68.535 53.58 68.5188 46.722 70.5486 42.432C72.1584 39.0288 75.036 38.5206 76.7748 36.1026C77.0748 36.6144 78.672 38.0598 79.3086 38.2278C79.0505 38.9615 78.6757 39.6488 78.1986 40.263C77.3904 39.5692 76.6939 38.755 76.1334 37.8492C75.9108 37.4856 75.5334 37.6428 75.7332 38.1162C76.2523 39.0803 76.9269 39.952 77.73 40.6962C77.8307 40.8128 77.9735 40.8845 78.1271 40.8958C78.2807 40.907 78.4324 40.8568 78.549 40.7562C79.1195 40.0571 79.5869 39.2798 79.9368 38.448C80.4942 39.0687 81.1309 39.6134 81.8304 40.068C81.955 40.1503 82.104 40.1874 82.2526 40.1733C82.4013 40.1593 82.5406 40.0948 82.6476 39.9906C83.5086 39.3024 85.5276 36.8754 85.8834 35.826C86.0598 35.3094 85.728 35.154 85.419 35.7012C84.6008 37.1518 83.5262 38.4419 82.2474 39.5088C81.5454 39.103 80.9039 38.6005 80.3418 38.016C82.0698 36.9756 83.5698 35.5968 84.7518 33.9624C86.9766 35.8302 91.5498 35.6196 95.3064 39.225C98.1678 41.9706 99.6 47.0784 100.005 50.9286C100.267 53.4383 100.277 55.9679 100.036 58.4796C99.9948 58.9098 100.653 59.0436 100.696 58.6092C100.981 56.0086 100.991 53.385 100.726 50.7822C100.291 46.7226 98.802 41.7516 95.8596 38.8464C92.1396 35.1738 88.3092 35.748 85.2054 33.5322C84.8268 33.2616 84.5856 33.105 84.2544 33.558C82.7358 35.6406 81.7464 36.318 79.6764 37.7364C78.8046 37.2229 78.0216 36.5719 77.3574 35.8086C76.833 35.2086 76.5276 35.2968 76.2084 35.7312C73.9926 38.7462 70.0992 38.1792 68.6442 46.2312C68.0442 49.5402 67.4178 55.1508 67.629 58.4112C67.629 58.4933 67.6616 58.5721 67.7197 58.6301C67.7777 58.6882 67.8565 58.7208 67.9386 58.7208C68.0207 58.7208 68.0995 58.6882 68.1575 58.6301C68.2156 58.5721 68.2482 58.4933 68.2482 58.4112L68.2506 58.4124Z" fill="#252525"/>
<path d="M49.9728 60.2796C70.1484 60.516 91.0128 60.2796 111.353 60.2412C111.353 60.7656 111.327 61.2864 111.323 61.8072L83.2644 62.1672C83.2644 61.767 83.2338 61.3704 83.1954 60.9756C83.1859 60.8985 83.1485 60.8275 83.0902 60.776C83.032 60.7245 82.9569 60.6961 82.8792 60.6961C82.8015 60.6961 82.7264 60.7245 82.6682 60.776C82.6099 60.8275 82.5725 60.8985 82.563 60.9756C82.5192 61.3794 82.4928 61.7844 82.4724 62.1888C70.4808 62.2236 58.5276 61.92 46.5444 61.896C45.9894 61.896 46.071 62.7102 46.6092 62.7312C51.1008 62.9028 55.5972 62.976 60.0936 63.0234C60.741 103.109 60.0438 101.509 60.7056 101.507C60.7897 101.507 60.8704 101.473 60.9299 101.414C60.9893 101.354 61.0228 101.274 61.023 101.189C61.092 83.3802 61.2126 75.6294 60.9072 63.054H82.4208C82.3266 75.7812 82.8954 86.7204 82.6746 100.746C82.6732 100.799 82.6821 100.851 82.7009 100.9C82.7197 100.949 82.748 100.994 82.7842 101.032C82.8572 101.109 82.9579 101.154 83.064 101.157C83.1701 101.16 83.2731 101.12 83.3501 101.047C83.4272 100.974 83.4721 100.874 83.475 100.768C83.6916 88.3254 83.0838 75.8892 83.277 63.0876L111.314 62.7216C111.392 75.372 111.761 88.0644 111.848 100.72C111.851 101.266 112.711 101.352 112.708 100.793C112.644 87.6906 112.196 74.241 112.114 60.084C112.114 59.6928 112.114 59.3322 111.574 59.3358C91.0758 59.4558 70.9428 59.3358 49.9494 59.4732C49.849 59.4852 49.7567 59.5343 49.6906 59.6109C49.6246 59.6875 49.5896 59.7861 49.5926 59.8871C49.5955 59.9882 49.6361 60.0846 49.7065 60.1572C49.7769 60.2298 49.8719 60.2735 49.9728 60.2796Z" fill="#252525"/>
<path d="M21.7896 94.2972C22.0146 93.6126 22.1076 85.1772 22.0002 82.68C21.972 82.5899 21.9149 82.5116 21.8378 82.4571C21.7608 82.4026 21.6679 82.3749 21.5736 82.3783C21.4792 82.3817 21.3886 82.416 21.3156 82.476C21.2427 82.5359 21.1915 82.6181 21.1698 82.71C21.1698 84.6936 20.787 92.955 21.234 94.302C21.2542 94.3599 21.292 94.41 21.3422 94.4452C21.3923 94.4805 21.4522 94.4992 21.5135 94.4987C21.5748 94.4981 21.6344 94.4784 21.6839 94.4423C21.7334 94.4062 21.7704 94.3554 21.7896 94.2972Z" fill="#252525"/>
<path d="M62.0934 86.9052C63.105 87.0852 78.909 87.0001 81.4044 87.0001C81.9636 87.0001 82.011 86.1396 81.4476 86.1396C76.6368 86.1396 66.3618 86.2945 62.1234 86.2597C61.8096 86.2801 61.7538 86.8446 62.0934 86.9052Z" fill="#252525"/>
<path d="M81.387 73.5798C81.8994 73.5744 81.8604 72.7794 81.3528 72.7794C75.5868 72.7794 66.8928 72.9882 61.857 73.0506C61.5168 73.0548 61.4268 73.6734 61.8006 73.7106C63.7158 73.8894 78.06 73.6116 81.387 73.5798Z" fill="#252525"/>
<path d="M24.3234 30.8184C24.0694 32.0551 23.7477 33.277 23.3598 34.4784C23.2446 34.8546 23.9442 35.0118 24.0396 34.6332C24.4051 33.4244 24.666 32.1865 24.8196 30.933C24.834 30.642 24.378 30.531 24.3234 30.8184Z" fill="#252525"/>
<path d="M24.6162 30.2718C25.0164 30.5346 26.8836 30.0954 27.8304 29.3682C28.9404 30.6594 29.5956 30.039 29.1774 29.6682C26.7936 27.564 29.5974 24.9036 30.2742 27.0522C30.3636 27.3366 30.6342 27.3618 30.8742 27.108C31.5186 26.4192 33.0858 23.0724 32.307 22.0482C31.5282 21.024 29.247 20.8518 27.462 21.2568C26.8997 21.4316 26.2953 21.4145 25.7438 21.2081C25.1923 21.0018 24.7251 20.6178 24.4158 20.1168C23.6178 18.8136 19.9662 27.2244 24.6162 30.2718Z" fill="#252525"/>
<path d="M25.3734 20.169C26.3376 19.1148 26.9532 18.4374 28.4334 17.9616C32.7048 16.5888 36.7464 20.427 36.3852 24.885C36.2426 25.6897 36.1576 26.5036 36.1308 27.3204C36.2495 28.078 36.3173 28.8427 36.3336 29.6094C35.8536 29.5752 35.2146 29.4894 34.8936 29.9022C34.7491 30.2476 34.669 30.6164 34.6572 30.9906C33.4866 30.9906 32.8806 29.8416 32.751 30.5604C32.7256 30.9946 32.8237 31.427 33.0338 31.8078C33.2439 32.1886 33.5575 32.5021 33.9384 32.712C33.078 34.8198 32.3964 35.034 29.5884 32.5698C29.325 32.3382 28.2762 32.4708 30.5352 34.1658C30.3759 34.8303 30.325 35.5161 30.3846 36.1968C30.42 36.5886 30.9294 36.6966 30.9396 36.2532C30.9478 35.6886 31.0096 35.1261 31.1244 34.5732C32.8458 35.679 34.0134 34.5702 34.4592 33.4368C34.629 33.006 34.9392 32.3862 34.4118 32.1462C33.9457 31.9391 33.5624 31.5816 33.3234 31.131C33.7968 31.4664 35.0436 31.911 35.1906 31.389C35.289 31.0404 35.3928 30.3132 35.3928 30.3132C36.9528 30.5412 37.3296 30.6732 36.942 27.5382C36.843 26.7378 37.1142 25.929 37.1916 24.8748C37.5546 19.905 33.2388 15.8676 28.1856 17.2284C27.4847 17.4092 26.8282 17.7314 26.2563 18.175C25.6844 18.6187 25.2092 19.1745 24.8598 19.8084C24.8333 19.8758 24.8302 19.9502 24.851 20.0195C24.8718 20.0889 24.9154 20.1493 24.9747 20.1909C25.0339 20.2325 25.1055 20.253 25.1778 20.249C25.2501 20.245 25.319 20.2169 25.3734 20.169Z" fill="#252525"/>
<path d="M34.9386 25.3495C34.7778 24.5659 33.2586 25.5133 33.2736 26.2837C33.2886 27.0541 33.8844 25.7863 34.5126 25.7629C34.6416 25.7581 35.0262 25.7755 34.9386 25.3495Z" fill="#252525"/>
<path d="M34.1466 27.0835C33.663 28.2793 34.452 28.4089 34.5774 27.8365C34.8396 26.6365 34.2498 26.8297 34.1466 27.0835Z" fill="#252525"/>
<path d="M14.2506 97.641C13.1496 97.9806 13.5492 100.45 14.1948 100.963C14.8404 101.475 16.0716 101.001 16.0062 99.7026C15.9636 98.8542 15.3096 97.314 14.2506 97.641ZM14.4702 99.7146C14.3634 99.3876 14.2464 98.2746 14.5992 98.4546C14.8975 98.7146 15.0917 99.0737 15.1458 99.4656C15.2832 100.166 14.7774 100.652 14.4702 99.7146Z" fill="#252525"/>
<path d="M25.3092 98.187C23.6952 97.413 23.292 101.194 24.939 101.526C26.6652 101.874 26.4402 98.73 25.3092 98.187ZM24.6462 100.059C24.5214 99.399 24.6204 98.949 24.8862 98.8758C25.152 98.8026 25.416 99.6846 25.3938 100.235C25.3692 100.885 24.7752 100.743 24.6462 100.059Z" fill="#252525"/>
<path d="M42.78 99.6C42.7422 100.771 43.5834 102.065 44.9316 100.766C45.7446 99.9834 45.7116 98.2152 44.6646 97.7544C43.5096 97.2444 42.81 98.6214 42.78 99.6ZM44.385 100.13C43.86 100.748 43.5954 100.285 43.5888 99.7764C43.5852 99.4626 43.7784 98.103 44.3376 98.5332C44.5334 98.7503 44.6455 99.03 44.6539 99.3222C44.6622 99.6144 44.5663 99.9001 44.3832 100.128L44.385 100.13Z" fill="#252525"/>
<path d="M42.4428 97.7309C38.6638 95.6046 34.391 94.5123 30.0552 94.5641C26.049 94.6187 19.7586 95.7215 16.101 97.4297C16.035 97.4711 15.9855 97.5342 15.9608 97.6081C15.9362 97.6819 15.938 97.7621 15.9659 97.8348C15.9938 97.9075 16.0462 97.9683 16.1139 98.0067C16.1817 98.0451 16.2607 98.0587 16.3374 98.0453C20.0361 96.7254 23.8865 95.8767 27.7974 95.5193C27.4788 95.7131 26.0484 96.7427 25.7016 97.4471C25.4454 97.9685 25.7754 98.1143 26.3016 97.6667C26.9562 97.1075 28.677 95.8247 30.0108 95.4803C31.0459 96.1103 32.0235 96.8303 32.9322 97.6319C33.672 98.2715 34.1724 97.8677 33.4914 97.1519C32.916 96.5519 32.2608 96.0287 31.6458 95.4653C35.3385 95.6498 38.9446 96.6489 42.2058 98.3909C42.696 98.6573 42.9402 98.0093 42.4428 97.7309Z" fill="#252525"/>
<path d="M33.7254 99.8784C33.5454 101.599 35.4504 102.135 36.1476 100.519C36.2766 100.211 36.3387 99.878 36.3299 99.5435C36.321 99.209 36.2413 98.8802 36.096 98.5788C35.5404 97.3956 33.9714 97.56 33.7254 99.8784ZM35.4462 100.072C35.1582 100.739 34.5234 101.104 34.53 99.9984C34.5336 99.3144 34.848 98.5098 35.25 98.7384C35.652 98.967 35.5686 99.7752 35.4396 100.072L35.4462 100.072Z" fill="#252525"/>
<path d="M77.6868 21.705C77.6868 22.686 79.7694 23.607 80.5308 23.1726C80.3349 23.6926 80.274 24.2539 80.3537 24.8039C80.4335 25.3539 80.6513 25.8747 80.9868 26.3178C81.3762 26.8014 81.5646 25.8834 82.1748 26.034C82.9722 26.2308 82.8072 28.461 82.0626 28.5168C81.594 28.5516 81.7962 29.046 81.7962 29.046C82.2935 30.6487 82.6829 32.283 82.962 33.9378C82.9706 34.0007 83.0017 34.0585 83.0496 34.1003C83.0974 34.1421 83.1588 34.1651 83.2224 34.1651C83.286 34.1651 83.3474 34.1421 83.3952 34.1003C83.4431 34.0585 83.4742 34.0007 83.4828 33.9378C83.58 33.261 82.7724 29.8578 82.4328 29.1378C83.2932 28.8324 83.4354 27.477 83.3328 26.6778C85.3638 25.017 84.7182 21.0156 82.5234 21.162C83.6556 18.7566 80.394 17.655 79.7142 19.122C78.8142 17.169 75.312 17.4012 74.9808 19.2726C74.4084 18.348 71.5434 18.1884 71.7192 20.4126C71.9352 23.1462 76.2882 23.2542 77.6868 21.705Z" fill="#252525"/>
<path d="M78.156 34.902C78.1932 34.4028 78.1902 33.8952 78.2076 33.396C78.5122 33.3596 78.8059 33.2606 79.0702 33.1051C79.3346 32.9495 79.5639 32.7409 79.7436 32.4924C79.7709 32.4647 79.7921 32.4316 79.806 32.3953C79.8199 32.359 79.826 32.3202 79.8242 32.2814C79.8223 32.2426 79.8124 32.2045 79.7951 32.1697C79.7778 32.1349 79.7535 32.1041 79.7237 32.0791C79.6939 32.0542 79.6592 32.0357 79.6219 32.0248C79.5846 32.0139 79.5454 32.0109 79.5069 32.0159C79.4683 32.0209 79.4312 32.0338 79.3979 32.0539C79.3646 32.0739 79.3358 32.1006 79.3134 32.1324C78.9024 32.5156 78.3786 32.7558 77.82 32.817C74.919 33.1674 73.989 29.835 73.9476 27.576C73.9194 26.0268 74.1498 24.306 74.2188 23.2086C74.2188 22.899 73.7586 22.8948 73.6938 23.1828C73.4998 24.642 73.4006 26.1123 73.3968 27.5844C73.392 30.2844 74.3736 33.5394 77.6136 33.4536C77.6078 34.0049 77.5677 34.5554 77.4936 35.1018C77.4222 35.679 78.084 35.8656 78.156 34.902Z" fill="#252525"/>
<path d="M28.0626 94.02C29.3857 93.9096 30.7157 93.9096 32.0388 94.02C32.0388 93.2886 32.0388 84.5539 31.9566 81.7531H28.0842C28.1058 83.1961 28.0242 89.943 28.0626 94.02Z" fill="#252525"/>
<path d="M44.2758 77.1379C45.3084 76.6219 49.4904 68.8765 48.4878 67.9255C47.4852 66.9745 30.3348 71.2387 28.695 71.9455C28.773 72.4105 29.556 76.5655 29.7798 77.3287C32.0472 77.4091 43.2432 77.6545 44.2758 77.1379Z" fill="#252525"/>
<path d="M48.6432 83.523C48.0759 82.3916 47.4152 81.3094 46.668 80.2878C46.3164 80.8332 45.817 81.2673 45.228 81.5394C42.9419 81.784 40.6404 81.8546 38.3436 81.7506C38.8596 83.9706 40.9506 91.7586 41.493 95.3172C44.2653 95.3017 47.0341 95.1192 49.7844 94.7706C49.6026 93.9 49.1118 86.9484 48.6432 83.523Z" fill="#252525"/>
<path d="M45.7944 101.173C47.0424 101.26 51.147 100.941 52.8468 100.907C52.8984 100.912 52.9507 100.907 53.0001 100.891C53.0495 100.875 53.095 100.849 53.1336 100.814C53.1723 100.779 53.2032 100.737 53.2243 100.689C53.2454 100.642 53.2564 100.591 53.2564 100.539C53.2564 100.487 53.2454 100.435 53.2243 100.388C53.2032 100.34 53.1723 100.298 53.1336 100.263C53.095 100.229 53.0495 100.202 53.0001 100.186C52.9507 100.17 52.8984 100.165 52.8468 100.171C51.1278 100.328 47.0208 100.386 45.7986 100.601C45.7375 100.619 45.684 100.657 45.6459 100.708C45.6077 100.76 45.5869 100.822 45.5864 100.885C45.586 100.949 45.6059 101.012 45.6433 101.063C45.6807 101.115 45.7336 101.154 45.7944 101.173Z" fill="#252525"/>
<path d="M55.0368 96.4879C54.7708 97.3495 54.5681 98.2295 54.4302 99.1207C54.111 101.088 54.7902 101.341 56.6592 101.449C57.5196 101.499 58.38 101.449 59.271 101.449C59.757 101.449 59.886 100.729 59.301 100.729C53.7888 100.729 54.9162 101.065 55.665 96.6415C55.6749 96.6002 55.6766 96.5574 55.6699 96.5155C55.6633 96.4736 55.6484 96.4335 55.6262 96.3973C55.6041 96.3612 55.575 96.3297 55.5407 96.3048C55.5063 96.2799 55.4674 96.262 55.4262 96.2521C55.385 96.2422 55.3422 96.2405 55.3003 96.2472C55.2584 96.2538 55.2182 96.2686 55.182 96.2908C55.1459 96.313 55.1144 96.3421 55.0895 96.3764C55.0646 96.4107 55.0467 96.4496 55.0368 96.4909V96.4879Z" fill="#252525"/>
<path d="M53.802 97.701C52.6653 96.852 51.4282 96.1467 50.1186 95.601C50.0821 95.583 50.0425 95.5724 50.0019 95.5697C49.9613 95.5671 49.9206 95.5725 49.8821 95.5856C49.8436 95.5987 49.808 95.6192 49.7775 95.6461C49.7469 95.6729 49.722 95.7055 49.704 95.742C49.3668 96.4248 51.8568 96.9954 53.304 98.262C53.3784 98.328 53.476 98.3618 53.5753 98.3559C53.6746 98.35 53.7675 98.3049 53.8335 98.2305C53.8995 98.1561 53.9333 98.0585 53.9274 97.9592C53.9215 97.8599 53.8764 97.767 53.802 97.701Z" fill="#252525"/>
<path d="M59.7228 81.9054C57.8508 75.8814 54.7272 68.8464 52.236 68.6454C51.42 71.7162 48 78.48 46.9908 79.569C49.4388 82.4778 52.8108 90.5454 54.5766 95.9196C56.305 95.9422 58.0321 95.8184 59.7396 95.5494C59.796 90.7992 59.796 86.3544 59.7228 81.9054Z" fill="#252525"/>
<path d="M44.0862 48.774C45.2544 48.9618 48.3072 49.233 48.789 49.0884C49.0776 49.0014 48.8748 48.573 48.6342 48.5328C47.019 48.2634 45.3942 48.2406 44.3658 48.1026C46.2552 42.24 48.669 36.6318 50.532 30.8916C54.2364 30.7542 58.707 30.9216 62.6832 30.9732C61.4436 34.5732 59.9502 39.5364 58.6032 42.9438C58.4778 43.2618 59.0334 43.374 59.154 43.0986C59.847 41.7516 62.3718 34.3506 63.054 32.3418C63.3636 31.4334 63.8844 30.2418 62.5938 30.1902C60.1026 30.0954 53.1834 29.9448 50.6022 30.1902C49.8822 30.2592 49.917 30.2676 49.6944 30.9348C47.7906 36.6294 45.8172 42.3414 43.6704 47.922C43.4742 48.4398 43.4436 48.6708 44.0862 48.774Z" fill="#252525"/>
<path d="M47.5158 43.1802C47.2272 43.2666 47.1708 43.7076 47.4768 43.7658C47.9454 43.8546 51.9906 44.4366 52.2834 44.325C52.5762 44.2134 52.5036 43.893 52.326 43.7352C52.0524 43.4922 48.06 43.017 47.5158 43.1802Z" fill="#252525"/>
<path d="M48.5826 40.6247C48.2082 40.6583 48.1524 41.2733 48.5442 41.3045C51.195 41.5157 53.9994 41.7917 56.6442 41.9495C57.1044 41.9771 57.273 41.3015 56.7864 41.2181C55.6404 41.0225 49.9338 40.4999 48.5826 40.6247Z" fill="#252525"/>
<path d="M53.6082 33.8645C53.7629 33.756 53.8809 33.603 53.9465 33.4259C54.0121 33.2487 54.0222 33.0558 53.9755 32.8727C53.9288 32.6896 53.8275 32.5251 53.6851 32.401C53.5426 32.2769 53.3657 32.1991 53.178 32.1779C52.0776 32.0711 51.4608 32.8307 51.738 33.5507C51.9636 34.1435 52.7946 34.4321 53.6082 33.8645Z" fill="#252525"/>
<path d="M49.383 38.7599C52.059 38.9771 54.6582 39.0101 57.363 39.2933C57.8148 39.3407 57.9438 38.6447 57.4878 38.5925C56.3862 38.4653 50.4522 37.9193 49.338 38.1875C49.0386 38.2577 49.1208 38.7359 49.383 38.7599Z" fill="#252525"/>
<path d="M55.4244 36.339C56.4179 36.5154 57.4281 36.5788 58.4358 36.528C58.923 36.5004 58.9092 35.7792 58.3542 35.7366C57.21 35.649 56.4054 35.6592 55.5276 35.6508C55.4487 35.6595 55.3749 35.6941 55.3177 35.7492C55.2605 35.8042 55.2231 35.8767 55.2113 35.9552C55.1996 36.0337 55.2141 36.1139 55.2526 36.1833C55.2911 36.2527 55.3515 36.3074 55.4244 36.339Z" fill="#252525"/>
<path d="M49.8996 36.4422C51.2579 36.5747 52.6221 36.638 53.9868 36.6318C54.6972 34.0884 50.2134 34.0758 49.8996 36.4422Z" fill="#252525"/>
<path d="M56.5344 43.4082C56.736 43.2312 56.6334 42.8196 56.3232 42.879C55.5809 43.0685 54.8854 43.4083 54.2796 43.8774C53.8194 44.4774 54.2322 46.5234 54.654 47.2032C55.0758 47.883 55.3614 47.3418 55.2906 47.1174C55.131 46.611 54.7296 44.6508 54.9162 44.3574C55.023 44.1864 55.9944 43.8834 56.5344 43.4082Z" fill="#252525"/>
<path d="M59.4174 34.1706C59.5053 34.1474 59.5836 34.097 59.6411 34.0266C59.6986 33.9562 59.7323 33.8694 59.7375 33.7787C59.7427 33.6879 59.7191 33.5978 59.67 33.5214C59.6209 33.4449 59.5489 33.3859 59.4642 33.3528C55.6176 32.7894 55.4928 33.8562 55.9794 33.9726C56.466 34.089 57.9972 34.0584 59.4174 34.1706Z" fill="#252525"/>
<path d="M60.4884 40.7064C60.1026 41.8098 60.552 42.7056 59.5374 43.4946C58.6836 44.061 57.7436 44.4854 56.754 44.751C56.514 44.8338 56.154 45.8736 58.6212 44.811C60.8874 43.8354 60.7758 43.3062 61.005 40.7496C61.0326 40.44 60.5802 40.4442 60.4884 40.7064Z" fill="#252525"/>
<path d="M60.0972 44.58C59.6664 46.215 59.9718 48.4578 57.8856 49.9626C57.4902 50.2476 57.972 50.9148 58.4448 50.5692C60.2034 49.2834 60.8502 46.6692 60.5958 44.6016C60.5811 44.5482 60.5498 44.5007 60.5064 44.4662C60.463 44.4316 60.4098 44.4117 60.3544 44.4093C60.299 44.4069 60.2442 44.4221 60.198 44.4528C60.1518 44.4835 60.1165 44.528 60.0972 44.58Z" fill="#252525"/>
<path d="M101.533 58.5888C102.729 58.5066 104.85 58.6146 106.615 58.5888C106.942 56.4672 108.115 47.109 108.464 44.9088C108.814 42.7086 107.81 42.435 106.021 42.4086C104.231 42.3822 102.759 42.3828 99.2784 42.4086C102.079 48.4944 101.752 56.007 101.533 58.5888Z" fill="#252525"/>
</svg>
