<svg width="120" height="120" viewBox="0 0 120 120" fill="none" xmlns="http://www.w3.org/2000/svg">
<path d="M82.4868 24.9437C82.3104 25.1201 81.0324 26.4863 81.1668 26.7065C80.5682 25.6551 79.7577 24.7395 78.7866 24.0179C75.3066 21.6377 70.632 23.7977 68.6928 27.1475C68.0025 28.41 67.637 29.8244 67.6292 31.2633C67.6215 32.7022 67.9717 34.1204 68.6484 35.3903C68.7084 35.3867 75.6408 35.2577 75.7014 35.2577C75.7014 35.2577 77.0346 30.6755 78.2574 26.0897C78.2935 25.9667 78.3721 25.8605 78.4793 25.7902C78.5865 25.7199 78.7152 25.69 78.8424 25.7059C78.9696 25.7217 79.087 25.7823 79.1737 25.8768C79.2603 25.9714 79.3104 26.0936 79.3152 26.2217C79.4988 31.1381 79.869 35.2997 80.2854 39.7541C80.3292 39.5333 80.4168 39.3569 80.4618 39.1367C81.3432 35.8307 82.0926 32.5253 83.0616 29.2631C83.1942 28.8227 83.9436 28.7345 84.0318 29.2631C84.288 31.0559 85.1568 35.5331 85.5744 37.9031C85.8834 37.1099 86.1918 36.3161 86.5446 35.5229C86.5821 35.3988 86.6575 35.2895 86.7603 35.2104C86.863 35.1313 86.988 35.0864 87.1176 35.0819C89.3214 35.0819 91.4814 35.1263 93.6852 35.1701C93.7468 35.1682 93.8077 35.1836 93.861 35.2145C97.848 26.5451 87.6222 19.6247 82.4868 24.9437Z" fill="#644DF6"/>
<path d="M87.4236 36.2719C87.159 36.8449 86.9388 37.4179 86.6742 37.9909C86.454 38.5201 86.0568 40.3273 85.3542 40.3273C85.2356 40.3244 85.1209 40.2846 85.0261 40.2134C84.9312 40.1422 84.8609 40.0432 84.825 39.9301C84.765 39.6613 83.478 32.6239 83.325 31.7317C83.313 31.7917 81.225 40.2577 80.505 42.6631C80.4541 42.8003 80.353 42.9131 80.2221 42.9786C80.0912 43.0441 79.9403 43.0575 79.8 43.0159C79.2264 42.8395 79.359 41.6959 79.3146 41.2087C79.0146 38.3659 78.6996 35.7697 78.345 29.6599C78.33 29.7367 76.8594 35.4841 76.4058 36.0517C76.1412 36.3157 75.7002 36.2719 75.348 36.3157C74.1948 36.3985 70.7058 36.3667 69.0888 36.2719C71.5584 40.2847 76.818 43.6957 80.9898 45.8809C81.0415 45.9076 81.0992 45.9203 81.1573 45.9177C81.2154 45.9151 81.2718 45.8973 81.3209 45.8661C81.3699 45.8349 81.41 45.7913 81.4369 45.7398C81.4639 45.6883 81.4769 45.6306 81.4746 45.5725C85.3608 43.8061 90.8076 40.0183 93.1116 36.3157C91.26 36.3601 89.3628 36.3157 87.4236 36.2719Z" fill="#644DF6"/>
<path d="M51.8964 41.2529C52.5319 39.5857 52.9898 37.8561 53.2626 36.0929C53.4984 33.9725 53.4222 34.2809 53.4834 33.6689C53.4834 33.5807 53.307 33.5363 53.307 33.6245C53.2626 33.9773 53.1306 34.2845 53.0862 34.6385C52.7928 35.8127 52.0854 41.3021 49.7364 43.7627C48.24 45.3521 45.9 46.3199 43.74 45.7487C42.6236 45.4814 41.5723 44.9925 40.6486 44.311C39.7249 43.6295 38.9476 42.7693 38.3628 41.7815C37.0842 39.8423 36.6432 37.5503 36.2466 35.2577C36.2466 35.1701 36.1584 35.1257 36.0702 35.1257C35.6631 35.0528 35.2494 35.0232 34.836 35.0375C34.4706 35.0123 34.1124 34.9228 33.7782 34.7729C32.0484 34.0445 31.3572 31.4129 32.5884 30.1007C32.8649 29.7496 33.2353 29.4843 33.6567 29.3356C34.0781 29.1869 34.533 29.1609 34.9686 29.2607C35.2332 29.3489 35.3214 28.9523 35.0568 28.8641C33.2496 28.1147 31.2216 29.9219 31.3098 31.7735C31.301 32.4674 31.4707 33.1519 31.8026 33.7613C32.1345 34.3707 32.6175 34.8845 33.2052 35.2535C34.0064 35.711 34.9497 35.8527 35.85 35.6507C36.15 39.2693 36.9612 41.6543 39.597 44.2907C40.5161 45.1093 41.5974 45.7251 42.7704 46.0979C43.9454 46.5205 45.2148 46.6083 46.4368 46.3513C47.6589 46.0944 48.7854 45.5029 49.6908 44.6429C50.6726 43.6939 51.4266 42.5349 51.8964 41.2529Z" fill="#252525"/>
<path d="M74.9496 53.0215C70.119 46.3555 62.3856 40.5517 54.1446 40.9441C54.012 40.9441 54.012 41.1205 54.1446 41.1643C70.8702 42.6103 79.7226 58.9807 84.2496 75.1489C79.6271 77.8613 74.6182 79.8532 69.3954 81.0559C68.2932 81.2761 65.9574 81.0115 65.9574 80.8789C65.3666 76.6678 64.438 72.5109 63.1806 68.4487C62.67 66.7897 62.304 66.1441 61.902 65.0989C61.8156 64.9123 61.4952 65.0455 61.572 65.2429C62.9203 69.2828 63.9589 73.4196 64.6788 77.6173C64.8996 78.8071 65.4726 81.4963 65.5188 81.4963C66.4884 82.0249 68.8692 81.7609 68.913 81.7609C69.075 82.4113 70.134 84.0211 71.5134 88.5043C67.9787 88.0284 64.405 87.9104 60.8466 88.1521C60.2736 88.1959 59.7006 88.2841 59.1276 88.2841C58.9512 88.2841 58.9512 88.5493 59.1276 88.5925C64.4634 88.8151 70.9596 88.1785 75.8772 90.5329C76.1418 90.6643 76.4064 90.2677 76.1418 90.0919C74.9186 89.3286 73.5547 88.8185 72.1308 88.5919C72.1308 87.7597 69.843 82.2049 69.2658 81.6277C73.9273 80.661 78.4252 79.0281 82.6212 76.7791C83.247 76.4848 83.8509 76.1461 84.4284 75.7657C85.1385 78.3164 85.6979 80.9067 86.1036 83.5231C86.6136 86.3929 87.2358 91.6339 86.853 94.5427C86.3448 98.2027 84.6708 100.433 80.8584 101.463C77.8668 102.271 73.3854 102.013 70.3236 101.639C64.3536 100.923 59.6622 99.3343 54.5436 97.6279C55.2404 96.5575 55.859 95.4382 56.3946 94.2787C56.8794 92.9587 57.012 91.1485 57.144 91.0603C58.6866 90.3115 58.3344 87.9307 58.0254 86.5651C57.6732 84.8893 56.7912 82.7299 55.0722 82.0243C54.147 81.6277 53.133 81.8041 52.1634 81.8479C51.0174 81.8923 49.2984 81.9805 48.5034 82.9939C47.9304 83.7433 48.2832 85.3309 48.4596 86.1679C48.768 87.8425 49.341 89.8711 50.7516 90.9283C50.7174 91.1209 51.213 92.4541 49.5174 93.8815C49.2108 94.1269 47.124 95.3563 46.608 95.2921C46.3307 95.0218 46.0006 94.8116 45.6384 94.6747C45.3738 94.6309 45.0654 94.8955 45.33 95.1601C47.1342 96.9649 49.6014 98.9017 52.0296 99.6565C52.7352 99.8767 54.0576 97.9807 54.1896 98.0689C54.2496 98.0899 67.8024 103.861 78.9174 102.522C80.6235 102.38 82.2782 101.868 83.766 101.022C88.4874 98.1601 87.8754 91.9993 87.246 86.6083C85.8696 74.0743 80.7486 61.0945 74.9496 53.0215ZM49.9572 88.8133C49.2264 87.4153 49.0752 85.6843 48.9432 84.2287C48.855 83.1709 49.9128 82.8187 50.7942 82.6423C52.161 82.3783 54.1884 82.0249 55.3788 82.9069C56.745 83.9209 57.2742 85.6843 57.5388 87.2701C57.6714 88.1521 57.8916 89.5627 57.2304 90.2701C56.7894 90.7555 55.9962 90.7993 55.4232 90.8869C51.909 91.5049 50.9316 90.6787 49.9572 88.8133Z" fill="#252525"/>
<path d="M13.5924 38.4755C17.9544 32.8061 21.9996 30.8177 22.1874 30.6299C27.6 34.6451 30.6474 38.4725 32.061 39.8861C32.0787 39.9028 32.1022 39.9119 32.1265 39.9116C32.1508 39.9112 32.174 39.9015 32.1912 39.8843C32.2084 39.8672 32.2183 39.844 32.2187 39.8197C32.2192 39.7954 32.2102 39.7719 32.1936 39.7541C29.4743 35.9618 26.1365 32.6539 22.32 29.9687C18.7938 27.3677 14.1216 24.3287 9.7134 26.6627C5.526 28.8665 4.3362 33.8471 3.72 38.1227C2.67171 45.4846 2.77575 52.9647 4.0284 60.2945C3.93862 60.3299 3.85708 60.3834 3.78885 60.4516C3.72062 60.5198 3.66716 60.6014 3.6318 60.6911C2.8386 63.3359 4.5576 66.3773 5.439 68.8013C5.5716 69.1097 5.7474 69.1979 6.012 69.1547C5.19374 70.4237 4.52794 71.7847 4.0284 73.2095C3.4554 74.8847 3.1914 76.7357 4.0728 78.3221C4.56978 79.2293 5.28104 80.0011 6.1446 80.5703C6.3648 80.7023 6.6294 80.3945 6.453 80.2175C5.7976 79.636 5.20642 78.9859 4.6896 78.2783C3.3042 76.1999 4.3386 73.3907 5.3952 71.1383L6.3204 69.0221C6.3648 69.0221 10.3758 67.2593 12.0948 67.2149C12.2712 67.6121 14.2986 71.0501 13.8582 72.5927C13.4748 73.9727 12.015 75.7025 11.0814 76.7801C10.8168 77.0891 11.2572 77.5301 11.5218 77.2211C12.9348 75.6857 14.7798 73.5011 14.6514 71.4467C14.5686 69.9527 13.5078 68.4593 12.8442 67.2149C12.8886 67.2149 13.4172 66.9947 13.329 66.7745C12.4253 64.6923 12.2092 62.376 12.7122 60.1625C12.756 59.9861 12.3156 59.6777 12.2712 59.6777C12.4914 58.0469 12.8004 56.4599 13.1526 54.8291C13.197 54.6527 12.9324 54.5645 12.8886 54.7409C12.3565 56.2728 11.9727 57.8523 11.7426 59.4575C10.0452 58.6067 5.2626 59.6339 4.6026 59.9861C3.53529 53.5173 3.35745 46.9329 4.074 40.4159C4.27816 38.0736 4.70611 35.7563 5.352 33.4955C6.7032 29.0483 10.008 25.6799 14.52 26.6183C16.7676 27.0593 18.7956 28.2935 20.691 29.5715C21.0315 29.7817 21.3555 30.0176 21.66 30.2771C17.9928 32.1101 12.7668 37.8809 11.04 41.3405C10.839 40.9391 9.9516 38.3045 9.4974 38.6081C8.9682 38.8283 10.2906 41.0759 10.599 41.8697C10.3436 42.5294 10.1374 43.207 9.9822 43.8971C9.9822 43.9415 9.894 43.9853 9.9384 44.0297C10.7508 47.1366 11.8121 50.173 13.1118 53.1095C14.3898 56.2391 15.7122 59.4095 18.0042 61.9253C19.5912 63.6881 21.6186 65.2313 23.9988 65.7161C24.1752 65.7599 24.2634 65.4953 24.087 65.4515C20.4954 63.9795 17.5742 61.2324 15.8844 57.7379C14.3715 54.6953 13.0179 51.5761 11.829 48.3929C10.7166 45.3731 10.5126 45.0167 10.1982 44.0729C10.5493 43.1497 10.9915 42.2637 11.5182 41.4281C12.18 40.4153 12.8454 39.4469 13.5924 38.4755Z" fill="#252525"/>
<path d="M21.6144 67.6115C21.6144 67.5765 21.6005 67.5429 21.5757 67.5182C21.551 67.4934 21.5174 67.4795 21.4824 67.4795C21.4474 67.4795 21.4138 67.4934 21.3891 67.5182C21.3643 67.5429 21.3504 67.5765 21.3504 67.6115C21.1296 70.0355 20.9094 72.4601 20.8656 74.8841C20.6792 82.1279 21.0179 89.3757 21.879 96.5705C22.0452 97.8593 22.797 103.376 23.1576 104.637C23.2458 104.858 23.598 104.858 23.598 104.593C23.4216 102.123 20.535 89.9171 21.6144 67.6115Z" fill="#252525"/>
<path d="M30.6066 76.0308C29.6944 76.4244 28.9359 77.1054 28.4466 77.97C28.4217 78.017 28.4143 78.0713 28.4259 78.1233C28.4375 78.1752 28.4673 78.2213 28.5098 78.2532C28.5524 78.2851 28.605 78.3008 28.658 78.2974C28.7111 78.2939 28.7613 78.2717 28.7994 78.2346C30.7356 75.8142 34.6974 75.2946 37.2186 76.7346C38.4008 77.427 39.5085 78.2395 40.524 79.1592C47.3382 84.966 46.3986 84.6342 47.7972 85.3302C48.0618 85.4184 48.15 85.1094 48.0174 84.9336C47.9574 84.8736 45.672 82.7676 45.1524 82.4214C43.2978 80.5668 39.9534 77.5554 37.659 76.1616C36.565 75.624 35.3661 75.3336 34.1474 75.311C32.9286 75.2884 31.7198 75.5341 30.6066 76.0308Z" fill="#252525"/>
<path d="M30.21 79.8654C30.8997 79.3147 31.7193 78.9504 32.5902 78.8076C32.8548 78.7632 32.8986 78.3228 32.5902 78.3666C31.5953 78.4085 30.6389 78.7631 29.8572 79.38C29.4168 79.7328 27.918 81.1434 28.3146 81.8046C28.3584 81.8928 28.623 81.8928 28.8438 81.54C29.1543 80.8778 29.6236 80.3025 30.21 79.8654Z" fill="#252525"/>
<path d="M33.3396 81.5838C33.3702 81.5766 33.399 81.5632 33.4243 81.5445C33.4495 81.5257 33.4707 81.502 33.4864 81.4748C33.5021 81.4475 33.5121 81.4174 33.5157 81.3861C33.5193 81.3549 33.5165 81.3232 33.5075 81.2931C33.4984 81.263 33.4833 81.2351 33.463 81.211C33.4427 81.187 33.4177 81.1674 33.3896 81.1533C33.3614 81.1393 33.3307 81.1312 33.2993 81.1295C33.2679 81.1278 33.2365 81.1325 33.207 81.1434C32.2814 81.2793 31.3952 81.6098 30.6066 82.113C30.2115 82.3751 29.8719 82.7125 29.6072 83.1058C29.3425 83.4992 29.1579 83.9409 29.064 84.4056C29.0418 84.5663 29.0418 84.7292 29.064 84.8898C29.064 84.978 29.2842 85.0668 29.3286 84.8898C30.1986 83.1486 30.345 82.584 33.3396 81.5838Z" fill="#252525"/>
<path d="M34.1772 87.4469C33.777 87.4469 31.554 88.5269 30.783 87.4025C30.6292 87.1199 30.5718 86.7947 30.6195 86.4765C30.6673 86.1582 30.8176 85.8642 31.0476 85.6391C31.5245 85.0679 32.1281 84.616 32.8104 84.3191C33.0312 84.2309 32.8548 83.8349 32.634 83.9231C30.0582 84.8891 29.5398 86.9561 30.5628 87.9779C30.9441 88.3056 31.4265 88.4922 31.929 88.5065C32.5285 88.4881 33.1223 88.3843 33.6924 88.1981C33.9126 88.1105 34.2654 88.0223 34.3974 87.8453C34.4177 87.7634 34.4063 87.6768 34.3654 87.603C34.3246 87.5291 34.2574 87.4733 34.1772 87.4469Z" fill="#252525"/>
<path d="M47.1804 93.75C45.2532 92.6262 45.162 92.1498 44.403 92.3394C42.0954 93.2628 39.4668 92.5248 38.4084 91.3254C37.9323 90.6247 37.575 89.8503 37.3506 89.0334C36.9978 88.1934 36.5106 87.2706 35.6754 86.8734C35.4552 86.7858 35.2788 87.0936 35.4996 87.1824C36.1772 87.6893 36.6466 88.4259 36.8196 89.2542C37.3404 90.5934 37.5198 92.3508 40.2576 93.1326C41.6728 93.545 43.1804 93.5143 44.5776 93.0444C45.1428 92.8044 45.6036 93.7578 46.9578 94.2786C47.2242 94.4112 47.4888 93.9702 47.1804 93.75Z" fill="#252525"/>
<path d="M46.2984 41.385C46.6338 40.7976 46.5354 40.161 46.7394 36.492C46.7394 36.1836 46.2984 36.1836 46.2546 36.492C45.8028 40.56 45.6774 40.8 45.858 41.34C45.8753 41.382 45.9037 41.4185 45.9401 41.4456C45.9765 41.4727 46.0196 41.4894 46.0648 41.4941C46.1099 41.4987 46.1555 41.491 46.1966 41.4718C46.2377 41.4526 46.2729 41.4226 46.2984 41.385Z" fill="#252525"/>
<path d="M43.3008 43.104C43.0368 42.9276 42.7278 43.3242 42.9924 43.5006C43.5101 43.9191 44.1376 44.1793 44.7996 44.25C45.4478 44.3246 46.1039 44.2178 46.695 43.9416C46.9158 43.8534 46.7394 43.4568 46.5186 43.545C45.9826 43.7114 45.4167 43.7582 44.8607 43.682C44.3047 43.6058 43.7722 43.4085 43.3008 43.104Z" fill="#252525"/>
<path d="M54.3204 35.6105C54.585 35.7869 54.9378 35.5667 55.2024 35.4785C56.0725 35.1608 56.7946 34.5328 57.2298 33.7151C57.4234 33.0963 57.3978 32.4297 57.1574 31.8275C56.9169 31.2254 56.4763 30.7244 55.9098 30.4091C55.8838 30.3947 55.8551 30.3855 55.8255 30.3821C55.7959 30.3787 55.766 30.3812 55.7373 30.3894C55.7087 30.3975 55.6819 30.4113 55.6586 30.4298C55.6353 30.4484 55.6159 30.4713 55.6014 30.4973C55.5869 30.5234 55.5777 30.552 55.5744 30.5816C55.571 30.6112 55.5734 30.6412 55.5816 30.6698C55.5898 30.6984 55.6036 30.7252 55.6221 30.7485C55.6406 30.7718 55.6636 30.7913 55.6896 30.8057C56.1413 31.1172 56.4811 31.5654 56.6592 32.0843C57.0018 33.2243 56.7132 33.8843 55.6014 34.5527C55.3908 34.6872 55.1702 34.8051 54.9414 34.9055C54.7212 34.9931 54.4122 35.0375 54.2814 35.2577C54.2531 35.2795 54.2309 35.3081 54.2169 35.341C54.203 35.3738 54.1977 35.4096 54.2016 35.4451C54.2055 35.4806 54.2185 35.5144 54.2393 35.5434C54.2601 35.5724 54.288 35.5955 54.3204 35.6105Z" fill="#252525"/>
<path d="M99.3246 44.0736C99.345 44.0727 99.3646 44.0652 99.3804 44.0523C99.3962 44.0393 99.4074 44.0216 99.4123 44.0018C99.4172 43.9819 99.4156 43.9611 99.4077 43.9422C99.3998 43.9234 99.386 43.9076 99.3684 43.8972C93.7638 42.6786 88.305 45.9246 86.1012 50.3328C86.4096 50.2008 86.718 50.0244 87.0264 49.8918C89.2164 46.143 93.7686 43.5684 99.3246 44.0736Z" fill="#252525"/>
<path d="M104.658 63.7326C108.551 59.9448 109.06 53.6598 106.466 49.5834C106.446 49.5486 106.419 49.5181 106.387 49.4938C106.354 49.4694 106.318 49.4516 106.279 49.4413C106.24 49.4311 106.199 49.4286 106.16 49.434C106.12 49.4395 106.081 49.4527 106.046 49.473C106.012 49.4933 105.981 49.5202 105.957 49.5523C105.932 49.5843 105.915 49.6209 105.904 49.6598C105.894 49.6988 105.892 49.7393 105.897 49.7793C105.902 49.8192 105.916 49.8576 105.936 49.8924C107.034 51.7466 107.561 53.8829 107.453 56.035C107.344 58.187 106.605 60.2595 105.326 61.994C104.048 63.7284 102.287 65.0481 100.263 65.7883C98.2395 66.5286 96.0428 66.6566 93.9468 66.1566C93.903 66.1566 93.8586 66.1128 93.8148 66.1128C94.3878 65.5452 95.583 49.0266 95.622 47.8644C95.622 47.4234 94.9164 47.2914 94.8282 47.7762C94.3878 50.0682 94.2552 52.4484 93.9882 54.7848C92.9682 65.6034 92.8416 64.6926 92.8416 65.8038V65.8488C88.14 64.1214 84.702 59.3238 85.44 54.3438C85.218 54.1962 84.9816 54.0486 84.867 53.991C83.9154 59.2152 87.327 64.4196 92.3604 66.3774C94.4504 67.1453 96.7154 67.3044 98.8923 66.8362C101.069 66.368 103.068 65.2918 104.658 63.7326Z" fill="#252525"/>
<path d="M92.8896 57.4734C92.901 57.4092 93.9912 47.5278 93.9912 47.4678C90.3039 48.8814 86.7241 50.5608 83.28 52.4928C85.416 53.5608 87.798 55.3422 92.8896 57.4734Z" fill="#644DF6"/>
<path d="M102.763 51.6551C103.084 51.6498 103.399 51.5746 103.688 51.4349C103.732 51.4349 103.732 51.4349 103.776 51.3905C105.055 50.1125 106.025 47.9105 106.51 46.1453C106.95 44.5145 106.818 42.5309 105.364 41.4731C104.855 41.1169 104.243 40.937 103.622 40.9608C103.001 40.9847 102.405 41.2109 101.925 41.6051C100.647 42.6191 100.425 44.3819 100.823 45.8807C101.308 47.7323 102.41 49.3607 103.38 51.0377C103.204 51.0377 103.072 51.0821 102.895 51.0821C101.47 51.2621 99.0672 51.5735 98.3106 52.9775C98.1691 53.2734 98.0957 53.5973 98.0957 53.9252C98.0957 54.2532 98.1691 54.577 98.3106 54.8729C99.2784 56.8073 103.936 58.2401 101.617 60.5591C100.162 62.1671 97.2072 63.4391 95.181 64.2191C95.049 64.2629 95.0934 64.4837 95.2254 64.4393C97.3639 63.913 99.3832 62.9858 101.176 61.7069C101.884 61.2414 102.425 60.5617 102.719 59.7671C102.793 59.4797 102.8 59.179 102.739 58.8884C102.678 58.5979 102.55 58.3255 102.366 58.0925C101.256 56.4599 98.6634 55.5473 98.6634 53.9489C98.4348 52.3475 101.153 51.8339 102.763 51.6551ZM101.837 42.4865C102.156 42.0647 102.61 41.7646 103.123 41.6364C103.636 41.5081 104.178 41.5593 104.657 41.7815C106.069 42.4865 106.245 44.3381 105.937 45.7043C105.479 47.6243 103.99 49.7615 103.645 50.6843C102.715 48.2867 99.9762 44.9045 101.837 42.4865Z" fill="#252525"/>
<path d="M55.5552 84.0528C55.3625 83.7038 55.0488 83.4372 54.6732 83.3034C53.5957 83.2481 52.5154 83.322 51.4554 83.5236C51.0832 83.6296 50.7488 83.8392 50.4913 84.1281C50.2338 84.417 50.0637 84.7731 50.001 85.155C50.0018 85.4681 50.0465 85.7795 50.1336 86.0802C50.22 86.1228 55.3758 84.0528 55.5552 84.0528Z" fill="#644DF6"/>
<path d="M56.304 88.9452C56.655 88.353 56.3484 87.5652 56.3484 87.0942C56.3484 87.0942 51.72 89.0742 51.3234 89.2104C51.4634 89.4317 51.6426 89.6257 51.852 89.7828C52.1692 89.9777 52.5388 90.0701 52.9104 90.0474C53.3952 90.0474 55.6608 90.0318 56.304 88.9452Z" fill="#644DF6"/>
<path d="M56.172 86.2121C56.0838 85.7717 55.9956 85.2863 55.8636 84.8459C55.3788 85.0661 50.442 86.8295 50.3538 86.8295C50.4858 87.1817 50.8386 88.2839 50.9268 88.5041C51.3234 88.2839 56.0838 86.2565 56.172 86.2121Z" fill="#644DF6"/>
<path d="M43.0368 36.7567C42.1968 36.1981 42.0906 38.9047 42.9486 38.4757C43.4334 38.2555 43.4334 37.0201 43.0368 36.7567Z" fill="#252525"/>
<path d="M49.6926 36.7567C48.8526 36.1981 48.7464 38.9047 49.6044 38.4757C50.0892 38.2555 50.0448 37.0201 49.6926 36.7567Z" fill="#252525"/>
<path d="M54.72 30.5855C55.164 29.4407 54.8076 28.2053 54.5436 27.0593C54.4878 26.8919 54.0354 26.8871 53.9706 27.1475C53.7829 27.8095 53.4159 28.4068 52.9103 28.8735C52.4046 29.3402 51.7799 29.6581 51.105 29.7923C49.8642 30.0859 48.5885 30.2047 47.3148 30.1451C42.897 30.0701 39.105 28.3253 36.5148 24.5051C36.2946 24.1967 36.1182 24.5051 35.9856 24.6815C35.8098 24.9461 35.589 25.1663 35.4126 25.4309C34.8396 26.2241 34.6638 26.7509 35.1486 27.6347C39.6414 36.0599 52.5798 36.0953 54.72 30.5855Z" fill="#252525"/>
<path d="M40.8324 24.9882C42.0924 26.6832 41.7552 27.8916 41.9784 28.338C42.0666 28.47 42.243 28.5144 42.3312 28.3818C42.684 27.9852 42.552 27.2802 42.4194 26.7954C42.2613 25.9874 41.9211 25.2261 41.4246 24.5692C40.9282 23.9124 40.2886 23.3773 39.5544 23.0046C37.2672 21.9066 34.5666 22.7814 32.8104 20.9328C32.4128 20.4686 32.114 19.9282 31.9321 19.3446C31.7502 18.7611 31.6892 18.1466 31.7526 17.5386C31.7526 17.4066 31.5762 17.4066 31.5762 17.4948C31.3835 17.988 31.3071 18.519 31.353 19.0465C31.3988 19.574 31.5658 20.0838 31.8408 20.5362C32.1096 21.0328 32.4738 21.4713 32.9126 21.8268C33.3513 22.1822 33.8559 22.4475 34.3974 22.6074C35.5872 22.9602 36.8658 22.9602 38.0574 23.2248C39.1556 23.4811 40.1341 24.1028 40.8324 24.9882Z" fill="#252525"/>
<path d="M45.24 29.2201C45.5484 29.1319 45.6366 28.9117 45.7686 28.6033C46.4263 27.0403 46.513 25.2957 46.0136 23.6752C45.5141 22.0547 44.4603 20.6616 43.0368 19.7401C41.9346 18.9907 40.6122 18.7267 39.3768 18.1975C38.187 17.6689 36.9084 16.7431 36.7764 15.3325C36.7764 15.1561 36.5118 15.1561 36.468 15.3325C36.473 15.8765 36.6125 16.4108 36.8743 16.8876C37.136 17.3645 37.5118 17.7692 37.968 18.0655C39.0258 18.8149 40.3044 19.1233 41.448 19.6519C43.0871 20.3452 44.387 21.6562 45.0665 23.3011C45.7459 24.9459 45.75 26.7922 45.078 28.4401C44.8422 29.0143 45.0936 29.2927 45.24 29.2201Z" fill="#252525"/>
<path d="M48.723 28.8666C48.636 29.0874 48.9432 29.2194 49.1196 29.0868C50.001 28.4268 50.3976 27.1476 50.4858 26.0868C50.5749 24.9404 50.4402 23.7876 50.0892 22.6926C49.477 20.6551 48.0821 18.9433 46.2102 17.9322C44.7102 17.1834 43.4178 17.079 42.9048 16.566C42.8166 16.4778 42.6402 16.6098 42.7284 16.698C43.113 17.211 43.1622 17.3742 43.7862 17.6238C44.9262 18.0804 46.1814 18.3834 47.577 19.872C49.3332 21.738 50.3088 24.7236 49.4724 27.2328C49.296 27.765 48.9468 28.2954 48.723 28.8666Z" fill="#252525"/>
<path d="M52.6014 25.7814C52.104 26.8692 51.4014 27.5214 51.2814 28.1172C51.2376 28.338 51.414 28.47 51.5904 28.3818C52.0308 28.2054 52.2954 27.6768 52.56 27.324C53.4181 26.1331 53.9366 24.7313 54.06 23.2686C54.1536 21.9683 53.7955 20.6754 53.046 19.6086C52.7637 19.2976 52.437 19.0301 52.0764 18.8148C51.9882 18.7272 51.8562 18.903 51.9438 18.9912C52.4512 19.5959 52.8536 20.2814 53.1342 21.0192C53.7348 22.7322 53.3508 24.1434 52.6014 25.7814Z" fill="#252525"/>
<path d="M38.2764 25.6488C38.2764 25.9134 38.5404 26.5308 38.8494 26.0898C39.3342 25.3848 38.8932 24.3708 38.3646 23.8416C37.9674 23.445 37.9236 23.7978 38.1 24.1506C38.2071 24.6432 38.2661 25.1449 38.2764 25.6488Z" fill="#252525"/>
<path d="M40.7886 51.5669C41.4364 51.7536 42.116 51.8029 42.784 51.7118C43.4519 51.6207 44.0935 51.3911 44.6676 51.0377C46.0338 50.2007 46.7394 48.7019 47.268 47.2475C47.2819 47.1811 47.2723 47.112 47.2407 47.0519C47.2092 46.9918 47.1576 46.9447 47.095 46.9185C47.0324 46.8924 46.9626 46.8889 46.8977 46.9086C46.8328 46.9284 46.7768 46.9701 46.7394 47.0267C46.1664 48.1727 45.6816 49.4069 44.6238 50.2445C42.12 52.1807 38.0292 50.9249 36.9096 45.8399C36.5574 44.2529 36.6894 42.6221 36.4248 41.0351C36.4248 40.9469 36.249 40.9469 36.249 41.0351C36.0138 42.5716 36.0434 44.1371 36.3366 45.6635C36.762 48.2111 38.3142 50.8163 40.7886 51.5669Z" fill="#252525"/>
<path d="M12.6228 78.5431C12.0936 78.8077 11.2122 79.6453 10.8156 79.0279C9.6756 77.1739 10.2372 74.9053 11.1678 72.9013C11.256 72.7249 11.0358 72.5923 10.9038 72.7681C9.85329 74.1517 9.39356 75.895 9.6252 77.6167C9.74455 78.4119 10.0799 79.1591 10.5948 79.7767C10.9476 80.0851 11.3886 79.8649 11.7408 79.6885C12.1751 79.5234 12.5777 79.285 12.9312 78.9835C13.1958 78.7633 12.8868 78.4111 12.6228 78.5431Z" fill="#252525"/>
<path d="M9.4932 79.3801C8.8764 78.6313 8.0826 78.1027 7.554 77.2645C7.4658 77.1325 7.245 77.2207 7.2894 77.3527C7.57522 78.0515 7.96127 78.7049 8.4354 79.2925C8.6556 79.5127 9.0084 79.9975 9.3168 80.0857C9.9 80.3101 9.8784 79.7695 9.4932 79.3801Z" fill="#252525"/>
<path d="M8.127 80.22C7.3532 79.6843 6.66878 79.0299 6.099 78.2808C5.967 78.0606 5.7024 78.237 5.7906 78.4572C5.9802 78.8772 6.9546 80.5008 7.6998 80.664C8.1 80.748 8.3226 80.3826 8.127 80.22Z" fill="#252525"/>
<path d="M113.87 76.8239C113.809 76.7908 113.74 76.776 113.67 76.7812C113.601 76.7863 113.535 76.8112 113.479 76.8529C113.423 76.8946 113.381 76.9514 113.356 77.0166C113.332 77.0817 113.327 77.1525 113.341 77.2205C113.965 78.7903 114.088 80.5147 113.694 82.1573C113.386 83.3471 111.931 86.2121 110.344 84.8021C109.937 84.3854 109.688 83.84 109.639 83.2595C109.066 79.9091 110.917 76.4711 108.979 73.3421C107.92 71.6663 104.967 69.4187 106.289 67.1711C106.466 66.8621 106.025 66.4655 105.761 66.7739C104.883 67.9329 104.321 69.2998 104.13 70.7411C103.791 73.7909 105.936 76.6979 104.879 79.2923C104.35 80.7023 102.675 81.5843 101.353 80.4821C100.03 79.3799 99.942 77.4821 99.4134 75.9863C99.3252 75.7217 98.8404 75.6335 98.796 75.9863C98.091 80.2619 95.4024 84.3617 96.6804 88.7693C97.7694 92.6285 100.418 93.4415 102.543 94.1465C102.118 93.8514 101.758 93.4723 101.485 93.0326C101.212 92.5929 101.032 92.1019 100.956 91.5899C100.691 89.8715 101.749 88.2839 101.441 86.6099C101.397 86.2571 101.926 86.1251 101.97 86.4773C102.102 87.0503 102.322 87.5795 102.455 88.1525C102.587 88.8125 102.808 89.7389 103.601 89.9153C104.482 90.0923 104.57 89.1221 104.615 88.5497C104.519 87.5527 104.49 86.5505 104.527 85.5497C104.623 84.7078 104.901 83.897 105.343 83.1738C105.784 82.4506 106.378 81.8324 107.083 81.3623C107.13 81.3365 107.183 81.325 107.237 81.3292C107.29 81.3335 107.341 81.3533 107.383 81.3862C107.425 81.419 107.457 81.4636 107.474 81.5143C107.491 81.5649 107.493 81.6195 107.48 81.6713C106.964 83.0369 106.71 84.4873 106.73 85.9469C106.73 86.7401 106.907 88.0625 107.435 88.6793C108.361 89.7371 109.419 88.6355 109.595 87.4895C109.639 87.1811 110.168 87.2687 110.125 87.5777C110.181 87.8858 110.285 88.1833 110.433 88.4591C110.883 89.6148 110.929 90.8886 110.565 92.0741C110.332 92.757 109.921 93.3655 109.375 93.8369C109.287 93.9245 109.154 94.0127 109.066 94.1009C110.473 93.8626 111.821 93.3532 113.033 92.6009C118.208 90.5201 118.129 79.4507 113.87 76.8239Z" fill="#644DF6"/>
<path d="M103.644 45.5725C103.914 45.5726 104.179 45.4925 104.404 45.3424C104.628 45.1922 104.804 44.9788 104.907 44.729C105.011 44.4792 105.038 44.2044 104.985 43.9392C104.932 43.674 104.802 43.4304 104.611 43.2392C104.42 43.048 104.176 42.9178 103.911 42.8651C103.646 42.8124 103.371 42.8395 103.121 42.943C102.872 43.0465 102.658 43.2218 102.508 43.4467C102.358 43.6716 102.278 43.9359 102.278 44.2063C102.28 44.568 102.424 44.9144 102.68 45.1702C102.936 45.426 103.282 45.5706 103.644 45.5725ZM103.644 43.2805C103.889 43.2819 104.124 43.3799 104.297 43.5532C104.471 43.7265 104.569 43.9611 104.57 44.2063C104.57 44.3894 104.516 44.5683 104.414 44.7206C104.313 44.8728 104.168 44.9914 103.999 45.0615C103.83 45.1316 103.644 45.15 103.464 45.1143C103.285 45.0786 103.12 44.9905 102.99 44.8611C102.861 44.7317 102.772 44.5668 102.737 44.3873C102.701 44.2077 102.719 44.0216 102.789 43.8524C102.859 43.6832 102.978 43.5386 103.13 43.4368C103.282 43.335 103.461 43.2806 103.644 43.2805Z" fill="#252525"/>
</svg>
