<svg width="120" height="120" viewBox="0 0 120 120" fill="none" xmlns="http://www.w3.org/2000/svg">
<path d="M73.8522 56.2794C73.4088 56.292 73.2996 55.8744 73.5198 55.6392C74.151 54.9654 75.8388 54.132 82.7286 50.0748C85.7958 48.2682 86.0166 48.1536 86.3232 48.6222C86.6934 49.188 86.0574 49.4226 83.6394 50.8506C82.6884 51.4122 74.9106 55.9716 73.8522 56.2794Z" fill="#644DF6"/>
<path d="M76.3266 37.4808C76.9422 37.458 76.9284 38.0082 76.548 38.2686C76.1028 38.574 69.3108 42.297 67.6716 43.1928C66.7002 43.7238 66.5496 43.7478 66.3912 43.5126C66.1926 43.2186 66.5868 42.9318 67.0068 42.6876C76.2372 37.3218 75.969 37.4934 76.326 37.4796L76.3266 37.4808Z" fill="#644DF6"/>
<path d="M68.1888 45.5196C67.7454 45.5442 67.686 45.1404 67.9302 44.9166C68.6748 44.2338 73.3722 41.7666 73.8888 41.4696C74.2092 41.2854 74.6274 41.1996 74.8122 41.568C74.997 41.937 74.9538 42.1596 72.7806 43.2918C72.336 43.5234 68.595 45.5442 68.1888 45.5196Z" fill="#644DF6"/>
<path d="M80.7834 54.0636C81.1158 54.0882 81.351 54.5202 81.0174 54.9132C80.6496 55.3458 77.8644 56.8188 77.25 57.1536C77.0034 57.288 76.7094 57.4734 76.4988 57.1164C76.3026 56.7834 76.5852 56.5872 76.8066 56.4144C77.4222 55.9344 80.1924 54.1002 80.7828 54.063L80.7834 54.0636Z" fill="#644DF6"/>
<path d="M69.765 48.3762C69.2112 48.339 69.2382 47.862 69.4944 47.625C69.9294 47.223 72.237 46.0176 73.1016 45.6552C73.3716 45.5424 73.6782 45.3852 73.8648 45.717C74.0598 46.0626 73.7898 46.2816 73.5198 46.4436C72.6054 46.992 70.7988 48.0684 69.765 48.3762Z" fill="#644DF6"/>
<path d="M63.831 41.9124C64.8348 41.43 73.05 37.0116 77.7582 34.3884C77.6712 33.9984 77.5722 33.5664 77.4582 33.0864C71.7714 36.1944 63.6768 40.5342 62.649 41.1984C61.8114 41.7384 61.7766 41.5416 64.8528 47.0334C65.3676 47.952 67.9938 52.683 70.8108 57.3372C70.8234 57.3372 71.6928 57.3432 72.0888 57.3432C72.0769 57.3251 72.0655 57.3067 72.0546 57.288C62.6904 41.0598 63.1908 42.2196 63.831 41.9124Z" fill="#644DF6"/>
<path d="M85.2756 37.6399C84.8784 37.7359 84.4662 37.8331 84.0504 37.9261C85.9532 41.1946 87.8106 44.4893 89.622 47.8093C92.6148 53.2873 93.51 55.0315 94.3128 56.4391C94.5576 56.8693 91.1028 58.4203 80.1432 64.7389L80.1378 66.2479C83.8476 64.2727 92.2176 59.7589 95.4942 57.4609C96.78 56.5597 93.5658 52.7749 85.275 37.6393L85.2756 37.6399Z" fill="#644DF6"/>
<path d="M35.8146 78.0426C36.1328 77.784 36.4811 77.5648 36.852 77.3898C32.9118 69.4896 33.1908 70.2306 33.7056 70.0188C34.9722 69.498 47.3844 63.6816 50.658 62.0166C50.7461 61.972 50.8421 61.9452 50.9405 61.9377C51.0389 61.9303 51.1379 61.9424 51.2316 61.9732C51.3254 62.0041 51.4121 62.0532 51.4869 62.1177C51.5616 62.1822 51.6229 62.2608 51.6672 62.349C52.2234 63.4824 53.2506 65.4342 54.7824 68.49L55.2768 68.505L55.2582 66.6792C54.3634 64.8259 53.4784 62.9679 52.6032 61.1052C52.4814 60.846 52.4064 60.6864 52.3446 60.6126C52.3074 60.2556 51.4344 60.2568 51.0516 60.4398C45.7182 62.9958 33.8424 68.5062 32.5602 69.2424C31.6992 69.7368 31.662 69.5376 34.419 75.189C34.6074 75.576 35.1114 76.6176 35.814 78.042L35.8146 78.0426Z" fill="#644DF6"/>
<path d="M46.4232 66.3005C47.0388 66.3173 46.9896 66.8549 46.5954 67.1009C46.14 67.3847 39.1326 70.6907 37.4484 71.4959C36.45 71.9729 36.2922 71.9879 36.156 71.7419C35.985 71.4335 36.3774 71.1755 36.8208 70.9541C46.3608 66.1871 46.0662 66.2909 46.4232 66.3005Z" fill="#644DF6"/>
<path d="M37.83 73.86C37.3866 73.86 37.3482 73.452 37.596 73.2444C38.367 72.5988 43.209 70.4112 43.7394 70.1544C44.0712 69.9936 44.5026 69.933 44.6502 70.302C44.7978 70.671 44.7498 70.8804 42.5202 71.9022C42.0744 72.1062 38.2362 73.9092 37.8294 73.8594L37.83 73.86Z" fill="#644DF6"/>
<path d="M39.2454 76.8023C38.6916 76.7285 38.754 76.2497 39.024 76.0265C39.4818 75.6473 41.856 74.5871 42.7422 74.2661C43.0134 74.1677 43.3356 74.0309 43.5054 74.3771C43.68 74.7329 43.3944 74.9309 43.1238 75.0911C42.1512 75.5837 40.2924 76.5437 39.246 76.8023H39.2454Z" fill="#644DF6"/>
<path d="M78.9486 59.3573C79.0716 59.0129 78.2838 58.6373 77.853 58.6313C71.9442 58.5347 58.8444 58.4285 57.3672 58.5329C56.382 58.6025 56.4264 58.4099 56.4564 64.7009C56.4588 65.1887 56.46 66.6131 56.481 68.5421C56.8866 68.5541 57.3132 68.5661 57.762 68.5775C57.672 58.8689 57.4872 59.7095 58.0572 59.7395C59.424 59.8133 73.1382 59.9849 76.8072 59.8757C76.9063 59.8723 77.005 59.889 77.0975 59.9246C77.19 59.9602 77.2744 60.014 77.3456 60.083C77.4169 60.1519 77.4735 60.2345 77.5121 60.3258C77.5507 60.4171 77.5705 60.5152 77.5704 60.6143C77.5704 61.8959 77.655 64.1603 77.715 67.6925C78.141 67.7015 78.5562 67.7123 78.9546 67.7243C78.942 65.3723 78.9414 62.7755 78.9618 59.9123C78.9642 59.6165 78.9618 59.4563 78.9492 59.3579L78.9486 59.3573Z" fill="#644DF6"/>
<path d="M71.1312 61.9182C71.6712 62.2044 71.4018 62.6676 70.9464 62.7186C70.4166 62.778 62.661 62.7186 60.7896 62.7186C59.6814 62.7186 59.5308 62.6574 59.5092 62.3862C59.4804 62.0292 59.9526 61.9716 60.4446 61.9674C71.1318 61.881 70.8102 61.7478 71.1312 61.9182Z" fill="#644DF6"/>
<path d="M60.1128 65.0081C59.7066 64.8233 59.8548 64.4327 60.1746 64.3559C61.1496 64.1201 66.453 64.2389 67.0566 64.2329C67.4262 64.2293 67.8324 64.3559 67.8198 64.7621C67.8072 65.1683 67.6602 65.3459 65.2098 65.2793C64.7052 65.2655 60.4578 65.2169 60.1128 65.0081Z" fill="#644DF6"/>
<path d="M60.1128 68.2583C59.6448 67.9505 59.9052 67.5509 60.2484 67.4705C60.8298 67.3343 63.4242 67.4129 64.3602 67.4951C64.6554 67.5209 65.0004 67.5323 65.0004 67.9259C65.0004 68.3195 64.656 68.3825 64.3482 68.3939C63.2652 68.4341 61.1592 68.4923 60.1128 68.2583Z" fill="#644DF6"/>
<path d="M51.1362 76.269C51.5214 75.8544 52.1382 75.5454 52.8492 75.2142C53.5878 74.8698 54.234 75.0108 54.8064 75.5958C54.9648 75.7578 54.9312 75.8562 54.7938 75.99L54.5412 76.2378C55.0188 76.2306 55.5072 76.2228 56.0064 76.2132C56.3352 75.9073 56.6656 75.6031 56.9976 75.3006C57.6114 74.745 57.909 75.0168 58.635 75.4236C58.9926 75.624 59.1726 75.8058 59.253 76.1316C59.595 76.1208 59.9412 76.1094 60.2922 76.0968C60.2898 74.766 60.3156 73.0512 60.432 70.8438C60.471 70.1052 60.2106 69.8598 59.4714 69.8466C53.685 69.7434 51.9 69.7098 50.7306 69.7482C49.4664 69.7896 49.9974 69.8814 49.7622 76.275L51.1344 76.269H51.1362ZM52.9602 71.6442C54.4992 71.6382 54.4128 73.8726 52.9602 73.86C51.5322 73.8474 51.4704 71.6502 52.9602 71.6442Z" fill="#644DF6"/>
<path d="M49.3404 40.8539C43.554 40.7501 41.7696 40.7111 40.5996 40.7555C39.147 40.8107 40.0644 40.9169 39.4668 50.5799C39.4308 51.1583 39.5634 51.3833 40.5384 51.4631C41.5134 51.5429 46.656 51.6191 49.3278 51.6011C50.7804 51.5921 49.8444 50.4947 50.3004 41.8511C50.3394 41.1131 50.079 40.8671 49.3398 40.8545L49.3404 40.8539ZM42.828 42.6515C44.367 42.6389 44.2806 44.8799 42.828 44.8673C41.4 44.8547 41.3382 42.6635 42.828 42.6515ZM40.6614 48.9053C40.2798 47.4407 41.3166 46.8803 42.7176 46.2335C43.458 45.8915 44.109 46.0235 44.6748 46.6151C44.835 46.7627 44.7996 46.8629 44.6622 46.9967C40.4478 51.1187 40.6614 51.2567 40.6614 48.9047V48.9053ZM49.0698 50.1731C49.0614 50.3951 49.0206 50.5511 48.7494 50.5301C46.7568 50.3717 44.7606 50.4929 42.6306 50.4071C43.4184 49.4591 46.5942 46.5533 46.866 46.3073C47.4798 45.7517 47.7744 46.0157 48.5034 46.4303C49.3992 46.9403 49.1796 47.3183 49.0698 50.1731Z" fill="#644DF6"/>
<path d="M77.1882 108.06C77.1264 104.379 77.4222 104.489 75.8706 104.551L64.8522 104.945C63.9168 104.983 64.1628 105.217 64.089 108.208C64.0644 109.218 64.0026 109.058 70.269 108.971C77.274 108.873 77.2002 109.045 77.1876 108.061L77.1882 108.06ZM70.5774 108.06C64.7052 108.196 64.7544 108.417 64.8036 107.777C64.9146 106.016 64.5576 105.733 65.2344 105.721C65.247 105.721 74.7384 105.499 75.9822 105.401C76.4868 105.364 76.3026 105.425 76.4376 107.678C76.4748 108.257 76.4502 107.912 70.5774 108.06Z" fill="#252525"/>
<path d="M85.8924 88.4117C85.7814 70.8071 85.5966 69.2801 82.2114 69.0833C80.0568 68.9603 71.2302 68.6033 69.0018 69.3539C65.7762 70.4375 68.46 76.9007 66.3918 77.0237C32.4006 79.0547 34.974 71.7791 33.9276 96.9923C33.8878 98.1119 33.8724 99.2321 33.8814 100.352C34.2957 100.163 34.7232 100.004 35.1606 99.8771C35.0922 92.8637 35.511 85.3523 35.7498 83.9063C35.9958 82.4411 35.91 79.8563 39.96 79.0805C44.232 78.2681 48.393 78.8831 54.672 78.6251C66.3924 78.1325 68.7066 79.1915 68.67 76.3475C68.6208 71.6201 68.3502 70.6721 69.9258 70.4381C72.8436 69.9827 77.4972 70.1675 81.8184 70.3397C84.6996 70.4507 83.9358 70.2659 84.6498 94.8263C84.81 100.601 85.1424 111.643 79.4916 112.406C76.1802 112.856 56.0316 113.736 44.6382 113.514C44.2876 113.959 43.8941 114.368 43.4634 114.736C52.056 114.961 66.1164 114.301 74.2104 114.081C85.3026 113.773 86.0538 113.429 85.8936 88.4123L85.8924 88.4117Z" fill="#252525"/>
<path d="M64.0932 28.7544C63.9966 29.1264 63.891 29.5266 63.7776 29.9556C69.3924 29.9538 73.5972 29.9376 76.6536 29.8884C76.5538 29.5186 76.4604 29.1472 76.3734 28.7742L64.0938 28.755L64.0932 28.7544Z" fill="#252525"/>
<path d="M81.6324 16.9338C79.9086 15.444 77.865 14.607 75.5754 14.4222C75.1446 14.385 74.6154 14.718 74.3442 14.4222C73.9626 13.9914 73.9998 8.47558 68.1024 7.06018C65.8986 6.53098 63.8922 7.09738 62.0946 8.43898C61.7742 8.67298 61.6266 8.66098 61.479 8.29138C59.9034 4.30258 53.1078 2.38138 49.0326 6.54298C47.1366 8.47498 47.4324 9.80578 46.7676 9.26398C42.2862 5.66938 31.4406 9.31318 33.324 19.3962C26.9466 18.2262 22.8348 24.1974 24.5706 28.9374C25.014 30.1434 24.5334 29.9214 50.0298 29.9466H50.2632C50.355 29.589 50.4588 29.1954 50.5716 28.7586L30.3444 28.8258C26.085 28.851 25.6044 29.2074 25.4448 28.3698C24.657 24.135 27.5256 20.811 31.6494 20.6268C33.8778 20.5284 34.4808 20.8116 34.4196 19.9368C34.2348 17.5122 34.1118 15.9486 34.752 14.4342C36.5742 10.0638 41.5968 8.84518 44.6502 9.79318C47.1372 10.5684 47.2848 11.6154 47.8878 10.458C48.9096 8.46358 50.313 5.64478 54.1914 5.58298C58.722 5.50918 60.3102 8.69698 61.098 9.86698C61.566 10.5444 61.689 10.2246 63.4002 9.05518C66.663 6.82678 72.2274 8.37718 72.9414 15.2592C73.089 16.6752 74.1354 14.238 79.269 17.1066C81.4686 18.3426 82.1346 21.729 82.4712 24.6378C82.9038 24.5358 83.364 24.426 83.853 24.309C83.6388 21.4038 82.9836 18.105 81.6324 16.9344V16.9338Z" fill="#252525"/>
<path d="M81.381 37.3098C79.9104 37.656 79.6758 37.5174 79.5396 36.8526C77.5938 27.3636 76.7196 27.4926 78.099 27.0654C79.2186 26.7174 80.9388 26.2866 86.5692 24.9108C87.2826 24.7362 87.603 24.9108 87.7512 25.6248C89.508 34.0956 90.7176 34.9062 89.3148 35.289C86.7534 35.988 82.4172 37.065 81.381 37.3098ZM82.5438 35.868C84.6246 35.4 86.5194 34.779 88.4898 34.4154C88.7604 34.3656 88.7616 34.2054 88.7112 33.9966C88.0458 31.224 88.206 30.7842 87.1968 30.525C86.3844 30.3162 86.0376 30.1422 85.584 30.8328C85.3986 31.1148 83.073 34.7352 82.5438 35.868ZM80.2662 34.92C80.8692 37.1976 80.6466 37.1178 83.6394 32.0514C83.7402 31.8804 83.7516 31.791 83.553 31.6698C82.8558 31.2438 82.1892 31.2792 81.5586 31.8054C80.37 32.7966 79.515 33.603 80.2662 34.9194V34.92ZM81.3252 30.4512C82.7286 30.0942 82.236 27.9024 80.7468 28.3092C79.3062 28.7028 79.9218 30.8082 81.3252 30.4512Z" fill="#644DF6"/>
<path d="M62.0826 24.1356C55.131 22.3944 54.942 22.3506 53.8956 22.215C53.4894 22.2642 53.4486 22.1274 52.1718 27.435C51.0234 32.211 50.4732 32.3718 51.9378 32.7414C61.1964 35.0778 61.122 35.2776 61.4052 34.1694L63.609 25.3914C63.8304 24.4674 63.0558 24.3792 62.0826 24.1356ZM62.3778 25.8594C62.3778 25.8714 60.5802 33.2454 60.5802 33.2586C60.42 33.9606 60.4998 33.6786 53.5626 31.9908C53.2554 31.9158 52.9596 31.7946 52.6272 31.7808C52.332 31.7688 52.2804 31.596 52.3566 31.3128C54.411 23.7 54.0312 23.4468 54.5358 23.5206C62.4642 25.5522 62.5254 25.2066 62.3778 25.8594Z" fill="#644DF6"/>
<path d="M55.9146 30.4632C54.696 30.4632 54.8454 30.1806 55.7298 27.0528C56.0256 26.0064 56.6616 26.3928 59.706 28.8132C61.0092 29.8494 57.7362 29.9214 55.914 30.4626H55.9146V30.4632Z" fill="#644DF6"/>
<path d="M44.6748 105.856C41.4864 96.3522 27.2916 101.276 30.4188 110.682C33.5208 120.038 47.8632 115.373 44.6748 105.856ZM40.2426 109.168C39.2328 109.193 38.4204 109.045 38.433 109.624C38.4576 110.633 38.6424 111.433 38.0634 111.446C37.3248 111.47 36.6108 111.618 36.5862 111.076C36.5616 110.066 36.7092 109.267 36.1308 109.279C35.121 109.303 34.3212 109.488 34.3086 108.909C34.284 108.158 34.1238 107.444 34.6776 107.432C35.6874 107.407 36.4872 107.555 36.4752 106.976C36.4506 105.967 36.2538 105.154 36.8442 105.142C37.5828 105.118 38.2968 104.969 38.3214 105.511C38.346 106.521 38.1984 107.333 38.7768 107.321C39.786 107.296 40.599 107.099 40.611 107.69C40.6356 108.429 40.7832 109.143 40.2414 109.168L40.2426 109.168Z" fill="#644DF6"/>
<path d="M77.5824 8.82003C78.5922 8.79603 79.3932 8.94363 79.38 8.36523C79.3572 7.35543 79.1586 6.54663 79.7496 6.53103C80.4882 6.51123 81.2082 6.35823 81.2268 6.90063C81.2622 7.90983 81.1038 8.72343 81.6822 8.71023C82.692 8.68743 83.5008 8.48823 83.5164 9.06723C83.5368 9.80523 83.6892 10.5252 83.1468 10.5444C82.1376 10.5798 81.324 10.4214 81.3372 10.9998C81.36 12.0096 81.5466 12.8058 80.9676 12.822C80.229 12.8424 79.509 12.9948 79.4904 12.4524C79.455 11.4432 79.6134 10.6416 79.035 10.6548C78.0252 10.6776 77.2284 10.8642 77.2128 10.2978C77.1924 9.54663 77.0406 8.83323 77.5824 8.82063V8.82003Z" fill="#644DF6"/>
<path d="M33.1146 42.8237C33.102 42.2327 32.2896 42.4301 31.2804 42.4547C30.702 42.4673 30.8496 41.6543 30.825 40.6451C30.8004 40.1033 30.0864 40.2509 29.3478 40.2755C28.7694 40.2881 28.9662 41.1005 28.9908 42.1097C28.9962 42.3647 28.8438 42.4787 28.5852 42.5285C28.257 42.5915 27.7578 42.5513 27.1932 42.5651C26.6514 42.5777 26.799 43.2911 26.8242 44.0423C26.8368 44.6207 27.6366 44.4359 28.6464 44.4113C29.2248 44.3987 29.0772 45.1991 29.1018 46.2089C29.1264 46.7507 29.8404 46.6031 30.579 46.5785C31.1454 46.5659 30.9606 45.7661 30.936 44.7563C30.9234 44.1779 31.7364 44.3255 32.7456 44.3009C33.2874 44.2763 33.1392 43.5623 33.1146 42.8237Z" fill="#644DF6"/>
</svg>
