<svg width="120" height="120" viewBox="0 0 120 120" fill="none" xmlns="http://www.w3.org/2000/svg">
<path d="M60.9072 108.184C59.5875 108.724 60.6672 108.664 46.1475 105.784C25.2675 101.644 25.5075 101.824 25.4475 100.804L24.1875 69.4242C24.1875 68.8242 24.5475 69.0042 16.9875 70.2042C16.7475 70.2642 16.5075 70.2042 16.3875 69.9642C16.2675 69.7242 16.4476 69.6042 16.5676 69.4842C23.7676 61.9242 23.7675 61.8042 24.2475 61.6242C30.3675 59.884 30.6675 60.4242 30.6075 59.5841C30.4875 57.9641 30.8475 57.7241 30.3075 57.6641C30.0075 57.6641 29.7075 57.5441 29.4075 57.4841C29.1675 57.4841 29.1075 57.4241 29.1075 57.1841C29.0475 50.9441 28.8075 51.0641 29.5275 50.8841C33.9675 49.8641 33.9675 49.864 34.0275 50.104C34.0875 50.464 33.9075 50.104 30.5475 51.124C40.5075 52.144 52.0276 53.3439 60.0678 54.2439C61.1478 54.3639 66.1272 52.8039 66.2472 53.3439C66.3072 53.5839 65.9478 53.5839 65.7678 53.6439C59.9476 55.1439 60.1872 54.7239 58.7475 54.5439C27.6075 51.3639 29.4075 51.0641 29.4075 51.6641C29.5275 57.0641 29.2876 57.0041 29.7676 57.0641C62.5278 60.7842 60.6678 61.2042 60.6678 60.5442C60.5478 55.0239 60.4878 55.024 60.7878 55.024C61.0278 55.024 61.0272 55.324 61.0272 55.504C61.2072 61.2042 60.9678 60.9642 61.5678 60.7842C67.8078 59.0441 75.8472 57.0641 82.6272 55.3841C82.8672 55.3241 83.1672 55.204 83.2272 55.504C83.4072 56.224 63.7272 60.2442 63.7272 61.0842C63.9072 65.5242 63.2478 65.8842 64.0878 65.6442L85.5678 59.524C86.3478 59.284 85.5078 57.6039 86.2878 57.8439C87.1878 58.0839 88.2072 58.2641 89.0472 58.6841C99.6072 63.9642 99.5478 63.7842 99.4878 64.3242C99.4278 64.8042 88.6272 67.9842 88.2072 68.4042C88.7472 68.6442 88.3872 68.4042 88.6272 88.0842C88.5672 88.3242 88.6272 88.3842 88.6272 89.1042C88.6272 95.9442 88.9272 96.0042 87.8472 96.4242C83.6472 98.2242 78.4872 100.744 60.9072 108.184ZM58.9275 66.5442C60.9072 66.9042 59.5875 67.0842 63.0072 66.0642C63.2472 66.0042 63.3072 65.8842 63.3072 65.6442C63.3072 60.8442 63.5472 60.9042 63.0072 61.0842C60.7872 61.7442 60.5472 61.5642 44.4075 59.5841C30.1275 57.8441 31.0875 57.724 31.0875 58.204C31.5075 62.4642 30.7876 62.9442 31.5676 63.0042C32.1076 63.0042 58.9275 66.5442 58.9275 66.5442ZM59.7676 87.6042C59.7676 87.6042 60.1272 67.3242 60.0072 67.2042C59.8275 66.9042 60.0072 67.3242 24.7275 62.4642C24.2475 62.4042 24.4275 59.7039 25.9875 100.744C25.9875 101.284 25.9275 100.924 59.1075 107.824C59.7075 108.004 59.4676 110.044 59.7676 87.6042ZM60.0072 108.064C88.3272 95.5842 88.2072 96.0642 88.2072 95.2842C88.1472 93.1242 88.1472 69.7242 88.1472 69.7242C88.1472 69.3042 88.0278 68.8242 88.3878 68.4042L70.8072 74.4042C70.4472 74.5242 70.6272 74.7042 60.7272 67.3242C60.4272 80.8842 60.3072 94.4442 60.0072 108.064ZM98.8272 64.2042C98.5872 64.0242 98.8278 64.2042 89.1678 59.3439C88.7478 59.1639 89.1078 59.2841 61.2678 67.0842C61.5078 67.3242 61.2672 67.0842 70.2072 73.6242C70.8072 74.0442 70.3272 73.9242 98.8272 64.2042ZM17.1075 69.7842C17.5275 69.8442 19.9875 69.1842 23.8875 68.6442C24.3075 68.5842 24.2475 68.6442 23.9475 62.5842L17.1075 69.7842Z" fill="#666666"/>
<path d="M35.1675 103.624C35.5275 103.624 36.2475 103.804 35.8875 103.984C32.1675 106.204 28.5075 108.364 27.9075 108.244C23.1075 107.404 20.7074 105.604 18.6075 104.284C17.4074 103.564 17.1675 104.224 16.5675 104.644L13.6274 106.624C18.3674 110.944 20.1675 110.464 27.4875 113.704C28.3275 114.064 28.1474 113.644 29.8274 112.504C34.5074 109.324 39.0075 107.404 43.8675 105.364C46.9875 105.184 35.7674 108.664 28.4474 114.424C27.9674 114.784 27.8474 114.664 23.9474 112.984C20.7074 111.604 17.1075 111.004 13.2075 106.924C12.4875 106.204 13.2675 105.964 15.6675 104.404C16.9275 103.564 17.2875 103.504 16.8675 103.264C12.0075 100.624 6.00739 99.3642 8.64739 98.4042C10.5074 97.7442 23.1675 93.1242 25.0875 92.7042C25.0875 92.8842 25.2075 93.1242 25.0875 93.3042C8.82745 99.6042 8.04739 98.8242 9.42739 99.3642C12.3674 100.624 14.2274 100.564 20.3474 104.464C22.6274 105.904 25.0275 106.804 27.6075 107.464C28.3275 107.644 27.9675 107.584 35.1675 103.624Z" fill="#C0C0C0"/>
<path d="M35.2274 45.4239C35.9474 46.9839 35.2875 47.344 35.8875 47.404C42.7275 47.944 70.3272 50.5239 70.3272 50.8239C70.3272 51.4839 70.5072 52.2039 70.2072 52.4439C70.0272 52.0839 70.0872 51.7241 70.0872 51.3641C70.0872 50.8241 70.0872 51.064 60.0072 50.104C35.1674 47.764 35.2274 47.9441 35.2274 47.1641C35.2274 45.3041 34.4474 45.6639 34.7474 44.8239C35.2274 43.4439 34.3874 43.144 35.2274 43.204C72.3672 46.684 69.9072 46.864 69.9072 46.384C69.9072 45.424 70.0272 45.604 69.1272 45.484C32.8874 42.064 35.0474 42.244 35.0474 42.004C35.1074 41.704 68.7072 45.1239 68.8872 45.1239C70.7472 45.3039 70.1472 44.944 70.3272 48.184C70.3872 48.844 73.3872 49.1439 35.2274 45.4239ZM69.9678 47.7641C69.9678 47.0441 70.0872 47.104 68.5872 46.984C54.0075 45.604 42.7275 44.4039 35.5875 43.6239C34.9875 43.5639 35.4675 43.8641 35.1675 44.7641C34.9275 45.4841 47.4675 45.844 69.3678 48.304C69.9678 48.364 69.9678 48.3641 69.9678 47.7641Z" fill="#C0C0C0"/>
<path d="M80.7072 99.6636C80.9472 99.4236 81.3072 99.3636 81.6072 99.1836C82.0272 99.4236 82.5672 99.4236 83.0472 99.4836C89.1072 100.324 93.4272 103.564 94.5072 104.104C95.4672 104.524 95.2878 104.404 97.8678 102.844C116.948 91.5636 116.527 92.3436 115.927 92.0436C112.567 90.0636 101.767 87.4236 100.507 87.0036C96.1272 85.5036 95.5872 85.2036 94.4472 85.8636C92.8872 86.7636 89.2278 88.3836 88.5678 88.7436C88.4478 87.9036 88.2672 88.2636 94.5072 85.1436C95.8272 84.4836 96.6078 85.1436 101.168 86.5236C102.668 86.9436 113.287 89.4636 116.707 92.1036C117.247 92.5236 117.127 92.4036 109.927 96.6036C104.107 100.024 106.087 98.9436 95.5872 104.824C94.2078 105.604 93.2472 103.864 88.6272 101.944C84.7872 100.204 81.3672 99.9636 80.7072 99.6636Z" fill="#C0C0C0"/>
<path d="M36.9075 39.9039C37.5675 40.2039 70.0278 42.5439 69.9678 43.0839C69.9678 43.3839 72.3078 43.5039 36.0675 40.3839C35.5275 40.3239 35.3475 40.3239 35.3475 40.0839C35.3475 39.6039 36.1875 39.5439 38.7675 39.1839C43.9275 38.4639 53.2875 37.2038 53.2875 37.6238C53.3475 37.9838 47.3475 38.6439 36.9075 39.9039Z" fill="#C0C0C0"/>
<path d="M83.4678 40.924C83.2278 40.804 55.9275 38.1041 54.0675 37.8641C53.7675 37.8041 53.5875 37.804 53.5875 37.624C53.5875 37.504 89.4072 40.6241 85.6272 41.1641C85.0872 41.2241 70.6272 43.384 70.5072 42.904C70.4472 42.424 82.7478 41.164 83.4678 40.924Z" fill="#C0C0C0"/>
<path d="M69.3678 53.4039C31.7476 49.4439 33.9076 49.684 33.9676 49.384C34.0276 49.084 34.0275 49.1439 41.4075 49.9239C60.6678 51.8439 72.7278 52.8639 69.3678 53.4039Z" fill="#C0C0C0"/>
<path d="M80.6472 48.484C85.2672 47.644 86.1672 47.2239 86.2272 48.4239C86.2872 49.7439 85.9872 49.804 85.2672 49.984C70.3272 53.344 70.3272 53.5839 70.2672 53.2239C70.2072 52.9239 70.5672 52.9839 70.7472 52.9239C84.0672 49.3239 85.9272 49.744 85.8072 49.084C85.7472 48.664 86.4672 48.844 71.3472 51.664C71.2272 51.664 70.9872 51.7839 70.9272 51.6039C70.8672 51.3639 71.1672 51.364 71.3472 51.364C85.5672 48.364 85.8672 48.7839 85.7472 48.3039C85.6272 47.7039 85.6872 47.944 74.8872 49.984C74.2872 50.104 71.4672 50.584 70.8672 50.584C70.9872 50.284 70.9272 50.284 80.6472 48.484Z" fill="#C0C0C0"/>
<path d="M85.6272 45.9642C85.5072 45.5442 85.3872 45.1842 85.3872 44.7642C85.4472 44.4042 85.0872 44.5842 84.9672 44.5842C81.7872 45.0042 73.1472 46.5042 73.0272 46.2642C72.9672 45.9042 85.3272 44.3441 85.3872 44.2241C85.5072 44.0441 85.6272 43.8641 85.5672 43.6241L70.9272 45.7241C70.5672 45.7841 70.5672 45.4841 70.8672 45.4241C72.0672 45.1841 77.5272 44.3442 78.2472 44.2842C86.3472 43.0842 85.9872 42.9641 85.9872 43.5041C85.9872 44.0441 85.4472 44.884 85.9272 45.844C86.1672 46.324 86.5872 46.1441 76.5672 47.8241C64.5672 49.8041 73.4472 47.7642 85.6272 45.9642Z" fill="#C0C0C0"/>
<path d="M73.0878 55.9238C83.1078 53.3438 82.5672 53.7039 82.4472 53.2839C82.3272 52.8639 64.7472 57.5438 62.6472 57.9038C62.6472 57.6038 62.5878 57.5438 82.0878 52.9238C82.7478 52.7438 82.2678 52.2639 82.5078 51.0639C82.5078 50.9439 82.5072 50.7639 82.7472 50.7639C83.0472 50.7639 83.0478 50.8238 82.9878 54.5437C82.9878 54.7238 82.9872 54.9639 82.7472 54.9639C82.5672 54.9639 82.5678 54.7238 82.5678 54.6038C82.3878 53.9438 82.3872 53.9438 81.7272 54.1238C62.7672 58.8638 54.3076 60.7236 73.0878 55.9238Z" fill="#C0C0C0"/>
<path d="M56.7074 55.684C59.4674 55.684 59.5274 59.464 56.8874 59.404C54.1274 59.404 54.1274 55.684 56.7074 55.684Z" fill="#C0C0C0"/>
<path d="M65.4678 61.6842C65.3478 61.7442 65.1672 61.8036 65.1072 61.6236C65.0472 61.3236 82.8672 56.5238 85.0272 56.0438C85.2672 55.9838 85.3278 56.044 85.0878 56.164C84.0678 56.524 78.6678 58.0239 65.4678 61.6842Z" fill="#C0C0C0"/>
<path d="M62.6472 56.3439C62.6472 56.3439 62.5278 56.3439 62.5278 56.2239C62.4678 56.0439 62.6478 56.1039 62.7078 56.0439C86.4678 50.1639 89.9472 50.2239 62.6472 56.3439Z" fill="#C0C0C0"/>
<path d="M85.2672 58.3841C85.4472 58.3241 85.6872 58.2041 85.7472 58.3841C85.8672 58.8641 39.6075 71.8242 85.2672 58.3841Z" fill="#C0C0C0"/>
<path d="M85.0272 57.3641C85.0872 57.5441 85.0878 57.5441 83.4678 57.9641C41.4676 70.1442 84.8472 56.8841 85.0272 57.3641Z" fill="#C0C0C0"/>
<path d="M62.5872 59.7642C68.6478 58.0842 80.8872 54.6642 80.9472 54.9642C81.0672 55.2042 63.2478 59.8842 62.5872 59.7642Z" fill="#C0C0C0"/>
<path d="M85.5072 41.8839C85.6872 41.9439 85.9872 41.7038 85.9872 41.9438C85.9872 42.1838 85.6872 42.1238 85.5072 42.1238C71.1072 44.2238 71.0472 44.2238 70.9872 44.0438C70.9872 43.8038 70.2672 43.9839 85.5072 41.8839Z" fill="#C0C0C0"/>
<path d="M54.6075 65.9436C54.3675 64.0836 56.4074 62.8242 58.0274 63.4842C59.3474 64.0242 59.5874 65.5842 58.9274 66.4842C57.4874 66.3642 56.0475 66.1836 54.6075 65.9436Z" fill="#C0C0C0"/>
<path d="M46.7475 100.564C46.7475 98.3442 46.7475 98.0436 47.2875 98.1036C49.6875 98.1636 52.0275 98.2836 54.4275 98.4036C54.7275 98.4036 54.8475 98.5836 54.8475 98.8836C54.4275 103.924 54.6675 103.984 54.0075 103.864C50.7075 103.324 49.7476 103.084 47.4676 102.724C46.5676 102.484 46.7475 102.184 46.7475 100.564Z" fill="#C0C0C0"/>
<path d="M46.5074 72.1842C43.3874 71.7042 42.9074 71.7042 35.8274 70.6242C34.6274 70.4442 35.1674 70.1442 34.8674 68.2242C34.7474 67.5642 34.6874 67.6242 39.7874 68.1042C47.2274 68.8242 47.2274 68.6442 47.1674 69.3642C46.9274 71.7042 47.2274 72.3042 46.5074 72.1842Z" fill="#666666"/>
<path d="M92.6472 89.4642C92.3472 89.2842 92.4672 88.9842 92.8272 89.0442C98.9472 91.0242 112.447 99.9042 92.6472 89.4642Z" fill="#C0C0C0"/>
<path d="M101.647 95.4642C97.9272 93.7242 95.8872 92.5842 91.7472 90.9042C91.4472 90.7842 91.3278 90.7242 91.3878 90.5442C91.5678 89.8242 101.227 94.4442 101.647 95.4642Z" fill="#C0C0C0"/>
<path d="M99.2472 88.5036C99.4872 88.5636 104.767 90.2436 104.467 90.9636C104.347 91.2036 104.287 91.2636 102.187 90.3636C98.7072 88.9236 98.7072 88.9236 98.7672 88.6236C98.8272 88.4436 99.0072 88.5036 99.2472 88.5036Z" fill="#C0C0C0"/>
<path d="M96.9078 94.8642C84.9678 89.5242 92.7678 91.5036 96.9678 94.7436L96.9078 94.8642Z" fill="#C0C0C0"/>
<path d="M92.8272 100.324C93.4872 100.564 95.8878 101.944 95.4078 102.484C95.2878 102.604 95.1678 102.664 94.9878 102.604C94.0878 102.184 93.3072 101.644 92.5272 101.044C92.3472 100.864 92.2272 100.384 92.8272 100.324Z" fill="#C0C0C0"/>
<path d="M27.9675 105.664C26.9475 105.844 24.0674 104.404 22.4474 103.384C20.5874 102.184 17.7074 99.5436 14.3474 99.0636C13.3274 98.9436 15.0075 97.4436 20.8875 101.704C26.1075 105.364 27.5475 105.124 27.9675 105.664Z" fill="#C0C0C0"/>
<path d="M24.4275 101.824C22.2675 101.764 21.5475 99.6042 16.8075 97.8642C16.6875 97.8042 16.5076 97.8042 16.5676 97.5642C16.7476 97.0842 19.9876 98.5242 22.3876 100.444C23.0476 100.984 23.7675 101.404 24.4275 101.824Z" fill="#C0C0C0"/>
<path d="M28.2075 111.664C28.0875 112.144 27.9075 111.784 25.2675 110.704C21.5475 109.204 20.1675 110.044 16.3875 106.924C16.2675 106.804 16.0875 106.684 16.2075 106.504C16.5075 105.964 17.4674 108.004 22.3274 109.144C24.3674 109.684 28.0275 111.064 28.2075 111.664Z" fill="#C0C0C0"/>
<path d="M31.147 34.6237C29.947 38.8837 26.1671 46.1437 20.1071 52.5037C17.6471 55.1437 9.72715 49.1437 6.96715 46.8037C4.98714 45.1237 4.32714 44.3437 3.36714 43.3237C1.86714 41.8237 6.00715 42.6038 14.4672 28.9838C15.4872 27.3638 15.3671 27.0037 16.2071 27.0037C20.8871 26.9437 24.0071 26.9437 28.3871 26.1037C29.3471 25.9237 28.447 25.1437 29.227 19.5037C29.467 17.7037 30.427 16.5037 31.927 15.5437C39.667 10.6237 48.7272 8.5838 57.3672 11.5838C57.6072 11.6438 57.6071 11.8837 57.6071 12.1237C57.5471 20.1637 57.6671 16.4438 57.1871 30.1838C57.1271 31.4438 57.127 32.0438 56.527 31.6838C50.107 27.8438 40.8671 28.4438 32.8871 36.4838C32.5871 37.0238 32.467 36.7837 31.147 34.6237ZM56.7071 30.9638C56.7071 12.0038 57.727 12.3637 56.527 12.0037C49.987 9.84374 39.7872 10.9837 31.2672 16.7437C30.5472 17.2237 30.2472 17.8237 30.0672 18.6037C28.0272 29.2837 32.407 36.6038 32.947 35.8838C34.567 33.7238 38.5872 30.4837 43.8672 29.2237C48.1272 28.2037 52.9871 29.0438 56.7071 30.9638ZM16.027 27.4237C15.547 27.2437 15.7871 27.8438 13.9871 30.6638C7.56709 40.5638 3.54711 42.4837 3.48711 42.7237C3.36711 43.2637 16.9871 55.2637 19.6871 52.1437C23.7671 47.4637 27.6672 42.0637 30.3672 35.2237C30.6672 34.3837 30.847 33.6638 30.247 32.8838C30.067 32.6438 28.9872 30.1837 28.8672 27.0037C28.8672 26.2837 28.5672 26.7638 26.7672 27.0638C23.2271 27.6638 19.627 27.9037 16.027 27.4237Z" fill="#C0C0C0"/>
<path d="M94.2072 37.384C90.6072 37.324 87.3672 36.9639 84.1272 35.8239C83.1672 35.4639 83.4072 34.624 83.1072 30.004C82.9872 28.444 83.1072 28.324 82.6272 28.204C80.4072 27.664 76.3872 26.284 72.7272 24.664C69.8472 23.344 65.8272 22.8639 64.8072 23.0439C63.0072 23.4039 67.3272 16.6839 65.8872 9.42391C65.2272 6.18391 63.7872 5.94398 67.0272 5.58398C69.7272 5.28398 72.1272 6.18391 74.5272 7.32391C82.6872 11.2239 84.5472 12.244 93.4872 10.984C94.3272 10.864 94.2072 11.4639 93.7272 17.6439C93.7272 17.9439 93.7872 18.0039 94.0872 17.9439C105.487 16.3239 103.327 6.06391 104.767 21.7239C105.787 33.2439 106.027 32.584 105.247 33.364C102.187 36.244 98.3472 37.444 94.2072 37.384ZM64.9272 22.4439C65.8872 22.2039 69.9072 22.564 72.6072 23.764C85.1472 29.344 88.5672 28.1439 91.3272 27.1239C91.7472 26.9439 91.9272 26.7639 91.9872 26.3439C93.9672 9.90392 93.5472 11.404 93.1872 11.464C78.0672 14.224 75.4872 4.98393 65.8272 6.12391C65.4672 6.18391 65.4672 6.30391 65.6472 6.54391C69.1272 12.9039 64.9272 22.0839 64.9272 22.4439ZM103.387 13.984C102.007 15.964 97.9872 18.304 94.0272 18.484C93.3072 18.484 93.5472 18.784 93.3672 20.764C92.8272 26.164 92.7072 27.4839 91.0272 28.0239C81.7272 30.9639 83.5272 23.884 83.9472 34.864C84.0072 35.884 94.7472 38.1039 101.407 35.0439C102.667 34.4439 103.747 33.6039 104.887 32.8239C105.367 32.5839 105.067 32.824 103.387 13.984Z" fill="#C0C0C0"/>
<path d="M52.9872 27.0639C52.3872 25.7439 52.8671 22.6839 52.8071 14.2239C52.8071 14.0439 52.8672 13.0239 53.1672 13.0239C54.0072 12.9639 53.2272 26.9439 52.9872 27.0639Z" fill="#C0C0C0"/>
<path d="M50.407 27.6641C50.047 27.4241 50.587 21.9641 50.887 13.2641C50.887 13.0841 50.827 12.844 51.067 12.844C52.147 12.784 50.767 27.5441 50.407 27.6641Z" fill="#C0C0C0"/>
<path d="M48.6671 25.7438C48.1871 25.4438 48.6671 20.2839 48.6071 15.4839C48.6071 13.3239 48.6071 13.5639 48.6671 13.0839C48.7271 12.7239 49.087 12.7238 49.147 13.1438C49.507 16.8038 48.9671 23.3438 48.6671 25.7438Z" fill="#C0C0C0"/>
<path d="M33.607 30.9039C33.187 31.0239 32.047 28.8639 32.407 27.7239C32.527 27.3039 33.007 27.4239 33.007 27.7239C33.187 28.9839 34.147 30.7239 33.607 30.9039Z" fill="#C0C0C0"/>
<path d="M25.8071 32.944C23.8871 34.084 15.607 32.3441 15.727 31.8041C15.907 31.0841 15.7871 32.164 25.8071 32.944Z" fill="#C0C0C0"/>
<path d="M26.227 30.7239C23.167 31.0239 16.2071 30.7841 16.6871 29.7641C16.7471 29.6441 16.867 29.644 17.047 29.704C19.087 30.304 25.987 30.3039 26.227 30.7239Z" fill="#C0C0C0"/>
<path d="M24.727 35.044C22.267 35.884 14.287 34.0241 14.767 33.1841C14.947 32.8841 18.0069 34.6241 23.3469 34.8041C23.7669 34.8041 24.187 34.864 24.607 34.924L24.727 35.044Z" fill="#C0C0C0"/>
<path d="M14.647 46.4437C15.007 46.6238 14.6471 46.4438 18.3671 48.6638C18.5471 48.7838 18.907 48.9038 18.787 49.2038C18.607 49.6838 12.667 46.8038 14.647 46.4437Z" fill="#C0C0C0"/>
<path d="M84.9672 25.3839C84.9072 25.1439 85.5672 13.8639 86.2872 13.9239C86.7072 14.0439 85.6872 24.9639 84.9672 25.3839Z" fill="#C0C0C0"/>
<path d="M87.6672 25.2639C87.4872 24.3639 88.3272 14.5839 88.4472 14.1639C88.5672 13.7439 88.9272 13.8039 88.9272 14.2239C88.9872 15.4239 88.3872 24.0639 87.6672 25.2639Z" fill="#C0C0C0"/>
<path d="M79.5672 21.8437C79.9272 18.7837 79.7472 14.1038 80.4072 14.1638C80.7072 14.1638 80.6472 14.4637 80.6472 14.6437C80.3472 23.5837 79.2672 24.7237 79.5672 21.8437Z" fill="#C0C0C0"/>
<path d="M82.5672 24.1839C82.3872 23.4039 82.7472 17.5839 83.1072 14.5239C83.1072 14.3439 83.1072 13.9839 83.4072 13.9839C84.0672 13.9839 82.8672 23.3439 82.5672 24.1839Z" fill="#C0C0C0"/>
<path d="M99.1872 32.2842C98.5272 29.5842 98.8872 27.0042 97.8672 20.7642C97.6272 19.4442 98.1672 19.5641 98.3472 20.2241C99.4872 24.7841 99.4272 31.7442 99.1872 32.2842Z" fill="#C0C0C0"/>
<path d="M101.707 30.5437C101.347 29.3437 101.647 29.9438 100.687 22.6238C100.267 19.3838 99.9672 19.1438 100.327 19.0238C101.227 18.7838 102.487 30.4837 101.707 30.5437Z" fill="#C0C0C0"/>
<path d="M97.1472 30.544C96.9072 29.944 96.9672 29.4641 96.9072 28.9841C96.3672 22.2041 95.8872 21.484 96.3072 21.424C96.9072 21.364 97.6872 28.744 97.1472 30.544Z" fill="#C0C0C0"/>
</svg>
