<svg width="120" height="120" viewBox="0 0 120 120" fill="none" xmlns="http://www.w3.org/2000/svg">
<path d="M60.9072 108.184C59.5875 108.724 60.6672 108.664 46.1474 105.784C25.2674 101.644 25.5074 101.824 25.4474 100.804L24.1875 69.4242C24.1875 68.8242 24.5475 69.0042 16.9875 70.2042C16.7475 70.2642 16.5075 70.2042 16.3875 69.9642C16.2675 69.7242 16.4475 69.6042 16.5675 69.4842C23.7675 61.9242 23.7674 61.8042 24.2474 61.6242C30.3674 59.8841 30.6675 60.4242 30.6075 59.5841C30.4875 57.9641 30.8475 57.7241 30.3075 57.6641C30.0075 57.6641 29.7075 57.5441 29.4075 57.4841C29.1675 57.4841 29.1075 57.4241 29.1075 57.1841C29.0475 50.9441 28.8074 51.0641 29.5274 50.8841C33.9674 49.8641 33.9674 49.8641 34.0274 50.1041C34.0874 50.4641 33.9074 50.1041 30.5474 51.1241C40.5074 52.1441 52.0275 53.344 60.0678 54.244C61.1478 54.364 66.1272 52.804 66.2472 53.344C66.3072 53.584 65.9478 53.584 65.7678 53.644C59.9475 55.144 60.1872 54.724 58.7474 54.544C27.6074 51.364 29.4075 51.0641 29.4075 51.6641C29.5275 57.0641 29.2875 57.0041 29.7675 57.0641C62.5278 60.7842 60.6678 61.2042 60.6678 60.5442C60.5478 55.024 60.4878 55.0241 60.7878 55.0241C61.0278 55.0241 61.0272 55.3241 61.0272 55.5041C61.2072 61.2042 60.9678 60.9642 61.5678 60.7842C67.8078 59.0441 75.8472 57.0641 82.6272 55.3841C82.8672 55.3241 83.1672 55.2041 83.2272 55.5041C83.4072 56.2241 63.7272 60.2442 63.7272 61.0842C63.9072 65.5242 63.2478 65.8842 64.0878 65.6442L85.5678 59.5241C86.3478 59.2841 85.5078 57.604 86.2878 57.844C87.1878 58.084 88.2072 58.2641 89.0472 58.6841C99.6072 63.9642 99.5478 63.7842 99.4878 64.3242C99.4278 64.8042 88.6272 67.9842 88.2072 68.4042C88.7472 68.6442 88.3872 68.4042 88.6272 88.0843C88.5672 88.3242 88.6272 88.3842 88.6272 89.1042C88.6272 95.9442 88.9272 96.0042 87.8472 96.4242C83.6472 98.2242 78.4872 100.744 60.9072 108.184ZM58.9274 66.5442C60.9072 66.9042 59.5875 67.0842 63.0072 66.0642C63.2472 66.0042 63.3072 65.8842 63.3072 65.6442C63.3072 60.8442 63.5472 60.9042 63.0072 61.0842C60.7872 61.7442 60.5472 61.5642 44.4075 59.5841C30.1275 57.8441 31.0875 57.7241 31.0875 58.2041C31.5075 62.4642 30.7875 62.9442 31.5675 63.0042C32.1075 63.0042 58.9274 66.5442 58.9274 66.5442ZM59.7675 87.6042C59.7675 87.6042 60.1272 67.3242 60.0072 67.2042C59.8275 66.9042 60.0072 67.3242 24.7274 62.4642C24.2474 62.4042 24.4275 59.704 25.9875 100.744C25.9875 101.284 25.9275 100.924 59.1075 107.824C59.7075 108.004 59.4675 110.044 59.7675 87.6042ZM60.0072 108.064C88.3272 95.5842 88.2072 96.0643 88.2072 95.2842C88.1472 93.1242 88.1472 69.7242 88.1472 69.7242C88.1472 69.3042 88.0278 68.8242 88.3878 68.4042L70.8072 74.4042C70.4472 74.5242 70.6272 74.7042 60.7272 67.3242C60.4272 80.8842 60.3072 94.4442 60.0072 108.064ZM98.8272 64.2042C98.5872 64.0242 98.8278 64.2042 89.1678 59.344C88.7478 59.164 89.1078 59.2841 61.2678 67.0842C61.5078 67.3242 61.2672 67.0842 70.2072 73.6242C70.8072 74.0442 70.3272 73.9242 98.8272 64.2042ZM17.1075 69.7842C17.5275 69.8442 19.9875 69.1842 23.8875 68.6442C24.3075 68.5842 24.2474 68.6442 23.9474 62.5842L17.1075 69.7842Z" fill="#252525"/>
<path d="M35.1674 103.624C35.5274 103.624 36.2474 103.804 35.8874 103.984C32.1674 106.204 28.5074 108.364 27.9074 108.244C23.1074 107.404 20.7074 105.604 18.6074 104.284C17.4074 103.564 17.1674 104.224 16.5674 104.644L13.6273 106.624C18.3673 110.944 20.1674 110.464 27.4874 113.704C28.3274 114.064 28.1473 113.644 29.8273 112.504C34.5073 109.324 39.0075 107.404 43.8675 105.364C46.9875 105.184 35.7673 108.664 28.4473 114.424C27.9673 114.784 27.8473 114.664 23.9473 112.984C20.7073 111.604 17.1074 111.004 13.2074 106.924C12.4874 106.204 13.2674 105.964 15.6674 104.404C16.9274 103.564 17.2874 103.504 16.8674 103.264C12.0074 100.624 6.00733 99.3641 8.64733 98.4041C10.5073 97.7441 23.1674 93.1241 25.0874 92.7041C25.0874 92.8841 25.2074 93.1241 25.0874 93.3041C8.82739 99.6041 8.04733 98.8241 9.42733 99.3641C12.3673 100.624 14.2273 100.564 20.3473 104.464C22.6273 105.904 25.0274 106.804 27.6074 107.464C28.3274 107.644 27.9674 107.584 35.1674 103.624Z" fill="#644DF6"/>
<path d="M35.2274 45.4239C35.9474 46.9839 35.2875 47.344 35.8875 47.404C42.7275 47.944 70.3272 50.5239 70.3272 50.8239C70.3272 51.4839 70.5072 52.2039 70.2072 52.4439C70.0272 52.0839 70.0872 51.7241 70.0872 51.3641C70.0872 50.8241 70.0872 51.064 60.0072 50.104C35.1674 47.764 35.2274 47.9441 35.2274 47.1641C35.2274 45.3041 34.4474 45.6639 34.7474 44.8239C35.2274 43.4439 34.3874 43.144 35.2274 43.204C72.3672 46.684 69.9072 46.864 69.9072 46.384C69.9072 45.424 70.0272 45.604 69.1272 45.484C32.8874 42.064 35.0474 42.244 35.0474 42.004C35.1074 41.704 68.7072 45.1239 68.8872 45.1239C70.7472 45.3039 70.1472 44.944 70.3272 48.184C70.3872 48.844 73.3872 49.1439 35.2274 45.4239ZM69.9678 47.7641C69.9678 47.0441 70.0872 47.104 68.5872 46.984C54.0075 45.604 42.7275 44.4039 35.5875 43.6239C34.9875 43.5639 35.4675 43.8641 35.1675 44.7641C34.9275 45.4841 47.4675 45.844 69.3678 48.304C69.9678 48.364 69.9678 48.3641 69.9678 47.7641Z" fill="#644DF6"/>
<path d="M80.7072 99.6635C80.9472 99.4235 81.3072 99.3635 81.6072 99.1835C82.0272 99.4235 82.5672 99.4235 83.0472 99.4835C89.1072 100.324 93.4272 103.564 94.5072 104.104C95.4672 104.524 95.2878 104.404 97.8678 102.844C116.948 91.5635 116.527 92.3435 115.927 92.0435C112.567 90.0635 101.767 87.4235 100.507 87.0035C96.1272 85.5035 95.5872 85.2035 94.4472 85.8635C92.8872 86.7635 89.2278 88.3835 88.5678 88.7435C88.4478 87.9035 88.2672 88.2635 94.5072 85.1435C95.8272 84.4835 96.6078 85.1435 101.168 86.5235C102.668 86.9435 113.287 89.4635 116.707 92.1035C117.247 92.5235 117.127 92.4035 109.927 96.6035C104.107 100.024 106.087 98.9435 95.5872 104.824C94.2078 105.604 93.2472 103.864 88.6272 101.944C84.7872 100.204 81.3672 99.9635 80.7072 99.6635Z" fill="#644DF6"/>
<path d="M36.9075 39.9038C37.5675 40.2038 70.0278 42.5438 69.9678 43.0838C69.9678 43.3838 72.3078 43.5038 36.0675 40.3838C35.5275 40.3238 35.3474 40.3238 35.3474 40.0838C35.3474 39.6038 36.1875 39.5438 38.7675 39.1838C43.9275 38.4638 53.2875 37.2038 53.2875 37.6238C53.3475 37.9838 47.3475 38.6438 36.9075 39.9038Z" fill="#644DF6"/>
<path d="M83.4677 40.924C83.2277 40.804 55.9274 38.104 54.0674 37.864C53.7674 37.804 53.5874 37.804 53.5874 37.624C53.5874 37.504 89.4071 40.624 85.6271 41.164C85.0871 41.224 70.6271 43.384 70.5071 42.904C70.4471 42.424 82.7477 41.164 83.4677 40.924Z" fill="#644DF6"/>
<path d="M69.3678 53.4038C31.7476 49.4438 33.9076 49.6839 33.9676 49.3839C34.0276 49.0839 34.0275 49.1438 41.4075 49.9238C60.6678 51.8438 72.7278 52.8638 69.3678 53.4038Z" fill="#644DF6"/>
<path d="M80.6472 48.4839C85.2672 47.6439 86.1672 47.2238 86.2272 48.4238C86.2872 49.7438 85.9872 49.8039 85.2672 49.9839C70.3272 53.3439 70.3272 53.5838 70.2672 53.2238C70.2072 52.9238 70.5672 52.9838 70.7472 52.9238C84.0672 49.3238 85.9272 49.7439 85.8072 49.0839C85.7472 48.6639 86.4672 48.8439 71.3472 51.6639C71.2272 51.6639 70.9872 51.7838 70.9272 51.6038C70.8672 51.3638 71.1672 51.3639 71.3472 51.3639C85.5672 48.3639 85.8672 48.7838 85.7472 48.3038C85.6272 47.7038 85.6872 47.9439 74.8872 49.9839C74.2872 50.1039 71.4672 50.5839 70.8672 50.5839C70.9872 50.2839 70.9272 50.2839 80.6472 48.4839Z" fill="#644DF6"/>
<path d="M85.6272 45.9642C85.5072 45.5442 85.3872 45.1842 85.3872 44.7642C85.4472 44.4042 85.0872 44.5842 84.9672 44.5842C81.7872 45.0042 73.1472 46.5042 73.0272 46.2642C72.9672 45.9042 85.3272 44.3441 85.3872 44.2241C85.5072 44.0441 85.6272 43.8641 85.5672 43.6241L70.9272 45.7241C70.5672 45.7841 70.5672 45.4841 70.8672 45.4241C72.0672 45.1841 77.5272 44.3442 78.2472 44.2842C86.3472 43.0842 85.9872 42.9641 85.9872 43.5041C85.9872 44.0441 85.4472 44.884 85.9272 45.844C86.1672 46.324 86.5872 46.1441 76.5672 47.8241C64.5672 49.8041 73.4472 47.7642 85.6272 45.9642Z" fill="#644DF6"/>
<path d="M73.0878 55.9236C83.1078 53.3436 82.5672 53.7037 82.4472 53.2837C82.3272 52.8637 64.7472 57.5436 62.6472 57.9036C62.6472 57.6036 62.5878 57.5436 82.0878 52.9236C82.7478 52.7436 82.2678 52.2637 82.5078 51.0637C82.5078 50.9437 82.5072 50.7637 82.7472 50.7637C83.0472 50.7637 83.0478 50.8236 82.9878 54.5436C82.9878 54.7236 82.9872 54.9637 82.7472 54.9637C82.5672 54.9637 82.5678 54.7236 82.5678 54.6036C82.3878 53.9436 82.3872 53.9436 81.7272 54.1236C62.7672 58.8636 54.3076 60.7234 73.0878 55.9236Z" fill="#644DF6"/>
<path d="M56.7074 55.6838C59.4674 55.6838 59.5274 59.4638 56.8874 59.4038C54.1274 59.4038 54.1274 55.6838 56.7074 55.6838Z" fill="#644DF6"/>
<path d="M65.4678 61.6841C65.3478 61.7441 65.1672 61.8035 65.1072 61.6235C65.0472 61.3235 82.8672 56.5238 85.0272 56.0438C85.2672 55.9838 85.3278 56.0439 85.0878 56.1639C84.0678 56.5239 78.6678 58.0238 65.4678 61.6841Z" fill="#644DF6"/>
<path d="M62.6471 56.3439C62.6471 56.3439 62.5277 56.3439 62.5277 56.2239C62.4677 56.0439 62.6477 56.1039 62.7077 56.0439C86.4677 50.1639 89.9471 50.2239 62.6471 56.3439Z" fill="#644DF6"/>
<path d="M85.2672 58.3841C85.4472 58.3241 85.6872 58.2041 85.7472 58.3841C85.8672 58.8641 39.6075 71.8242 85.2672 58.3841Z" fill="#644DF6"/>
<path d="M85.0271 57.3641C85.0871 57.5441 85.0877 57.5441 83.4677 57.9641C41.4675 70.1442 84.8471 56.8841 85.0271 57.3641Z" fill="#644DF6"/>
<path d="M62.5872 59.7641C68.6478 58.0841 80.8872 54.6641 80.9472 54.9641C81.0672 55.2041 63.2478 59.8841 62.5872 59.7641Z" fill="#644DF6"/>
<path d="M85.5072 41.8838C85.6872 41.9438 85.9872 41.7037 85.9872 41.9437C85.9872 42.1837 85.6872 42.1238 85.5072 42.1238C71.1072 44.2238 71.0472 44.2237 70.9872 44.0437C70.9872 43.8037 70.2672 43.9838 85.5072 41.8838Z" fill="#644DF6"/>
<path d="M54.6075 65.9436C54.3675 64.0836 56.4074 62.8242 58.0274 63.4842C59.3474 64.0242 59.5874 65.5842 58.9274 66.4842C57.4874 66.3642 56.0475 66.1836 54.6075 65.9436Z" fill="#644DF6"/>
<path d="M46.7473 100.564C46.7473 98.344 46.7474 98.0434 47.2874 98.1034C49.6874 98.1634 52.0273 98.2834 54.4273 98.4034C54.7273 98.4034 54.8473 98.5835 54.8473 98.8835C54.4273 103.923 54.6674 103.984 54.0074 103.864C50.7074 103.324 49.7475 103.083 47.4675 102.723C46.5675 102.483 46.7473 102.184 46.7473 100.564Z" fill="#644DF6"/>
<path d="M46.5073 72.1841C43.3873 71.7041 42.9073 71.7041 35.8273 70.6241C34.6273 70.4441 35.1674 70.1441 34.8674 68.2241C34.7474 67.5641 34.6874 67.6241 39.7874 68.1041C47.2274 68.8241 47.2274 68.6441 47.1674 69.3641C46.9274 71.7041 47.2273 72.3041 46.5073 72.1841Z" fill="#252525"/>
<path d="M92.6472 89.4642C92.3472 89.2842 92.4672 88.9842 92.8272 89.0442C98.9472 91.0242 112.447 99.9042 92.6472 89.4642Z" fill="#644DF6"/>
<path d="M101.647 95.4641C97.9271 93.7241 95.8871 92.5841 91.7471 90.9041C91.4471 90.7841 91.3277 90.7241 91.3877 90.5441C91.5677 89.8241 101.227 94.4441 101.647 95.4641Z" fill="#644DF6"/>
<path d="M99.2471 88.5035C99.4871 88.5635 104.767 90.2435 104.467 90.9635C104.347 91.2035 104.287 91.2635 102.187 90.3635C98.7071 88.9235 98.7071 88.9235 98.7671 88.6235C98.8271 88.4435 99.0071 88.5035 99.2471 88.5035Z" fill="#644DF6"/>
<path d="M96.9077 94.8642C84.9677 89.5242 92.7677 91.5036 96.9677 94.7436L96.9077 94.8642Z" fill="#644DF6"/>
<path d="M92.8271 100.324C93.4871 100.564 95.8877 101.944 95.4077 102.484C95.2877 102.604 95.1677 102.664 94.9877 102.604C94.0877 102.184 93.3071 101.644 92.5271 101.044C92.3471 100.864 92.2271 100.384 92.8271 100.324Z" fill="#644DF6"/>
<path d="M27.9675 105.664C26.9475 105.844 24.0674 104.404 22.4474 103.384C20.5874 102.184 17.7074 99.5436 14.3474 99.0636C13.3274 98.9436 15.0074 97.4436 20.8874 101.704C26.1074 105.364 27.5475 105.124 27.9675 105.664Z" fill="#644DF6"/>
<path d="M24.4274 101.824C22.2674 101.764 21.5474 99.6042 16.8074 97.8642C16.6874 97.8042 16.5075 97.8042 16.5675 97.5642C16.7475 97.0842 19.9875 98.5242 22.3875 100.444C23.0475 100.984 23.7674 101.404 24.4274 101.824Z" fill="#644DF6"/>
<path d="M28.2074 111.664C28.0874 112.144 27.9075 111.784 25.2675 110.704C21.5475 109.204 20.1674 110.044 16.3874 106.924C16.2674 106.804 16.0874 106.684 16.2074 106.504C16.5074 105.964 17.4674 108.004 22.3274 109.144C24.3674 109.684 28.0274 111.064 28.2074 111.664Z" fill="#644DF6"/>
<path d="M31.147 34.6236C29.947 38.8836 26.167 46.1436 20.107 52.5036C17.647 55.1436 9.72709 49.1436 6.96709 46.8036C4.98708 45.1236 4.32708 44.3436 3.36708 43.3236C1.86708 41.8236 6.00709 42.6037 14.4671 28.9837C15.4871 27.3637 15.367 27.0036 16.207 27.0036C20.887 26.9436 24.007 26.9436 28.387 26.1036C29.347 25.9236 28.447 25.1436 29.227 19.5036C29.467 17.7036 30.427 16.5036 31.927 15.5436C39.667 10.6236 48.7271 8.58368 57.3671 11.5837C57.6071 11.6437 57.607 11.8836 57.607 12.1236C57.547 20.1636 57.667 16.4437 57.187 30.1837C57.127 31.4437 57.127 32.0437 56.527 31.6837C50.107 27.8437 40.867 28.4437 32.887 36.4837C32.587 37.0237 32.467 36.7836 31.147 34.6236ZM56.707 30.9637C56.707 12.0037 57.727 12.3636 56.527 12.0036C49.987 9.84362 39.7871 10.9836 31.2671 16.7436C30.5471 17.2236 30.2471 17.8236 30.0671 18.6036C28.0271 29.2836 32.407 36.6037 32.947 35.8837C34.567 33.7237 38.5871 30.4836 43.8671 29.2236C48.1271 28.2036 52.987 29.0437 56.707 30.9637ZM16.027 27.4236C15.547 27.2436 15.787 27.8437 13.987 30.6637C7.56703 40.5637 3.54705 42.4836 3.48705 42.7236C3.36705 43.2636 16.987 55.2636 19.687 52.1436C23.767 47.4636 27.6671 42.0636 30.3671 35.2236C30.6671 34.3836 30.847 33.6637 30.247 32.8837C30.067 32.6437 28.9871 30.1836 28.8671 27.0036C28.8671 26.2836 28.5671 26.7637 26.7671 27.0637C23.2271 27.6637 19.627 27.9036 16.027 27.4236Z" fill="#644DF6"/>
<path d="M94.2072 37.3839C90.6072 37.3239 87.3672 36.9639 84.1272 35.8239C83.1672 35.4639 83.4072 34.6239 83.1072 30.0039C82.9872 28.4439 83.1072 28.3239 82.6272 28.2039C80.4072 27.6639 76.3872 26.284 72.7272 24.664C69.8472 23.344 65.8272 22.8639 64.8072 23.0439C63.0072 23.4039 67.3272 16.6839 65.8872 9.42385C65.2272 6.18385 63.7872 5.94392 67.0272 5.58392C69.7272 5.28392 72.1272 6.18385 74.5272 7.32385C82.6872 11.2239 84.5472 12.2439 93.4872 10.9839C94.3272 10.8639 94.2072 11.4639 93.7272 17.6439C93.7272 17.9439 93.7872 18.0039 94.0872 17.9439C105.487 16.3239 103.327 6.06385 104.767 21.7239C105.787 33.2439 106.027 32.584 105.247 33.364C102.187 36.244 98.3472 37.4439 94.2072 37.3839ZM64.9272 22.4439C65.8872 22.2039 69.9072 22.564 72.6072 23.764C85.1472 29.344 88.5672 28.1439 91.3272 27.1239C91.7472 26.9439 91.9272 26.7639 91.9872 26.3439C93.9672 9.90385 93.5472 11.404 93.1872 11.464C78.0672 14.224 75.4872 4.98387 65.8272 6.12385C65.4672 6.18385 65.4672 6.30385 65.6472 6.54385C69.1272 12.9039 64.9272 22.0839 64.9272 22.4439ZM103.387 13.9839C102.007 15.9639 97.9872 18.3039 94.0272 18.4839C93.3072 18.4839 93.5472 18.784 93.3672 20.764C92.8272 26.164 92.7072 27.4839 91.0272 28.0239C81.7272 30.9639 83.5272 23.884 83.9472 34.864C84.0072 35.884 94.7472 38.1039 101.407 35.0439C102.667 34.4439 103.747 33.6039 104.887 32.8239C105.367 32.5839 105.067 32.8239 103.387 13.9839Z" fill="#644DF6"/>
<path d="M52.9871 27.0639C52.3871 25.7439 52.867 22.6839 52.807 14.2239C52.807 14.0439 52.8671 13.0239 53.1671 13.0239C54.0071 12.9639 53.2271 26.9439 52.9871 27.0639Z" fill="#644DF6"/>
<path d="M50.407 27.664C50.047 27.424 50.587 21.964 50.887 13.264C50.887 13.084 50.827 12.8439 51.067 12.8439C52.147 12.7839 50.767 27.544 50.407 27.664Z" fill="#644DF6"/>
<path d="M48.667 25.7437C48.187 25.4437 48.667 20.2838 48.607 15.4838C48.607 13.3238 48.607 13.5638 48.667 13.0838C48.727 12.7238 49.087 12.7237 49.147 13.1437C49.507 16.8037 48.967 23.3437 48.667 25.7437Z" fill="#644DF6"/>
<path d="M33.6069 30.9038C33.1869 31.0238 32.0469 28.8638 32.4069 27.7238C32.5269 27.3038 33.0069 27.4238 33.0069 27.7238C33.1869 28.9838 34.1469 30.7238 33.6069 30.9038Z" fill="#644DF6"/>
<path d="M25.8069 32.944C23.8869 34.084 15.6069 32.3441 15.7269 31.8041C15.9069 31.0841 15.7869 32.164 25.8069 32.944Z" fill="#644DF6"/>
<path d="M26.227 30.7239C23.167 31.0239 16.2071 30.784 16.6871 29.764C16.7471 29.644 16.867 29.6439 17.047 29.7039C19.087 30.3039 25.987 30.3039 26.227 30.7239Z" fill="#644DF6"/>
<path d="M24.7269 35.044C22.2669 35.884 14.287 34.0241 14.767 33.1841C14.947 32.8841 18.0069 34.6241 23.3469 34.8041C23.7669 34.8041 24.1869 34.864 24.6069 34.924L24.7269 35.044Z" fill="#644DF6"/>
<path d="M14.647 46.4436C15.007 46.6237 14.6471 46.4437 18.3671 48.6637C18.5471 48.7837 18.907 48.9037 18.787 49.2037C18.607 49.6837 12.667 46.8037 14.647 46.4436Z" fill="#644DF6"/>
<path d="M84.9672 25.3838C84.9072 25.1438 85.5672 13.8638 86.2872 13.9238C86.7072 14.0438 85.6872 24.9638 84.9672 25.3838Z" fill="#644DF6"/>
<path d="M87.6671 25.2638C87.4871 24.3638 88.3271 14.5838 88.4471 14.1638C88.5671 13.7438 88.9271 13.8038 88.9271 14.2238C88.9871 15.4238 88.3871 24.0638 87.6671 25.2638Z" fill="#644DF6"/>
<path d="M79.5671 21.8438C79.9271 18.7838 79.7471 14.1039 80.4071 14.1639C80.7071 14.1639 80.6471 14.4638 80.6471 14.6438C80.3471 23.5838 79.2671 24.7238 79.5671 21.8438Z" fill="#644DF6"/>
<path d="M82.5672 24.1839C82.3872 23.4039 82.7472 17.5838 83.1072 14.5238C83.1072 14.3438 83.1072 13.9839 83.4072 13.9839C84.0672 13.9839 82.8672 23.3439 82.5672 24.1839Z" fill="#644DF6"/>
<path d="M99.1871 32.2842C98.5271 29.5842 98.8871 27.0042 97.8671 20.7642C97.6271 19.4442 98.1671 19.5641 98.3471 20.2241C99.4871 24.7841 99.4271 31.7442 99.1871 32.2842Z" fill="#644DF6"/>
<path d="M101.707 30.5436C101.347 29.3436 101.647 29.9437 100.687 22.6237C100.267 19.3837 99.9671 19.1437 100.327 19.0237C101.227 18.7837 102.487 30.4836 101.707 30.5436Z" fill="#644DF6"/>
<path d="M97.1472 30.5439C96.9072 29.9439 96.9671 29.464 96.9071 28.984C96.3671 22.204 95.8871 21.4839 96.3071 21.4239C96.9071 21.3639 97.6872 28.7439 97.1472 30.5439Z" fill="#644DF6"/>
</svg>
