<svg width="120" height="120" viewBox="0 0 120 120" fill="none" xmlns="http://www.w3.org/2000/svg">
<path d="M55.5701 15.8874C56.8259 15.4794 57.4205 16.5624 56.6819 17.4714C53.2739 21.6654 49.7999 28.14 48.6215 27.2142C47.5007 26.3328 53.9315 18.8526 53.6585 18.4368C52.5953 18.6456 50.2157 19.7568 48.8879 19.9608C47.8145 20.1276 47.1479 19.341 47.6423 18.3486C48.9659 15.6918 53.6945 9.29635 55.1099 7.41235C55.4249 6.99235 55.8095 6.50335 56.1899 6.80275C56.4599 7.01575 56.4299 7.20835 54.7757 9.80575C49.8971 17.4678 49.5485 17.8296 49.6721 17.9532C49.6763 17.9598 49.6283 17.82 55.5701 15.8874Z" fill="#252525"/>
<path d="M115.868 58.2731C116.859 57.9509 117.328 58.8053 116.745 59.5217C114.056 62.8283 111.318 67.9385 110.385 67.2065C109.501 66.5111 114.573 60.6107 114.358 60.2831C113.518 60.4475 111.643 61.3223 110.596 61.4831C109.749 61.6145 109.223 60.9935 109.612 60.2117C110.656 58.1153 114.385 53.0717 115.501 51.5861C115.75 51.2555 116.054 50.8697 116.352 51.1061C116.565 51.2741 116.54 51.4259 115.236 53.4743C111.387 59.5169 111.113 59.8025 111.212 59.8997C111.22 59.9069 111.183 59.7977 115.868 58.2731Z" fill="#252525"/>
<path d="M9.38394 94.9201C10.3751 94.5979 10.8443 95.4523 10.2617 96.1687C7.57194 99.4753 4.83411 104.585 3.90171 103.853C3.01851 103.158 8.08974 97.2577 7.87434 96.9301C7.03434 97.0945 5.15931 97.9693 4.11231 98.1301C3.26571 98.2615 2.74011 97.6405 3.12891 96.8587C4.17231 94.7623 7.90134 89.7187 9.01794 88.2331C9.26694 87.9025 9.57054 87.5161 9.86874 87.7531C10.0817 87.9211 10.0571 88.0729 8.75274 90.1207C4.90371 96.1639 4.63011 96.4501 4.72851 96.5467C4.73571 96.5557 4.69911 96.4459 9.38394 94.9201Z" fill="#252525"/>
<path fill-rule="evenodd" clip-rule="evenodd" d="M72.9217 61.9206C73.5949 59.8343 75.5281 58.8399 76.7862 60.8952C77.1199 61.4406 77.3779 62.103 77.5657 62.832C76.2379 62.8248 74.9064 62.928 73.5846 63.1434C73.2684 63.1932 73.1371 63.1434 73.0819 62.8212C73.0243 62.4786 72.9703 62.1804 72.9217 61.9206ZM69.7063 64.0848C69.2305 64.0914 68.6778 64.1016 68.037 64.1202C67.2066 64.1442 66.7915 64.1574 66.5521 63.9588C66.3091 63.7572 66.2479 63.3372 66.1171 62.4882C65.2099 56.5857 62.493 51.1103 58.3411 46.818C58.3198 46.7954 58.2988 46.7731 58.2783 46.7513C57.2354 45.6441 57.2316 45.6401 58.1731 44.418L58.1735 44.4174C59.2123 43.0692 59.2132 43.0681 60.7836 43.77C62.6047 44.5842 64.4226 43.1064 62.9005 41.1624C61.7472 39.69 58.9249 37.017 57.0805 36.6846C55.2655 36.3564 54.8605 38.5446 56.5675 40.1184C57.2211 40.7228 56.981 40.9667 56.0562 41.906C55.7527 42.2142 55.3755 42.5973 54.9319 43.0926C54.6613 43.3926 54.4519 43.5042 54.0571 43.2264C48.7019 39.4724 44.2333 38.8954 42.2332 38.6371C41.5126 38.544 41.1124 38.4924 41.1067 38.3484C41.036 37.4939 41.0587 36.6342 41.1745 35.7846C41.2245 35.5112 41.5376 35.5094 41.8546 35.5075C42.0092 35.5066 42.1647 35.5057 42.2911 35.4732C44.8669 34.809 45.0384 32.4294 42.711 31.509C40.6293 30.6567 38.3184 30.5435 36.1632 31.188C33.9823 31.8252 33.7393 33.9198 36.0241 34.9044C36.2387 34.9969 36.4949 35.0293 36.7453 35.061C37.1675 35.1145 37.5735 35.1659 37.7377 35.4996C37.9085 35.8472 37.8458 36.3099 37.7831 36.7725C37.7555 36.9759 37.728 37.1793 37.7203 37.3728C37.7152 37.4996 37.7224 37.6178 37.729 37.7265C37.7555 38.1609 37.7726 38.4432 36.9625 38.5128C32.0709 38.9078 27.4073 40.7489 23.5651 43.8018C23.3818 43.9453 23.2101 44.1413 23.039 44.3367C22.6704 44.7575 22.3041 45.1757 21.8292 45.0618C21.4203 44.9643 21.0874 44.5782 20.748 44.1845C20.5566 43.9625 20.3631 43.7381 20.1528 43.5618C19.3692 42.906 18.8082 42.2838 19.6884 41.2692C19.8863 40.9046 20.0123 40.5054 20.0592 40.0932C20.192 39.6965 20.198 39.2684 20.0763 38.8682C19.9545 38.468 19.7112 38.1156 19.38 37.86C18.0408 36.708 15.5484 38.448 14.3514 39.7476C12.6114 41.6358 10.2846 44.7444 12.3594 46.2588C13.656 47.2056 14.8332 46.4304 16.2756 45.3084C16.7049 44.9744 16.8059 45.0843 17.4133 45.7455C17.755 46.1175 18.2571 46.6641 19.068 47.4042C19.4622 47.7642 19.4406 47.9736 19.131 48.4026C15.7345 53.107 15.0503 56.1219 14.6726 57.7857C14.4779 58.644 14.3646 59.1428 14.0028 59.3286C13.5557 59.5593 12.9043 59.3953 12.2545 59.2317C11.9713 59.1605 11.6884 59.0892 11.4228 59.0508C11.3693 59.043 11.3174 59.0359 11.2672 59.0289C10.5735 58.9328 10.2041 58.8816 10.3512 58.0692C10.74 55.9284 8.62445 53.454 6.97745 55.875C5.89271 57.5415 5.31493 59.487 5.31428 61.4754C5.20328 64.9686 8.20445 65.7414 9.26645 63.582C9.35519 63.4014 9.39761 63.18 9.43937 62.9616C9.51767 62.553 9.59393 62.1546 9.96905 62.0556C10.3283 61.9608 10.7498 62.1018 11.171 62.2422C11.357 62.304 11.543 62.3658 11.7234 62.4078C12.0614 62.4858 12.3441 62.5434 12.58 62.592C13.5281 62.7858 13.7191 62.8248 13.6926 63.3996C13.4502 68.6916 14.3874 71.6496 14.873 73.182C15.1491 74.0532 15.2792 74.4636 14.9628 74.58C14.1596 74.9622 13.3154 75.2514 12.4464 75.4416C12.1577 75.4746 12.0122 75.2376 11.8154 74.9172C11.6316 74.6172 11.403 74.2446 10.971 73.9524C9.38225 72.876 8.07365 73.9908 8.09105 75.3744C8.11019 77.1348 8.60147 78.8574 9.51365 80.3634C10.941 82.7634 13.7136 81.189 13.3788 79.3098C13.1083 77.7768 13.9231 77.5698 14.6982 77.3724C14.9648 77.304 15.2267 77.2374 15.438 77.1186C16.0338 76.7838 16.2666 77.0052 16.539 77.5986C18.0975 81.0672 20.3569 84.1752 23.175 86.7282L23.1879 86.7396C24.1177 87.5778 24.1183 87.5784 23.34 88.6092C22.9886 89.0208 22.6643 89.4552 22.3692 89.9088C21.8391 90.846 21.5494 90.6192 21.0345 90.216C20.7155 89.9664 20.3102 89.649 19.7076 89.499C17.6076 88.9758 16.6602 90.5328 17.0724 92.1282C17.8116 94.9914 23.9983 98.8728 25.4077 96.159C25.9813 95.0538 25.3764 93.9582 24.4422 93.1278C23.9337 92.6766 24.0533 92.5332 24.8912 91.527C25.2198 91.1322 25.659 90.6054 26.214 89.8746C26.454 89.5608 26.634 89.4948 26.985 89.7294C29.5037 91.4238 32.3139 92.6376 35.2741 93.3102C35.8464 93.4386 35.8392 93.4962 35.6369 95.1246C35.5562 95.7738 35.4446 96.672 35.3263 97.9242C35.3054 98.1438 35.3164 98.3796 35.3273 98.6136C35.3478 99.0534 35.368 99.4872 35.1756 99.7926C34.9788 100.105 34.5734 100.106 34.1511 100.106C33.8902 100.106 33.6228 100.107 33.3943 100.181C32.3305 100.525 31.4143 100.969 31.2775 102.341C31.2387 102.778 31.346 103.215 31.5825 103.584C31.819 103.953 32.1713 104.233 32.5842 104.381C35.3874 105.681 38.2386 105.857 41.0443 104.396C42.702 103.533 42.4879 100.993 39.5191 100.39C38.7649 100.236 38.7734 100.156 38.9678 98.322C39.0578 97.4724 39.1877 96.2466 39.3 94.4634C39.3344 93.9234 39.5422 93.9366 40.3429 93.9852C41.0403 94.0284 42.1873 94.0986 44.0611 93.8556C46.2288 93.5742 47.944 93.1374 49.3115 92.6622C49.2292 92.6304 49.1498 92.5902 49.0747 92.5416C48.7938 92.3598 48.595 92.076 48.5207 91.7496C47.5948 89.613 47.4304 87.2238 48.0551 84.9804C48.4943 83.4234 50.2877 83.3766 50.9585 85.9086C51.0749 86.3478 51.2171 86.3292 52.2998 86.187C52.7358 86.1294 53.3244 86.052 54.1253 85.9764C54.4221 85.9482 54.4335 85.4226 54.4536 84.486C54.4988 82.3866 54.5884 78.2226 58.0397 72.975C58.2431 72.6654 58.2281 72.525 57.9377 72.3054C57.2423 71.781 56.839 71.4156 56.583 71.184C56.1933 70.8306 56.145 70.7868 55.9277 70.9626C54.9785 71.7336 54.1211 72.2448 53.2331 71.4228C52.9965 71.247 52.837 70.9866 52.7878 70.6956C52.7386 70.4052 52.8035 70.107 52.9691 69.8628C54.9593 65.5104 59.6573 63.4512 59.0393 66.606C58.9394 67.116 58.7304 67.458 58.5725 67.7172C58.3698 68.049 58.251 68.2434 58.5545 68.478C59.1308 68.925 59.4996 69.2772 59.7581 69.5238C60.2503 69.9942 60.3433 70.0824 60.7087 69.7158C63.1795 67.194 66.2077 65.2872 69.5497 64.1496C69.6121 64.1274 69.6643 64.1076 69.7063 64.0848ZM51.2885 91.8522C52.1204 91.4556 52.7568 91.0764 53.2559 90.7788C54.2879 90.1644 54.7321 89.8992 55.1011 90.5556C55.1933 90.7194 55.2855 90.873 55.3768 91.0182C55.2697 90.6648 55.1678 90.2958 55.0727 89.9106C54.9562 89.4378 54.8972 89.4462 53.905 89.5878C53.4624 89.6514 52.834 89.7408 51.9317 89.8266C51.5854 89.859 51.5789 89.9754 51.5576 90.3576C51.544 90.6006 51.5245 90.951 51.4079 91.4562C51.3865 91.5942 51.346 91.7274 51.2885 91.8522ZM56.6 94.1172C56.5284 94.2 56.4427 94.2864 56.3419 94.3776C56.0375 94.6932 55.8455 95.1006 55.7954 95.5362C55.7453 95.9718 55.8399 96.4116 56.0647 96.7884C56.4601 97.6122 57.2761 97.6338 58.0681 97.4964C58.2384 97.4712 58.4073 97.4388 58.5743 97.3998C58.4809 97.2342 58.3393 97.0224 58.1636 96.7602C57.7628 96.1608 57.1852 95.2974 56.6 94.1172ZM20.31 72.8376C21.1458 74.838 23.5842 74.4828 24.3462 72.0876H24.3492C24.84 70.545 24.3768 67.5684 22.5456 67.4076C20.7066 67.2462 19.032 69.7776 20.31 72.8376ZM43.6754 47.8938C43.2417 47.5261 42.7367 47.2519 42.1921 47.0886C39.1327 46.1688 38.2405 48.6312 39.8815 50.3208C42.2437 52.755 45.912 51.9414 44.712 49.2258C44.462 48.7151 44.1091 48.2616 43.6754 47.8938ZM31.8605 54.7643C31.7031 55.3029 31.6964 55.8745 31.8409 56.4168C33.1057 60.8928 40.071 60.5688 39.1735 56.1C38.8594 54.5345 37.6958 53.9355 36.644 53.3943C36.3656 53.2509 36.095 53.1117 35.85 52.9596C34.5546 52.5768 33.5136 52.5336 32.7337 53.361C32.32 53.7402 32.018 54.2255 31.8605 54.7643ZM38.0257 81.1968C40.8834 80.7828 40.5727 77.511 37.1857 77.0568V77.0586C33.7117 76.593 33.8592 81.8046 38.0257 81.1968ZM41.9242 85.5456C42.253 85.3344 42.5125 85.0314 42.6702 84.6738V84.6756C43.1622 83.0304 40.3309 82.2798 39.1315 83.1612C37.9789 84.0048 38.5183 85.7892 40.8211 85.8612C41.2118 85.8666 41.5954 85.7568 41.9242 85.5456ZM44.8578 55.4418C42.6115 54.7998 42.2227 57.831 44.1379 58.371V58.3728C46.1503 58.9392 46.8834 56.022 44.8578 55.4418Z" fill="#644DF6"/>
<path d="M58.0373 72.9774C58.2407 72.6672 58.2257 72.5274 57.9353 72.3078C56.1815 70.9878 56.2835 70.6734 55.9253 70.965C54.9767 71.7372 54.1181 72.2478 53.2307 71.4252C52.9945 71.2488 52.8352 70.9884 52.7861 70.698C52.7369 70.4076 52.8016 70.1094 52.9667 69.8652C54.9515 65.5116 59.6549 63.4524 59.0369 66.6084C58.8089 67.7724 58.0169 68.0634 58.5521 68.4804C60.2262 69.78 60.1476 70.2804 60.7062 69.7182C63.1764 67.1958 66.2046 65.2896 69.5472 64.152C70.0872 63.963 69.8346 63.9229 69.2604 61.0638C69.1356 60.4411 66.8946 61.4142 66.5328 59.5242C66.4542 59.23 66.492 58.9168 66.6384 58.6498C66.7854 58.3829 67.029 58.1826 67.3194 58.0908C69.2262 57.09 71.4162 56.7663 73.5312 57.1728C73.7832 57.1931 74.0238 57.2877 74.2224 57.4449C74.421 57.602 74.568 57.8145 74.6454 58.0554C74.9016 58.9902 73.7502 59.571 72.8886 59.958C72.414 60.171 72.639 60.198 73.0794 62.8236C73.134 63.1488 73.266 63.1956 73.5822 63.1458C78.1452 62.403 82.8258 62.9941 87.0612 64.8469C89.1486 65.7469 89.2644 66.3606 89.742 65.7426C90.4728 64.6818 91.3086 63.6979 92.2374 62.8056C92.4834 62.5926 92.3148 62.4984 92.184 62.3604C89.2482 59.262 90.7799 58.0014 92.4072 58.6086C95.7011 59.838 99.6072 63.9636 98.2182 65.4486C97.4532 66.2682 96.135 65.4786 95.1678 64.9086C94.9704 64.7922 94.8528 64.7544 94.7034 64.9776C94.0092 65.9232 93.2472 66.8166 92.4234 67.6518C91.722 68.4318 93.4908 68.3214 96.4434 72.6744C96.8082 73.2144 97.2234 72.333 99.6234 71.5182C99.9654 71.4018 99.7217 71.2002 99.6731 71.0604C98.9105 68.856 100.54 67.5967 101.641 68.547C105.095 71.5285 105.361 76.7731 102.533 75.1968C101.502 74.622 101.536 73.737 100.858 74.127C98.2782 75.6114 98.0723 75.4128 98.2782 75.8971C99.7043 79.257 100.396 82.407 100.381 83.697C100.368 84.7836 100.787 84.3354 103.001 84.8856C103.658 85.0482 103.334 84.6954 104.032 83.3856C104.177 83.0778 104.42 82.8264 104.723 82.6716C105.026 82.5162 105.371 82.4665 105.706 82.5289C106.039 82.5571 106.349 82.7125 106.571 82.9621C106.793 83.2123 106.91 83.5374 106.899 83.8716C107.198 86.121 106.742 88.4064 105.604 90.3696C105.493 90.6612 105.287 90.9072 105.02 91.0681C104.753 91.2295 104.44 91.2961 104.131 91.2583C103.071 91.0651 102.979 89.5824 102.951 88.506C102.936 87.9006 102.774 88.1994 100.69 87.834C100.376 87.7794 100.237 87.8341 100.183 88.1683C99.5849 92.0473 97.9134 95.6814 95.3574 98.6599C94.7298 99.3918 95.7432 99.3438 97.4334 101.604C97.8264 102.13 98.4576 100.948 99.9329 100.622C101.482 100.28 102.104 101.44 101.627 102.556C100.547 105.134 98.5656 107.232 96.0522 108.457C95.7996 108.602 95.5074 108.664 95.2182 108.631C94.9284 108.599 94.6572 108.475 94.443 108.277C93.243 107.272 93.7296 105.932 94.743 104.737C95.2896 104.095 94.6356 104.364 92.6682 102.02C91.9158 101.123 91.113 103.667 85.143 105.616C84.2514 105.907 85.1328 106.235 85.3752 108.811C85.4304 109.397 85.7322 108.88 87.2352 109.111C87.564 109.141 87.873 109.28 88.1142 109.507C88.3548 109.732 88.5138 110.032 88.566 110.358C88.6638 110.657 88.6428 110.983 88.5078 111.268C88.3722 111.552 88.1334 111.773 87.8394 111.887C85.8156 113.08 83.4402 113.534 81.1194 113.17C80.847 113.156 80.5848 113.062 80.3676 112.897C80.1498 112.732 79.9872 112.506 79.9008 112.247C79.6008 111.238 80.931 110.542 81.816 110.113C82.26 109.898 82.0824 110.074 81.4182 106.993C81.3516 106.685 81.2754 106.561 80.8968 106.612C77.8458 107.055 74.7378 106.895 71.748 106.142C71.1204 105.979 71.3412 106.333 70.5876 108.218C70.3338 108.854 71.0754 108.758 71.5644 109.514C72.87 111.536 69.129 111.857 66.2904 109.611C66.072 109.464 65.9136 109.244 65.8434 108.99C65.7732 108.736 65.7954 108.466 65.9064 108.227C66.5892 106.465 67.7886 108.508 68.2296 106.664C68.3442 106.184 68.7768 105.619 68.6316 105.284C68.4864 104.948 67.7988 104.831 67.3488 104.624C61.5714 101.924 61.5666 99.7285 60.642 100.6C59.2019 101.955 58.8731 101.808 59.1869 102.316C59.5403 102.797 59.7885 103.348 59.9153 103.931C60.0714 105.033 59.3351 105.617 58.2953 105.209C56.5805 104.538 54.6425 102.517 53.8427 100.858C53.4497 100.045 53.4767 99.5437 53.9777 99.0715C55.2977 97.8253 56.5115 99.6439 56.9177 99.5269C57.2135 99.4411 57.4337 99.0882 57.6803 98.847C58.0367 98.4984 58.5917 98.1907 58.6835 97.7797C58.7945 97.2853 56.3267 95.0598 55.0607 89.9298C54.8927 89.2476 54.8453 89.5699 51.9197 89.8453C51.3539 89.8987 51.6935 90.1771 51.3959 91.4754C51.3435 91.812 51.1779 92.1211 50.9263 92.3515C50.6749 92.5813 50.3525 92.7192 50.0123 92.7415C49.6843 92.8074 49.3435 92.7427 49.0626 92.5609C48.7816 92.3791 48.5829 92.0947 48.5087 91.7683C47.5831 89.6317 47.4187 87.2425 48.0431 84.9997C48.4823 83.4426 50.2751 83.3958 50.9471 85.9278C51.1103 86.5428 51.3251 86.2663 54.1133 85.9957C55.0487 85.8961 53.1137 80.4648 58.0373 72.9774ZM67.38 58.8738C66.6864 59.319 66.7338 59.7187 67.4964 60.0295C68.8554 60.5833 69.7848 59.7529 70.0032 60.8293C70.8864 65.1733 71.2962 64.8726 69.9894 65.2818C66.681 66.4614 63.7026 68.4138 61.3002 70.9758C60.9048 71.4018 60.6216 71.4558 58.0199 69.1344C56.9351 68.1666 58.0391 67.9254 58.2737 66.5064C58.6247 64.383 52.5137 70.0386 53.5133 71.1738C54.0221 71.7516 55.3235 70.6974 55.9223 70.2402C56.1125 70.095 56.2907 69.9828 56.5409 70.1646C57.5469 70.872 58.4904 71.664 59.3609 72.5328C59.9207 73.1106 59.2871 73.0866 57.9851 75.6649C56.2897 78.9007 55.5364 82.5475 55.8107 86.1907C55.8371 86.5249 55.7939 86.688 55.4381 86.7348C51.2915 87.2832 50.7671 87.6775 50.4101 86.5837C48.4175 80.4739 48.0701 92.31 49.9763 92.331C50.7707 92.3394 50.9309 90.5083 50.9735 89.7637C50.9903 89.4703 51.0503 89.2434 51.3935 89.1744C52.8258 88.8852 54.2752 88.689 55.7327 88.5864C56.2763 88.5486 56.1059 88.8967 56.4995 90.2461C58.2995 96.4183 60.7728 97.1095 60.033 97.8511C57.3329 100.56 57.0863 100.519 56.6075 100.121C54.1631 98.0904 52.6061 99.2958 56.7695 103.078C57.1775 103.449 58.6895 104.633 59.0729 104.338C59.4263 104.065 58.7381 102.887 58.5383 102.488C58.3925 102.196 58.2167 101.843 58.4669 101.564C59.2435 100.607 60.177 99.7885 61.227 99.1429C62.1504 98.6341 62.7792 101.528 69.3756 104.126C69.8028 104.295 69.9606 104.299 68.6556 107.671C68.3556 108.438 67.9452 107.834 66.9156 107.959C66.6108 107.995 66.2526 108.03 66.1686 108.385C65.9136 109.458 70.8246 110.905 71.1264 110.174C71.3832 109.554 69.522 109.132 69.8706 108.141C70.8162 105.452 70.86 104.683 72.0204 104.968C79.152 106.724 81.3882 104.399 81.9174 105.769C82.3926 107.006 82.7556 108.284 83.0016 109.587C83.055 109.794 83.0292 110.013 82.929 110.201C82.8294 110.39 82.6626 110.535 82.4616 110.607C81.0906 111.296 80.808 111.562 80.8584 111.871C80.9184 112.253 81.3828 112.198 81.6864 112.231C83.1276 112.342 84.5772 112.182 85.9596 111.758C89.664 110.777 88.098 109.399 85.776 109.7C85.146 109.781 84.8718 109.528 84.7362 108.944C83.7084 104.504 83.28 104.912 84.8562 104.366C90.9954 102.238 91.5552 99.7356 92.3928 100.561C95.8728 103.985 96.009 104.188 95.4972 104.866C94.9854 105.543 93.9426 107.195 94.5672 107.763C96.1086 109.162 104.477 98.7631 98.3472 102.352C97.4568 102.874 97.2036 102.912 93.9516 98.9922C93.75 98.7492 93.765 98.5723 93.9984 98.3161C96.7254 95.3274 98.478 91.5793 99.0228 87.57C99.0924 87.0966 99.3137 86.985 99.6989 87.0126C104.45 87.3486 103.379 87.4435 103.862 89.7007C104.407 92.2471 106.583 85.9261 106.082 83.6113C105.92 82.8601 105.512 82.6399 104.899 83.2992C104.059 84.1993 104.149 85.6249 103.459 85.5793C102.157 85.4857 100.862 85.3032 99.585 85.0344C98.6574 84.8412 100.108 82.8552 97.0547 75.9522C96.8898 75.5802 96.8964 75.3403 97.2534 75.1465C98.4024 74.5237 99.5436 73.8864 100.745 73.3686C101.774 72.9246 101.857 73.9752 102.901 74.5506C103.335 74.7906 103.544 74.691 103.507 74.2116C103.351 72.3198 102.556 70.5378 101.253 69.1578C100.653 68.4978 99.8951 69.0606 100.391 70.803C100.699 71.883 100.221 71.9088 96.486 73.704C95.4174 74.2176 95.7396 72.1758 91.6812 69.0318C91.5864 68.976 91.5054 68.8998 91.4436 68.8086C91.3824 68.718 91.3415 68.6142 91.3247 68.5056C91.3079 68.397 91.3152 68.286 91.347 68.181C91.3782 68.0754 91.4328 67.9782 91.506 67.8967C92.2511 66.7074 93.117 65.5987 94.0896 64.5877C94.9109 63.6811 94.9896 64.1118 96.366 64.6944C96.7158 64.8426 97.1706 65.1144 97.431 64.8198C97.6986 64.5144 97.3392 64.0998 97.1502 63.7854C95.313 60.7536 90.4668 57.6528 91.3776 60.0312C92.112 61.9512 93.5148 62.2242 92.8848 63.0672C91.8252 64.4832 90.6738 65.8278 89.4378 67.0932C89.2578 67.278 89.1497 67.2961 88.9212 67.1467C85.9385 65.1972 79.7802 63.1338 73.1454 64.473C72.6342 64.5762 72.4254 64.653 71.6868 60.5244C71.49 59.4318 72.5358 59.5788 73.434 58.8504C75.1692 57.4434 68.9772 57.852 67.38 58.8738Z" fill="#644DF6"/>
<path d="M71.9645 82.7359C71.9705 86.4775 66.6803 88.1827 65.7503 84.6259C65.1749 82.4251 66.8675 80.0539 69.0671 79.9777C69.4415 79.9573 69.8159 80.0131 70.1675 80.1427C70.5191 80.2723 70.8407 80.4721 71.1119 80.7307C71.3831 80.9893 71.5991 81.3001 71.7455 81.6451C71.8919 81.9901 71.9669 82.3609 71.9645 82.7359Z" fill="#644DF6"/>
<path d="M89.1227 80.7134C87.5069 80.8604 85.6716 78.3482 85.8042 76.6688C85.9242 75.1394 87.3701 74.0198 88.8917 74.9444C92.1395 76.9202 91.8599 80.6894 89.1227 80.7134Z" fill="#644DF6"/>
<path d="M71.3052 100.24C68.0994 100.102 67.1592 97.2821 68.6754 95.5901C69.9546 94.1633 72.2808 95.3681 73.1754 96.7301C74.4 98.6009 73.176 100.32 71.3052 100.24Z" fill="#644DF6"/>
<path d="M66.7727 74.2699C63.8525 74.3245 63.5675 71.3461 65.6927 69.9547C66.5177 69.4147 67.3673 68.9347 68.4233 69.1447C71.4287 69.7423 69.6947 74.2153 66.7727 74.2699Z" fill="#644DF6"/>
<path d="M86.7227 91.9315C86.7365 92.7541 86.2163 93.3205 85.7765 93.9115C85.2941 94.6609 84.5543 95.2075 83.6963 95.4481C81.3563 95.9827 80.9723 92.3479 83.3363 90.9235C83.7443 90.6355 84.2069 90.4345 84.6953 90.3331C84.9353 90.2899 85.1819 90.2983 85.4189 90.3577C85.6553 90.4165 85.8767 90.5257 86.0687 90.6763C86.2601 90.8275 86.4173 91.0177 86.5301 91.2337C86.6429 91.4503 86.7089 91.6879 86.7227 91.9315Z" fill="#644DF6"/>
<path d="M88.5347 71.2349C88.4783 73.7699 85.2905 73.3451 84.3491 71.5715C84.2087 71.3141 84.1361 71.0249 84.1391 70.7315C84.1415 70.4381 84.2195 70.1501 84.3647 69.8951C84.5099 69.6401 84.7187 69.4271 84.9695 69.2753C85.2209 69.1235 85.5065 69.0389 85.7999 69.0287C87.7463 68.9519 88.6595 70.4399 88.5347 71.2349Z" fill="#644DF6"/>
<path d="M71.4059 75.3996C69.1043 75.3846 69.4151 71.6934 71.8703 71.7132C74.3453 71.733 73.5557 75.414 71.4059 75.3996Z" fill="#644DF6"/>
<path d="M90.6 93.6229C90.4698 96.0697 87.5244 96.6541 87.4332 94.4989C87.339 92.3233 90.5766 91.3003 90.6 93.6229Z" fill="#644DF6"/>
<path d="M75.8208 27.5825C75.78 22.9139 77.4456 21.6875 76.6008 21.2825C74.94 20.4875 74.9208 20.1383 74.6244 20.5553C73.9848 21.4553 73.4394 22.1057 72.5244 21.7835C70.3404 21.0125 73.2444 14.8769 75.1236 15.7133C75.3594 15.8036 75.561 15.9651 75.7008 16.1754C75.8406 16.3858 75.9114 16.6344 75.9036 16.8868C75.9474 17.1331 75.9438 17.3854 75.8934 17.6303C75.561 18.3701 75.993 18.6305 76.5588 18.8747C76.9788 19.0547 77.3916 19.4747 77.7882 19.4507C78.219 19.4255 78.3174 18.7811 78.5724 18.4199C80.2638 15.9903 82.6386 14.1179 85.3956 13.0402C85.9656 12.8134 85.7298 12.6203 85.6356 12.2501C85.5414 11.8799 85.5504 11.41 85.3206 11.164C85.077 10.9024 84.6042 11.164 84.228 11.1178C82.737 10.9462 82.5138 9.69345 83.664 8.94705C84.7974 8.20041 86.1528 7.86459 87.504 7.99545C89.0076 8.12385 89.3208 9.53085 87.948 10.36C87.7428 10.4836 87.3288 10.4848 87.357 10.7339C87.4374 11.2445 87.573 11.7448 87.762 12.226C87.8688 12.5374 90.9966 11.11 96.0906 12.799C96.3672 12.8908 96.468 12.7913 96.5706 12.5693C97.2618 11.1005 97.6404 10.8803 97.0002 10.567C95.7402 9.95145 95.595 8.62005 96.7002 8.49525C97.8216 8.36805 99.9168 9.42165 100.84 10.0727C102.064 10.9355 101.26 12.1006 100.069 11.947C99.0402 11.8138 99.0396 11.8145 98.6736 12.7733C98.3358 13.6595 98.3442 13.6445 99.1872 14.1317C102.333 15.8912 104.854 18.5848 106.403 21.8399C106.845 22.7698 106.838 22.7681 107.796 22.4495C110.398 21.5843 110.496 21.7379 110.353 21.2255C109.864 19.4855 110.975 17.8907 112.292 19.0655C113.53 20.1731 114.335 22.7855 114.28 24.4475C114.253 25.2275 113.83 25.5407 113.06 25.4219C112.681 25.3411 112.33 25.1646 112.039 24.9092C111.748 24.6539 111.527 24.3282 111.398 23.9633C111.058 23.2709 111.067 23.5301 107.936 24.6185C107.133 24.8975 108.116 25.1831 108.22 29.1005C108.235 29.6884 108.356 29.5072 111.245 29.6968C111.571 29.7185 111.541 29.5588 111.599 29.3014C111.791 28.4615 112.058 28.1428 112.577 28.1434C114.161 28.1434 113.971 33.0304 112.4 32.8307C112.156 32.8086 111.928 32.6946 111.764 32.5116C111.599 32.3286 111.511 32.0901 111.515 31.8442C111.491 31.255 111.234 31.1777 110.73 31.2041C108.562 31.3193 108.139 30.8075 108.059 31.6709C107.809 33.8738 107.071 35.9933 105.899 37.8749C105.641 38.2907 105.847 38.2193 107.339 39.6473C107.84 40.1273 108.282 38.6656 109.361 39.3874C111.38 40.738 107.712 44.6675 106.551 43.3985C106.356 43.22 106.225 42.9823 106.178 42.7222C106.132 42.4621 106.171 42.1938 106.292 41.9585C106.846 41.0375 106.046 41.0585 104.912 39.9653C104.15 39.2327 103.943 41.6213 99.1044 43.7866C96.87 44.7863 96.321 44.3693 96.4596 44.9639C97.2306 48.2675 96.9396 48.4109 97.6134 48.3497C99.4308 48.1841 100.001 49.6097 99.1896 50.3999C98.5518 51.0186 97.7748 51.4745 96.9234 51.7285C96.072 51.9825 95.172 52.0273 94.2996 51.8591C94.0356 51.8448 93.7836 51.7437 93.5832 51.5717C93.3828 51.3996 93.2442 51.1661 93.1902 50.9075C93.033 50.0915 93.4842 49.6757 94.0392 49.2923C94.3512 49.0769 94.9038 49.1063 94.9992 48.7595C95.0892 48.4379 94.8378 48.0299 94.7622 47.6537C94.2402 45.0443 94.4256 44.9633 93.9324 44.9975C89.5404 45.3011 88.3896 43.8119 88.1016 44.5835C87.414 46.4249 87.1236 46.5299 87.6414 46.7705C88.326 47.0885 88.8654 47.6159 88.7256 48.3545C88.383 50.1611 84.138 49.0037 83.2098 47.4719C82.6944 46.6217 82.9746 45.5566 84.2766 45.4954C85.2546 45.4492 85.6524 46.2964 85.8852 45.271C85.9776 44.9578 86.0898 44.6508 86.2212 44.3518C86.4936 43.6169 86.4906 43.6204 85.8012 43.2929C80.7768 40.9138 80.4888 38.2271 79.6638 39.0821C79.266 39.4943 78.2838 39.5777 78.8532 40.702C78.9756 40.9716 78.9966 41.2766 78.9108 41.5601C78.8256 41.8437 78.6402 42.0866 78.3888 42.2435C78.1374 42.4003 77.838 42.4607 77.5458 42.4131C77.2536 42.3655 76.9884 42.2133 76.8 41.9849C74.4996 39.8734 74.5446 37.2779 76.794 38.1449C77.1114 38.2649 77.3544 38.7557 77.6412 38.6327C78.1104 38.3723 78.5484 38.0586 78.9456 37.6978C79.3944 37.3636 77.4984 36.3311 76.272 31.4579C76.1664 31.0379 76.0098 31.1579 74.9628 31.2262C74.598 31.2502 74.1636 31.1584 73.8882 31.327C73.5816 31.5154 73.8042 31.987 73.7466 32.3314C73.5066 33.7636 71.64 33.8375 71.0982 31.7999C70.6782 30.2225 70.7472 27.5687 71.844 27.4199C72.7572 27.2999 73.353 28.3906 73.4172 28.9552C73.4772 29.4856 73.728 29.4083 74.2062 29.3369C74.7354 29.2577 75.4344 29.3531 75.747 29.0494C76.0722 28.7399 75.7662 28.0325 75.8208 27.5825ZM87.261 21.5825C86.4444 21.5861 85.8378 21.7421 85.5306 22.3553C85.3572 22.646 85.2666 22.9787 85.269 23.3172C85.2714 23.6557 85.3668 23.9871 85.5444 24.2753C87.051 26.6423 91.0188 25.2473 89.7258 22.8203C89.1534 21.7457 88.0632 21.7991 87.261 21.5825ZM104.018 29.6585C104.066 28.4519 102.907 26.8205 101.744 27.8531C101.363 28.2845 101.111 28.8147 101.018 29.3826C100.925 29.9505 100.994 30.5331 101.217 31.0637C102.082 32.5798 104.111 31.2143 104.018 29.6585ZM83.9352 34.6294C83.9502 33.6527 83.166 32.014 82.0824 32.2385C80.9988 32.4629 80.4624 34.2185 81.7326 35.764C82.56 36.7745 83.9112 36.1457 83.9352 34.6294ZM89.907 17.0897C87.9798 17.0897 87.891 18.6659 89.1318 19.3583C90.918 20.3555 92.8974 19.2485 91.7328 17.8883C91.5 17.6367 91.2174 17.4359 90.903 17.2985C90.5892 17.161 90.2496 17.09 89.907 17.0897ZM93.42 37.5215C94.9986 36.7859 94.2516 34.9499 92.2164 35.2745C90.126 35.6075 91.116 38.5942 93.42 37.5215ZM102.6 25.6673C102.71 25.6697 102.821 25.6496 102.923 25.6081C103.026 25.5667 103.119 25.5048 103.197 25.4262C103.275 25.3476 103.336 25.254 103.377 25.1511C103.418 25.0481 103.437 24.938 103.434 24.8272C103.391 24.4548 103.219 24.1089 102.949 23.8486C102.679 23.5883 102.328 23.4297 101.954 23.3999C101.731 23.4009 101.516 23.4896 101.358 23.6466C101.2 23.8037 101.109 24.0167 101.106 24.2399C101.162 24.6096 101.339 24.9504 101.609 25.2088C101.879 25.4672 102.228 25.6284 102.6 25.6673ZM96.702 38.7239C96.702 37.6889 94.9344 37.7458 94.3938 38.4628C93.4278 39.7456 96.2688 40.6277 96.7038 38.7239H96.702ZM92.9874 23.2721C93.1098 23.2705 93.2304 23.2442 93.3426 23.1949C93.4548 23.1455 93.5556 23.0741 93.639 22.9848C93.723 22.8956 93.7878 22.7903 93.8298 22.6754C93.8724 22.5605 93.891 22.4383 93.8844 22.316C93.8784 22.1938 93.8478 22.074 93.7938 21.9639C93.7404 21.8538 93.6654 21.7557 93.573 21.6753C93.4806 21.595 93.3732 21.5341 93.2568 21.4963C93.1404 21.4584 93.0174 21.4445 92.8956 21.4553C91.488 21.4739 91.7892 23.2925 92.9892 23.2721H92.9874Z" fill="#644DF6"/>
</svg>
