<svg width="120" height="120" viewBox="0 0 120 120" fill="none" xmlns="http://www.w3.org/2000/svg">
<path d="M55.57 15.8874C56.8258 15.4794 57.4204 16.5624 56.6818 17.4714C53.2738 21.6654 49.7998 28.14 48.6214 27.2142C47.5006 26.3328 53.9314 18.8526 53.6584 18.4368C52.5952 18.6456 50.2156 19.7568 48.8878 19.9608C47.8144 20.1276 47.1478 19.341 47.6422 18.3486C48.9658 15.6918 53.6944 9.29635 55.1098 7.41235C55.4248 6.99235 55.8094 6.50335 56.1898 6.80275C56.4598 7.01575 56.4298 7.20835 54.7756 9.80575C49.897 17.4678 49.5484 17.8296 49.672 17.9532C49.6762 17.9598 49.6282 17.82 55.57 15.8874Z" fill="#666666"/>
<path d="M115.868 58.2732C116.859 57.951 117.328 58.8054 116.745 59.5218C114.056 62.8284 111.318 67.9386 110.385 67.2066C109.501 66.5112 114.573 60.6108 114.358 60.2832C113.518 60.4476 111.643 61.3224 110.596 61.4832C109.749 61.6146 109.223 60.9936 109.612 60.2118C110.656 58.1154 114.385 53.0718 115.501 51.5862C115.75 51.2556 116.054 50.8698 116.352 51.1062C116.565 51.2742 116.54 51.426 115.236 53.4744C111.387 59.517 111.113 59.8026 111.212 59.8998C111.22 59.907 111.183 59.7978 115.868 58.2732Z" fill="#666666"/>
<path d="M9.38394 94.92C10.3751 94.5978 10.8443 95.4522 10.2617 96.1686C7.57194 99.4752 4.83411 104.585 3.90171 103.853C3.01851 103.158 8.08974 97.2576 7.87434 96.93C7.03434 97.0944 5.15931 97.9692 4.11231 98.13C3.26571 98.2614 2.74011 97.6404 3.12891 96.8586C4.17231 94.7622 7.90134 89.7186 9.01794 88.233C9.26694 87.9024 9.57054 87.516 9.86874 87.753C10.0817 87.921 10.0571 88.0728 8.75274 90.1206C4.90371 96.1638 4.63011 96.45 4.72851 96.5466C4.73571 96.5556 4.69911 96.4458 9.38394 94.92Z" fill="#666666"/>
<path fill-rule="evenodd" clip-rule="evenodd" d="M72.9216 61.9206C73.5948 59.8343 75.528 58.8399 76.7862 60.8952C77.1198 61.4406 77.3778 62.103 77.5656 62.832C76.2378 62.8248 74.9064 62.928 73.5846 63.1434C73.2684 63.1932 73.137 63.1434 73.0818 62.8212C73.0242 62.4786 72.9702 62.1804 72.9216 61.9206ZM69.7062 64.0848C69.2304 64.0914 68.6778 64.1016 68.037 64.1202C67.2066 64.1442 66.7914 64.1574 66.552 63.9588C66.309 63.7572 66.2478 63.3372 66.117 62.4882C65.2098 56.5857 62.493 51.1103 58.341 46.818C58.3197 46.7954 58.2988 46.7731 58.2782 46.7513C57.2353 45.6441 57.2315 45.6401 58.173 44.418L58.1735 44.4174C59.2122 43.0692 59.2131 43.0681 60.7836 43.77C62.6046 44.5842 64.4226 43.1064 62.9004 41.1624C61.7472 39.69 58.9248 37.017 57.0804 36.6846C55.2654 36.3564 54.8604 38.5446 56.5674 40.1184C57.2211 40.7228 56.9809 40.9667 56.0561 41.906C55.7527 42.2142 55.3754 42.5973 54.9318 43.0926C54.6613 43.3926 54.4518 43.5042 54.057 43.2264C48.7019 39.4724 44.2332 38.8954 42.2332 38.6371C41.5125 38.544 41.1124 38.4924 41.1067 38.3484C41.0359 37.4939 41.0586 36.6342 41.1744 35.7846C41.2244 35.5112 41.5376 35.5094 41.8545 35.5075C42.0092 35.5066 42.1647 35.5057 42.291 35.4732C44.8668 34.809 45.0384 32.4294 42.711 31.509C40.6293 30.6567 38.3183 30.5435 36.1632 31.188C33.9822 31.8252 33.7392 33.9198 36.024 34.9044C36.2387 34.9969 36.4948 35.0293 36.7452 35.061C37.1674 35.1145 37.5734 35.1659 37.7376 35.4996C37.9085 35.8472 37.8458 36.3099 37.7831 36.7725C37.7555 36.9759 37.7279 37.1793 37.7202 37.3728C37.7151 37.4996 37.7223 37.6178 37.729 37.7265C37.7554 38.1609 37.7726 38.4432 36.9624 38.5128C32.0708 38.9078 27.4073 40.7489 23.565 43.8018C23.3817 43.9453 23.2101 44.1413 23.0389 44.3367C22.6703 44.7575 22.3041 45.1757 21.8292 45.0618C21.4202 44.9643 21.0873 44.5782 20.7479 44.1845C20.5566 43.9625 20.3631 43.7381 20.1528 43.5618C19.3692 42.906 18.8082 42.2838 19.6884 41.2692C19.8863 40.9046 20.0122 40.5054 20.0592 40.0932C20.192 39.6965 20.1979 39.2684 20.0762 38.8682C19.9545 38.468 19.7112 38.1156 19.38 37.86C18.0408 36.708 15.5484 38.448 14.3514 39.7476C12.6114 41.6358 10.2846 44.7444 12.3594 46.2588C13.656 47.2056 14.8332 46.4304 16.2756 45.3084C16.7049 44.9744 16.8059 45.0843 17.4132 45.7455C17.7549 46.1175 18.257 46.6641 19.068 47.4042C19.4622 47.7642 19.4406 47.9736 19.131 48.4026C15.7344 53.107 15.0502 56.1219 14.6726 57.7857C14.4778 58.644 14.3646 59.1428 14.0028 59.3286C13.5557 59.5593 12.9042 59.3953 12.2544 59.2317C11.9712 59.1605 11.6883 59.0892 11.4228 59.0508C11.3693 59.043 11.3174 59.0359 11.2671 59.0289C10.5734 58.9328 10.2041 58.8816 10.3512 58.0692C10.74 55.9284 8.62439 53.454 6.97739 55.875C5.89265 57.5415 5.31487 59.487 5.31422 61.4754C5.20322 64.9686 8.20439 65.7414 9.26639 63.582C9.35513 63.4014 9.39755 63.18 9.43931 62.9616C9.51761 62.553 9.59387 62.1546 9.96899 62.0556C10.3282 61.9608 10.7498 62.1018 11.171 62.2422C11.357 62.304 11.5429 62.3658 11.7234 62.4078C12.0613 62.4858 12.344 62.5434 12.5799 62.592C13.5281 62.7858 13.719 62.8248 13.6926 63.3996C13.4501 68.6916 14.3874 71.6496 14.873 73.182C15.1491 74.0532 15.2791 74.4636 14.9628 74.58C14.1596 74.9622 13.3153 75.2514 12.4464 75.4416C12.1577 75.4746 12.0121 75.2376 11.8154 74.9172C11.6315 74.6172 11.4029 74.2446 10.971 73.9524C9.38219 72.876 8.07359 73.9908 8.09099 75.3744C8.11013 77.1348 8.60141 78.8574 9.51359 80.3634C10.941 82.7634 13.7136 81.189 13.3788 79.3098C13.1082 77.7768 13.923 77.5698 14.6981 77.3724C14.9647 77.304 15.2266 77.2374 15.438 77.1186C16.0338 76.7838 16.2666 77.0052 16.539 77.5986C18.0975 81.0672 20.3568 84.1752 23.175 86.7282L23.1879 86.7396C24.1176 87.5778 24.1182 87.5784 23.34 88.6092C22.9885 89.0208 22.6643 89.4552 22.3692 89.9088C21.8391 90.846 21.5493 90.6192 21.0344 90.216C20.7155 89.9664 20.3101 89.649 19.7076 89.499C17.6076 88.9758 16.6602 90.5328 17.0724 92.1282C17.8116 94.9914 23.9982 98.8728 25.4076 96.159C25.9812 95.0538 25.3764 93.9582 24.4422 93.1278C23.9337 92.6766 24.0532 92.5332 24.8911 91.527C25.2197 91.1322 25.6589 90.6054 26.214 89.8746C26.454 89.5608 26.634 89.4948 26.985 89.7294C29.5037 91.4238 32.3139 92.6376 35.274 93.3102C35.8463 93.4386 35.8392 93.4962 35.6368 95.1246C35.5562 95.7738 35.4446 96.672 35.3262 97.9242C35.3054 98.1438 35.3163 98.3796 35.3273 98.6136C35.3478 99.0534 35.3679 99.4872 35.1756 99.7926C34.9787 100.105 34.5733 100.106 34.1511 100.106C33.8901 100.106 33.6227 100.107 33.3942 100.181C32.3305 100.525 31.4142 100.969 31.2774 102.341C31.2386 102.778 31.3459 103.215 31.5824 103.584C31.8189 103.953 32.1713 104.233 32.5842 104.381C35.3874 105.681 38.2386 105.857 41.0442 104.396C42.702 103.533 42.4878 100.993 39.519 100.39C38.7648 100.236 38.7734 100.156 38.9677 98.322C39.0577 97.4724 39.1876 96.2466 39.3 94.4634C39.3343 93.9234 39.5421 93.9366 40.3428 93.9852C41.0402 94.0284 42.1872 94.0986 44.061 93.8556C46.2287 93.5742 47.944 93.1374 49.3114 92.6622C49.2291 92.6304 49.1498 92.5902 49.0746 92.5416C48.7938 92.3598 48.5949 92.076 48.5207 91.7496C47.5947 89.613 47.4303 87.2238 48.0551 84.9804C48.4943 83.4234 50.2877 83.3766 50.9585 85.9086C51.0748 86.3478 51.2171 86.3292 52.2997 86.187C52.7357 86.1294 53.3243 86.052 54.1253 85.9764C54.4221 85.9482 54.4334 85.4226 54.4535 84.486C54.4987 82.3866 54.5883 78.2226 58.0397 72.975C58.2431 72.6654 58.2281 72.525 57.9377 72.3054C57.2423 71.781 56.839 71.4156 56.5829 71.184C56.1932 70.8306 56.1449 70.7868 55.9277 70.9626C54.9785 71.7336 54.1211 72.2448 53.2331 71.4228C52.9964 71.247 52.8369 70.9866 52.7878 70.6956C52.7385 70.4052 52.8035 70.107 52.9691 69.8628C54.9593 65.5104 59.6573 63.4512 59.0393 66.606C58.9394 67.116 58.7304 67.458 58.5725 67.7172C58.3697 68.049 58.2509 68.2434 58.5545 68.478C59.1308 68.925 59.4995 69.2772 59.7581 69.5238C60.2502 69.9942 60.3432 70.0824 60.7086 69.7158C63.1794 67.194 66.2076 65.2872 69.5496 64.1496C69.612 64.1274 69.6642 64.1076 69.7062 64.0848ZM51.2885 91.8522C52.1203 91.4556 52.7568 91.0764 53.2558 90.7788C54.2878 90.1644 54.732 89.8992 55.101 90.5556C55.1932 90.7194 55.2854 90.873 55.3767 91.0182C55.2696 90.6648 55.1678 90.2958 55.0727 89.9106C54.9561 89.4378 54.8972 89.4462 53.9049 89.5878C53.4623 89.6514 52.8339 89.7408 51.9317 89.8266C51.5853 89.859 51.5789 89.9754 51.5575 90.3576C51.5439 90.6006 51.5244 90.951 51.4079 91.4562C51.3864 91.5942 51.3459 91.7274 51.2885 91.8522ZM56.5999 94.1172C56.5283 94.2 56.4426 94.2864 56.3418 94.3776C56.0374 94.6932 55.8454 95.1006 55.7953 95.5362C55.7452 95.9718 55.8398 96.4116 56.0646 96.7884C56.46 97.6122 57.276 97.6338 58.068 97.4964C58.2383 97.4712 58.4072 97.4388 58.5743 97.3998C58.4809 97.2342 58.3392 97.0224 58.1636 96.7602C57.7628 96.1608 57.1851 95.2974 56.5999 94.1172ZM20.31 72.8376C21.1458 74.838 23.5842 74.4828 24.3462 72.0876H24.3492C24.84 70.545 24.3768 67.5684 22.5456 67.4076C20.7066 67.2462 19.032 69.7776 20.31 72.8376ZM43.6754 47.8938C43.2417 47.5261 42.7367 47.2519 42.192 47.0886C39.1326 46.1688 38.2404 48.6312 39.8815 50.3208C42.2436 52.755 45.912 51.9414 44.712 49.2258C44.462 48.7151 44.109 48.2616 43.6754 47.8938ZM31.8605 54.7643C31.7031 55.3029 31.6963 55.8745 31.8408 56.4168C33.1056 60.8928 40.071 60.5688 39.1735 56.1C38.8593 54.5345 37.6957 53.9355 36.644 53.3943C36.3655 53.2509 36.0949 53.1117 35.85 52.9596C34.5546 52.5768 33.5136 52.5336 32.7336 53.361C32.3199 53.7402 32.0179 54.2255 31.8605 54.7643ZM38.0256 81.1968C40.8834 80.7828 40.5727 77.511 37.1856 77.0568V77.0586C33.7116 76.593 33.8592 81.8046 38.0256 81.1968ZM41.9241 85.5456C42.2529 85.3344 42.5124 85.0314 42.6702 84.6738V84.6756C43.1622 83.0304 40.3308 82.2798 39.1315 83.1612C37.9788 84.0048 38.5182 85.7892 40.8211 85.8612C41.2117 85.8666 41.5953 85.7568 41.9241 85.5456ZM44.8578 55.4418C42.6114 54.7998 42.2226 57.831 44.1378 58.371V58.3728C46.1503 58.9392 46.8834 56.022 44.8578 55.4418Z" fill="#C0C0C0"/>
<path d="M58.0374 72.9774C58.2408 72.6672 58.2258 72.5274 57.9354 72.3078C56.1816 70.9878 56.2836 70.6734 55.9254 70.965C54.9768 71.7372 54.1182 72.2478 53.2308 71.4252C52.9945 71.2488 52.8353 70.9884 52.7862 70.698C52.737 70.4076 52.8017 70.1094 52.9668 69.8652C54.9516 65.5116 59.655 63.4524 59.037 66.6084C58.809 67.7724 58.017 68.0634 58.5522 68.4804C60.2262 69.78 60.1476 70.2804 60.7062 69.7182C63.1764 67.1958 66.2046 65.2896 69.5472 64.152C70.0872 63.963 69.8346 63.9228 69.2604 61.0638C69.1356 60.441 66.8946 61.4142 66.5328 59.5242C66.4542 59.2299 66.492 58.9167 66.6384 58.6497C66.7854 58.3828 67.029 58.1826 67.3194 58.0908C69.2262 57.0899 71.4162 56.7663 73.5312 57.1728C73.7832 57.193 74.0238 57.2877 74.2224 57.4448C74.421 57.602 74.568 57.8144 74.6454 58.0554C74.9016 58.9902 73.7502 59.571 72.8886 59.958C72.414 60.171 72.639 60.198 73.0794 62.8236C73.134 63.1488 73.266 63.1956 73.5822 63.1458C78.1452 62.403 82.8258 62.994 87.0612 64.8468C89.1486 65.7468 89.2644 66.3606 89.742 65.7426C90.4728 64.6818 91.3086 63.6978 92.2374 62.8056C92.4834 62.5926 92.3148 62.4984 92.184 62.3604C89.2482 59.262 90.78 58.0014 92.4072 58.6086C95.7012 59.838 99.6072 63.9636 98.2182 65.4486C97.4532 66.2682 96.135 65.4786 95.1678 64.9086C94.9704 64.7922 94.8528 64.7544 94.7034 64.9776C94.0092 65.9232 93.2472 66.8166 92.4234 67.6518C91.722 68.4318 93.4908 68.3214 96.4434 72.6744C96.8082 73.2144 97.2234 72.333 99.6234 71.5182C99.9654 71.4018 99.7218 71.2002 99.6732 71.0604C98.9106 68.856 100.54 67.5966 101.641 68.547C105.095 71.5284 105.361 76.773 102.533 75.1968C101.502 74.622 101.536 73.737 100.858 74.127C98.2782 75.6114 98.0724 75.4128 98.2782 75.897C99.7044 79.257 100.396 82.407 100.381 83.697C100.368 84.7836 100.787 84.3354 103.001 84.8856C103.658 85.0482 103.334 84.6954 104.032 83.3856C104.177 83.0778 104.42 82.8264 104.723 82.6716C105.026 82.5162 105.371 82.4664 105.706 82.5288C106.039 82.557 106.349 82.7124 106.571 82.962C106.793 83.2122 106.91 83.5374 106.899 83.8716C107.198 86.121 106.742 88.4064 105.604 90.3696C105.493 90.6612 105.287 90.9072 105.02 91.068C104.753 91.2294 104.44 91.296 104.131 91.2582C103.071 91.065 102.979 89.5824 102.951 88.506C102.936 87.9006 102.774 88.1994 100.69 87.834C100.376 87.7794 100.237 87.834 100.183 88.1682C99.585 92.0472 97.9134 95.6814 95.3574 98.6598C94.7298 99.3918 95.7432 99.3438 97.4334 101.604C97.8264 102.13 98.4576 100.948 99.933 100.622C101.482 100.28 102.104 101.44 101.627 102.556C100.547 105.134 98.5656 107.232 96.0522 108.457C95.7996 108.602 95.5074 108.664 95.2182 108.631C94.9284 108.599 94.6572 108.475 94.443 108.277C93.243 107.272 93.7296 105.932 94.743 104.737C95.2896 104.095 94.6356 104.364 92.6682 102.02C91.9158 101.123 91.113 103.667 85.143 105.616C84.2514 105.907 85.1328 106.235 85.3752 108.811C85.4304 109.397 85.7322 108.88 87.2352 109.111C87.564 109.141 87.873 109.28 88.1142 109.507C88.3548 109.732 88.5138 110.032 88.566 110.358C88.6638 110.657 88.6428 110.983 88.5078 111.268C88.3722 111.552 88.1334 111.773 87.8394 111.887C85.8156 113.08 83.4402 113.534 81.1194 113.17C80.847 113.156 80.5848 113.062 80.3676 112.897C80.1498 112.732 79.9872 112.506 79.9008 112.247C79.6008 111.238 80.931 110.542 81.816 110.113C82.26 109.898 82.0824 110.074 81.4182 106.993C81.3516 106.685 81.2754 106.561 80.8968 106.612C77.8458 107.055 74.7378 106.895 71.748 106.142C71.1204 105.979 71.3412 106.333 70.5876 108.218C70.3338 108.854 71.0754 108.758 71.5644 109.514C72.87 111.536 69.129 111.857 66.2904 109.611C66.072 109.464 65.9136 109.244 65.8434 108.99C65.7732 108.736 65.7954 108.466 65.9064 108.227C66.5892 106.465 67.7886 108.508 68.2296 106.664C68.3442 106.184 68.7768 105.619 68.6316 105.284C68.4864 104.948 67.7988 104.831 67.3488 104.624C61.5714 101.924 61.5666 99.7284 60.642 100.6C59.202 101.955 58.8732 101.808 59.187 102.316C59.5404 102.797 59.7886 103.348 59.9154 103.931C60.0714 105.033 59.3352 105.617 58.2954 105.209C56.5806 104.538 54.6426 102.517 53.8428 100.858C53.4498 100.045 53.4768 99.5436 53.9778 99.0714C55.2978 97.8252 56.5116 99.6438 56.9178 99.5268C57.2136 99.441 57.4338 99.0882 57.6804 98.847C58.0368 98.4984 58.5918 98.1906 58.6836 97.7796C58.7946 97.2852 56.3268 95.0598 55.0608 89.9298C54.8928 89.2476 54.8454 89.5698 51.9198 89.8452C51.354 89.8986 51.6936 90.177 51.396 91.4754C51.3435 91.812 51.1779 92.121 50.9264 92.3514C50.6749 92.5812 50.3526 92.7192 50.0124 92.7414C49.6843 92.8074 49.3435 92.7426 49.0626 92.5608C48.7817 92.379 48.583 92.0946 48.5088 91.7682C47.5831 89.6316 47.4187 87.2424 48.0432 84.9996C48.4824 83.4426 50.2752 83.3958 50.9472 85.9278C51.1104 86.5428 51.3252 86.2662 54.1134 85.9956C55.0488 85.896 53.1138 80.4648 58.0374 72.9774ZM67.38 58.8738C66.6864 59.319 66.7338 59.7186 67.4964 60.0294C68.8554 60.5832 69.7848 59.7528 70.0032 60.8292C70.8864 65.1732 71.2962 64.8726 69.9894 65.2818C66.681 66.4614 63.7026 68.4138 61.3002 70.9758C60.9048 71.4018 60.6216 71.4558 58.02 69.1344C56.9352 68.1666 58.0392 67.9254 58.2738 66.5064C58.6248 64.383 52.5138 70.0386 53.5134 71.1738C54.0222 71.7516 55.3236 70.6974 55.9224 70.2402C56.1126 70.095 56.2908 69.9828 56.541 70.1646C57.547 70.872 58.4905 71.664 59.361 72.5328C59.9208 73.1106 59.2872 73.0866 57.9852 75.6648C56.2898 78.9006 55.5364 82.5474 55.8108 86.1906C55.8372 86.5248 55.794 86.688 55.4382 86.7348C51.2916 87.2832 50.7672 87.6774 50.4102 86.5836C48.4176 80.4738 48.0702 92.31 49.9764 92.331C50.7708 92.3394 50.931 90.5082 50.9736 89.7636C50.9904 89.4702 51.0504 89.2434 51.3936 89.1744C52.8258 88.8852 54.2752 88.689 55.7328 88.5864C56.2764 88.5486 56.106 88.8966 56.4996 90.246C58.2996 96.4182 60.7728 97.1094 60.033 97.851C57.333 100.56 57.0864 100.519 56.6076 100.121C54.1632 98.0904 52.6062 99.2958 56.7696 103.078C57.1776 103.449 58.6896 104.633 59.073 104.338C59.4264 104.065 58.7382 102.887 58.5384 102.488C58.3926 102.196 58.2168 101.843 58.467 101.564C59.2435 100.607 60.177 99.7884 61.227 99.1428C62.1504 98.634 62.7792 101.528 69.3756 104.126C69.8028 104.295 69.9606 104.299 68.6556 107.671C68.3556 108.438 67.9452 107.834 66.9156 107.959C66.6108 107.995 66.2526 108.03 66.1686 108.385C65.9136 109.458 70.8246 110.905 71.1264 110.174C71.3832 109.554 69.522 109.132 69.8706 108.141C70.8162 105.452 70.86 104.683 72.0204 104.968C79.152 106.724 81.3882 104.399 81.9174 105.769C82.3926 107.006 82.7556 108.284 83.0016 109.587C83.055 109.794 83.0292 110.013 82.929 110.201C82.8294 110.39 82.6626 110.535 82.4616 110.607C81.0906 111.296 80.808 111.562 80.8584 111.871C80.9184 112.253 81.3828 112.198 81.6864 112.231C83.1276 112.342 84.5772 112.182 85.9596 111.758C89.664 110.777 88.098 109.399 85.776 109.7C85.146 109.781 84.8718 109.528 84.7362 108.944C83.7084 104.504 83.28 104.912 84.8562 104.366C90.9954 102.238 91.5552 99.7356 92.3928 100.561C95.8728 103.985 96.009 104.188 95.4972 104.866C94.9854 105.543 93.9426 107.195 94.5672 107.763C96.1086 109.162 104.477 98.763 98.3472 102.352C97.4568 102.874 97.2036 102.912 93.9516 98.9922C93.75 98.7492 93.765 98.5722 93.9984 98.316C96.7254 95.3274 98.478 91.5792 99.0228 87.57C99.0924 87.0966 99.3138 86.985 99.699 87.0126C104.45 87.3486 103.379 87.4434 103.862 89.7006C104.407 92.247 106.583 85.926 106.082 83.6112C105.92 82.86 105.512 82.6398 104.899 83.2992C104.059 84.1992 104.149 85.6248 103.459 85.5792C102.157 85.4856 100.862 85.3032 99.585 85.0344C98.6574 84.8412 100.108 82.8552 97.0548 75.9522C96.8898 75.5802 96.8964 75.3402 97.2534 75.1464C98.4024 74.5236 99.5436 73.8864 100.745 73.3686C101.774 72.9246 101.857 73.9752 102.901 74.5506C103.335 74.7906 103.544 74.691 103.507 74.2116C103.351 72.3198 102.556 70.5378 101.253 69.1578C100.653 68.4978 99.8952 69.0606 100.391 70.803C100.699 71.883 100.221 71.9088 96.486 73.704C95.4174 74.2176 95.7396 72.1758 91.6812 69.0318C91.5864 68.976 91.5054 68.8998 91.4436 68.8086C91.3824 68.718 91.3416 68.6142 91.3248 68.5056C91.308 68.397 91.3152 68.286 91.347 68.181C91.3782 68.0754 91.4328 67.9782 91.506 67.8966C92.2512 66.7074 93.117 65.5986 94.0896 64.5876C94.911 63.681 94.9896 64.1118 96.366 64.6944C96.7158 64.8426 97.1706 65.1144 97.431 64.8198C97.6986 64.5144 97.3392 64.0998 97.1502 63.7854C95.313 60.7536 90.4668 57.6528 91.3776 60.0312C92.112 61.9512 93.5148 62.2242 92.8848 63.0672C91.8252 64.4832 90.6738 65.8278 89.4378 67.0932C89.2578 67.278 89.1498 67.296 88.9212 67.1466C85.9386 65.1972 79.7802 63.1338 73.1454 64.473C72.6342 64.5762 72.4254 64.653 71.6868 60.5244C71.49 59.4318 72.5358 59.5788 73.434 58.8504C75.1692 57.4434 68.9772 57.852 67.38 58.8738Z" fill="#C0C0C0"/>
<path d="M71.9646 82.7358C71.9706 86.4774 66.6804 88.1826 65.7504 84.6258C65.175 82.425 66.8676 80.0538 69.0672 79.9776C69.4416 79.9572 69.816 80.013 70.1676 80.1426C70.5192 80.2722 70.8408 80.472 71.112 80.7306C71.3832 80.9892 71.5992 81.3 71.7456 81.645C71.892 81.99 71.967 82.3608 71.9646 82.7358Z" fill="#C0C0C0"/>
<path d="M89.1228 80.7132C87.507 80.8602 85.6716 78.348 85.8042 76.6686C85.9242 75.1392 87.3702 74.0196 88.8918 74.9442C92.1396 76.92 91.86 80.6892 89.1228 80.7132Z" fill="#C0C0C0"/>
<path d="M71.3052 100.24C68.0994 100.102 67.1592 97.2822 68.6754 95.5902C69.9546 94.1634 72.2808 95.3682 73.1754 96.7302C74.4 98.601 73.176 100.32 71.3052 100.24Z" fill="#C0C0C0"/>
<path d="M66.7728 74.2698C63.8526 74.3244 63.5676 71.346 65.6928 69.9546C66.5178 69.4146 67.3674 68.9346 68.4234 69.1446C71.4288 69.7422 69.6948 74.2152 66.7728 74.2698Z" fill="#C0C0C0"/>
<path d="M86.7228 91.9314C86.7366 92.754 86.2164 93.3204 85.7766 93.9114C85.2942 94.6608 84.5544 95.2074 83.6964 95.448C81.3564 95.9826 80.9724 92.3478 83.3364 90.9234C83.7444 90.6354 84.207 90.4344 84.6954 90.333C84.9354 90.2898 85.182 90.2982 85.419 90.3576C85.6554 90.4164 85.8768 90.5256 86.0688 90.6762C86.2602 90.8274 86.4174 91.0176 86.5302 91.2336C86.643 91.4502 86.709 91.6878 86.7228 91.9314Z" fill="#C0C0C0"/>
<path d="M88.5348 71.235C88.4784 73.77 85.2906 73.3452 84.3492 71.5716C84.2088 71.3142 84.1362 71.025 84.1392 70.7316C84.1416 70.4382 84.2196 70.1502 84.3648 69.8952C84.51 69.6402 84.7188 69.4272 84.9696 69.2754C85.221 69.1236 85.5066 69.039 85.8 69.0288C87.7464 68.952 88.6596 70.44 88.5348 71.235Z" fill="#C0C0C0"/>
<path d="M71.406 75.3996C69.1044 75.3846 69.4152 71.6934 71.8704 71.7132C74.3454 71.733 73.5558 75.414 71.406 75.3996Z" fill="#C0C0C0"/>
<path d="M90.6 93.6228C90.4698 96.0696 87.5244 96.654 87.4332 94.4988C87.339 92.3232 90.5766 91.3002 90.6 93.6228Z" fill="#C0C0C0"/>
<path d="M75.8208 27.5826C75.78 22.914 77.4456 21.6876 76.6008 21.2826C74.94 20.4876 74.9208 20.1384 74.6244 20.5554C73.9848 21.4554 73.4394 22.1058 72.5244 21.7836C70.3404 21.0126 73.2444 14.877 75.1236 15.7134C75.3594 15.8037 75.561 15.9653 75.7008 16.1756C75.8406 16.3859 75.9114 16.6346 75.9036 16.887C75.9474 17.1332 75.9438 17.3855 75.8934 17.6304C75.561 18.3702 75.993 18.6306 76.5588 18.8748C76.9788 19.0548 77.3916 19.4748 77.7882 19.4508C78.219 19.4256 78.3174 18.7812 78.5724 18.42C80.2638 15.9904 82.6386 14.118 85.3956 13.0404C85.9656 12.8136 85.7298 12.6204 85.6356 12.2502C85.5414 11.88 85.5504 11.4102 85.3206 11.1642C85.077 10.9026 84.6042 11.1642 84.228 11.118C82.737 10.9464 82.5138 9.69357 83.664 8.94717C84.7974 8.20053 86.1528 7.86471 87.504 7.99557C89.0076 8.12397 89.3208 9.53097 87.948 10.3602C87.7428 10.4838 87.3288 10.485 87.357 10.734C87.4374 11.2446 87.573 11.745 87.762 12.2262C87.8688 12.5376 90.9966 11.1102 96.0906 12.7992C96.3672 12.891 96.468 12.7914 96.5706 12.5694C97.2618 11.1006 97.6404 10.8804 97.0002 10.5672C95.7402 9.95157 95.595 8.62017 96.7002 8.49537C97.8216 8.36817 99.9168 9.42177 100.84 10.0728C102.064 10.9356 101.26 12.1008 100.069 11.9472C99.0402 11.814 99.0396 11.8146 98.6736 12.7734C98.3358 13.6596 98.3442 13.6446 99.1872 14.1318C102.333 15.8913 104.854 18.5849 106.403 21.84C106.845 22.77 106.838 22.7682 107.796 22.4496C110.398 21.5844 110.496 21.738 110.353 21.2256C109.864 19.4856 110.975 17.8908 112.292 19.0656C113.53 20.1732 114.335 22.7856 114.28 24.4476C114.253 25.2276 113.83 25.5408 113.06 25.422C112.681 25.3412 112.33 25.1647 112.039 24.9093C111.748 24.654 111.527 24.3283 111.398 23.9634C111.058 23.271 111.067 23.5302 107.936 24.6186C107.133 24.8976 108.116 25.1832 108.22 29.1006C108.235 29.6886 108.356 29.5074 111.245 29.697C111.571 29.7186 111.541 29.559 111.599 29.3016C111.791 28.4616 112.058 28.143 112.577 28.1436C114.161 28.1436 113.971 33.0306 112.4 32.8308C112.156 32.8087 111.928 32.6947 111.764 32.5117C111.599 32.3287 111.511 32.0903 111.515 31.8444C111.491 31.2552 111.234 31.1778 110.73 31.2042C108.562 31.3194 108.139 30.8076 108.059 31.671C107.809 33.8739 107.071 35.9934 105.899 37.875C105.641 38.2908 105.847 38.2194 107.339 39.6474C107.84 40.1274 108.282 38.6658 109.361 39.3876C111.38 40.7382 107.712 44.6676 106.551 43.3986C106.356 43.2201 106.225 42.9825 106.178 42.7223C106.132 42.4622 106.171 42.1939 106.292 41.9586C106.846 41.0376 106.046 41.0586 104.912 39.9654C104.15 39.2328 103.943 41.6214 99.1044 43.7868C96.87 44.7864 96.321 44.3694 96.4596 44.964C97.2306 48.2676 96.9396 48.411 97.6134 48.3498C99.4308 48.1842 100.001 49.6098 99.1896 50.4C98.5518 51.0188 97.7748 51.4746 96.9234 51.7286C96.072 51.9827 95.172 52.0274 94.2996 51.8592C94.0356 51.8449 93.7836 51.7439 93.5832 51.5718C93.3828 51.3997 93.2442 51.1662 93.1902 50.9076C93.033 50.0916 93.4842 49.6758 94.0392 49.2924C94.3512 49.077 94.9038 49.1064 94.9992 48.7596C95.0892 48.438 94.8378 48.03 94.7622 47.6538C94.2402 45.0444 94.4256 44.9634 93.9324 44.9976C89.5404 45.3012 88.3896 43.812 88.1016 44.5836C87.414 46.425 87.1236 46.53 87.6414 46.7706C88.326 47.0886 88.8654 47.616 88.7256 48.3546C88.383 50.1612 84.138 49.0038 83.2098 47.472C82.6944 46.6218 82.9746 45.5568 84.2766 45.4956C85.2546 45.4494 85.6524 46.2966 85.8852 45.2712C85.9776 44.958 86.0898 44.651 86.2212 44.352C86.4936 43.617 86.4906 43.6206 85.8012 43.293C80.7768 40.914 80.4888 38.2272 79.6638 39.0822C79.266 39.4944 78.2838 39.5778 78.8532 40.7022C78.9756 40.9718 78.9966 41.2767 78.9108 41.5602C78.8256 41.8438 78.6402 42.0867 78.3888 42.2436C78.1374 42.4005 77.838 42.4608 77.5458 42.4132C77.2536 42.3656 76.9884 42.2135 76.8 41.985C74.4996 39.8736 74.5446 37.278 76.794 38.145C77.1114 38.265 77.3544 38.7558 77.6412 38.6328C78.1104 38.3724 78.5484 38.0587 78.9456 37.698C79.3944 37.3638 77.4984 36.3312 76.272 31.458C76.1664 31.038 76.0098 31.158 74.9628 31.2264C74.598 31.2504 74.1636 31.1586 73.8882 31.3272C73.5816 31.5156 73.8042 31.9872 73.7466 32.3316C73.5066 33.7638 71.64 33.8376 71.0982 31.8C70.6782 30.2226 70.7472 27.5688 71.844 27.42C72.7572 27.3 73.353 28.3908 73.4172 28.9554C73.4772 29.4858 73.728 29.4084 74.2062 29.337C74.7354 29.2578 75.4344 29.3532 75.747 29.0496C76.0722 28.74 75.7662 28.0326 75.8208 27.5826ZM87.261 21.5826C86.4444 21.5862 85.8378 21.7422 85.5306 22.3554C85.3572 22.6461 85.2666 22.9788 85.269 23.3173C85.2714 23.6558 85.3668 23.9872 85.5444 24.2754C87.051 26.6424 91.0188 25.2474 89.7258 22.8204C89.1534 21.7458 88.0632 21.7992 87.261 21.5826ZM104.018 29.6586C104.066 28.452 102.907 26.8206 101.744 27.8532C101.363 28.2846 101.111 28.8148 101.018 29.3827C100.925 29.9506 100.994 30.5333 101.217 31.0638C102.082 32.58 104.111 31.2144 104.018 29.6586ZM83.9352 34.6296C83.9502 33.6528 83.166 32.0142 82.0824 32.2386C80.9988 32.463 80.4624 34.2186 81.7326 35.7642C82.56 36.7746 83.9112 36.1458 83.9352 34.6296ZM89.907 17.0898C87.9798 17.0898 87.891 18.666 89.1318 19.3584C90.918 20.3556 92.8974 19.2486 91.7328 17.8884C91.5 17.6368 91.2174 17.436 90.903 17.2986C90.5892 17.1612 90.2496 17.0901 89.907 17.0898ZM93.42 37.5216C94.9986 36.786 94.2516 34.95 92.2164 35.2746C90.126 35.6076 91.116 38.5944 93.42 37.5216ZM102.6 25.6674C102.71 25.6698 102.821 25.6497 102.923 25.6082C103.026 25.5668 103.119 25.5049 103.197 25.4264C103.275 25.3478 103.336 25.2542 103.377 25.1512C103.418 25.0482 103.437 24.9381 103.434 24.8274C103.391 24.4549 103.219 24.1091 102.949 23.8487C102.679 23.5884 102.328 23.4299 101.954 23.4C101.731 23.4011 101.516 23.4897 101.358 23.6468C101.2 23.8038 101.109 24.0168 101.106 24.24C101.162 24.6098 101.339 24.9506 101.609 25.2089C101.879 25.4673 102.228 25.6285 102.6 25.6674ZM96.702 38.724C96.702 37.689 94.9344 37.746 94.3938 38.463C93.4278 39.7458 96.2688 40.6278 96.7038 38.724H96.702ZM92.9874 23.2722C93.1098 23.2706 93.2304 23.2443 93.3426 23.195C93.4548 23.1456 93.5556 23.0742 93.639 22.985C93.723 22.8957 93.7878 22.7904 93.8298 22.6755C93.8724 22.5606 93.891 22.4384 93.8844 22.3161C93.8784 22.1939 93.8478 22.0742 93.7938 21.9641C93.7404 21.854 93.6654 21.7558 93.573 21.6755C93.4806 21.5951 93.3732 21.5342 93.2568 21.4964C93.1404 21.4586 93.0174 21.4446 92.8956 21.4554C91.488 21.474 91.7892 23.2926 92.9892 23.2722H92.9874Z" fill="#C0C0C0"/>
</svg>
