<svg width="120" height="120" viewBox="0 0 120 120" fill="none" xmlns="http://www.w3.org/2000/svg">
<path d="M39.9921 54.4392C40.4211 54.1464 40.7529 54.2556 46.9389 56.1678C47.7009 56.4036 48.3495 60.6144 52.5459 64.065C57.7743 68.364 62.529 68.1666 66.4548 66.9036C66.615 66.8514 66.7896 66.8634 66.9414 66.9372C67.0932 67.011 67.2108 67.1406 67.269 67.299C67.3272 67.458 67.3218 67.6326 67.254 67.7874C67.1862 67.9416 67.0608 68.064 66.9048 68.1282C65.2758 68.8074 63.5274 69.1554 61.7628 69.1524C60.5928 69.1212 62.4276 71.5344 60.4632 77.9028C59.5575 80.8386 59.6943 76.0104 59.7429 72.8712C59.7448 72.7404 59.7074 72.6126 59.6357 72.5034C59.5639 72.3942 59.4611 72.309 59.3405 72.2592C59.2198 72.2088 59.0869 72.1962 58.959 72.2226C58.831 72.2484 58.7139 72.3126 58.6227 72.4062C55.2537 75.8778 51.2427 73.8792 50.5611 72.6744C49.9851 71.6544 50.4501 71.91 48.7401 72.687C48.7263 72.693 46.9653 73.278 46.1259 73.1208C43.5273 72.6342 43.5273 72.381 41.5263 71.2176C41.5389 71.2302 39.5529 70.4232 39.8631 67.2018C39.9075 66.7356 40.3539 64.776 40.8459 64.3908C40.9779 64.287 40.8267 64.2174 40.7259 64.1298C40.4785 63.9654 40.193 63.8664 39.8967 63.843C38.4699 63.51 37.3809 61.6728 37.3413 60.6354C37.2207 57.5898 38.1873 56.1756 39.9921 54.4392ZM45.9837 68.3304C46.1367 68.3544 46.9437 68.2104 46.9365 67.9986C46.9287 67.6644 45.9291 68.04 45.0165 66.5358C44.1489 65.1078 44.4885 64.3158 43.6965 64.3506C42.2559 64.4184 43.4841 68.3058 45.9837 68.3304Z" fill="#252525"/>
<path d="M30.7368 52.2095C33.0342 49.9943 32.3838 48.4122 32.9682 47.8296C33.315 47.4852 33.6102 46.8695 34.2006 46.7693C35.4066 46.5659 33.8076 48.7638 34.3806 51C35.3622 54.8358 33.981 57.3323 30.3834 58.8443C28.8114 59.5073 27.009 55.8047 30.7368 52.2095Z" fill="#252525"/>
<path d="M30.1006 70.3758C30.0697 70.4688 30.0044 70.5468 29.918 70.5936C29.8316 70.6404 29.7307 70.653 29.6357 70.6278C29.5407 70.6026 29.4589 70.542 29.4068 70.4586C29.3549 70.3752 29.3366 70.2756 29.356 70.179C29.776 68.019 31.324 62.9136 31.5976 62.01C31.8376 61.2078 31.4776 61.5498 26.9176 59.9772C26.3062 59.766 26.2816 60.2652 26.1616 60.5418C26.0026 60.909 26.4232 60.8112 26.5882 60.8772C26.9998 61.0422 27.358 61.1772 27.6718 61.2972C27.7645 61.3332 27.8397 61.404 27.8817 61.494C27.9237 61.584 27.9292 61.6872 27.8971 61.7814C27.8649 61.8756 27.7976 61.9536 27.7092 61.9992C27.6208 62.0454 27.5182 62.055 27.4228 62.0268C24.4492 61.1268 26.3296 61.3188 23.1886 65.3904C23.0026 65.6304 22.7968 65.874 22.5688 65.6184C22.099 65.0928 25.8298 59.025 25.8424 59.0184C26.4304 58.5984 26.6224 58.8336 28.6222 59.4984C34.3444 61.4058 33.148 59.1684 30.7402 68.5494C30.7102 68.6658 30.7006 68.535 30.1006 70.3758Z" fill="#252525"/>
<path d="M43.15 50.7468C46.6468 51.7704 53.7988 53.0946 53.5798 53.9184C53.4322 54.4728 53.1286 54.0324 41.0686 51.0858C41.0032 51.0573 40.9324 51.0433 40.861 51.0445C40.7897 51.0458 40.7194 51.0623 40.655 51.093C40.5905 51.1237 40.5335 51.1679 40.4875 51.2225C40.4416 51.2772 40.4079 51.341 40.3888 51.4098C39.7354 52.7586 39.724 52.7592 41.158 53.1372C54.2854 56.5992 54.2932 56.4972 54.2488 56.7468C54.109 57.5268 42.8686 54.2226 39.7246 53.43C39.6118 53.4014 39.5064 53.3488 39.4157 53.2758C39.325 53.2028 39.2512 53.111 39.1992 53.0069C39.1472 52.9027 39.1182 52.7885 39.1144 52.6722C39.1106 52.5558 39.1318 52.44 39.1768 52.3326C40.0798 50.1708 39.583 49.7022 43.15 50.7468Z" fill="#252525"/>
<path d="M25.8502 78.6811C25.3702 78.1921 25.5958 75.0601 24.733 74.1013C23.3884 71.6917 20.8768 71.5585 19.441 73.2469C19.2778 73.4389 19.0288 73.6669 18.8062 73.4437C18.259 72.8911 20.2462 70.5973 22.8994 71.1637C27.1228 72.0601 27.25 78.0823 25.8502 78.6811Z" fill="#252525"/>
<path d="M86.0664 81.1105C82.5636 81.3979 82.6542 77.9407 84.6264 77.0419C87.8286 75.5833 88.5096 80.9101 86.0664 81.1105ZM85.1514 79.1521C85.2282 79.0771 85.2804 78.9805 85.3008 78.8749C85.3212 78.7693 85.3092 78.6601 85.2654 78.5617C85.2222 78.4633 85.1502 78.3805 85.0584 78.3247C84.9666 78.2683 84.8598 78.2419 84.753 78.2479C83.8854 78.2791 84.4614 79.7521 85.1514 79.1521Z" fill="#252525"/>
<path d="M81.5628 88.8403C78.7542 86.7265 81.12 84.2047 83.1906 84.8443C86.553 85.8829 83.52 90.3133 81.5628 88.8403ZM82.1802 86.7673C82.2876 86.7625 82.3908 86.7253 82.4766 86.6599C82.5618 86.5945 82.6254 86.5051 82.6584 86.4025C82.6914 86.3005 82.6926 86.1907 82.6614 86.0875C82.6302 85.9849 82.5684 85.8937 82.4844 85.8271C81.8154 85.2727 81.2664 86.7601 82.1802 86.7673Z" fill="#252525"/>
<path d="M71.5704 92.3844C70.1904 89.1516 73.5012 88.1472 74.9754 89.7342C77.37 92.3124 72.5316 94.6392 71.5704 92.3844ZM73.14 90.9C73.2348 90.9492 73.3428 90.9678 73.449 90.954C73.5552 90.9402 73.6548 90.8946 73.734 90.8232C73.8138 90.7512 73.8696 90.6576 73.8948 90.5532C73.9194 90.4488 73.9122 90.3396 73.8738 90.24C73.569 89.4198 72.3528 90.432 73.14 90.9Z" fill="#252525"/>
<path d="M62.814 90.5514C63.9336 87.219 67.074 88.668 67.1208 90.8346C67.1964 94.3512 62.034 92.8752 62.814 90.5514ZM64.974 90.483C65.0124 90.5832 65.0808 90.6696 65.1696 90.7302C65.2584 90.7908 65.3634 90.8226 65.4708 90.822C65.5782 90.8208 65.6832 90.7872 65.7708 90.7248C65.8584 90.6624 65.925 90.5754 65.9616 90.474C66.2766 89.664 64.6956 89.6118 64.9746 90.483H64.974Z" fill="#252525"/>
<path d="M53.7796 87.8136C54.973 84.5076 58.0804 86.0256 58.0786 88.1928C58.0756 91.71 52.9474 90.12 53.7796 87.8136ZM55.9396 87.7926C55.9759 87.8934 56.0421 87.981 56.1295 88.0434C56.2169 88.1058 56.3213 88.14 56.4286 88.1418C56.536 88.143 56.6412 88.1118 56.7303 88.0518C56.8194 87.9918 56.8881 87.9066 56.9272 87.8064C57.2614 87.0042 55.6798 86.916 55.9408 87.7926H55.9396Z" fill="#252525"/>
<path d="M48.616 80.5068C51.7054 78.8268 53.0176 82.0284 51.5758 83.6472C49.2364 86.2734 46.4626 81.6762 48.616 80.5068ZM50.2462 81.9282C50.2061 82.0278 50.1973 82.137 50.221 82.242C50.2448 82.3464 50.2999 82.4418 50.3791 82.5144C50.4583 82.587 50.5578 82.6332 50.6642 82.6476C50.7706 82.6626 50.8789 82.644 50.9746 82.5954C51.757 82.2174 50.635 81.1008 50.2462 81.9282Z" fill="#252525"/>
<path d="M23.9549 81.9961C23.9795 80.5741 23.0729 77.5345 21.7433 77.0293C20.8145 76.4719 20.4065 77.4649 19.7867 77.4559C18.7253 76.1359 21.9839 74.2045 23.8751 76.8763C25.0553 78.5431 25.1519 82.1341 23.9549 81.9961Z" fill="#252525"/>
<path d="M57.1504 55.9674C57.214 58.5126 54.7438 58.7658 54.4378 58.0362C54.1006 57.2316 55.8778 57.2532 55.0378 55.4562C54.6178 54.5658 53.7778 54.294 54.0928 53.7276C54.6394 52.74 56.9398 53.7648 57.1504 55.9674Z" fill="#252525"/>
<path d="M57.1492 50.0633C56.3026 50.4833 54.4822 48.9233 53.7922 48.2633C53.0428 47.5511 53.8168 46.1393 54.3958 45.2825C54.6688 44.8787 55.1038 44.9633 55.012 45.5585C54.6778 47.7209 53.7898 46.5923 57.1492 50.0633Z" fill="#252525"/>
<path d="M64.731 33.6101C67.611 34.0391 68.9778 36.4463 68.451 36.7631C68.271 36.8705 68.1654 36.6431 68.031 36.5627C66.9258 35.9207 65.8422 35.2349 64.5282 35.0735C64.0716 35.0171 63.5298 34.9433 63.5838 34.2989C63.6408 33.6191 64.2498 33.7289 64.731 33.6101Z" fill="#252525"/>
<path d="M54.1948 34.0991C53.9176 34.5617 53.5066 34.3709 53.1346 34.2155C51.6496 33.5921 49.1848 33.8735 49.1254 33.4085C48.9412 31.9799 55.2658 32.3117 54.1948 34.0991Z" fill="#252525"/>
<path d="M55.4145 42.6762C55.0953 42.483 57.3346 36.7026 57.3604 36.66C57.4936 36.4422 57.5236 36.06 57.8926 36.1662C58.9072 36.4548 56.0553 43.0644 55.4145 42.6762Z" fill="#252525"/>
<path d="M66.1764 41.928C65.8722 44.3574 63.045 43.761 63.969 41.4126C64.6164 39.7692 66.18 40.4838 66.1764 41.928Z" fill="#252525"/>
<path d="M48.81 38.9622C48.9012 36.7734 51.0408 37.0254 50.9922 38.6622C50.9322 40.7046 48.7392 40.6482 48.81 38.9622Z" fill="#252525"/>
<path d="M28.7777 71.8615C27.5453 65.9893 20.3777 65.7175 19.1369 66.1207C18.1391 66.4435 16.9235 65.9929 13.8941 70.7119C11.9489 73.7383 11.4941 77.3173 11.9573 80.8411C12.8477 87.6001 18.9119 90.2233 21.2495 89.5099C22.0247 89.2735 21.7571 88.6873 21.3797 88.6981C14.5217 88.8907 9.19967 77.8285 16.7375 69.4705C18.1415 67.9141 19.9103 67.0225 22.1561 67.5751C30.0359 69.5119 26.9915 79.0351 28.6361 76.6627C28.6511 76.5085 28.7735 76.5529 28.8023 76.3321C29.0966 74.8555 29.0882 73.3345 28.7777 71.8615Z" fill="#252525"/>
<path d="M104.783 82.3242C98.4708 78.6043 85.6656 73.8456 81.756 73.7839C81.0396 73.7725 81.1446 73.4934 81.156 72.6115C81.21 67.0014 81.7944 73.302 88.1388 67.761C88.1784 67.7274 88.2258 67.704 88.2762 67.6926C88.3266 67.6819 88.3794 67.6831 88.4292 67.6975C88.4796 67.7113 88.5252 67.7371 88.563 67.7725C88.6002 67.8085 88.629 67.8529 88.6452 67.9021C89.1714 69.3745 91.8042 70.6471 93.681 70.7221C98.4156 70.9021 101.378 66.5749 101.593 64.6579C101.785 62.9485 101.102 63.3151 102.644 62.8159C106.713 61.5007 109.916 54.8803 107.279 51.3211C105.795 49.3183 103.688 49.6411 104.339 48.5923C105.779 46.2523 105.608 45.8634 105.289 43.7281C105.143 43.3808 104.972 43.0442 104.779 42.7206C102.971 39.6168 101.572 40.7094 102.115 39.801C103.513 37.461 102.712 32.5542 101.203 31.623C98.0436 29.6718 94.6272 29.0592 93.9348 28.5738C93.8988 28.5486 93.9204 28.5738 94.1526 28.347C96.0774 26.46 98.961 19.7742 92.328 18.5514C92.2212 18.5316 91.848 18.6066 92.106 18.327C92.7834 17.5866 93.5058 12.807 90.8328 10.3836C88.0806 7.88825 86.4648 8.39285 84.5388 8.74865C83.9106 8.86445 84.2946 9.00425 83.8188 8.06705C81.5214 3.57482 74.7324 1.16102 70.0308 4.71542C68.9586 5.52602 69.0264 5.88182 68.3856 5.22722C64.674 1.44002 56.8842 3.22922 55.872 6.48365C55.6614 7.16105 55.3056 6.63845 54.8892 6.51905C52.2396 5.75942 50.0178 6.45185 48.0396 8.88605C45.3912 12.1452 47.061 14.9502 46.245 14.3784C46.1942 14.3422 46.1339 14.3214 46.0716 14.3184C43.3896 14.2236 42.4416 15.8184 42.021 15.8184C42.1248 16.0842 40.5492 17.175 39.9984 18.8292C38.6112 22.9896 39.8784 26.3334 44.004 27.8148C44.6334 28.041 43.2714 28.8252 43.1448 29.1282C42.9708 29.5446 40.5186 32.3016 42.0168 35.637C42.5664 36.7551 43.4588 37.6685 44.5638 38.244C45.315 38.6172 45.3438 38.4456 45.1572 39.5382C44.9532 40.7244 45.1698 40.9242 44.2884 41.2782C44.024 41.3993 43.7867 41.5724 43.5908 41.7874C43.3949 42.0024 43.2444 42.2547 43.1484 42.5293C43.1006 42.9314 43.1637 43.339 43.3309 43.7079C43.4981 44.0768 43.763 44.3929 44.097 44.6221C44.9196 45.0919 44.6532 45.1273 44.6298 49.8391C44.6816 50.0939 44.828 50.3197 45.0395 50.471C45.2509 50.6224 45.5119 50.6881 45.7698 50.6551C46.0698 50.5693 45.894 50.6551 45.8406 46.1502C45.8238 44.6964 46.3032 46.1455 49.2744 46.0135C50.3904 45.9637 51.3948 45.6889 51.7758 44.427C51.8784 44.0886 52.2474 44.1199 52.5306 44.094C54.7104 43.893 56.331 44.6562 58.0008 45.5005C59.421 46.2205 58.0782 46.6957 59.295 47.7493C61.1034 49.3147 63.1716 50.0826 65.577 49.62C65.9904 49.5751 66.3708 49.3708 66.636 49.0504C66.9018 48.73 67.032 48.3188 66.999 47.904C67.014 47.268 68.9694 46.7556 72.0276 45.2862C77.8308 42.4981 77.553 42.3426 78.1338 42.6858C81.5994 44.733 82.3614 41.4126 85.9824 41.5872C88.4004 41.703 88.9392 42.5773 88.5516 44.4072C87.0642 51.4272 77.4516 45.6757 79.9116 68.9107C80.466 74.136 80.0046 76.7023 77.8764 79.5007C70.3764 89.3575 57.8736 85.9519 58.0728 76.3206C58.0974 75.1098 58.5384 74.6599 48.4578 76.6639C47.6562 76.8235 38.9094 79.3387 34.6284 81.6187C32.5695 82.7143 30.5998 83.97 28.7376 85.374C28.59 85.6872 26.535 86.9394 26.7762 87.333C27.2184 88.0578 31.8552 82.8097 46.1268 78.9847C49.2451 78.1417 52.409 77.4781 55.6032 76.9969C56.7096 76.8769 56.5824 76.8769 56.643 78.6805C56.7576 82.0603 60.909 87.1638 67.6116 87.1669C72.672 87.1669 78.4224 82.2619 79.9242 78.3589C81.4344 74.4325 80.2932 74.4397 82.3884 75.1447C82.4124 75.1525 82.437 75.1579 82.4622 75.1609C83.2122 75.2376 83.517 75.6217 84.7098 75.8208C89.7564 76.6765 114.413 87.9973 104.783 82.3242ZM96.9642 60.2443C96.9906 60.183 97.0356 60.1315 97.0932 60.0973C97.1502 60.0625 97.2174 60.0475 97.284 60.0534C97.3506 60.0594 97.4136 60.0865 97.464 60.1303C97.5144 60.1741 97.5492 60.2329 97.5642 60.2983C97.8978 61.8181 96.4728 64.9891 94.4112 65.7745C92.5878 66.4693 91.5156 64.8145 92.4534 64.6747C94.3416 64.3879 96.264 61.8396 96.9642 60.2436V60.2443ZM55.8414 10.449C56.3508 8.34905 59.4234 7.17425 61.1556 7.31525C63.3894 7.49525 64.3458 8.75165 64.26 8.91425C64.0116 9.38045 60.8196 7.04525 57.06 11.1342C56.3016 11.9532 55.62 11.3532 55.8414 10.449ZM46.9554 42.9979C46.4297 42.8598 45.8791 42.8466 45.3474 42.9594C44.517 43.1568 44.6238 41.7337 47.1 42.4141C47.1774 42.4332 47.2441 42.4823 47.2852 42.5507C47.3264 42.6189 47.3388 42.7008 47.3196 42.7782C47.3004 42.8556 47.2513 42.9222 47.183 42.9635C47.1147 43.0046 47.0328 43.017 46.9554 42.9979ZM61.7754 46.4827C61.4442 46.4471 61.1094 46.4537 60.78 46.5024C60.072 46.614 60.3534 45.6378 61.8564 45.8605C61.9374 45.8728 62.0106 45.9164 62.0598 45.982C62.109 46.0475 62.1306 46.1298 62.1204 46.2112C62.1096 46.2925 62.0676 46.3665 62.0034 46.4172C61.9386 46.4679 61.857 46.4914 61.7754 46.4827ZM76.518 42.2401C66.3414 46.5637 66.957 47.2801 66.381 46.6555C64.7718 44.9095 62.676 44.5555 60.441 44.6299C59.9946 44.6645 59.5793 44.8721 59.2836 45.2083C58.6068 45.8875 56.9784 42.3564 51.9852 43.4082C51.8268 43.4418 51.7032 43.5493 51.5652 43.3309C50.592 41.8213 49.0734 41.2782 47.4012 41.0508C46.134 40.8792 46.1412 40.9039 46.3176 39.6295C46.8276 36.605 47.4939 33.609 48.3138 30.6534C48.603 29.4732 49.314 28.4868 50.4738 28.2984C54.3348 27.6726 55.365 25.7556 56.0298 26.6076C58.9008 30.2856 63.0996 30.2676 65.8938 27.3432C66.0234 27.2076 66.3258 26.82 66.5022 27.1572C68.6172 31.2 69.9678 34.92 75.0318 34.98C75.2436 34.98 75.567 34.8528 75.4518 35.3328C75.1914 36.3764 75.1734 37.4658 75.399 38.5175C75.6246 39.5691 76.0878 40.5552 76.7538 41.4C77.1162 41.8884 77.04 42.0151 76.518 42.2401ZM76.638 28.8894C73.8072 28.8852 70.824 24.1962 72.3678 23.5494C73.677 22.9992 74.373 27.0966 77.1516 28.3362C77.328 28.4142 77.6436 28.4418 77.6058 28.6926C77.568 28.9434 76.86 28.8864 76.6404 28.8864L76.638 28.8894Z" fill="#252525"/>
<path d="M115.972 58.7695C114.935 41.7859 105.832 26.7523 92.4996 17.3947C92.436 17.7299 92.2998 18.0472 92.1018 18.3247C91.8462 18.6031 92.217 18.5293 92.3238 18.5491C98.9568 19.7713 96.0714 26.4541 94.1484 28.3447C94.1418 28.3447 94.167 28.3687 77.4396 42.6463C16.9433 94.2835 21.3899 90.8491 20.9651 90.2863C20.7947 90.0607 20.6261 89.8351 20.4617 89.6065C17.9495 89.6131 12.8003 87.2419 11.9573 80.8405C11.5377 78.1135 11.8404 75.3241 12.8351 72.7501C10.7459 63.5221 11.4579 53.8809 14.8799 45.0601C22.8551 25.0201 39.7799 19.4845 39.9983 18.8335C40.5491 17.1793 42.1247 16.0885 42.0209 15.8227C42.4409 15.8191 43.3895 14.2261 46.0715 14.3227C46.1339 14.3252 46.1942 14.3461 46.2449 14.3827C47.1245 15.0073 45.1391 11.8825 48.5939 8.2627C39.6242 10.0193 31.2265 13.9617 24.1451 19.7403C17.0636 25.519 11.5171 32.9554 7.99728 41.3905C-4.86553 72.4687 13.8095 108.535 48.6989 115.8C84.1476 123.18 118.224 95.6359 115.972 58.7695ZM109.06 66.1993C105.788 107.239 56.2637 124.226 26.6027 96.7201C26.2571 96.3997 26.0327 96.1561 26.5541 95.7133C103.114 30.7039 98.8722 33.1633 99.4836 33.9535C106.619 43.1146 110.038 54.6287 109.06 66.1993Z" fill="#644DF6"/>
</svg>
