<svg width="120" height="120" viewBox="0 0 120 120" fill="none" xmlns="http://www.w3.org/2000/svg">
<path d="M68.6724 15.4075C68.615 15.3903 68.5541 15.3882 68.4957 15.4012C68.4372 15.4142 68.383 15.442 68.3382 15.4819C68.2026 15.6446 68.1109 15.8392 68.0716 16.0474C68.0323 16.2555 68.0468 16.4702 68.1137 16.6712C68.1807 16.8721 68.2978 17.0526 68.4541 17.1956C68.6104 17.3386 68.8005 17.4393 69.0066 17.4883C69.0819 17.5032 69.1599 17.4973 69.232 17.471C69.3042 17.4448 69.3677 17.3993 69.4158 17.3395C69.5308 17.1214 69.5938 16.8797 69.6 16.6333C69.5893 16.3586 69.4946 16.0938 69.3288 15.8746C69.1629 15.6555 68.9338 15.4924 68.6724 15.4075Z" fill="#666666"/>
<path d="M58.6038 41.1546C57.2448 44.2932 57.5028 47.7408 60.3132 49.365C61.0194 49.773 62.2932 50.3508 63.0624 49.845C63.5538 49.5234 63.7566 48.7602 64.0656 48.285C65.463 46.1328 68.1174 44.8326 70.1958 43.3806C74.9392 39.9834 78.7683 35.4651 81.3414 30.2286C81.5055 29.9903 81.5994 29.7108 81.6126 29.4218C81.6257 29.1328 81.5575 28.8458 81.4158 28.5936C83.571 27.9246 84.0168 26.55 84.0558 26.067C84.5772 26.1128 85.0957 25.9513 85.499 25.6175C85.9022 25.2838 86.1578 24.8046 86.2104 24.2838C88.4784 -0.101966 55.227 -5.85356 59.6442 19.2342C59.9442 20.9424 60.3642 22.728 60.1272 24.4728C59.916 26.0328 58.8258 27.333 58.3068 28.8198C57.7067 30.5342 57.7463 32.4076 58.4184 34.095C59.0064 35.547 59.973 36.7392 59.6442 38.3676C59.3978 39.3311 59.049 40.2654 58.6038 41.1546ZM83.2362 26.3676C82.9008 27.1098 81.7872 27.7794 81.0816 28.1508C80.305 26.9763 79.4614 25.8474 78.555 24.7698C77.6622 23.7306 76.9554 24.2478 76.14 25.0302C75.0972 26.0304 73.839 26.5464 72.3876 26.07C71.238 25.6932 70.5726 24.69 69.7872 23.8038C68.8272 22.7238 67.9602 22.599 66.6288 22.2066C66.0288 22.0302 66.4422 21.1662 66.4806 20.7576C66.8466 16.8528 63.4716 13.1934 64.437 9.57424C64.7646 8.34664 66.2928 10.0596 66.852 10.4658C68.9628 11.9988 71.7918 14.43 74.58 14.07C75.768 13.9164 77.487 11.9766 78.6666 12.8064C79.6026 13.4664 79.2396 14.712 78.7038 15.4818C78.4152 15.8964 77.8506 16.188 77.6634 16.6332C77.2572 17.6004 78.7104 19.2672 79.1868 20.0142C80.2851 21.8162 81.5541 23.5084 82.9764 25.0674C83.1513 25.229 83.2707 25.4418 83.3174 25.6754C83.364 25.9089 83.3356 26.1512 83.2362 26.3676Z" fill="#666666"/>
<path d="M64.3998 60.8081C63.9747 60.6732 63.5163 60.6863 63.0996 60.8453C59.7996 61.8149 59.1996 66.3053 62.2452 67.9043C62.2791 67.9187 62.3172 67.9201 62.3521 67.9083C62.387 67.8965 62.4164 67.8723 62.4347 67.8403C62.4529 67.8082 62.4588 67.7706 62.4512 67.7346C62.4436 67.6985 62.423 67.6665 62.3934 67.6445C61.6679 67.1248 61.1628 66.3527 60.9774 65.4797C60.7919 64.6067 60.9393 63.696 61.3908 62.9261C62.0298 62.7659 64.5288 61.5563 68.7108 59.8061C69.4419 59.513 70.1499 59.1652 70.8288 58.7657C71.0148 58.7759 71.0958 58.7327 71.163 58.6031C71.1794 58.5753 71.1895 58.5443 71.1926 58.5121C71.1958 58.48 71.1919 58.4476 71.1813 58.4171C71.1707 58.3867 71.1536 58.3588 71.1311 58.3356C71.1087 58.3124 71.0815 58.2944 71.0514 58.2827C69.417 57.4655 67.6368 56.9405 66.0714 55.9049C64.662 54.9719 63.3888 53.5277 63.2478 51.7811C63.2082 51.3011 62.4258 51.3011 62.4678 51.7811C62.5844 52.7238 62.908 53.6289 63.4154 54.4318C63.9229 55.2347 64.6016 55.9154 65.403 56.4251C66.8353 57.3703 68.4005 58.0967 70.047 58.5803C69.356 58.7635 68.684 59.0118 68.04 59.3219C67.7215 58.9935 67.3434 58.7288 66.9258 58.5419C65.3936 57.7439 63.6228 57.5325 61.9458 57.9473C61.7604 57.9845 61.8348 58.2815 62.0202 58.2473C63.9384 57.9908 65.8837 58.4543 67.4802 59.5481C64.446 60.7601 64.9878 60.5819 64.3998 60.8081Z" fill="#666666"/>
<path d="M55.7064 64.821C55.6692 64.5978 55.3716 64.5978 55.3716 64.821C55.3472 65.765 55.5465 66.7014 55.9532 67.5536C56.3599 68.4059 56.9624 69.1499 57.7116 69.7248C58.1166 70.0248 58.8654 70.6626 59.3838 70.5426C59.418 70.5339 59.4498 70.5175 59.4767 70.4948C59.5036 70.472 59.525 70.4434 59.5393 70.4112C59.5536 70.3789 59.5603 70.3439 59.5591 70.3086C59.5578 70.2734 59.5486 70.2389 59.532 70.2078C59.2434 69.7932 58.6392 69.6522 58.269 69.3906C57.5461 68.8504 56.9445 68.1646 56.5031 67.3775C56.0617 66.5904 55.7903 65.7195 55.7064 64.821Z" fill="#666666"/>
<path d="M59.2356 66.8268C58.7671 66.0223 58.4041 65.1609 58.1556 64.2636C58.1423 64.2169 58.113 64.1763 58.0729 64.1488C58.0328 64.1213 57.9843 64.1086 57.9359 64.113C57.8875 64.1175 57.8421 64.1386 57.8076 64.1729C57.7731 64.2072 57.7517 64.2524 57.747 64.3008C57.747 66.306 59.7342 68.931 60.867 69.1674C60.9106 69.1788 60.9565 69.1771 60.9992 69.1626C61.0418 69.1481 61.0793 69.1214 61.1069 69.0859C61.1346 69.0503 61.1512 69.0074 61.1547 68.9625C61.1583 68.9176 61.1485 68.8727 61.1268 68.8332C60.573 68.0904 59.7642 67.6386 59.2356 66.8268Z" fill="#666666"/>
<path d="M57.2292 81.3168C59.2608 81.6234 60.1998 79.8726 58.9386 78.0102C58.5342 77.4102 58.0782 76.8246 57.7122 76.227C57.5994 76.0422 57.2322 76.0776 57.2664 76.338C57.423 77.4888 58.5528 78.1524 58.8264 79.236C58.908 79.4677 58.9123 79.7197 58.8386 79.9541C58.765 80.1885 58.6173 80.3928 58.4178 80.5362C58.0368 80.7236 57.5999 80.7634 57.1914 80.6478C56.3599 80.4368 55.5858 80.0435 54.9252 79.4964C51.9738 77.3364 51.4584 76.587 50.2812 75.6696C50.1348 75.555 49.875 75.705 50.0214 75.8922C51.4053 77.4635 52.9633 78.8726 54.6654 80.0922C55.4096 80.6997 56.2889 81.1197 57.2292 81.3168Z" fill="#666666"/>
<path d="M53.6256 81.948C53.7744 81.948 53.8872 81.7614 53.8116 81.648C53.3658 81.003 51.0648 80.1312 47.904 76.5582C47.7552 76.4094 47.4582 76.5954 47.604 76.7808C48.8025 78.406 50.2583 79.8247 51.9138 80.9808C52.2108 81.1668 52.4706 81.39 52.8054 81.5754C53.0436 81.7659 53.3255 81.8939 53.6256 81.948Z" fill="#666666"/>
<path d="M48.9072 81.4284C47.7183 80.5772 46.5887 79.646 45.5262 78.6414C45.3402 78.456 45.117 78.7164 45.2664 78.9018C46.7486 80.6174 48.5376 82.0417 50.5416 83.1018C51.153 83.4904 51.8347 83.7554 52.548 83.8818C52.6968 83.8818 52.7712 83.6964 52.6596 83.622C51.909 82.977 50.979 82.8312 48.9072 81.4284Z" fill="#666666"/>
<path d="M107.646 67.4214C106.746 58.2636 105.024 48.2496 101.106 39.9654C100.735 39.1482 100.326 38.3304 99.8796 37.5504C99.8674 37.5309 99.8514 37.514 99.8327 37.5006C99.8139 37.4873 99.7927 37.4777 99.7703 37.4726C99.7479 37.4674 99.7247 37.4668 99.702 37.4706C99.6793 37.4744 99.6576 37.4826 99.6381 37.4949C99.6186 37.5071 99.6017 37.523 99.5883 37.5418C99.575 37.5605 99.5655 37.5817 99.5603 37.6041C99.5551 37.6265 99.5545 37.6498 99.5583 37.6725C99.5621 37.6951 99.5704 37.7169 99.5826 37.7364C103.966 46.0368 105.716 55.2276 106.828 64.4862C107.117 66.3678 107.279 68.267 107.311 70.1706C107.311 73.7562 105.931 75.564 102.852 77.4528C101.691 78.1788 96.072 81.135 94.827 81.7254C88.0759 85.0809 80.9209 87.5532 73.5384 89.0814C70.2583 89.8805 66.8766 90.1812 63.507 89.9736C58.643 89.551 53.928 88.0808 49.686 85.6638C47.6186 84.5408 45.697 83.1681 43.9644 81.5766C43.779 81.4284 43.5186 81.6882 43.7046 81.837C44.8317 82.929 46.0497 83.9232 47.3454 84.8088C51.4876 87.5779 56.175 89.4276 61.092 90.2334C64.3433 90.7624 67.6617 90.7247 70.9002 90.1218C80.9596 88.3276 90.6441 84.8483 99.5454 79.8306C103.335 85.6638 107.719 92.5368 105.193 99.7446C100.674 112.669 78.4692 114.342 64.6962 115.312C53.9694 116.13 45.2634 116.129 33.7476 116.129C28.2876 116.129 22.6386 115.869 17.5476 113.566C16.0242 112.897 14.3898 112.042 13.461 110.593C12.6714 109.343 12.6768 107.959 14.2782 106.358C16.3962 104.166 19.4424 102.977 22.1916 101.825C23.8638 101.119 25.4982 100.376 27.1716 99.7446C37.638 95.8194 45.6162 95.2158 58.4916 94.803C66.639 94.5336 76.4424 94.7046 78.3312 94.9146C78.591 94.9518 78.591 94.5432 78.3312 94.5432C77.4024 94.4688 76.4712 94.3944 75.582 94.32C81.3918 90.6888 86.1564 87.939 93.0066 86.4066C98.1516 85.2774 99.8298 85.9476 102.035 85.5522C102.335 85.515 102.295 85.032 102.035 84.9576C101.095 84.7602 100.13 84.71 99.174 84.8088C96.2414 84.949 93.3356 85.4354 90.5172 86.2578C84.9655 88.0144 79.7704 90.7443 75.1746 94.32C64.8972 93.8112 54.5968 94.0231 44.349 94.9542C42.3888 91.7586 40.929 88.1676 41.5506 84.3258C42.294 79.905 44.709 75.855 47.6814 72.5112C49.2735 70.769 51.0167 69.1712 52.8906 67.7364C53.1924 68.88 53.7484 69.9407 54.5172 70.8396C54.9409 71.3732 55.4897 71.7943 56.115 72.0654C56.3364 72.144 56.4528 71.8398 56.3376 71.694C54.9318 69.9126 53.514 68.499 53.2914 66.1212C53.0118 62.8782 54.9636 59.802 58.6044 58.3932C58.7898 58.3188 58.7154 58.0218 58.53 58.059C55.158 58.659 51.7956 62.4648 52.77 67.239C43.1046 73.3032 36.2592 87.1788 43.7172 95.0232C38.3504 95.5058 33.0728 96.7074 28.026 98.5956C28.026 98.5356 26.4882 97.9578 25.797 97.6668C22.2268 96.1741 18.9641 94.0327 16.1742 91.3512C15.171 90.3852 14.1306 89.1216 14.0562 87.6726C13.9452 85.5924 15.609 83.1366 17.103 81.8028C17.6731 81.3067 18.3661 80.973 19.1094 80.8368C20.1294 80.6052 20.9424 80.6034 24.1248 80.4654C30.5796 80.325 35.3034 81.3144 40.695 82.5828C40.881 82.62 40.9182 82.3968 40.7694 82.323C34.4982 80.0232 24.5538 79.4502 19.5924 80.205C18.7771 80.295 17.9912 80.5612 17.289 80.985C15.5424 82.137 14.1306 84.5148 13.6476 86.5212C13.5076 87.2566 13.5387 88.0144 13.7385 88.736C13.9382 89.4575 14.3013 90.1234 14.7996 90.6822C17.4396 94.026 21.3756 96.3666 25.2396 98.0754C25.9359 98.4025 26.6562 98.6759 27.3942 98.8932C24.93 99.801 19.0314 102.231 16.3974 103.797C8.33157 108.685 12.7272 113.757 21.933 115.909C27.96 117.262 33.7278 116.989 44.559 116.989C55.4734 116.956 66.377 116.298 77.2164 115.021C86.7732 113.809 99.4164 111.068 104.45 102.871C105.961 100.409 106.687 97.5454 106.53 94.6608C105.972 87.867 100.816 80.5266 100.183 79.5528C107.288 75.9948 108.345 73.4766 107.646 67.4214Z" fill="#666666"/>
<path d="M86.0232 30.603C86.478 29.604 87.174 28.5954 88.2522 28.263C91.005 27.4122 94.026 29.232 95.9058 31.3464C95.9802 31.4208 96.1284 31.3092 96.054 31.2348C92.8932 26.9796 88.4232 26.9004 86.694 28.7088C85.4766 29.9802 85.0104 31.7898 84.6876 33.4644C83.916 37.4712 84.3582 41.5998 85.0962 45.576C86.4636 52.9398 88.5666 60.7638 91.9326 67.422C92.071 67.7065 92.2315 67.9797 92.4126 68.2392C84.7188 70.5624 77.2614 77.7792 69.3408 80.6484C62.4186 83.1552 61.9008 78.3924 58.938 76.0416C58.8636 75.9672 58.7502 76.1172 58.8264 76.1904C60.6108 77.9004 61.461 80.5458 63.9162 81.5028C66.5136 82.5156 69.5238 81.2748 71.904 80.2026C78.1548 77.3868 83.793 72.5064 89.9604 69.8742C91.3404 69.2862 92.7894 68.8134 94.233 68.3508C94.2647 68.341 94.2942 68.3252 94.3198 68.304C94.3454 68.2829 94.3665 68.257 94.3821 68.2276C94.3976 68.1983 94.4072 68.1663 94.4104 68.1332C94.4135 68.1002 94.4102 68.0669 94.4004 68.0352C94.3907 68.0035 94.3748 67.974 94.3537 67.9484C94.3326 67.9228 94.3066 67.9017 94.2773 67.8861C94.248 67.8706 94.2159 67.861 94.1829 67.8578C94.1499 67.8547 94.1165 67.858 94.0848 67.8678C93.714 67.9464 93.3414 68.0166 92.97 68.1282C91.7916 65.3292 88.9008 60.3954 86.208 47.8794C85.1688 43.0446 83.9964 35.052 86.0232 30.603Z" fill="#666666"/>
<path d="M35.9778 91.1622C32.5686 88.334 28.4136 86.5534 24.0144 86.0352C23.9034 86.0352 23.8662 86.2206 23.9778 86.2206C33.0018 88.0908 36.2922 92.3946 37.9842 93.6144C38.1348 93.723 38.2812 93.54 38.2068 93.3912C37.5895 92.5323 36.8367 91.7795 35.9778 91.1622Z" fill="#666666"/>
<path d="M47.421 66.381C48.2754 66.753 48.2514 65.6418 48.387 65.118C49.047 62.5686 50.988 59.1864 49.2414 58.0218C48.0858 57.2514 46.113 58.1826 45.786 60.3618C44.4114 58.1124 42.6552 58.1736 42.108 59.5818C40.935 62.6004 44.8602 64.674 47.421 66.381Z" fill="#C0C0C0"/>
<path d="M73.0974 21.8712C72.8148 21.5712 72.5412 21.7512 72.5616 22.0806C72.5928 22.5786 72.9444 22.827 72.7236 23.3232C72.4874 23.7442 72.1021 24.0614 71.6436 24.2124C71.6187 24.2239 71.5977 24.2422 71.5829 24.2653C71.5681 24.2884 71.5603 24.3152 71.5603 24.3426C71.5603 24.37 71.5681 24.3968 71.5829 24.4199C71.5977 24.443 71.6187 24.4613 71.6436 24.4728C72.84 24.771 74.4834 23.34 73.0974 21.8712Z" fill="#666666"/>
<path d="M69.12 13.8096C68.4564 13.146 66.5616 13.4586 66.4452 14.6274C66.4212 14.8959 66.4624 15.1661 66.5652 15.4152C66.768 15.7908 66.93 15.6552 66.93 15.519C66.9415 15.1593 67.0577 14.8106 67.2642 14.5158C67.4442 14.3586 67.5714 14.2554 68.9364 14.2554C68.9881 14.2556 69.0387 14.2403 69.0817 14.2116C69.1247 14.1829 69.1582 14.142 69.1779 14.0942C69.1976 14.0464 69.2026 13.9938 69.1923 13.9431C69.182 13.8924 69.1568 13.8459 69.12 13.8096Z" fill="#666666"/>
<path d="M78.7038 42.5663C78.444 42.4175 78.2208 42.3803 78.1464 42.6401C78.1342 42.6838 78.1312 42.7294 78.1376 42.7743C78.144 42.8191 78.1597 42.8621 78.1836 42.9005C78.2545 43.097 78.3678 43.2754 78.5155 43.4231C78.6631 43.5708 78.8416 43.6841 79.038 43.7549C79.4094 43.8293 79.4466 43.3463 79.338 43.1231C79.1799 42.8844 78.961 42.6922 78.7038 42.5663Z" fill="#C0C0C0"/>
<path d="M80.2272 42.6402C80.1933 42.6696 80.1558 42.6946 80.1156 42.7146C79.7814 43.0146 79.7388 43.8516 80.3754 43.6434C80.7444 43.5234 80.9256 43.083 81.0816 42.7518C81.2514 42.3924 80.9844 42.0996 80.2272 42.6402Z" fill="#C0C0C0"/>
<path d="M79.4838 44.0154C79.4466 44.3868 79.299 45.5802 79.9638 45.501C80.559 45.4308 80.187 44.4612 80.0382 44.1636C79.9668 43.9038 79.56 43.5324 79.4838 44.0154Z" fill="#C0C0C0"/>
<path d="M81.6762 59.88C80.8044 59.7708 81.2724 60.7392 82.233 60.846H82.4934C82.8648 60.7344 82.716 60.3258 82.4934 60.1398C82.2369 60.0095 81.9609 59.9217 81.6762 59.88Z" fill="#C0C0C0"/>
<path d="M83.0508 59.322C83.0136 59.3964 82.9764 59.4336 82.9764 59.4708C82.7904 59.8794 83.1192 60.6534 83.6082 60.2136C83.9016 59.9496 83.868 59.4708 83.868 59.0994C83.8787 59.0061 83.852 58.9125 83.7936 58.839C83.571 58.542 83.199 59.0622 83.0508 59.322Z" fill="#C0C0C0"/>
<path d="M52.734 89.7504C52.8858 89.9706 53.0682 90.1218 53.2542 89.9364C53.3286 89.862 53.3286 89.7876 53.3652 89.676C53.3978 89.3548 53.3332 89.0312 53.1798 88.7472C53.1293 88.6641 53.0666 88.589 52.9938 88.5246C52.6968 88.3014 52.4364 88.6728 52.4364 88.9704C52.4785 89.2487 52.58 89.5147 52.734 89.7504Z" fill="#C0C0C0"/>
<path d="M51.4338 89.0075C51.5076 89.0075 51.5448 89.0075 51.582 88.9703C51.9906 88.8587 52.4346 88.1633 51.768 88.0415C51.3954 87.9731 50.988 88.3014 50.7276 88.5246C50.6532 88.5984 50.5788 88.6356 50.5788 88.7472C50.5044 89.0442 51.1362 89.0075 51.4338 89.0075Z" fill="#C0C0C0"/>
<path d="M83.0136 60.8826C83.1264 61.2534 83.499 62.4096 84.0936 62.034C84.6156 61.7034 83.8332 61.0314 83.6136 60.771C83.385 60.5856 82.8666 60.399 83.0136 60.8826Z" fill="#C0C0C0"/>
<path d="M67.1862 50.331C67.521 50.631 68.8428 51.111 68.9328 50.3682C68.9928 49.8468 68.301 49.8108 67.9296 49.8108C67.7436 49.8108 66.78 49.92 67.1862 50.331Z" fill="#C0C0C0"/>
<path d="M69.267 49.6625C69.1926 49.8851 69.192 50.2901 69.5268 50.2193C69.8976 50.1413 70.233 49.6625 70.4928 49.4021C70.716 49.2167 70.8276 48.8819 70.53 48.6965C70.0872 48.3803 69.5076 49.1807 69.267 49.6625Z" fill="#C0C0C0"/>
<path d="M69.081 51.1482C69.1924 51.4511 69.3422 51.7385 69.5268 52.0032C70.0068 52.4832 70.8432 51.6738 69.5268 50.8512C69.2658 50.655 68.901 50.7876 69.081 51.1482Z" fill="#C0C0C0"/>
<path d="M66.852 66.084C66.5928 66.456 66.4422 67.857 67.1862 67.7928C67.7058 67.7484 67.5948 67.05 67.521 66.7128C67.521 66.5298 67.1874 65.6016 66.852 66.084Z" fill="#C0C0C0"/>
<path d="M67.9668 68.016C67.7436 67.9788 67.335 68.0532 67.4838 68.3874C67.6326 68.7216 68.1522 68.9448 68.4498 69.1674C68.6724 69.3162 68.9994 69.387 69.1554 69.0564C69.297 68.7564 69.0438 68.5362 68.8212 68.3874C68.5542 68.2262 68.2669 68.1013 67.9668 68.016Z" fill="#C0C0C0"/>
<path d="M66.4434 68.1276C66.1632 68.297 65.9121 68.5106 65.7 68.76C65.6532 68.8228 65.6261 68.898 65.6219 68.9761C65.6176 69.0543 65.6366 69.1319 65.6763 69.1994C65.716 69.2668 65.7747 69.3211 65.8451 69.3553C65.9155 69.3895 65.9944 69.4022 66.072 69.3918C66.48 69.3528 66.7098 68.8374 66.852 68.5002C67.0086 68.1276 66.72 67.8528 66.4434 68.1276Z" fill="#C0C0C0"/>
<path d="M79.0008 71.1367C79.038 71.0995 79.038 71.1367 79.0008 71.1367V71.1367Z" fill="#C0C0C0"/>
<path d="M78.78 71.3226C78.7128 71.7696 79.1556 73.113 79.8204 72.7344C80.2686 72.4788 79.8576 71.88 79.6716 71.6196C79.521 71.4342 78.8616 70.7664 78.78 71.3226Z" fill="#C0C0C0"/>
<path d="M80.97 73.4028C81.3042 73.1802 81.639 72.9942 81.936 72.7716C81.8113 72.668 81.6522 72.6149 81.4902 72.6228C81.1819 72.5826 80.8697 72.5826 80.5614 72.6228C80.3376 72.6552 80.004 72.957 80.2614 73.1802C80.4812 73.299 80.7217 73.3745 80.97 73.4028Z" fill="#C0C0C0"/>
<path d="M79.038 74.6292C79.2612 74.4804 79.521 74.295 79.7442 74.1462C79.7814 73.9372 79.7814 73.7233 79.7442 73.5144C79.7442 73.329 79.6326 73.0686 79.3728 73.1802C79.3041 73.2242 79.2518 73.2895 79.224 73.3662C79.0508 73.6318 78.9134 73.919 78.8154 74.2206C78.8091 74.3029 78.8268 74.3853 78.8663 74.4578C78.9058 74.5303 78.9654 74.5898 79.038 74.6292Z" fill="#C0C0C0"/>
</svg>
