<svg width="120" height="120" viewBox="0 0 120 120" fill="none" xmlns="http://www.w3.org/2000/svg">
<path d="M14.7804 49.5205C15.237 51.1357 19.2204 81.5935 20.1876 85.3855C22.6476 84.7009 25.1028 84.0163 27.5604 83.3137C27.4902 81.4705 24.1896 52.3999 22.7502 48.2395C21.6972 48.4849 16.2378 49.3801 14.7804 49.5205Z" fill="#644DF6"/>
<path d="M28.14 53.049C30.102 52.5427 32.1054 52.2138 34.1262 52.0662C34.863 54.3306 37.356 76.5726 37.953 80.0664C35.7588 80.7156 33.564 81.3828 31.3698 82.0326C31.212 80.733 28.8246 56.7882 28.14 53.049Z" fill="#644DF6"/>
<path d="M39.4452 56.9112C40.2852 56.8062 44.3256 56.3112 45.4662 56.1912C45.642 57.648 47.6082 75.5538 48.1524 77.8008L41.727 79.17C41.1654 78.0474 39.7434 60.0186 39.4452 56.9112Z" fill="#644DF6"/>
<path d="M50.4521 63.1435L55.8239 62.7571L56.3501 75.3967L51.7685 76.5001C51.4523 75.0103 50.4341 65.7241 50.4521 63.1435Z" fill="#644DF6"/>
<path d="M33.6168 11.7773V23.9609C33.6168 23.7497 37.8474 21.9065 37.8828 21.8363C37.9356 21.7313 37.5654 21.5927 37.4628 21.5207C36.6096 20.9285 36.9384 19.9667 37.8828 20.0105C38.4807 20.203 39.0526 20.4684 39.5856 20.8007C39.8484 20.9417 39.9198 20.9081 40.2 20.8007C40.6932 20.6117 43.0086 19.5719 43.6584 19.2557C42.9344 17.1418 41.5878 15.2962 39.7957 13.9616C38.0035 12.6269 35.8496 11.8655 33.6168 11.7773Z" fill="#644DF6"/>
<path d="M31.194 16.5703L32.1774 27.3139C33.2658 26.8225 38.2866 24.8383 38.3394 24.8539C38.3922 24.8695 38.427 25.0645 38.3568 25.0819C38.2817 25.0982 38.2125 25.1348 38.1568 25.1877C38.101 25.2406 38.0608 25.3078 38.0406 25.3819C38.0171 25.5573 38.023 25.7353 38.058 25.9087C38.058 25.9441 37.6896 26.4181 37.6896 26.6815C37.6966 26.9466 37.7689 27.2059 37.9002 27.4363C38.1783 27.8695 38.566 28.2214 39.024 28.4563C39.5803 28.7354 40.155 28.976 40.7442 29.1763C41.4562 29.4149 42.2171 29.4694 42.9558 29.3347C42.9842 30.5093 42.775 31.6775 42.3406 32.7692C41.9062 33.8609 41.2557 34.8535 40.428 35.6875C37.0314 39.1021 31.02 39.5347 26.8758 36.5479C23.082 33.8113 21.8706 28.9459 22.8732 24.8911C23.387 22.8857 24.4304 21.0552 25.8943 19.5914C27.3582 18.1275 29.1886 17.0841 31.194 16.5703Z" fill="#644DF6"/>
<path d="M61.2132 80.1887C54.9132 81.6287 15.0084 92.3543 13.3758 92.8985C13.113 91.2659 8.91539 54.0185 6.44159 47.5895C6.4252 47.5435 6.39191 47.5055 6.34848 47.4831C6.30506 47.4608 6.25476 47.4559 6.20782 47.4693C6.16088 47.4828 6.12084 47.5136 6.09583 47.5556C6.07082 47.5975 6.06272 47.6474 6.07319 47.6951C7.37519 53.7857 12.1566 91.5497 12.7794 93.4427C12.8622 93.6959 13.0266 93.6713 13.1832 93.6713C14.7804 93.3713 57.3378 81.9665 61.2834 80.5577C61.545 80.4641 61.44 80.1371 61.2132 80.1887Z" fill="#191919"/>
<path d="M13.8498 99.8155C20.0178 98.3251 59.1918 86.8879 60.8622 86.2981C60.9449 86.2718 61.0143 86.2146 61.0558 86.1385C61.0974 86.0623 61.1079 85.973 61.0853 85.8892C61.0626 85.8055 61.0084 85.7337 60.9341 85.6889C60.8598 85.6441 60.771 85.6298 60.6864 85.6489C59.1624 85.9489 17.133 98.2357 13.7622 99.4489C13.7357 99.4522 13.7103 99.461 13.6875 99.4748C13.6647 99.4887 13.6451 99.5071 13.6299 99.529C13.6147 99.5509 13.6044 99.5758 13.5994 99.602C13.5945 99.6282 13.5952 99.6551 13.6014 99.681C13.6076 99.707 13.6192 99.7313 13.6354 99.7524C13.6516 99.7736 13.6721 99.7911 13.6956 99.8037C13.719 99.8164 13.7448 99.824 13.7714 99.826C13.798 99.8281 13.8247 99.8244 13.8498 99.8155Z" fill="#191919"/>
<path d="M16.6062 103.45C19.8132 102.921 53.1348 94.1731 54.6654 93.5659C54.7481 93.5396 54.8175 93.4825 54.8591 93.4063C54.9006 93.3301 54.9112 93.2408 54.8885 93.1571C54.8658 93.0733 54.8117 93.0016 54.7373 92.9568C54.663 92.912 54.5743 92.8976 54.4896 92.9167C52.878 93.2335 19.6116 102.179 16.5006 103.081C16.4531 103.096 16.4134 103.129 16.3899 103.173C16.3664 103.217 16.3609 103.268 16.3746 103.316C16.3883 103.364 16.4202 103.405 16.4634 103.43C16.5066 103.455 16.5579 103.462 16.6062 103.45Z" fill="#191919"/>
<path d="M6.84535 32.1942C6.82657 32.1334 6.79254 32.0785 6.74651 32.0346C6.70048 31.9907 6.64398 31.9593 6.58238 31.9434C6.52079 31.9276 6.45616 31.9277 6.39464 31.9439C6.33312 31.9601 6.27677 31.9917 6.23095 32.0358C5.39741 32.6713 4.39645 33.0496 3.35095 33.1242C3.17515 33.1392 2.98195 33.2826 2.99995 33.4758C3.1741 35.502 3.56843 37.5032 4.17595 39.444C4.20219 39.5174 4.25382 39.579 4.32149 39.6176C4.38917 39.6562 4.46843 39.6693 4.54495 39.6546C5.56411 39.5312 6.56544 39.2895 7.52875 38.9346C7.57573 38.919 7.61489 38.8859 7.63804 38.8422C7.6612 38.7984 7.66656 38.7474 7.65302 38.6998C7.63947 38.6522 7.60806 38.6117 7.56534 38.5867C7.52262 38.5617 7.47189 38.5541 7.42375 38.5656C6.51115 38.6922 5.59795 38.8992 4.68535 39.0396C4.21227 37.3221 3.89498 35.5653 3.73735 33.7908C4.65678 33.6921 5.54035 33.3796 6.31735 32.8782C6.54535 33.5454 7.30555 36.7386 7.58095 37.6356C7.68835 37.986 8.26435 37.9356 8.24815 37.5474C8.17375 35.7402 7.47175 33.8466 6.84535 32.1942Z" fill="#191919"/>
<path d="M10.392 19.3614C10.3662 19.2757 10.3075 19.2037 10.2289 19.161C10.1502 19.1183 10.0579 19.1084 9.972 19.1334C8.9232 19.3164 7.8654 19.4664 6.8298 19.7124C6.74171 19.7358 6.66646 19.7931 6.62049 19.8718C6.57451 19.9505 6.56153 20.0442 6.5844 20.1324C7.8204 26.076 8.9376 32.0172 9.7968 38.0208C9.8126 38.0751 9.84034 38.1252 9.87799 38.1674C9.91563 38.2097 9.96223 38.243 10.0144 38.2649C10.0665 38.2868 10.1229 38.2968 10.1794 38.2941C10.236 38.2914 10.2911 38.2761 10.341 38.2494C11.1058 37.8503 11.9417 37.6057 12.801 37.5294C13.1868 37.476 13.0818 36.8796 12.7134 36.8622C11.9305 36.8485 11.1551 37.017 10.4484 37.3542C9.6028 31.6318 8.56 25.9444 7.32 20.292C8.1276 20.1162 8.9526 19.9584 9.78 19.818C10.8156 24.9966 11.6538 30.2472 13.0272 35.3364C13.0938 35.583 13.4316 35.4768 13.3962 35.2308C12.6186 29.9094 11.382 24.6504 10.392 19.3614Z" fill="#191919"/>
<path d="M19.3098 35.3365C18.6864 30.7729 17.799 26.2537 16.8696 21.7489C16.8556 21.6975 16.8301 21.65 16.7949 21.61C16.7597 21.5701 16.7159 21.5387 16.6666 21.5183C16.6174 21.498 16.5642 21.4892 16.5111 21.4927C16.458 21.4961 16.4063 21.5117 16.3602 21.5383C15.4387 21.941 14.4716 22.23 13.4802 22.3987C13.4384 22.4098 13.3994 22.4292 13.3652 22.4557C13.3311 22.4821 13.3026 22.5151 13.2813 22.5527C13.2601 22.5903 13.2466 22.6318 13.2416 22.6747C13.2366 22.7175 13.2402 22.761 13.2522 22.8025C14.1168 26.7157 14.5644 30.6673 15.2184 34.6165C15.2532 34.8271 15.6042 34.7749 15.5868 34.5643C15.3856 30.6623 14.8397 26.7858 13.9554 22.9801C14.7386 22.8195 15.5076 22.5964 16.2552 22.3129C17.0628 26.6145 17.8176 30.9213 18.5196 35.2333C17.7693 35.5783 16.9696 35.8035 16.1496 35.9005C15.7458 35.9695 15.8862 36.5377 16.2378 36.5677C17.2578 36.6 18.2632 36.318 19.1178 35.7601C19.1908 35.7192 19.2487 35.656 19.2833 35.5798C19.3178 35.5036 19.3271 35.4183 19.3098 35.3365Z" fill="#191919"/>
<path d="M110.788 87.5448C109.753 87.4392 105.785 87.6648 104.855 87.7026C104.949 85.8827 104.919 84.0585 104.767 82.2426C104.719 82.1096 104.634 81.9936 104.521 81.909C103.667 81.6524 102.755 81.661 101.905 81.9336C101.056 82.2063 100.309 82.7301 99.7637 83.436C99.2758 84.1299 98.9327 84.915 98.7548 85.7444C98.5769 86.5738 98.5678 87.4306 98.7281 88.2636C99.4241 92.3202 104.168 94.5444 107.804 92.6874C108.734 92.2228 109.521 91.513 110.078 90.6344C110.634 89.7559 110.941 88.7419 110.964 87.702C110.964 87.6672 110.806 87.5448 110.788 87.5448ZM106.961 92.4246C105.851 92.8005 104.654 92.8376 103.522 92.5313C102.39 92.225 101.375 91.5891 100.606 90.7044C98.5961 88.3236 99.1877 84.4842 101.186 83.103C102.099 82.4718 103.046 82.5414 104.066 82.5942C103.925 84.402 104.136 86.298 104.153 88.089C104.154 88.1818 104.192 88.2706 104.258 88.3362C104.323 88.4018 104.412 88.4391 104.505 88.44C105.61 88.3548 109.648 88.14 110.561 87.9834C110.407 88.9757 109.993 89.9095 109.361 90.6897C108.728 91.4698 107.9 92.0684 106.961 92.4246Z" fill="#191919"/>
<path d="M110.033 67.1634C109.998 67.1106 109.823 67.128 109.805 67.128C108.928 67.6722 106.259 69.9894 105.715 70.446C106.275 68.9412 106.704 67.3906 106.996 65.8116C107.018 65.6538 106.803 65.4078 106.768 65.3916C105.537 64.9767 104.211 64.9406 102.959 65.2879C101.708 65.6352 100.589 66.35 99.7481 67.3398C97.0895 70.8198 99.2333 76.8198 103.891 77.5572C105.029 77.73 106.192 77.6095 107.27 77.207C108.349 76.8046 109.306 76.1335 110.053 75.2574C110.969 74.1064 111.466 72.678 111.462 71.207C111.459 69.736 110.955 68.31 110.033 67.1634ZM109.946 74.3958C109.34 75.2602 108.52 75.9524 107.566 76.4047C106.612 76.8569 105.557 77.0537 104.504 76.9758C100.536 76.6758 98.0837 71.9154 99.9215 68.4444C100.505 67.3685 101.479 66.5577 102.643 66.1794C103.795 65.8464 105.009 65.7864 106.189 66.0042C105.522 67.7244 105.187 69.6426 104.679 71.3934C104.661 71.4691 104.668 71.5485 104.699 71.62C104.729 71.6915 104.782 71.7513 104.849 71.7905C104.916 71.8298 104.994 71.8465 105.072 71.8382C105.149 71.8299 105.222 71.797 105.279 71.7444C106.101 71.0592 109.211 68.3562 109.879 67.6194C111.052 69.7266 111.352 72.291 109.946 74.3958Z" fill="#191919"/>
<path d="M116.634 53.2423C116.213 52.6108 115.581 52.1495 114.851 51.9407C114.121 51.7319 113.34 51.7892 112.649 52.1023C112.017 51.1369 95.1995 29.5969 93.5315 27.6823C93.5843 27.6649 96.5681 26.1907 95.1815 23.3467C94.5143 21.9775 92.1875 21.3847 90.9161 22.3807C90.8273 22.4503 88.6865 23.7679 89.4239 26.1199C88.5107 26.4889 84.9299 28.4197 84.0167 28.8937C83.5253 27.8053 81.3131 23.3227 80.6285 22.2229C80.6043 22.1854 80.5678 22.1575 80.5252 22.1439C80.4827 22.1303 80.4367 22.132 80.3952 22.1486C80.3538 22.1652 80.3193 22.1957 80.2979 22.2348C80.2764 22.274 80.2692 22.3194 80.2775 22.3633C80.5967 23.5783 82.9667 28.3117 83.5427 29.5435C83.5659 29.5826 83.5966 29.6167 83.633 29.6439C83.6694 29.6711 83.7108 29.6908 83.7548 29.702C83.7988 29.7131 83.8447 29.7155 83.8896 29.7089C83.9346 29.7023 83.9778 29.6868 84.0167 29.6635C85.0175 29.1547 88.8971 27.2941 89.7395 26.7499C90.1287 27.2415 90.6556 27.606 91.253 27.7966C91.8503 27.9873 92.4909 27.9955 93.0929 27.8203C94.5671 29.9449 111.209 51.6403 112.087 52.5907C111.453 53.0022 111 53.6401 110.821 54.3741C110.642 55.1082 110.749 55.8831 111.122 56.5405C111.947 57.8569 113.809 58.1605 115.142 57.5233C116.688 56.7907 117.525 54.7543 116.634 53.2423ZM90.1613 26.1901C90.1433 26.1199 89.4239 24.0301 91.0013 22.9777C91.0541 22.9951 92.9855 21.8713 94.3721 23.4517C95.3729 24.5917 94.6385 26.4079 93.3713 26.9977C92.8268 27.2623 92.2064 27.3264 91.6192 27.1786C91.0321 27.0309 90.5158 26.6809 90.1613 26.1901ZM114.808 56.9101C113.721 57.4213 112.178 57.1543 111.578 56.0323C110.967 54.8923 111.596 53.6803 112.456 52.8901C112.508 52.9075 114.634 51.8881 115.826 53.3641C116.776 54.5401 116.074 56.3167 114.808 56.9113V56.9101Z" fill="#191919"/>
<path d="M77.8554 15.6923C77.1187 13.7257 76.2446 11.8134 75.2394 9.96954C75.7996 9.52243 76.1879 8.89524 76.3382 8.19442C76.4886 7.49359 76.3918 6.76232 76.0644 6.12474C75.2844 4.81134 73.0704 4.16334 71.799 5.15934C71.7102 5.22894 68.6742 6.65154 70.6752 9.58314C69.7974 10.1999 60.1422 18.1853 59.2998 19.0451C58.7943 18.6218 58.1701 18.3656 57.5129 18.3119C56.8558 18.2581 56.1982 18.4095 55.6308 18.7451C53.931 19.9085 53.5398 21.6599 54.3846 23.0111C55.2078 24.3311 57.0696 24.6245 58.4046 23.9939C59.931 23.2739 60.897 20.8343 59.6334 19.3769C60.5112 18.7979 70.3242 10.9859 71.202 10.1255C72.15 10.8275 74.046 10.9655 74.8356 10.3013C75.5153 12.2491 76.3248 14.1491 77.2584 15.9887C77.3069 16.0498 77.3749 16.0924 77.451 16.1093C77.5272 16.1263 77.6068 16.1166 77.6767 16.082C77.7466 16.0473 77.8024 15.9897 77.8349 15.9187C77.8675 15.8478 77.8747 15.7679 77.8554 15.6923ZM58.0554 23.3813C56.9682 23.8925 55.4256 23.6255 54.8256 22.5035C54.2142 21.3635 54.843 20.1515 55.7034 19.3613C55.7562 19.3787 57.6756 18.4943 59.0736 19.8353C60.165 20.8835 59.3184 22.7867 58.053 23.3813H58.0554ZM74.22 9.79374C73.341 10.1945 71.6658 10.2281 70.9902 8.91594C70.4004 7.77114 71.0076 6.56394 71.868 5.77374C71.9202 5.79114 73.9254 4.73514 75.2382 6.24774C76.2432 7.40394 75.501 9.21054 74.22 9.79374Z" fill="#191919"/>
<path d="M114.387 53.9621C114.193 53.8288 113.965 53.7537 113.729 53.7456C113.494 53.7375 113.261 53.7969 113.058 53.9166C112.855 54.0364 112.691 54.2116 112.584 54.4216C112.478 54.6316 112.433 54.8677 112.456 55.1021C112.587 55.8935 113.471 56.6075 114.211 56.0675C114.573 55.8132 114.833 55.4405 114.949 55.0139C114.953 54.8052 114.904 54.5988 114.805 54.4146C114.707 54.2304 114.563 54.0746 114.387 53.9621Z" fill="#191919"/>
<path d="M93.093 23.8908C92.8988 23.7573 92.6705 23.682 92.435 23.6738C92.1995 23.6657 91.9666 23.725 91.7637 23.8448C91.5607 23.9645 91.3962 24.1398 91.2896 24.3499C91.1829 24.5601 91.1385 24.7963 91.1616 25.0308C91.293 25.8228 92.1774 26.5368 92.9172 25.9968C93.2815 25.7456 93.5433 25.3716 93.6546 24.9432C93.6651 24.7334 93.6184 24.5246 93.5195 24.3393C93.4205 24.1539 93.2731 23.9989 93.093 23.8908Z" fill="#191919"/>
<path d="M73.9758 6.68695C73.7816 6.55341 73.5534 6.47814 73.3179 6.46998C73.0824 6.46182 72.8494 6.52113 72.6465 6.64091C72.4436 6.76069 72.2791 6.93596 72.1724 7.14608C72.0657 7.35621 72.0213 7.59243 72.0444 7.82695C72.1758 8.61895 73.0602 9.33295 73.8 8.79295C74.1611 8.53849 74.422 8.1658 74.5374 7.73935C74.5418 7.53051 74.4925 7.32403 74.3942 7.13973C74.2958 6.95544 74.1518 6.79952 73.9758 6.68695Z" fill="#191919"/>
<path d="M57.7903 20.5901C57.596 20.4569 57.3678 20.3818 57.1324 20.3738C56.897 20.3657 56.6642 20.4251 56.4614 20.5448C56.2585 20.6645 56.0941 20.8397 55.9873 21.0496C55.8806 21.2596 55.836 21.4957 55.8589 21.7301C55.9903 22.5215 56.8741 23.2361 57.6145 22.6955C57.9756 22.4413 58.2365 22.0688 58.3518 21.6425C58.3562 21.4337 58.3068 21.2273 58.2085 21.043C58.1101 20.8587 57.9661 20.7028 57.7903 20.5901Z" fill="#191919"/>
<path d="M110.823 38.8651C109.743 37.8025 104.973 33.9733 103.784 33.1051C103.449 32.8609 103.171 33.3667 103.38 33.6319C104.302 34.8013 109.282 38.6431 110.648 39.1789C110.824 39.2497 110.947 38.9869 110.823 38.8651Z" fill="#191919"/>
<path d="M112.14 36.0558C111.06 34.9938 106.289 31.1646 105.1 30.2958C104.765 30.0516 104.488 30.5574 104.696 30.8226C105.618 31.992 110.595 35.8428 111.964 36.3696C112.14 36.4596 112.282 36.1956 112.14 36.0558Z" fill="#191919"/>
<path d="M113.72 33.9493C112.64 32.8873 107.869 29.0581 106.681 28.1893C106.345 27.9451 106.068 28.4509 106.277 28.7161C107.198 29.8855 112.178 33.7273 113.545 34.2631C113.72 34.3345 113.844 34.0717 113.72 33.9493Z" fill="#191919"/>
<path d="M61.0554 43.8858C58.9134 43.9032 50.6616 42.396 45.291 30.21C45.129 29.8434 44.571 30.1224 44.6766 30.4734C47.9538 41.3772 57.042 44.9886 61.1076 44.2542C61.32 44.2164 61.266 43.884 61.0554 43.8858Z" fill="#191919"/>
<path d="M98.3064 57.1571C98.1506 56.3087 97.7754 55.5158 97.2181 54.8573C96.7981 54.4685 93.9018 54.5903 93.0576 54.6815C92.865 54.7025 92.7774 55.0115 93.0048 55.0505C93.6564 55.1621 96.5689 55.1705 96.7093 55.2611C97.0603 55.4543 97.6254 57.192 97.6572 57.438C97.9302 59.538 96.9727 61.4405 96.3055 63.3539C94.7521 63.4991 93.2098 63.7455 91.6884 64.0913C91.5312 64.1453 91.4778 64.4261 91.6884 64.4597C93.3492 64.4798 95.0077 64.3328 96.6391 64.0212C97.1401 63.8916 98.7906 59.0507 98.3064 57.1571Z" fill="#191919"/>
<path d="M100.606 114.79C99.711 112.806 98.184 110.735 96.1824 109.75C96.35 109.392 96.4455 109.004 96.4632 108.61C90.003 97.4449 83.9118 75.6595 83.7888 74.8519C83.9292 74.8519 84.0522 74.8669 84.1752 74.8693C86.283 74.9131 93.7608 74.1493 94.0932 72.3415C94.5132 70.0423 94.9512 67.6867 95.2872 65.3725C95.2977 65.3248 95.2896 65.2749 95.2646 65.233C95.2396 65.1911 95.1995 65.1602 95.1526 65.1468C95.1056 65.1333 95.0553 65.1383 95.0119 65.1606C94.9685 65.1829 94.9352 65.2209 94.9188 65.2669C94.2282 67.1869 93.5664 72.1477 93.2508 72.3943C93.0048 72.5869 86.8434 75.0451 79.9968 73.4827C79.9968 72.3769 80.0844 68.0935 80.5062 66.4081C80.5584 66.1975 80.2242 66.1795 80.1372 66.3553C79.4982 67.6507 79.365 71.3761 79.3296 72.0607C79.1015 71.728 78.7787 71.4715 78.4031 71.3244C78.0275 71.1773 77.6164 71.1464 77.223 71.2357C77.5386 66.9253 77.7588 56.3971 78.9084 55.7521C79.4364 55.4557 80.8938 58.7521 80.0322 64.6699C79.9614 65.1565 83.34 65.4049 85.8426 64.4767C86.2278 64.3339 85.9308 63.7405 85.5792 63.8623C83.2458 64.6741 81.2592 64.3891 80.4882 64.4419C81.015 62.4229 81.366 57.5779 79.9266 55.4887C80.3832 55.4185 82.6866 55.2871 83.3322 55.1203C83.3722 55.1088 83.4074 55.0845 83.4325 55.0513C83.4575 55.018 83.4711 54.9775 83.4711 54.9358C83.4711 54.8942 83.4575 54.8536 83.4325 54.8203C83.4074 54.7871 83.3722 54.7628 83.3322 54.7513C81.9122 54.5779 80.4742 54.6184 79.0662 54.8713C78.8571 54.8971 78.6641 54.9966 78.522 55.1521C77.5698 56.0785 77.1354 59.5759 77.118 59.7343C74.871 60.1027 70.7454 60.8047 66.1458 59.4181C65.9178 58.3825 63.5988 49.5877 63.3024 47.6581C62.7624 44.1289 63.1998 42.6217 64.215 39.6529C64.287 39.4429 63.972 39.3211 63.864 39.5125C62.4768 41.9725 62.271 44.8135 62.6178 47.5525C62.8662 49.5181 65.04 58.5925 65.4438 59.6473C65.1984 62.6143 64.9356 76.8337 65.0052 79.1863C65.1852 85.2427 65.2776 88.2607 65.8302 91.8961C66.366 95.4229 68.586 107.731 68.7792 110.048C68.7618 110.048 65.7288 111.601 64.2324 112.328C63.795 112.541 61.389 113.259 62.2662 114.136C62.6526 114.522 70.3428 113.889 72.2028 113.75C72.3003 113.749 72.3936 113.71 72.4626 113.641C72.5316 113.572 72.5706 113.479 72.5712 113.382C72.5802 112.591 72.5538 110.871 72.5184 110.836C72.5569 110.826 72.5929 110.808 72.624 110.783C72.9576 104.867 74.484 82.6777 74.8884 77.6749C77.5392 87.6631 91.302 109.01 92.3028 110.572C92.4352 110.657 92.576 110.727 92.7228 110.783C92.6915 110.849 92.6853 110.924 92.7054 110.994C93.0192 112.241 94.4598 113.436 95.4792 114.084C96.9283 114.996 98.6314 115.42 100.339 115.295C100.396 115.291 100.451 115.272 100.499 115.241C100.546 115.209 100.585 115.166 100.612 115.116C100.639 115.065 100.652 115.009 100.651 114.952C100.65 114.895 100.635 114.839 100.606 114.79ZM71.799 113.034C69.1302 113.21 63.039 113.701 62.9688 113.649C63.0612 113.718 68.9022 110.549 68.9022 110.366C69.2945 110.723 69.77 110.975 70.2851 111.101C70.8002 111.227 71.3386 111.222 71.8512 111.086C71.7985 111.734 71.7811 112.384 71.799 113.034ZM93.5316 111.016C94.3392 111.136 95.5332 111.103 96.0072 110.068C97.5699 111.307 98.8605 112.855 99.7986 114.615C98.5445 114.55 97.3233 114.191 96.2344 113.565C95.1454 112.94 94.2194 112.066 93.5316 111.016Z" fill="#191919"/>
<path d="M78.3996 43.3417C78.225 43.2169 77.9796 43.3921 78.0996 43.5697C78.8898 44.7343 79.7322 45.8341 80.487 47.0107C79.2762 48.5905 78.7104 53.0329 78.96 53.9623C79.0638 54.3487 79.5798 54.2263 79.6272 53.8741C79.6872 53.4361 79.8378 49.4857 80.8386 47.5549C82.752 49.9423 86.4858 60.9949 86.7894 61.7389C86.9178 62.0527 87.4848 62.0719 87.4566 61.6513C87.4068 60.8947 83.0076 46.6201 78.3996 43.3417Z" fill="#191919"/>
<path d="M45.9402 25.6987C43.3934 23.7739 40.7059 22.0428 37.9002 20.5201C37.5858 20.3761 37.1802 20.7865 37.4964 21.0469C40.052 22.8457 42.7266 24.4694 45.5016 25.9069C45.008 26.2365 44.4418 26.4414 43.8516 26.5039C43.4472 26.4523 42.3786 25.8757 42.1662 25.9597C42.097 25.9795 42.0358 26.0208 41.9916 26.0776C41.9474 26.1345 41.9224 26.2039 41.9202 26.2759C41.9916 26.9959 43.5876 27.2557 44.1144 27.2239C44.7642 27.1843 45.9402 26.7145 45.993 25.9423C46.001 25.9002 46.0004 25.8569 45.9913 25.8151C45.9822 25.7733 45.9649 25.7337 45.9402 25.6987Z" fill="#191919"/>
<path d="M41.376 25.2071C41.0015 24.6592 40.5022 24.2081 39.9192 23.8907C39.8552 23.875 39.788 23.8781 39.7256 23.8996C39.6633 23.9211 39.6084 23.9601 39.5677 24.0119C39.5269 24.0638 39.502 24.1262 39.4958 24.1919C39.4896 24.2576 39.5025 24.3236 39.5328 24.3821C39.9912 24.8636 40.5565 25.2305 41.1828 25.4531C41.2133 25.4543 41.2437 25.4482 41.2714 25.4354C41.2991 25.4226 41.3233 25.4034 41.3422 25.3794C41.361 25.3554 41.3739 25.3273 41.3798 25.2973C41.3857 25.2674 41.3844 25.2365 41.376 25.2071Z" fill="#191919"/>
<path d="M40.8144 26.3483C40.4416 25.7979 39.942 25.3452 39.3576 25.0283C39.2935 25.0125 39.2261 25.0155 39.1637 25.037C39.1012 25.0585 39.0463 25.0976 39.0055 25.1495C38.9648 25.2015 38.9398 25.2641 38.9337 25.3298C38.9276 25.3956 38.9406 25.4617 38.9712 25.5203C39.4298 26.0014 39.9949 26.368 40.6212 26.5907C40.6517 26.5931 40.6823 26.5879 40.7103 26.5757C40.7384 26.5635 40.763 26.5446 40.7821 26.5207C40.8011 26.4968 40.8141 26.4686 40.8197 26.4385C40.8253 26.4085 40.8235 26.3775 40.8144 26.3483Z" fill="#191919"/>
<path d="M43.6583 27.7877C43.2934 27.9488 42.9108 28.0666 42.5183 28.1387C42.1847 28.1387 40.2539 27.1187 39.3383 26.5937C39.2507 26.5061 39.0239 26.3153 38.7941 26.4737C38.3741 26.7587 38.8295 27.1763 38.9525 27.2813C39.7189 27.9218 40.6183 28.3835 41.5853 28.6331C42.3053 28.8503 43.4639 28.8617 43.8851 28.0889C43.9017 28.0538 43.9084 28.0148 43.9044 27.9762C43.9005 27.9376 43.886 27.9008 43.8627 27.8698C43.8394 27.8388 43.808 27.8148 43.772 27.8003C43.7359 27.7858 43.6967 27.7815 43.6583 27.7877Z" fill="#191919"/>
<path d="M73.7827 21.099C73.7149 20.9052 73.5355 20.6046 73.2733 20.6958C72.8329 20.8482 72.6967 21.5868 73.0627 21.8016C73.1616 21.8464 73.2719 21.8603 73.3789 21.8415C73.4859 21.8227 73.5848 21.7721 73.6626 21.6962C73.7404 21.6203 73.7934 21.5226 73.8149 21.4161C73.8363 21.3096 73.8251 21.199 73.7827 21.099Z" fill="#191919"/>
<path d="M86.931 64.1261C86.5974 65.0567 85.131 66.3983 84.807 66.8123C84.7523 66.8704 84.7201 66.946 84.7161 67.0257C84.7121 67.1054 84.7366 67.1838 84.7851 67.2471C84.8337 67.3104 84.9032 67.3543 84.9812 67.3711C85.0592 67.3878 85.1405 67.3763 85.2108 67.3385C85.755 67.0931 87.4998 64.7969 87.282 64.1789C87.2729 64.142 87.253 64.1086 87.2249 64.083C87.1968 64.0574 87.1618 64.0407 87.1242 64.0351C87.0866 64.0294 87.0481 64.0351 87.0138 64.0513C86.9794 64.0675 86.9506 64.0935 86.931 64.1261Z" fill="#191919"/>
<path d="M86.7558 66.9528C86.1213 67.8222 85.5521 68.7375 85.053 69.6912C84.9288 69.972 85.2072 70.3716 85.509 70.1478C85.9434 69.8256 87.1068 67.6722 87.069 67.0932C87.0712 67.056 87.062 67.0191 87.0427 66.9872C87.0233 66.9554 86.9948 66.9302 86.9608 66.915C86.9268 66.8998 86.889 66.8952 86.8524 66.902C86.8158 66.9087 86.7821 66.9264 86.7558 66.9528Z" fill="#191919"/>
<path d="M87.879 67.2C87.3105 68.1783 86.7948 69.1864 86.334 70.2198C86.1906 70.5696 86.667 70.7454 86.8962 70.5534C87.3162 70.2006 88.2918 67.8858 88.23 67.3056C88.23 67.2645 88.2168 67.2244 88.1922 67.1914C88.1677 67.1584 88.1332 67.1342 88.0938 67.1224C88.0544 67.1105 88.0122 67.1117 87.9736 67.1257C87.9349 67.1396 87.9017 67.1657 87.879 67.2Z" fill="#191919"/>
<path d="M88.9675 67.0578C88.5702 67.7655 88.2635 68.5205 88.0549 69.3048C88.0383 69.3757 88.0448 69.45 88.0733 69.5169C88.1018 69.5839 88.151 69.64 88.2135 69.6772C88.2761 69.7144 88.3489 69.7307 88.4213 69.7237C88.4938 69.7167 88.5621 69.6868 88.6165 69.6384C89.048 68.8845 89.2778 68.032 89.2837 67.1634C89.2303 67.023 89.0713 66.9336 88.9675 67.0578Z" fill="#191919"/>
<path d="M89.9154 66.7944C89.5505 67.4792 89.2844 68.2123 89.1252 68.9718C89.0928 69.288 89.4978 69.3798 89.7048 69.2172C90.0084 68.9772 90.4248 67.1808 90.2136 66.8298C90.2003 66.8033 90.1805 66.7804 90.1562 66.7633C90.1318 66.7462 90.1036 66.7355 90.0741 66.732C90.0445 66.7285 90.0146 66.7323 89.9869 66.7432C89.9592 66.7541 89.9347 66.7717 89.9154 66.7944Z" fill="#191919"/>
<path d="M71.1846 26.2429C71.6748 26.6827 73.509 27.1429 74.1336 25.7863C74.2224 25.5937 73.9266 25.3513 73.7826 25.5055C73.4758 25.7946 73.0898 25.9858 72.6739 26.0546C72.258 26.1234 71.831 26.0668 71.4474 25.8919C71.2398 25.7815 71.0082 26.0851 71.1846 26.2429Z" fill="#191919"/>
<path d="M71.5002 21.6438C71.3424 22.0638 70.7838 23.6238 70.8858 23.943C70.9354 24.0543 71.0119 24.1515 71.1086 24.2257C71.2052 24.2999 71.3188 24.3488 71.4391 24.368C71.5594 24.3871 71.6826 24.376 71.7975 24.3355C71.9124 24.2951 72.0154 24.2266 72.0972 24.1362C72.1205 24.111 72.1371 24.0803 72.1454 24.0469C72.1537 24.0136 72.1535 23.9787 72.1448 23.9454C72.136 23.9122 72.1191 23.8817 72.0955 23.8567C72.0718 23.8318 72.0423 23.8132 72.0096 23.8026C71.886 23.7696 71.6394 23.8026 71.553 23.7498C71.3928 23.6484 71.6586 22.293 71.8338 21.6786C71.904 21.4854 71.5704 21.4854 71.5002 21.6438Z" fill="#191919"/>
<path d="M73.08 20.0634C73.3254 20.118 74.22 20.5902 74.4672 20.6256C74.5155 20.6234 74.5624 20.6091 74.6038 20.5841C74.6452 20.5591 74.6796 20.5241 74.704 20.4824C74.7284 20.4406 74.742 20.3934 74.7435 20.3451C74.745 20.2968 74.7343 20.2488 74.7126 20.2056C74.4318 19.7142 73.6422 19.653 73.1328 19.644C73.0838 19.6487 73.0378 19.6699 73.0025 19.7042C72.9672 19.7385 72.9446 19.7838 72.9385 19.8326C72.9323 19.8814 72.943 19.9309 72.9687 19.9729C72.9944 20.0148 73.0337 20.0468 73.08 20.0634Z" fill="#191919"/>
<path d="M91.6199 52.5931C91.1471 47.6581 89.1846 43.1803 86.3538 39.1459C84.5658 36.5983 82.1754 33.9673 78.8573 33.7387C78.3524 32.7672 77.9749 31.7347 77.7342 30.6667C77.714 30.5922 77.667 30.5277 77.6022 30.4856C77.5375 30.4436 77.4595 30.4269 77.3831 30.4387C77.3183 29.3637 77.4798 28.2871 77.8571 27.2785C78.1557 27.3897 78.483 27.3964 78.7859 27.2975C79.0887 27.1987 79.3491 27.0002 79.5245 26.7343C79.0683 25.7777 78.9507 24.6945 79.1909 23.6623C79.5245 22.4689 80.3022 22.1185 80.4725 21.0469C80.7071 19.5733 79.4688 17.3005 76.6632 16.4269C76.0482 16.2361 74.2122 15.9133 73.2048 14.3551C72.9432 13.9507 72.4343 13.2613 71.9759 13.1263C70.5419 12.7063 69.8057 15.4783 69.8867 16.2865C69.9697 17.0588 70.2746 17.7904 70.7645 18.3931C69.6761 20.3941 69.4097 24.8365 69.6761 26.1331C70.0229 27.8191 71.1863 28.9591 72.7134 29.0293C72.5473 29.9085 72.1808 30.7376 71.6423 31.4521C71.6423 31.4167 71.5877 30.7633 71.0982 31.0321C70.3448 31.4374 69.5424 31.7442 68.7107 31.9447C68.6634 31.9572 68.619 31.979 68.58 32.0088C68.5411 32.0385 68.5085 32.0757 68.484 32.1182C68.4595 32.1606 68.4437 32.2075 68.4374 32.2561C68.4311 32.3047 68.4345 32.354 68.4473 32.4013C68.5522 32.7182 68.6754 33.0287 68.8163 33.3313C66.628 34.0463 64.4776 34.8726 62.3736 35.8069C61.3512 36.3121 60.2352 36.5997 59.096 36.6513C57.9569 36.7029 56.8194 36.5176 55.7556 36.1069C53.79 35.3119 48.2814 30.3103 46.8882 26.9101C46.8644 26.8682 46.8299 26.8333 46.7883 26.809C46.7467 26.7848 46.6993 26.772 46.6512 26.772C46.603 26.772 46.5556 26.7848 46.514 26.809C46.4724 26.8333 46.4379 26.8682 46.4142 26.9101C46.1029 27.591 45.535 28.1212 44.8344 28.3849C44.7884 28.4013 44.7503 28.4346 44.728 28.478C44.7057 28.5214 44.7008 28.5717 44.7142 28.6187C44.7277 28.6656 44.7585 28.7057 44.8004 28.7307C44.8424 28.7557 44.8923 28.7638 44.94 28.7533C45.6316 28.5917 46.2386 28.1788 46.6428 27.5947C48.7314 31.8607 53.4876 35.9197 55.455 36.7411C57.5649 37.5963 59.9237 37.6026 62.0382 36.7585C63.1638 36.3073 69.0077 33.8269 69.0251 33.7585C69.1451 34.0039 69.2699 34.2505 69.4109 34.4953C69.4406 34.5428 69.4805 34.583 69.5278 34.613C69.575 34.6431 69.6283 34.6622 69.6839 34.669C69.7394 34.6758 69.7958 34.67 69.8488 34.6522C69.9019 34.6344 69.9503 34.605 69.9905 34.5661C70.4273 34.1773 71.0105 33.7585 71.4473 33.2845C71.3604 34.0537 71.3203 34.8276 71.3273 35.6017C68.9393 42.1321 70.1273 49.8217 71.2392 52.3843C71.3237 52.5787 71.6771 52.5775 71.6429 52.3315C70.383 46.8714 70.401 41.1941 71.6957 35.7421C72.1322 35.1427 72.4974 34.4945 72.7841 33.8107C73.0121 34.5133 73.3242 35.1907 73.5563 35.8471C73.5769 35.9255 73.6222 35.9953 73.6855 36.0459C73.7489 36.0965 73.8269 36.1252 73.9079 36.1279C75.6704 36.0968 77.3734 35.4852 78.753 34.3879C81.4249 35.0985 83.7653 36.7187 85.371 38.9695C86.9014 41.168 88.2292 43.5007 89.3382 45.9391C92.202 51.8893 90.5634 61.1761 90.339 62.3353C90.0708 63.7213 87.9311 63.3085 87.159 63.0373C86.9651 62.9689 86.8098 63.2965 87.0186 63.3883C87.5148 63.6067 89.583 64.1083 90.4596 63.5641C90.8844 63.3001 92.1341 57.9781 91.6199 52.5931ZM69.7973 33.7741C69.6009 33.3797 69.425 32.9754 69.2705 32.5627C69.8645 32.3894 70.4407 32.1602 70.9913 31.8781C71.0261 32.1943 71.4473 32.4751 71.4653 32.4925C70.866 32.8601 70.307 33.2897 69.7973 33.7741ZM72.4655 32.6857C72.4307 32.7205 72.1499 33.4759 72.0095 33.8089C72.0139 33.4079 71.9736 33.0076 71.8895 32.6155C71.9069 32.5981 72.0095 32.3521 71.7839 32.3521C71.8197 32.3045 71.8405 32.2474 71.8437 32.188C71.8469 32.1286 71.8324 32.0696 71.8019 32.0185C72.7181 31.2453 73.3076 30.154 73.4519 28.9639C73.6794 28.9269 73.9029 28.8683 74.1191 28.7887C74.3111 28.7167 74.2949 28.4053 74.0663 28.4197C73.0139 28.4863 70.4568 28.5595 70.2215 25.2775C70.1537 24.0864 70.2602 22.8918 70.5378 21.7315C70.8048 20.5387 71.4155 18.3259 71.9423 17.8165C73.1168 17.7543 74.2715 18.1373 75.1761 18.889C76.0806 19.6407 76.6684 20.7059 76.8222 21.8719C77.0989 21.8501 77.3752 21.9188 77.6096 22.0675C77.844 22.2163 78.0237 22.4372 78.1217 22.6969C78.1547 22.8813 78.1489 23.0706 78.1046 23.2526C78.0603 23.4346 77.9786 23.6054 77.8646 23.754C77.7506 23.9027 77.6068 24.026 77.4425 24.1159C77.2782 24.2059 77.097 24.2607 76.9104 24.2767C76.9626 24.6805 77.2259 26.1553 77.2961 26.4187C76.6817 27.4543 76.6296 29.9647 76.8222 30.6667C75.5585 31.3165 74.2241 31.8067 72.9605 32.4397C72.7991 32.3167 72.5183 32.4751 72.4655 32.6857ZM74.1161 35.4067C73.7999 34.5667 73.5539 33.6667 73.1855 32.8435C74.566 32.4363 75.9014 31.8893 77.1707 31.2109C77.3987 32.1588 77.7343 33.0776 78.171 33.9493C76.9914 34.8221 75.5814 35.3289 74.1161 35.4067Z" fill="#191919"/>
</svg>
