<svg width="120" height="120" viewBox="0 0 120 120" fill="none" xmlns="http://www.w3.org/2000/svg">
<path d="M87.3 31.5127C87.2632 31.4775 87.219 31.451 87.1706 31.4351C87.1222 31.4191 87.0709 31.4143 87.0204 31.4208C86.9699 31.4273 86.9215 31.445 86.8787 31.4726C86.8359 31.5003 86.7999 31.5371 86.7732 31.5805C85.9404 33.0001 83.3058 39.0163 82.6332 40.5109C82.5961 40.5777 82.5863 40.6563 82.6057 40.7302C82.6252 40.8041 82.6724 40.8676 82.7376 40.9075C83.0136 41.0593 83.9886 41.7217 84.5556 42.1075C84.6076 42.1432 84.6667 42.1673 84.7289 42.1782C84.7911 42.1891 84.8548 42.1865 84.9159 42.1707C84.977 42.1548 85.034 42.126 85.083 42.0862C85.132 42.0464 85.1719 41.9966 85.2 41.9401C85.9254 40.4809 88.1682 35.9665 88.5138 35.2537C88.7274 34.8109 89.4804 33.1069 89.0994 32.7709C89.0622 32.7433 87.621 31.7635 87.3 31.5127Z" fill="#644DF6"/>
<path d="M64.1323 28.32C63.6481 28.1202 58.2955 33.4098 57.5059 33.2286C54.6415 32.5638 51.7121 32.2195 48.7717 32.202C48.7561 32.6322 52.7917 41.1132 53.3731 41.448C53.9545 41.7828 59.8428 42.7536 60.4248 42.5634C61.2408 42.2976 64.1568 39.3414 64.9681 38.5686C65.2626 38.28 64.6159 28.518 64.1323 28.32ZM59.8086 41.7522C59.3886 40.4868 58.9855 39.2268 58.6225 37.9422C58.1794 36.7294 57.8784 35.4694 57.7254 34.1874C57.7105 33.7674 58.2655 33.7674 58.3969 34.098C58.8883 35.3136 59.151 36.6654 59.5182 37.9254C59.9076 39.1492 60.1843 40.406 60.345 41.6802C60.3774 42.003 59.8992 42.0276 59.8086 41.7522Z" fill="#644DF6"/>
<path d="M32.6951 86.7677C31.0751 88.4219 32.1479 91.7867 33.1151 93.5825C37.7885 102.266 49.1027 107.411 58.2419 109.691C61.8691 110.702 65.6113 111.24 69.3761 111.292C72.9296 111.331 76.4284 110.416 79.5071 108.641C84.5585 105.542 83.2355 97.9247 79.9463 94.1561C79.3647 93.6056 78.8561 92.9827 78.4331 92.3027C78.7601 92.7269 78.8969 94.0961 78.1577 94.1897C77.7977 94.2359 75.3005 90.5057 75.1745 90.3227C74.9105 89.9381 68.1023 87.1763 67.6895 87.4709C67.2767 87.7655 67.3787 89.6405 67.3757 90.1535C67.3697 90.9803 68.0957 93.6965 68.2103 94.2665C68.4341 95.3663 67.4903 99.6989 65.6489 98.3195C64.2341 97.2605 63.9821 95.1545 63.9803 93.3875C63.9767 91.5725 64.2935 91.9763 64.1171 87.3959C63.9966 87.376 63.8833 87.3253 63.7881 87.2488C63.6928 87.1723 63.619 87.0725 63.5735 86.9592C63.5281 86.8458 63.5127 86.7226 63.5288 86.6015C63.5449 86.4804 63.5919 86.3655 63.6653 86.2679C62.4983 86.0651 61.3505 85.6871 60.1721 85.4615C59.6921 85.3697 55.0067 84.8297 54.9731 84.6719C55.0817 85.1909 54.8669 87.2927 54.1049 86.9213C53.9129 86.8271 53.4917 85.0853 53.4809 84.4043C51.1445 84.4781 48.7031 84.0929 46.3367 84.0479C44.2445 84.0083 42.1505 84.1727 40.0703 84.1727C39.1145 84.1727 39.0749 85.0301 38.8199 85.8425C38.4875 86.9009 36.2063 94.1189 35.2673 94.1513C34.6301 94.1729 34.7147 93.4859 34.7273 93.2861C34.8965 90.5018 35.2896 87.7357 35.9027 85.0145C34.7064 85.3283 33.6052 85.9302 32.6951 86.7677Z" fill="#644DF6"/>
<path d="M52.9308 27.0775C53.9766 28.2679 56.3058 29.0713 57.3918 27.4657C57.5826 27.1849 57.2718 26.8819 56.985 26.9377C56.4223 27.1251 55.8468 27.2719 55.263 27.3769C54.544 27.4198 53.8354 27.1887 53.28 26.7301C53.2339 26.6838 53.1714 26.6576 53.1061 26.6575C53.0407 26.6573 52.978 26.6831 52.9317 26.7292C52.8854 26.7752 52.8593 26.8378 52.8591 26.9031C52.859 26.9684 52.8847 27.0312 52.9308 27.0775Z" fill="#252525"/>
<path d="M54.8279 25.6757C54.9806 25.7567 55.1496 25.8021 55.3223 25.8083C55.4451 25.7955 55.5626 25.7523 55.6644 25.6825C55.7661 25.6127 55.8488 25.5186 55.9049 25.4087C56.3381 24.6035 55.3649 23.8019 54.9905 24.3023C54.9297 24.3798 54.8993 24.4769 54.9053 24.5752C54.9113 24.6735 54.9531 24.7662 55.0229 24.8357C55.3127 25.0709 55.0859 25.3157 54.8387 25.3349C54.6977 25.3469 54.6713 25.6001 54.8279 25.6757Z" fill="#252525"/>
<path d="M62.5128 32.8338C63.2226 33.4164 64.0308 33.1794 64.8726 33.1338C66.7926 33.0234 66.5766 34.8738 66.4506 36.2262C66.2262 38.6262 67.3464 40.8372 68.4906 42.8694C68.6994 43.2396 69.291 42.894 69.0606 42.5364C67.8654 40.6728 66.5946 38.7162 66.939 36.4326C67.0939 35.8344 67.1841 35.2212 67.2078 34.6038C67.2124 34.178 67.0869 33.761 66.848 33.4085C66.6091 33.056 66.2682 32.785 65.871 32.6316C64.8138 32.3058 63.7206 32.9316 62.6616 32.5806C62.52 32.5326 62.3946 32.7366 62.5128 32.8338Z" fill="#252525"/>
<path d="M62.193 34.275C62.9934 34.593 64.6404 35.1492 65.3658 34.4454C65.3949 34.4157 65.4169 34.3798 65.4302 34.3404C65.4434 34.3009 65.4475 34.259 65.4422 34.2178C65.4369 34.1765 65.4223 34.137 65.3995 34.1023C65.3767 34.0675 65.3463 34.0383 65.3106 34.017C64.7274 33.6852 64.1466 34.1052 62.316 33.8292C62.2582 33.8167 62.1978 33.8268 62.1472 33.8575C62.0966 33.8881 62.0596 33.937 62.0439 33.994C62.0281 34.051 62.0348 34.1119 62.0625 34.1641C62.0903 34.2164 62.1369 34.2561 62.193 34.275Z" fill="#252525"/>
<path d="M62.2392 35.3904C63.0396 35.745 64.5732 36.2904 65.2938 35.5332C65.3184 35.5083 65.337 35.4781 65.3482 35.445C65.3594 35.4118 65.3629 35.3766 65.3584 35.3419C65.354 35.3072 65.3417 35.274 65.3225 35.2447C65.3033 35.2155 65.2777 35.191 65.2476 35.1732C64.8528 35.0493 64.4329 35.0286 64.0278 35.1132C63.4796 35.1482 62.9293 35.1225 62.3868 35.0364C62.1918 35.0046 62.0244 35.295 62.2392 35.3904Z" fill="#252525"/>
<path d="M62.9568 36.7914C63.6216 37.0656 64.9278 37.5384 65.4438 36.7914C65.4679 36.7502 65.4776 36.7022 65.4715 36.6549C65.4655 36.6076 65.4439 36.5636 65.4102 36.5298C64.9194 36.1314 64.311 36.4668 63.0228 36.306C62.7234 36.2706 62.7264 36.6966 62.9568 36.7914Z" fill="#252525"/>
<path d="M63.6822 40.7723C63.5713 41.878 63.7463 42.9937 64.1904 44.0123C64.4856 44.7251 65.0616 46.0889 65.9238 46.2107C65.9642 46.2209 66.0064 46.2219 66.0473 46.2135C66.0881 46.2052 66.1266 46.1877 66.1598 46.1625C66.193 46.1372 66.2201 46.1049 66.239 46.0677C66.258 46.0306 66.2684 45.9896 66.2694 45.9479C66.2616 44.9189 64.983 44.9579 64.2012 40.6997C64.14 40.3835 63.714 40.4999 63.6822 40.7723Z" fill="#252525"/>
<path d="M53.6358 34.4838C53.0917 34.821 52.5089 35.0914 51.9 35.289C51.2846 35.4321 50.6877 35.6455 50.121 35.925C47.9586 37.14 48.1692 40.26 48 41.2518C47.3753 44.5995 46.4662 47.8878 45.2826 51.081C45.2088 51.2796 45.5226 51.4086 45.6222 51.2238C47.2622 48.1943 48.3786 44.9095 48.924 41.508C49.0806 40.5984 48.7068 38.2452 50.1144 37.068C51.1944 36.168 53.4642 36.2556 53.9412 34.7238C53.9522 34.6838 53.9512 34.6415 53.9382 34.602C53.9253 34.5626 53.9009 34.5279 53.8683 34.5023C53.8357 34.4767 53.7962 34.4612 53.7548 34.4579C53.7135 34.4547 53.6721 34.4637 53.6358 34.4838Z" fill="#252525"/>
<path d="M50.9364 37.6567C52.416 37.9303 54.3348 37.5001 54.828 35.8567C54.8405 35.8059 54.8379 35.7525 54.8205 35.7031C54.8031 35.6538 54.7717 35.6105 54.7301 35.5787C54.6886 35.5469 54.6386 35.5278 54.5864 35.5239C54.5343 35.52 54.482 35.5314 54.4362 35.5567C53.28 36.1957 52.29 37.0879 50.94 37.3201C50.9031 37.3299 50.8704 37.3515 50.8469 37.3817C50.8234 37.4118 50.8105 37.4488 50.8101 37.487C50.8097 37.5253 50.8218 37.5625 50.8446 37.5932C50.8674 37.6238 50.8997 37.6462 50.9364 37.6567Z" fill="#252525"/>
<path d="M51.7554 39.1009C52.7664 39.2209 54.1044 39.2173 54.7326 38.2651C54.7549 38.2263 54.7667 38.1824 54.7667 38.1377C54.7668 38.0929 54.7551 38.0489 54.7329 38.0101C54.7107 37.9713 54.6787 37.9389 54.6401 37.9163C54.6016 37.8937 54.5577 37.8815 54.513 37.8811C53.559 38.0011 52.7382 38.5951 51.753 38.6509C51.7234 38.6511 51.6942 38.657 51.667 38.6685C51.6397 38.6799 51.615 38.6967 51.5942 38.7177C51.5523 38.7601 51.5289 38.8174 51.5292 38.8771C51.5295 38.9368 51.5535 38.9939 51.5959 39.0359C51.6383 39.0778 51.6957 39.1012 51.7554 39.1009Z" fill="#252525"/>
<path d="M42.7506 50.1545C42.7242 51.125 42.9253 52.0881 43.3377 52.9669C43.7502 53.8457 44.3626 54.6158 45.126 55.2155C47.0718 56.7401 48.375 56.0741 50.0328 54.2825C53.2332 50.8259 52.104 46.6625 52.0458 45.3887C51.9918 44.2061 52.035 42.8831 51.5568 41.7767C51.462 41.5559 51.1758 41.7029 51.1548 41.8859C50.9208 43.8359 52.4796 50.2457 50.1114 52.8107C48.4122 54.6509 47.4492 55.7585 45.5958 54.3317C44.2817 53.2722 43.404 51.7656 43.1304 50.0999C43.0842 49.8827 42.7614 49.9469 42.7506 50.1545Z" fill="#252525"/>
<path d="M74.1768 41.4601C73.3968 39.0877 72.5742 36.6685 71.0028 34.6867C70.1342 33.484 68.9362 32.5582 67.5534 32.0209C67.8102 31.3804 68.0073 30.7176 68.142 30.0409C68.2904 28.7826 67.9967 27.512 67.3111 26.4466C66.6256 25.3811 65.5908 24.5873 64.3842 24.2011C65.397 21.1453 63.5754 17.2831 60.0816 17.2183C60.8238 15.4087 59.9952 13.1065 58.7316 11.6383C55.0878 7.39686 45.7626 9.82565 45.8316 15.5983C42.5826 15.9349 40.9182 20.0827 43.9878 23.4379C43.4714 23.6792 43.0111 24.0256 42.6363 24.4551C42.2615 24.8845 41.9805 25.3874 41.8112 25.9317C41.642 26.4759 41.5882 27.0496 41.6534 27.6158C41.7185 28.182 41.9011 28.7285 42.1896 29.2201C39.9066 29.7085 37.9848 31.5937 38.3676 34.1239C38.6796 36.1837 41.2356 37.8145 43.0926 36.8239C41.451 40.0687 42.6288 44.4751 41.5584 48.1717C41.5321 48.2697 41.5455 48.3742 41.5955 48.4625C41.6456 48.5509 41.7284 48.616 41.826 48.6438C43.0168 48.9263 44.2623 48.8753 45.426 48.4963C45.4951 48.4773 45.5538 48.4317 45.5892 48.3695C45.6247 48.3073 45.6339 48.2335 45.615 48.1645C45.5961 48.0954 45.5505 48.0367 45.4882 48.0012C45.426 47.9658 45.3523 47.9565 45.2832 47.9755C44.3219 48.1315 43.3417 48.1315 42.3804 47.9755C43.2378 43.6327 41.8626 38.7145 44.427 36.0103C45.3429 35.044 46.5748 34.4379 47.8992 34.3021C48.4218 34.2451 48.4308 33.4201 47.8992 33.4735C46.4288 33.6128 45.064 34.2978 44.0736 35.3935C42.9852 35.8999 39.474 37.3381 39.3294 33.6667C39.243 31.5385 41.1942 30.2083 43.1472 30.1465C43.2495 30.1437 43.3488 30.1113 43.4331 30.0533C43.5174 29.9953 43.5831 29.9141 43.6223 29.8195C43.6615 29.725 43.6724 29.6211 43.6538 29.5205C43.6351 29.4198 43.5878 29.3267 43.5174 29.2525C43.1244 28.8483 42.851 28.3432 42.7276 27.7932C42.6042 27.2432 42.6356 26.6697 42.8183 26.1365C43.0011 25.6032 43.3279 25.131 43.7627 24.7722C44.1975 24.4134 44.7231 24.1821 45.2814 24.1039C45.8814 24.0025 45.6786 23.1499 45.1458 23.1085C44.8458 23.0857 44.298 22.2529 44.1258 22.0195C42.5058 19.7947 43.5006 16.5037 46.3338 16.5379C46.4607 16.5365 46.5819 16.4854 46.6717 16.3957C46.7614 16.306 46.8124 16.1847 46.8138 16.0579C46.2606 10.6651 54.2538 8.86446 57.633 11.9617C59.6046 13.7677 60.2184 17.4613 57.693 18.1807C56.562 18.5017 55.3302 18.0607 54.1686 18.3085C52.6938 18.6235 50.346 20.4685 48.756 20.0785C48.131 19.9576 47.5431 19.6915 47.04 19.3015C46.8462 19.1005 46.4778 19.3681 46.644 19.6075C46.8407 19.9137 47.0987 20.1759 47.4016 20.3777C47.7046 20.5794 48.046 20.7163 48.4044 20.7799C48.2488 21.5918 48.3283 22.4313 48.6336 23.1997C48.1685 23.3577 47.7768 23.6795 47.5316 24.1051C47.2863 24.5306 47.2042 25.0309 47.3007 25.5125C47.3971 25.9942 47.6655 26.4243 48.0557 26.7226C48.4459 27.0209 48.9313 27.1671 49.4214 27.1339C49.7214 28.4107 50.6106 30.0301 51.9978 30.0457C52.0481 30.044 52.0969 30.0279 52.1383 29.9992C52.1797 29.9706 52.212 29.9306 52.2313 29.8841C52.2506 29.8376 52.2561 29.7865 52.2472 29.7369C52.2382 29.6874 52.2152 29.6415 52.1808 29.6047C51.8256 29.1649 51.3084 28.8811 50.9502 28.4341C50.5417 27.9258 50.2845 27.3128 50.208 26.6653C50.2065 26.5987 50.19 26.5333 50.1598 26.474C50.1295 26.4146 50.0863 26.3629 50.0334 26.3225C49.9804 26.2822 49.919 26.2543 49.8538 26.2409C49.7886 26.2275 49.7212 26.229 49.6566 26.2453C47.985 26.6095 47.601 24.1747 49.305 23.8981C49.367 23.88 49.4242 23.8481 49.4722 23.8049C49.5202 23.7616 49.5577 23.708 49.5821 23.6482C49.6064 23.5884 49.6169 23.5238 49.6128 23.4593C49.6087 23.3948 49.59 23.3321 49.5582 23.2759C49.2747 22.7283 49.1198 22.1234 49.1052 21.5071C49.1057 21.2787 49.1189 21.0505 49.1448 20.8237C50.5968 20.7607 52.2048 19.9159 53.442 19.4689C55.5108 18.7189 56.454 19.5043 57.9486 19.1047C58.3655 18.9918 58.7552 18.7954 59.094 18.5275C59.4042 19.7275 59.7852 20.9191 60.036 22.1371C60.0544 22.2048 60.0901 22.2665 60.1397 22.3162C60.1892 22.3658 60.2509 22.4017 60.3186 22.4203C61.5606 22.7425 61.6188 24.5737 60.222 24.7003C60.1145 24.7031 60.0123 24.7471 59.9363 24.8231C59.8602 24.8991 59.8163 25.0014 59.8134 25.1089C59.9137 26.3762 59.7045 27.6489 59.2038 28.8175C58.521 30.1771 57.2904 30.5521 55.9038 30.8227C55.5792 30.8827 55.5642 31.4431 55.9038 31.4941C58.1706 31.8337 60.6744 29.6515 60.6372 25.4341C61.0577 25.3445 61.4362 25.1166 61.712 24.7868C61.9879 24.457 62.1453 24.0442 62.1591 23.6144C62.1729 23.1847 62.0424 22.7627 61.7882 22.4158C61.5341 22.069 61.1711 21.8172 60.7572 21.7009C60.4681 20.5072 59.9814 19.3703 59.3172 18.3373C59.5437 18.1222 59.7381 17.8757 59.8944 17.6053C62.691 18.5587 64.62 21.2935 63.3618 24.2557C63.3269 24.3185 63.3066 24.3883 63.3024 24.4601C63.2981 24.5318 63.31 24.6036 63.3372 24.6701C63.3644 24.7366 63.4062 24.7961 63.4594 24.8444C63.5127 24.8926 63.5761 24.9282 63.645 24.9487C64.707 25.2183 65.6363 25.8618 66.2625 26.761C66.8886 27.6602 67.1697 28.755 67.0542 29.8447C66.9942 30.4705 66.5916 31.1491 66.6606 31.7683C66.3235 31.7016 65.9806 31.6696 65.637 31.6729C65.6018 31.6736 65.568 31.6869 65.5417 31.7104C65.5154 31.7339 65.4985 31.7661 65.4938 31.801C65.4892 31.8359 65.4972 31.8714 65.5164 31.9009C65.5356 31.9304 65.5648 31.9521 65.5986 31.9621C67.6059 32.5307 69.3613 33.7627 70.5786 35.4571C71.7494 37.2681 72.6395 39.2459 73.2186 41.3233C71.5794 41.9233 71.0472 41.6899 70.152 41.9665C70.0906 41.9853 70.0369 42.0233 69.9987 42.0749C69.9606 42.1266 69.94 42.1891 69.94 42.2533C69.94 42.3174 69.9606 42.38 69.9987 42.4316C70.0369 42.4832 70.0906 42.5212 70.152 42.5401C70.725 42.7053 71.3301 42.7259 71.913 42.6001C71.967 43.1974 71.9412 43.7993 71.8362 44.3899C71.8191 44.452 71.8274 44.5184 71.8592 44.5744C71.891 44.6305 71.9439 44.6715 72.006 44.6887C72.0681 44.7058 72.1345 44.6975 72.1906 44.6656C72.2466 44.6338 72.2877 44.581 72.3048 44.5189C72.4832 43.8297 72.607 43.1275 72.675 42.4189C72.675 42.4189 73.515 42.1411 73.875 41.9917C73.9845 41.9596 74.0772 41.8862 74.1336 41.787C74.1899 41.6878 74.2054 41.5705 74.1768 41.4601Z" fill="#252525"/>
<path d="M92.1828 79.7555C91.6043 79.6668 91.0313 79.5448 90.4668 79.3901C85.6356 78.0815 82.3134 76.7909 81.1272 71.9741C81.1139 71.9239 81.0826 71.8803 81.0394 71.8514C80.9962 71.8226 80.9439 71.8105 80.8924 71.8174C80.8409 71.8243 80.7937 71.8498 80.7596 71.889C80.7255 71.9283 80.7069 71.9786 80.7072 72.0305C80.736 76.9103 87.0672 79.1519 87.1302 79.2305C87.8616 80.1113 85.3866 79.9709 85.1502 79.9607C82.8148 79.9387 80.553 79.1413 78.72 77.6939C78.9162 76.3109 78.0078 73.0919 76.8564 71.7953C76.7472 71.6753 76.5642 71.8049 76.5948 71.9477C76.7526 72.6617 78.099 76.5395 77.6964 77.3837C76.758 79.3685 77.4816 82.4459 77.4816 82.4459C77.4816 82.4459 78.5952 83.0357 81.5802 83.0969C84.9192 83.1647 90.195 82.6931 90.7602 82.4567C91.4634 82.1567 92.8644 81.5531 92.9616 80.6567C92.9724 80.5459 92.9606 80.434 92.9268 80.3279C92.8931 80.2217 92.8381 80.1236 92.7653 80.0393C92.6925 79.955 92.6033 79.8864 92.5032 79.8377C92.4031 79.7889 92.2941 79.7609 92.1828 79.7555Z" fill="#252525"/>
<path d="M40.623 59.5453C45.4404 66.8407 55.4496 70.5139 62.2668 68.9653C62.3303 68.9457 62.3848 68.9042 62.4207 68.8482C62.4565 68.7922 62.4713 68.7254 62.4624 68.6595C62.4536 68.5936 62.4216 68.533 62.3723 68.4885C62.323 68.444 62.2595 68.4184 62.193 68.4163C58.1202 68.4223 54.195 68.0563 50.4096 66.4363C46.7421 64.8277 43.5023 62.3824 40.95 59.2963C40.8 59.1145 40.494 59.3497 40.623 59.5453Z" fill="#252525"/>
<path d="M61.8798 76.2234C58.1172 77.7432 54.3348 78.654 50.2524 78.195C38.3208 76.8504 30.1326 64.902 32.8368 53.3598C33.2964 51.2233 34.1954 49.2057 35.4768 47.4354C36.8984 45.6556 38.7987 44.3188 40.9542 43.5822C41.232 43.473 41.229 42.9924 40.8774 43.017C34.779 43.437 29.3928 53.0154 31.8372 63.3108C32.5137 66.0592 33.7335 68.6444 35.4245 70.914C37.1156 73.1837 39.2438 75.092 41.6838 76.5264C41.6652 76.563 40.8774 78.588 40.6434 79.2378C35.22 94.38 35.52 94.2054 35.2272 94.0038C35.0598 93.8868 35.3118 92.844 35.3316 92.6778C36.582 82.4532 38.1126 78.528 38.5842 74.9574C38.61 74.7642 38.2842 74.6778 38.2092 74.856C36.5526 78.7416 35.0052 88.1256 34.479 92.3844C34.4004 93.0252 34.155 93.8976 34.4694 94.5156C34.5228 94.6313 34.6002 94.7343 34.6966 94.8177C34.7929 94.9011 34.906 94.9629 35.0281 94.9991C35.1503 95.0353 35.2788 95.0449 35.405 95.0275C35.5312 95.01 35.6523 94.9658 35.76 94.8978C36.3432 94.5348 35.9856 94.9692 41.019 81.0108C41.3742 80.0262 42.3222 77.001 42.3222 77.001C44.2202 77.8185 46.1742 78.4992 48.1692 79.038C49.7127 79.3479 51.284 79.4979 52.8582 79.4856C52.8612 81.1416 52.8876 82.7808 53.0088 84.4356C53.0766 85.3572 52.9752 88.0872 54.5634 87.7554C55.1952 87.6234 55.2834 86.9886 55.3182 86.4498C55.3704 85.6386 55.518 79.9278 55.3182 79.3272C57.7557 79.0619 60.1104 78.2882 62.2302 77.0562C62.6556 76.8 62.376 76.0236 61.8798 76.2234ZM54.4398 86.5386C54.4074 87.0426 54.087 86.6436 54.0258 86.3796C53.9058 85.8528 53.8272 84.3864 53.2074 79.4796C53.6838 79.4688 54.1596 79.4416 54.6348 79.398C54.4716 80.0928 54.6216 83.778 54.441 86.5386H54.4398Z" fill="#252525"/>
<path d="M78.5874 92.1096C77.7738 89.9496 72.738 78.6696 71.6532 76.6554C72.2268 74.7522 72.4698 74.3418 73.218 71.5146C73.4028 70.8204 73.818 69.78 73.5948 69.0348C73.1186 67.6346 72.3844 66.336 71.43 65.2062C69.603 62.8524 69.1602 61.1964 68.589 61.146C68.0388 61.098 63.8526 64.311 63.4224 65.0376C63.0444 65.6748 63.1224 85.2066 62.9754 87.0918C62.952 87.3918 63.6666 87.6918 63.7944 87.774C63.6586 88.7863 63.67 89.813 63.828 90.822C63.0033 92.9851 63.0528 95.3842 63.966 97.5114C64.3516 98.4159 64.8644 99.2606 65.4888 100.02C65.9688 100.6 66.7746 101.611 67.5954 101.696C68.3646 101.776 68.7456 101.072 68.9592 100.457C70.4496 96.1668 67.6086 91.1184 67.6086 91.1184C67.6086 91.1184 67.821 88.533 67.818 88.0338C68.1441 87.9246 68.4568 87.7791 68.7504 87.6C69.0078 87.441 69.5904 84.441 70.4472 81.0876C72.0631 85.6268 74.1846 89.9698 76.7718 94.0344C77.202 94.683 78.1236 95.4876 78.8244 94.6554C79.4298 93.936 78.8628 92.8392 78.5874 92.1096ZM67.443 95.1882C67.3624 95.6084 67.2435 96.0203 67.0878 96.4188C66.7098 97.3788 66.5688 97.116 66.0372 96.5832C65.4249 95.9663 64.9381 95.2364 64.6038 94.434C64.3116 93.7302 64.4028 91.6206 64.4238 91.515C64.666 90.407 64.7267 89.267 64.6038 88.1394C65.4055 88.3686 66.2508 88.4003 67.0674 88.2318C66.8642 89.4279 66.8719 90.6504 67.0902 91.8438C67.4063 92.9287 67.5258 94.0613 67.443 95.1882ZM78.15 93.858C77.8548 94.2234 77.208 92.985 77.079 92.778C75.3594 90.0306 72.0774 83.556 70.5852 80.5494C70.8774 79.413 71.115 78.5316 71.3148 77.8206C71.679 78.7278 72.2988 79.839 72.5712 80.4222C74.871 85.3602 78.3 93.6738 78.15 93.858Z" fill="#252525"/>
<path d="M97.7508 17.3844C97.4862 17.1018 96.933 17.1828 96.5844 17.1678C96.036 17.1432 89.7186 17.1756 88.6524 17.2458C87.9822 17.2908 86.154 17.4258 86.1648 17.7084C86.1738 17.9406 86.5152 20.2098 86.658 20.9592C90.3318 20.8686 97.4478 20.8392 98.0622 20.5392C98.694 20.2326 97.7862 17.4222 97.7508 17.3844Z" fill="#644DF6"/>
<path d="M114.127 72.8851C113.677 71.8357 113.587 71.8435 112.52 71.7607C110.826 71.6842 109.128 71.7231 107.439 71.8771C106.503 71.9431 99.1981 72.2539 99.1873 72.1675C99.2846 73.2067 99.4342 74.2404 99.6355 75.2647C99.6697 75.4159 99.9217 76.9087 100.064 76.9087C103.297 76.8811 111.313 76.4203 112.093 76.3543C112.732 76.3003 113.353 76.3621 113.866 75.9301C114.675 75.2527 114.534 73.8349 114.127 72.8851Z" fill="#644DF6"/>
<path d="M116.666 78.9169C115.121 76.0693 108.584 77.0071 105.055 77.2483C101.956 77.4607 98.8704 77.6863 95.8008 78.1333C95.6412 78.1567 95.6808 78.4117 95.838 78.4099C96.2484 78.4099 96.6582 78.3991 97.0686 78.3913C97.7349 78.7778 98.3102 79.3033 98.7552 79.9321C98.9329 80.1364 99.0405 80.3923 99.0621 80.6623C99.0837 80.9323 99.0182 81.2021 98.8752 81.4321C98.6926 81.7985 98.4657 82.141 98.1996 82.4521C97.1508 82.5321 96.1028 82.6251 95.0556 82.7311C94.5642 82.7815 94.56 83.5561 95.0556 83.5057C95.6028 83.4487 96.15 83.3977 96.6966 83.3485C97.0925 84.6438 97.1968 86.0107 97.002 87.3511C96.5736 87.3769 96.1464 87.4045 95.718 87.4339C95.675 87.4339 95.6338 87.4509 95.6034 87.4813C95.573 87.5117 95.556 87.5529 95.556 87.5959C95.556 87.6388 95.573 87.68 95.6034 87.7104C95.6338 87.7408 95.675 87.7579 95.718 87.7579C98.9934 87.7885 112.801 87.7579 113.898 87.3937C115.845 86.7511 116.366 83.8999 114.022 82.5241C114.908 82.5245 115.767 82.215 116.449 81.6493C116.765 81.2735 116.957 80.808 116.996 80.3179C117.035 79.8279 116.919 79.338 116.666 78.9169ZM114.644 84.1969C114.78 84.4814 114.841 84.7955 114.823 85.1101C114.805 85.4247 114.708 85.7297 114.541 85.9969C113.657 87.4099 112.766 86.4367 97.548 87.3169C97.9026 86.8969 98.1012 84.9055 97.1406 83.3053C100.363 83.0311 107.891 82.6243 111.17 82.6627C112.56 82.6963 114.026 82.9471 114.644 84.1993V84.1969ZM115.738 80.9335C114.646 82.2481 109.508 81.6625 99.0996 82.3849C99.3642 82.0818 99.5741 81.7351 99.72 81.3601C99.8557 81.0182 99.8859 80.6435 99.8069 80.2842C99.7279 79.9249 99.5432 79.5975 99.2766 79.3441C99.0018 78.9849 98.693 78.6532 98.3544 78.3535C105.61 78.1135 111.31 77.2231 114.283 78.2887C115.216 78.6253 116.654 79.8355 115.74 80.9359L115.738 80.9335Z" fill="#252525"/>
<path d="M114.526 70.6039C114.195 69.5475 114.005 68.4517 113.963 67.3453C113.962 67.2438 113.921 67.1468 113.85 67.0749C113.778 67.0031 113.681 66.9621 113.579 66.9607C107.645 67.1821 101.759 67.7407 95.8794 68.5207C95.709 68.5441 95.6994 68.8069 95.8794 68.7973C96.1638 68.7823 96.4483 68.7637 96.7309 68.7469C96.7171 69.6925 96.7477 69.9985 96.7555 71.4571C96.4513 71.4473 96.1468 71.4688 95.847 71.5213C95.6724 71.5693 95.7444 71.7013 95.7474 71.7487C95.7534 71.8627 113.337 71.1805 114.071 71.2021C114.144 71.2005 114.215 71.1827 114.279 71.1499C114.343 71.1171 114.399 71.0702 114.443 71.0127C114.487 70.9552 114.517 70.8886 114.531 70.8178C114.546 70.747 114.544 70.6739 114.526 70.6039Z" fill="#644DF6"/>
<path d="M29.0526 83.8117C29.0328 83.6101 23.7048 83.2819 22.6506 83.2081C20.5794 83.0635 18.4074 82.7881 16.3236 82.7881C16.1436 82.7881 15.477 85.3603 14.832 86.5711C14.3144 87.5324 13.6838 88.4283 12.9534 89.2399C12.528 89.8471 12.4332 89.6599 12.4488 90.2257C12.5659 91.3368 12.4431 92.4601 12.0888 93.5197C11.7295 94.7849 11.1774 95.9872 10.452 97.0843C10.4412 97.0843 10.2816 97.3957 10.4814 97.4281C12.0774 97.6861 21.594 98.1247 23.3574 98.0701C24.0504 98.0491 25.6698 95.4157 26.0232 94.1017C26.358 92.8549 26.5632 91.1017 25.9554 89.8831C27.1524 88.6705 29.1552 84.8401 29.0526 83.8117ZM15.4698 86.9443C15.9942 85.7954 16.3964 84.5946 16.6698 83.3617C18.5484 83.8099 27.4608 84.4249 28.3428 84.3817C27.6065 86.3447 26.5602 88.1769 25.2438 89.8087C24.189 89.7229 22.9266 90.0259 19.4658 89.9599C17.4894 89.9197 15.5112 89.6323 13.539 89.5717C14.2915 88.7814 14.9403 87.8985 15.4698 86.9443ZM25.545 91.8133C25.4886 95.0533 23.9616 96.5227 23.4876 97.3333C23.4774 97.3333 12.9948 96.9289 11.0268 97.0429C12.4178 95.5575 13.2158 93.6136 13.2696 91.5793C13.3212 91.1292 13.3089 90.6741 13.233 90.2275C16.5624 91.1875 23.8848 91.0549 25.455 90.5527C25.5075 90.971 25.5375 91.3918 25.545 91.8133Z" fill="#252525"/>
<path d="M17.8158 88.0242C18.7818 86.7384 19.5888 86.0082 19.7208 85.2642C19.7652 85.017 19.5042 84.7338 19.2534 84.9042C18.588 85.3578 18.1956 86.4912 17.4636 87.8184C17.4376 87.865 17.4309 87.92 17.4449 87.9715C17.459 88.023 17.4927 88.067 17.5388 88.0939C17.5849 88.1209 17.6398 88.1286 17.6916 88.1156C17.7433 88.1026 17.788 88.0697 17.8158 88.0242Z" fill="#252525"/>
<path d="M20.04 87.7663C20.5926 86.8873 21.372 85.9951 21.498 84.9463C21.5208 84.7513 21.2688 84.7063 21.1494 84.8017C20.3628 85.4533 20.034 86.6071 19.608 87.5167C19.5807 87.5735 19.5759 87.6385 19.5945 87.6988C19.6132 87.759 19.6538 87.8099 19.7084 87.8415C19.763 87.873 19.8275 87.8828 19.8889 87.8688C19.9504 87.8549 20.0043 87.8183 20.04 87.7663Z" fill="#252525"/>
<path d="M21.8796 87.6601C22.1856 87.2215 22.6554 86.7001 22.569 86.1283C22.5414 85.9483 22.3158 85.9039 22.182 85.9705C21.6888 86.2147 21.5262 86.9629 21.3522 87.4375C21.2358 87.7651 21.7038 87.9121 21.8796 87.6601Z" fill="#252525"/>
<path d="M98.7936 29.3833C98.4264 29.1685 96.2094 29.4601 95.8962 29.7151C95.853 29.7505 96.5562 32.8309 96.6288 33.7141C96.6996 34.6087 97.5936 41.5897 97.806 41.7355C98.0184 41.8813 100.467 41.8813 100.766 41.4955C101.066 41.1097 98.8938 29.4415 98.7936 29.3833Z" fill="#644DF6"/>
<path d="M80.8721 21.099C80.9705 20.844 79.4969 9.93897 79.2203 9.78417C79.0815 9.71979 78.9292 9.69013 78.7764 9.69777C77.6939 9.63834 76.6087 9.64756 75.5273 9.72537C75.4424 9.78316 75.379 9.8676 75.3473 9.96537C75.3251 11.0742 76.1783 19.8654 76.5221 21.0732C76.6499 21.519 78.8022 21.3654 80.0436 21.2424C80.6034 21.1902 80.8013 21.2358 80.8721 21.099Z" fill="#644DF6"/>
<path d="M26.4468 19.4999C26.1744 18.9113 21.4152 8.68732 21.369 8.70412C20.3658 9.06952 19.6026 9.33112 18.6036 9.70912C18.816 10.9799 22.92 20.5949 23.0562 21.2999C23.1066 21.5579 26.0766 20.1353 26.3118 20.0243C26.3974 19.971 26.4592 19.8868 26.4843 19.7891C26.5094 19.6915 26.496 19.5879 26.4468 19.4999Z" fill="#644DF6"/>
<path d="M40.5109 12.7585C38.5261 12.6871 36.4975 12.9211 34.5157 13.0351C32.5183 13.1503 30.5155 13.2361 28.5211 13.3951C28.4776 13.396 28.4348 13.4068 28.3961 13.4265C28.3573 13.4462 28.3234 13.4744 28.297 13.509C28.2707 13.5435 28.2524 13.5836 28.2436 13.6262C28.2348 13.6688 28.2357 13.7129 28.2463 13.7551C28.4963 14.8974 28.6403 16.0603 28.6765 17.2291C28.1419 17.2291 27.6073 17.2243 27.0739 17.2165C26.9852 17.2202 26.9015 17.258 26.8401 17.322C26.7787 17.386 26.7444 17.4713 26.7444 17.56C26.7444 17.6487 26.7787 17.7339 26.8401 17.7979C26.9015 17.862 26.9852 17.8998 27.0739 17.9035C27.3643 17.9083 27.6547 17.9095 27.9433 17.9125C28.1994 18.4315 28.3121 19.0095 28.27 19.5867C28.2278 20.1639 28.0321 20.7194 27.7033 21.1957C27.6631 21.2557 23.0899 21.3157 18.9835 21.5149C19.9261 21.1549 20.8885 20.8549 21.8089 20.4307C21.8806 20.3867 21.9325 20.3165 21.9534 20.235C21.9744 20.1535 21.9628 20.067 21.9211 19.9939C21.5563 19.3993 20.0863 15.7459 19.6315 14.5771C19.1833 13.4233 18.1105 10.2709 18.0049 9.85567C17.9707 9.72367 17.7817 8.70067 17.4715 8.78827C16.2235 9.14227 14.4715 9.39847 13.2835 10.0579C13.1679 9.76507 13.0573 9.47087 12.9517 9.17527C12.9344 9.11534 12.9038 9.0601 12.8621 9.01372C12.8204 8.96735 12.7687 8.93103 12.7109 8.90752C12.6532 8.88401 12.5908 8.87392 12.5286 8.878C12.4664 8.88207 12.4059 8.90022 12.3517 8.93107C11.2597 9.61427 10.0972 10.1775 8.88426 10.6111C8.84192 10.6241 8.80558 10.6518 8.7817 10.6891C8.75783 10.7264 8.74796 10.771 8.75387 10.8149C8.75977 10.8588 8.78106 10.8992 8.81394 10.9289C8.84682 10.9586 8.88917 10.9757 8.93346 10.9771C10.1766 10.9664 11.3876 10.5808 12.4081 9.87067C13.3363 11.6269 14.0881 13.4935 14.9095 15.2989C17.2495 20.4541 17.1085 20.3389 17.6569 21.0829C17.677 21.1265 17.7133 21.1607 17.7581 21.1781C17.8029 21.1956 17.8528 21.195 17.8972 21.1766C17.9416 21.1581 17.9771 21.1231 17.9963 21.0791C18.0154 21.035 18.0168 20.9851 18.0001 20.9401C17.8243 20.1181 17.6797 19.9393 15.5833 15.2275C14.9173 13.7275 14.1877 12.2389 13.5541 10.7179C14.7541 10.6507 16.0687 10.0381 17.1949 9.65227C17.4217 10.7323 20.6479 18.9889 21.1969 20.0083C20.3665 20.3839 18.8203 21.1003 17.8855 21.5737C15.8569 21.7051 16.7611 21.7867 11.3029 22.0033C11.2472 22.0033 11.1937 22.0254 11.1544 22.0648C11.115 22.1042 11.0929 22.1576 11.0929 22.2133C11.0929 22.269 11.115 22.3224 11.1544 22.3618C11.1937 22.4011 11.2472 22.4233 11.3029 22.4233C16.4233 22.3747 34.7629 22.0759 35.3743 22.0633C35.9605 22.1383 36.5561 22.0574 37.1011 21.8287C37.1573 21.7947 37.2039 21.7468 37.2362 21.6895C37.2685 21.6323 37.2855 21.5677 37.2855 21.502C37.2855 21.4362 37.2685 21.3716 37.2362 21.3144C37.2039 21.2572 37.1573 21.2092 37.1011 21.1753C36.6021 20.9756 36.0575 20.9183 35.5279 21.0097C32.7817 21.0793 30.4597 21.1411 28.4899 21.1957C28.7697 20.6888 28.904 20.1145 28.8777 19.5361C28.8514 18.9577 28.6657 18.3979 28.3411 17.9185C29.9389 17.9305 37.1443 17.8819 37.6621 17.8753C38.0557 17.9215 38.4545 17.8638 38.8189 17.7079C38.8438 17.6926 38.8644 17.6711 38.8787 17.6456C38.893 17.6201 38.9005 17.5913 38.9005 17.5621C38.9005 17.5328 38.893 17.504 38.8787 17.4785C38.8644 17.453 38.8438 17.4316 38.8189 17.4163C38.3215 17.1019 37.9189 17.2315 29.0323 17.2315C29.0699 16.1375 29.0096 15.0423 28.8523 13.9591C30.7417 13.9207 32.6323 13.8253 34.5199 13.7533C36.5029 13.6783 38.5465 13.7167 40.5145 13.4587C40.5604 13.4584 40.6059 13.4491 40.6483 13.4313C40.6907 13.4135 40.7291 13.3875 40.7615 13.3549C40.7938 13.3222 40.8194 13.2835 40.8368 13.2409C40.8542 13.1983 40.863 13.1527 40.8628 13.1068C40.8625 13.0608 40.8532 13.0153 40.8354 12.9729C40.8176 12.9305 40.7916 12.8921 40.7589 12.8597C40.7263 12.8274 40.6875 12.8018 40.645 12.7844C40.6024 12.7671 40.5568 12.7582 40.5109 12.7585Z" fill="#252525"/>
<path d="M25.9092 29.8799C25.8216 29.5199 22.3434 30.0599 22.2942 30.1199C22.0704 30.3851 22.3308 40.1459 22.3848 40.8791C22.4034 41.1125 22.3584 41.6075 22.5798 41.7455C23.6014 41.7934 24.625 41.7816 25.6452 41.7101C25.9398 41.5847 25.9452 39.8117 25.9452 39.3797C25.9446 38.5445 26.0904 30.6263 25.9092 29.8799Z" fill="#644DF6"/>
<path d="M17.1809 30.7614C16.4063 30.4956 15.1301 30.2592 14.3525 29.9964C14.2767 29.9762 14.1959 29.9866 14.1276 30.0253C14.0593 30.064 14.0088 30.1279 13.9871 30.2034C13.7027 31.8414 11.2139 40.7784 11.2001 41.1468C11.1833 41.5806 14.1455 42.3822 14.3909 42.2562C14.7995 42.0474 16.7849 32.697 17.4131 31.1682C17.4353 31.0835 17.4234 30.9935 17.38 30.9174C17.3366 30.8414 17.2652 30.7854 17.1809 30.7614Z" fill="#644DF6"/>
<path d="M23.3099 76.7628C22.9739 76.7472 22.6371 76.7352 22.2995 76.7268C21.8396 76.4328 21.4635 76.0251 21.2075 75.543C20.7875 74.6286 21.2477 73.611 21.6401 72.7614L22.1939 72.7374C22.6829 72.7158 22.6841 71.9514 22.1939 71.9754L20.9339 72.0354C20.6789 70.5024 20.3489 68.9724 20.1209 67.4382C20.1031 67.3744 20.0649 67.3181 20.0121 67.2779C19.9594 67.2378 19.895 67.2159 19.8287 67.2156L19.6553 67.2282C19.1753 66.684 17.3831 65.8896 18.6719 63.5544C18.9329 63.537 19.1927 63.522 19.4519 63.5052C19.8467 63.4806 19.8503 62.8614 19.4519 62.8878C16.8989 63.0474 9.34314 63.5172 8.11674 63.5988C6.93414 63.6774 4.30254 63.6204 4.12674 63.7188C3.22674 64.2072 2.83194 65.7774 3.06354 66.7236C3.16319 67.0795 3.34558 67.4068 3.59585 67.6787C3.84611 67.9507 4.15714 68.1596 4.50354 68.2884C4.73407 68.3283 4.96862 68.3398 5.20194 68.3226C5.18814 68.3658 6.34974 69.855 6.34194 70.8486C6.28696 71.5069 6.07793 72.143 5.73175 72.7056L4.21914 72.774C4.11192 72.7748 4.0093 72.8177 3.93342 72.8934C3.85754 72.9692 3.81449 73.0718 3.81354 73.179C3.94374 74.5194 3.60894 77.721 4.70154 77.784C7.77834 77.964 10.9265 77.853 14.0051 77.8194C17.0837 77.7858 20.2325 77.916 23.3099 77.6994C23.4341 77.6994 23.5533 77.65 23.6411 77.5622C23.7289 77.4744 23.7782 77.3553 23.7782 77.2311C23.7782 77.1069 23.7289 76.9878 23.6411 76.8999C23.5533 76.8121 23.4341 76.7628 23.3099 76.7628ZM4.93314 67.7094C3.03474 66.4884 4.27314 65.3136 4.49214 64.3338C5.48394 64.4328 4.66495 64.434 17.9783 63.5994C17.6187 64.1862 17.4807 64.8823 17.5893 65.562C17.6979 66.2416 18.0459 66.86 18.5705 67.3056C14.2409 67.6056 9.91135 67.7778 5.57575 67.9752C5.34794 67.9239 5.1306 67.834 4.93314 67.7094ZM5.76474 68.34C10.3733 68.46 14.9735 68.1708 19.5719 67.8408C19.7675 69.246 19.8893 70.6698 20.0669 72.0792C15.5813 72.288 11.0957 72.4692 6.61015 72.6666C6.92272 72.0709 7.08542 71.4079 7.08415 70.7352C7.07719 70.2584 6.95323 69.7907 6.72318 69.373C6.49312 68.9554 6.164 68.6006 5.76474 68.34ZM14.0051 76.86C10.9589 76.8984 7.83534 76.7832 4.80294 77.1C4.87091 75.9181 4.82208 74.7323 4.65714 73.56C10.0991 73.3098 15.5399 73.0266 20.9831 72.7878C20.0015 73.7526 20.0831 75.6384 20.9531 76.7082C18.6383 76.71 16.3067 76.8312 14.0051 76.86Z" fill="#252525"/>
<path d="M20.4672 58.1466C20.325 58.1532 8.94004 58.6716 8.41624 58.7862C7.63144 58.9566 8.07964 60.1884 8.09224 60.7404C8.11504 61.7742 8.33224 62.9988 9.60064 62.9556C13.2006 62.8356 16.959 62.6064 19.845 62.3628C20.475 62.3088 20.385 62.1426 20.0772 61.731C19.7946 61.3566 19.7172 59.2512 19.8882 58.6878L20.469 58.6602C20.796 58.6446 20.7978 58.1316 20.4672 58.1466Z" fill="#644DF6"/>
<path d="M17.49 57.1865C17.2915 57.1214 17.0821 57.0964 16.8738 57.1127C16.6767 56.7399 16.6217 56.3081 16.719 55.8977C16.839 55.0577 17.0442 54.8651 17.0442 54.8651C17.0442 54.8651 17.5374 54.8711 17.6958 54.6641C17.7254 54.6284 17.7444 54.5851 17.7508 54.5392C17.7571 54.4933 17.7506 54.4465 17.732 54.404C17.7133 54.3616 17.6832 54.3252 17.645 54.2988C17.6069 54.2725 17.5622 54.2573 17.5159 54.2549C17.0592 54.2225 6.17045 54.3323 5.50745 54.3749C5.07905 54.3995 5.06525 54.8975 5.02325 55.2581C4.96021 55.8871 5.00238 56.5222 5.14805 57.1373C5.34665 58.0103 5.65985 58.1207 6.47705 58.1039C7.84565 58.0685 16.557 57.7703 17.037 57.7889C17.6868 57.8057 17.628 57.2741 17.49 57.1865Z" fill="#644DF6"/>
<path d="M32.946 41.8248C31.0374 41.6844 29.676 41.718 21.6192 42.1626C21.7344 40.5948 21.4176 35.4906 21.4074 34.6836C21.3972 33.8232 21.5196 31.734 21.1074 31.6788C20.0307 31.607 18.9497 31.6399 17.8794 31.7772C17.7761 31.778 17.6773 31.8193 17.6043 31.8922C17.5312 31.9652 17.4897 32.0639 17.4888 32.1672C18.2472 39.5064 17.5446 41.1162 17.7612 42.3672C13.9782 42.5472 10.1628 42.687 6.42599 43.2402C6.23819 43.2678 6.29639 43.5402 6.46559 43.5516C10.3116 43.7652 13.3758 43.584 25.2738 43.0848C27.8709 43.0585 30.4639 42.8733 33.0384 42.5304C33.4632 42.4608 33.3252 41.8524 32.946 41.8248ZM18.432 42.3354C18.6642 41.3238 18.372 33.5634 18.2964 32.5314C19.136 32.5134 19.9733 32.4378 20.8026 32.3052C20.7066 33.1014 20.7924 40.2534 21.1386 42.189C19.7016 42.2688 19.38 42.288 18.432 42.3354Z" fill="#252525"/>
<path d="M29.1048 37.5306C29.0862 36.126 29.1234 34.7238 29.1306 33.321C29.1306 33.1182 29.0418 32.7588 27.5868 32.937C27.2468 32.9342 26.9071 32.9603 26.5716 33.015C26.4123 34.9088 26.4044 36.8122 26.5482 38.7072C26.5956 39.4602 26.5236 40.3272 26.5992 41.0766C26.6071 41.1762 26.6437 41.2714 26.7045 41.3507C26.7653 41.43 26.8477 41.4901 26.9418 41.5236C27.6509 41.6661 28.3831 41.6456 29.0832 41.4636C29.1522 41.4 29.1138 38.2266 29.1048 37.5306Z" fill="#644DF6"/>
<path d="M104.22 21.0053C103.734 20.7485 100.089 20.9045 85.8486 21.3923C85.4712 17.6381 84.5563 12.4067 84.4195 11.3297C84.3595 10.8611 84.3169 10.2833 83.7253 10.2065C83.1121 10.1267 80.7306 9.99591 80.3052 10.1909C79.8702 10.3907 80.0947 11.0309 80.1547 11.3987C80.2471 11.9747 81.4452 19.2893 81.5946 21.1265C81.6192 21.4265 82.1017 21.3941 82.0543 21.1085C81.7423 19.2485 81.6654 17.3507 81.3942 15.4805C81.2634 14.5895 80.7552 10.7405 80.7552 10.7405C81.8073 10.6056 82.8742 10.6398 83.9154 10.8419C83.8806 12.1343 84.9181 19.8455 85.1707 21.4151C81.8995 21.5273 78.4465 21.6467 75.4747 21.7517C75.2815 19.9895 75.2659 18.2117 75.0817 16.4435C74.9881 15.5477 74.5219 11.5655 74.4085 11.5115C73.4707 11.1145 72.4191 11.0786 71.4565 11.4107C71.3755 10.9403 71.2801 10.4741 71.1655 10.0151C70.5468 9.87575 69.9078 9.85135 69.2803 9.94311C68.8915 10.0061 67.8127 10.0061 67.9099 10.7621C68.0731 12.0293 68.9208 20.5931 69.1944 21.9785L68.5944 22.0019C68.5388 22.0019 68.4853 22.024 68.446 22.0634C68.4066 22.1028 68.3845 22.1562 68.3845 22.2119C68.3845 22.2676 68.4066 22.321 68.446 22.3604C68.4853 22.3998 68.5388 22.4219 68.5944 22.4219C73.7148 22.3733 96.5466 22.0745 97.161 22.0619C97.761 22.0499 103.694 21.9731 104.222 21.6593C104.279 21.6253 104.326 21.5772 104.358 21.5198C104.39 21.4624 104.407 21.3975 104.407 21.3316C104.406 21.2657 104.389 21.201 104.356 21.1438C104.324 21.0867 104.277 21.0389 104.22 21.0053ZM69.8034 21.9563C69.754 21.005 69.6553 20.057 69.5077 19.1159C69.3877 17.9891 68.5885 10.7981 68.5477 10.6781C69.3262 10.5117 70.1285 10.4887 70.9153 10.6103C70.9249 12.4571 71.2225 14.1257 71.4067 15.9569C71.6035 17.9069 71.862 19.9253 72.0954 21.8723C71.2272 21.9035 70.4544 21.9317 69.8034 21.9563ZM72.7237 21.8495C72.4897 19.7561 71.7427 13.1957 71.5165 11.7755C72.0445 11.8775 72.3252 11.7155 73.7022 11.8643C74.0547 13.4163 74.2953 14.9915 74.4223 16.5779C74.6155 18.3023 74.9413 20.0339 75.0421 21.7673L72.7237 21.8495Z" fill="#252525"/>
<path d="M113.327 41.826C111.632 41.76 110.906 41.766 107.612 41.8338C106.87 38.82 106.052 35.4102 105.572 32.3592C105.555 32.2947 105.516 32.2378 105.463 32.1973C105.41 32.1567 105.345 32.1348 105.278 32.1348C104.324 32.1564 103.37 32.1564 102.416 32.181C102.233 32.1858 102.014 32.3502 102.041 32.556C102.096 32.9784 102.154 33.3998 102.216 33.8202C101.544 33.8167 100.875 33.89 100.22 34.0386C100.082 34.0614 100.123 34.395 100.123 34.4238C100.147 35.8692 100.493 36.333 101.517 41.9652C100.354 41.9892 99.0468 42.0156 97.5732 42.0444C97.0776 39.5514 96.0414 31.479 95.7582 31.3644C95.2184 31.229 94.6557 31.2122 94.1088 31.3152C93.6717 31.3117 93.2361 31.3687 92.8146 31.4844C92.7782 31.274 92.7394 31.0636 92.6982 30.8532C92.6789 30.7829 92.637 30.7208 92.579 30.6766C92.521 30.6324 92.4501 30.6084 92.3772 30.6084C91.4772 30.6546 90.2274 30.4884 89.4084 30.8928C89.334 30.9288 89.3304 30.2292 89.553 42.1836C85.2187 42.2019 80.8883 42.4422 76.5786 42.9036C76.3806 42.9264 76.5786 43.2216 76.5786 43.2216C81.2586 43.3482 102.118 43.077 103.823 43.0476C106.998 43.0586 110.171 42.8929 113.328 42.5514C113.424 42.5513 113.516 42.513 113.584 42.445C113.652 42.3769 113.69 42.2846 113.69 42.1884C113.69 42.0922 113.652 42 113.584 41.932C113.516 41.8641 113.424 41.8259 113.327 41.826ZM90.3342 42.1686C90.2742 40.8078 89.862 31.8966 89.8032 31.2636C90.5634 31.3603 91.3325 31.3656 92.094 31.2792C92.5446 34.4172 93.276 38.8848 93.3078 42.1236C92.3046 42.14 91.3134 42.155 90.3342 42.1686ZM94.083 42.1086C93.7608 39.1128 93.3732 34.8402 92.8926 31.9266C93.371 31.9993 93.8567 32.0106 94.338 31.9602C94.6915 31.9692 95.045 31.9491 95.3952 31.9002C95.3352 32.7162 96.468 41.2548 96.6144 42.0588C96.135 42.0726 94.5666 42.1026 94.083 42.111V42.1086ZM102.405 41.9442C101.215 36.8232 101.215 35.8026 100.712 34.4586C101.242 34.5389 101.781 34.5122 102.3 34.38C102.647 36.6702 103.443 39.0228 103.902 41.2932C103.95 41.5332 104.296 41.4252 104.262 41.1948C103.86 38.4618 103.176 35.6472 102.835 32.9064C103.567 32.862 104.297 32.808 105.029 32.7618C105.581 35.7048 106.191 38.9298 106.904 41.8512C105.731 41.8752 104.27 41.9076 102.405 41.9466V41.9442Z" fill="#252525"/>
<path d="M108.954 59.3358C108.401 59.0808 108.644 59.1948 101.204 59.4468C98.5512 59.4407 95.8995 59.5781 93.2611 59.8584C93.0589 59.8878 93.1297 60.1776 93.3073 60.195C93.6625 60.2268 94.0201 60.2502 94.3765 60.267C94.4059 60.591 94.4827 60.9156 94.5259 61.2378C94.5509 61.6172 94.6122 61.9933 94.7089 62.361C94.7256 62.4147 94.7591 62.4617 94.8045 62.495C94.8498 62.5284 94.9046 62.5463 94.9609 62.5463C95.0171 62.5463 95.0719 62.5284 95.1173 62.495C95.1626 62.4617 95.1961 62.4147 95.2129 62.361C95.3922 61.6735 95.3375 60.9458 95.0575 60.2928C97.4395 60.3558 98.9647 60.1866 105.305 60.09C105.965 60.0798 107.614 59.892 108.794 59.943C109.029 60.1685 109.192 60.4583 109.263 60.7762C109.334 61.094 109.31 61.4257 109.193 61.7298C109 62.1276 108.653 62.2698 108.343 62.4876C105.987 62.5512 95.1535 63.0492 94.4521 63.102C94.4266 63.102 94.4022 63.1121 94.3842 63.1302C94.3662 63.1482 94.3561 63.1726 94.3561 63.198C94.3561 63.2235 94.3662 63.2479 94.3842 63.2659C94.4022 63.2839 94.4266 63.294 94.4521 63.294C94.5979 63.2982 94.7437 63.3012 94.8901 63.306C95.3475 63.8204 95.6985 64.4204 95.9227 65.0712C96.0301 65.586 95.7133 66.543 95.1295 66.6876C94.9551 66.6988 94.7833 66.7353 94.6195 66.7962C94.4677 66.8874 94.5181 67.0452 94.6441 67.1466C94.8241 67.2912 108.708 66.6414 109.075 66.4614C109.207 66.3863 109.316 66.2757 109.388 66.142C109.461 66.0084 109.494 65.8572 109.485 65.7054C109.464 64.7772 109.331 63.8549 109.088 62.9586C109.549 62.6806 109.894 62.2467 110.062 61.7358C110.314 60.8046 109.064 59.3868 108.954 59.3358ZM96.0715 66.6954C96.3707 66.4005 96.5516 66.0064 96.5803 65.5872C96.6403 64.6026 96.0403 63.9144 95.3599 63.318C97.4293 63.3738 99.4999 63.375 101.569 63.369C103.898 63.3612 106.239 63.4782 108.565 63.4092C108.581 64.1426 108.672 64.8725 108.836 65.5872C108.326 65.5842 98.4721 66.3864 96.0715 66.6954Z" fill="#252525"/>
<path d="M78.3954 54.7284C78.069 52.8648 76.884 48.1818 75.2754 46.818C74.0064 45.738 71.541 45.8532 70.1442 46.575C56.3256 53.7204 52.44 52.44 51.0072 54.5502C50.2188 55.71 49.6734 56.091 48.1476 56.9886C47.0388 57.6414 47.5272 59.6358 47.724 60.6984C47.9619 62.1043 48.5294 63.4338 49.38 64.578C52.653 68.8428 58.4136 67.113 62.7768 64.011C64.5324 62.7646 66.2152 61.4186 67.8168 59.9796C68.2525 59.4802 68.6136 58.9204 68.889 58.3176C69.2364 57.3696 69.369 56.265 69.8094 55.3674C69.8487 55.3038 69.9056 55.2529 69.9732 55.2208C70.0408 55.1888 70.1161 55.1769 70.1903 55.1867C70.2645 55.1964 70.3342 55.2274 70.3912 55.2759C70.4481 55.3243 70.4899 55.3882 70.5114 55.4598C70.6667 56.3026 70.5567 57.1729 70.1964 57.9504C69.9168 58.6536 69.3684 59.5218 69.5202 60.321C70.3376 62.1615 71.4677 63.8464 72.8604 65.301C73.9956 66.4302 75.4632 69.2862 76.1496 70.9734C76.44 71.6892 80.2578 71.1468 81.0954 71.0592C84.2676 70.7232 79.1118 58.8156 78.3954 54.7284Z" fill="#252525"/>
<path d="M56.79 22.4867C56.7928 22.6753 56.8149 22.8631 56.856 23.0471C56.8835 23.1462 56.9427 23.2336 57.0246 23.2959C57.1065 23.3581 57.2065 23.3918 57.3093 23.3918C57.4122 23.3918 57.5122 23.3581 57.5941 23.2959C57.676 23.2336 57.7352 23.1462 57.7626 23.0471C57.7794 22.9397 57.7962 22.5671 57.7932 22.4867C57.7932 22.3537 57.7404 22.2261 57.6463 22.132C57.5523 22.038 57.4247 21.9851 57.2916 21.9851C57.1586 21.9851 57.031 22.038 56.937 22.132C56.8429 22.2261 56.79 22.3537 56.79 22.4867Z" fill="#252525"/>
<path d="M52.1346 23.2608C52.1806 23.4378 52.2387 23.6114 52.3086 23.7804C52.3386 23.8885 52.4103 23.9803 52.508 24.0356C52.6057 24.0908 52.7213 24.105 52.8294 24.075C52.9376 24.045 53.0293 23.9733 53.0846 23.8756C53.1398 23.7779 53.154 23.6623 53.124 23.5542C53.0592 23.3453 52.979 23.1416 52.884 22.9446C52.8331 22.8595 52.7532 22.7957 52.659 22.7648C52.5648 22.734 52.4626 22.7382 52.3712 22.7766C52.2798 22.8151 52.2054 22.8852 52.1616 22.9742C52.1178 23.0631 52.1076 23.1649 52.1328 23.2608H52.1346Z" fill="#252525"/>
<path d="M51.2742 22.5204C51.4961 22.1387 51.8335 21.8374 52.2378 21.66C52.2956 21.6268 52.3435 21.5789 52.3767 21.5211C52.4099 21.4633 52.4272 21.3978 52.4268 21.3312C52.4268 21.2727 52.4133 21.215 52.3874 21.1626C52.3615 21.1102 52.3239 21.0645 52.2775 21.029C52.2311 20.9934 52.1771 20.9691 52.1197 20.9578C52.0624 20.9466 52.0032 20.9486 51.9468 20.964C51.6435 21.054 51.3716 21.2273 51.1618 21.4641C50.952 21.701 50.8128 21.9918 50.76 22.3038C50.7 22.599 51.12 22.8228 51.2742 22.5204Z" fill="#252525"/>
<path d="M56.6562 20.778C57.285 21.0606 57.8052 21.594 58.2354 21.558C58.3018 21.5566 58.3651 21.5296 58.412 21.4826C58.459 21.4357 58.486 21.3724 58.4874 21.306C58.4874 20.5146 57.3678 20.3058 56.7792 20.3244C56.5566 20.3328 56.4228 20.673 56.6562 20.778Z" fill="#252525"/>
</svg>
