<svg width="120" height="120" viewBox="0 0 120 120" fill="none" xmlns="http://www.w3.org/2000/svg">
<path d="M87.3 31.5126C87.2632 31.4774 87.219 31.4509 87.1706 31.435C87.1222 31.4191 87.0709 31.4142 87.0204 31.4207C86.9699 31.4272 86.9215 31.4449 86.8787 31.4726C86.8359 31.5002 86.7999 31.5371 86.7732 31.5804C85.9404 33 83.3058 39.0162 82.6332 40.5108C82.5961 40.5776 82.5863 40.6562 82.6057 40.7301C82.6252 40.804 82.6724 40.8675 82.7376 40.9074C83.0136 41.0592 83.9886 41.7216 84.5556 42.1074C84.6076 42.1431 84.6667 42.1672 84.7289 42.1781C84.7911 42.189 84.8548 42.1865 84.9159 42.1706C84.977 42.1547 85.034 42.1259 85.083 42.0862C85.132 42.0464 85.1719 41.9966 85.2 41.94C85.9254 40.4808 88.1682 35.9664 88.5138 35.2536C88.7274 34.8108 89.4804 33.1068 89.0994 32.7708C89.0622 32.7432 87.621 31.7634 87.3 31.5126Z" fill="#C0C0C0"/>
<path d="M64.1322 28.32C63.648 28.1202 58.2954 33.4098 57.5058 33.2286C54.6414 32.5638 51.712 32.2195 48.7716 32.202C48.756 32.6322 52.7916 41.1132 53.373 41.448C53.9544 41.7828 59.8428 42.7536 60.4248 42.5634C61.2408 42.2976 64.1568 39.3414 64.968 38.5686C65.2626 38.28 64.6158 28.518 64.1322 28.32ZM59.8086 41.7522C59.3886 40.4868 58.9854 39.2268 58.6224 37.9422C58.1794 36.7294 57.8784 35.4694 57.7254 34.1874C57.7104 33.7674 58.2654 33.7674 58.3968 34.098C58.8882 35.3136 59.151 36.6654 59.5182 37.9254C59.9075 39.1492 60.1842 40.406 60.345 41.6802C60.3774 42.003 59.8992 42.0276 59.8086 41.7522Z" fill="#C0C0C0"/>
<path d="M32.6952 86.7678C31.0752 88.422 32.148 91.7868 33.1152 93.5826C37.7886 102.266 49.1028 107.411 58.242 109.691C61.8691 110.702 65.6114 111.24 69.3762 111.292C72.9297 111.331 76.4285 110.416 79.5072 108.641C84.5586 105.542 83.2356 97.9248 79.9464 94.1562C79.3647 93.6058 78.8562 92.9829 78.4332 92.3028C78.7602 92.727 78.897 94.0962 78.1578 94.1898C77.7978 94.236 75.3006 90.5058 75.1746 90.3228C74.9106 89.9382 68.1024 87.1764 67.6896 87.471C67.2768 87.7656 67.3788 89.6406 67.3758 90.1536C67.3698 90.9804 68.0958 93.6966 68.2104 94.2666C68.4342 95.3664 67.4904 99.699 65.649 98.3196C64.2342 97.2606 63.9822 95.1546 63.9804 93.3876C63.9768 91.5726 64.2936 91.9764 64.1172 87.396C63.9967 87.3761 63.8834 87.3254 63.7881 87.2489C63.6929 87.1724 63.619 87.0727 63.5736 86.9593C63.5282 86.8459 63.5128 86.7227 63.5289 86.6016C63.5449 86.4805 63.592 86.3656 63.6654 86.268C62.4984 86.0652 61.3506 85.6872 60.1722 85.4616C59.6922 85.3698 55.0068 84.8298 54.9732 84.672C55.0818 85.191 54.867 87.2928 54.105 86.9214C53.913 86.8272 53.4918 85.0854 53.481 84.4044C51.1446 84.4782 48.7032 84.093 46.3368 84.048C44.2446 84.0084 42.1506 84.1728 40.0704 84.1728C39.1146 84.1728 39.075 85.0302 38.82 85.8426C38.4876 86.901 36.2064 94.119 35.2674 94.1514C34.6302 94.173 34.7148 93.486 34.7274 93.2862C34.8966 90.502 35.2896 87.7358 35.9028 85.0146C34.7065 85.3284 33.6052 85.9303 32.6952 86.7678Z" fill="#C0C0C0"/>
<path d="M52.9308 27.0774C53.9766 28.2678 56.3058 29.0712 57.3918 27.4656C57.5826 27.1848 57.2718 26.8818 56.985 26.9376C56.4223 27.125 55.8468 27.2718 55.263 27.3768C54.544 27.4198 53.8354 27.1886 53.28 26.73C53.2339 26.6837 53.1714 26.6576 53.1061 26.6574C53.0407 26.6572 52.978 26.683 52.9317 26.7291C52.8854 26.7752 52.8593 26.8377 52.8591 26.9031C52.859 26.9684 52.8847 27.0311 52.9308 27.0774Z" fill="#666666"/>
<path d="M54.828 25.6758C54.9807 25.7568 55.1497 25.8021 55.3224 25.8084C55.4451 25.7956 55.5627 25.7523 55.6644 25.6826C55.7662 25.6128 55.8489 25.5187 55.905 25.4088C56.3382 24.6036 55.365 23.802 54.9906 24.3024C54.9297 24.3798 54.8994 24.4769 54.9054 24.5752C54.9113 24.6736 54.9532 24.7663 55.023 24.8358C55.3128 25.071 55.086 25.3158 54.8388 25.335C54.6978 25.347 54.6714 25.6002 54.828 25.6758Z" fill="#666666"/>
<path d="M62.5128 32.8338C63.2226 33.4164 64.0308 33.1794 64.8726 33.1338C66.7926 33.0234 66.5766 34.8738 66.4506 36.2262C66.2262 38.6262 67.3464 40.8372 68.4906 42.8694C68.6994 43.2396 69.291 42.894 69.0606 42.5364C67.8654 40.6728 66.5946 38.7162 66.939 36.4326C67.0939 35.8344 67.1841 35.2212 67.2078 34.6038C67.2124 34.178 67.0869 33.761 66.848 33.4085C66.6091 33.056 66.2682 32.785 65.871 32.6316C64.8138 32.3058 63.7206 32.9316 62.6616 32.5806C62.52 32.5326 62.3946 32.7366 62.5128 32.8338Z" fill="#666666"/>
<path d="M62.193 34.275C62.9934 34.593 64.6404 35.1492 65.3658 34.4454C65.3949 34.4157 65.4169 34.3798 65.4302 34.3404C65.4434 34.3009 65.4475 34.259 65.4422 34.2178C65.4369 34.1765 65.4223 34.137 65.3995 34.1023C65.3767 34.0675 65.3463 34.0383 65.3106 34.017C64.7274 33.6852 64.1466 34.1052 62.316 33.8292C62.2582 33.8167 62.1978 33.8268 62.1472 33.8575C62.0966 33.8881 62.0596 33.937 62.0439 33.994C62.0281 34.051 62.0348 34.1119 62.0625 34.1641C62.0903 34.2164 62.1369 34.2561 62.193 34.275Z" fill="#666666"/>
<path d="M62.2392 35.3904C63.0396 35.745 64.5732 36.2904 65.2938 35.5332C65.3184 35.5083 65.337 35.4782 65.3482 35.445C65.3594 35.4119 65.3629 35.3767 65.3584 35.342C65.354 35.3073 65.3417 35.274 65.3225 35.2448C65.3033 35.2156 65.2777 35.1911 65.2476 35.1732C64.8528 35.0493 64.4329 35.0287 64.0278 35.1132C63.4796 35.1483 62.9293 35.1225 62.3868 35.0364C62.1918 35.0046 62.0244 35.295 62.2392 35.3904Z" fill="#666666"/>
<path d="M62.9568 36.7914C63.6216 37.0656 64.9278 37.5384 65.4438 36.7914C65.4679 36.7502 65.4776 36.7022 65.4715 36.6549C65.4655 36.6075 65.4439 36.5635 65.4102 36.5298C64.9194 36.1314 64.311 36.4668 63.0228 36.306C62.7234 36.2706 62.7264 36.6966 62.9568 36.7914Z" fill="#666666"/>
<path d="M63.6822 40.7724C63.5713 41.8781 63.7463 42.9937 64.1904 44.0124C64.4856 44.7252 65.0616 46.089 65.9238 46.2108C65.9643 46.221 66.0065 46.2219 66.0473 46.2136C66.0882 46.2052 66.1266 46.1878 66.1598 46.1626C66.193 46.1373 66.2201 46.1049 66.2391 46.0678C66.2581 46.0306 66.2684 45.9897 66.2694 45.948C66.2616 44.919 64.983 44.958 64.2012 40.6998C64.14 40.3836 63.714 40.5 63.6822 40.7724Z" fill="#666666"/>
<path d="M53.6358 34.4838C53.0917 34.821 52.5089 35.0914 51.9 35.289C51.2846 35.4321 50.6877 35.6455 50.121 35.925C47.9586 37.14 48.1692 40.26 48 41.2518C47.3753 44.5995 46.4662 47.8878 45.2826 51.081C45.2088 51.2796 45.5226 51.4086 45.6222 51.2238C47.2622 48.1943 48.3786 44.9095 48.924 41.508C49.0806 40.5984 48.7068 38.2452 50.1144 37.068C51.1944 36.168 53.4642 36.2556 53.9412 34.7238C53.9522 34.6838 53.9512 34.6415 53.9382 34.602C53.9253 34.5626 53.9009 34.5279 53.8683 34.5023C53.8357 34.4767 53.7962 34.4612 53.7548 34.4579C53.7135 34.4547 53.6721 34.4637 53.6358 34.4838Z" fill="#666666"/>
<path d="M50.9364 37.6566C52.416 37.9302 54.3348 37.5 54.828 35.8566C54.8405 35.8058 54.8379 35.7524 54.8205 35.703C54.8031 35.6536 54.7717 35.6104 54.7301 35.5786C54.6886 35.5468 54.6386 35.5277 54.5864 35.5238C54.5343 35.5199 54.482 35.5313 54.4362 35.5566C53.28 36.1956 52.29 37.0878 50.94 37.32C50.9031 37.3298 50.8704 37.3514 50.8469 37.3815C50.8234 37.4117 50.8105 37.4487 50.8101 37.4869C50.8097 37.5251 50.8218 37.5624 50.8446 37.5931C50.8674 37.6237 50.8997 37.646 50.9364 37.6566Z" fill="#666666"/>
<path d="M51.7554 39.1008C52.7664 39.2208 54.1044 39.2172 54.7326 38.265C54.7549 38.2262 54.7667 38.1823 54.7667 38.1375C54.7668 38.0928 54.7551 38.0488 54.7329 38.01C54.7107 37.9712 54.6787 37.9388 54.6401 37.9162C54.6016 37.8935 54.5577 37.8814 54.513 37.881C53.559 38.001 52.7382 38.595 51.753 38.6508C51.7234 38.6509 51.6942 38.6569 51.667 38.6684C51.6397 38.6798 51.615 38.6965 51.5942 38.7175C51.5523 38.76 51.5289 38.8173 51.5292 38.877C51.5295 38.9367 51.5535 38.9938 51.5959 39.0357C51.6383 39.0777 51.6957 39.1011 51.7554 39.1008Z" fill="#666666"/>
<path d="M42.7506 50.1546C42.7242 51.125 42.9253 52.0882 43.3377 52.967C43.7502 53.8458 44.3626 54.6158 45.126 55.2156C47.0718 56.7402 48.375 56.0742 50.0328 54.2826C53.2332 50.826 52.104 46.6626 52.0458 45.3888C51.9918 44.2062 52.035 42.8832 51.5568 41.7768C51.462 41.556 51.1758 41.703 51.1548 41.886C50.9208 43.836 52.4796 50.2458 50.1114 52.8108C48.4122 54.651 47.4492 55.7586 45.5958 54.3318C44.2817 53.2723 43.404 51.7657 43.1304 50.1C43.0842 49.8828 42.7614 49.947 42.7506 50.1546Z" fill="#666666"/>
<path d="M74.1768 41.46C73.3968 39.0876 72.5742 36.6684 71.0028 34.6866C70.1342 33.4839 68.9362 32.5581 67.5534 32.0208C67.8102 31.3804 68.0073 30.7175 68.142 30.0408C68.2904 28.7826 67.9967 27.5119 67.3111 26.4465C66.6256 25.3811 65.5908 24.5872 64.3842 24.201C65.397 21.1452 63.5754 17.283 60.0816 17.2182C60.8238 15.4086 59.9952 13.1064 58.7316 11.6382C55.0878 7.39679 45.7626 9.82559 45.8316 15.5982C42.5826 15.9348 40.9182 20.0826 43.9878 23.4378C43.4714 23.6791 43.0111 24.0256 42.6363 24.455C42.2615 24.8844 41.9805 25.3874 41.8112 25.9316C41.642 26.4759 41.5882 27.0495 41.6534 27.6157C41.7185 28.182 41.9011 28.7284 42.1896 29.22C39.9066 29.7084 37.9848 31.5936 38.3676 34.1238C38.6796 36.1836 41.2356 37.8144 43.0926 36.8238C41.451 40.0686 42.6288 44.475 41.5584 48.1716C41.5321 48.2697 41.5455 48.3741 41.5955 48.4625C41.6456 48.5508 41.7284 48.6159 41.826 48.6438C43.0168 48.9263 44.2623 48.8752 45.426 48.4962C45.4951 48.4773 45.5538 48.4317 45.5892 48.3694C45.6247 48.3072 45.6339 48.2335 45.615 48.1644C45.5961 48.0953 45.5505 48.0366 45.4882 48.0012C45.426 47.9657 45.3523 47.9565 45.2832 47.9754C44.3219 48.1314 43.3417 48.1314 42.3804 47.9754C43.2378 43.6326 41.8626 38.7144 44.427 36.0102C45.3429 35.0439 46.5748 34.4379 47.8992 34.302C48.4218 34.245 48.4308 33.42 47.8992 33.4734C46.4288 33.6127 45.064 34.2977 44.0736 35.3934C42.9852 35.8998 39.474 37.338 39.3294 33.6666C39.243 31.5384 41.1942 30.2082 43.1472 30.1464C43.2495 30.1436 43.3488 30.1113 43.4331 30.0532C43.5174 29.9952 43.5831 29.914 43.6223 29.8195C43.6615 29.7249 43.6724 29.621 43.6538 29.5204C43.6351 29.4198 43.5878 29.3267 43.5174 29.2524C43.1244 28.8483 42.851 28.3432 42.7276 27.7932C42.6042 27.2431 42.6356 26.6697 42.8183 26.1364C43.0011 25.6031 43.3279 25.1309 43.7627 24.7721C44.1975 24.4133 44.7231 24.182 45.2814 24.1038C45.8814 24.0024 45.6786 23.1498 45.1458 23.1084C44.8458 23.0856 44.298 22.2528 44.1258 22.0194C42.5058 19.7946 43.5006 16.5036 46.3338 16.5378C46.4607 16.5364 46.5819 16.4854 46.6717 16.3957C46.7614 16.3059 46.8124 16.1847 46.8138 16.0578C46.2606 10.665 54.2538 8.86439 57.633 11.9616C59.6046 13.7676 60.2184 17.4612 57.693 18.1806C56.562 18.5016 55.3302 18.0606 54.1686 18.3084C52.6938 18.6234 50.346 20.4684 48.756 20.0784C48.131 19.9576 47.5431 19.6914 47.04 19.3014C46.8462 19.1004 46.4778 19.368 46.644 19.6074C46.8407 19.9136 47.0987 20.1758 47.4016 20.3776C47.7046 20.5794 48.046 20.7163 48.4044 20.7798C48.2488 21.5918 48.3283 22.4313 48.6336 23.1996C48.1685 23.3576 47.7768 23.6794 47.5316 24.105C47.2863 24.5306 47.2042 25.0309 47.3007 25.5125C47.3971 25.9941 47.6655 26.4242 48.0557 26.7225C48.4459 27.0208 48.9313 27.167 49.4214 27.1338C49.7214 28.4106 50.6106 30.03 51.9978 30.0456C52.0481 30.0439 52.0969 30.0278 52.1383 29.9992C52.1797 29.9705 52.212 29.9305 52.2313 29.884C52.2506 29.8375 52.2561 29.7864 52.2472 29.7369C52.2382 29.6873 52.2152 29.6414 52.1808 29.6046C51.8256 29.1648 51.3084 28.881 50.9502 28.434C50.5417 27.9257 50.2845 27.3128 50.208 26.6652C50.2065 26.5986 50.19 26.5332 50.1598 26.4739C50.1295 26.4146 50.0863 26.3628 50.0334 26.3225C49.9804 26.2821 49.919 26.2542 49.8538 26.2409C49.7886 26.2275 49.7212 26.229 49.6566 26.2452C47.985 26.6094 47.601 24.1746 49.305 23.898C49.367 23.8799 49.4242 23.8481 49.4722 23.8048C49.5202 23.7615 49.5577 23.708 49.5821 23.6481C49.6064 23.5883 49.6169 23.5237 49.6128 23.4592C49.6087 23.3947 49.59 23.332 49.5582 23.2758C49.2747 22.7283 49.1198 22.1234 49.1052 21.507C49.1057 21.2786 49.1189 21.0505 49.1448 20.8236C50.5968 20.7606 52.2048 19.9158 53.442 19.4688C55.5108 18.7188 56.454 19.5042 57.9486 19.1046C58.3655 18.9917 58.7552 18.7953 59.094 18.5274C59.4042 19.7274 59.7852 20.919 60.036 22.137C60.0544 22.2047 60.0901 22.2664 60.1397 22.3161C60.1892 22.3658 60.2509 22.4017 60.3186 22.4202C61.5606 22.7424 61.6188 24.5736 60.222 24.7002C60.1145 24.7031 60.0123 24.747 59.9363 24.8231C59.8602 24.8991 59.8163 25.0013 59.8134 25.1088C59.9137 26.3761 59.7045 27.6489 59.2038 28.8174C58.521 30.177 57.2904 30.552 55.9038 30.8226C55.5792 30.8826 55.5642 31.443 55.9038 31.494C58.1706 31.8336 60.6744 29.6514 60.6372 25.434C61.0577 25.3444 61.4362 25.1165 61.712 24.7867C61.9879 24.4569 62.1453 24.0441 62.1591 23.6144C62.1729 23.1846 62.0424 22.7626 61.7882 22.4158C61.5341 22.0689 61.1711 21.8172 60.7572 21.7008C60.4681 20.5071 59.9814 19.3702 59.3172 18.3372C59.5437 18.1222 59.7381 17.8756 59.8944 17.6052C62.691 18.5586 64.62 21.2934 63.3618 24.2556C63.3269 24.3184 63.3066 24.3883 63.3024 24.46C63.2981 24.5317 63.31 24.6035 63.3372 24.67C63.3644 24.7365 63.4062 24.7961 63.4594 24.8443C63.5127 24.8925 63.5761 24.9282 63.645 24.9486C64.707 25.2183 65.6363 25.8617 66.2625 26.7609C66.8886 27.6602 67.1697 28.7549 67.0542 29.8446C66.9942 30.4704 66.5916 31.149 66.6606 31.7682C66.3235 31.7015 65.9806 31.6696 65.637 31.6728C65.6018 31.6735 65.568 31.6869 65.5417 31.7104C65.5154 31.7339 65.4985 31.766 65.4938 31.8009C65.4892 31.8359 65.4972 31.8713 65.5164 31.9008C65.5356 31.9304 65.5648 31.9521 65.5986 31.962C67.6059 32.5306 69.3613 33.7626 70.5786 35.457C71.7494 37.268 72.6395 39.2458 73.2186 41.3232C71.5794 41.9232 71.0472 41.6898 70.152 41.9664C70.0906 41.9852 70.0369 42.0232 69.9987 42.0749C69.9606 42.1265 69.94 42.189 69.94 42.2532C69.94 42.3174 69.9606 42.3799 69.9987 42.4315C70.0369 42.4831 70.0906 42.5212 70.152 42.54C70.725 42.7052 71.3301 42.7258 71.913 42.6C71.967 43.1974 71.9412 43.7993 71.8362 44.3898C71.8191 44.4519 71.8274 44.5183 71.8592 44.5744C71.891 44.6304 71.9439 44.6715 72.006 44.6886C72.0681 44.7057 72.1345 44.6974 72.1906 44.6656C72.2466 44.6337 72.2877 44.5809 72.3048 44.5188C72.4832 43.8296 72.607 43.1274 72.675 42.4188C72.675 42.4188 73.515 42.141 73.875 41.9916C73.9845 41.9595 74.0772 41.8861 74.1336 41.7869C74.1899 41.6877 74.2054 41.5704 74.1768 41.46Z" fill="#666666"/>
<path d="M92.1828 79.7556C91.6043 79.6669 91.0313 79.5449 90.4668 79.3902C85.6356 78.0816 82.3134 76.791 81.1272 71.9742C81.1139 71.924 81.0826 71.8804 81.0394 71.8515C80.9962 71.8227 80.9439 71.8106 80.8924 71.8175C80.8409 71.8244 80.7937 71.8499 80.7596 71.8891C80.7255 71.9283 80.7069 71.9786 80.7072 72.0306C80.736 76.9104 87.0672 79.152 87.1302 79.2306C87.8616 80.1114 85.3866 79.971 85.1502 79.9608C82.8148 79.9388 80.553 79.1414 78.72 77.694C78.9162 76.311 78.0078 73.092 76.8564 71.7954C76.7472 71.6754 76.5642 71.805 76.5948 71.9478C76.7526 72.6618 78.099 76.5396 77.6964 77.3838C76.758 79.3686 77.4816 82.446 77.4816 82.446C77.4816 82.446 78.5952 83.0358 81.5802 83.097C84.9192 83.1648 90.195 82.6932 90.7602 82.4568C91.4634 82.1568 92.8644 81.5532 92.9616 80.6568C92.9724 80.5459 92.9606 80.4341 92.9268 80.3279C92.8931 80.2218 92.8381 80.1236 92.7653 80.0394C92.6925 79.9551 92.6033 79.8865 92.5032 79.8377C92.4031 79.7889 92.2941 79.761 92.1828 79.7556Z" fill="#666666"/>
<path d="M40.623 59.5452C45.4404 66.8406 55.4496 70.5138 62.2668 68.9652C62.3303 68.9456 62.3848 68.9042 62.4207 68.8482C62.4565 68.7922 62.4713 68.7253 62.4624 68.6594C62.4536 68.5936 62.4216 68.533 62.3723 68.4884C62.323 68.4439 62.2595 68.4183 62.193 68.4162C58.1202 68.4222 54.195 68.0562 50.4096 66.4362C46.7421 64.8276 43.5023 62.3823 40.95 59.2962C40.8 59.1144 40.494 59.3496 40.623 59.5452Z" fill="#666666"/>
<path d="M61.8798 76.2234C58.1172 77.7432 54.3348 78.654 50.2524 78.195C38.3208 76.8504 30.1326 64.902 32.8368 53.3598C33.2964 51.2233 34.1954 49.2057 35.4768 47.4354C36.8984 45.6556 38.7987 44.3188 40.9542 43.5822C41.232 43.473 41.229 42.9924 40.8774 43.017C34.779 43.437 29.3928 53.0154 31.8372 63.3108C32.5137 66.0592 33.7335 68.6444 35.4245 70.914C37.1156 73.1837 39.2438 75.092 41.6838 76.5264C41.6652 76.563 40.8774 78.588 40.6434 79.2378C35.22 94.38 35.52 94.2054 35.2272 94.0038C35.0598 93.8868 35.3118 92.844 35.3316 92.6778C36.582 82.4532 38.1126 78.528 38.5842 74.9574C38.61 74.7642 38.2842 74.6778 38.2092 74.856C36.5526 78.7416 35.0052 88.1256 34.479 92.3844C34.4004 93.0252 34.155 93.8976 34.4694 94.5156C34.5228 94.6313 34.6002 94.7343 34.6966 94.8177C34.7929 94.9011 34.906 94.9629 35.0281 94.9991C35.1503 95.0353 35.2788 95.0449 35.405 95.0275C35.5312 95.01 35.6523 94.9658 35.76 94.8978C36.3432 94.5348 35.9856 94.9692 41.019 81.0108C41.3742 80.0262 42.3222 77.001 42.3222 77.001C44.2202 77.8185 46.1742 78.4992 48.1692 79.038C49.7127 79.3479 51.284 79.4979 52.8582 79.4856C52.8612 81.1416 52.8876 82.7808 53.0088 84.4356C53.0766 85.3572 52.9752 88.0872 54.5634 87.7554C55.1952 87.6234 55.2834 86.9886 55.3182 86.4498C55.3704 85.6386 55.518 79.9278 55.3182 79.3272C57.7557 79.0619 60.1104 78.2882 62.2302 77.0562C62.6556 76.8 62.376 76.0236 61.8798 76.2234ZM54.4398 86.5386C54.4074 87.0426 54.087 86.6436 54.0258 86.3796C53.9058 85.8528 53.8272 84.3864 53.2074 79.4796C53.6838 79.4688 54.1596 79.4416 54.6348 79.398C54.4716 80.0928 54.6216 83.778 54.441 86.5386H54.4398Z" fill="#666666"/>
<path d="M78.5874 92.1096C77.7738 89.9496 72.738 78.6696 71.6532 76.6554C72.2268 74.7522 72.4698 74.3418 73.218 71.5146C73.4028 70.8204 73.818 69.78 73.5948 69.0348C73.1186 67.6346 72.3844 66.336 71.43 65.2062C69.603 62.8524 69.1602 61.1964 68.589 61.146C68.0388 61.098 63.8526 64.311 63.4224 65.0376C63.0444 65.6748 63.1224 85.2066 62.9754 87.0918C62.952 87.3918 63.6666 87.6918 63.7944 87.774C63.6586 88.7863 63.67 89.8129 63.828 90.822C63.0033 92.985 63.0528 95.3842 63.966 97.5114C64.3516 98.4158 64.8644 99.2605 65.4888 100.02C65.9688 100.6 66.7746 101.611 67.5954 101.696C68.3646 101.776 68.7456 101.072 68.9592 100.457C70.4496 96.1668 67.6086 91.1184 67.6086 91.1184C67.6086 91.1184 67.821 88.533 67.818 88.0338C68.1441 87.9246 68.4568 87.779 68.7504 87.6C69.0078 87.441 69.5904 84.441 70.4472 81.0876C72.0631 85.6268 74.1846 89.9697 76.7718 94.0344C77.202 94.683 78.1236 95.4876 78.8244 94.6554C79.4298 93.936 78.8628 92.8392 78.5874 92.1096ZM67.443 95.1882C67.3624 95.6083 67.2435 96.0203 67.0878 96.4188C66.7098 97.3788 66.5688 97.116 66.0372 96.5832C65.4249 95.9662 64.9381 95.2363 64.6038 94.434C64.3116 93.7302 64.4028 91.6206 64.4238 91.515C64.666 90.4069 64.7267 89.2669 64.6038 88.1394C65.4055 88.3686 66.2508 88.4003 67.0674 88.2318C66.8642 89.4279 66.8719 90.6503 67.0902 91.8438C67.4063 92.9286 67.5258 94.0613 67.443 95.1882ZM78.15 93.858C77.8548 94.2234 77.208 92.985 77.079 92.778C75.3594 90.0306 72.0774 83.556 70.5852 80.5494C70.8774 79.413 71.115 78.5316 71.3148 77.8206C71.679 78.7278 72.2988 79.839 72.5712 80.4222C74.871 85.3602 78.3 93.6738 78.15 93.858Z" fill="#666666"/>
<path d="M97.7508 17.3844C97.4862 17.1018 96.933 17.1828 96.5844 17.1678C96.036 17.1432 89.7186 17.1756 88.6524 17.2458C87.9822 17.2908 86.154 17.4258 86.1648 17.7084C86.1738 17.9406 86.5152 20.2098 86.658 20.9592C90.3318 20.8686 97.4478 20.8392 98.0622 20.5392C98.694 20.2326 97.7862 17.4222 97.7508 17.3844Z" fill="#C0C0C0"/>
<path d="M114.127 72.885C113.677 71.8356 113.587 71.8434 112.52 71.7606C110.826 71.6842 109.128 71.7231 107.439 71.877C106.503 71.943 99.198 72.2538 99.1872 72.1674C99.2845 73.2067 99.4341 74.2404 99.6354 75.2646C99.6696 75.4158 99.9216 76.9086 100.064 76.9086C103.297 76.881 111.313 76.4202 112.093 76.3542C112.732 76.3002 113.353 76.362 113.866 75.93C114.675 75.2526 114.534 73.8348 114.127 72.885Z" fill="#C0C0C0"/>
<path d="M116.666 78.9168C115.121 76.0692 108.584 77.007 105.055 77.2482C101.956 77.4606 98.8704 77.6862 95.8008 78.1332C95.6412 78.1566 95.6808 78.4116 95.838 78.4098C96.2484 78.4098 96.6582 78.399 97.0686 78.3912C97.735 78.7777 98.3102 79.3032 98.7552 79.932C98.933 80.1364 99.0405 80.3923 99.0621 80.6622C99.0837 80.9322 99.0182 81.202 98.8752 81.432C98.6927 81.7984 98.4658 82.141 98.1996 82.452C97.1508 82.532 96.1028 82.625 95.0556 82.731C94.5642 82.7814 94.56 83.556 95.0556 83.5056C95.6028 83.4486 96.15 83.3976 96.6966 83.3484C97.0926 84.6437 97.1969 86.0106 97.002 87.351C96.5736 87.3768 96.1464 87.4044 95.718 87.4338C95.675 87.4338 95.6338 87.4509 95.6035 87.4813C95.5731 87.5116 95.556 87.5528 95.556 87.5958C95.556 87.6388 95.5731 87.68 95.6035 87.7104C95.6338 87.7407 95.675 87.7578 95.718 87.7578C98.9934 87.7884 112.801 87.7578 113.898 87.3936C115.845 86.751 116.366 83.8998 114.022 82.524C114.908 82.5244 115.767 82.215 116.449 81.6492C116.766 81.2734 116.957 80.8079 116.996 80.3179C117.035 79.8279 116.919 79.3379 116.666 78.9168ZM114.644 84.1968C114.78 84.4813 114.841 84.7954 114.823 85.11C114.805 85.4246 114.708 85.7296 114.541 85.9968C113.657 87.4098 112.766 86.4366 97.548 87.3168C97.9026 86.8968 98.1012 84.9054 97.1406 83.3052C100.363 83.031 107.891 82.6242 111.17 82.6626C112.56 82.6962 114.026 82.947 114.644 84.1992V84.1968ZM115.738 80.9334C114.646 82.248 109.508 81.6624 99.0996 82.3848C99.3643 82.0818 99.5742 81.735 99.72 81.36C99.8557 81.0181 99.886 80.6434 99.807 80.2841C99.728 79.9248 99.5433 79.5974 99.2766 79.344C99.0019 78.9848 98.693 78.6531 98.3544 78.3534C105.61 78.1134 111.31 77.223 114.283 78.2886C115.216 78.6252 116.654 79.8354 115.74 80.9358L115.738 80.9334Z" fill="#666666"/>
<path d="M114.526 70.6038C114.195 69.5474 114.005 68.4516 113.963 67.3452C113.962 67.2437 113.921 67.1466 113.85 67.0748C113.778 67.003 113.681 66.962 113.579 66.9606C107.645 67.182 101.759 67.7406 95.8794 68.5206C95.709 68.544 95.6994 68.8068 95.8794 68.7972C96.1638 68.7822 96.4482 68.7636 96.7308 68.7468C96.717 69.6924 96.7476 69.9984 96.7554 71.457C96.4512 71.4471 96.1468 71.4686 95.847 71.5212C95.6724 71.5692 95.7444 71.7012 95.7474 71.7486C95.7534 71.8626 113.337 71.1804 114.071 71.202C114.144 71.2004 114.215 71.1826 114.279 71.1498C114.343 71.117 114.399 71.0701 114.443 71.0126C114.487 70.9551 114.517 70.8885 114.531 70.8177C114.546 70.7469 114.544 70.6738 114.526 70.6038Z" fill="#C0C0C0"/>
<path d="M29.0526 83.8116C29.0328 83.61 23.7048 83.2818 22.6506 83.208C20.5794 83.0634 18.4074 82.788 16.3236 82.788C16.1436 82.788 15.477 85.3602 14.832 86.571C14.3144 87.5323 13.6837 88.4282 12.9534 89.2398C12.528 89.847 12.4332 89.6598 12.4488 90.2256C12.5658 91.3367 12.4431 92.46 12.0888 93.5196C11.7295 94.7848 11.1774 95.9871 10.452 97.0842C10.4412 97.0842 10.2816 97.3956 10.4814 97.428C12.0774 97.686 21.594 98.1246 23.3574 98.07C24.0504 98.049 25.6698 95.4156 26.0232 94.1016C26.358 92.8548 26.5632 91.1016 25.9554 89.883C27.1524 88.6704 29.1552 84.84 29.0526 83.8116ZM15.4698 86.9442C15.9941 85.7953 16.3963 84.5945 16.6698 83.3616C18.5484 83.8098 27.4608 84.4248 28.3428 84.3816C27.6064 86.3446 26.5602 88.1768 25.2438 89.8086C24.189 89.7228 22.9266 90.0258 19.4658 89.9598C17.4894 89.9196 15.5112 89.6322 13.539 89.5716C14.2915 88.7812 14.9403 87.8984 15.4698 86.9442ZM25.545 91.8132C25.4886 95.0532 23.9616 96.5226 23.4876 97.3332C23.4774 97.3332 12.9948 96.9288 11.0268 97.0428C12.4177 95.5574 13.2157 93.6135 13.2696 91.5792C13.3211 91.1291 13.3088 90.674 13.233 90.2274C16.5624 91.1874 23.8848 91.0548 25.455 90.5526C25.5074 90.9709 25.5375 91.3917 25.545 91.8132Z" fill="#666666"/>
<path d="M17.8158 88.0242C18.7818 86.7384 19.5888 86.0082 19.7208 85.2642C19.7652 85.017 19.5042 84.7338 19.2534 84.9042C18.588 85.3578 18.1956 86.4912 17.4636 87.8184C17.4376 87.865 17.4309 87.92 17.4449 87.9715C17.459 88.023 17.4927 88.067 17.5388 88.0939C17.5849 88.1209 17.6398 88.1286 17.6916 88.1156C17.7433 88.1026 17.788 88.0697 17.8158 88.0242Z" fill="#666666"/>
<path d="M20.04 87.7662C20.5926 86.8872 21.372 85.995 21.498 84.9462C21.5208 84.7512 21.2688 84.7062 21.1494 84.8016C20.3628 85.4532 20.034 86.607 19.608 87.5166C19.5808 87.5734 19.576 87.6385 19.5946 87.6987C19.6132 87.7589 19.6539 87.8099 19.7085 87.8414C19.763 87.8729 19.8275 87.8827 19.889 87.8688C19.9505 87.8548 20.0044 87.8182 20.04 87.7662Z" fill="#666666"/>
<path d="M21.8796 87.66C22.1856 87.2214 22.6554 86.7 22.569 86.1282C22.5414 85.9482 22.3158 85.9038 22.182 85.9704C21.6888 86.2146 21.5262 86.9628 21.3522 87.4374C21.2358 87.765 21.7038 87.912 21.8796 87.66Z" fill="#666666"/>
<path d="M98.7936 29.3832C98.4264 29.1684 96.2094 29.46 95.8962 29.715C95.853 29.7504 96.5562 32.8308 96.6288 33.714C96.6996 34.6086 97.5936 41.5896 97.806 41.7354C98.0184 41.8812 100.467 41.8812 100.766 41.4954C101.066 41.1096 98.8938 29.4414 98.7936 29.3832Z" fill="#C0C0C0"/>
<path d="M80.8722 21.099C80.9706 20.844 79.497 9.93897 79.2204 9.78417C79.0816 9.71979 78.9292 9.69013 78.7764 9.69777C77.6939 9.63834 76.6087 9.64756 75.5274 9.72537C75.4424 9.78316 75.3791 9.8676 75.3474 9.96537C75.3252 11.0742 76.1784 19.8654 76.5222 21.0732C76.65 21.519 78.8022 21.3654 80.0436 21.2424C80.6034 21.1902 80.8014 21.2358 80.8722 21.099Z" fill="#C0C0C0"/>
<path d="M26.4468 19.5C26.1744 18.9114 21.4152 8.68738 21.369 8.70418C20.3658 9.06958 19.6026 9.33118 18.6036 9.70918C18.816 10.98 22.92 20.595 23.0562 21.3C23.1066 21.558 26.0766 20.1354 26.3118 20.0244C26.3973 19.9711 26.4591 19.8868 26.4842 19.7892C26.5094 19.6916 26.4959 19.588 26.4468 19.5Z" fill="#C0C0C0"/>
<path d="M40.5108 12.7584C38.526 12.687 36.4974 12.921 34.5156 13.035C32.5182 13.1502 30.5154 13.236 28.521 13.395C28.4775 13.396 28.4348 13.4067 28.396 13.4264C28.3572 13.4461 28.3234 13.4743 28.297 13.5089C28.2706 13.5435 28.2523 13.5836 28.2435 13.6262C28.2347 13.6688 28.2356 13.7128 28.2462 13.755C28.4962 14.8973 28.6402 16.0602 28.6764 17.229C28.1418 17.229 27.6072 17.2242 27.0738 17.2164C26.9852 17.2201 26.9014 17.2579 26.84 17.3219C26.7786 17.386 26.7444 17.4712 26.7444 17.5599C26.7444 17.6486 26.7786 17.7339 26.84 17.7979C26.9014 17.8619 26.9852 17.8997 27.0738 17.9034C27.3642 17.9082 27.6546 17.9094 27.9432 17.9124C28.1993 18.4314 28.3121 19.0094 28.2699 19.5867C28.2277 20.1639 28.0321 20.7194 27.7032 21.1956C27.663 21.2556 23.0898 21.3156 18.9834 21.5148C19.926 21.1548 20.8884 20.8548 21.8088 20.4306C21.8806 20.3866 21.9324 20.3165 21.9534 20.2349C21.9743 20.1534 21.9627 20.0669 21.921 19.9938C21.5562 19.3992 20.0862 15.7458 19.6314 14.577C19.1832 13.4232 18.1104 10.2708 18.0048 9.85561C17.9706 9.72361 17.7816 8.70061 17.4714 8.78821C16.2234 9.14221 14.4714 9.39841 13.2834 10.0578C13.1678 9.76501 13.0572 9.47081 12.9516 9.17521C12.9343 9.11528 12.9037 9.06004 12.862 9.01366C12.8203 8.96729 12.7686 8.93097 12.7109 8.90746C12.6531 8.88395 12.5908 8.87386 12.5285 8.87793C12.4663 8.88201 12.4058 8.90016 12.3516 8.93101C11.2596 9.6142 10.0971 10.1775 8.88419 10.611C8.84185 10.6241 8.80552 10.6517 8.78164 10.689C8.75777 10.7264 8.7479 10.7709 8.75381 10.8148C8.75971 10.8588 8.78099 10.8991 8.81388 10.9288C8.84676 10.9585 8.88911 10.9756 8.93339 10.977C10.1766 10.9664 11.3876 10.5808 12.408 9.87061C13.3362 11.6268 14.088 13.4934 14.9094 15.2988C17.2494 20.454 17.1084 20.3388 17.6568 21.0828C17.677 21.1265 17.7133 21.1606 17.7581 21.1781C17.8029 21.1955 17.8527 21.195 17.8971 21.1765C17.9415 21.158 17.977 21.1231 17.9962 21.079C18.0154 21.0349 18.0167 20.9851 18 20.94C17.8242 20.118 17.6796 19.9392 15.5832 15.2274C14.9172 13.7274 14.1876 12.2388 13.554 10.7178C14.754 10.6506 16.0686 10.038 17.1948 9.65221C17.4216 10.7322 20.6478 18.9888 21.1968 20.0082C20.3664 20.3838 18.8202 21.1002 17.8854 21.5736C15.8568 21.705 16.761 21.7866 11.3028 22.0032C11.2471 22.0032 11.1937 22.0253 11.1543 22.0647C11.1149 22.1041 11.0928 22.1575 11.0928 22.2132C11.0928 22.2689 11.1149 22.3223 11.1543 22.3617C11.1937 22.4011 11.2471 22.4232 11.3028 22.4232C16.4232 22.3746 34.7628 22.0758 35.3742 22.0632C35.9604 22.1382 36.556 22.0573 37.101 21.8286C37.1573 21.7946 37.2038 21.7467 37.2361 21.6895C37.2684 21.6322 37.2854 21.5676 37.2854 21.5019C37.2854 21.4362 37.2684 21.3716 37.2361 21.3143C37.2038 21.2571 37.1573 21.2092 37.101 21.1752C36.602 20.9756 36.0574 20.9183 35.5278 21.0096C32.7816 21.0792 30.4596 21.141 28.4898 21.1956C28.7697 20.6888 28.9039 20.1144 28.8777 19.536C28.8514 18.9576 28.6657 18.3978 28.341 17.9184C29.9388 17.9304 37.1442 17.8818 37.662 17.8752C38.0556 17.9215 38.4544 17.8637 38.8188 17.7078C38.8437 17.6925 38.8643 17.6711 38.8786 17.6456C38.8929 17.62 38.9004 17.5913 38.9004 17.562C38.9004 17.5328 38.8929 17.504 38.8786 17.4785C38.8643 17.4529 38.8437 17.4315 38.8188 17.4162C38.3214 17.1018 37.9188 17.2314 29.0322 17.2314C29.0698 16.1374 29.0096 15.0423 28.8522 13.959C30.7416 13.9206 32.6322 13.8252 34.5198 13.7532C36.5028 13.6782 38.5464 13.7166 40.5144 13.4586C40.5604 13.4584 40.6059 13.4491 40.6482 13.4313C40.6906 13.4135 40.7291 13.3875 40.7614 13.3548C40.7938 13.3221 40.8194 13.2834 40.8367 13.2408C40.8541 13.1983 40.8629 13.1527 40.8627 13.1067C40.8625 13.0607 40.8532 13.0153 40.8354 12.9729C40.8175 12.9305 40.7916 12.892 40.7589 12.8597C40.7262 12.8273 40.6875 12.8017 40.6449 12.7844C40.6023 12.767 40.5568 12.7582 40.5108 12.7584Z" fill="#666666"/>
<path d="M25.9092 29.88C25.8216 29.52 22.3434 30.06 22.2942 30.12C22.0704 30.3852 22.3308 40.146 22.3848 40.8792C22.4034 41.1126 22.3584 41.6076 22.5798 41.7456C23.6014 41.7935 24.625 41.7816 25.6452 41.7102C25.9398 41.5848 25.9452 39.8118 25.9452 39.3798C25.9446 38.5446 26.0904 30.6264 25.9092 29.88Z" fill="#C0C0C0"/>
<path d="M17.181 30.7614C16.4064 30.4956 15.1302 30.2592 14.3526 29.9964C14.2767 29.9762 14.196 29.9866 14.1276 30.0253C14.0593 30.064 14.0089 30.1279 13.9872 30.2034C13.7028 31.8414 11.214 40.7784 11.2002 41.1468C11.1834 41.5806 14.1456 42.3822 14.391 42.2562C14.7996 42.0474 16.785 32.697 17.4132 31.1682C17.4354 31.0835 17.4235 30.9935 17.3801 30.9174C17.3367 30.8414 17.2652 30.7854 17.181 30.7614Z" fill="#C0C0C0"/>
<path d="M23.31 76.7628C22.974 76.7472 22.6372 76.7352 22.2996 76.7268C21.8397 76.4328 21.4636 76.0251 21.2076 75.543C20.7876 74.6286 21.2478 73.611 21.6402 72.7614L22.194 72.7374C22.683 72.7158 22.6842 71.9514 22.194 71.9754L20.934 72.0354C20.679 70.5024 20.349 68.9724 20.121 67.4382C20.1031 67.3744 20.0649 67.3181 20.0122 67.2779C19.9595 67.2378 19.8951 67.2159 19.8288 67.2156L19.6554 67.2282C19.1754 66.684 17.3832 65.8896 18.672 63.5544C18.933 63.537 19.1928 63.522 19.452 63.5052C19.8468 63.4806 19.8504 62.8614 19.452 62.8878C16.899 63.0474 9.34321 63.5172 8.11681 63.5988C6.93421 63.6774 4.30261 63.6204 4.12681 63.7188C3.22681 64.2072 2.83201 65.7774 3.06361 66.7236C3.16325 67.0795 3.34564 67.4068 3.59591 67.6787C3.84617 67.9507 4.1572 68.1596 4.50361 68.2884C4.73413 68.3283 4.96868 68.3398 5.20201 68.3226C5.18821 68.3658 6.34981 69.855 6.34201 70.8486C6.28702 71.5069 6.07799 72.143 5.73181 72.7056L4.21921 72.774C4.11198 72.7748 4.00936 72.8177 3.93348 72.8934C3.8576 72.9692 3.81455 73.0718 3.81361 73.179C3.94381 74.5194 3.60901 77.721 4.70161 77.784C7.77841 77.964 10.9266 77.853 14.0052 77.8194C17.0838 77.7858 20.2326 77.916 23.31 77.6994C23.4342 77.6994 23.5533 77.65 23.6411 77.5622C23.729 77.4744 23.7783 77.3553 23.7783 77.2311C23.7783 77.1069 23.729 76.9878 23.6411 76.8999C23.5533 76.8121 23.4342 76.7628 23.31 76.7628ZM4.93321 67.7094C3.03481 66.4884 4.27321 65.3136 4.49221 64.3338C5.48401 64.4328 4.66501 64.434 17.9784 63.5994C17.6188 64.1862 17.4808 64.8823 17.5894 65.562C17.698 66.2416 18.046 66.86 18.5706 67.3056C14.241 67.6056 9.91141 67.7778 5.57581 67.9752C5.348 67.9239 5.13066 67.834 4.93321 67.7094ZM5.76481 68.34C10.3734 68.46 14.9736 68.1708 19.572 67.8408C19.7676 69.246 19.8894 70.6698 20.067 72.0792C15.5814 72.288 11.0958 72.4692 6.61021 72.6666C6.92279 72.0709 7.08548 71.4079 7.08421 70.7352C7.07725 70.2584 6.9533 69.7907 6.72324 69.373C6.49318 68.9554 6.16406 68.6006 5.76481 68.34ZM14.0052 76.86C10.959 76.8984 7.83541 76.7832 4.80301 77.1C4.87097 75.9181 4.82214 74.7323 4.65721 73.56C10.0992 73.3098 15.54 73.0266 20.9832 72.7878C20.0016 73.7526 20.0832 75.6384 20.9532 76.7082C18.6384 76.71 16.3068 76.8312 14.0052 76.86Z" fill="#666666"/>
<path d="M20.4672 58.1466C20.325 58.1532 8.93998 58.6716 8.41618 58.7862C7.63138 58.9566 8.07958 60.1884 8.09218 60.7404C8.11498 61.7742 8.33218 62.9988 9.60058 62.9556C13.2006 62.8356 16.959 62.6064 19.845 62.3628C20.475 62.3088 20.385 62.1426 20.0772 61.731C19.7946 61.3566 19.7172 59.2512 19.8882 58.6878L20.469 58.6602C20.796 58.6446 20.7978 58.1316 20.4672 58.1466Z" fill="#C0C0C0"/>
<path d="M17.49 57.1866C17.2915 57.1215 17.082 57.0964 16.8738 57.1128C16.6766 56.7399 16.6216 56.3082 16.719 55.8978C16.839 55.0578 17.0442 54.8652 17.0442 54.8652C17.0442 54.8652 17.5374 54.8712 17.6958 54.6642C17.7253 54.6284 17.7443 54.5852 17.7507 54.5393C17.7571 54.4933 17.7506 54.4465 17.7319 54.4041C17.7132 54.3617 17.6831 54.3252 17.645 54.2989C17.6068 54.2726 17.5621 54.2574 17.5158 54.255C17.0592 54.2226 6.17039 54.3324 5.50739 54.375C5.07899 54.3996 5.06519 54.8976 5.02319 55.2582C4.96014 55.8872 5.00232 56.5223 5.14799 57.1374C5.34659 58.0104 5.65979 58.1208 6.47699 58.104C7.84559 58.0686 16.557 57.7704 17.037 57.789C17.6868 57.8058 17.628 57.2742 17.49 57.1866Z" fill="#C0C0C0"/>
<path d="M32.946 41.8248C31.0374 41.6844 29.676 41.718 21.6192 42.1626C21.7344 40.5948 21.4176 35.4906 21.4074 34.6836C21.3972 33.8232 21.5196 31.734 21.1074 31.6788C20.0307 31.607 18.9497 31.6399 17.8794 31.7772C17.7761 31.778 17.6773 31.8193 17.6043 31.8922C17.5312 31.9652 17.4897 32.0639 17.4888 32.1672C18.2472 39.5064 17.5446 41.1162 17.7612 42.3672C13.9782 42.5472 10.1628 42.687 6.42599 43.2402C6.23819 43.2678 6.29639 43.5402 6.46559 43.5516C10.3116 43.7652 13.3758 43.584 25.2738 43.0848C27.8709 43.0585 30.4639 42.8733 33.0384 42.5304C33.4632 42.4608 33.3252 41.8524 32.946 41.8248ZM18.432 42.3354C18.6642 41.3238 18.372 33.5634 18.2964 32.5314C19.136 32.5134 19.9733 32.4378 20.8026 32.3052C20.7066 33.1014 20.7924 40.2534 21.1386 42.189C19.7016 42.2688 19.38 42.288 18.432 42.3354Z" fill="#666666"/>
<path d="M29.1048 37.5306C29.0862 36.126 29.1234 34.7238 29.1306 33.321C29.1306 33.1182 29.0418 32.7588 27.5868 32.937C27.2468 32.9342 26.9072 32.9603 26.5716 33.015C26.4123 34.9088 26.4045 36.8122 26.5482 38.7072C26.5956 39.4602 26.5236 40.3272 26.5992 41.0766C26.6072 41.1762 26.6438 41.2714 26.7045 41.3507C26.7653 41.43 26.8477 41.4901 26.9418 41.5236C27.651 41.6661 28.3832 41.6456 29.0832 41.4636C29.1522 41.4 29.1138 38.2266 29.1048 37.5306Z" fill="#C0C0C0"/>
<path d="M104.22 21.0054C103.734 20.7486 100.089 20.9046 85.8486 21.3924C85.4712 17.6382 84.5562 12.4068 84.4194 11.3298C84.3594 10.8612 84.3168 10.2834 83.7252 10.2066C83.112 10.1268 80.7306 9.99598 80.3052 10.191C79.8702 10.3908 80.0946 11.031 80.1546 11.3988C80.247 11.9748 81.4452 19.2894 81.5946 21.1266C81.6192 21.4266 82.1016 21.3942 82.0542 21.1086C81.7422 19.2486 81.6654 17.3508 81.3942 15.4806C81.2634 14.5896 80.7552 10.7406 80.7552 10.7406C81.8073 10.6057 82.8741 10.6399 83.9154 10.842C83.8806 12.1344 84.918 19.8456 85.1706 21.4152C81.8994 21.5274 78.4464 21.6468 75.4746 21.7518C75.2814 19.9896 75.2658 18.2118 75.0816 16.4436C74.988 15.5478 74.5218 11.5656 74.4084 11.5116C73.4706 11.1146 72.4191 11.0787 71.4564 11.4108C71.3754 10.9404 71.28 10.4742 71.1654 10.0152C70.5467 9.87581 69.9077 9.85141 69.2802 9.94318C68.8914 10.0062 67.8126 10.0062 67.9098 10.7622C68.073 12.0294 68.9208 20.5932 69.1944 21.9786L68.5944 22.002C68.5387 22.002 68.4853 22.0241 68.4459 22.0635C68.4065 22.1029 68.3844 22.1563 68.3844 22.212C68.3844 22.2677 68.4065 22.3211 68.4459 22.3605C68.4853 22.3999 68.5387 22.422 68.5944 22.422C73.7148 22.3734 96.5466 22.0746 97.161 22.062C97.761 22.05 103.694 21.9732 104.222 21.6594C104.279 21.6254 104.325 21.5773 104.358 21.5198C104.39 21.4624 104.407 21.3976 104.407 21.3317C104.406 21.2658 104.389 21.2011 104.356 21.1439C104.324 21.0867 104.277 21.039 104.22 21.0054ZM69.8034 21.9564C69.7539 21.0051 69.6552 20.057 69.5076 19.116C69.3876 17.9892 68.5884 10.7982 68.5476 10.6782C69.3261 10.5118 70.1284 10.4888 70.9152 10.6104C70.9248 12.4572 71.2224 14.1258 71.4066 15.957C71.6034 17.907 71.862 19.9254 72.0954 21.8724C71.2272 21.9036 70.4544 21.9318 69.8034 21.9564ZM72.7236 21.8496C72.4896 19.7562 71.7426 13.1958 71.5164 11.7756C72.0444 11.8776 72.3252 11.7156 73.7022 11.8644C74.0547 13.4163 74.2953 14.9916 74.4222 16.578C74.6154 18.3024 74.9412 20.034 75.042 21.7674L72.7236 21.8496Z" fill="#666666"/>
<path d="M113.327 41.826C111.632 41.76 110.906 41.766 107.612 41.8338C106.87 38.82 106.052 35.4102 105.572 32.3592C105.555 32.2947 105.516 32.2378 105.463 32.1973C105.41 32.1567 105.345 32.1348 105.278 32.1348C104.324 32.1564 103.37 32.1564 102.416 32.181C102.233 32.1858 102.014 32.3502 102.041 32.556C102.096 32.9784 102.154 33.3998 102.216 33.8202C101.544 33.8167 100.875 33.89 100.22 34.0386C100.082 34.0614 100.123 34.395 100.123 34.4238C100.147 35.8692 100.493 36.333 101.517 41.9652C100.354 41.9892 99.0468 42.0156 97.5732 42.0444C97.0776 39.5514 96.0414 31.479 95.7582 31.3644C95.2184 31.229 94.6557 31.2122 94.1088 31.3152C93.6717 31.3117 93.2361 31.3687 92.8146 31.4844C92.7782 31.274 92.7394 31.0636 92.6982 30.8532C92.6789 30.7829 92.637 30.7208 92.579 30.6766C92.521 30.6324 92.4501 30.6084 92.3772 30.6084C91.4772 30.6546 90.2274 30.4884 89.4084 30.8928C89.334 30.9288 89.3304 30.2292 89.553 42.1836C85.2187 42.2019 80.8883 42.4422 76.5786 42.9036C76.3806 42.9264 76.5786 43.2216 76.5786 43.2216C81.2586 43.3482 102.118 43.077 103.823 43.0476C106.998 43.0586 110.171 42.8929 113.328 42.5514C113.424 42.5513 113.516 42.513 113.584 42.445C113.652 42.3769 113.69 42.2846 113.69 42.1884C113.69 42.0922 113.652 42 113.584 41.932C113.516 41.8641 113.424 41.8259 113.327 41.826ZM90.3342 42.1686C90.2742 40.8078 89.862 31.8966 89.8032 31.2636C90.5634 31.3603 91.3325 31.3656 92.094 31.2792C92.5446 34.4172 93.276 38.8848 93.3078 42.1236C92.3046 42.14 91.3134 42.155 90.3342 42.1686ZM94.083 42.1086C93.7608 39.1128 93.3732 34.8402 92.8926 31.9266C93.371 31.9993 93.8567 32.0106 94.338 31.9602C94.6915 31.9692 95.045 31.9491 95.3952 31.9002C95.3352 32.7162 96.468 41.2548 96.6144 42.0588C96.135 42.0726 94.5666 42.1026 94.083 42.111V42.1086ZM102.405 41.9442C101.215 36.8232 101.215 35.8026 100.712 34.4586C101.242 34.5389 101.781 34.5122 102.3 34.38C102.647 36.6702 103.443 39.0228 103.902 41.2932C103.95 41.5332 104.296 41.4252 104.262 41.1948C103.86 38.4618 103.176 35.6472 102.835 32.9064C103.567 32.862 104.297 32.808 105.029 32.7618C105.581 35.7048 106.191 38.9298 106.904 41.8512C105.731 41.8752 104.27 41.9076 102.405 41.9466V41.9442Z" fill="#666666"/>
<path d="M108.954 59.3358C108.401 59.0808 108.644 59.1948 101.204 59.4468C98.5511 59.4407 95.8994 59.5781 93.261 59.8584C93.0588 59.8878 93.1296 60.1776 93.3072 60.195C93.6624 60.2268 94.02 60.2502 94.3764 60.267C94.4058 60.591 94.4826 60.9156 94.5258 61.2378C94.5508 61.6172 94.6121 61.9933 94.7088 62.361C94.7256 62.4147 94.7591 62.4617 94.8044 62.495C94.8497 62.5284 94.9045 62.5463 94.9608 62.5463C95.0171 62.5463 95.0719 62.5284 95.1172 62.495C95.1625 62.4617 95.196 62.4147 95.2128 62.361C95.3922 61.6735 95.3375 60.9458 95.0574 60.2928C97.4394 60.3558 98.9646 60.1866 105.305 60.09C105.965 60.0798 107.614 59.892 108.794 59.943C109.029 60.1685 109.192 60.4583 109.263 60.7762C109.334 61.094 109.31 61.4257 109.193 61.7298C109 62.1276 108.653 62.2698 108.343 62.4876C105.987 62.5512 95.1534 63.0492 94.452 63.102C94.4265 63.102 94.4021 63.1121 94.3841 63.1302C94.3661 63.1482 94.356 63.1726 94.356 63.198C94.356 63.2235 94.3661 63.2479 94.3841 63.2659C94.4021 63.2839 94.4265 63.294 94.452 63.294C94.5978 63.2982 94.7436 63.3012 94.89 63.306C95.3474 63.8204 95.6984 64.4204 95.9226 65.0712C96.03 65.586 95.7132 66.543 95.1294 66.6876C94.955 66.6988 94.7832 66.7353 94.6194 66.7962C94.4676 66.8874 94.518 67.0452 94.644 67.1466C94.824 67.2912 108.708 66.6414 109.075 66.4614C109.207 66.3863 109.316 66.2757 109.388 66.142C109.461 66.0084 109.494 65.8572 109.485 65.7054C109.464 64.7772 109.331 63.8549 109.088 62.9586C109.549 62.6806 109.894 62.2467 110.062 61.7358C110.314 60.8046 109.064 59.3868 108.954 59.3358ZM96.0714 66.6954C96.3706 66.4005 96.5516 66.0064 96.5802 65.5872C96.6402 64.6026 96.0402 63.9144 95.3598 63.318C97.4292 63.3738 99.4998 63.375 101.569 63.369C103.898 63.3612 106.239 63.4782 108.565 63.4092C108.581 64.1426 108.671 64.8725 108.836 65.5872C108.326 65.5842 98.472 66.3864 96.0714 66.6954Z" fill="#666666"/>
<path d="M78.3954 54.7284C78.069 52.8648 76.884 48.1818 75.2754 46.818C74.0064 45.738 71.541 45.8532 70.1442 46.575C56.3256 53.7204 52.44 52.44 51.0072 54.5502C50.2188 55.71 49.6734 56.091 48.1476 56.9886C47.0388 57.6414 47.5272 59.6358 47.724 60.6984C47.9619 62.1042 48.5294 63.4337 49.38 64.578C52.653 68.8428 58.4136 67.113 62.7768 64.011C64.5324 62.7645 66.2152 61.4185 67.8168 59.9796C68.2525 59.4802 68.6136 58.9204 68.889 58.3176C69.2364 57.3696 69.369 56.265 69.8094 55.3674C69.8487 55.3038 69.9056 55.2529 69.9732 55.2208C70.0408 55.1887 70.1161 55.1768 70.1903 55.1866C70.2645 55.1964 70.3342 55.2273 70.3912 55.2758C70.4481 55.3243 70.4899 55.3882 70.5114 55.4598C70.6667 56.3026 70.5567 57.1728 70.1964 57.9504C69.9168 58.6536 69.3684 59.5218 69.5202 60.321C70.3376 62.1615 71.4677 63.8464 72.8604 65.301C73.9956 66.4302 75.4632 69.2862 76.1496 70.9734C76.44 71.6892 80.2578 71.1468 81.0954 71.0592C84.2676 70.7232 79.1118 58.8156 78.3954 54.7284Z" fill="#666666"/>
<path d="M56.79 22.4868C56.7927 22.6754 56.8148 22.8632 56.856 23.0472C56.8835 23.1463 56.9427 23.2337 57.0245 23.296C57.1064 23.3582 57.2064 23.392 57.3093 23.392C57.4121 23.392 57.5122 23.3582 57.594 23.296C57.6759 23.2337 57.7351 23.1463 57.7626 23.0472C57.7794 22.9398 57.7962 22.5672 57.7932 22.4868C57.7932 22.3538 57.7403 22.2262 57.6463 22.1321C57.5522 22.0381 57.4246 21.9852 57.2916 21.9852C57.1585 21.9852 57.031 22.0381 56.9369 22.1321C56.8428 22.2262 56.79 22.3538 56.79 22.4868Z" fill="#666666"/>
<path d="M52.1346 23.2608C52.1806 23.4378 52.2387 23.6114 52.3086 23.7804C52.3386 23.8885 52.4103 23.9803 52.508 24.0356C52.6057 24.0908 52.7213 24.105 52.8294 24.075C52.9376 24.045 53.0293 23.9733 53.0846 23.8756C53.1398 23.7779 53.154 23.6623 53.124 23.5542C53.0592 23.3453 52.979 23.1416 52.884 22.9446C52.8331 22.8595 52.7532 22.7957 52.659 22.7648C52.5648 22.734 52.4626 22.7382 52.3712 22.7766C52.2798 22.8151 52.2054 22.8852 52.1616 22.9742C52.1178 23.0631 52.1076 23.1649 52.1328 23.2608H52.1346Z" fill="#666666"/>
<path d="M51.2742 22.5204C51.4961 22.1388 51.8335 21.8375 52.2378 21.66C52.2956 21.6269 52.3435 21.5789 52.3767 21.5212C52.4099 21.4634 52.4272 21.3978 52.4268 21.3312C52.4268 21.2728 52.4133 21.2151 52.3874 21.1627C52.3615 21.1103 52.3239 21.0645 52.2775 21.029C52.2311 20.9935 52.1771 20.9692 52.1197 20.9579C52.0624 20.9466 52.0032 20.9487 51.9468 20.964C51.6435 21.0541 51.3716 21.2274 51.1618 21.4642C50.952 21.701 50.8128 21.9919 50.76 22.3038C50.7 22.599 51.12 22.8228 51.2742 22.5204Z" fill="#666666"/>
<path d="M56.6562 20.778C57.285 21.0606 57.8052 21.594 58.2354 21.558C58.3018 21.5566 58.3651 21.5296 58.412 21.4827C58.459 21.4357 58.486 21.3724 58.4874 21.306C58.4874 20.5146 57.3678 20.3058 56.7792 20.3244C56.5566 20.3328 56.4228 20.673 56.6562 20.778Z" fill="#666666"/>
</svg>
