<svg width="120" height="120" viewBox="0 0 120 120" fill="none" xmlns="http://www.w3.org/2000/svg">
<path d="M14.7804 49.5204C15.237 51.1356 19.2204 81.5934 20.1876 85.3854C22.6476 84.7008 25.1028 84.0162 27.5604 83.3136C27.4902 81.4704 24.1896 52.3998 22.7502 48.2394C21.6972 48.4848 16.2378 49.38 14.7804 49.5204Z" fill="#C0C0C0"/>
<path d="M28.14 53.049C30.102 52.5428 32.1054 52.2139 34.1262 52.0662C34.863 54.3306 37.356 76.5726 37.953 80.0664C35.7588 80.7156 33.564 81.3828 31.3698 82.0326C31.212 80.733 28.8246 56.7882 28.14 53.049Z" fill="#C0C0C0"/>
<path d="M39.4452 56.9112C40.2852 56.8062 44.3256 56.3112 45.4662 56.1912C45.642 57.648 47.6082 75.5538 48.1524 77.8008L41.727 79.17C41.1654 78.0474 39.7434 60.0186 39.4452 56.9112Z" fill="#C0C0C0"/>
<path d="M50.4522 63.1434L55.824 62.757L56.3502 75.3966L51.7686 76.5C51.4524 75.0102 50.4342 65.724 50.4522 63.1434Z" fill="#C0C0C0"/>
<path d="M33.6168 11.7774V23.961C33.6168 23.7498 37.8474 21.9066 37.8828 21.8364C37.9356 21.7314 37.5654 21.5928 37.4628 21.5208C36.6096 20.9286 36.9384 19.9668 37.8828 20.0106C38.4807 20.203 39.0526 20.4684 39.5856 20.8008C39.8484 20.9418 39.9198 20.9082 40.2 20.8008C40.6932 20.6118 43.0086 19.572 43.6584 19.2558C42.9343 17.1418 41.5878 15.2963 39.7957 13.9616C38.0035 12.6269 35.8496 11.8655 33.6168 11.7774Z" fill="#C0C0C0"/>
<path d="M31.194 16.5702L32.1774 27.3138C33.2658 26.8224 38.2866 24.8382 38.3394 24.8538C38.3922 24.8694 38.427 25.0644 38.3568 25.0818C38.2817 25.0981 38.2125 25.1347 38.1567 25.1876C38.101 25.2405 38.0608 25.3076 38.0406 25.3818C38.0171 25.5571 38.0229 25.7352 38.058 25.9086C38.058 25.944 37.6896 26.418 37.6896 26.6814C37.6965 26.9465 37.7689 27.2058 37.9002 27.4362C38.1783 27.8693 38.566 28.2212 39.024 28.4562C39.5802 28.7353 40.155 28.9758 40.7442 29.1762C41.4562 29.4148 42.217 29.4693 42.9558 29.3346C42.9842 30.5092 42.775 31.6774 42.3406 32.7691C41.9062 33.8608 41.2556 34.8534 40.428 35.6874C37.0314 39.102 31.02 39.5346 26.8758 36.5478C23.082 33.8112 21.8706 28.9458 22.8732 24.891C23.387 22.8856 24.4304 21.0551 25.8943 19.5913C27.3581 18.1274 29.1886 17.084 31.194 16.5702Z" fill="#C0C0C0"/>
<path d="M61.2132 80.1888C54.9132 81.6288 15.0084 92.3544 13.3758 92.8986C13.113 91.266 8.91539 54.0186 6.44159 47.5896C6.4252 47.5436 6.39191 47.5056 6.34848 47.4833C6.30506 47.4609 6.25476 47.456 6.20782 47.4695C6.16088 47.4829 6.12084 47.5137 6.09583 47.5557C6.07082 47.5976 6.06272 47.6475 6.07319 47.6952C7.37519 53.7858 12.1566 91.5498 12.7794 93.4428C12.8622 93.696 13.0266 93.6714 13.1832 93.6714C14.7804 93.3714 57.3378 81.9666 61.2834 80.5578C61.545 80.4642 61.44 80.1372 61.2132 80.1888Z" fill="#666666"/>
<path d="M13.8498 99.8154C20.0178 98.325 59.1918 86.8878 60.8622 86.298C60.9449 86.2717 61.0143 86.2146 61.0559 86.1384C61.0974 86.0622 61.108 85.9729 61.0853 85.8892C61.0626 85.8054 61.0084 85.7337 60.9341 85.6889C60.8598 85.6441 60.7711 85.6297 60.6864 85.6488C59.1624 85.9488 17.133 98.2356 13.7622 99.4488C13.7358 99.4521 13.7103 99.461 13.6875 99.4748C13.6647 99.4886 13.6451 99.5071 13.6299 99.529C13.6148 99.5509 13.6044 99.5757 13.5995 99.6019C13.5946 99.6281 13.5952 99.6551 13.6014 99.681C13.6076 99.7069 13.6192 99.7312 13.6354 99.7524C13.6516 99.7735 13.6722 99.791 13.6956 99.8037C13.719 99.8164 13.7449 99.824 13.7714 99.826C13.798 99.828 13.8247 99.8244 13.8498 99.8154Z" fill="#666666"/>
<path d="M16.6062 103.45C19.8132 102.921 53.1348 94.173 54.6654 93.5658C54.7481 93.5396 54.8175 93.4824 54.859 93.4062C54.9006 93.33 54.9112 93.2408 54.8885 93.157C54.8658 93.0732 54.8116 93.0015 54.7373 92.9567C54.663 92.9119 54.5742 92.8975 54.4896 92.9166C52.878 93.2334 19.6116 102.179 16.5006 103.081C16.4531 103.096 16.4134 103.129 16.3898 103.173C16.3663 103.217 16.3608 103.268 16.3746 103.316C16.3883 103.364 16.4201 103.405 16.4634 103.43C16.5066 103.455 16.5578 103.462 16.6062 103.45Z" fill="#666666"/>
<path d="M6.84541 32.1942C6.82663 32.1334 6.7926 32.0785 6.74657 32.0346C6.70054 31.9907 6.64404 31.9593 6.58244 31.9434C6.52085 31.9276 6.45622 31.9277 6.3947 31.9439C6.33319 31.9601 6.27683 31.9917 6.23101 32.0358C5.39748 32.6713 4.39651 33.0496 3.35101 33.1242C3.17521 33.1392 2.98201 33.2826 3.00001 33.4758C3.17416 35.502 3.56849 37.5032 4.17601 39.444C4.20225 39.5174 4.25388 39.579 4.32155 39.6176C4.38923 39.6562 4.46849 39.6693 4.54501 39.6546C5.56417 39.5312 6.5655 39.2895 7.52881 38.9346C7.5758 38.919 7.61495 38.8859 7.63811 38.8422C7.66126 38.7984 7.66662 38.7474 7.65308 38.6998C7.63953 38.6522 7.60812 38.6117 7.5654 38.5867C7.52268 38.5617 7.47195 38.5541 7.42381 38.5656C6.51121 38.6922 5.59801 38.8992 4.68541 39.0396C4.21233 37.3221 3.89504 35.5653 3.73741 33.7908C4.65684 33.6921 5.54041 33.3796 6.31741 32.8782C6.54541 33.5454 7.30561 36.7386 7.58101 37.6356C7.68841 37.986 8.26441 37.9356 8.24821 37.5474C8.17381 35.7402 7.47181 33.8466 6.84541 32.1942Z" fill="#666666"/>
<path d="M10.392 19.3614C10.3662 19.2757 10.3075 19.2037 10.2289 19.161C10.1502 19.1183 10.0579 19.1084 9.972 19.1334C8.9232 19.3164 7.8654 19.4664 6.8298 19.7124C6.74171 19.7358 6.66646 19.7931 6.62049 19.8718C6.57451 19.9505 6.56153 20.0442 6.5844 20.1324C7.8204 26.076 8.9376 32.0172 9.7968 38.0208C9.8126 38.0751 9.84034 38.1252 9.87799 38.1674C9.91563 38.2097 9.96223 38.243 10.0144 38.2649C10.0665 38.2868 10.1229 38.2968 10.1794 38.2941C10.236 38.2914 10.2911 38.2761 10.341 38.2494C11.1058 37.8503 11.9417 37.6057 12.801 37.5294C13.1868 37.476 13.0818 36.8796 12.7134 36.8622C11.9305 36.8485 11.1551 37.017 10.4484 37.3542C9.6028 31.6318 8.56 25.9444 7.32 20.292C8.1276 20.1162 8.9526 19.9584 9.78 19.818C10.8156 24.9966 11.6538 30.2472 13.0272 35.3364C13.0938 35.583 13.4316 35.4768 13.3962 35.2308C12.6186 29.9094 11.382 24.6504 10.392 19.3614Z" fill="#666666"/>
<path d="M19.3098 35.3364C18.6864 30.7728 17.799 26.2536 16.8696 21.7488C16.8557 21.6974 16.8301 21.6499 16.7949 21.6099C16.7598 21.5699 16.7159 21.5386 16.6667 21.5182C16.6175 21.4979 16.5643 21.4891 16.5111 21.4926C16.458 21.496 16.4064 21.5116 16.3602 21.5382C15.4387 21.9409 14.4716 22.2298 13.4802 22.3986C13.4385 22.4097 13.3994 22.4291 13.3653 22.4555C13.3311 22.482 13.3026 22.515 13.2814 22.5526C13.2601 22.5902 13.2466 22.6316 13.2416 22.6745C13.2366 22.7174 13.2402 22.7609 13.2522 22.8024C14.1168 26.7156 14.5644 30.6672 15.2184 34.6164C15.2532 34.827 15.6042 34.7748 15.5868 34.5642C15.3856 30.6622 14.8397 26.7857 13.9554 22.98C14.7386 22.8194 15.5077 22.5963 16.2552 22.3128C17.0628 26.6144 17.8176 30.9212 18.5196 35.2332C17.7694 35.5782 16.9696 35.8033 16.1496 35.9004C15.7458 35.9694 15.8862 36.5376 16.2378 36.5676C17.2579 36.5998 18.2632 36.3179 19.1178 35.76C19.1908 35.7191 19.2488 35.6559 19.2833 35.5797C19.3179 35.5035 19.3271 35.4182 19.3098 35.3364Z" fill="#666666"/>
<path d="M110.788 87.5448C109.753 87.4392 105.785 87.6648 104.855 87.7026C104.949 85.8827 104.919 84.0585 104.767 82.2426C104.719 82.1096 104.634 81.9936 104.521 81.909C103.667 81.6524 102.755 81.661 101.905 81.9336C101.056 82.2063 100.309 82.7301 99.7638 83.436C99.2759 84.1299 98.9328 84.915 98.7548 85.7444C98.5769 86.5738 98.5679 87.4306 98.7282 88.2636C99.4242 92.3202 104.168 94.5444 107.804 92.6874C108.734 92.2228 109.521 91.513 110.078 90.6344C110.635 89.7559 110.941 88.7419 110.964 87.702C110.964 87.6672 110.806 87.5448 110.788 87.5448ZM106.961 92.4246C105.851 92.8005 104.654 92.8376 103.522 92.5313C102.39 92.225 101.375 91.5891 100.606 90.7044C98.5962 88.3236 99.1878 84.4842 101.186 83.103C102.099 82.4718 103.046 82.5414 104.066 82.5942C103.925 84.402 104.136 86.298 104.153 88.089C104.154 88.1818 104.192 88.2706 104.258 88.3362C104.323 88.4018 104.412 88.4391 104.505 88.44C105.61 88.3548 109.648 88.14 110.561 87.9834C110.407 88.9757 109.993 89.9095 109.361 90.6897C108.728 91.4698 107.9 92.0684 106.961 92.4246Z" fill="#666666"/>
<path d="M110.033 67.1634C109.998 67.1106 109.823 67.128 109.805 67.128C108.928 67.6722 106.259 69.9894 105.715 70.446C106.275 68.9412 106.704 67.3906 106.996 65.8116C107.018 65.6538 106.803 65.4078 106.768 65.3916C105.537 64.9767 104.211 64.9406 102.959 65.2879C101.708 65.6352 100.589 66.35 99.7482 67.3398C97.0896 70.8198 99.2334 76.8198 103.891 77.5572C105.029 77.73 106.192 77.6095 107.27 77.207C108.349 76.8046 109.306 76.1335 110.053 75.2574C110.969 74.1064 111.466 72.678 111.462 71.207C111.459 69.736 110.955 68.31 110.033 67.1634ZM109.946 74.3958C109.34 75.2602 108.52 75.9524 107.566 76.4047C106.612 76.8569 105.557 77.0537 104.504 76.9758C100.536 76.6758 98.0838 71.9154 99.9216 68.4444C100.505 67.3685 101.479 66.5577 102.643 66.1794C103.795 65.8464 105.009 65.7864 106.189 66.0042C105.522 67.7244 105.187 69.6426 104.679 71.3934C104.661 71.4691 104.668 71.5485 104.699 71.62C104.729 71.6915 104.782 71.7513 104.849 71.7905C104.916 71.8298 104.994 71.8465 105.072 71.8382C105.149 71.8299 105.222 71.797 105.279 71.7444C106.101 71.0592 109.211 68.3562 109.879 67.6194C111.052 69.7266 111.352 72.291 109.946 74.3958Z" fill="#666666"/>
<path d="M116.634 53.2422C116.213 52.6107 115.581 52.1494 114.851 51.9406C114.121 51.7318 113.34 51.789 112.649 52.1022C112.017 51.1368 95.1996 29.5968 93.5316 27.6822C93.5844 27.6648 96.5682 26.1906 95.1816 23.3466C94.5144 21.9774 92.1876 21.3846 90.9162 22.3806C90.8274 22.4502 88.6866 23.7678 89.424 26.1198C88.5108 26.4888 84.93 28.4196 84.0168 28.8936C83.5254 27.8052 81.3132 23.3226 80.6286 22.2228C80.6044 22.1853 80.5678 22.1573 80.5253 22.1438C80.4827 22.1302 80.4368 22.1319 80.3953 22.1485C80.3538 22.1651 80.3194 22.1955 80.2979 22.2347C80.2765 22.2739 80.2693 22.3193 80.2776 22.3632C80.5968 23.5782 82.9668 28.3116 83.5428 29.5434C83.566 29.5824 83.5966 29.6166 83.633 29.6438C83.6694 29.671 83.7108 29.6907 83.7549 29.7018C83.7989 29.713 83.8447 29.7153 83.8897 29.7087C83.9346 29.7021 83.9778 29.6867 84.0168 29.6634C85.0176 29.1546 88.8972 27.294 89.7396 26.7498C90.1288 27.2414 90.6557 27.6058 91.253 27.7965C91.8503 27.9872 92.491 27.9954 93.093 27.8202C94.5672 29.9448 111.209 51.6402 112.087 52.5906C111.453 53.002 111.001 53.6399 110.821 54.374C110.642 55.1081 110.749 55.8829 111.122 56.5404C111.947 57.8568 113.809 58.1604 115.142 57.5232C116.688 56.7906 117.525 54.7542 116.634 53.2422ZM90.1614 26.19C90.1434 26.1198 89.424 24.03 91.0014 22.9776C91.0542 22.995 92.9856 21.8712 94.3722 23.4516C95.373 24.5916 94.6386 26.4078 93.3714 26.9976C92.8268 27.2622 92.2064 27.3262 91.6193 27.1785C91.0321 27.0308 90.5159 26.6808 90.1614 26.19ZM114.808 56.91C113.721 57.4212 112.178 57.1542 111.578 56.0322C110.967 54.8922 111.596 53.6802 112.456 52.89C112.508 52.9074 114.634 51.888 115.826 53.364C116.776 54.54 116.074 56.3166 114.808 56.9112V56.91Z" fill="#666666"/>
<path d="M77.8554 15.6924C77.1188 13.7258 76.2446 11.8134 75.2394 9.9696C75.7997 9.52249 76.1879 8.8953 76.3383 8.19448C76.4887 7.49365 76.3919 6.76239 76.0644 6.1248C75.2844 4.8114 73.0704 4.1634 71.799 5.1594C71.7102 5.229 68.6742 6.6516 70.6752 9.5832C69.7974 10.2 60.1422 18.1854 59.2998 19.0452C58.7944 18.6219 58.1701 18.3657 57.513 18.3119C56.8559 18.2582 56.1983 18.4096 55.6308 18.7452C53.931 19.9086 53.5398 21.66 54.3846 23.0112C55.2078 24.3312 57.0696 24.6246 58.4046 23.994C59.931 23.274 60.897 20.8344 59.6334 19.377C60.5112 18.798 70.3242 10.986 71.202 10.1256C72.15 10.8276 74.046 10.9656 74.8356 10.3014C75.5154 12.2491 76.3248 14.1492 77.2584 15.9888C77.307 16.0499 77.375 16.0924 77.4511 16.1094C77.5272 16.1264 77.6069 16.1167 77.6768 16.082C77.7466 16.0473 77.8025 15.9897 77.835 15.9188C77.8675 15.8479 77.8747 15.768 77.8554 15.6924ZM58.0554 23.3814C56.9682 23.8926 55.4256 23.6256 54.8256 22.5036C54.2142 21.3636 54.843 20.1516 55.7034 19.3614C55.7562 19.3788 57.6756 18.4944 59.0736 19.8354C60.165 20.8836 59.3184 22.7868 58.053 23.3814H58.0554ZM74.22 9.7938C73.341 10.1946 71.6658 10.2282 70.9902 8.916C70.4004 7.7712 71.0076 6.564 71.868 5.7738C71.9202 5.7912 73.9254 4.7352 75.2382 6.2478C76.2432 7.404 75.501 9.2106 74.22 9.7938Z" fill="#666666"/>
<path d="M114.387 53.9622C114.193 53.8288 113.965 53.7537 113.729 53.7457C113.494 53.7376 113.261 53.7969 113.058 53.9167C112.855 54.0364 112.691 54.2116 112.584 54.4217C112.478 54.6317 112.433 54.8678 112.456 55.1022C112.587 55.8936 113.471 56.6076 114.211 56.0676C114.572 55.8133 114.833 55.4405 114.949 55.014C114.953 54.8052 114.904 54.5988 114.805 54.4146C114.707 54.2304 114.563 54.0746 114.387 53.9622Z" fill="#666666"/>
<path d="M93.093 23.8908C92.8989 23.7573 92.6706 23.682 92.4351 23.6738C92.1996 23.6657 91.9666 23.725 91.7637 23.8448C91.5608 23.9645 91.3963 24.1398 91.2896 24.3499C91.1829 24.5601 91.1385 24.7963 91.1616 25.0308C91.293 25.8228 92.1774 26.5368 92.9172 25.9968C93.2816 25.7456 93.5433 25.3716 93.6546 24.9432C93.6651 24.7334 93.6184 24.5246 93.5195 24.3393C93.4206 24.1539 93.2732 23.9989 93.093 23.8908Z" fill="#666666"/>
<path d="M73.9758 6.68701C73.7816 6.55348 73.5534 6.4782 73.3179 6.47004C73.0824 6.46188 72.8494 6.52119 72.6465 6.64097C72.4436 6.76075 72.2791 6.93602 72.1724 7.14614C72.0657 7.35627 72.0213 7.5925 72.0444 7.82701C72.1758 8.61901 73.0602 9.33301 73.8 8.79301C74.1611 8.53855 74.422 8.16586 74.5374 7.73941C74.5418 7.53057 74.4925 7.32409 74.3942 7.1398C74.2958 6.9555 74.1518 6.79959 73.9758 6.68701Z" fill="#666666"/>
<path d="M57.7902 20.5902C57.596 20.4569 57.3678 20.3819 57.1323 20.3738C56.8969 20.3658 56.6641 20.4251 56.4613 20.5449C56.2584 20.6646 56.094 20.8397 55.9873 21.0497C55.8805 21.2597 55.836 21.4958 55.8588 21.7302C55.9902 22.5216 56.874 23.2362 57.6144 22.6956C57.9755 22.4414 58.2364 22.0689 58.3518 21.6426C58.3561 21.4338 58.3067 21.2273 58.2084 21.0431C58.1101 20.8588 57.9661 20.7029 57.7902 20.5902Z" fill="#666666"/>
<path d="M110.823 38.865C109.743 37.8024 104.973 33.9732 103.784 33.105C103.449 32.8608 103.171 33.3666 103.38 33.6318C104.302 34.8012 109.282 38.643 110.648 39.1788C110.824 39.2496 110.947 38.9868 110.823 38.865Z" fill="#666666"/>
<path d="M112.14 36.0558C111.06 34.9938 106.289 31.1646 105.1 30.2958C104.765 30.0516 104.488 30.5574 104.696 30.8226C105.618 31.992 110.595 35.8428 111.964 36.3696C112.14 36.4596 112.282 36.1956 112.14 36.0558Z" fill="#666666"/>
<path d="M113.72 33.9492C112.64 32.8872 107.869 29.058 106.681 28.1892C106.345 27.945 106.068 28.4508 106.277 28.716C107.198 29.8854 112.178 33.7272 113.545 34.263C113.72 34.3344 113.844 34.0716 113.72 33.9492Z" fill="#666666"/>
<path d="M61.0554 43.8858C58.9134 43.9032 50.6616 42.396 45.291 30.21C45.129 29.8434 44.571 30.1224 44.6766 30.4734C47.9538 41.3772 57.042 44.9886 61.1076 44.2542C61.32 44.2164 61.266 43.884 61.0554 43.8858Z" fill="#666666"/>
<path d="M98.3064 57.1572C98.1505 56.3088 97.7753 55.5159 97.218 54.8574C96.798 54.4686 93.9018 54.5904 93.0576 54.6816C92.865 54.7026 92.7774 55.0116 93.0048 55.0506C93.6564 55.1622 96.5688 55.1706 96.7092 55.2612C97.0602 55.4544 97.6254 57.192 97.6572 57.438C97.9302 59.538 96.9726 61.4406 96.3054 63.354C94.752 63.4992 93.2097 63.7455 91.6884 64.0914C91.5312 64.1454 91.4778 64.4262 91.6884 64.4598C93.3491 64.4798 95.0077 64.3329 96.639 64.0212C97.14 63.8916 98.7906 59.0508 98.3064 57.1572Z" fill="#666666"/>
<path d="M100.606 114.79C99.711 112.806 98.184 110.735 96.1824 109.75C96.35 109.392 96.4455 109.004 96.4632 108.61C90.003 97.4448 83.9118 75.6594 83.7888 74.8518C83.9292 74.8518 84.0522 74.8668 84.1752 74.8692C86.283 74.913 93.7608 74.1492 94.0932 72.3414C94.5132 70.0422 94.9512 67.6866 95.2872 65.3724C95.2977 65.3247 95.2896 65.2748 95.2646 65.2329C95.2396 65.1909 95.1995 65.1601 95.1526 65.1467C95.1056 65.1332 95.0553 65.1381 95.0119 65.1605C94.9685 65.1828 94.9352 65.2208 94.9188 65.2668C94.2282 67.1868 93.5664 72.1476 93.2508 72.3942C93.0048 72.5868 86.8434 75.045 79.9968 73.4826C79.9968 72.3768 80.0844 68.0934 80.5062 66.408C80.5584 66.1974 80.2242 66.1794 80.1372 66.3552C79.4982 67.6506 79.365 71.376 79.3296 72.0606C79.1015 71.7279 78.7787 71.4714 78.4031 71.3243C78.0275 71.1772 77.6164 71.1463 77.223 71.2356C77.5386 66.9252 77.7588 56.397 78.9084 55.752C79.4364 55.4556 80.8938 58.752 80.0322 64.6698C79.9614 65.1564 83.34 65.4048 85.8426 64.4766C86.2278 64.3338 85.9308 63.7404 85.5792 63.8622C83.2458 64.674 81.2592 64.389 80.4882 64.4418C81.015 62.4228 81.366 57.5778 79.9266 55.4886C80.3832 55.4184 82.6866 55.287 83.3322 55.1202C83.3722 55.1087 83.4074 55.0844 83.4325 55.0511C83.4575 55.0179 83.4711 54.9773 83.4711 54.9357C83.4711 54.894 83.4575 54.8535 83.4325 54.8202C83.4074 54.7869 83.3722 54.7627 83.3322 54.7512C81.9122 54.5778 80.4742 54.6183 79.0662 54.8712C78.8571 54.8969 78.6641 54.9965 78.522 55.152C77.5698 56.0784 77.1354 59.5758 77.118 59.7342C74.871 60.1026 70.7454 60.8046 66.1458 59.418C65.9178 58.3824 63.5988 49.5876 63.3024 47.658C62.7624 44.1288 63.1998 42.6216 64.215 39.6528C64.287 39.4428 63.972 39.321 63.864 39.5124C62.4768 41.9724 62.271 44.8134 62.6178 47.5524C62.8662 49.518 65.04 58.5924 65.4438 59.6472C65.1984 62.6142 64.9356 76.8336 65.0052 79.1862C65.1852 85.2426 65.2776 88.2606 65.8302 91.896C66.366 95.4228 68.586 107.731 68.7792 110.048C68.7618 110.048 65.7288 111.601 64.2324 112.328C63.795 112.541 61.389 113.258 62.2662 114.136C62.6526 114.522 70.3428 113.889 72.2028 113.75C72.3003 113.749 72.3936 113.71 72.4626 113.641C72.5316 113.572 72.5706 113.479 72.5712 113.381C72.5802 112.591 72.5538 110.871 72.5184 110.836C72.5569 110.826 72.5929 110.808 72.624 110.783C72.9576 104.867 74.484 82.6776 74.8884 77.6748C77.5392 87.663 91.302 109.01 92.3028 110.572C92.4352 110.657 92.576 110.727 92.7228 110.783C92.6915 110.849 92.6853 110.924 92.7054 110.994C93.0192 112.241 94.4598 113.435 95.4792 114.083C96.9283 114.996 98.6314 115.42 100.339 115.295C100.396 115.29 100.451 115.272 100.499 115.24C100.546 115.209 100.585 115.166 100.612 115.116C100.639 115.065 100.652 115.009 100.651 114.952C100.65 114.895 100.635 114.839 100.606 114.79ZM71.799 113.034C69.1302 113.21 63.039 113.701 62.9688 113.649C63.0612 113.718 68.9022 110.549 68.9022 110.366C69.2945 110.722 69.77 110.975 70.2851 111.101C70.8002 111.227 71.3386 111.222 71.8512 111.086C71.7985 111.734 71.7811 112.384 71.799 113.034ZM93.5316 111.016C94.3392 111.136 95.5332 111.103 96.0072 110.068C97.5699 111.307 98.8605 112.854 99.7986 114.614C98.5445 114.55 97.3233 114.19 96.2344 113.565C95.1454 112.94 94.2194 112.066 93.5316 111.016Z" fill="#666666"/>
<path d="M78.3996 43.3416C78.225 43.2168 77.9796 43.392 78.0996 43.5696C78.8898 44.7342 79.7322 45.834 80.487 47.0106C79.2762 48.5904 78.7104 53.0328 78.96 53.9622C79.0638 54.3486 79.5798 54.2262 79.6272 53.874C79.6872 53.436 79.8378 49.4856 80.8386 47.5548C82.752 49.9422 86.4858 60.9948 86.7894 61.7388C86.9178 62.0526 87.4848 62.0718 87.4566 61.6512C87.4068 60.8946 83.0076 46.62 78.3996 43.3416Z" fill="#666666"/>
<path d="M45.9402 25.6986C43.3934 23.7738 40.7059 22.0428 37.9002 20.52C37.5858 20.376 37.1802 20.7864 37.4964 21.0468C40.052 22.8456 42.7266 24.4694 45.5016 25.9068C45.008 26.2364 44.4418 26.4413 43.8516 26.5038C43.4472 26.4522 42.3786 25.8756 42.1662 25.9596C42.097 25.9794 42.0358 26.0207 41.9916 26.0776C41.9474 26.1344 41.9224 26.2038 41.9202 26.2758C41.9916 26.9958 43.5876 27.2556 44.1144 27.2238C44.7642 27.1842 45.9402 26.7144 45.993 25.9422C46.001 25.9001 46.0004 25.8569 45.9913 25.815C45.9822 25.7732 45.9649 25.7336 45.9402 25.6986Z" fill="#666666"/>
<path d="M41.376 25.2072C41.0014 24.6593 40.5021 24.2081 39.9192 23.8908C39.8552 23.8751 39.7879 23.8782 39.7256 23.8997C39.6633 23.9211 39.6084 23.9601 39.5677 24.012C39.5269 24.0638 39.5019 24.1263 39.4957 24.192C39.4896 24.2576 39.5024 24.3237 39.5328 24.3822C39.9912 24.8637 40.5564 25.2306 41.1828 25.4532C41.2133 25.4544 41.2436 25.4483 41.2713 25.4355C41.299 25.4227 41.3233 25.4035 41.3421 25.3795C41.361 25.3555 41.3739 25.3274 41.3798 25.2974C41.3857 25.2675 41.3844 25.2366 41.376 25.2072Z" fill="#666666"/>
<path d="M40.8144 26.3484C40.4416 25.798 39.942 25.3453 39.3576 25.0284C39.2935 25.0126 39.2261 25.0156 39.1637 25.0371C39.1012 25.0586 39.0463 25.0977 39.0055 25.1497C38.9648 25.2016 38.9398 25.2642 38.9337 25.33C38.9276 25.3957 38.9406 25.4619 38.9712 25.5204C39.4298 26.0015 39.9949 26.3682 40.6212 26.5908C40.6517 26.5932 40.6823 26.588 40.7103 26.5758C40.7384 26.5636 40.763 26.5448 40.7821 26.5208C40.8011 26.4969 40.8141 26.4687 40.8197 26.4386C40.8253 26.4086 40.8235 26.3776 40.8144 26.3484Z" fill="#666666"/>
<path d="M43.6584 27.7878C43.2934 27.949 42.9108 28.0668 42.5184 28.1388C42.1848 28.1388 40.254 27.1188 39.3384 26.5938C39.2508 26.5062 39.024 26.3154 38.7942 26.4738C38.3742 26.7588 38.8296 27.1764 38.9526 27.2814C39.719 27.9219 40.6183 28.3837 41.5854 28.6332C42.3054 28.8504 43.464 28.8618 43.8852 28.089C43.9018 28.0539 43.9085 28.015 43.9045 27.9764C43.9005 27.9377 43.8861 27.9009 43.8628 27.8699C43.8394 27.8389 43.808 27.8149 43.772 27.8004C43.736 27.786 43.6967 27.7816 43.6584 27.7878Z" fill="#666666"/>
<path d="M73.7826 21.099C73.7148 20.9052 73.5354 20.6046 73.2732 20.6958C72.8328 20.8482 72.6966 21.5868 73.0626 21.8016C73.1616 21.8465 73.2718 21.8604 73.3788 21.8416C73.4859 21.8228 73.5848 21.7721 73.6625 21.6962C73.7403 21.6203 73.7934 21.5227 73.8148 21.4162C73.8362 21.3096 73.825 21.1991 73.7826 21.099Z" fill="#666666"/>
<path d="M86.931 64.1262C86.5974 65.0568 85.131 66.3984 84.807 66.8124C84.7523 66.8705 84.7201 66.9461 84.7161 67.0258C84.7121 67.1054 84.7366 67.1839 84.7851 67.2472C84.8337 67.3105 84.9032 67.3544 84.9812 67.3711C85.0592 67.3879 85.1405 67.3763 85.2108 67.3386C85.755 67.0932 87.4998 64.797 87.282 64.179C87.2729 64.1421 87.253 64.1087 87.2249 64.0831C87.1968 64.0575 87.1618 64.0408 87.1242 64.0352C87.0866 64.0295 87.0481 64.0351 87.0138 64.0513C86.9794 64.0675 86.9506 64.0936 86.931 64.1262Z" fill="#666666"/>
<path d="M86.7558 66.9528C86.1213 67.8222 85.5521 68.7375 85.053 69.6912C84.9288 69.972 85.2072 70.3716 85.509 70.1478C85.9434 69.8256 87.1068 67.6722 87.069 67.0932C87.0712 67.056 87.062 67.0191 87.0427 66.9872C87.0233 66.9554 86.9948 66.9302 86.9608 66.915C86.9268 66.8998 86.889 66.8952 86.8524 66.902C86.8158 66.9087 86.7821 66.9264 86.7558 66.9528Z" fill="#666666"/>
<path d="M87.879 67.2C87.3105 68.1783 86.7947 69.1864 86.334 70.2198C86.1906 70.5696 86.667 70.7454 86.8962 70.5534C87.3162 70.2006 88.2918 67.8858 88.23 67.3056C88.23 67.2645 88.2167 67.2244 88.1922 67.1914C88.1677 67.1584 88.1331 67.1342 88.0938 67.1224C88.0544 67.1105 88.0122 67.1117 87.9735 67.1257C87.9349 67.1396 87.9017 67.1657 87.879 67.2Z" fill="#666666"/>
<path d="M88.9674 67.0578C88.5701 67.7655 88.2635 68.5205 88.0548 69.3048C88.0383 69.3757 88.0447 69.45 88.0733 69.5169C88.1018 69.5839 88.1509 69.64 88.2135 69.6772C88.276 69.7144 88.3488 69.7307 88.4213 69.7237C88.4937 69.7167 88.5621 69.6868 88.6164 69.6384C89.0479 68.8845 89.2777 68.032 89.2836 67.1634C89.2302 67.023 89.0712 66.9336 88.9674 67.0578Z" fill="#666666"/>
<path d="M89.9154 66.7944C89.5504 67.4792 89.2844 68.2123 89.1252 68.9718C89.0928 69.288 89.4978 69.3798 89.7048 69.2172C90.0084 68.9772 90.4248 67.1808 90.2136 66.8298C90.2002 66.8033 90.1805 66.7804 90.1561 66.7633C90.1318 66.7462 90.1036 66.7355 90.074 66.732C90.0445 66.7285 90.0145 66.7323 89.9869 66.7432C89.9592 66.7541 89.9346 66.7717 89.9154 66.7944Z" fill="#666666"/>
<path d="M71.1846 26.2428C71.6748 26.6826 73.509 27.1428 74.1336 25.7862C74.2224 25.5936 73.9266 25.3512 73.7826 25.5054C73.4758 25.7946 73.0898 25.9857 72.6739 26.0545C72.258 26.1234 71.831 26.0667 71.4474 25.8918C71.2398 25.7814 71.0082 26.085 71.1846 26.2428Z" fill="#666666"/>
<path d="M71.5002 21.6438C71.3424 22.0638 70.7838 23.6238 70.8858 23.943C70.9354 24.0543 71.012 24.1515 71.1086 24.2257C71.2052 24.2999 71.3188 24.3488 71.4391 24.368C71.5594 24.3871 71.6826 24.376 71.7975 24.3355C71.9125 24.2951 72.0155 24.2266 72.0972 24.1362C72.1205 24.111 72.1371 24.0803 72.1454 24.0469C72.1537 24.0136 72.1535 23.9787 72.1448 23.9454C72.1361 23.9122 72.1191 23.8817 72.0955 23.8567C72.0719 23.8318 72.0423 23.8132 72.0096 23.8026C71.886 23.7696 71.6394 23.8026 71.553 23.7498C71.3928 23.6484 71.6586 22.293 71.8338 21.6786C71.904 21.4854 71.5704 21.4854 71.5002 21.6438Z" fill="#666666"/>
<path d="M73.08 20.0634C73.3254 20.118 74.22 20.5902 74.4672 20.6256C74.5155 20.6234 74.5625 20.6091 74.6038 20.584C74.6452 20.559 74.6797 20.524 74.7041 20.4823C74.7285 20.4405 74.742 20.3933 74.7435 20.345C74.745 20.2967 74.7344 20.2488 74.7126 20.2056C74.4318 19.7142 73.6422 19.653 73.1328 19.644C73.0838 19.6487 73.0379 19.6699 73.0025 19.7042C72.9672 19.7384 72.9446 19.7837 72.9385 19.8325C72.9323 19.8814 72.943 19.9308 72.9687 19.9728C72.9944 20.0148 73.0337 20.0467 73.08 20.0634Z" fill="#666666"/>
<path d="M91.62 52.593C91.1472 47.658 89.1846 43.1802 86.3538 39.1458C84.5658 36.5982 82.1754 33.9672 78.8574 33.7386C78.3525 32.7671 77.975 31.7346 77.7342 30.6666C77.714 30.592 77.667 30.5276 77.6023 30.4855C77.5375 30.4434 77.4595 30.4267 77.3832 30.4386C77.3184 29.3636 77.4798 28.287 77.8572 27.2784C78.1557 27.3895 78.4831 27.3962 78.7859 27.2974C79.0887 27.1986 79.3491 27 79.5246 26.7342C79.0683 25.7776 78.9507 24.6944 79.191 23.6622C79.5246 22.4688 80.3022 22.1184 80.4726 21.0468C80.7072 19.5732 79.4688 17.3004 76.6632 16.4268C76.0482 16.236 74.2122 15.9132 73.2048 14.355C72.9432 13.9506 72.4344 13.2612 71.976 13.1262C70.542 12.7062 69.8058 15.4782 69.8868 16.2864C69.9698 17.0586 70.2746 17.7903 70.7646 18.393C69.6762 20.394 69.4098 24.8364 69.6762 26.133C70.023 27.819 71.1864 28.959 72.7134 29.0292C72.5474 29.9084 72.1809 30.7374 71.6424 31.452C71.6424 31.4166 71.5878 30.7632 71.0982 31.032C70.3449 31.4373 69.5425 31.744 68.7108 31.9446C68.6634 31.9571 68.619 31.9789 68.5801 32.0087C68.5412 32.0384 68.5085 32.0756 68.4841 32.118C68.4596 32.1605 68.4437 32.2074 68.4374 32.2559C68.4312 32.3045 68.4345 32.3539 68.4474 32.4012C68.5523 32.7181 68.6755 33.0286 68.8164 33.3312C66.6281 34.0462 64.4777 34.8725 62.3736 35.8068C61.3513 36.312 60.2353 36.5995 59.0961 36.6512C57.9569 36.7028 56.8194 36.5174 55.7556 36.1068C53.79 35.3118 48.2814 30.3102 46.8882 26.91C46.8645 26.868 46.83 26.8332 46.7884 26.8089C46.7467 26.7846 46.6994 26.7719 46.6512 26.7719C46.603 26.7719 46.5557 26.7846 46.5141 26.8089C46.4724 26.8332 46.438 26.868 46.4142 26.91C46.103 27.5909 45.5351 28.1211 44.8344 28.3848C44.7884 28.4012 44.7504 28.4345 44.7281 28.4779C44.7058 28.5213 44.7008 28.5716 44.7143 28.6185C44.7277 28.6655 44.7586 28.7055 44.8005 28.7305C44.8424 28.7556 44.8923 28.7636 44.94 28.7532C45.6317 28.5916 46.2386 28.1787 46.6428 27.5946C48.7314 31.8606 53.4876 35.9196 55.455 36.741C57.5649 37.5962 59.9238 37.6024 62.0382 36.7584C63.1638 36.3072 69.0078 33.8268 69.0252 33.7584C69.1452 34.0038 69.27 34.2504 69.411 34.4952C69.4407 34.5426 69.4806 34.5828 69.5278 34.6129C69.575 34.6429 69.6284 34.6621 69.6839 34.6688C69.7395 34.6756 69.7958 34.6699 69.8489 34.6521C69.902 34.6343 69.9504 34.6049 69.9906 34.566C70.4274 34.1772 71.0106 33.7584 71.4474 33.2844C71.3604 34.0536 71.3203 34.8275 71.3274 35.6016C68.9394 42.132 70.1274 49.8216 71.2392 52.3842C71.3238 52.5786 71.6772 52.5774 71.643 52.3314C70.383 46.8713 70.4011 41.1939 71.6958 35.742C72.1322 35.1425 72.4975 34.4944 72.7842 33.8106C73.0122 34.5132 73.3242 35.1906 73.5564 35.847C73.5769 35.9254 73.6222 35.9951 73.6856 36.0457C73.749 36.0963 73.827 36.1251 73.908 36.1278C75.6705 36.0967 77.3735 35.4851 78.753 34.3878C81.4249 35.0984 83.7654 36.7186 85.371 38.9694C86.9014 41.1678 88.2293 43.5006 89.3382 45.939C92.202 51.8892 90.5634 61.176 90.339 62.3352C90.0708 63.7212 87.9312 63.3084 87.159 63.0372C86.9652 62.9688 86.8098 63.2964 87.0186 63.3882C87.5148 63.6066 89.583 64.1082 90.4596 63.564C90.8844 63.3 92.1342 57.978 91.62 52.593ZM69.7974 33.774C69.6009 33.3796 69.4251 32.9752 69.2706 32.5626C69.8646 32.3893 70.4407 32.1601 70.9914 31.878C71.0262 32.1942 71.4474 32.475 71.4654 32.4924C70.8661 32.86 70.307 33.2896 69.7974 33.774ZM72.4656 32.6856C72.4308 32.7204 72.15 33.4758 72.0096 33.8088C72.014 33.4078 71.9737 33.0075 71.8896 32.6154C71.907 32.598 72.0096 32.352 71.784 32.352C71.8197 32.3044 71.8405 32.2473 71.8437 32.1879C71.8469 32.1285 71.8324 32.0695 71.802 32.0184C72.7182 31.2452 73.3077 30.1539 73.452 28.9638C73.6795 28.9268 73.9029 28.8682 74.1192 28.7886C74.3112 28.7166 74.295 28.4052 74.0664 28.4196C73.014 28.4862 70.4568 28.5594 70.2216 25.2774C70.1538 24.0863 70.2603 22.8917 70.5378 21.7314C70.8048 20.5386 71.4156 18.3258 71.9424 17.8164C73.1169 17.7542 74.2716 18.1372 75.1761 18.8889C76.0807 19.6406 76.6685 20.7058 76.8222 21.8718C77.099 21.85 77.3753 21.9186 77.6097 22.0674C77.844 22.2162 78.0238 22.4371 78.1218 22.6968C78.1548 22.8812 78.1489 23.0704 78.1046 23.2525C78.0604 23.4345 77.9786 23.6053 77.8646 23.7539C77.7506 23.9026 77.6069 24.0258 77.4426 24.1158C77.2783 24.2058 77.0971 24.2606 76.9104 24.2766C76.9626 24.6804 77.226 26.1552 77.2962 26.4186C76.6818 27.4542 76.6296 29.9646 76.8222 30.6666C75.5586 31.3164 74.2242 31.8066 72.9606 32.4396C72.7992 32.3166 72.5184 32.475 72.4656 32.6856ZM74.1162 35.4066C73.8 34.5666 73.554 33.6666 73.1856 32.8434C74.5661 32.4362 75.9014 31.8892 77.1708 31.2108C77.3988 32.1587 77.7344 33.0775 78.171 33.9492C76.9915 34.8219 75.5814 35.3287 74.1162 35.4066Z" fill="#666666"/>
</svg>
