<svg width="120" height="120" viewBox="0 0 120 120" fill="none" xmlns="http://www.w3.org/2000/svg">
<path d="M31.8001 23.82C31.6057 23.821 31.4188 23.7457 31.2794 23.6103C31.1401 23.4748 31.0596 23.2901 31.0552 23.0958C31.0508 22.9015 31.1228 22.7133 31.2559 22.5717C31.3889 22.4301 31.5723 22.3464 31.7665 22.3386C31.8647 22.3347 31.9628 22.3504 32.055 22.3848C32.1472 22.4191 32.2316 22.4716 32.3033 22.5389C32.375 22.6063 32.4326 22.6872 32.4727 22.7771C32.5127 22.8669 32.5346 22.9639 32.5368 23.0622C32.539 23.1606 32.5216 23.2584 32.4857 23.3499C32.4497 23.4415 32.3959 23.525 32.3273 23.5956C32.2587 23.6661 32.1767 23.7223 32.0863 23.7608C31.9957 23.7993 31.8984 23.8195 31.8001 23.82Z" fill="#252525"/>
<path d="M37.1705 27.6396C37.3793 27.8562 38.0423 28.6656 36.9539 28.3044C36.7499 28.2366 36.8765 28.467 35.3339 26.994C34.7729 26.4564 36.0539 26.4816 37.1705 27.6396Z" fill="#252525"/>
<path d="M30.8891 20.883C30.8827 20.9449 30.8639 21.0048 30.8338 21.0592C30.8038 21.1137 30.7631 21.1615 30.7142 21.1999C30.6653 21.2383 30.6092 21.2664 30.5493 21.2827C30.4893 21.299 30.4266 21.3031 30.365 21.2947C30.3034 21.2863 30.2441 21.2656 30.1907 21.2338C30.1373 21.202 30.0908 21.1599 30.054 21.1098C30.0172 21.0597 29.9908 21.0027 29.9765 20.9422C29.9621 20.8817 29.9601 20.8189 29.9705 20.7576C29.9861 20.2488 30.8051 20.1834 30.8891 20.883Z" fill="#252525"/>
<path d="M28.4518 23.028C28.5038 23.0224 28.5565 23.0274 28.6066 23.0425C28.6567 23.0578 28.7031 23.083 28.7432 23.1166C28.7834 23.1502 28.8163 23.1916 28.84 23.2383C28.8637 23.2849 28.8778 23.3359 28.8814 23.3881C28.8849 23.4403 28.8779 23.4928 28.8607 23.5422C28.8435 23.5917 28.8165 23.6371 28.7813 23.6759C28.7462 23.7147 28.7035 23.7459 28.6559 23.7678C28.6084 23.7897 28.5569 23.8017 28.5046 23.8032C28.0528 23.8284 27.8824 23.1798 28.4518 23.028Z" fill="#252525"/>
<path d="M41.4534 15.3043C41.4498 15.3637 41.4583 15.4233 41.4785 15.4794C41.4986 15.5355 41.53 15.5868 41.5706 15.6304C41.6113 15.6739 41.6604 15.7088 41.7149 15.7328C41.7695 15.7568 41.8283 15.7695 41.8879 15.7699C41.9475 15.7705 42.0065 15.7589 42.0615 15.7359C42.1165 15.7129 42.1661 15.6789 42.2075 15.6361C42.2489 15.5932 42.2812 15.5424 42.3024 15.4867C42.3235 15.431 42.3331 15.3716 42.3306 15.3121C42.2034 14.5867 41.4048 14.7817 41.4534 15.3043Z" fill="#252525"/>
<path d="M53.6849 19.7898C55.0049 19.0098 53.8205 16.6422 52.5161 16.6182C51.3401 16.596 50.8919 15.687 50.5523 15.3648C50.0364 14.8552 49.4563 14.415 48.8267 14.055C47.6743 13.5037 46.4341 13.1585 45.1625 13.035C39.5495 12.6198 30.6425 14.9454 26.6441 21.183C24.0251 25.2678 26.3441 26.0856 25.6685 29.1966C25.3205 30.792 26.6471 31.7634 28.1771 31.1274C28.4699 31.0074 28.5611 31.014 28.7225 31.3116C29.8991 33.4836 31.7549 32.598 33.7469 32.133C39.6035 30.7644 41.7323 30.138 42.4031 29.769C42.4159 29.7621 42.4291 29.7561 42.4427 29.751C44.9963 28.893 51.9137 25.791 53.4725 23.2218C54.4799 21.561 52.6199 20.4174 53.6849 19.7898ZM52.8353 19.602C48.4835 21.7938 47.0099 20.6994 46.0301 22.8696C45.4751 24.0984 45.1775 23.4018 44.8025 24.0432C44.7808 24.0811 44.7691 24.1239 44.7688 24.1676C44.7685 24.2113 44.7796 24.2542 44.8008 24.2924C44.8221 24.3306 44.8529 24.3625 44.8902 24.3852C44.9275 24.4079 44.9701 24.4205 45.0137 24.4218C46.8881 24.5004 46.3685 22.3854 48.1127 22.017C51.6755 21.2652 52.3499 20.1954 52.6175 20.6778C53.2517 21.8214 52.9745 23.3178 51.3131 24.3612C48.7009 26.0816 45.9033 27.5023 42.9731 28.5966C42.3629 28.8433 41.7369 29.0494 41.0993 29.2134C36.8237 30.3228 30.8765 32.6622 29.4185 31.269C29.2809 31.1503 29.1812 30.9937 29.1319 30.8188C29.0824 30.6438 29.0855 30.4582 29.1407 30.285C29.1498 30.106 29.2111 29.9335 29.3172 29.789C29.4233 29.6445 29.5694 29.5343 29.7375 29.472C29.9056 29.4097 30.0883 29.3982 30.2629 29.4387C30.4376 29.4792 30.5965 29.5701 30.7199 29.7C30.8069 29.7672 30.8945 29.8332 30.9857 29.892C31.3657 30.1085 31.8032 30.2023 32.2384 30.1603C32.6737 30.1185 33.0853 29.943 33.4169 29.658C34.2437 28.7724 33.3605 27.378 33.0641 27.498C32.8883 27.567 32.9243 27.744 32.9609 27.8778C33.3281 29.2146 31.8989 29.6004 31.0451 28.8978C30.0197 28.053 28.8377 28.4052 28.5023 29.6568C28.3993 29.9407 28.2053 30.1827 27.9505 30.3448C27.6957 30.5071 27.3944 30.5806 27.0935 30.5538C25.9187 30.3678 26.5295 28.8516 26.6483 28.0872C26.7671 27.3228 27.1283 27.8136 28.5833 27.5784C31.6341 27.0838 34.6376 26.3323 37.5617 25.332C46.2107 22.3794 47.0243 20.8458 38.6891 23.8758C36.8339 24.5502 31.0001 26.9178 27.2099 26.5932C25.2209 26.4228 26.2373 20.4948 32.4551 16.5432C36.1751 14.1804 41.2151 13.3554 45.6041 13.7232C46.5817 13.8048 47.5102 14.1856 48.2633 14.814C48.2849 14.817 48.3035 14.8182 48.3233 14.8206C49.1501 15.657 50.8067 16.6776 50.1935 17.3364C49.3759 18.2197 48.4835 19.0309 47.5265 19.761C47.4812 19.7995 47.4508 19.8527 47.4409 19.9114C47.431 19.97 47.4421 20.0303 47.4724 20.0815C47.5026 20.1327 47.55 20.1716 47.6062 20.1912C47.6623 20.2108 47.7236 20.21 47.7791 20.1888C50.8343 18.8934 50.9591 17.1666 51.4787 17.1672C51.7585 17.1379 52.0412 17.1661 52.3095 17.2504C52.5778 17.3346 52.826 17.4729 53.0387 17.6568C53.9255 18.5586 53.9177 19.0566 52.8353 19.602Z" fill="#252525"/>
<path d="M55.5983 28.7682C54.7223 31.0788 53.1022 33.0321 50.9933 34.32C46.4531 37.2 41.7377 38.28 36.3965 38.8884C35.3669 39.0054 31.8809 38.676 30.8165 37.3824C29.2955 35.5368 29.6495 33.015 30.1859 33.1224C30.7499 33.2364 29.8559 35.1084 31.8407 36.7596C32.193 37.1093 32.6099 37.3873 33.0683 37.578C34.4614 38.0356 35.9444 38.1499 37.3913 37.911C47.2985 36.6324 57.4913 30.4656 54.3311 25.2306C54.2339 25.0692 53.9338 24.8766 54.211 24.6498C54.5014 24.4098 54.7403 24.6606 54.9041 24.846C55.3983 25.3556 55.7285 26.0016 55.8523 26.7007C55.976 27.3997 55.8875 28.1199 55.5983 28.7682Z" fill="#252525"/>
<path d="M45.9474 29.8254C46.0273 30.0623 46.0287 30.3186 45.9514 30.5564C45.8741 30.7942 45.7223 31.0007 45.5184 31.1454C41.7834 33.9228 39.5688 33.8022 39.6714 33.3204C39.9114 32.1804 40.2762 33.2604 42.0054 32.205C44.3754 30.7602 44.9454 31.2834 45.207 30.1104C45.3168 29.6232 45.3048 28.9188 45.693 28.9452C46.1466 28.98 45.8556 29.6034 45.9474 29.8254Z" fill="#252525"/>
<path d="M50.586 26.7509C51.1668 27.2351 51.6012 26.9021 52.0518 26.5379C53.4918 25.3745 53.505 25.4501 53.6148 25.5557C53.7906 25.7261 53.064 27.1721 51.6798 27.7757C50.9418 28.0961 50.6064 27.3299 49.8798 27.3005C49.6536 27.2915 49.362 27.3137 49.3698 27.0005C49.38 26.4893 50.4 26.5937 50.586 26.7509Z" fill="#252525"/>
<path d="M39.6102 25.8C40.191 26.2842 40.6254 25.9512 41.076 25.587C42.516 24.4236 42.5292 24.4992 42.639 24.6048C42.8154 24.7752 42.0882 26.2212 40.704 26.8248C39.966 27.1452 39.6306 26.379 38.904 26.3496C38.6784 26.3406 38.3862 26.3628 38.394 26.0466C38.4066 25.5354 39.42 25.6398 39.6102 25.8Z" fill="#252525"/>
<path d="M42.0407 48.7272C24.3677 48.6216 14.6999 36.7836 16.3667 23.7924C18.2693 8.94841 34.2467 1.10459 46.4159 3.39239C61.476 6.22261 72.8034 23.4822 60.2646 39.2124C57.7651 42.3834 54.5291 44.8962 50.8379 46.5324C47.5547 47.9898 44.1257 48.7398 42.0407 48.7272ZM21.0095 25.7088C20.8037 31.3284 23.5781 36.8088 29.4803 40.3626C30.7769 41.1426 30.0881 40.6698 32.7269 36.2826C40.0043 24.1932 47.2235 11.079 48.2897 9.52021C48.7445 8.85601 48.6959 8.74801 48.0113 8.50021C36.9707 4.48559 21.5177 11.82 21.0095 25.7088ZM52.7621 10.9374C52.0559 10.4274 52.3343 10.665 48.8975 16.3974C46.0961 21.0696 34.2245 41.4774 34.0367 41.766C33.6953 42.2892 33.8567 42.3816 34.3043 42.4818C35.6065 42.8251 36.9308 43.0777 38.2679 43.2378C57.3977 44.8062 68.9196 22.6044 52.7621 10.9374Z" fill="#644DF6"/>
<path d="M56.73 55.8228C57.351 55.6026 56.8374 54.2868 54.6066 48.3828C53.6988 45.9828 53.631 45.7536 53.199 45.8838C52.7868 46.008 52.9218 46.5144 53.0598 46.923C55.4802 54.0696 56.1114 56.04 56.73 55.8228Z" fill="#252525"/>
<path d="M51.9683 56.799C52.2473 56.5974 52.1579 56.7318 50.0693 51.333C48.8801 48.2586 48.9569 47.9934 48.4565 47.9496C47.6387 48.1044 48.6263 50.094 48.9791 51.0402C51.3407 57.372 51.2513 57.3174 51.9683 56.799Z" fill="#252525"/>
<path d="M76.02 50.8602C73.2876 46.0602 75.2664 49.8534 68.4996 46.4202C66.8082 45.5628 66.3624 45.6336 65.4048 47.1012C64.4202 48.6096 63.06 49.9074 61.3386 49.3746C60.1542 49.0074 58.0106 47.6994 57.3224 50.2956C56.9024 51.8766 57.5624 53.6196 57.356 55.251C57.3592 55.4595 57.311 55.6656 57.2156 55.851C56.0942 57.2646 59.0204 56.88 61.14 61.8C61.3038 62.1804 61.371 62.3874 61.8654 62.0196C64.5054 60.0504 68.7654 60.5526 71.3862 62.2524C71.8476 62.5524 71.9604 62.4108 72.1374 61.9626C74.7654 55.3104 76.2774 49.308 79.4802 52.0116C80.187 52.6116 80.9352 53.8956 82.7646 54.4896C84.9366 55.1946 85.9068 53.7018 87.7488 52.9746C89.619 52.2366 90.1416 53.3916 90.5688 52.8C92.9652 49.485 99.9948 40.9338 104.144 34.2222C107.903 28.1406 106.072 27.5226 98.8908 36.8172C86.8308 52.4238 86.523 53.4156 85.8972 52.983C85.5216 52.7226 85.9506 52.2546 86.1288 51.942C87.5652 49.422 93.4488 41.6292 95.9976 38.4384C99.1854 34.452 102.589 29.8854 105.206 28.7784C106.549 28.2114 107.471 28.92 107.236 30.357C106.498 34.8708 94.194 49.7262 91.3038 53.2056C91.1184 53.4288 91.1532 53.5158 91.2954 53.7528C93.0354 56.6646 94.5102 55.3026 97.0248 55.332C97.6218 55.3125 98.2074 55.5029 98.6784 55.8699C99.15 56.2371 99.4776 56.7577 99.6048 57.3414C100.059 59.412 100.063 62.3328 98.1348 63.2346C96.48 64.0092 98.9394 61.6302 98.343 57.7146C98.3232 57.5336 98.268 57.3582 98.1804 57.1986C98.0928 57.039 97.9746 56.8983 97.8324 56.7845C97.6902 56.6707 97.5264 56.5862 97.3518 56.5356C97.1766 56.4851 96.9936 56.4696 96.8124 56.49C95.3022 56.5356 92.7396 57.9444 90.7176 55.17C89.3826 53.3376 88.6392 53.8746 86.5068 55.1886C84.2184 56.5986 81.9342 56.0544 80.133 54.3876C78.8328 53.1846 78.0846 51.495 76.9392 53.538C76.095 55.0595 75.3702 56.6443 74.7714 58.278C73.0146 63.009 72.2304 62.7258 72.9234 63.321C74.61 64.6632 75.7932 66.5358 76.2804 68.6352C76.3404 68.9304 76.4376 69.2142 75.972 69.252C75.6258 69.2808 75.3444 69.3228 75.2604 68.8356C74.4804 64.3074 68.7576 60.6852 64.0446 62.0694C63.3012 62.3274 62.5926 62.6766 61.935 63.1098C61.6134 63.2994 61.7988 63.5538 61.854 63.7698C62.3172 65.433 62.4414 67.1724 62.2194 68.8848C62.1828 69.1404 62.1534 69.3756 61.7808 69.3174C61.0008 69.1974 61.665 68.5974 61.3302 66.1728C59.6696 54.1386 44.9882 52.398 41.705 63.9528C41.6696 64.077 41.7494 64.473 41.387 64.3236C41.147 64.2252 40.8512 64.1772 40.9286 63.7296C42.0536 57.243 49.19 52.6734 55.7432 55.98C56.0762 56.1474 56.1896 56.16 56.2508 55.7454C56.6348 53.1564 55.2104 50.6508 57.1388 48.4854C59.5388 45.7938 61.4418 49.551 63.114 47.637C63.6324 47.0442 64.1862 46.4784 64.6584 45.852C66.807 43.0008 69.0294 45.7992 72.615 46.452C72.9414 46.512 73.2696 46.5576 73.5972 46.6158C75.3228 46.92 76.5846 49.0764 76.02 50.8602Z" fill="#252525"/>
<path d="M77.8272 107.98C81.3198 105.626 81.5868 104.886 80.3796 103.666C78.4596 101.726 75.9234 101.972 73.1658 102.406C69.5946 102.968 67.5648 101.626 66.3066 101.008C63.2466 99.5082 62.1222 101.097 58.4011 107.141C56.7211 109.873 56.5567 109.953 56.1775 109.685C55.8337 109.441 56.0575 109.075 56.2087 108.785C59.6335 102.271 61.9218 97.9278 66.1182 99.7194C69.354 101.099 69.4836 101.808 74.1726 101.12C77.1726 100.68 79.9854 100.997 81.7614 103.453C82.0896 103.812 82.2684 104.282 82.2618 104.768C82.2552 105.254 82.0638 105.719 81.726 106.069C80.8776 107.043 79.9074 107.897 78.5286 108.049C78.294 108.11 78.0456 108.086 77.8272 107.98Z" fill="#252525"/>
<path d="M52.9201 89.1288C51.7525 88.3224 51.7003 87.3618 49.6333 84.06C48.5737 82.3674 45.3517 82.9344 43.2649 83.3442C41.907 83.5098 40.5648 83.7852 39.2515 84.168C37.7401 84.7296 37.4101 85.248 37.5427 86.838C37.7485 89.3172 38.6827 90.708 38.7181 92.0382C38.7343 92.6382 38.1181 92.829 37.9471 92.2644C37.3963 90.4218 36.6085 88.6446 36.4651 86.6904C36.3337 84.9 36.7387 84.0036 38.7631 83.1126C39.8563 82.6326 45.2311 81.5808 48.0787 81.8394C48.7022 81.87 49.3071 82.062 49.834 82.3962C50.3609 82.731 50.7917 83.1972 51.0841 83.7486C51.8509 85.1082 53.3023 88.5636 52.9201 89.1288Z" fill="#252525"/>
<path d="M73.1724 91.4862C73.4868 87.4536 75.5406 84.5352 79.3458 83.0682C80.721 82.5138 82.2144 82.3182 83.6862 82.5C85.1574 82.6812 86.559 83.2332 87.7584 84.1044C88.044 84.297 88.3518 84.5334 88.0926 84.9054C87.8334 85.2774 87.5154 85.0716 87.2238 84.8802C86.0616 84.0606 84.6912 83.586 83.271 83.5122C81.8508 83.4378 80.4384 83.7666 79.197 84.4602C77.8098 85.0974 76.6278 86.1072 75.7818 87.378C74.9358 88.6482 74.46 90.129 74.4078 91.6542C74.175 95.4636 76.5324 96.6576 75.6162 97.2036C74.7 97.7496 72.96 94.2402 73.1724 91.4862Z" fill="#252525"/>
<path d="M51.96 78.4146C41.6604 78.2172 39.555 68.6706 41.046 68.4768C41.5752 68.4078 41.4606 69.0768 41.5182 69.4494C41.7232 70.8978 42.2997 72.2682 43.1917 73.428C44.0836 74.5872 45.2606 75.4956 46.608 76.065C50.628 77.949 54.6054 77.7984 58.368 75.2778C60.0822 74.1288 60.408 72.8244 60.759 73.0578C61.2822 73.4076 58.4484 78.54 51.96 78.4146Z" fill="#252525"/>
<path d="M100.3 89.9772C98.3232 88.7028 94.3458 84.6456 91.3002 86.5104C87.1944 89.0232 83.9406 95.19 83.1714 94.65C82.9038 94.4622 83.0874 94.1814 83.2152 93.9846C85.3152 90.7374 87.4992 87.5646 90.8484 85.4346C93.7686 83.58 97.524 86.1264 99.8712 88.6674C100.065 88.8186 100.209 89.0238 100.286 89.2566C100.362 89.49 100.367 89.7408 100.3 89.9772Z" fill="#252525"/>
<path d="M63.1914 85.4754C58.7095 85.4898 55.7839 82.4754 55.5577 79.4154C55.5025 78.6618 56.2489 78.5484 56.5645 79.1682C56.6868 79.431 56.7953 79.6992 56.8897 79.9734C58.2007 83.373 61.5408 84.5988 64.6836 83.9274C67.0182 83.4282 68.5392 82.0782 69.7692 81.294C70.1022 81.0816 70.4634 81.249 70.206 81.7308C69.3732 83.289 66.1572 85.4658 63.1914 85.4754Z" fill="#252525"/>
<path d="M87.642 59.8511C92.7762 59.1023 95.9616 64.2942 95.3448 64.4112C95.0118 64.4748 94.6662 64.9932 94.3122 64.4772C89.9538 58.1339 81.8658 60.903 80.88 68.1462C80.817 68.3178 80.694 68.46 80.5332 68.5464C80.3718 68.6328 80.1852 68.6568 80.0076 68.6142C79.5762 68.3658 80.8236 60.8454 87.642 59.8511Z" fill="#252525"/>
<path d="M101.312 77.8326C101.065 83.3574 95.5824 85.2774 95.3448 83.9382C95.2746 83.5446 95.5572 83.4402 95.8914 83.3346C100.991 81.7278 101.817 73.7046 96.5622 72.7104C96.105 72.624 95.6328 72.6186 95.6772 72.1506C95.7792 71.079 101.198 71.52 101.312 77.8326Z" fill="#252525"/>
<path d="M62.0046 95.247C59.7121 94.1412 57.4729 91.827 55.5361 90.1236C54.4189 89.1396 54.3847 92.5602 47.5969 95.0802C47.2626 95.1894 46.9195 95.2698 46.5715 95.3202C46.3645 95.3586 46.1305 95.3646 46.0543 95.1048C45.9343 94.6878 46.1503 94.9248 49.2847 93.2238C54.6619 90.306 54.1315 87.5106 56.0089 89.259C61.62 94.4904 62.067 94.5948 62.0046 95.247Z" fill="#252525"/>
<path d="M37.9231 66.8646C38.2111 67.1586 37.9909 67.4832 37.7917 67.7568C35.5885 70.779 35.5807 74.9646 38.6161 77.0286C38.8729 77.2032 39.1411 77.3832 38.9545 77.712C38.7523 78.0678 38.4265 77.9598 38.1439 77.781C31.3711 73.5078 36.8683 65.7888 37.9231 66.8646Z" fill="#252525"/>
<path d="M69.3834 53.9136C67.2198 54.2736 66.0018 52.9848 64.2564 53.325C62.7894 53.61 62.6826 54.216 60.8568 57.0312C60.5304 57.5346 60.141 57.138 60.321 56.7798C60.9402 55.5468 61.278 54.1638 62.2062 53.0946C62.73 52.5596 63.399 52.1894 64.1304 52.0295C64.8618 51.8696 65.6238 51.9269 66.3228 52.1946C66.9474 52.4634 69.0438 53.3112 69.3834 53.9136Z" fill="#252525"/>
<path d="M43.4659 63.4494C43.8895 61.509 45.8905 59.3874 47.4349 60.7494C48.3535 61.5588 48.6421 62.9382 48.3859 63.0744C48.1297 63.2106 48.1459 62.9028 47.3659 61.7796C46.1371 60.012 44.8501 62.154 44.5069 63.3396C44.2549 64.2096 44.6911 64.0332 47.9305 65.0136C48.2251 65.103 48.7171 65.1054 48.6139 65.5506C48.5137 65.9814 48.0601 65.8158 47.7601 65.7432C43.6411 64.743 43.4065 64.7826 43.4659 63.4494Z" fill="#252525"/>
<path d="M52.2967 61.0284C51.9775 59.556 53.1367 58.7058 51.9325 58.317C51.3752 58.0843 50.7578 58.0378 50.1721 58.1844C49.8205 58.293 49.7047 58.4178 49.8367 58.7916C51.1315 62.4516 51.3511 63.2124 50.7433 63.3516C50.3791 63.435 50.2165 63.1716 50.1343 62.8752C48.9751 58.662 48.4957 58.005 49.6471 57.5676C50.8531 57.1104 51.9199 57.4698 52.9411 58.1076C53.6725 58.5636 52.9615 60.336 52.2967 61.0284Z" fill="#252525"/>
<path d="M58.9941 61.8972C58.9815 63.693 56.534 64.203 56.3888 63.705C56.279 63.333 57.2288 62.9784 57.6152 62.7852C59.1056 62.0436 57.7718 60.6492 56.3444 59.8392C55.8644 59.5656 55.6244 59.799 53.9858 62.8566C53.7344 63.3264 53.6397 63.6918 53.3259 63.5196C53.0259 63.3534 53.1308 63.072 53.822 61.7364C55.0022 59.4564 55.5759 58.659 56.5263 59.076C57.7653 59.6184 59.0805 60.828 58.9941 61.8972Z" fill="#252525"/>
<path d="M56.589 67.8702C57.558 67.866 58.5612 68.673 59.1384 67.98C59.3215 67.7256 59.4302 67.425 59.4524 67.1124C59.4747 66.7998 59.4096 66.4866 59.2644 66.2088C59.1829 66.0144 59.0356 65.8548 58.8485 65.7582C58.6613 65.661 58.4461 65.6328 58.2402 65.6784C54.7374 65.8956 54.7002 66.03 54.6402 65.6508C54.5892 65.3238 54.9342 65.2956 55.1664 65.2584C56.3514 65.049 57.5567 64.9788 58.758 65.049C60.927 65.2152 60.378 69.1842 58.218 68.9178C57.8812 68.8908 57.5563 68.781 57.2721 68.5986C56.9879 68.4156 56.7533 68.1654 56.589 67.8702Z" fill="#252525"/>
<path d="M52.1016 65.04C51.8129 64.998 51.519 65.0676 51.28 65.235C51.0409 65.4024 50.8747 65.6544 50.8152 65.94C50.8056 66.18 50.9178 66.4866 50.5674 66.54C49.6542 66.684 49.4928 64.2324 51.5808 63.9366C53.2452 63.7008 53.9712 65.2536 53.4408 66.1422C53.307 66.3672 53.193 66.6984 52.8696 66.6162C52.38 66.4914 53.199 65.1084 52.1016 65.04Z" fill="#252525"/>
<path d="M87.645 65.3142C87.6396 66.2142 86.1414 65.3928 86.0898 64.3542C86.04 63.3522 87.66 63.3156 87.645 65.3142Z" fill="#252525"/>
<path d="M83.607 66.2154C84.3312 66.207 84.987 66.609 84.9522 66.945C84.9186 67.245 84.1386 67.56 83.6004 67.4898C83.517 67.4892 83.4342 67.4724 83.3568 67.44C83.28 67.4076 83.2098 67.3602 83.151 67.3008C83.0922 67.2414 83.0454 67.1712 83.0142 67.0932C82.9824 67.0158 82.9662 66.933 82.9668 66.8496C82.9674 66.7656 82.9842 66.6828 83.0166 66.606C83.049 66.5286 83.0964 66.4584 83.1558 66.3996C83.2152 66.3408 83.2854 66.2946 83.3634 66.2628C83.4408 66.231 83.5236 66.2148 83.607 66.2154Z" fill="#252525"/>
<path d="M91.4664 63.9258C91.4202 64.1898 91.314 64.4394 91.1568 64.656C90.999 64.8732 90.7938 65.0508 90.5568 65.1762C89.9184 65.4162 90.2646 63.7962 90.504 63.5118C90.5772 63.4158 90.6804 63.3474 90.7968 63.3168C90.9132 63.2862 91.0362 63.2958 91.1472 63.3432C91.2576 63.3906 91.3488 63.474 91.407 63.5796C91.4652 63.6852 91.4856 63.807 91.4664 63.9258Z" fill="#252525"/>
<path d="M69.8682 67.0746C68.8206 67.0464 69.0282 65.7228 70.014 65.6946C70.0962 65.6802 70.1808 65.6856 70.2606 65.7096C70.341 65.7336 70.4142 65.7762 70.4748 65.8338C70.5354 65.8914 70.5816 65.9622 70.6098 66.0408C70.6386 66.1194 70.6482 66.2034 70.638 66.2862C70.6332 66.7902 70.3008 67.0002 69.8682 67.0746Z" fill="#252525"/>
<path d="M67.6566 68.3856C67.5486 68.382 67.4454 68.3376 67.3692 68.2614C67.2924 68.1846 67.2474 68.082 67.2438 67.974C67.2402 67.866 67.2774 67.7604 67.3488 67.6788C67.4202 67.5972 67.5198 67.5456 67.6272 67.5348C68.1684 67.5066 68.2644 68.2656 67.6566 68.3856Z" fill="#252525"/>
<path d="M67.5312 64.7958C67.4496 65.5038 66.6816 65.3802 66.6486 64.8714C66.6132 64.3236 67.38 64.2678 67.5312 64.7958Z" fill="#252525"/>
<path d="M96.6966 80.7336C96.696 80.655 96.6798 80.577 96.6492 80.5044C96.618 80.4318 96.5724 80.3664 96.5154 80.3118C96.459 80.2572 96.3918 80.2146 96.318 80.1864C96.2442 80.1582 96.1662 80.1456 96.087 80.148C96.0084 80.151 95.931 80.1696 95.8596 80.2026C95.7882 80.2356 95.724 80.283 95.6712 80.3412C95.6178 80.3994 95.5776 80.4678 95.5512 80.5422C95.5254 80.6166 95.5146 80.6958 95.5194 80.7744C95.52 80.853 95.5362 80.931 95.5674 81.0036C95.5986 81.0762 95.6436 81.1416 95.7006 81.1962C95.7576 81.2508 95.8248 81.2934 95.898 81.3216C95.9718 81.3492 96.0504 81.3624 96.129 81.36C96.2082 81.357 96.2856 81.3384 96.357 81.3054C96.4284 81.2724 96.4926 81.225 96.5454 81.1668C96.5982 81.1086 96.639 81.0396 96.6648 80.9652C96.6912 80.8908 96.702 80.8122 96.6966 80.7336Z" fill="#252525"/>
<path d="M94.0548 80.823C93.8334 80.8482 93.6294 80.9538 93.4818 81.1206C93.3342 81.2874 93.2532 81.5028 93.2556 81.7254C93.2574 81.948 93.342 82.1622 93.4926 82.326C93.6432 82.4904 93.8496 82.5924 94.071 82.6134C94.2924 82.5888 94.4964 82.4826 94.644 82.3158C94.7922 82.149 94.8726 81.9336 94.8702 81.711C94.8684 81.4884 94.7838 81.2742 94.6332 81.1104C94.4826 80.946 94.2768 80.844 94.0548 80.823Z" fill="#252525"/>
<path d="M53.354 75.4836C53.9804 75.2868 53.8574 74.4726 53.8574 73.7772C53.7098 72.2832 53.741 71.814 53.3618 71.8164C53.1374 71.8164 53.0966 72.0636 53.0762 72.2424C52.8068 74.6184 53.063 74.6928 52.3946 74.8068C51.6811 74.9544 50.9431 74.934 50.2388 74.7468C49.1624 74.4288 49.4342 76.7136 53.354 75.4836Z" fill="#252525"/>
<path d="M62.3658 77.256C63.867 78.2604 65.6124 78.8394 67.416 78.9324C73.9818 78.9552 76.4664 72.9324 75.6882 72.6108C75.3402 72.4656 75.2682 72.885 75.1158 73.1952C72.8082 77.9556 68.2506 79.2162 63.366 76.938C62.2926 76.4376 62.046 76.2138 61.8474 76.4796C61.6242 76.7754 62.0112 77.0316 62.3658 77.256Z" fill="#252525"/>
<path d="M56.4974 75.3738C56.9543 75.3402 57.3858 75.1506 57.7198 74.8374C58.0537 74.5236 58.27 74.1048 58.3322 73.6512C58.1006 72.4344 58.0832 72.0912 57.6974 72.1746C56.9342 72.3366 58.4996 73.6188 57.0332 74.2626C56.375 74.5518 55.745 75.2886 56.4974 75.3738Z" fill="#252525"/>
<path d="M86.6598 71.9946C86.6736 71.7042 86.5398 71.493 86.2446 71.5008C85.6446 71.517 85.791 72.0828 85.6194 72.3522C85.569 73.4046 86.6304 72.6228 86.6598 71.9946Z" fill="#252525"/>
<path d="M81.5352 72.6198C82.6842 73.773 84.1254 74.5902 85.7046 74.9844C87.2838 75.378 88.9404 75.3336 90.4962 74.8554C94.5192 73.7298 96.201 70.3116 95.7246 68.7648C95.166 69.1206 95.1606 70.4376 93.4134 71.9892C90.3606 74.7012 85.7592 74.3892 82.692 72.2016C82.392 71.9856 82.0848 71.7678 81.7638 71.5824C81.3552 71.3454 80.7318 71.88 81.5352 72.6198Z" fill="#252525"/>
<path d="M91.8534 71.727C92.1024 71.7744 92.0628 71.448 92.097 71.241C92.0442 70.911 92.0214 70.5342 91.5474 70.512C90.8898 70.4802 91.1238 71.5878 91.8534 71.727Z" fill="#252525"/>
<path d="M31.6333 60.6C31.7551 60.6354 31.8856 60.6252 32.0005 60.5718C32.1155 60.5184 32.2072 60.4248 32.2585 60.309C32.5081 59.8206 33.3709 56.28 36.6865 56.0004C40.2721 55.7004 39.5755 52.8612 42.1261 52.6692C42.5389 52.638 42.9517 52.5984 43.3645 52.5582C43.4929 52.5456 43.6693 52.6884 43.7407 52.4934C43.8043 52.3188 43.6879 52.1766 43.5553 52.0656C43.1148 51.7504 42.5807 51.5935 42.0397 51.6204C38.8567 51.4638 39.6445 54.987 36.2341 55.0518C34.1653 55.0914 31.8847 57.5424 31.5661 60.105C31.5451 60.2706 31.4185 60.5298 31.6333 60.6Z" fill="#252525"/>
<path d="M82.6554 90.6C81.9576 90.726 82.032 91.6002 82.6206 91.5894C82.6872 91.5948 82.755 91.587 82.8186 91.566C82.8822 91.545 82.941 91.5108 82.9914 91.4664C83.0412 91.422 83.082 91.3674 83.1108 91.3068C83.139 91.2462 83.1552 91.1802 83.1576 91.113C83.16 91.0458 83.1486 90.9792 83.1246 90.9162C83.1 90.8538 83.0634 90.7968 83.0166 90.7488C82.9692 90.7008 82.9134 90.663 82.851 90.6372C82.7892 90.612 82.7226 90.5994 82.6554 90.6Z" fill="#252525"/>
<path d="M79.6518 93.3648C79.5654 92.5758 78.4518 92.4522 78.4458 93.2196C78.4392 93.9516 79.7196 93.987 79.6518 93.3648Z" fill="#252525"/>
<path d="M59.4242 100.246C59.4275 100.123 59.3828 100.004 59.2999 99.9144C59.2169 99.8244 59.102 99.7704 58.9798 99.7638C58.8575 99.7566 58.7375 99.798 58.6451 99.8784C58.5528 99.9588 58.4954 100.072 58.4852 100.194C58.48 100.257 58.4874 100.32 58.507 100.379C58.5265 100.439 58.5579 100.495 58.5992 100.542C58.6405 100.589 58.6909 100.628 58.7474 100.656C58.8039 100.684 58.8654 100.7 58.9282 100.703C58.991 100.706 59.0539 100.697 59.1131 100.676C59.1722 100.655 59.2266 100.622 59.2729 100.579C59.3191 100.537 59.3563 100.485 59.3823 100.428C59.4083 100.37 59.4226 100.309 59.4242 100.246Z" fill="#252525"/>
<path d="M57.566 98.3184C57.5054 98.3112 57.444 98.3172 57.3858 98.3352C57.3275 98.3538 57.2739 98.3838 57.2282 98.4246C57.1826 98.4648 57.1462 98.5146 57.1211 98.5704C57.0961 98.6262 57.0832 98.6862 57.0832 98.7474C57.0832 98.8086 57.0961 98.8686 57.1211 98.9244C57.1462 98.9802 57.1826 99.03 57.2282 99.0702C57.2739 99.111 57.3275 99.1416 57.3858 99.1596C57.444 99.1782 57.5054 99.1836 57.566 99.1764C57.671 99.1638 57.7679 99.1134 57.8381 99.0342C57.9084 98.9556 57.9472 98.853 57.9472 98.7474C57.9472 98.6418 57.9084 98.5398 57.8381 98.4606C57.7679 98.3814 57.671 98.331 57.566 98.3184Z" fill="#252525"/>
<path d="M56.534 101.807C56.5312 101.882 56.5432 101.957 56.5692 102.027C56.5952 102.097 56.6348 102.162 56.6857 102.217C56.7367 102.272 56.7979 102.316 56.866 102.347C56.9341 102.379 57.0076 102.396 57.0824 102.399C57.1573 102.402 57.232 102.39 57.3022 102.364C57.3725 102.338 57.4369 102.298 57.4918 102.247C57.5468 102.196 57.5911 102.135 57.6224 102.067C57.6536 101.999 57.6712 101.926 57.674 101.851C57.5336 101.003 56.5088 101.129 56.534 101.807Z" fill="#252525"/>
<path d="M36.9938 80.76C36.9932 80.8638 37.0138 80.967 37.0543 81.0624C37.0948 81.1578 37.1543 81.2442 37.2292 81.3162C37.304 81.3882 37.3928 81.444 37.49 81.4806C37.5872 81.5172 37.6908 81.5334 37.7945 81.5286C37.8982 81.5238 37.9999 81.498 38.0933 81.453C38.1867 81.4074 38.27 81.3438 38.338 81.2652C38.4059 81.1866 38.4572 81.0954 38.4888 80.9964C38.5203 80.8974 38.5314 80.793 38.5214 80.6898C38.5024 80.4948 38.4091 80.3136 38.2607 80.1852C38.1124 80.0568 37.9203 79.9902 37.7242 79.9992C37.5281 80.0082 37.343 80.0922 37.207 80.2338C37.0711 80.3754 36.9947 80.5638 36.9938 80.76Z" fill="#252525"/>
<path d="M45.9097 73.68C46.7863 73.716 47.7613 72.5352 48.5671 71.5944C48.7201 71.4144 48.9601 71.1744 48.7417 70.9452C48.5083 70.7022 48.2426 70.9098 48.0302 71.076C46.3453 72.396 45.9991 72.9828 45.4687 72.1494C44.7853 71.0748 44.6599 70.6626 44.2411 70.8816C43.9249 71.0466 43.9507 71.3412 44.0653 71.6394C44.4091 72.534 44.9665 73.6416 45.9097 73.68Z" fill="#252525"/>
<path d="M40.3266 81.7638C40.3879 81.7626 40.4483 81.7494 40.5044 81.7254C40.5605 81.7008 40.6113 81.6654 40.6538 81.6216C40.6963 81.5772 40.7297 81.5256 40.7522 81.4686C40.7746 81.4116 40.7855 81.3504 40.7844 81.2892C40.7833 81.228 40.7702 81.1674 40.7458 81.1116C40.7213 81.0552 40.686 81.0048 40.642 80.9622C40.5979 80.9196 40.5458 80.886 40.4889 80.8638C40.4319 80.8416 40.3711 80.8302 40.3098 80.8314C40.1862 80.8338 40.0685 80.8848 39.9826 80.9742C39.8968 81.063 39.8498 81.1824 39.852 81.306C39.8543 81.4296 39.9055 81.5472 39.9945 81.633C40.0835 81.7194 40.203 81.7662 40.3266 81.7638Z" fill="#252525"/>
<path fill-rule="evenodd" clip-rule="evenodd" d="M104.558 60.6714C105.097 60.882 105.713 65.7234 105.765 66.1914C106.482 72.6816 105.412 82.0974 103.615 87.9564C96.555 110.968 74.0514 123.21 51.7699 112.669C51.2204 112.409 50.6706 112.166 50.1177 111.923C49.4306 111.62 48.7387 111.316 48.0368 110.972C48.4441 110.411 48.8244 109.814 49.1737 109.179C49.6432 109.443 50.1448 109.719 50.6815 110.009C53.951 111.775 55.7105 112.215 57.784 112.733C58.1888 112.834 58.6056 112.939 59.0479 113.056C67.0224 115.177 74.3442 115.205 82.5504 111.373C107.89 99.5382 105.035 64.3926 104.218 62.7066C104.109 62.4816 103.894 62.6178 103.198 63.0594C102.901 63.2478 102.517 63.4914 102.015 63.7866C92.652 69.2958 77.4798 73.0926 61.8522 72.0168C47.1733 71.0058 37.9694 65.8278 34.1027 63.6528C32.7737 62.9046 32.0752 62.5116 32.0017 62.7648C31.9729 62.8542 31.0219 75.6462 33.0217 86.0802C33.1181 86.5824 33.2246 87.0744 33.3433 87.5592C32.8401 87.0492 32.2767 86.5884 31.6619 86.1816C30.9373 82.5732 30.3118 77.8038 30.2431 71.9106C30.1813 66.624 30.8419 62.3772 31.1473 61.6794C31.3225 61.2768 31.6045 61.2678 32.0113 61.425C33.2056 61.8864 34.4495 62.3934 35.7508 62.9238C42.5678 65.7024 50.9564 69.1218 61.9962 70.005C78.2508 71.3082 94.0992 66.7686 103.414 61.1682C103.523 61.1028 103.621 61.0422 103.711 60.9864C104.139 60.7218 104.369 60.5796 104.558 60.6714ZM36.0487 94.452C36.0379 94.9494 35.9921 95.4594 35.9093 95.982C36.2561 96.0006 36.6024 96.0246 36.9481 96.054C36.6256 95.5038 36.3264 94.971 36.0487 94.452Z" fill="#252525"/>
<path d="M31.0338 100.643C29.7852 100.638 28.2504 98.7768 29.5902 98.565C31.425 98.2746 34.08 98.6028 35.961 98.7948C36.1086 98.8098 36.348 98.787 36.3156 99.0276C36.2928 99.1956 36.0852 99.1782 35.946 99.1764C31.566 99.1308 31.5834 99.0612 29.9406 99.2106C30.225 99.78 30.8082 100.073 31.0338 100.643Z" fill="#252525"/>
<path d="M44.2355 101.883C43.4429 101.703 44.2115 101.954 40.0205 100.492C39.8459 100.432 39.6035 100.382 39.6539 100.151C39.7073 99.9042 39.9593 99.99 40.1285 100.015C42.9107 100.439 44.0327 101.735 45.5549 100.787C46.2107 100.38 46.4087 101.7 44.2355 101.883Z" fill="#252525"/>
<path d="M33.9175 101.39C34.9933 102.145 35.1817 102.221 35.1055 102.434C34.9141 102.97 32.0371 101.494 33.4537 100.799C34.1972 100.44 34.9729 100.152 35.7703 99.9384C35.9221 99.8964 36.1303 99.849 36.2179 100.028C36.3907 100.37 36.0247 100.433 33.9175 101.39Z" fill="#252525"/>
<path d="M38.0339 100.411C38.7497 101.815 37.7555 102.431 39.0959 102.775C39.5603 102.895 40.0163 102.775 39.9893 103.126C39.9605 103.497 39.4847 103.376 39.2093 103.375C38.0969 103.375 37.6691 102.892 37.7927 101.784C37.7818 101.315 37.8637 100.848 38.0339 100.411Z" fill="#252525"/>
<path d="M37.9757 98.8722C38.3957 98.9652 38.9555 98.8248 39.0323 99.4722C39.1457 100.425 36.7175 100.386 36.9689 99.3684C37.1015 98.8326 37.5767 98.9124 37.9757 98.8722Z" fill="#252525"/>
<path d="M50.7041 101.164C49.9715 100.148 48.9901 99.3378 47.8541 98.8104C44.073 97.1622 40.0271 96.2046 35.9081 95.9832C37.1789 87.9762 29.5859 83.2548 22.9661 84.2148C19.8198 84.7254 16.9982 86.4468 15.1056 89.0118C13.213 91.5768 12.3997 94.7802 12.8399 97.9374C13.5785 103.484 18.4499 107.683 23.7761 107.417C24.7157 107.37 23.8127 107.777 26.4473 111.457C33.5075 121.32 48.3599 117.607 51.1799 103.594C51.2854 103.178 51.2974 102.745 51.2151 102.325C51.1328 101.905 50.9583 101.508 50.7041 101.164ZM49.2641 101.262C49.7255 101.654 49.7255 101.792 49.1561 102.089C47.9977 102.69 46.777 103.163 45.5159 103.5C38.0573 105.497 32.2163 103.084 25.7579 99.63C25.5833 99.5364 25.3205 99.4902 25.3217 99.2388C25.3217 98.9988 25.5659 98.9196 25.7471 98.8302C33.1757 95.16 45.7505 98.2746 49.2653 101.262H49.2641ZM23.8631 99.5556C22.4999 105.78 24.9959 106.291 22.4999 106.054C20.7545 105.887 19.0427 105.588 17.6255 104.42C16.2253 103.348 15.1375 101.921 14.4754 100.286C13.8131 98.652 13.6007 96.8694 13.8599 95.1252C14.1638 92.694 15.234 90.4224 16.9154 88.6398C18.5968 86.8578 20.802 85.6572 23.2115 85.212C29.8361 83.9298 36.0611 89.1066 34.8797 95.949C28.7561 95.8464 24.2897 97.6164 23.8643 99.5556H23.8631ZM47.7365 108.799C44.3735 113.914 39.7091 116.683 33.8501 114.909C24.4397 112.06 23.9759 101.306 24.7415 100.269C30.8615 104.953 39.0029 106.938 47.0423 104.086C47.9543 103.763 48.8201 103.306 49.7081 102.912C50.0189 102.571 49.2821 106.45 47.7377 108.799H47.7365Z" fill="#252525"/>
<path d="M25.0853 91.7748C25.9253 91.221 26.9297 90.6138 27.0281 89.5728C27.055 89.4498 27.0437 89.3214 26.9958 89.2044C26.9479 89.088 26.8656 88.989 26.7599 88.92C26.5085 88.7796 26.3999 89.04 26.2583 89.1678C25.8066 89.6274 25.2832 90.0108 24.7085 90.303C23.4827 90.8376 23.7557 90.963 23.2199 89.8008C23.1229 89.5716 23.0123 89.3484 22.8887 89.1324C22.7873 88.9674 22.9487 88.6278 22.6487 88.6344C21.9965 88.6494 21.6767 89.8824 22.1507 90.816C22.4615 91.428 22.1897 91.296 19.9829 92.103C19.8203 92.163 19.5797 92.1732 19.5893 92.4264C19.6187 93.2406 21.6569 93.0756 22.1153 93.0756C21.9491 93.7494 20.8421 94.2936 21.6407 94.4802C22.3157 94.6386 23.1065 94.0194 23.5091 93.4602C24.1271 92.6016 24.1235 93.9912 26.5691 93.8502C26.8624 93.8664 27.1534 93.7914 27.4029 93.6366C27.6524 93.4818 27.8483 93.2544 27.9641 92.9844C28.4237 91.8234 27.1421 92.9304 25.0853 91.7748Z" fill="#252525"/>
</svg>
