<svg width="120" height="120" viewBox="0 0 120 120" fill="none" xmlns="http://www.w3.org/2000/svg">
<path d="M39.8496 25.335C38.7324 26.3814 34.3296 30.5466 33.0474 31.3704C32.8674 31.1514 30.1674 27.5136 30.1674 27.5136C30.1172 27.4442 30.0509 27.388 29.9742 27.3499C29.8975 27.3118 29.8127 27.2929 29.727 27.2949C29.6414 27.297 29.5575 27.3198 29.4827 27.3614C29.4078 27.4031 29.3442 27.4623 29.2974 27.534L23.2584 36.6456L19.4352 35.1384C19.3403 35.0978 19.2345 35.0906 19.135 35.118C19.0355 35.1453 18.9482 35.2056 18.8874 35.289L10.5846 46.476C10.5428 46.5317 10.5178 46.5982 10.5127 46.6677C10.5076 46.7372 10.5225 46.8067 10.5556 46.8679C10.5888 46.9292 10.6388 46.9796 10.6998 47.0133C10.7607 47.047 10.8301 47.0625 10.8996 47.058L39.2124 45.12C39.3396 45.111 39.4592 45.056 39.5487 44.9652C39.6383 44.8744 39.6917 44.7541 39.699 44.6268L40.761 25.7604C40.7679 25.652 40.742 25.544 40.6866 25.4506C40.6312 25.3571 40.5489 25.2826 40.4505 25.2366C40.3521 25.1907 40.2421 25.1755 40.1349 25.193C40.0277 25.2106 39.9282 25.2601 39.8496 25.335Z" fill="#644DF6"/>
<path d="M43.2942 71.7234L5.65799 77.3136C5.45791 77.3452 5.25333 77.3324 5.05871 77.2763C4.86408 77.2202 4.68414 77.122 4.53159 76.9887C4.37905 76.8555 4.25761 76.6904 4.17584 76.505C4.09408 76.3197 4.05399 76.1187 4.05839 75.9162V21.7566C4.07771 21.391 4.23008 21.045 4.48679 20.784C4.61586 20.6546 4.7698 20.5527 4.93934 20.4844C5.10887 20.4162 5.29047 20.3829 5.47319 20.3868C11.46 20.4894 58.3788 21.2838 61.3998 21.3318C61.7764 21.3472 62.134 21.5012 62.404 21.7642C62.674 22.0272 62.8373 22.3807 62.8626 22.7568V53.673C62.8794 53.7722 62.9308 53.8623 63.0077 53.9272C63.0846 53.9921 63.182 54.0277 63.2826 54.0277C63.3832 54.0277 63.4806 53.9921 63.5575 53.9272C63.6344 53.8623 63.6858 53.7722 63.7026 53.673V22.7568C63.7147 22.4479 63.6644 22.1398 63.5548 21.8508C63.4452 21.5618 63.2785 21.2979 63.0646 21.0747C62.8508 20.8515 62.5942 20.6738 62.3101 20.552C62.026 20.4302 61.7203 20.3668 61.4112 20.3658C58.3968 20.3058 11.4786 19.4208 5.49119 19.311C5.16614 19.3026 4.84272 19.3598 4.54031 19.4793C4.23789 19.5988 3.96269 19.7781 3.73117 20.0064C3.49965 20.2347 3.31658 20.5074 3.1929 20.8081C3.06923 21.1089 3.00749 21.4314 3.01139 21.7566C3.01139 79.7286 2.89619 76.1466 3.25139 76.923C3.472 77.3977 3.84025 77.7883 4.30114 78.0365C4.76203 78.2847 5.29084 78.3771 5.80859 78.3L43.404 72.4362C43.4974 72.4197 43.5808 72.3677 43.6367 72.2911C43.6926 72.2145 43.7168 72.1192 43.704 72.0252C43.6896 71.9308 43.6384 71.846 43.5616 71.7895C43.4847 71.7329 43.3885 71.7091 43.2942 71.7234ZM80.8758 66.0036L76.149 66.6636C75.7866 66.7113 75.4184 66.6412 75.0989 66.4635C74.7794 66.2859 74.5255 66.0102 74.3748 65.6772C74.1468 65.157 74.2548 66.5934 74.3058 48.3372C74.3056 47.9342 74.4582 47.5461 74.7329 47.2512C75.0076 46.9563 75.384 46.7766 75.786 46.7484C98.826 45.1824 97.806 45.0762 98.406 45.2892C98.7374 45.4023 99.0259 45.6149 99.2318 45.8981C99.4378 46.1813 99.5513 46.5212 99.5568 46.8714L99.6048 50.8788C99.6048 50.9751 99.643 51.0674 99.7111 51.1355C99.7792 51.2035 99.8715 51.2418 99.9678 51.2418C100.064 51.2418 100.156 51.2035 100.224 51.1355C100.293 51.0674 100.331 50.9751 100.331 50.8788C100.36 46.5666 100.46 46.5198 100.187 45.8574C99.9789 45.3693 99.6251 44.9573 99.174 44.6781C98.7229 44.3988 98.1964 44.2658 97.6668 44.2974C95.598 44.421 78.54 45.4896 75.7176 45.6774C75.0417 45.7229 74.4082 46.0233 73.9453 46.5179C73.4824 47.0126 73.2246 47.6645 73.224 48.342C73.2312 50.6508 73.284 63.2694 73.2996 64.9818C73.3021 65.3525 73.3848 65.7183 73.542 66.0541C73.6992 66.3899 73.9272 66.6876 74.2103 66.927C74.4934 67.1664 74.8249 67.3417 75.1821 67.4409C75.5393 67.5401 75.9138 67.5609 76.2798 67.5018L80.9856 66.7218C81.0799 66.707 81.1644 66.6554 81.2207 66.5784C81.2769 66.5013 81.3003 66.4051 81.2856 66.3108C81.271 66.2162 81.22 66.131 81.1434 66.0736C81.0668 66.0161 80.9707 65.991 80.8758 66.0036ZM97.9128 21.1332C73.8528 20.5416 75.57 20.4984 74.895 20.7768C74.4095 20.9716 73.9926 21.306 73.697 21.7376C73.4014 22.1693 73.2403 22.6789 73.2342 23.202V39.9102C73.2314 40.2714 73.3033 40.6293 73.4456 40.9613C73.5879 41.2934 73.7974 41.5924 74.0609 41.8395C74.3244 42.0865 74.6362 42.2764 74.9766 42.3971C75.3171 42.5177 75.6789 42.5666 76.0392 42.5406L98.0496 41.0472C98.7073 41.013 99.3248 40.7202 99.7675 40.2327C100.21 39.7451 100.442 39.1023 100.413 38.4444V23.5926C100.382 22.9439 100.108 22.3307 99.6439 21.8759C99.1803 21.421 98.562 21.1581 97.9128 21.1398V21.1332ZM97.9056 21.8592C98.3589 21.8727 98.7892 22.0618 99.1056 22.3866C99.3996 22.7175 99.5521 23.1505 99.5304 23.5926V38.4444C99.5016 38.8485 99.3296 39.2291 99.0455 39.5178C98.7613 39.8066 98.3836 39.9846 97.98 40.02L75.96 41.4654C75.7474 41.477 75.5346 41.4455 75.3344 41.3729C75.1342 41.3003 74.9508 41.188 74.795 41.0428C74.6393 40.8975 74.5145 40.7224 74.428 40.5278C74.3416 40.3332 74.2953 40.1231 74.292 39.9102C74.292 21.6648 74.2434 23.004 74.4054 22.5924C74.487 22.3995 74.6059 22.2246 74.7551 22.0777C74.9044 21.9307 75.0812 21.8147 75.2754 21.7362C75.7176 21.5622 73.98 21.5982 97.902 21.8664L97.9056 21.8592Z" fill="#191919"/>
<path d="M11.4126 46.1142C12.8238 46.0044 39.15 44.2368 39.15 44.2368C39.1973 44.2322 39.2451 44.2371 39.2904 44.2512C39.3358 44.2653 39.3779 44.2884 39.4143 44.319C39.4506 44.3497 39.4805 44.3873 39.5021 44.4296C39.5236 44.472 39.5365 44.5182 39.54 44.5656C39.548 44.6628 39.5172 44.7591 39.4544 44.8337C39.3915 44.9082 39.3017 44.9549 39.2046 44.9634L10.9122 47.2308C10.8385 47.2369 10.7644 47.2273 10.6947 47.2024C10.6251 47.1776 10.5616 47.1382 10.5084 47.0868C10.3986 46.9842 10.4256 46.8402 10.4256 46.6896V25.7274C10.4256 25.5354 10.6794 25.371 10.8714 25.371C10.9665 25.3713 11.0576 25.4087 11.1254 25.4753C11.1933 25.5419 11.2324 25.6324 11.2344 25.7274C11.2344 25.7274 11.4126 44.607 11.4126 46.1142Z" fill="#191919"/>
<path d="M81.1002 55.971C81.7002 55.851 82.2402 54.297 82.5402 53.697C82.5807 53.6085 82.6543 53.5395 82.7452 53.5048C82.8362 53.4701 82.9371 53.4725 83.0262 53.5116C83.0699 53.5309 83.1094 53.5587 83.1424 53.5933C83.1753 53.6278 83.2012 53.6686 83.2184 53.7132C83.2356 53.7577 83.2439 53.8053 83.2427 53.8531C83.2415 53.9008 83.231 53.9479 83.2116 53.9916C83.0108 54.7934 82.6994 55.5634 82.2864 56.2794C81.7998 56.9502 80.9508 57.3138 80.3616 56.7246C79.8888 56.265 79.7358 55.2342 79.0806 54.6762C78.8112 54.4248 78.6006 54.4962 78.3132 54.7242C78.0975 54.9003 77.9001 55.0977 77.724 55.3134C77.1485 56.1337 76.707 57.0402 76.416 57.999C76.4046 58.0456 76.3838 58.0894 76.3549 58.1276C76.3261 58.1659 76.2897 58.1979 76.248 58.2216C76.2063 58.2453 76.1602 58.2602 76.1125 58.2655C76.0649 58.2708 76.0166 58.2662 75.9708 58.2522C75.8808 58.2273 75.804 58.1683 75.7567 58.0878C75.7093 58.0073 75.6951 57.9116 75.717 57.8208C75.8818 56.6997 76.2859 55.6272 76.902 54.6762C78.2622 52.8624 79.7028 52.974 80.8068 55.3752C80.8699 55.5891 80.9691 55.7906 81.1002 55.971Z" fill="#644DF6"/>
<path d="M83.64 24.42C81.8652 24.4671 80.1789 25.2053 78.9402 26.4773C77.7015 27.7493 77.0084 29.4546 77.0084 31.23C77.0084 33.0055 77.7015 34.7108 78.9402 35.9828C80.1789 37.2547 81.8652 37.9929 83.64 38.04C84.5136 38.0228 85.3752 37.8325 86.1747 37.4801C86.9743 37.1276 87.696 36.6201 88.2982 35.9869C88.9003 35.3536 89.3708 34.6073 89.6825 33.7909C89.9941 32.9746 90.1408 32.1046 90.114 31.2312C90.039 27.6852 87.3894 24.42 83.64 24.42ZM83.64 36.9912C82.1449 36.9572 80.7243 36.3318 79.6895 35.2521C78.6548 34.1723 78.0904 32.7264 78.12 31.2312C78.12 27.8484 80.898 25.266 83.9358 25.4712C83.8824 26.397 83.6058 30.3156 83.5716 31.1442C83.5709 31.2392 83.5952 31.3326 83.6421 31.4152C83.6891 31.4978 83.7569 31.5665 83.8389 31.6144C83.9209 31.6624 84.014 31.6879 84.109 31.6883C84.204 31.6888 84.2974 31.6642 84.3798 31.617C85.8829 30.6944 87.3361 29.693 88.7334 28.617C90.5208 32.5128 87.72 37.0242 83.64 36.9882V36.9912Z" fill="#644DF6"/>
<path d="M44.8632 51.8592C44.8557 51.7625 44.8106 51.6725 44.7376 51.6086C44.6646 51.5447 44.5695 51.5119 44.4726 51.5172C44.4726 51.5172 14.7414 53.4144 12.6 53.565C12.0985 53.6018 11.6289 53.8246 11.283 54.1896C10.9372 54.5546 10.7401 55.0356 10.7304 55.5384C10.71 56.9904 10.5504 71.7258 10.5504 71.7258C10.5486 71.8213 10.5847 71.9136 10.651 71.9824C10.7172 72.0512 10.808 72.0909 10.9035 72.0927C10.999 72.0945 11.0913 72.0583 11.1601 71.9921C11.2289 71.9259 11.2686 71.8351 11.2704 71.7396C11.2704 71.7396 11.5212 64.0398 11.6754 59.2254L15.3474 58.9902C15.1428 62.6976 14.9028 67.6248 14.9274 71.3244C14.9235 71.373 14.9294 71.4219 14.9448 71.4681C14.9602 71.5144 14.9847 71.5571 15.0169 71.5937C15.0491 71.6303 15.0884 71.6601 15.1323 71.6812C15.1763 71.7023 15.224 71.7144 15.2727 71.7167C15.3214 71.7189 15.3701 71.7114 15.4158 71.6945C15.4616 71.6776 15.5034 71.6517 15.539 71.6183C15.5745 71.5849 15.6029 71.5447 15.6226 71.5001C15.6422 71.4555 15.6527 71.4073 15.6534 71.3586C16.038 67.5258 16.2534 62.8014 16.3944 58.9224C22.5858 58.524 38.0292 57.4002 39.3606 57.273C39.1164 61.026 38.8848 64.773 38.8848 68.073C38.8803 68.1697 38.9141 68.2642 38.9789 68.3361C39.0437 68.408 39.1343 68.4514 39.2309 68.4569C39.3275 68.4623 39.4224 68.4294 39.4949 68.3653C39.5674 68.3011 39.6116 68.211 39.618 68.1144C39.921 64.8504 40.2054 61.365 40.4202 57.171C41.2428 57.09 41.7126 57.0408 41.7126 57.0408C41.8086 57.0331 41.8977 56.9878 41.9606 56.9148C42.0234 56.8418 42.0548 56.7469 42.048 56.6508C42.045 56.6029 42.0324 56.5562 42.0111 56.5132C41.9897 56.4703 41.96 56.432 41.9237 56.4007C41.8874 56.3694 41.8451 56.3457 41.7995 56.331C41.7539 56.3162 41.7058 56.3107 41.658 56.3148C41.658 56.3148 41.223 56.3322 40.458 56.3676C40.503 55.3476 40.5252 53.5704 40.5282 52.5444L44.5188 52.2444C44.6154 52.2387 44.7059 52.1949 44.7704 52.1228C44.8349 52.0506 44.8683 51.9559 44.8632 51.8592ZM11.7 58.4958C11.7474 57.0138 11.7822 55.9074 11.7918 55.5588C11.7967 55.3201 11.891 55.092 12.0559 54.9195C12.2209 54.7469 12.4446 54.6426 12.6828 54.627C13.0332 54.6036 14.1228 54.5232 15.7062 54.4062C15.6264 55.3296 15.4524 57.363 15.3996 58.1316C15.3 58.14 12.24 58.44 11.7 58.4958ZM39.42 56.415C39.483 56.415 24.0174 57.4506 16.4238 58.05C16.4442 57.3504 16.4652 54.7212 16.4646 54.3498C22.3506 53.9124 33.4764 53.0754 39.8046 52.5984C39.7608 53.0238 39.48 55.7526 39.42 56.415Z" fill="#191919"/>
<path d="M44.604 29.088C45.2092 29.1557 45.8197 29.1625 46.4262 29.1084C47.3291 29.0904 48.2283 28.9871 49.1118 28.8C49.2081 28.7982 49.2997 28.7582 49.3665 28.6888C49.4332 28.6194 49.4697 28.5264 49.4679 28.4301C49.4661 28.3338 49.4261 28.2422 49.3567 28.1755C49.2873 28.1087 49.1943 28.0722 49.098 28.074C48.714 28.026 48.3378 27.9714 47.9472 27.9576C47.1821 27.9625 46.418 28.0128 45.6588 28.1082C45.2795 28.1756 44.9045 28.2649 44.5356 28.3758C44.4885 28.3794 44.4426 28.3924 44.4007 28.4141C44.3587 28.4359 44.3216 28.4658 44.2915 28.5023C44.2614 28.5387 44.239 28.5808 44.2256 28.6261C44.2122 28.6714 44.208 28.7189 44.2134 28.7658C44.2243 28.8596 44.271 28.9455 44.3439 29.0055C44.4167 29.0656 44.5099 29.0951 44.604 29.088Z" fill="#191919"/>
<path d="M54.6918 28.6368C55.5539 28.7086 56.4206 28.7016 57.2814 28.6158C57.8681 28.5913 58.451 28.5087 59.0214 28.3692C59.1157 28.3599 59.2028 28.3146 59.2644 28.2426C59.326 28.1707 59.3575 28.0776 59.3521 27.983C59.3468 27.8884 59.3051 27.7996 59.2357 27.735C59.1664 27.6704 59.0748 27.6352 58.98 27.6366C58.4235 27.5597 57.8617 27.5276 57.3 27.5406C56.3846 27.5113 55.4711 27.6411 54.6 27.924C54.5507 27.9267 54.5025 27.9396 54.4584 27.9617C54.4143 27.9839 54.3752 28.0148 54.3436 28.0527C54.312 28.0906 54.2885 28.1346 54.2746 28.1819C54.2606 28.2293 54.2566 28.279 54.2627 28.328C54.2688 28.3769 54.2849 28.4241 54.31 28.4666C54.3351 28.5091 54.3687 28.546 54.4087 28.5749C54.4486 28.6039 54.4941 28.6243 54.5423 28.635C54.5905 28.6456 54.6404 28.6462 54.6888 28.6368H54.6918Z" fill="#191919"/>
<path d="M43.851 33.3564C44.3386 33.4428 44.8302 33.5045 45.324 33.5412C46.3105 33.5803 47.2985 33.5642 48.2832 33.4932C48.7764 33.4458 49.263 33.3564 49.7496 33.2742C49.7975 33.2718 49.8445 33.26 49.8878 33.2394C49.9311 33.2188 49.97 33.1898 50.002 33.1541C50.0341 33.1184 50.0588 33.0768 50.0747 33.0315C50.0906 32.9862 50.0974 32.9383 50.0946 32.8904C50.0919 32.8425 50.0797 32.7956 50.0588 32.7524C50.0379 32.7092 50.0086 32.6706 49.9727 32.6388C49.9367 32.607 49.8949 32.5826 49.8495 32.5671C49.8041 32.5515 49.7561 32.5451 49.7082 32.5482C48.2508 32.4363 46.7875 32.4225 45.3282 32.5068C44.9304 32.5182 44.0376 32.6232 43.869 32.637C43.7735 32.6343 43.6809 32.6696 43.6115 32.7352C43.542 32.8008 43.5015 32.8913 43.4988 32.9868C43.4961 33.0823 43.5314 33.1749 43.597 33.2444C43.6626 33.3138 43.7531 33.3543 43.8486 33.357L43.851 33.3564Z" fill="#644DF6"/>
<path d="M53.4144 32.955C54.0046 33.0474 54.5992 33.1091 55.1958 33.1398C56.3795 33.172 57.564 33.1399 58.7442 33.0438C59.34 32.9892 59.9226 32.8932 60.5046 32.811C60.5534 32.8103 60.6015 32.7998 60.6461 32.7802C60.6907 32.7605 60.7309 32.7321 60.7643 32.6966C60.7977 32.661 60.8236 32.6192 60.8405 32.5734C60.8574 32.5277 60.865 32.479 60.8627 32.4303C60.8604 32.3816 60.8483 32.3339 60.8272 32.2899C60.8061 32.246 60.7763 32.2067 60.7397 32.1745C60.7031 32.1423 60.6604 32.1178 60.6142 32.1024C60.5679 32.087 60.519 32.0811 60.4704 32.085C60.0456 32.0646 59.6208 32.037 59.196 32.0304C58.0782 32.0028 54.756 32.1288 54.6132 32.1396C54.2226 32.1672 53.8332 32.2086 53.4348 32.2356C53.3393 32.2329 53.2467 32.2682 53.1772 32.3338C53.1078 32.3994 53.0673 32.4899 53.0646 32.5854C53.0619 32.6809 53.0972 32.7735 53.1628 32.8429C53.2284 32.9124 53.3189 32.9529 53.4144 32.9556V32.955Z" fill="#644DF6"/>
<path d="M45.3432 38.9052C45.552 38.925 45.9276 38.9808 46.2066 38.9808C46.4856 38.9808 47.5692 38.9208 47.9124 38.871C48.2064 38.8302 48.4806 38.7546 48.7686 38.691C48.8634 38.6858 48.9525 38.644 49.0172 38.5745C49.0818 38.5049 49.1169 38.413 49.1151 38.318C49.1133 38.2231 49.0748 38.1326 49.0076 38.0655C48.9404 37.9984 48.8497 37.96 48.7548 37.9584C47.8862 37.7937 46.9947 37.789 46.1244 37.9446C45.8321 38.0014 45.5454 38.0839 45.2676 38.1912C45.2172 38.1913 45.1674 38.2021 45.1214 38.2227C45.0754 38.2433 45.0343 38.2733 45.0007 38.3108C44.967 38.3484 44.9416 38.3925 44.9261 38.4405C44.9106 38.4884 44.9054 38.5391 44.9107 38.5892C44.916 38.6393 44.9318 38.6877 44.957 38.7314C44.9822 38.775 45.0163 38.8128 45.0571 38.8424C45.0979 38.8721 45.1444 38.8928 45.1937 38.9033C45.243 38.9138 45.2939 38.9138 45.3432 38.9034V38.9052Z" fill="#191919"/>
<path d="M42.4434 43.5918C42.9234 43.6134 43.3524 43.6518 44.238 43.6326C45.1086 43.6128 46.9596 43.4526 47.8074 43.3248C48.3966 43.2354 48.9786 43.0986 49.5678 42.975C49.6641 42.9623 49.7513 42.9118 49.8104 42.8347C49.8695 42.7577 49.8955 42.6603 49.8828 42.564C49.8701 42.4677 49.8196 42.3805 49.7425 42.3214C49.6655 42.2623 49.5681 42.2363 49.4718 42.249C48.0526 42.2607 46.6349 42.3452 45.2244 42.5022C44.278 42.5708 43.3364 42.6944 42.4044 42.8724C42.3572 42.8755 42.3111 42.8879 42.2686 42.9089C42.2262 42.9299 42.1884 42.959 42.1572 42.9946C42.1261 43.0302 42.1022 43.0716 42.0871 43.1164C42.072 43.1612 42.0658 43.2086 42.069 43.2558C42.0714 43.3025 42.0831 43.3482 42.1032 43.3904C42.1234 43.4325 42.1517 43.4703 42.1865 43.5015C42.2212 43.5327 42.2618 43.5568 42.3059 43.5723C42.35 43.5878 42.3967 43.5944 42.4434 43.5918Z" fill="#644DF6"/>
<path d="M55.4718 38.4342C55.7029 38.5002 55.9388 38.5482 56.1774 38.5776C56.6537 38.6166 57.1323 38.619 57.609 38.5848C57.8538 38.5461 58.0962 38.4934 58.335 38.427C58.384 38.4271 58.4326 38.4173 58.4778 38.3983C58.523 38.3792 58.5639 38.3513 58.5982 38.3162C58.6324 38.2811 58.6592 38.2394 58.6771 38.1937C58.6949 38.148 58.7034 38.0992 58.702 38.0502C58.7006 38.0012 58.6895 37.9529 58.6691 37.9083C58.6487 37.8637 58.6197 37.8236 58.5835 37.7904C58.5474 37.7572 58.505 37.7316 58.4588 37.7151C58.4126 37.6987 58.3636 37.6916 58.3146 37.6944C57.7601 37.5519 57.1869 37.4965 56.6154 37.53C56.2216 37.5209 55.8294 37.5835 55.458 37.7148C55.3623 37.7184 55.2718 37.7589 55.2053 37.8278C55.1389 37.8967 55.1017 37.9887 55.1016 38.0844C55.1053 38.1795 55.1462 38.2694 55.2154 38.3348C55.2846 38.4002 55.3766 38.4359 55.4718 38.4342Z" fill="#191919"/>
<path d="M53.0832 43.227C53.6064 43.239 54.1236 43.272 54.9126 43.2546C56.7447 43.2427 58.5721 43.0661 60.3726 42.7272C60.4676 42.7153 60.5541 42.6668 60.614 42.5922C60.6739 42.5175 60.7024 42.4225 60.6934 42.3272C60.6844 42.2319 60.6387 42.1438 60.566 42.0816C60.4932 42.0195 60.3991 41.988 60.3036 41.994C58.8476 41.9555 57.3905 42.0014 55.9398 42.1314C54.9611 42.1852 53.9879 42.3133 53.0286 42.5148C52.9813 42.517 52.935 42.5288 52.8925 42.5496C52.85 42.5703 52.8122 42.5996 52.7814 42.6355C52.7506 42.6714 52.7274 42.7132 52.7134 42.7584C52.6994 42.8036 52.6947 42.8512 52.6998 42.8982C52.7078 42.9924 52.7524 43.0796 52.8242 43.1411C52.8959 43.2026 52.9889 43.2335 53.0832 43.227Z" fill="#644DF6"/>
<path d="M13.098 61.119C12.9699 61.5035 12.982 61.9209 13.1322 62.2974C13.2636 62.7882 13.7508 62.7708 13.8588 62.277C13.9756 61.8928 13.961 61.4807 13.8174 61.1058C13.7514 60.918 13.653 60.7458 13.4544 60.7494C13.2558 60.753 13.1484 60.927 13.098 61.119Z" fill="#191919"/>
<path d="M21.7314 62.1324C24.4062 61.8216 27.5226 61.5924 32.2056 60.6666C32.3027 60.6519 32.3901 60.5996 32.4491 60.5211C32.508 60.4425 32.5337 60.3439 32.5206 60.2466C32.5059 60.1517 32.4547 60.0664 32.3779 60.0087C32.3011 59.9511 32.2048 59.9258 32.1096 59.9382C30.3936 60.0768 30.7632 59.9952 28.0542 60.288C25.8724 60.4793 23.7111 60.8575 21.594 61.4184C21.5017 61.4396 21.4211 61.4954 21.3688 61.5744C21.3166 61.6533 21.2966 61.7494 21.3132 61.8426C21.3312 61.936 21.385 62.0187 21.4632 62.0728C21.5413 62.127 21.6376 62.1484 21.7314 62.1324Z" fill="#191919"/>
<path d="M20.46 67.314C20.52 67.314 21.1308 67.3242 21.3918 67.3002C22.3137 67.2228 23.2226 67.032 24.0978 66.732C24.1941 66.7201 24.2818 66.6705 24.3416 66.594C24.4013 66.5175 24.4283 66.4203 24.4164 66.324C24.4045 66.2276 24.3549 66.1399 24.2784 66.0802C24.2019 66.0204 24.1048 65.9935 24.0084 66.0054C23.6916 65.9818 23.3737 65.975 23.0562 65.985C22.4333 66.0385 21.8151 66.1369 21.2064 66.2796C20.9034 66.3717 20.6061 66.4815 20.316 66.6084C20.2236 66.6296 20.1429 66.6855 20.0906 66.7646C20.0383 66.8437 20.0185 66.9399 20.0352 67.0332C20.0446 67.0795 20.0631 67.1235 20.0896 67.1627C20.1161 67.2019 20.15 67.2355 20.1894 67.2616C20.2289 67.2877 20.2731 67.3057 20.3195 67.3147C20.3659 67.3237 20.4137 67.3235 20.46 67.314Z" fill="#191919"/>
<path d="M49.086 59.4228C52.2966 59.346 55.1892 58.725 58.3614 58.2228C58.4089 58.2194 58.4552 58.2066 58.4976 58.185C58.54 58.1635 58.5777 58.1336 58.6084 58.0973C58.6391 58.0609 58.6622 58.0188 58.6763 57.9734C58.6905 57.928 58.6954 57.8802 58.6908 57.8328C58.683 57.7367 58.6376 57.6475 58.5645 57.5846C58.4914 57.5217 58.3964 57.4902 58.3002 57.4968C57.5394 57.5106 56.7864 57.531 56.0328 57.5928C53.6752 57.8447 51.3322 58.2174 49.0128 58.7094C48.9624 58.7095 48.9125 58.7201 48.8665 58.7407C48.8205 58.7612 48.7793 58.7912 48.7456 58.8287C48.7119 58.8662 48.6864 58.9104 48.6708 58.9583C48.6553 59.0063 48.65 59.057 48.6553 59.1071C48.6605 59.1572 48.6763 59.2057 48.7015 59.2494C48.7267 59.293 48.7608 59.3309 48.8016 59.3606C48.8423 59.3902 48.8889 59.411 48.9382 59.4215C48.9875 59.432 49.0385 59.432 49.0878 59.4216L49.086 59.4228Z" fill="#644DF6"/>
<path d="M45.9852 64.8522C49.2876 64.4307 52.5662 63.8407 55.8084 63.0846C55.9031 63.0678 55.9872 63.0141 56.0424 62.9354C56.0976 62.8567 56.1194 62.7593 56.103 62.6646C56.0857 62.5689 56.0315 62.4838 55.952 62.4277C55.8726 62.3715 55.7742 62.3489 55.6782 62.3646C53.6268 62.5944 53.898 62.5068 51.8694 62.8308C49.8207 63.091 47.7989 63.5311 45.8274 64.146C45.7338 64.1669 45.6523 64.2242 45.6008 64.3052C45.5494 64.3862 45.5323 64.4844 45.5532 64.578C45.5741 64.6717 45.6314 64.7532 45.7124 64.8046C45.7934 64.856 45.8916 64.8731 45.9852 64.8522Z" fill="#644DF6"/>
<path d="M52.4442 67.26C53.6382 67.1857 54.826 67.0323 55.9998 66.801C56.794 66.6819 57.5791 66.5081 58.3494 66.2808C58.4427 66.2638 58.5258 66.2113 58.5813 66.1344C58.6368 66.0575 58.6604 65.9621 58.6471 65.8682C58.6338 65.7743 58.5848 65.6892 58.5101 65.6307C58.4355 65.5721 58.3412 65.5447 58.2468 65.5542C57.2383 65.5633 56.2323 65.6572 55.2396 65.835C54.2335 65.9629 53.2452 66.2044 52.2936 66.555C52.2 66.575 52.1182 66.6313 52.0662 66.7116C52.0141 66.7919 51.9961 66.8895 52.0161 66.9831C52.0361 67.0767 52.0924 67.1585 52.1727 67.2105C52.253 67.2626 52.3506 67.2806 52.4442 67.2606V67.26Z" fill="#644DF6"/>
<path d="M93.0654 27.9072C93.3529 27.9638 93.6433 28.0039 93.9354 28.0272C94.5228 28.0496 95.111 28.0314 95.6958 27.9726C95.9939 27.9231 96.289 27.8568 96.5796 27.774C96.6767 27.7654 96.7665 27.7188 96.8293 27.6443C96.8922 27.5697 96.923 27.4734 96.915 27.3762C96.9111 27.3283 96.8977 27.2817 96.8755 27.239C96.8533 27.1964 96.8228 27.1587 96.7857 27.128C96.7487 27.0974 96.7059 27.0745 96.6599 27.0606C96.6139 27.0468 96.5656 27.0423 96.5178 27.0474C95.8303 26.928 95.1303 26.8981 94.4352 26.9586C93.9586 26.9644 93.4855 27.0406 93.0312 27.1848C92.9837 27.1864 92.9371 27.1975 92.894 27.2174C92.8509 27.2373 92.8123 27.2657 92.7803 27.3008C92.7484 27.336 92.7238 27.3771 92.7081 27.4219C92.6923 27.4667 92.6857 27.5142 92.6886 27.5616C92.6904 27.6091 92.7017 27.6558 92.7217 27.6989C92.7416 27.742 92.77 27.7808 92.805 27.8129C92.84 27.845 92.8811 27.8699 92.9258 27.8861C92.9705 27.9023 93.0179 27.9094 93.0654 27.9072Z" fill="#191919"/>
<path d="M93.0792 31.533C93.5209 31.6568 93.9902 31.6401 94.422 31.485C94.902 31.3692 94.905 30.8568 94.401 30.759C93.9544 30.6527 93.487 30.6735 93.0516 30.819C92.8614 30.879 92.7024 30.9834 92.709 31.1892C92.7156 31.395 92.8848 31.4904 93.0792 31.533Z" fill="#644DF6"/>
<path d="M92.5164 35.7C93.4438 35.7825 94.3765 35.7869 95.3046 35.7132C95.9322 35.6954 96.5575 35.629 97.1748 35.5146C97.2722 35.5115 97.3645 35.4702 97.4318 35.3998C97.4991 35.3293 97.5361 35.2352 97.5348 35.1378C97.5324 35.0418 97.4923 34.9506 97.4231 34.884C97.3539 34.8173 97.2612 34.7807 97.1652 34.782C96.3845 34.6527 95.592 34.609 94.8018 34.6518C94.0017 34.6445 93.2049 34.7576 92.4384 34.9872C92.3882 34.9877 92.3387 34.9986 92.2931 35.0194C92.2474 35.0401 92.2065 35.0702 92.1732 35.1076C92.1398 35.145 92.1146 35.189 92.0992 35.2368C92.0838 35.2845 92.0786 35.335 92.0838 35.3849C92.0891 35.4347 92.1047 35.483 92.1297 35.5265C92.1547 35.57 92.1885 35.6078 92.2289 35.6375C92.2693 35.6671 92.3156 35.688 92.3645 35.6988C92.4135 35.7096 92.4642 35.71 92.5134 35.7H92.5164Z" fill="#644DF6"/>
<path d="M86.3892 68.9262C86.6794 69.085 87.0149 69.1405 87.3408 69.0834C87.7976 68.9435 88.194 68.6538 88.4662 68.2611C88.7383 67.8684 88.8702 67.3955 88.8408 66.9186C88.8494 66.8712 88.8484 66.8227 88.8378 66.7757C88.8273 66.7288 88.8075 66.6844 88.7795 66.6452C88.7515 66.6061 88.716 66.5729 88.675 66.5477C88.634 66.5226 88.5884 66.5058 88.5408 66.4986C88.4456 66.4827 88.3479 66.5046 88.2686 66.5597C88.1893 66.6147 88.1345 66.6985 88.116 66.7932C87.9333 67.1546 87.7076 67.4926 87.444 67.8C87.3186 67.9421 87.1613 68.0526 86.985 68.1222C86.8646 68.1873 86.7311 68.2246 86.5944 68.2314C86.5017 68.2057 86.4027 68.2171 86.3183 68.2631C86.2338 68.3091 86.1706 68.3862 86.142 68.478C86.1285 68.5237 86.1243 68.5715 86.1294 68.6189C86.1346 68.6662 86.1491 68.712 86.1721 68.7537C86.1951 68.7954 86.2261 68.8321 86.2634 68.8617C86.3006 68.8913 86.3434 68.9132 86.3892 68.9262Z" fill="#191919"/>
<path d="M88.0608 61.1124C88.3008 61.4724 88.0608 62.0574 87.5208 62.4138C86.9808 62.7702 86.3562 62.7702 86.1168 62.4138C85.8774 62.0574 86.1168 61.4754 86.6508 61.1124C87.1848 60.7494 87.8226 60.7548 88.0608 61.1124Z" fill="#191919"/>
<path d="M70.5276 67.5042C70.9398 67.9965 71.283 68.5428 71.5476 69.1278C72.1009 70.2852 72.3664 71.5591 72.3216 72.8412C72.3269 73.4946 72.2625 74.1467 72.1296 74.7864C72.1153 74.8327 72.1104 74.8814 72.1151 74.9297C72.1198 74.9779 72.134 75.0248 72.1569 75.0675C72.1799 75.1102 72.2111 75.1479 72.2487 75.1784C72.2864 75.209 72.3297 75.2317 72.3762 75.2454C72.4221 75.2595 72.4703 75.2643 72.5181 75.2595C72.5659 75.2547 72.6122 75.2404 72.6544 75.2174C72.6965 75.1944 72.7336 75.1633 72.7636 75.1257C72.7935 75.0882 72.8156 75.045 72.8286 74.9988C73.0979 74.325 73.2732 73.6174 73.3494 72.8958C73.4751 71.4241 73.1679 69.9478 72.4656 68.6484C72.0969 68.0063 71.608 67.4412 71.0256 66.984C70.9566 66.918 70.8642 66.882 70.7688 66.8841C70.6733 66.8862 70.5825 66.9261 70.5165 66.9951C70.4505 67.0641 70.4145 67.1565 70.4166 67.252C70.4187 67.3474 70.4586 67.4382 70.5276 67.5042Z" fill="#191919"/>
<path d="M73.3434 68.3514C73.4634 68.5314 73.7106 69.0846 73.7478 69.1596C74.0076 69.703 74.2008 70.2757 74.3232 70.8654C74.3988 71.1804 74.4948 71.4816 74.5422 71.7834C74.5432 71.8806 74.5827 71.9735 74.6521 72.0416C74.7215 72.1097 74.8152 72.1474 74.9124 72.1464C75.0096 72.1455 75.1025 72.1059 75.1706 72.0365C75.2386 71.9671 75.2764 71.8734 75.2754 71.7762C75.3298 71.4228 75.3499 71.0649 75.3354 70.7076C75.2625 69.9749 75.0261 69.268 74.6436 68.6388C74.4355 68.3295 74.1709 68.0622 73.8636 67.851C73.797 67.7817 73.7057 67.7414 73.6096 67.7388C73.5135 67.7363 73.4203 67.7716 73.35 67.8372C73.3154 67.8703 73.2877 67.9099 73.2686 67.9538C73.2495 67.9978 73.2393 68.045 73.2387 68.0929C73.2381 68.1408 73.247 68.1883 73.265 68.2327C73.283 68.2771 73.3096 68.3175 73.3434 68.3514Z" fill="#191919"/>
<path d="M75.9054 68.4648C75.9282 68.5494 76.0152 69.0714 76.0428 69.1908C76.0908 69.4242 76.1454 69.657 76.1862 69.8964C76.227 70.1358 76.2414 70.383 76.2822 70.623C76.3164 70.89 76.3854 71.13 76.4124 71.3832C76.406 71.4804 76.4386 71.5762 76.5028 71.6495C76.5671 71.7227 76.6578 71.7674 76.755 71.7738C76.8522 71.7802 76.948 71.7477 77.0213 71.6834C77.0945 71.6192 77.1392 71.5284 77.1456 71.4312C77.2251 71.1566 77.2802 70.8755 77.31 70.5912C77.3253 70.0076 77.23 69.4264 77.0292 68.8782C76.9027 68.6057 76.739 68.352 76.5426 68.1246C76.4972 68.0401 76.42 67.9771 76.3282 67.9495C76.2363 67.9219 76.1372 67.9319 76.0527 67.9773C75.9682 68.0227 75.9052 68.0999 75.8776 68.1918C75.85 68.2836 75.86 68.3827 75.9054 68.4672V68.4648Z" fill="#191919"/>
<path d="M79.32 74.5692C80.4156 75.2364 81.8772 75.9564 83.22 76.9398C83.3008 76.992 83.3576 77.0741 83.3782 77.168C83.3988 77.2619 83.3815 77.3602 83.33 77.4414C83.2785 77.5226 83.197 77.5802 83.1033 77.6017C83.0095 77.6232 82.9111 77.6067 82.8294 77.556C81.5382 76.8438 80.1786 76.3764 78.4314 75.282C78.335 75.2227 78.2598 75.1344 78.2167 75.0297C78.1736 74.9251 78.1647 74.8094 78.1914 74.6994C78.5656 72.6876 78.479 70.6172 77.9382 68.6436C77.9229 68.5986 77.9166 68.5511 77.9197 68.5036C77.9228 68.4562 77.9352 68.4099 77.9562 68.3673C77.9773 68.3246 78.0064 68.2866 78.0422 68.2552C78.0779 68.2239 78.1194 68.1999 78.1644 68.1846C78.2094 68.1693 78.257 68.163 78.3044 68.1661C78.3518 68.1692 78.3981 68.1816 78.4408 68.2026C78.4834 68.2237 78.5214 68.2528 78.5528 68.2886C78.5841 68.3243 78.6081 68.3658 78.6234 68.4108C79.4736 70.3458 79.7165 72.4932 79.32 74.5692Z" fill="#191919"/>
<path d="M74.3436 78.2256C71.1126 79.2738 67.818 77.0592 67.5756 74.0256C67.5366 73.678 67.5528 73.3265 67.6236 72.984C67.6403 72.8889 67.6937 72.8043 67.7723 72.7482C67.8508 72.6921 67.9482 72.669 68.0436 72.684C68.1371 72.7031 68.2197 72.7572 68.2745 72.8354C68.3293 72.9135 68.3521 73.0096 68.3382 73.104C68.3127 73.3721 68.3289 73.6425 68.3862 73.9056C68.5215 74.5238 68.787 75.1061 69.1651 75.6136C69.5432 76.1211 70.0251 76.5422 70.5787 76.8488C71.1323 77.1554 71.745 77.3405 72.3757 77.3916C73.0065 77.4428 73.641 77.3589 74.2368 77.1456C74.3176 77.1144 74.4049 77.1035 74.4909 77.114C74.5769 77.1244 74.659 77.1559 74.73 77.2056C76.0368 78.1788 76.5552 78.4818 78.4086 79.9938C78.4478 80.0223 78.4809 80.0583 78.5059 80.0997C78.5309 80.1411 78.5475 80.1872 78.5544 80.2351C78.5614 80.283 78.5588 80.3318 78.5466 80.3787C78.5344 80.4256 78.513 80.4695 78.4836 80.508C78.4256 80.5841 78.3403 80.6345 78.2457 80.6485C78.151 80.6625 78.0547 80.639 77.9772 80.583C76.7658 79.764 75.5274 79.0596 74.3436 78.2256Z" fill="#191919"/>
<path d="M70.3998 71.7C69.6798 69.96 70.0476 70.2162 69.756 70.0632C69.3924 69.8718 64.7316 67.3848 63.0828 66.3648C63.8508 64.8118 64.2392 63.0987 64.216 61.3664C64.1929 59.634 63.7588 57.9319 62.9496 56.4H62.9562C62.3236 55.0927 61.4383 53.9237 60.3513 52.9605C59.2644 51.9973 57.9974 51.2591 56.6235 50.7884C55.2495 50.3177 53.796 50.1239 52.3468 50.2182C50.8975 50.3125 49.4813 50.693 48.18 51.3378C46.6809 52.0812 45.3681 53.1521 44.3388 54.4714C43.3096 55.7907 42.5901 57.3245 42.2338 58.9595C41.8774 60.5944 41.8933 62.2885 42.2802 63.9165C42.6671 65.5444 43.4151 67.0645 44.4689 68.3643C45.5227 69.6641 46.8553 70.7103 48.368 71.4255C49.8808 72.1406 51.535 72.5065 53.2083 72.4959C54.8816 72.4853 56.531 72.0986 58.0346 71.3644C59.5383 70.6302 60.8575 69.5672 61.8948 68.2542C62.5782 68.646 63.327 68.9508 63.981 69.3228C65.8776 70.4017 67.833 71.3736 69.8382 72.234C69.914 72.2674 69.998 72.2775 70.0796 72.2633C70.1612 72.2491 70.2367 72.211 70.2967 72.1539C70.3568 72.0969 70.3986 72.0233 70.4169 71.9426C70.4352 71.8618 70.4293 71.7774 70.3998 71.7ZM57.4554 69.759C55.2191 70.8475 52.6441 71.0115 50.2877 70.2157C47.9314 69.4199 45.9831 67.7282 44.8647 65.5067C43.7463 63.2852 43.5476 60.7127 44.3117 58.3458C45.0758 55.979 46.7412 54.0082 48.9474 52.86C51.2052 51.7012 53.8289 51.4797 56.249 52.2436C58.6692 53.0075 60.6903 54.695 61.8738 56.94H61.881C62.9747 59.2297 63.1236 61.8577 62.2955 64.2563C61.4674 66.6548 59.7288 68.6313 57.4554 69.7584V69.759Z" fill="#191919"/>
<path d="M100.835 58.56C100.711 58.0637 100.484 57.5986 100.171 57.1942C99.8569 56.7898 99.4628 56.4548 99.0132 56.2104C99.4788 55.247 99.5791 54.1475 99.2957 53.1158C99.0122 52.084 98.3642 51.1901 97.4718 50.5998C95.0484 48.9378 91.1118 49.2018 88.9638 47.2842C88.3518 46.7382 87.8646 46.0992 86.9634 46.0992C86.7925 46.0959 86.6228 46.1284 86.4651 46.1946C86.3075 46.2608 86.1654 46.3592 86.0481 46.4834C85.9307 46.6077 85.8406 46.7552 85.7835 46.9163C85.7264 47.0774 85.7036 47.2487 85.7166 47.4192C85.2261 47.2114 84.6746 47.1989 84.1752 47.3844C83.4504 47.7906 83.7702 48.6672 83.922 49.0152C83.6688 49.0131 83.4234 49.1033 83.2319 49.269C83.0403 49.4346 82.9156 49.6643 82.881 49.9152C82.722 50.709 83.2512 51.9174 83.5932 52.656C84.636 54.8952 86.1192 57.3834 88.4364 58.236C88.4364 58.4538 88.4478 58.6734 88.464 58.896C87.4734 57.99 85.2756 58.9866 85.638 59.6598C85.8468 60.0324 86.3706 59.7492 87.1722 59.6322C87.8106 59.5392 88.2894 59.6562 88.524 59.4972C88.6649 60.646 88.9866 61.7652 89.4774 62.8134C89.5322 62.9244 89.6231 63.0134 89.7352 63.0657C89.8473 63.1181 89.974 63.1307 90.0942 63.1014C91.239 62.8218 92.6742 63.8382 92.0742 65.04C91.8808 65.2931 91.6363 65.5025 91.3565 65.6548C91.0768 65.8071 90.7681 65.8987 90.4506 65.9238C90.3244 65.9451 90.2102 66.0117 90.1295 66.1111C90.0488 66.2105 90.007 66.3359 90.012 66.4638C90.025 67.4387 90.2513 68.3989 90.6749 69.2771C91.0985 70.1552 91.7093 70.93 92.4642 71.547C92.5523 71.6172 92.6611 71.6565 92.7737 71.6589C92.8863 71.6613 92.9966 71.6266 93.0876 71.5602C94.5876 70.47 95.7192 68.9682 96.8676 67.5732C98.5302 65.5608 101.902 62.3652 100.835 58.56Z" fill="#191919"/>
<path d="M116.995 96.414C116.58 94.4307 115.948 92.4991 115.111 90.654C112.869 85.3026 109.508 80.508 104.171 78.114C101.864 77.0886 99.6882 77.0484 97.3062 76.6272C97.4538 74.4264 97.6062 74.361 97.3542 74.0514C97.3031 73.9967 97.2417 73.9527 97.1735 73.9218C97.1054 73.8909 97.0318 73.8738 96.957 73.8714C95.4895 73.8456 94.0217 73.9033 92.5608 74.0442C92.5829 73.2459 92.5244 72.4475 92.3862 71.661C92.3825 71.5647 92.3408 71.4738 92.2701 71.4084C92.1995 71.3429 92.1057 71.3081 92.0094 71.3118C91.9131 71.3155 91.8223 71.3572 91.7568 71.4279C91.6913 71.4985 91.6565 71.5923 91.6602 71.6886C91.5722 72.4994 91.6034 73.3186 91.7526 74.1204C90.8064 74.217 89.7372 74.3508 88.374 74.5632C88.374 74.3742 88.38 72.7728 88.3506 72.3498C88.3408 72.2388 88.2895 72.1356 88.207 72.0608C88.1245 71.9859 88.0168 71.945 87.9054 71.946C85.524 71.9136 85.128 68.598 85.0488 66.219C85.0439 66.1015 85.0013 65.9888 84.9273 65.8974C84.8532 65.8061 84.7517 65.7411 84.6378 65.712L83.3778 65.3904C84.125 62.9121 85.0008 60.4744 86.0016 58.0872C86.0213 58.0439 86.0323 57.9971 86.0339 57.9495C86.0355 57.9019 86.0277 57.8545 86.011 57.8099C85.9943 57.7653 85.969 57.7245 85.9365 57.6897C85.904 57.6549 85.8649 57.6269 85.8216 57.6072C85.7783 57.5875 85.7315 57.5765 85.6839 57.5749C85.6363 57.5733 85.5889 57.5811 85.5443 57.5978C85.4998 57.6145 85.4589 57.6398 85.4241 57.6723C85.3893 57.7048 85.3613 57.7439 85.3416 57.7872C84.2514 60.111 83.2014 61.902 82.1976 65.6472C82.1789 65.7167 82.1745 65.7892 82.1845 65.8604C82.1945 65.9316 82.2187 66.0001 82.2558 66.0617C82.2929 66.1233 82.342 66.1768 82.4003 66.219C82.4585 66.2612 82.5247 66.2912 82.5948 66.3072L83.9856 66.6672C84.1242 69.3816 84.7938 72.6168 87.5136 72.819C87.5316 73.0062 87.5976 74.172 87.627 74.6856C86.6922 74.8392 85.7544 75.0072 84.807 75.183C84.6891 75.2064 84.5821 75.2681 84.5028 75.3584C84.4235 75.4488 84.3763 75.5628 84.3684 75.6828C84.3126 76.6308 84.2184 77.2212 84.177 78.3342C75.2712 81.7176 68.6922 90.8328 68.217 100.31C68.2135 100.406 68.2472 100.5 68.3111 100.571C68.3749 100.643 68.464 100.687 68.5596 100.694C68.6073 100.697 68.6552 100.691 68.7004 100.675C68.7457 100.659 68.7874 100.635 68.8231 100.603C68.8587 100.571 68.8877 100.533 68.9083 100.49C68.9289 100.446 68.9407 100.4 68.943 100.352C69.6696 89.5416 78.9078 79.8048 87.123 78.8424C87.6366 78.7824 93.6306 78.102 94.4046 77.9994C104.177 76.7466 110.431 82.0716 114.335 90.9936C115.182 92.7716 115.832 94.6369 116.273 96.5562C116.291 96.6515 116.345 96.7361 116.425 96.7913C116.505 96.8465 116.603 96.8679 116.698 96.8508C116.795 96.8315 116.88 96.7748 116.936 96.6931C116.991 96.6114 117.012 96.5111 116.995 96.414ZM89.4744 77.4666C88.0507 77.6217 86.6414 77.8883 85.2594 78.264C85.2876 77.604 85.3794 76.65 85.4208 76.164C89.0263 75.433 92.6898 75.0249 96.3678 74.9448C96.3168 75.5796 96.282 76.1982 96.1842 76.9248C95.0742 76.98 92.6532 77.04 89.4744 77.4666Z" fill="#191919"/>
<path d="M83.376 96C83.3628 96.2028 83.3484 97.4142 83.3484 97.6164C83.3484 98.208 83.2956 99.8016 83.8488 99.8016C84.3366 99.8016 84.3588 98.7564 84.4242 97.7058C84.4545 97.0685 84.4431 96.43 84.39 95.7942C84.2916 95.055 84.2202 94.5138 83.8146 94.5408C83.469 94.5672 83.46 94.8744 83.376 96Z" fill="#191919"/>
<path d="M107.905 94.3602C107.965 94.6386 108.166 95.538 108.254 95.8122C108.461 96.5628 108.593 97.1286 108.994 97.059C109.419 96.9858 109.339 96.3714 109.247 95.5656C109.136 94.8726 108.985 94.1865 108.795 93.5106C108.485 92.5788 108.322 92.175 107.966 92.2638C107.455 92.3736 107.737 93.54 107.905 94.3602Z" fill="#191919"/>
</svg>
