<svg width="120" height="120" viewBox="0 0 120 120" fill="none" xmlns="http://www.w3.org/2000/svg">
<path d="M37.3986 73.5036C37.146 67.8564 33.5232 55.5324 33.393 54.867C33.594 54.093 33.657 53.5098 33.8982 52.7832C33.922 52.7135 33.9263 52.6386 33.9108 52.5667C33.8953 52.4947 33.8604 52.4283 33.81 52.3746C33.0833 51.6149 32.2589 50.9551 31.3584 50.4126C31.2813 50.365 31.19 50.3456 31.1002 50.3578C31.0104 50.3699 30.9275 50.4128 30.8658 50.4792C30.201 51.18 29.8578 51.7698 29.1348 52.4694C29.0625 52.5376 29.0185 52.6304 29.0114 52.7295C29.0042 52.8286 29.0346 52.9268 29.0964 53.0046C29.8068 53.8842 30.1764 54.4902 30.7392 55.2534C29.9682 60.879 31.1262 68.7798 31.5606 73.6578C31.5176 73.6868 31.4855 73.7292 31.4693 73.7784C31.4531 73.8277 31.4537 73.8809 31.4711 73.9297C31.4885 73.9786 31.5217 74.0202 31.5654 74.0481C31.6091 74.076 31.6608 74.0886 31.7124 74.0838C33.4986 73.9092 35.2986 73.947 37.0956 73.8534C37.1817 73.846 37.2616 73.8054 37.3182 73.74C37.3747 73.6747 37.4036 73.5899 37.3986 73.5036Z" fill="#644DF6"/>
<path d="M82.8 43.3434C82.5866 43.124 82.4079 42.8733 82.2702 42.6C82.2116 42.5151 82.1708 42.4193 82.1502 42.3183C82.1296 42.2172 82.1296 42.1131 82.1502 42.012C82.2612 41.5998 82.9656 41.112 83.2608 40.434C83.4814 39.7924 83.5143 39.1011 83.3556 38.4414C83.3524 38.3755 83.324 38.3134 83.2762 38.2679C83.2285 38.2224 83.1651 38.197 83.0991 38.197C83.0331 38.197 82.9697 38.2224 82.922 38.2679C82.8742 38.3134 82.8458 38.3755 82.8426 38.4414C82.6626 39.585 82.7028 39.7932 82.539 40.1154C82.263 40.7388 81.5718 41.0952 81.3906 41.8098C81.3286 42.0896 81.3455 42.3811 81.4394 42.6518C81.5332 42.9226 81.7004 43.162 81.9222 43.3434C82.1016 43.5173 82.3148 43.6525 82.5486 43.7406C82.6005 43.7742 82.6636 43.7858 82.7241 43.773C82.7846 43.7602 82.8376 43.7239 82.8714 43.6722C82.905 43.619 82.9163 43.5547 82.903 43.4932C82.8896 43.4317 82.8526 43.3779 82.8 43.3434Z" fill="#252525"/>
<path d="M80.892 38.2662C80.8298 38.8841 80.8044 39.5052 80.8158 40.1262C80.8158 40.2762 80.883 40.8876 81.1572 40.9008C81.6324 40.9218 81.6198 39.4908 81.6246 39.2556C81.6324 38.8446 81.7224 37.6392 81.3246 37.6062C81.0534 37.5864 80.9046 38.1876 80.892 38.2662Z" fill="#252525"/>
<path d="M87.0204 50.3148C85.9518 50.1714 84.3516 50.457 83.2548 49.0836C82.8634 48.5892 82.5832 48.0162 82.4334 47.4036C82.4173 47.3387 82.3766 47.2826 82.32 47.247C82.2634 47.2115 82.1952 47.1992 82.1298 47.2128C82.0629 47.2282 82.0046 47.2688 81.9669 47.3261C81.9293 47.3835 81.9152 47.4531 81.9276 47.5206C82.0751 48.2145 82.3729 48.8676 82.8 49.434C83.184 49.9524 83.6979 50.3605 84.2898 50.6172C84.1182 52.5744 84.081 52.2828 83.9118 54.7572C79.5036 55.0992 73.9332 54.8316 70.2396 57.4026C67.3596 59.4072 65.727 63.1422 64.2996 66.3426C55.2294 86.8506 56.8932 83.6292 54.2286 90.4482C54.1146 90.7398 54.567 90.9048 54.6582 90.6156C56.9118 85.0092 62.3172 72.7716 65.0196 66.6624C67.8246 60.405 69.4392 57.2592 75.8238 56.172C78.4986 55.719 81.375 55.6992 83.8422 55.5042C83.8296 55.8204 83.7978 56.1372 83.8044 56.4546C83.808 56.649 83.8872 57.1278 84.1458 57.1434C84.4044 57.159 84.486 56.7576 84.5628 56.502C84.6132 56.1858 84.6132 55.8642 84.6384 55.542C84.6384 53.9136 84.7518 53.0304 84.9114 50.8998C85.6079 51.0769 86.3316 51.1209 87.0444 51.0294C87.4704 50.9322 87.714 50.8854 87.714 50.6424C87.6942 50.4066 87.4956 50.3862 87.0204 50.3148Z" fill="#252525"/>
<path d="M70.38 67.9044C70.345 67.8993 70.3094 67.9012 70.2752 67.9101C70.2411 67.9191 70.209 67.9348 70.181 67.9563C70.153 67.9779 70.1297 68.0048 70.1123 68.0356C70.095 68.0664 70.084 68.1003 70.08 68.1354C69.945 68.8314 69.7896 69.6024 69.6336 70.44C67.7736 81.4872 69.978 73.2912 66.2472 82.422C65.3692 84.3401 64.6525 86.3279 64.1046 88.365C64.0835 88.4262 64.0862 88.4931 64.1123 88.5524C64.1383 88.6116 64.1857 88.6589 64.245 88.6848C64.2761 88.6966 64.3092 88.7021 64.3425 88.701C64.3757 88.6999 64.4084 88.6922 64.4387 88.6783C64.4689 88.6645 64.4961 88.6448 64.5187 88.6203C64.5413 88.5959 64.5588 88.5672 64.5702 88.536C66.0024 85.3998 66.225 84.636 68.3466 79.6368C68.0262 82.269 67.599 85.4748 67.5066 87.9492C67.476 88.5714 67.4778 89.1552 67.455 89.694C67.4526 89.7322 67.4577 89.7705 67.47 89.8067C67.4824 89.8429 67.5017 89.8763 67.527 89.905C67.5523 89.9337 67.5829 89.9572 67.6173 89.9741C67.6516 89.9909 67.6889 90.0009 67.7271 90.0033C67.7653 90.0057 67.8036 90.0007 67.8398 89.9883C67.876 89.9759 67.9094 89.9566 67.9381 89.9313C67.9668 89.906 67.9903 89.8754 68.0071 89.841C68.024 89.8067 68.034 89.7694 68.0364 89.7312C68.085 89.199 70.5492 68.9862 70.6116 68.2086C70.6166 68.1734 70.6145 68.1375 70.6055 68.1031C70.5966 68.0687 70.5809 68.0364 70.5593 68.0081C70.5378 67.9799 70.5108 67.9561 70.4801 67.9383C70.4493 67.9205 70.4153 67.909 70.38 67.9044Z" fill="#252525"/>
<path d="M86.4654 38.8296C86.0352 38.9868 86.1744 39.3828 86.5032 39.5232C86.124 39.759 86.3514 40.0326 86.7054 40.0962C87.2172 40.2308 87.7527 40.2478 88.272 40.146C88.6134 40.0332 88.752 39.7032 88.4994 39.4344C88.5908 39.4239 88.675 39.3798 88.7356 39.3107C88.7962 39.2415 88.8289 39.1522 88.8273 39.0603C88.8258 38.9683 88.79 38.8803 88.7271 38.8132C88.6641 38.7462 88.5785 38.705 88.4868 38.6976C87.8107 38.6156 87.1251 38.6603 86.4654 38.8296Z" fill="#252525"/>
<path d="M34.5804 38.6106C34.5713 38.7707 34.6018 38.9306 34.6692 39.0762C34.8425 39.4015 35.1117 39.6657 35.4402 39.8328C35.6494 39.9854 35.8954 40.0795 36.153 40.1057C36.4105 40.1318 36.6704 40.089 36.906 39.9816C36.9734 39.9716 37.0344 39.9363 37.0766 39.8829C37.1189 39.8295 37.1392 39.762 37.1334 39.6942C37.1226 39.6271 37.0863 39.5667 37.0321 39.5257C36.9779 39.4847 36.9099 39.4662 36.8424 39.474C36.729 39.4554 36.6276 39.3996 36.5142 39.3714C36.1027 39.3192 35.7203 39.1313 35.4276 38.8374C35.3766 38.7858 35.3388 38.7318 35.2884 38.679C35.2548 38.6454 35.0388 38.4684 35.0232 38.4522C34.9338 38.1642 34.488 38.3124 34.5804 38.6106Z" fill="#252525"/>
<path d="M40.1658 37.8797C39.966 36.3648 39.5268 34.8912 38.8644 33.5141C38.842 33.4555 38.7973 33.4081 38.74 33.3825C38.6828 33.3568 38.6176 33.355 38.559 33.3773C38.5004 33.3997 38.453 33.4444 38.4274 33.5017C38.4017 33.559 38.3998 33.6241 38.4222 33.6827C38.8126 34.9708 39.1206 36.2825 39.3444 37.6097L38.3586 37.7753C38.27 37.7935 38.1902 37.8415 38.1328 37.9114C38.0753 37.9813 38.0436 38.0689 38.043 38.1593C38.0178 39.3941 37.6422 40.9451 36.5898 41.6123C36.1452 41.8575 35.6506 41.9981 35.1436 42.0234C34.6365 42.0487 34.1303 41.9579 33.6636 41.7581C33.2976 41.5949 32.5962 41.0699 32.3616 41.3213C32.1984 41.4971 32.4876 41.8985 32.5896 42.0095C32.9642 42.3134 33.395 42.5406 33.8574 42.6779C33.399 44.2571 33.2454 44.9381 33.0516 45.8669C33.0357 45.934 33.0471 46.0047 33.0832 46.0633C33.1194 46.122 33.1774 46.1639 33.2445 46.1798C33.3116 46.1958 33.3822 46.1844 33.4409 46.1482C33.4996 46.112 33.5415 46.054 33.5574 45.9869C33.837 44.9867 34.2666 44.0069 34.6188 42.8147C35.4496 42.8615 36.2769 42.6744 37.0068 42.2747C38.2374 41.4947 38.742 39.9527 38.814 38.4947L39.8502 38.3147C39.9484 38.2963 40.0358 38.2409 40.0945 38.16C40.1532 38.0791 40.1787 37.9788 40.1658 37.8797Z" fill="#252525"/>
<path d="M35.496 35.66C35.5561 35.6701 35.6194 35.6576 35.6823 35.6231C35.7452 35.5886 35.8064 35.5328 35.8626 35.459C35.9187 35.3851 35.9686 35.2946 36.0095 35.1926C36.0504 35.0906 36.0813 34.9791 36.1007 34.8645C36.12 34.7499 36.1274 34.6345 36.1223 34.5247C36.1171 34.4149 36.0997 34.3131 36.0709 34.2248C36.0421 34.1366 36.0026 34.0639 35.9545 34.0106C35.9064 33.9574 35.8507 33.9248 35.7907 33.9147C35.7306 33.9045 35.6673 33.9171 35.6044 33.9515C35.5416 33.986 35.4803 34.0418 35.4241 34.1157C35.368 34.1895 35.3181 34.28 35.2772 34.382C35.2364 34.484 35.2054 34.5955 35.186 34.7101C35.1667 34.8247 35.1594 34.9402 35.1645 35.0499C35.1696 35.1597 35.187 35.2616 35.2158 35.3498C35.2446 35.438 35.2842 35.5108 35.3322 35.564C35.3803 35.6172 35.436 35.6498 35.496 35.66Z" fill="#252525"/>
<path d="M35.3262 32.64C35.5284 32.5889 35.7374 32.5702 35.9454 32.5848C36.501 32.649 36.8844 33.1446 37.1586 32.9166C37.3554 32.7324 37.1028 31.935 36.0336 31.7988C35.7059 31.7578 35.3733 31.8096 35.0736 31.9482C34.9188 32.04 34.5636 32.3412 34.6818 32.5524C34.7736 32.7174 35.1396 32.6694 35.3262 32.64Z" fill="#252525"/>
<path d="M30.1452 37.1766C29.9016 40.314 30.1164 45.2592 32.4852 47.3598C36.7848 51.18 39.7308 45.1326 39.3318 41.28C39.3231 41.2133 39.3406 41.1457 39.3807 41.0916C39.4207 41.0374 39.4802 41.0009 39.5466 40.9896C39.5799 40.9842 39.6139 40.9855 39.6467 40.9935C39.6794 41.0014 39.7103 41.0159 39.7373 41.036C39.7644 41.056 39.7872 41.0814 39.8043 41.1104C39.8214 41.1394 39.8325 41.1716 39.837 41.205C40.3266 43.9314 39.2538 47.259 37.2342 48.6912C35.8308 49.686 34.0014 49.7628 31.965 47.952C29.3364 45.612 29.0034 40.356 29.625 36.912C29.6353 36.8531 29.6642 36.799 29.7073 36.7576C29.7505 36.7162 29.8057 36.6896 29.865 36.6816L30.5604 36.6552C30.6224 36.6519 30.6832 36.6733 30.7293 36.7148C30.7755 36.7563 30.8034 36.8144 30.8067 36.8763C30.81 36.9383 30.7886 36.9991 30.7472 37.0453C30.7057 37.0915 30.6476 37.1193 30.5856 37.1226L30.1452 37.1766Z" fill="#644DF6"/>
<path d="M35.0358 48.84C35.1186 54.18 36.4884 61.4676 39.5358 66.147C41.973 69.8916 45.3474 71.7228 49.695 70.6206C56.6142 68.859 59.4312 59.712 63.279 54.5502C65.7462 51.24 66.8262 51.384 66.4632 50.9196C66.4434 50.8929 66.4185 50.8704 66.3899 50.8534C66.3614 50.8364 66.3297 50.8252 66.2968 50.8204C66.2639 50.8157 66.2304 50.8175 66.1982 50.8258C66.166 50.8341 66.1357 50.8486 66.1092 50.8686C59.4828 55.7484 58.5546 64.4664 51.9444 68.8056C51.1943 69.2864 50.3704 69.6408 49.5054 69.8544C41.1444 71.9664 37.5132 62.1234 36.0864 53.658C35.8075 52.0572 35.6134 50.4428 35.505 48.8214C35.5025 48.7592 35.4754 48.7005 35.4297 48.6583C35.384 48.616 35.3233 48.5937 35.2611 48.5961C35.1989 48.5986 35.1402 48.6257 35.0979 48.6714C35.0557 48.7172 35.0333 48.7778 35.0358 48.84Z" fill="#644DF6"/>
<path d="M70.5678 53.04C70.6247 53.0688 70.6688 53.1179 70.6913 53.1775C70.7138 53.2372 70.7131 53.3032 70.6894 53.3624C70.6657 53.4216 70.6206 53.4698 70.5631 53.4974C70.5056 53.525 70.4398 53.5301 70.3788 53.5116C69.1396 53.1624 67.8705 52.93 66.588 52.8174C66.4867 52.8146 66.3904 52.7724 66.3196 52.6998C66.2488 52.6273 66.2091 52.53 66.2088 52.4286C66.2088 50.2434 65.7066 49.5882 66.1962 49.3362C67.2984 48.7908 68.5446 47.934 69.6078 47.364C69.6659 47.3314 69.7313 47.3142 69.7979 47.314C69.8646 47.3138 69.9301 47.3306 69.9884 47.3629C70.0466 47.3952 70.0957 47.4419 70.1308 47.4984C70.166 47.555 70.1861 47.6196 70.1892 47.6862C70.3128 49.8384 70.5678 50.6262 70.5678 53.04ZM69.456 48.36C68.4756 48.9324 67.6242 49.4814 66.7896 49.92C66.8358 50.4186 66.9792 51.5622 66.9792 52.0746C68.0334 52.1915 69.0666 52.4524 70.05 52.8498C69.7662 50.9052 69.5622 49.863 69.456 48.36Z" fill="#252525"/>
<path d="M24.4086 45.54C18.9486 46.0296 14.9016 51.0354 12.4044 55.9098C11.2874 58.0739 10.4104 60.3537 9.789 62.7084C9.77492 62.7687 9.73745 62.821 9.68485 62.8537C9.63225 62.8864 9.56881 62.8968 9.5085 62.8827C9.44819 62.8686 9.39595 62.8312 9.36326 62.7786C9.33057 62.726 9.32012 62.6625 9.3342 62.6022C11.0016 54.78 16.6656 45.2454 24.6108 44.7342C24.6876 44.7282 24.7644 44.7449 24.8318 44.7821C24.8992 44.8193 24.9542 44.8755 24.99 44.9436C27.5166 49.644 29.8956 59.2038 30.6 64.1274C31.0285 67.0936 31.1259 70.0983 30.8904 73.086C30.8895 73.1193 30.8819 73.1521 30.8679 73.1824C30.8539 73.2126 30.8338 73.2396 30.809 73.2618C30.7842 73.284 30.755 73.3009 30.7234 73.3114C30.6918 73.322 30.6584 73.3259 30.6252 73.323C29.9496 73.2738 31.0494 72.2334 29.8542 64.2366C29.1408 59.46 26.9292 50.4348 24.4086 45.54Z" fill="#252525"/>
<path d="M25.344 58.5757C24.2364 58.3927 23.3814 58.2589 22.2984 57.9973C22.205 57.9723 22.1239 57.914 22.0705 57.8335C22.017 57.7529 21.9948 57.6556 22.008 57.5599C22.368 54.9649 22.968 50.1043 23.0064 47.4799C23.0048 47.4482 23.0096 47.4165 23.0207 47.3867C23.0317 47.357 23.0486 47.3298 23.0705 47.3068C23.0924 47.2838 23.1187 47.2655 23.1478 47.253C23.177 47.2405 23.2084 47.234 23.2401 47.234C23.2718 47.234 23.3032 47.2405 23.3324 47.253C23.3615 47.2655 23.3878 47.2838 23.4097 47.3068C23.4316 47.3298 23.4485 47.357 23.4595 47.3867C23.4706 47.4165 23.4754 47.4482 23.4738 47.4799C23.5835 50.7714 23.3719 54.0658 22.842 57.3163C26.022 58.0363 26.6964 57.7507 26.8224 58.2877C26.8345 58.367 26.823 58.4482 26.7892 58.5211C26.7555 58.5939 26.7011 58.6553 26.6328 58.6975C25.5528 59.3527 24.6102 60.0475 23.4738 60.7507C24.5718 62.5609 25.2432 64.5187 26.2284 67.2223C26.7813 68.6377 27.2002 70.1019 27.4794 71.5956C27.4904 71.6618 27.4753 71.7296 27.4372 71.7847C27.3991 71.8399 27.3411 71.878 27.2753 71.8911C27.2096 71.9042 27.1414 71.8912 27.085 71.8549C27.0287 71.8186 26.9888 71.7617 26.9736 71.6965C26.5994 70.2605 26.1223 68.8532 25.5462 67.4857C24.3864 64.5277 24.1554 63.8569 23.613 62.6941C22.7274 60.7975 22.4946 60.8893 22.539 60.5341C22.5924 60.3127 22.7418 60.2941 23.4234 59.8501C24.0678 59.4337 24.6996 58.9963 25.344 58.5757Z" fill="#252525"/>
<path d="M15.8922 74.0892C17.103 72.2088 16.662 72.8352 20.7822 64.3092C20.817 64.2505 20.827 64.1805 20.8101 64.1144C20.7933 64.0484 20.7508 63.9917 20.6922 63.957C20.6336 63.9222 20.5635 63.9121 20.4975 63.929C20.4314 63.9459 20.3748 63.9883 20.34 64.047C19.6906 64.9413 19.128 65.8957 18.66 66.897C16.3236 71.6058 15.6102 73.5456 15.4758 73.8696C15.4467 73.9248 15.4407 73.9893 15.4591 74.0489C15.4776 74.1086 15.519 74.1584 15.5742 74.1876C15.6294 74.2167 15.6939 74.2227 15.7536 74.2042C15.8132 74.1858 15.8631 74.1444 15.8922 74.0892Z" fill="#252525"/>
<path d="M34.5678 51.18C34.5363 51.1683 34.5027 51.1629 34.4691 51.1642C34.4354 51.1655 34.4024 51.1735 34.3719 51.1877C34.3414 51.2018 34.3139 51.2219 34.2912 51.2468C34.2685 51.2716 34.251 51.3007 34.2396 51.3324L33.8604 52.0908C33.1711 51.4682 32.4022 50.94 31.5738 50.52C31.7082 50.229 32.3784 48.9102 32.445 48.7704C32.4787 48.7101 32.4872 48.6389 32.4685 48.5724C32.4498 48.5059 32.4055 48.4495 32.3453 48.4156C32.2851 48.3817 32.2139 48.373 32.1474 48.3915C32.0808 48.41 32.0243 48.4541 31.9902 48.5142C31.7334 48.9114 31.434 49.2858 31.1688 49.6932C31.1184 49.7826 31.068 49.8732 31.005 49.9644C27.5478 44.8302 27.7716 44.9844 27.4794 44.9976C26.8974 45.0642 26.85 45.0612 26.1144 45.1836C26.0543 45.1897 25.9989 45.2187 25.9597 45.2645C25.9205 45.3104 25.9004 45.3697 25.9038 45.4299C25.9071 45.4902 25.9335 45.5469 25.9775 45.5882C26.0216 45.6294 26.0798 45.6522 26.1402 45.6516L27.2646 45.7038C27.9894 47.04 29.6934 49.3992 30.54 50.64C29.8468 51.3589 29.2327 52.15 28.7082 52.9998C28.6727 53.0486 28.6574 53.1092 28.6654 53.1691C28.6734 53.2289 28.7042 53.2833 28.7514 53.321C28.7985 53.3587 28.8583 53.3768 28.9185 53.3715C28.9786 53.3662 29.0344 53.338 29.0742 53.2926C29.8003 52.6372 30.4792 51.9312 31.1058 51.18C32.0565 51.6672 32.9432 52.2702 33.7458 52.9752C33.7916 53.011 33.845 53.0359 33.9019 53.0479C33.9587 53.06 34.0176 53.0589 34.074 53.0448C34.3704 52.9704 34.3848 52.689 34.7184 51.5112C34.7418 51.4473 34.7392 51.3767 34.711 51.3147C34.6828 51.2528 34.6314 51.2044 34.5678 51.18Z" fill="#252525"/>
<path d="M38.5734 65.9347C38.5383 66.4164 38.5383 66.9001 38.5734 67.3819C38.6124 67.8541 39.0708 71.8705 39.0792 71.9335C39.1392 72.3943 39.24 72.8527 39.2814 73.0609C39.2823 73.0943 39.2899 73.1272 39.3039 73.1576C39.3179 73.1879 39.3378 73.2152 39.3626 73.2376C39.3874 73.26 39.4165 73.2772 39.4481 73.2881C39.4798 73.299 39.5133 73.3033 39.5466 73.3009C39.5802 73.299 39.6131 73.2905 39.6434 73.2759C39.6737 73.2613 39.7007 73.2408 39.7231 73.2156C39.7454 73.1905 39.7625 73.1611 39.7734 73.1293C39.7843 73.0975 39.7888 73.0638 39.7866 73.0303C39.8088 72.6859 39.831 72.1537 39.8244 71.8699C39.8076 71.1031 39.4644 68.1721 39.3192 67.1575C39.2718 66.8371 39.1092 66.1663 39.0414 65.8933C39.0331 65.8335 39.0022 65.7791 38.9549 65.7415C38.9077 65.7039 38.8478 65.6859 38.7877 65.6912C38.7276 65.6965 38.6718 65.7248 38.6319 65.7701C38.592 65.8154 38.5711 65.8743 38.5734 65.9347Z" fill="#252525"/>
<path d="M38.46 59.6466C38.4288 58.1295 38.2467 56.6192 37.9164 55.1382C37.7183 53.6317 37.3582 52.1509 36.8424 50.7216C36.8245 50.6555 36.7815 50.599 36.7225 50.5642C36.6636 50.5293 36.5933 50.5189 36.5268 50.535C36.4621 50.5527 36.4069 50.5952 36.3733 50.6532C36.3396 50.7113 36.3301 50.7802 36.3468 50.8452C36.378 51.1422 36.531 52.122 36.5616 52.2744C37.5594 57.2544 37.4016 57.3144 38.0016 59.7102C38.0058 59.7403 38.0158 59.7693 38.0312 59.7955C38.0466 59.8217 38.067 59.8446 38.0912 59.863C38.1155 59.8813 38.1431 59.8947 38.1725 59.9023C38.2019 59.91 38.2325 59.9118 38.2626 59.9076C38.2927 59.9034 38.3217 59.8934 38.3479 59.878C38.3741 59.8626 38.397 59.8422 38.4154 59.818C38.4337 59.7937 38.4471 59.7661 38.4547 59.7367C38.4624 59.7073 38.4642 59.6767 38.46 59.6466Z" fill="#252525"/>
<path d="M41.7324 58.0002C40.7221 55.2132 39.5708 52.4792 38.283 49.809C38.2677 49.7825 38.2577 49.7532 38.2537 49.7228C38.2497 49.6924 38.2518 49.6615 38.2597 49.6319C38.2676 49.6022 38.2813 49.5745 38.3 49.5502C38.3187 49.5259 38.3419 49.5054 38.3685 49.4901C38.3951 49.4748 38.4244 49.4649 38.4548 49.4609C38.4852 49.4569 38.516 49.4589 38.5457 49.4668C38.5753 49.4748 38.603 49.4885 38.6273 49.5071C38.6517 49.5258 38.6721 49.5491 38.6874 49.5756C40.4514 52.3356 41.397 54.6954 42.6552 58.2498C42.6767 58.31 42.6833 58.3744 42.6743 58.4376C42.6654 58.5009 42.6412 58.561 42.6039 58.6128C42.5666 58.6646 42.5173 58.7066 42.4602 58.7351C42.403 58.7637 42.3398 58.7779 42.276 58.7766C41.7852 58.779 41.2952 58.818 40.8102 58.893C41.0724 59.1582 42.4344 60.6366 42.6174 60.8352C42.9072 61.1466 42.6432 60.9126 41.1774 65.8476C41.1707 65.8803 41.1574 65.9113 41.1382 65.9387C41.119 65.9661 41.0945 65.9892 41.066 66.0067C41.0376 66.0242 41.0058 66.0357 40.9728 66.0404C40.9397 66.0451 40.906 66.043 40.8738 66.0342C40.8408 66.0267 40.8096 66.0126 40.7821 65.9929C40.7546 65.9731 40.7314 65.948 40.7137 65.9191C40.6961 65.8901 40.6845 65.858 40.6795 65.8245C40.6745 65.791 40.6763 65.7568 40.6848 65.724C40.9517 64.1795 41.3533 62.6613 41.8848 61.1868C41.3652 60.6144 40.2858 59.4558 39.699 58.8942C39.646 58.8431 39.6084 58.7782 39.5904 58.7068C39.5723 58.6354 39.5746 58.5605 39.597 58.4903C39.6193 58.4202 39.6608 58.3577 39.7168 58.3099C39.7728 58.2621 39.841 58.2309 39.9138 58.2198C40.5228 58.14 41.1204 58.0374 41.7324 58.0002Z" fill="#252525"/>
<path d="M35.3262 46.845C35.5158 46.905 35.7054 46.9404 35.895 46.9896C36.108 47.0448 36.9582 47.358 37.095 47.0046C37.323 46.536 36.09 46.1862 35.5788 46.1112C35.286 46.0638 34.8162 46.161 34.7988 46.368C34.7514 46.5888 35.1978 46.806 35.3262 46.845Z" fill="#252525"/>
<path d="M57.0984 54.7746C54.9948 56.58 52.4748 58.8 50.2998 60.4584C50.2551 60.4926 50.2036 60.5169 50.1487 60.5295C50.0938 60.5421 50.0368 60.5427 49.9817 60.5313C49.9265 60.5199 49.8744 60.4968 49.829 60.4635C49.7836 60.4302 49.7459 60.3875 49.7184 60.3384C46.2834 54.24 41.934 50.1924 39.1926 48.6408C39.138 48.6105 39.0977 48.5599 39.0805 48.4999C39.0633 48.4399 39.0706 48.3756 39.1008 48.321C39.131 48.2664 39.1817 48.2261 39.2417 48.2088C39.3017 48.1916 39.366 48.1989 39.4206 48.2292C41.3627 49.2243 43.1226 50.5404 44.6262 52.122C46.7713 54.3652 48.6343 56.8621 50.1738 59.5572C50.7804 59.088 51.3738 58.6068 51.9678 58.1202C57.0912 53.916 56.892 53.892 57.1878 53.9202C57.2819 53.9336 57.3675 53.9817 57.4278 54.0552L59.4876 56.7462C59.5099 56.7717 59.5269 56.8015 59.5375 56.8338C59.5481 56.866 59.5521 56.9001 59.5493 56.9339C59.5465 56.9678 59.5369 57.0007 59.521 57.0307C59.5052 57.0608 59.4835 57.0873 59.4573 57.1088C59.431 57.1303 59.4006 57.1463 59.3681 57.1558C59.3355 57.1654 59.3013 57.1683 59.2676 57.1643C59.2339 57.1604 59.2013 57.1497 59.1718 57.1329C59.1423 57.1161 59.1164 57.0935 59.0958 57.0666C58.5864 56.46 57.24 54.9438 57.0984 54.7746Z" fill="#252525"/>
<path d="M62.7972 62.0064C61.9026 60.7542 61.5912 60.2526 60.927 59.16C60.7656 58.8846 61.1706 58.6488 61.3182 58.9008C61.7982 59.5608 63.1998 61.3608 63.5298 61.767C63.5744 61.8269 63.6006 61.8986 63.605 61.9732C63.6095 62.0478 63.5921 62.1221 63.555 62.187C60.225 67.8156 54.375 74.8626 48.1518 72.7542C48.0893 72.732 48.0379 72.6865 48.0082 72.6272C47.9785 72.568 47.9729 72.4995 47.9925 72.4362C48.0121 72.3729 48.0554 72.3196 48.1134 72.2875C48.1714 72.2554 48.2395 72.247 48.3036 72.264C54.2322 73.812 59.5584 67.1832 62.7972 62.0064Z" fill="#252525"/>
<path d="M59.2464 53.7798C60.939 51.1446 61.7664 48.3708 63.5424 47.0106C63.8014 46.793 64.1165 46.6529 64.4515 46.6062C64.7865 46.5595 65.1279 46.6082 65.4365 46.7466C65.7451 46.885 66.0085 47.1076 66.1965 47.3888C66.3844 47.67 66.4894 47.9985 66.4992 48.3366C66.4999 48.3706 66.5075 48.4041 66.5215 48.4352C66.5355 48.4662 66.5555 48.4941 66.5805 48.5172C66.6055 48.5403 66.635 48.5581 66.667 48.5696C66.699 48.5811 66.7331 48.586 66.7671 48.584C66.801 48.582 66.8343 48.5732 66.8648 48.5581C66.8953 48.543 66.9224 48.5219 66.9446 48.496C66.9667 48.4702 66.9834 48.4401 66.9937 48.4077C67.004 48.3752 67.0076 48.3411 67.0044 48.3072C67.0422 46.2222 64.8888 45.0072 63.0624 46.3872C61.1616 47.82 59.6922 51.474 58.842 53.556C58.8273 53.5825 58.818 53.6117 58.8146 53.6419C58.8112 53.672 58.8137 53.7026 58.8221 53.7317C58.8305 53.7609 58.8445 53.7881 58.8634 53.8119C58.8824 53.8356 58.9057 53.8554 58.9323 53.8701C58.9589 53.8848 58.988 53.8941 59.0182 53.8975C59.0484 53.9009 59.0789 53.8984 59.1081 53.89C59.1372 53.8816 59.1645 53.8675 59.1882 53.8486C59.2119 53.8297 59.2317 53.8063 59.2464 53.7798Z" fill="#252525"/>
<path d="M62.9232 57.39C62.6634 57.9858 62.679 57.8892 62.4558 58.3542C62.4339 58.4123 62.3903 58.4596 62.3342 58.4862C62.2781 58.5128 62.2139 58.5167 62.155 58.497C62.0962 58.4772 62.0472 58.4355 62.0185 58.3804C61.9898 58.3254 61.9835 58.2614 62.001 58.2018C62.064 57.942 62.1018 57.687 62.1528 57.429C62.2032 57.258 62.2536 57.0912 62.2914 56.9214C62.3153 56.8543 62.3577 56.7953 62.4136 56.7512C62.4695 56.707 62.5368 56.6795 62.6076 56.6718C63.789 56.5092 64.2702 55.4664 64.035 54.3174C64.0171 54.213 64.0399 54.1056 64.0986 54.0174C64.2684 53.7822 64.3596 53.9208 65.1348 53.6574C65.4854 53.5482 65.8209 53.3952 66.1332 53.202C66.1588 53.1805 66.1883 53.1642 66.2202 53.154C66.2521 53.1439 66.2856 53.1402 66.3189 53.143C66.3523 53.1459 66.3847 53.1552 66.4144 53.1706C66.4441 53.186 66.4704 53.2071 66.492 53.2326C66.5135 53.2582 66.5299 53.2878 66.54 53.3196C66.5501 53.3515 66.5539 53.385 66.551 53.4184C66.5482 53.4517 66.5388 53.4841 66.5234 53.5138C66.508 53.5435 66.487 53.5699 66.4614 53.5914C66.0364 54.0647 65.476 54.3957 64.8564 54.5394C64.9735 55.1733 64.8363 55.8278 64.4745 56.3613C64.1127 56.8947 63.5554 57.2643 62.9232 57.39Z" fill="#252525"/>
<path d="M66.4866 45.7062C66.567 45.7356 66.7812 45.8646 66.8532 45.8946C67.128 45.9745 67.3778 46.1232 67.579 46.3267C67.7802 46.5302 67.9261 46.7818 68.0028 47.0574C68.0611 47.1778 68.1118 47.3016 68.1546 47.4282C68.1524 47.4624 68.1572 47.4966 68.1687 47.5289C68.1801 47.5611 68.198 47.5907 68.2212 47.6159C68.2444 47.641 68.2724 47.6612 68.3036 47.6752C68.3348 47.6892 68.3686 47.6968 68.4028 47.6974C68.437 47.698 68.471 47.6917 68.5027 47.6788C68.5344 47.6659 68.5631 47.6467 68.5872 47.6224C68.6113 47.5981 68.6302 47.5691 68.6428 47.5373C68.6553 47.5055 68.6613 47.4714 68.6604 47.4372C68.7117 47.2635 68.733 47.0823 68.7234 46.9014C68.6724 46.0206 67.5156 44.9262 66.5118 45.2376C66.481 45.236 66.4502 45.2404 66.4212 45.2507C66.3921 45.2609 66.3654 45.2768 66.3424 45.2974C66.3195 45.318 66.3009 45.3428 66.2876 45.3706C66.2743 45.3984 66.2666 45.4286 66.2649 45.4593C66.2632 45.4901 66.2677 45.5209 66.2779 45.55C66.2882 45.579 66.304 45.6058 66.3246 45.6287C66.3452 45.6516 66.3701 45.6703 66.3979 45.6836C66.4257 45.6969 66.4558 45.7046 66.4866 45.7062Z" fill="#252525"/>
<path d="M68.8746 45.417C68.8956 45.4602 68.9634 45.63 69.0012 45.693C69.1325 45.8467 69.251 46.0111 69.3552 46.1844C69.4402 46.3573 69.5079 46.5382 69.5574 46.7244C69.5826 46.8174 69.6456 46.8804 69.6708 46.9776C69.6668 47.0456 69.6898 47.1125 69.7347 47.1638C69.7796 47.2151 69.8428 47.2467 69.9108 47.2518C69.944 47.2548 69.9775 47.251 70.0092 47.2406C70.0408 47.2302 70.07 47.2134 70.095 47.1912C70.1199 47.169 70.14 47.142 70.154 47.1118C70.1681 47.0815 70.1757 47.0487 70.1766 47.0154C70.2383 46.9001 70.2768 46.774 70.29 46.644C70.2632 46.1441 70.0515 45.6721 69.696 45.3198C69.6299 45.2375 69.5476 45.1697 69.4542 45.1206C69.3607 45.0714 69.2582 45.042 69.153 45.0342C69.1022 44.9972 69.0389 44.982 68.9769 44.9918C68.9149 45.0016 68.8593 45.0356 68.8224 45.0864C68.7855 45.1371 68.7702 45.2005 68.78 45.2625C68.7898 45.3245 68.8238 45.38 68.8746 45.417Z" fill="#252525"/>
<path d="M40.911 29.9472C41.0396 29.6968 41.1091 29.4202 41.1142 29.1387C41.1192 28.8572 41.0597 28.5783 40.9402 28.3233C40.8207 28.0684 40.6443 27.8443 40.4247 27.6682C40.2051 27.492 39.948 27.3685 39.6732 27.3072C39.7018 27.0747 39.6823 26.8388 39.6159 26.6141C39.5494 26.3895 39.4374 26.1809 39.2868 26.0014C39.1363 25.822 38.9504 25.6754 38.7407 25.5709C38.5311 25.4663 38.3021 25.406 38.0682 25.3938C37.9667 25.1242 37.8103 24.8785 37.609 24.6724C37.4076 24.4663 37.1657 24.3043 36.8985 24.1965C36.6313 24.0887 36.3446 24.0376 36.0566 24.0463C35.7686 24.055 35.4856 24.1234 35.2254 24.2472C34.3104 23.2032 32.9592 22.9056 32.1294 23.9694C31.7798 23.8171 31.3988 23.7507 31.0182 23.7758C30.6377 23.8008 30.2687 23.9167 29.9421 24.1136C29.6155 24.3105 29.3407 24.5827 29.1409 24.9075C28.9411 25.2324 28.8219 25.6003 28.7934 25.9806C28.1789 26.1694 27.6639 26.5933 27.3605 27.16C27.057 27.7267 26.9898 28.3903 27.1734 29.0064C26.5134 29.6898 26.1792 30.771 26.6556 31.5588C26.4115 31.7663 26.2193 32.028 26.0943 32.3231C25.9694 32.6181 25.9152 32.9383 25.9361 33.258C25.9569 33.5777 26.0523 33.8881 26.2145 34.1644C26.3768 34.4407 26.6014 34.6752 26.8704 34.8492C26.6256 35.8578 27.0888 37.065 28.1304 37.1148C28.1256 37.2245 28.1309 37.3343 28.146 37.443C28.2822 38.451 28.887 38.6604 29.0808 38.5062C29.3046 38.3262 29.0046 37.7784 28.9548 37.515C28.707 36.2118 29.1474 35.7462 29.637 35.4396C29.8659 35.3028 30.1246 35.2235 30.3909 35.2087C30.6572 35.1939 30.9231 35.2439 31.1658 35.3544C32.6478 35.9688 34.2042 33.348 33.5922 31.653C33.8976 31.5819 34.1823 31.4406 34.4236 31.2403C34.6649 31.0401 34.8562 30.7863 34.9824 30.4992C35.3732 30.7482 35.8343 30.8636 36.2964 30.828C36.4507 31.163 36.7079 31.44 37.0306 31.6186C37.3533 31.7972 37.7246 31.8681 38.0904 31.821C38.1747 32.1134 38.3311 32.38 38.5452 32.5962C38.7309 32.7887 38.959 32.9353 39.2112 33.0242C39.4635 33.1132 39.733 33.1421 39.9984 33.1086C41.4126 32.886 42.0894 30.7356 40.911 29.9472Z" fill="#252525"/>
<path d="M28.9956 44.2296C29.0358 44.1696 29.1546 43.8096 29.223 43.611C29.241 43.551 29.6394 42.4662 29.1978 42.333C28.953 42.2658 28.7676 42.6036 28.6416 42.8496C28.4933 43.2307 28.3751 43.623 28.2882 44.0226C28.2882 44.2026 28.3182 44.5794 28.503 44.6274C28.7052 44.6808 28.9626 44.2902 28.9956 44.2296Z" fill="#252525"/>
<path d="M43.6026 32.94C44.9484 32.8396 46.2939 33.1396 47.4696 33.8022C48.0233 34.1485 48.4901 34.6173 48.834 35.1724C49.1779 35.7276 49.3898 36.3544 49.4532 37.0044C49.8414 39.681 51.4218 49.4604 52.473 54.54C52.4775 54.5733 52.4887 54.6053 52.5059 54.6342C52.5232 54.6631 52.5461 54.6881 52.5733 54.7079C52.6005 54.7276 52.6314 54.7416 52.6642 54.7491C52.697 54.7565 52.7309 54.7572 52.764 54.7512C52.8303 54.7383 52.8893 54.7009 52.9291 54.6463C52.969 54.5918 52.9867 54.5242 52.9788 54.4572L50.2368 36.8826C50.1578 36.1203 49.9019 35.387 49.4894 34.7412C49.0769 34.0953 48.5192 33.5548 47.8608 33.1626C46.5297 32.4825 45.0172 32.2421 43.5408 32.4762C43.5086 32.478 43.4771 32.4865 43.4483 32.5011C43.4195 32.5157 43.394 32.5361 43.3735 32.561C43.3529 32.5859 43.3377 32.6148 43.3289 32.6458C43.32 32.6768 43.3176 32.7094 43.3219 32.7414C43.3261 32.7734 43.3369 32.8041 43.3536 32.8318C43.3703 32.8594 43.3926 32.8833 43.4189 32.9019C43.4453 32.9205 43.4752 32.9335 43.5068 32.9401C43.5384 32.9466 43.571 32.9466 43.6026 32.94Z" fill="#252525"/>
<path d="M7.9692 76.44C7.92 75.9774 3.2142 42.5058 3.12 41.8902C2.91499 40.7622 2.96253 39.6028 3.2592 38.4954C3.39249 37.9244 3.63895 37.3859 3.98399 36.9118C4.32902 36.4378 4.76564 36.0377 5.268 35.7354C5.3237 35.7068 5.38846 35.7015 5.44804 35.7207C5.50762 35.7399 5.55714 35.782 5.5857 35.8377C5.61426 35.8934 5.61953 35.9581 5.60035 36.0177C5.58116 36.0773 5.5391 36.1268 5.4834 36.1554C4.62992 36.7395 4.03981 37.6354 3.84 38.6502C3.61833 39.6793 3.61383 40.7434 3.8268 41.7744C3.9342 42.3888 8.73 76.3488 8.73 76.3488C8.79423 77.2729 8.95081 78.1882 9.1974 79.0812C9.7716 81.1542 10.8882 83.238 12.9774 83.7264C13.0415 83.7435 13.0964 83.7848 13.1306 83.8416C13.1648 83.8984 13.1757 83.9662 13.161 84.0309C13.1462 84.0955 13.1069 84.1519 13.0514 84.1883C12.996 84.2246 12.9285 84.2379 12.8634 84.2256C10.3314 83.6784 8.9946 81.2058 8.3526 78.7194C8.16048 77.9718 8.03221 77.2092 7.9692 76.44Z" fill="#252525"/>
<path d="M37.2 79.6314C37.1364 79.3188 37.14 79.2858 37.0356 79.2264C37.0027 79.2085 36.9659 79.1992 36.9285 79.1992C36.8911 79.1992 36.8543 79.2085 36.8214 79.2264C36.7435 79.2607 36.6567 79.2692 36.5736 79.2507C36.4905 79.2321 36.4156 79.1874 36.3598 79.1231C36.304 79.0588 36.2702 78.9784 36.2634 78.8935C36.2567 78.8087 36.2773 78.7239 36.3222 78.6516C36.3586 78.6013 36.3821 78.543 36.3908 78.4816C36.3994 78.4202 36.3928 78.3576 36.3717 78.2993C36.3506 78.241 36.3155 78.1888 36.2695 78.1471C36.2236 78.1055 36.1681 78.0758 36.108 78.0606C35.7602 77.9638 35.3902 77.9851 35.0559 78.1212C34.7216 78.2573 34.4418 78.5005 34.2606 78.8126C34.0793 79.1248 34.0067 79.4882 34.0541 79.8461C34.1016 80.2039 34.2664 80.5359 34.5228 80.79C34.7421 81.0203 35.0268 81.1779 35.3384 81.2414C35.6501 81.3048 35.9737 81.2711 36.2656 81.1448C36.5575 81.0184 36.8037 80.8056 36.9707 80.535C37.1378 80.2643 37.2179 79.9489 37.2 79.6314Z" fill="#252525"/>
<path d="M37.4544 76.2C37.2707 76.083 37.0619 76.0111 36.8451 75.9902C36.6283 75.9694 36.4096 76.0001 36.207 76.08C35.9913 76.1548 35.798 76.2831 35.6452 76.4527C35.4923 76.6223 35.3849 76.8279 35.3328 77.0502C35.3137 77.1324 35.3208 77.2185 35.3531 77.2965C35.3854 77.3745 35.4412 77.4405 35.5128 77.4852C35.7987 77.6364 36.1281 77.6842 36.4452 77.6204C36.7622 77.5567 37.0475 77.3853 37.2528 77.1354C37.4255 76.9667 37.5511 76.7557 37.617 76.5234C37.6312 76.4918 37.6381 76.4574 37.6374 76.4227C37.6366 76.3881 37.6281 76.354 37.6126 76.323C37.597 76.2921 37.5747 76.265 37.5474 76.2437C37.52 76.2224 37.4882 76.2075 37.4544 76.2Z" fill="#252525"/>
<path d="M65.088 34.3237C65.0815 34.1807 65.0553 34.0394 65.01 33.9037C64.8019 33.4461 64.5671 33.0011 64.3068 32.5711C64.2214 32.4718 64.1234 32.3843 64.0152 32.3107C63.9845 32.2564 63.9347 32.2155 63.8754 32.1959C63.8162 32.1764 63.7518 32.1797 63.6948 32.2051C63.6402 32.2354 63.5995 32.2858 63.5814 32.3456C63.5634 32.4055 63.5694 32.47 63.5982 32.5255C63.5977 32.8173 63.6842 33.1026 63.8466 33.3451C63.7866 33.3727 63.2934 33.5971 63.1374 33.6835C62.9263 33.3544 62.6498 33.0723 62.3251 32.8546C62.0004 32.6369 61.6344 32.4883 61.2498 32.4181C61.2918 32.2291 61.3866 31.4257 61.3914 31.3657C61.6135 31.395 61.8395 31.3724 62.0514 31.2997C62.0845 31.3036 62.1181 31.3008 62.1502 31.2915C62.1822 31.2822 62.212 31.2666 62.2379 31.2455C62.2638 31.2245 62.2853 31.1985 62.3009 31.169C62.3166 31.1396 62.3262 31.1073 62.3292 31.0741C62.3356 31.0066 62.3155 30.9393 62.273 30.8865C62.2305 30.8337 62.1691 30.7996 62.1018 30.7915C61.9796 30.7176 61.8477 30.6611 61.71 30.6235C61.2123 30.541 60.7103 30.4875 60.2064 30.4633C60.0762 30.4783 59.9487 30.5108 59.8272 30.5599C59.7667 30.5557 59.7069 30.5752 59.6605 30.6142C59.614 30.6532 59.5844 30.7087 59.578 30.769C59.5716 30.8293 59.5887 30.8898 59.6259 30.9377C59.6631 30.9856 59.7174 31.0173 59.7774 31.0261C59.887 31.101 60.0058 31.1615 60.1308 31.2061C60.2886 31.2437 60.4491 31.2685 60.6108 31.2805C60.5982 31.3555 60.4908 32.1097 60.4854 32.3515C60.0108 32.3383 59.5401 32.4407 59.1138 32.6497C58.6874 32.8587 58.3183 33.1682 58.038 33.5515C57.8934 33.4393 57.6072 33.2635 57.3078 33.0829C57.402 32.9556 57.4864 32.8214 57.5604 32.6815C57.6081 32.5587 57.6405 32.4305 57.657 32.2999C57.6881 32.2482 57.6982 32.1866 57.6852 32.1277C57.6722 32.0688 57.6371 32.0172 57.5871 31.9835C57.5372 31.9498 57.4761 31.9365 57.4167 31.9465C57.3572 31.9564 57.3038 31.9889 57.2676 32.0371C57.1505 32.0966 57.0421 32.1719 56.9454 32.2609C56.6329 32.656 56.3439 33.0694 56.0802 33.4987C56.0192 33.6268 55.976 33.7626 55.9518 33.9025C55.9191 33.9582 55.9086 34.0242 55.9225 34.0873C55.9364 34.1504 55.9737 34.206 56.0268 34.2428C56.0799 34.2796 56.145 34.295 56.209 34.2858C56.273 34.2767 56.3311 34.2437 56.3718 34.1935C56.5691 34.0802 56.7363 33.9214 56.8596 33.7303C57.1193 33.9107 57.3898 34.075 57.6696 34.2223C57.385 34.9835 57.4121 35.8263 57.7452 36.5677C57.4509 36.7256 57.17 36.9072 56.9052 37.1107C56.806 36.911 56.665 36.735 56.4918 36.5947C56.4396 36.5514 56.3833 36.5132 56.3238 36.4807C56.2887 36.4315 56.2361 36.3976 56.1768 36.3862C56.1175 36.3748 56.056 36.3866 56.0052 36.4192C55.9544 36.4519 55.918 36.5028 55.9037 36.5615C55.8894 36.6202 55.8983 36.6821 55.9284 36.7345C55.9299 36.8013 55.9389 36.8677 55.9554 36.9325C56.0144 37.1728 56.1241 37.3978 56.277 37.5925C56.4757 38.0131 56.7643 38.3851 57.1224 38.6821C57.1598 38.7368 57.217 38.7749 57.2819 38.7884C57.3468 38.8018 57.4144 38.7896 57.4705 38.7543C57.5266 38.7189 57.5668 38.6632 57.5827 38.5988C57.5985 38.5344 57.5888 38.4664 57.5556 38.4091C57.5298 38.1833 57.4502 37.967 57.3234 37.7785C57.6065 37.6044 57.8774 37.4112 58.134 37.2001C58.5737 37.7601 59.1943 38.1501 59.8896 38.3035C59.8456 38.5993 59.8176 38.8974 59.8056 39.1963C59.6494 39.1718 59.4915 39.1589 59.3334 39.1579C59.2025 39.1721 59.0739 39.2025 58.9506 39.2485C58.8902 39.2442 58.8305 39.2635 58.784 39.3021C58.7374 39.3408 58.7075 39.3959 58.7006 39.4561C58.6936 39.5162 58.7101 39.5767 58.7466 39.625C58.7831 39.6732 58.8369 39.7056 58.8966 39.7153C59.0039 39.7912 59.1207 39.8527 59.244 39.8983C59.74 39.9909 60.2408 40.056 60.744 40.0933C60.8867 40.0891 61.0281 40.0648 61.164 40.0213C61.2301 40.0271 61.296 40.0071 61.3476 39.9654C61.3993 39.9236 61.4327 39.8635 61.4409 39.7976C61.4491 39.7317 61.4313 39.6652 61.3914 39.6121C61.3515 39.559 61.2926 39.5235 61.227 39.5131C61.0355 39.3908 60.8178 39.3157 60.5916 39.2941C60.6295 38.9882 60.6507 38.6806 60.6552 38.3725C61.4199 38.3469 62.1474 38.0367 62.6952 37.5025C62.8278 37.6333 63.0192 37.7929 63.2742 38.0167C63.1259 38.1893 63.0213 38.3951 62.9694 38.6167C62.9291 38.6695 62.9108 38.736 62.9186 38.802C62.9264 38.868 62.9595 38.9285 63.011 38.9705C63.0624 39.0126 63.1283 39.033 63.1945 39.0274C63.2608 39.0218 63.3223 38.9907 63.366 38.9407C63.7559 38.6888 64.0857 38.3543 64.332 37.9609C64.5058 37.7857 64.6411 37.5763 64.7292 37.3459C64.7515 37.2829 64.7682 37.218 64.779 37.1521C64.8152 37.1039 64.8315 37.0438 64.8245 36.984C64.8176 36.9242 64.7879 36.8694 64.7417 36.8308C64.6954 36.7923 64.6362 36.773 64.5761 36.777C64.516 36.7809 64.4598 36.8078 64.419 36.8521C64.3562 36.8767 64.2959 36.9075 64.239 36.9439C64.0498 37.0608 63.8893 37.2186 63.7692 37.4059C63.447 37.1113 63.2982 36.9775 63.1848 36.8881C63.4094 36.5176 63.552 36.1032 63.6029 35.673C63.6539 35.2427 63.6119 34.8065 63.48 34.3939C63.5946 34.3495 64.1652 34.0777 64.2192 34.0507C64.3183 34.2528 64.4633 34.4289 64.6428 34.5649C64.6798 34.6135 64.733 34.6473 64.7928 34.6602C64.8526 34.673 64.915 34.6641 64.9687 34.635C65.0225 34.6059 65.0641 34.5585 65.0859 34.5014C65.1078 34.4443 65.1085 34.3812 65.088 34.3237Z" fill="#644DF6"/>
<path d="M112.601 26.112C112.592 25.9706 112.566 25.8308 112.523 25.6956C112.314 25.2384 112.079 24.7933 111.82 24.3624C111.735 24.263 111.636 24.1755 111.528 24.102C111.498 24.0476 111.448 24.0066 111.389 23.9871C111.329 23.9676 111.265 23.9709 111.208 23.9964C111.153 24.0267 111.113 24.0772 111.095 24.1372C111.077 24.1972 111.083 24.2618 111.112 24.3174C111.11 24.6103 111.197 24.8969 111.36 25.14C110.963 25.32 110.771 25.4112 110.65 25.4778C110.439 25.1489 110.162 24.8669 109.838 24.6493C109.513 24.4317 109.147 24.2832 108.763 24.213C108.805 24.0198 108.899 23.2206 108.905 23.1606C109.127 23.1896 109.353 23.167 109.565 23.0946C109.632 23.1013 109.7 23.0809 109.752 23.0379C109.805 22.9949 109.838 22.9328 109.844 22.8654C109.851 22.7979 109.831 22.7305 109.788 22.6781C109.745 22.6257 109.683 22.5925 109.615 22.5858C109.493 22.512 109.361 22.4555 109.223 22.4178C108.726 22.3359 108.224 22.2824 107.72 22.2576C107.59 22.2727 107.462 22.3052 107.341 22.3542C107.28 22.3497 107.22 22.369 107.173 22.408C107.127 22.4469 107.097 22.5025 107.09 22.5629C107.084 22.6234 107.101 22.684 107.138 22.732C107.176 22.7801 107.23 22.8117 107.29 22.8204C107.537 22.9848 107.827 23.0724 108.124 23.0724C108.114 23.1324 108.004 23.898 107.999 24.144C107.524 24.1307 107.054 24.233 106.627 24.4421C106.201 24.6511 105.832 24.9606 105.552 25.344C105.409 25.2336 105.17 25.0872 104.821 24.8754C105.013 24.6561 105.135 24.3844 105.17 24.0954C105.202 24.0437 105.212 23.9821 105.199 23.9232C105.186 23.8644 105.151 23.8127 105.101 23.779C105.051 23.7453 104.99 23.732 104.93 23.742C104.871 23.752 104.817 23.7844 104.781 23.8326C104.664 23.8917 104.555 23.9668 104.459 24.0558C104.147 24.452 103.859 24.8654 103.594 25.2942C103.532 25.4221 103.489 25.558 103.465 25.698C103.43 25.7537 103.419 25.8207 103.432 25.885C103.445 25.9493 103.483 26.006 103.537 26.0434C103.591 26.0807 103.657 26.0959 103.722 26.0856C103.787 26.0754 103.845 26.0406 103.885 25.9884C104.083 25.8755 104.25 25.7168 104.373 25.5258C104.633 25.7055 104.903 25.8696 105.183 26.0172C104.899 26.7787 104.926 27.6216 105.259 28.3632C104.964 28.5204 104.683 28.702 104.419 28.9062C104.319 28.7063 104.178 28.5302 104.005 28.3896C103.953 28.3466 103.897 28.3086 103.837 28.2762C103.804 28.2237 103.751 28.1868 103.69 28.1735C103.629 28.1601 103.565 28.1715 103.513 28.2051C103.46 28.2386 103.424 28.2917 103.41 28.3525C103.397 28.4133 103.408 28.4769 103.442 28.5294C103.445 28.5962 103.454 28.6627 103.469 28.728C103.527 28.9688 103.637 29.1941 103.791 29.388C103.987 29.8101 104.276 30.1826 104.636 30.4776C104.672 30.535 104.729 30.5758 104.796 30.5908C104.862 30.6059 104.931 30.5941 104.989 30.558C105.046 30.5218 105.087 30.4644 105.102 30.3982C105.117 30.3321 105.105 30.2626 105.069 30.2052C105.043 29.9792 104.964 29.7626 104.837 29.574C105.111 29.4044 105.374 29.2164 105.623 29.0112C105.631 29.0069 105.639 29.0019 105.647 28.9962C106.086 29.5566 106.706 29.9467 107.402 30.0996C107.358 30.3957 107.33 30.6939 107.318 30.993C107.162 30.9685 107.004 30.9557 106.846 30.9546C106.715 30.9685 106.586 30.9989 106.463 31.0452C106.401 31.038 106.339 31.0557 106.29 31.0944C106.241 31.133 106.21 31.1894 106.203 31.2513C106.196 31.3131 106.213 31.3752 106.252 31.424C106.291 31.4728 106.347 31.5042 106.409 31.5114C106.516 31.5864 106.633 31.6469 106.756 31.6914C107.252 31.7845 107.753 31.8498 108.256 31.887C108.399 31.8821 108.54 31.8577 108.676 31.8144C108.743 31.8212 108.81 31.8015 108.862 31.7595C108.914 31.7176 108.948 31.6567 108.956 31.5901C108.964 31.5235 108.945 31.4564 108.904 31.4034C108.863 31.3504 108.803 31.3157 108.736 31.3068C108.545 31.184 108.327 31.1089 108.101 31.0878C108.139 30.7818 108.16 30.4739 108.164 30.1656C108.929 30.1403 109.657 29.83 110.204 29.2956C110.338 29.427 110.534 29.5908 110.784 29.8104C110.635 29.9825 110.53 30.1885 110.479 30.4104C110.438 30.4632 110.42 30.5297 110.428 30.5957C110.436 30.6617 110.469 30.7222 110.52 30.7642C110.572 30.8063 110.637 30.8267 110.704 30.8211C110.77 30.8155 110.831 30.7844 110.875 30.7344C111.211 30.5268 111.172 30.6048 111.841 29.7552C112.015 29.5801 112.15 29.3706 112.238 29.1402C112.261 29.0772 112.277 29.0123 112.288 28.9464C112.324 28.8983 112.341 28.8381 112.334 28.7783C112.327 28.7185 112.297 28.6637 112.251 28.6251C112.205 28.5866 112.145 28.5673 112.085 28.5713C112.025 28.5752 111.969 28.6021 111.928 28.6464C111.865 28.6714 111.805 28.7023 111.748 28.7388C111.559 28.8555 111.398 29.0134 111.278 29.2008C110.96 28.9092 110.802 28.7676 110.694 28.683C110.919 28.3125 111.061 27.8981 111.112 27.4679C111.163 27.0376 111.121 26.6015 110.989 26.1888C111.103 26.1444 111.677 25.8714 111.728 25.8456C111.784 25.952 111.85 26.0525 111.926 26.1456C111.994 26.2242 112.07 26.2958 112.152 26.3592C112.168 26.3887 112.19 26.4147 112.216 26.4357C112.243 26.4568 112.273 26.4725 112.305 26.4819C112.338 26.4912 112.371 26.4942 112.405 26.4905C112.438 26.4868 112.471 26.4765 112.5 26.4603C112.53 26.444 112.556 26.4222 112.577 26.3959C112.598 26.3696 112.614 26.3394 112.623 26.3071C112.632 26.2747 112.635 26.2408 112.632 26.2074C112.628 26.1739 112.618 26.1415 112.601 26.112Z" fill="#644DF6"/>
<path d="M116.972 45.8244C116.965 45.6825 116.939 45.5422 116.894 45.4074C116.684 44.9505 116.45 44.5056 116.191 44.0748C116.105 43.9756 116.007 43.8879 115.899 43.8138C115.868 43.7597 115.818 43.7189 115.759 43.6995C115.7 43.6801 115.636 43.6834 115.579 43.7088C115.524 43.7392 115.483 43.7896 115.465 43.8494C115.447 43.9093 115.453 43.9738 115.482 44.0292C115.482 44.3211 115.568 44.6065 115.731 44.8488C115.671 44.8764 115.177 45.1014 115.021 45.1872C114.81 44.8583 114.533 44.5763 114.209 44.3586C113.884 44.1409 113.518 43.9923 113.134 43.9218C113.177 43.7274 113.27 42.93 113.276 42.8694C113.498 42.8987 113.724 42.8763 113.936 42.804C113.969 42.8073 114.003 42.804 114.035 42.7943C114.067 42.7846 114.097 42.7686 114.123 42.7473C114.149 42.7261 114.171 42.6999 114.186 42.6703C114.202 42.6407 114.212 42.6082 114.215 42.5748C114.219 42.5414 114.215 42.5077 114.206 42.4756C114.196 42.4434 114.18 42.4135 114.159 42.3876C114.137 42.3616 114.111 42.3401 114.082 42.3242C114.052 42.3084 114.02 42.2985 113.986 42.2952C113.864 42.2214 113.732 42.1647 113.595 42.1266C113.097 42.0449 112.595 41.9916 112.091 41.967C111.961 41.9821 111.833 42.0146 111.712 42.0636C111.652 42.0592 111.592 42.0785 111.545 42.1174C111.498 42.1564 111.468 42.2119 111.462 42.2724C111.455 42.3329 111.473 42.3935 111.51 42.4415C111.547 42.4895 111.602 42.5212 111.662 42.5298C111.909 42.6944 112.199 42.7821 112.495 42.7818C112.485 42.8418 112.375 43.6062 112.37 43.8528C111.895 43.8397 111.425 43.942 110.998 44.151C110.572 44.3601 110.203 44.6696 109.923 45.0528C109.779 44.9412 109.544 44.7972 109.192 44.5842C109.286 44.4569 109.371 44.3227 109.445 44.1828C109.493 44.0602 109.525 43.932 109.541 43.8012C109.559 43.7757 109.571 43.747 109.577 43.7168C109.583 43.6867 109.583 43.6555 109.577 43.6253C109.572 43.595 109.56 43.5662 109.543 43.5405C109.526 43.5148 109.504 43.4927 109.478 43.4754C109.453 43.4582 109.424 43.4461 109.394 43.44C109.364 43.4338 109.333 43.4336 109.302 43.4395C109.272 43.4453 109.243 43.4571 109.218 43.474C109.192 43.491 109.17 43.5129 109.153 43.5384C109.035 43.598 108.927 43.6733 108.83 43.7622C108.518 44.1583 108.23 44.5715 107.965 45C107.903 45.1278 107.859 45.2638 107.836 45.4038C107.803 45.4596 107.792 45.5256 107.806 45.5887C107.82 45.6518 107.857 45.7074 107.911 45.7442C107.964 45.781 108.029 45.7963 108.093 45.7872C108.157 45.778 108.215 45.7451 108.256 45.6948C108.453 45.5815 108.62 45.4227 108.744 45.2316C109.003 45.4122 109.274 45.5765 109.553 45.7236C109.269 46.4849 109.296 47.3279 109.63 48.069C109.335 48.2265 109.054 48.4081 108.79 48.612C108.691 48.4124 108.55 48.2365 108.377 48.096C108.324 48.0528 108.268 48.0147 108.208 47.982C108.173 47.9329 108.121 47.899 108.061 47.8876C108.002 47.8762 107.94 47.888 107.89 47.9206C107.839 47.9532 107.802 48.0042 107.788 48.0629C107.774 48.1215 107.783 48.1835 107.813 48.2358C107.814 48.3027 107.823 48.3691 107.84 48.4338C107.899 48.6742 108.009 48.8992 108.162 49.0938C108.358 49.5161 108.647 49.8886 109.007 50.1834C109.044 50.2382 109.101 50.2763 109.166 50.2897C109.231 50.3032 109.299 50.291 109.355 50.2556C109.411 50.2203 109.451 50.1646 109.467 50.1002C109.483 50.0358 109.473 49.9678 109.44 49.9104C109.414 49.6847 109.335 49.4685 109.208 49.2798C109.482 49.1103 109.745 48.9222 109.994 48.717C110.002 48.7129 110.01 48.7079 110.018 48.702C110.457 49.2622 111.078 49.6522 111.773 49.8054C111.729 50.1013 111.701 50.3993 111.689 50.6982C111.533 50.6738 111.375 50.6609 111.217 50.6598C111.086 50.674 110.957 50.7045 110.834 50.7504C110.773 50.7462 110.714 50.7655 110.667 50.8041C110.621 50.8428 110.591 50.8979 110.584 50.958C110.577 51.0182 110.593 51.0787 110.63 51.1269C110.666 51.1752 110.72 51.2076 110.78 51.2172C110.887 51.2922 111.004 51.3527 111.127 51.3972C111.623 51.4898 112.124 51.5549 112.627 51.5922C112.77 51.5873 112.911 51.5631 113.047 51.5202C113.114 51.5265 113.18 51.5067 113.232 51.465C113.284 51.4233 113.317 51.3631 113.326 51.297C113.334 51.2309 113.316 51.1642 113.276 51.111C113.236 51.0578 113.177 51.0223 113.111 51.012C112.919 50.8895 112.701 50.8144 112.475 50.793C112.513 50.4873 112.534 50.1796 112.538 49.8714C113.303 49.8459 114.031 49.5356 114.578 49.0014C114.712 49.1328 114.917 49.3014 115.158 49.5156C115.009 49.6879 114.904 49.8938 114.853 50.1156C114.831 50.1417 114.815 50.1717 114.806 50.204C114.796 50.2362 114.793 50.27 114.796 50.3035C114.8 50.337 114.81 50.3695 114.826 50.3991C114.841 50.4288 114.863 50.455 114.889 50.4762C114.915 50.4975 114.945 50.5134 114.978 50.5231C115.01 50.5328 115.044 50.536 115.077 50.5326C115.111 50.5292 115.143 50.5193 115.173 50.5033C115.202 50.4874 115.229 50.4657 115.25 50.4396C115.585 50.2314 115.55 50.3094 116.215 49.4598C116.39 49.2852 116.525 49.0756 116.612 48.8448C116.636 48.7823 116.653 48.7173 116.663 48.651C116.699 48.6029 116.715 48.5428 116.708 48.483C116.701 48.4232 116.672 48.3683 116.625 48.3298C116.579 48.2913 116.52 48.272 116.46 48.2759C116.4 48.2799 116.344 48.3068 116.303 48.351C116.24 48.3756 116.18 48.4064 116.123 48.4428C115.934 48.5597 115.773 48.7176 115.653 48.9048C115.345 48.6228 115.177 48.4722 115.069 48.387C115.293 48.0166 115.436 47.6022 115.487 47.172C115.538 46.7418 115.496 46.3056 115.364 45.8928C115.477 45.849 116.051 45.576 116.103 45.5502C116.158 45.6569 116.225 45.7574 116.301 45.8502C116.369 45.9289 116.444 46.0003 116.527 46.0632C116.542 46.0928 116.563 46.119 116.589 46.1403C116.615 46.1616 116.645 46.1776 116.677 46.1874C116.709 46.1973 116.742 46.2007 116.775 46.1975C116.809 46.1943 116.841 46.1845 116.87 46.1688C116.929 46.1358 116.972 46.0814 116.991 46.0172C117.01 45.9529 117.003 45.8838 116.972 45.8244Z" fill="#644DF6"/>
<path d="M59.3094 94.1688C59.22 94.083 59.7438 94.3399 52.6248 91.0585C51.7175 90.5476 50.6965 90.2728 49.6554 90.2593C49.6554 90.2593 33.615 90.9468 31.701 91.0458C31.6827 91.0059 31.6543 90.9715 31.6186 90.9458C31.583 90.9201 31.5413 90.9042 31.4976 90.8994C30.858 90.7794 30.1776 90.6655 29.5266 90.5832C29.796 90.0534 32.0076 85.524 32.5086 84.3918C32.6208 84.156 32.6712 84.0373 33.1086 82.9039C36.0276 82.7629 51.9528 81.9438 52.1676 81.933C52.8481 81.9196 53.5156 81.7447 54.1153 81.4227C54.715 81.1008 55.2297 80.6411 55.617 80.0814C56.3628 78.9888 56.8428 77.2314 56.4132 74.394C56.4033 74.3313 56.371 74.2743 56.3222 74.2337C56.2734 74.1931 56.2115 74.1716 56.148 74.1732C56.1481 74.1392 56.1411 74.1054 56.1276 74.0742C56.114 74.0429 56.0941 74.0147 56.0691 73.9915C56.0442 73.9683 56.0147 73.9505 55.9825 73.9392C55.9503 73.928 55.9162 73.9235 55.8822 73.926C55.8822 73.926 10.9704 75.6444 10.494 75.6756L6.15 42.1416C6.15 42.0012 5.4942 38.931 6.7182 36.8856C8.1714 34.4682 11.2422 34.8288 11.2422 34.8288C11.3022 34.8342 10.3344 34.8348 24.0552 34.0644C24.1153 34.0584 24.1707 34.0294 24.2099 33.9835C24.2491 33.9376 24.2692 33.8784 24.2658 33.8181C24.2625 33.7578 24.2361 33.7012 24.1921 33.6599C24.148 33.6186 24.0898 33.5959 24.0294 33.5964L11.2926 34.1442C10.5054 34.0771 9.71251 34.1536 8.9526 34.3698C5.5092 35.3586 4.836 38.7132 5.3916 42.2442C5.3916 42.2442 9.7434 75.9642 9.7764 76.2492C9.8106 76.5426 9.966 79.6302 11.8356 81.7236C12.9606 82.9806 14.6868 83.838 17.3328 83.6521C17.382 83.6521 17.676 83.6364 18.1728 83.613C18.0528 83.8476 17.2692 85.4203 17.0418 85.9027C16.9158 86.1691 15.2604 89.823 15.1968 89.9724C15.0123 90.3285 14.8765 90.7077 14.793 91.0998C14.4582 92.7114 15.333 93.5749 17.0418 93.5707C25.8576 94.4569 24.6456 94.3104 26.7876 94.2673L26.2284 95.0598C26.1988 95.0971 26.18 95.1418 26.1742 95.1891C26.1683 95.2363 26.1756 95.2843 26.1952 95.3276C26.2148 95.371 26.2459 95.4082 26.2852 95.435C26.3245 95.4619 26.3705 95.4774 26.418 95.4798C26.7318 95.5146 27.4806 95.5656 27.8838 95.5704C28.4364 95.5746 34.788 95.4349 35.5818 95.1883C36.8418 96.0577 37.9248 96.7999 38.0682 96.8941C38.5391 97.247 39.0833 97.4898 39.6606 97.6044C40.8948 97.8931 40.299 97.881 58.8168 95.8416C58.9835 95.8217 59.1457 95.7743 59.2968 95.7012C59.8038 95.4498 59.9706 94.8769 59.3094 94.1688ZM17.2692 82.8691C14.94 83.0317 13.4154 82.3038 12.4296 81.1974C10.5876 79.1466 10.5696 76.2174 10.5588 76.1574C11.8392 76.1431 55.9008 74.4066 55.9104 74.4678C56.4504 77.8278 55.5408 81.1458 52.1448 81.2826C8.2524 83.0454 18.966 82.7503 17.2692 82.8691ZM17.067 92.7817C15.9132 92.7888 15.312 92.3941 15.5634 91.2625C15.6312 90.939 15.7418 90.6261 15.8922 90.3318C15.9522 90.2868 17.7174 86.2602 18.7332 83.5872C21.2226 83.4708 26.6874 83.2141 32.4906 82.9339C31.5258 84.6001 30.3 87.1674 28.6374 90.6642C25.0937 90.8023 21.5602 91.1339 18.0528 91.6578C17.9875 91.6673 17.9284 91.7015 17.8877 91.7534C17.847 91.8054 17.828 91.871 17.8344 91.9366C17.8409 92.0023 17.8725 92.0629 17.9226 92.1059C17.9726 92.1488 18.0373 92.1708 18.1032 92.1672C21.6481 92.0331 25.183 91.7071 28.6926 91.1904C28.8018 91.2888 28.887 91.2846 29.283 91.3164C28.8312 91.5102 28.4521 91.8418 28.2 92.2638L27.1596 93.7398C23.1 93.48 17.5992 92.7751 17.067 92.7817ZM26.907 94.9356L28.6668 92.5879C28.7981 92.3779 28.9734 92.1989 29.1806 92.0632C29.3878 91.9275 29.6219 91.8384 29.8668 91.8019C30.373 91.7725 30.8747 91.9104 31.2948 92.1942C31.3956 92.2698 34.5228 94.4587 34.7928 94.6453C33.4692 94.5793 28.2468 94.7508 26.9076 94.9356H26.907ZM58.7148 95.0556C40.3716 97.0902 40.944 97.101 39.8238 96.8478C39.3631 96.7585 38.9275 96.5695 38.5476 96.2941C38.5128 96.2683 31.6788 91.6345 31.6362 91.6207C33.5442 91.5745 49.68 91.0363 49.68 91.0363C50.1253 91.0332 50.5685 91.0975 50.9946 91.227C51.5142 91.3758 50.9304 91.1358 58.7778 94.761C58.837 94.8338 58.8879 94.9129 58.9296 94.9969C58.8638 95.0333 58.7905 95.0542 58.7154 95.058L58.7148 95.0556Z" fill="#252525"/>
<path d="M75.0504 45.5736C75.4302 45.5976 78.7338 45.6222 79.377 45.558C80.097 45.4866 80.397 45.468 80.397 45.198C80.397 44.928 80.1468 44.9172 79.377 44.838C78.7362 44.7744 75.4332 44.7984 75.0504 44.823C74.7504 44.8428 73.8474 44.8956 73.8474 45.1956C73.8474 45.4866 74.4798 45.5364 75.0504 45.5736Z" fill="#644DF6"/>
<path d="M114.074 91.7844C114.074 91.6704 113.379 86.1498 112.634 80.6364C111.536 72.5964 111.037 66.9732 108.881 62.0028C105.492 54.1752 99.1344 55.3644 92.8458 54.9132C92.9094 52.8402 93.0954 48.189 93.1068 47.934C94.5943 46.1979 95.4572 44.0134 95.5578 41.7294C95.8861 41.3732 96.1186 40.9395 96.2335 40.469C96.3484 39.9984 96.342 39.5064 96.2148 39.039C97.5888 37.3818 97.8144 35.0232 96.2328 33.4074C96.7992 32.4127 96.9834 31.2455 96.7506 30.1248C96.6234 29.6944 96.3974 29.2997 96.0906 28.9722C96.003 28.8867 95.8951 28.8249 95.7771 28.7927C95.659 28.7605 95.5347 28.7589 95.4159 28.7881C95.2971 28.8173 95.1876 28.8763 95.0979 28.9595C95.0082 29.0427 94.9412 29.1475 94.9032 29.2638C93.2562 25.7496 89.0358 27.6438 86.4498 28.0776C85.8172 28.1597 85.1797 28.1978 84.5418 28.1916C82.5996 28.2384 80.9202 27.0516 79.9422 27.8274C79.8007 27.9659 79.7064 28.1454 79.6723 28.3405C79.6383 28.5355 79.6664 28.7363 79.7526 28.9146C79.8193 29.0828 79.8952 29.2473 79.98 29.4072C79.0032 29.1156 78.0954 29.3406 78.426 30.3072C78.7236 31.0503 79.1708 31.7243 79.74 32.2872C79.0638 32.3958 78.252 32.6178 78.312 33.2994C78.3327 33.4283 78.3792 33.5516 78.4487 33.6622C78.5182 33.7727 78.6092 33.868 78.7164 33.9426C79.3899 34.5299 80.2493 34.8606 81.1428 34.8762C81.1936 34.8809 81.2448 34.8755 81.2935 34.8601C81.3421 34.8448 81.3872 34.8199 81.4261 34.7868C81.4649 34.7538 81.4968 34.7133 81.5198 34.6677C81.5427 34.6222 81.5563 34.5725 81.5598 34.5216C81.6015 33.9863 81.7162 33.4592 81.9006 32.955C81.9659 32.6952 82.0965 32.4564 82.2801 32.2613C82.4637 32.0661 82.694 31.9212 82.9494 31.8402C84.1026 31.4382 87.0894 31.3998 88.1934 31.3764C88.9542 31.3132 89.7184 31.3024 90.4806 31.344C91.5108 31.464 91.9806 31.8684 91.9464 33.0204C91.8811 33.7752 91.7758 34.5261 91.6308 35.2698C91.6323 35.372 91.6583 35.4724 91.7064 35.5626C92.1723 36.462 92.7179 37.3178 93.3366 38.1198C93.3853 38.1735 93.4532 38.2059 93.5256 38.2098C94.0902 38.2536 94.9086 38.2464 95.295 38.6538C96.1296 39.5016 95.655 42.0954 93.096 41.7288C93.0458 41.722 92.9948 41.7256 92.9461 41.7392C92.8973 41.7529 92.8519 41.7764 92.8126 41.8082C92.7732 41.8401 92.7408 41.8797 92.7174 41.9245C92.6939 41.9693 92.6798 42.0185 92.676 42.069C92.3364 46.989 92.127 50.4864 92.0442 55.2606C92.0421 55.3619 92.0789 55.4601 92.1472 55.535C92.2154 55.61 92.3097 55.6558 92.4108 55.6632C96.7188 56.0364 101.867 55.3386 105.338 58.2582C110.018 62.2122 110.738 73.0122 111.883 80.7384C112.704 86.2158 113.563 91.6854 113.563 91.7988C113.564 91.8325 113.572 91.8657 113.586 91.8965C113.6 91.9272 113.62 91.9549 113.644 91.9779C113.669 92.001 113.698 92.0189 113.729 92.0307C113.761 92.0425 113.795 92.0479 113.828 92.0466C113.862 92.0464 113.895 92.0394 113.926 92.0259C113.957 92.0125 113.985 91.9928 114.008 91.9683C114.03 91.9438 114.048 91.9148 114.06 91.8832C114.071 91.8516 114.076 91.8179 114.074 91.7844Z" fill="#252525"/>
<path d="M87.666 33.3139C87.6473 33.2479 87.6102 33.1886 87.559 33.143C87.5077 33.0974 87.4445 33.0674 87.3768 33.0565C87.3516 33.0511 85.5798 33.0373 85.554 33.0379C85.0893 33.0454 84.6254 33.0811 84.165 33.1447C84.031 33.1688 83.9108 33.242 83.8278 33.3499C83.6511 33.8137 83.5533 34.3039 83.5386 34.8001C83.5386 35.2801 83.6952 35.4601 83.9916 35.5639C84.3915 35.6644 84.8053 35.6978 85.2162 35.6629C85.8436 35.6401 86.4686 35.5744 87.087 35.4661C87.4998 35.3185 87.6306 35.0185 87.6948 34.5733C87.7256 34.1535 87.716 33.7318 87.666 33.3139Z" fill="#644DF6"/>
<path d="M92.403 32.7204C92.2656 31.4928 91.404 30.9306 90.1668 30.843C88.7394 30.7416 82.7616 31.503 82.7616 31.8078C81.51 32.253 81.168 33.9678 81.0684 35.2998C81.0124 35.686 81.034 36.0794 81.132 36.4572C81.3954 37.1916 82.1358 37.4598 82.9134 37.5186C83.4744 37.5379 84.0361 37.5138 84.5934 37.4466C86.232 37.3128 88.2096 37.5972 90.3048 37.173C90.5826 37.1397 90.8494 37.0446 91.0856 36.8947C91.3218 36.7447 91.5215 36.5438 91.6698 36.3066C92.1944 35.186 92.4457 33.9569 92.403 32.7204ZM87.9744 34.6032C87.9896 34.8563 87.9215 35.1075 87.7807 35.3184C87.6399 35.5293 87.434 35.6883 87.1944 35.7714C86.5484 35.8951 85.8939 35.9699 85.2366 35.9952C84.2382 36.0444 83.298 35.9772 83.2116 34.9854C83.1867 34.3565 83.3055 33.7302 83.559 33.1542C83.686 32.9837 83.8715 32.8662 84.0798 32.8242C84.9007 32.7088 85.7322 32.6886 86.5578 32.7642C86.9298 32.7966 87.7644 32.6442 87.8598 33.273C87.9622 33.7085 88.0008 34.1566 87.9744 34.6032Z" fill="#644DF6"/>
<path d="M73.3224 70.2204C73.3224 70.4216 73.4023 70.6145 73.5445 70.7567C73.6868 70.8989 73.8797 70.9788 74.0808 70.9788C74.2819 70.9788 74.4748 70.8989 74.6171 70.7567C74.7593 70.6145 74.8392 70.4216 74.8392 70.2204C74.8392 70.0193 74.7593 69.8264 74.6171 69.6842C74.4748 69.5419 74.2819 69.462 74.0808 69.462C73.8797 69.462 73.6868 69.5419 73.5445 69.6842C73.4023 69.8264 73.3224 70.0193 73.3224 70.2204Z" fill="#252525"/>
<path d="M91.2834 70.2204C91.2834 70.4216 91.3633 70.6145 91.5055 70.7567C91.6478 70.8989 91.8407 70.9788 92.0418 70.9788C92.2429 70.9788 92.4358 70.8989 92.5781 70.7567C92.7203 70.6145 92.8002 70.4216 92.8002 70.2204C92.8002 70.0193 92.7203 69.8264 92.5781 69.6842C92.4358 69.5419 92.2429 69.462 92.0418 69.462C91.8407 69.462 91.6478 69.5419 91.5055 69.6842C91.3633 69.8264 91.2834 70.0193 91.2834 70.2204Z" fill="#252525"/>
<path d="M87.4344 46.86C87.18 45.54 85.2654 44.2542 84.4098 45.3198C81.3294 44.8614 82.0962 44.412 80.538 43.8432C78.8322 43.2108 76.5252 43.5558 74.9022 43.6212C74.0874 43.6554 73.0122 43.6212 72.3498 44.1732C71.6298 44.754 71.955 45.8826 72.6024 46.4076C73.2918 46.9668 74.2998 46.9476 75.1824 46.9428C78.7254 46.932 80.2896 46.6524 81.8544 46.6188C82.8192 46.5978 84.4758 46.7832 84.6498 45.909C84.7571 45.8389 84.8753 45.7872 84.9996 45.756C85.6374 45.5124 86.2776 46.3146 86.7204 46.8102C86.8104 46.9116 86.9046 46.9902 86.9862 47.085C87.0005 47.1152 87.0206 47.1422 87.0453 47.1646C87.0701 47.187 87.099 47.2042 87.1305 47.2154C87.1619 47.2265 87.1952 47.2314 87.2286 47.2296C87.2619 47.2278 87.2945 47.2195 87.3246 47.205C87.3551 47.1903 87.3822 47.1694 87.4044 47.1438C87.4266 47.1182 87.4433 47.0884 87.4536 47.0561C87.4639 47.0238 87.4675 46.9898 87.4642 46.9561C87.4609 46.9224 87.4507 46.8897 87.4344 46.86ZM81.42 45.9C81.0054 45.8928 75.1134 46.3338 73.8132 46.0836C73.5565 46.0474 73.3131 45.9466 73.1058 45.7908C72.816 45.5508 72.5754 44.9952 72.84 44.7816C73.3158 44.3982 74.3256 44.43 74.94 44.4036C76.8246 44.3178 79.5312 43.8696 81.1572 44.9436C81.5112 45.1722 81.8948 45.3514 82.2972 45.4764C82.8996 45.6347 83.5194 45.7171 84.1422 45.7218C84.0996 46.1952 82.5294 45.9198 81.42 45.9Z" fill="#252525"/>
<path d="M58.7826 92.1959C60.6426 89.7107 66.555 90.2513 69.195 92.2793C69.4364 92.4287 69.6226 92.6526 69.7254 92.9171C69.789 93.1091 69.675 93.2772 69.4602 93.4428C68.1684 94.4268 64.233 94.6925 62.6112 94.4861C61.9681 94.4072 61.3336 94.2692 60.7158 94.0739C60.654 94.0575 60.5882 94.0648 60.5314 94.0943C60.4747 94.1239 60.431 94.1735 60.4089 94.2336C60.3868 94.2936 60.388 94.3598 60.4121 94.419C60.4363 94.4783 60.4816 94.5264 60.5394 94.5539C62.3545 95.2813 64.3346 95.4959 66.2634 95.1743C67.3434 95.0543 69.0786 94.7237 69.9402 94.0637C73.347 91.4543 61.497 87.0737 58.404 91.9247C58.3862 91.9496 58.3735 91.9777 58.3665 92.0075C58.3596 92.0373 58.3586 92.0681 58.3636 92.0983C58.3685 92.1285 58.3794 92.1574 58.3956 92.1833C58.4117 92.2093 58.4328 92.2318 58.4577 92.2496C58.4826 92.2675 58.5107 92.2802 58.5405 92.2871C58.5702 92.2941 58.6011 92.2951 58.6313 92.2901C58.6614 92.2851 58.6903 92.2742 58.7163 92.2581C58.7423 92.2419 58.7648 92.2208 58.7826 92.1959Z" fill="#252525"/>
<path d="M103.371 92.6399C103.011 90.3101 103.451 92.022 101.564 81.8928C101.024 78.9066 100.15 74.1233 99.4158 71.2175C99.4117 71.1873 99.4015 71.1582 99.3857 71.1321C99.3699 71.1059 99.349 71.0833 99.3241 71.0656C99.2993 71.0479 99.2711 71.0355 99.2412 71.0291C99.2114 71.0227 99.1805 71.0225 99.1506 71.0285C99.1203 71.034 99.0913 71.0453 99.0653 71.062C99.0394 71.0786 99.017 71.1002 98.9994 71.1255C98.9817 71.1508 98.9693 71.1793 98.9627 71.2094C98.9561 71.2395 98.9555 71.2706 98.961 71.3009C99.5196 75.2423 99.1956 73.4129 100.445 80.1965C99.3951 84.4566 98.5642 88.7677 97.9554 93.1128C97.9452 93.1868 97.9631 93.2621 98.0055 93.3237C98.0479 93.3853 98.1118 93.4288 98.1846 93.4457C98.2215 93.4542 98.2597 93.4549 98.2968 93.4479C98.334 93.4409 98.3693 93.4263 98.4006 93.405C98.4318 93.3837 98.4584 93.3562 98.4785 93.3242C98.4986 93.2922 98.5119 93.2563 98.5176 93.219C99.366 89.58 100.142 85.6421 100.728 81.7325C101.148 84.0125 102.768 92.2014 102.866 92.7198C102.876 92.7867 102.913 92.8468 102.968 92.8867C103.023 92.9266 103.091 92.943 103.158 92.9324C103.225 92.9219 103.285 92.8851 103.325 92.8302C103.365 92.7754 103.382 92.7069 103.371 92.6399Z" fill="#252525"/>
</svg>
