<svg width="120" height="120" viewBox="0 0 120 120" fill="none" xmlns="http://www.w3.org/2000/svg">
<path d="M79.3098 111.718C41.81 111.778 34.8499 111.658 34.8499 111.658C34.7899 111.478 37.4299 108.838 37.5499 108.718C38.0299 108.238 76.9698 108.658 77.0298 108.718L79.3098 111.718Z" fill="#644DF6"/>
<path d="M116.63 114.838C117.41 114.838 117.05 115.858 116.51 115.978C40.0699 115.678 9.34998 115.318 3.88997 115.018C2.50997 114.958 2.62986 114.538 4.06986 114.538C16.0699 114.418 114.29 114.838 116.63 114.838Z" fill="#252525"/>
<path d="M21.83 97.0776C37.19 97.1976 38.2699 96.5976 37.9699 97.1976C36.3499 100.198 36.5899 100.078 36.1699 100.078C34.9699 100.078 17.03 100.318 16.79 99.8376C16.73 99.6576 18.23 98.1576 18.89 97.3776C19.19 96.9576 19.31 97.0776 21.83 97.0776Z" fill="#644DF6"/>
<path d="M30.1099 102.418C32.3899 102.358 41.3299 102.358 42.2299 102.298C42.4699 102.298 42.4699 102.418 42.4099 102.598C40.7899 105.358 41.0899 105.538 40.6099 105.538C26.6899 105.598 26.5099 105.838 26.8699 105.358C29.5099 101.878 28.9099 102.418 30.1099 102.418Z" fill="#644DF6"/>
<path d="M22.7301 108.538C23.3301 108.538 22.2501 109.198 20.0301 111.538C19.6101 111.958 19.3101 111.598 16.4301 111.718C15.0501 111.778 11.21 111.718 8.57005 111.598C7.01005 111.478 6.47017 111.598 6.89017 111.178C10.3102 107.158 6.5301 109.078 22.7301 108.538Z" fill="#644DF6"/>
<path d="M107.99 101.698C109.19 101.638 109.19 101.698 109.79 102.658C110.21 103.318 110.51 103.978 110.99 104.638C111.29 104.998 112.19 104.938 98.0904 104.998C97.6104 104.998 97.8498 104.758 96.0498 102.178C95.5698 101.518 96.1704 102.058 107.99 101.698Z" fill="#644DF6"/>
<path d="M27.53 102.478C25.25 105.178 25.4299 104.998 25.2499 105.238C24.7699 105.958 11.8099 105.658 11.7499 105.538C11.6899 105.358 13.73 103.258 13.73 103.138C14.09 102.478 14.63 102.418 15.29 102.478C18.47 102.598 27.23 102.238 27.53 102.478Z" fill="#644DF6"/>
<path d="M108.59 111.778C102.83 111.778 101.57 111.718 97.6104 111.778C97.1304 111.778 97.2504 111.778 95.3904 108.958C94.9104 108.178 95.6898 108.838 102.47 108.658C103.67 108.598 104.87 108.778 106.07 108.658C106.37 108.658 106.49 108.778 106.67 109.018C108.05 111.118 108.41 111.358 108.59 111.778Z" fill="#644DF6"/>
<path d="M35.4499 108.538C35.3899 108.718 35.45 108.538 32.39 111.538C32.27 111.658 32.09 111.718 31.91 111.718C31.31 111.658 22.19 111.718 22.19 111.658C22.13 111.538 22.25 111.478 22.31 111.418C25.07 108.298 24.71 108.478 25.31 108.478C26.69 108.538 35.3899 108.538 35.4499 108.538Z" fill="#644DF6"/>
<path d="M21.5301 41.4573C21.6501 42.8973 21.7102 47.0373 21.8902 58.3173C22.4302 89.6976 22.1301 89.6976 22.1301 89.6976C22.1301 89.8776 21.8902 89.9976 21.8902 89.7576C21.7102 87.1776 20.8101 46.3173 20.9301 41.4573C20.9301 40.8573 21.4101 40.3173 21.5301 41.4573Z" fill="#252525"/>
<path d="M95.9898 104.998C86.3898 104.998 86.6898 105.178 86.3898 104.758C85.8498 103.858 85.2498 103.018 84.6498 102.178C84.5898 102.118 84.5298 102.058 84.5298 101.938C84.5898 101.818 93.5898 101.818 93.7098 101.818C94.0698 101.818 94.3698 102.058 94.4298 102.418C94.5498 102.958 96.1098 104.698 95.9898 104.998Z" fill="#644DF6"/>
<path d="M103.01 43.1974C103.01 43.0174 103.25 42.9574 103.31 43.1374C104.03 45.4774 103.85 54.2374 104.03 71.5776C104.27 91.1376 104.45 91.0776 103.79 91.1376C103.49 91.1376 103.31 84.8376 103.01 43.1974Z" fill="#252525"/>
<path d="M55.7902 105.298C55.7902 105.298 49.5502 105.298 42.8902 105.418C42.4102 105.418 42.6502 105.298 43.7302 102.358C43.7902 102.178 43.8501 102.178 43.9701 102.178C50.3301 102.478 44.2102 101.338 55.7902 105.298Z" fill="#644DF6"/>
<path d="M95.8698 111.718C95.5698 111.778 93.4098 111.778 93.0498 111.778C89.4498 111.718 89.1498 112.018 88.8498 111.598C87.0498 108.718 86.7498 108.598 87.2898 108.598C94.6698 109.018 92.4498 107.218 95.8698 111.718Z" fill="#644DF6"/>
<path d="M87.8298 111.657C87.5898 111.837 84.3498 111.717 84.1098 111.717C82.0098 111.597 81.4098 112.137 80.9898 111.357C80.4498 110.277 79.1298 108.778 79.1898 108.598C79.1898 108.598 85.5498 108.417 85.7298 108.717C86.3898 109.677 87.4698 110.997 87.8298 111.657Z" fill="#644DF6"/>
<path d="M114.41 111.838C113.63 111.718 111.05 111.718 110.21 111.778C109.79 111.778 109.97 111.838 107.99 109.018C107.75 108.718 107.69 108.538 108.05 108.598C109.79 108.838 113.15 108.298 113.51 108.838C115.67 112.198 115.85 111.718 114.41 111.838Z" fill="#644DF6"/>
<path d="M95.0298 97.4376C101.51 97.5576 99.8898 96.4176 101.39 99.4176C101.57 99.7776 101.51 99.5976 98.6898 99.7176C97.4898 99.7776 96.2898 99.5976 95.0898 99.7176C94.9098 99.7176 94.7898 99.6576 94.6698 99.4776C93.7098 97.2576 93.2898 97.4376 95.0298 97.4376Z" fill="#644DF6"/>
<path d="M25.3699 42.8373C26.1499 40.8573 28.79 40.1373 30.59 40.9773C32.75 42.0573 32.8699 44.0373 31.7299 45.4173C29.3299 48.3573 23.9899 46.3173 25.3699 42.8373ZM28.61 46.1373C30.77 46.1373 31.97 44.5173 31.79 43.1973C31.43 40.9773 28.1899 40.4973 26.4499 42.3573C25.0099 43.9173 26.21 46.1973 28.61 46.1373Z" fill="#644DF6"/>
<path d="M76.0698 105.058C82.9098 102.658 82.6098 102.058 82.9098 102.538C84.5298 104.878 84.8298 105.118 84.4098 105.118C83.4498 104.998 76.0698 105.298 76.0698 105.058Z" fill="#644DF6"/>
<path fill-rule="evenodd" clip-rule="evenodd" d="M75.945 38.1255C75.9222 37.9176 75.8994 37.7097 75.8772 37.502C89.5284 37.4397 100.875 37.4254 102.17 37.4973C104.21 37.5573 104.09 37.7374 102.59 37.8574C100.127 37.9917 89.0208 38.0758 75.945 38.1255ZM51.2578 37.6516C38.6261 37.7484 27.859 37.8669 25.01 37.9773C24.05 38.0373 23.93 38.1574 25.01 38.1574C25.9176 38.1813 37.3503 38.1956 51.2011 38.1816C51.2107 38.1537 51.2203 38.1256 51.23 38.0975C51.262 38.0014 51.2674 37.8463 51.2578 37.6516Z" fill="#252525"/>
<path d="M107.93 99.6575C104.93 99.8375 106.67 99.7175 103.85 99.7175C103.37 99.7175 103.49 99.5975 102.47 97.6175C102.23 97.1375 102.35 97.3175 106.31 97.1975C106.67 97.2575 106.49 97.1375 107.93 99.6575Z" fill="#644DF6"/>
<path d="M91.1898 42.7173C91.3098 42.0573 91.0098 41.9973 91.7298 41.9973C98.8098 42.1173 98.5698 42.0573 98.5098 42.4173C98.4498 43.0173 98.6898 43.0773 98.0298 43.0773C91.1898 42.8373 91.1298 43.1973 91.1898 42.7173Z" fill="#644DF6"/>
<path d="M44.03 43.7373C43.85 44.3373 33.53 44.1573 33.29 44.0373C33.17 43.9773 32.99 44.0373 32.99 43.7973C33.05 43.1973 43.01 43.4973 44.03 43.7373Z" fill="#644DF6"/>
<path d="M80.7498 41.8773C84.1698 41.8773 84.1698 41.7573 84.1098 42.2373C84.1098 42.7773 84.1098 42.7773 83.5698 42.7773C82.9698 42.7773 82.3698 42.8373 81.7698 42.7773C78.8898 42.5373 78.7698 42.7773 78.7698 42.2973C78.7698 41.7573 78.8898 41.8773 80.7498 41.8773Z" fill="#644DF6"/>
<path d="M88.3698 42.8373C85.3698 42.8373 85.4298 42.9573 85.4298 42.5373C85.4298 41.6373 85.3698 41.8773 89.8098 41.9373C89.9898 41.9373 90.0498 41.9973 90.0498 42.1773C90.0498 42.8973 90.0498 42.8973 89.3298 42.8973C88.3698 42.8973 88.3698 42.9573 88.3698 42.8373Z" fill="#644DF6"/>
<path d="M40.13 41.9974C39.11 42.4774 33.1699 42.9574 33.1699 42.1774C33.1699 41.9374 33.8299 41.8774 34.0699 41.8774C38.8099 41.7574 39.35 41.6974 40.13 41.9974Z" fill="#644DF6"/>
<path fill-rule="evenodd" clip-rule="evenodd" d="M75.5658 34.7016C89.106 34.7567 100.603 34.8579 103.79 35.1573C105.59 35.3373 107.27 36.9573 107.39 39.2973C107.395 39.412 107.4 39.564 107.405 39.7507C107.749 39.6742 108.104 39.6159 108.469 39.577C108.433 38.6712 108.392 38.0473 108.35 37.8573C107.358 33.7479 105.697 33.7661 93.3252 33.9013C89.9814 33.9378 85.8558 33.9829 80.7498 33.9573C80.7498 33.9573 78.7512 33.9457 75.4734 33.9288C75.5052 34.1852 75.5358 34.4428 75.5658 34.7016ZM50.5284 33.8246C50.7488 34.0131 51.0023 34.1797 51.29 34.3175C51.2345 34.4038 51.1917 34.5067 51.1593 34.6223C39.5671 34.5778 29.0985 34.5034 23.4672 34.3092C23.5168 34.1542 23.5628 33.9951 23.6051 33.8317C29.4016 33.7812 40.0108 33.793 50.5284 33.8246ZM38.8394 95.1318C39.667 95.4192 40.5124 95.5914 41.33 95.5776C41.69 95.5776 44.69 95.5776 45.89 95.4576C45.8237 95.5932 45.7586 95.7198 45.6949 95.8386C45.5903 95.8386 45.4861 95.8392 45.382 95.8398C32.9475 95.883 23.1343 95.9172 21.7697 95.9376C19.3097 95.9976 17.9899 94.0776 17.9899 92.0376C17.9899 92.0376 17.9329 85.437 18.0407 39.2115C18.3143 39.1223 18.5788 39.028 18.8342 38.9281C18.8588 52.4054 18.8086 62.547 18.7707 70.2036C18.6706 90.4116 18.6563 93.3132 20.3298 94.5576C21.3009 95.3016 28.2967 95.2956 38.8394 95.1318ZM89.3388 95.6634C89.6076 95.4108 89.8698 95.154 90.1248 94.8918C95.07 94.8 103.31 94.6776 103.31 94.6776C105.83 94.6776 107.57 92.3376 107.39 89.8176C107.368 89.3784 107.386 83.0208 107.409 74.943V74.9244C107.429 67.8294 107.453 59.4102 107.458 52.5108C107.533 52.5264 107.611 52.5419 107.69 52.5575C108.034 52.5723 108.367 52.5708 108.688 52.5542C108.689 53.9435 108.677 54.9364 108.65 55.1973C108.632 65.637 108.659 73.0158 108.679 78.2862C108.721 89.6688 108.726 91.2186 108.174 92.535C108.087 92.742 107.986 92.9436 107.87 93.177V93.1776C107.21 94.4976 106.31 95.3376 104.81 95.5176C104.348 95.5668 98.1558 95.6166 89.3388 95.6634Z" fill="#252525"/>
<path fill-rule="evenodd" clip-rule="evenodd" d="M32.766 90.9233C28.4132 91.0175 25.1744 91.1465 23.69 91.3175C22.97 91.3775 22.3099 91.5575 23.7499 91.6175C25.2819 91.6283 28.7564 91.6481 33.4306 91.6685C33.1477 91.3859 32.9354 91.1405 32.81 90.9575C32.7953 90.9461 32.7806 90.9347 32.766 90.9233ZM92.724 91.6307C92.8728 91.3979 93.0162 91.1615 93.1542 90.9215C97.3314 90.9863 100.265 91.0607 101.27 91.1375C101.93 91.1975 101.57 91.3775 101.45 91.3775C100.427 91.4921 97.251 91.5743 92.724 91.6307Z" fill="#252525"/>
<path d="M64.6698 40.8576C64.4898 41.8176 62.9298 43.7376 60.1698 44.3976C58.3096 44.8176 57.8896 44.2176 57.8296 44.7576C57.2296 49.1376 57.5297 46.8576 56.5097 51.6576C55.1897 58.1376 60.8298 58.4975 67.0698 47.2775C67.3098 46.8575 66.7698 47.1576 66.7698 43.5576C66.7698 42.1776 66.8298 38.8176 67.1898 37.4976C67.3098 37.0176 67.0698 36.4175 67.7898 36.1775C68.8098 35.8175 71.0298 35.2776 71.6298 33.7176C72.2298 32.0976 70.5498 30.6576 67.9698 31.7976C66.8298 32.3376 64.7898 32.6975 64.5498 32.5775C64.2498 32.4575 64.6098 33.5376 63.3498 34.4976C61.5498 35.8776 58.7296 34.9176 58.2496 32.2176C58.1896 31.8576 57.9496 31.9176 57.7696 31.9176C54.4096 31.3776 55.9696 32.1576 54.7696 33.5376C53.2696 35.2776 50.4496 35.0376 49.4296 32.1576C49.1296 31.2576 49.6096 29.6976 50.2696 29.1576C51.2896 28.3176 52.6696 28.3176 53.6296 28.8576C55.6096 29.9976 55.0696 31.5575 55.5496 31.3775C57.3496 30.8975 58.0697 31.8576 58.1897 31.3176C59.0297 27.6576 63.8298 28.1376 64.3698 31.7976C64.4298 32.0376 64.4898 32.0375 64.6698 31.9775C66.9498 31.4375 67.1898 31.5576 67.0098 31.2576C65.9298 29.5176 64.8498 25.6776 64.6698 23.6376C58.7896 29.7576 46.0096 26.1576 49.0696 21.3576C52.9096 15.3576 61.7898 14.9976 66.7098 18.8376C68.8698 20.5176 67.7298 20.2776 69.0498 20.6376C74.9898 22.1976 75.1098 32.2775 76.2498 41.2775C76.7298 45.0575 76.7898 44.5776 76.1898 45.7176C74.1498 49.4376 69.1098 48.7176 69.8298 49.7376C73.2498 54.5376 72.5298 62.3377 71.0298 68.0377C70.9098 68.5777 76.3098 70.1977 70.3098 82.6177C69.2898 84.7777 66.2898 83.1577 67.3698 81.8977C67.5498 81.7177 67.7298 81.5977 67.9698 81.7177C69.7098 82.1977 69.7098 82.6777 69.8898 82.2577C71.3298 79.0177 73.9098 72.2377 71.3898 69.4177C68.6898 66.4177 64.7898 72.7777 63.3498 79.3777C63.2898 79.6177 63.4098 79.6777 63.5898 79.7377C66.7098 80.5177 64.6098 82.9777 62.8698 81.1777C61.9698 80.2177 64.7898 69.7777 69.1698 68.2177C69.8898 67.9777 70.3698 68.2777 70.4298 67.9177C71.6298 62.3977 72.3498 52.2576 68.0298 48.5976C67.2498 47.9376 67.2498 47.6976 67.1298 47.9976C66.5898 49.1376 65.9298 50.7575 64.3098 52.6775C57.6497 60.5977 54.4697 56.2776 55.7897 51.2376C56.3897 49.0176 56.4496 49.0176 56.1496 49.0176C53.2096 48.9576 49.3096 48.0576 48.4696 45.2376C48.2296 44.5776 49.5496 42.5976 51.0496 38.1576C51.2296 37.6176 50.8097 36.1176 50.9897 34.8576C50.9897 34.6776 51.2296 34.6776 51.2296 34.8576C51.2296 34.9176 50.9297 43.1376 57.7097 44.0976C58.6097 44.2176 60.2898 44.0376 61.9098 43.1976C64.0098 42.0576 64.3698 40.9176 64.6698 40.8576ZM58.7296 31.8576C58.9096 34.9776 63.2298 35.8776 63.8898 32.7576C64.6698 28.9776 58.8496 27.7176 58.7296 31.8576ZM49.9097 31.2576C49.9697 34.3776 54.2297 35.2775 54.8897 32.2775C55.6097 28.6175 50.0297 27.5376 49.9097 31.2576Z" fill="#252525"/>
<path d="M71.1498 49.9775C72.8898 50.0375 79.7298 53.6976 81.2898 54.6576C90.3498 60.1177 95.9898 72.7777 95.5098 83.0377C95.1498 90.8977 90.0498 96.2977 83.2698 100.138C74.3898 105.238 66.1098 104.638 56.2101 102.418C52.6101 101.638 47.6901 100.138 44.6901 98.0377C43.5501 97.2577 45.89 97.8577 47.45 91.3777C47.81 89.8777 47.75 88.4377 48.53 88.4377C49.73 88.3777 62.8098 87.1777 80.9898 82.0177C82.6098 81.5377 75.5898 85.3177 59.6901 87.6577C52.6101 88.6777 51.41 88.9177 48.77 88.7977C48.05 88.7377 49.13 89.2177 47.45 94.1977C46.97 95.5777 46.1901 96.7777 44.9901 97.6177C45.7101 98.8777 60.2898 104.158 71.3298 103.138C77.8098 102.538 82.0098 100.318 86.6898 96.8977C91.9098 93.0577 94.7898 87.9577 94.6098 81.5377C94.3698 72.4177 89.8698 63.2977 85.2498 59.0975C79.2498 53.5775 71.6898 50.9375 71.1498 49.9775Z" fill="#252525"/>
<path d="M43.7898 75.3577C43.6698 75.2377 43.5497 75.2377 43.3697 75.1777C30.9497 73.4977 27.3497 72.1777 27.8297 73.1977C31.5497 80.9977 31.7897 81.0577 32.0297 81.6577C31.1897 81.7177 27.5298 73.9777 27.1098 72.8977C26.5098 71.3377 33.4698 73.3177 39.5898 74.1577C43.9698 74.7577 44.0897 74.7577 44.4497 75.2377C48.1697 79.6177 49.6097 82.3777 52.6697 86.5177C53.6897 87.8377 53.2698 89.3977 43.7898 75.3577Z" fill="#252525"/>
<path d="M47.8696 60.1176C47.8096 59.5175 47.9297 59.0375 48.1097 58.5575C48.3497 58.0175 48.4097 57.4175 48.6497 56.8775C51.4097 50.5775 55.0697 49.3775 52.0097 50.3975C38.6897 55.0175 36.3497 60.1176 35.6897 59.3375C35.3297 58.9775 39.4097 55.0175 46.5497 51.7775C47.5697 51.2975 54.6496 48.5975 54.1696 49.7975C53.9896 50.2175 52.6696 51.4775 50.8696 54.3575C49.0696 57.2375 48.3496 59.8775 47.8696 60.1176Z" fill="#252525"/>
<path d="M36.95 72.9577C36.41 73.1977 34.91 71.7577 34.73 69.8377C34.61 68.8777 35.09 67.7377 36.05 67.3777C36.29 67.2577 36.2299 67.1377 36.1699 66.9577C29.3899 53.8776 30.65 53.2175 35.75 64.3177C37.01 67.0777 37.07 67.0777 37.43 67.0177C38.21 66.9577 39.95 67.4977 39.83 67.8577C39.71 68.2777 37.73 67.3777 37.49 67.6777C37.37 67.7977 37.55 67.9177 37.55 68.0377C38.33 69.7177 39.29 71.3377 39.83 72.8377C39.41 72.8377 36.89 68.4577 36.71 68.1577C36.29 67.3777 35.1499 68.6977 35.2699 69.8377C35.5099 71.8777 36.83 72.7177 36.95 72.9577Z" fill="#252525"/>
<path d="M80.7498 66.7177C80.6898 71.6377 78.4098 82.7377 77.1498 82.2577C76.9098 82.1377 76.9098 81.9577 77.7498 79.4977C79.4898 74.0377 80.8098 61.6777 80.7498 66.7177Z" fill="#252525"/>
<path d="M43.5498 64.1976C43.6098 61.3176 46.3099 60.0576 48.4099 61.3776C50.7499 62.7576 50.8698 66.0576 48.6498 67.4376C46.4298 68.7576 43.3698 66.5376 43.5498 64.1976ZM44.1498 63.6576C43.9698 67.9176 49.3099 68.5776 49.7899 64.9176C50.0899 62.6376 47.8097 60.7776 45.7697 61.6176C44.6897 62.0376 44.1498 62.9376 44.1498 63.6576Z" fill="#252525"/>
<path d="M38.63 80.5777C39.05 80.7577 40.55 85.2577 46.43 90.4177C46.73 90.7177 46.4301 90.8977 46.1901 90.7777C41.9301 88.6777 37.85 80.4577 38.63 80.5777Z" fill="#252525"/>
<path d="M41.2698 95.9377C37.0698 95.9977 32.5098 91.6177 32.8698 91.2577C33.2298 90.8977 34.9098 94.0177 41.4498 95.4577C41.6298 95.5177 41.9898 95.5177 41.9298 95.7577C41.9298 95.9377 41.6898 95.9377 41.2698 95.9377Z" fill="#252525"/>
<path d="M30.8299 84.4176C31.7299 85.6176 32.7498 86.5176 33.7698 87.5376C35.0898 88.8576 36.6499 89.6976 38.5099 89.9376C39.2899 90.0576 39.1099 90.8976 36.6499 90.1776C33.7699 89.3376 30.5899 85.1976 30.8299 84.4176Z" fill="#252525"/>
<path d="M37.9697 91.7976C38.4497 91.8576 38.7497 92.0376 38.3297 92.2776C37.4297 92.8176 32.7497 91.1376 30.5297 87.6576C28.8497 85.0776 32.8097 90.8376 37.9697 91.7976Z" fill="#252525"/>
<path d="M39.5299 88.8576C34.9699 87.9576 30.83 81.7176 32.51 83.2176C35.63 85.9776 35.8099 86.6976 39.3499 88.3176C39.7099 88.4976 39.9499 88.5576 39.9499 88.7376C39.8899 88.9176 39.7099 88.8576 39.5299 88.8576Z" fill="#252525"/>
<path d="M34.43 72.4776C33.59 72.5376 31.67 70.2576 32.21 68.2176C32.87 65.3976 36.95 66.5976 34.37 67.0776C31.91 67.4976 32.45 70.7976 34.37 72.3576C34.37 72.3576 34.37 72.4176 34.43 72.4776Z" fill="#252525"/>
<path d="M43.0699 71.4577C43.0099 72.1777 42.1699 73.5577 41.4499 73.6777C41.2099 73.7377 41.21 73.6177 41.33 73.4977C42.71 72.2377 42.89 70.0777 41.21 69.0577C41.03 68.9377 40.73 68.9377 40.91 68.6377C41.15 68.0977 43.0699 69.2377 43.0699 71.4577Z" fill="#252525"/>
<path d="M31.61 72.1777C31.07 71.9977 29.9901 70.3177 29.9901 68.8777C29.9901 67.8577 31.0701 66.8377 31.7901 66.8977C32.1501 66.8977 32.27 67.1977 31.85 67.3177C29.09 68.1577 31.61 71.8177 31.61 72.1777Z" fill="#252525"/>
<path d="M60.6498 27.6576C60.1098 27.5976 60.1098 27.1176 60.5898 26.9976C61.9098 26.5176 63.7698 27.6576 63.5898 28.0776C63.4698 28.3176 62.5098 27.8976 60.6498 27.6576Z" fill="#252525"/>
<path d="M56.1498 36.5975C53.3898 36.6575 55.4899 33.4775 55.4899 33.4775C55.5499 33.3575 55.8498 33.3575 55.7298 33.5975C55.1298 35.6375 54.6499 35.6375 56.6899 36.1775C57.2299 36.2975 56.6898 36.6575 56.1498 36.5975Z" fill="#252525"/>
<path d="M50.8699 27.7176C51.2899 27.0576 52.55 26.8776 53.45 26.9976C53.99 27.0576 54.05 27.6576 53.51 27.7176C53.21 27.7176 51.1099 27.8976 50.8699 27.7176Z" fill="#252525"/>
<path d="M57.8901 39.1176C57.7701 39.1776 57.3501 38.8776 57.8901 38.6376C59.0901 37.9776 59.3301 36.5376 59.5101 36.5376C59.9301 36.5376 59.5101 38.9376 57.8901 39.1176Z" fill="#252525"/>
<path d="M62.5698 32.3977C62.5698 32.7577 62.2698 32.2177 60.3498 32.1577C59.8696 32.1577 59.9297 31.7976 60.2898 31.6776C61.3098 31.4376 62.5098 31.9177 62.5698 32.3977Z" fill="#252525"/>
<path d="M51.1098 32.2176C50.9298 31.4976 53.6899 30.9575 53.6899 31.6775C53.6299 32.1575 52.6698 31.6776 51.1098 32.2176Z" fill="#252525"/>
<path d="M56.9899 86.1577C56.9899 72.5377 67.5498 49.9176 68.5698 50.3376C68.9898 50.5176 65.2098 57.6576 62.9898 63.7177C57.5899 78.5377 57.5899 86.4577 57.0499 86.4577C56.9299 86.3977 56.9299 86.2777 56.9899 86.1577Z" fill="#252525"/>
<path d="M28.85 5.6976C22.67 9.89763 22.91 18.4776 30.35 21.7776C36.65 24.5376 44.21 20.0376 44.15 13.3176C44.15 5.15761 34.67 1.6776 28.85 5.6976ZM36.5901 9.89763C36.4102 13.7976 36.65 17.2176 35.87 19.4976C35.21 21.3576 32.1501 22.3776 32.2101 15.2376C32.2101 14.2176 32.5101 8.87763 32.5101 8.81763C32.5101 8.69763 32.5101 8.51757 32.6902 8.57757C32.9902 8.57757 32.93 8.69763 32.75 13.3176C32.75 13.7976 32.7501 13.4976 35.6301 13.5576C36.1101 13.5576 35.93 13.6176 36.17 8.93757C36.17 8.75757 36.17 8.57757 36.35 8.57757C36.65 8.51757 36.6502 8.69763 36.5901 9.89763ZM36.8902 8.15763C36.6502 8.15763 31.7902 8.39757 31.7902 7.97757C31.7902 7.79757 31.9701 7.79757 32.0901 7.73757C37.1902 7.55757 37.3101 7.61763 37.3101 7.91763C37.3101 8.21763 37.0702 8.15763 36.8902 8.15763Z" fill="#644DF6"/>
<path d="M33.6503 14.7577C33.6503 14.5777 33.6503 14.2777 33.4103 14.2777C32.2703 14.2177 33.8303 22.4377 33.6503 14.7577Z" fill="#644DF6"/>
<path d="M33.5901 18.7177C33.2301 18.7777 33.4701 19.8576 33.8901 19.6776C34.3101 19.4976 33.9501 18.6577 33.5901 18.7177Z" fill="#644DF6"/>
<path d="M98.2104 14.4576C88.9704 17.8776 90.4704 31.1976 101.03 31.6776C105.35 31.6176 108.59 29.3976 110.03 25.9176C112.85 18.6576 105.53 11.7576 98.2104 14.4576ZM107.09 22.5576C106.31 24.3576 105.29 26.0376 104.03 27.5976C102.71 29.1576 102.47 30.1776 101.51 29.3976C99.9504 28.0776 95.6298 24.5376 95.1498 22.2576C94.6098 19.6176 96.1704 18.1176 98.6304 18.0576C100.37 17.9976 100.91 19.6176 101.27 19.0776C102.77 16.7376 106.43 17.1576 107.21 19.3776C107.51 20.4576 107.51 21.4776 107.09 22.5576Z" fill="#644DF6"/>
<path d="M97.4298 19.9176C97.1298 19.7376 96.7698 20.1576 96.7098 20.5176C96.0498 23.0376 98.2098 24.2976 99.3498 25.5576C99.4098 25.3776 99.5298 25.3776 98.2698 23.6376C96.7098 21.5976 97.7898 20.0976 97.4298 19.9176Z" fill="#644DF6"/>
<path d="M99.2904 19.2576C98.1504 18.5376 97.7298 19.9176 98.8698 19.7376C99.6498 19.7376 99.5904 19.4376 99.2904 19.2576Z" fill="#644DF6"/>
<path d="M9.77003 28.0175C5.93005 33.1775 9.71003 40.2575 17.57 39.3575C21.23 38.2775 23.39 36.4175 23.87 32.3975C23.75 24.5975 13.73 22.6175 9.77003 28.0175ZM21.2301 33.0575C18.2901 36.1775 13.0101 35.3975 10.7301 32.8775C9.77009 31.7975 15.8302 27.1175 21.1102 31.3175C22.1902 32.2175 21.9501 32.3375 21.2301 33.0575Z" fill="#644DF6"/>
<path d="M20.8699 32.1576C20.1499 31.6776 19.37 31.2576 18.59 30.9576C17.03 30.3576 18.59 31.5576 17.39 34.1976C18.41 34.1976 19.97 33.3576 20.93 32.5176C20.99 32.3976 21.0499 32.2776 20.8699 32.1576Z" fill="#644DF6"/>
<path d="M14.4502 30.8375C14.5702 30.1175 11.9902 31.8575 11.4502 32.2775C10.9102 32.6975 13.6102 33.8975 14.5702 34.1375C15.2302 34.3175 14.0902 33.6575 14.4502 30.8375Z" fill="#644DF6"/>
<path d="M15.2903 31.0775C14.4503 30.9575 15.2302 33.4175 15.3502 32.6975C15.5302 31.8575 15.7703 31.1375 15.2903 31.0775Z" fill="#644DF6"/>
<path d="M108.95 39.5376C102.77 39.8976 99.2304 45.7177 104.03 51.1177C104.75 51.4777 104.93 52.0176 107.69 52.5576C117.47 52.9776 118.01 40.2576 108.95 39.5376ZM106.37 46.3177C104.45 45.8977 105.59 43.5576 106.67 41.9376C106.79 41.7576 106.97 41.6376 107.15 41.9376C108.53 44.0976 108.65 46.8577 106.37 46.3177ZM109.85 50.2177C107.39 50.2177 108.05 46.7376 109.67 44.6376C110.15 44.0976 110.21 44.6376 110.99 46.1976C111.95 48.1776 111.95 50.1577 109.85 50.2177Z" fill="#644DF6"/>
<path d="M108.89 47.8776C108.89 48.1176 108.95 48.7776 109.19 48.7176C109.31 48.7176 109.13 48.6576 109.85 46.4376C110.03 45.9576 109.01 45.4776 108.89 47.8776Z" fill="#644DF6"/>
<path d="M106.61 43.0177C106.31 42.9577 106.13 43.9177 106.31 43.9777C106.37 44.0977 106.97 43.1377 106.61 43.0177Z" fill="#644DF6"/>
<path d="M81.1104 7.01752C76.5504 6.71752 73.1304 10.3175 73.1904 14.2175C73.3704 22.8575 86.8104 21.8975 87.0504 13.3775C87.1104 9.77752 84.3504 7.19752 81.1104 7.01752ZM83.5704 12.5975C82.6104 18.1175 76.4904 20.3975 76.4904 15.4775C77.3304 7.97752 84.4704 7.37752 83.5704 12.5975Z" fill="#644DF6"/>
<path d="M78.1104 13.1375C77.9304 13.0175 77.8104 13.0175 77.7504 13.2575C76.0104 17.8175 79.3104 19.1975 81.8304 14.9975C82.0704 14.5775 81.5304 14.8775 78.1104 13.1375Z" fill="#644DF6"/>
<path d="M79.3104 12.4176C81.1704 10.3176 81.8304 10.5576 81.7104 10.2576C81.4704 9.71756 78.6498 11.0976 78.6498 12.4176C78.6498 12.7176 78.9504 12.8376 79.3104 12.4176Z" fill="#644DF6"/>
<path d="M5.03011 49.6776C3.11011 52.7976 4.73008 57.0576 9.65009 57.2976C11.3901 57.3576 14.3901 56.2176 15.0501 53.0376C16.2501 47.5176 8.0901 44.8176 5.03011 49.6776ZM7.79015 53.8776C6.77015 53.0976 6.83016 52.1976 7.01016 51.0576C7.25016 49.5576 8.8701 48.8976 9.9501 50.2776C11.4501 52.2576 9.47016 55.1976 7.79015 53.8776ZM12.47 53.8776C10.19 53.9376 11.4502 53.3976 11.8102 52.7976C11.9902 52.4976 11.7502 52.4976 11.3902 52.4976C11.0902 52.4976 11.0301 52.1976 11.3301 52.1376C11.6901 52.0176 12.1102 52.0176 12.2902 52.3176C12.5902 52.8576 11.9301 53.0976 11.9301 53.3976H12.47C12.89 53.4576 12.89 53.8776 12.47 53.8776Z" fill="#644DF6"/>
<path d="M7.73022 50.6976C7.25022 51.3576 7.19016 52.8576 8.27016 53.6376C9.11016 54.2376 9.83028 53.0976 9.89028 52.0176C9.95028 50.5176 8.57022 49.4976 7.73022 50.6976Z" fill="#644DF6"/>
</svg>
