<svg width="120" height="120" viewBox="0 0 120 120" fill="none" xmlns="http://www.w3.org/2000/svg">
<path fill-rule="evenodd" clip-rule="evenodd" d="M63.3292 73.1062C67.5157 73.1006 71.6799 73.0944 75.7346 73.0881L75.7228 72.5032C71.6283 72.5116 67.4244 72.5206 63.1982 72.5304C63.2441 72.72 63.2881 72.9118 63.3292 73.1062ZM51.5463 72.559C27.3602 72.6203 5.1228 72.6928 1.69626 72.7333C1.09254 72.7402 0.994922 73.1223 1.65306 73.1341C3.52308 73.1662 26.462 73.1522 51.5232 73.1216C51.5256 72.9334 51.5333 72.7451 51.5463 72.559ZM118.465 72.9919C118.332 73.0052 110.079 73.0268 98.0139 73.0498C98.0272 72.8615 98.0404 72.6656 98.053 72.4628C108.828 72.4481 116.6 72.4453 118.352 72.4634C119.021 72.4704 118.839 72.9536 118.465 72.9912V72.9919Z" fill="#252525"/>
<path fill-rule="evenodd" clip-rule="evenodd" d="M94.7205 14.4035C95.7614 14.4035 95.845 14.4879 95.8736 15.5566H95.8743C95.9656 18.9383 95.9371 28.7551 95.8827 38.164C95.5362 38.1687 95.1737 38.1737 94.7986 38.1792C94.8313 34.3192 94.8627 31.1107 94.8885 28.4437C95.0161 15.3927 95.0168 15.3085 94.4667 15.3175C79.7064 15.5625 64.7724 15.5186 52.2955 15.4821C34.3787 15.4295 21.5273 15.3918 21.5285 16.2454V57.1795C21.5285 57.6883 21.5285 57.9421 21.6554 58.0684C21.7845 58.1967 22.0447 58.1932 22.5694 58.1918H22.5687C32.0195 58.1666 40.2277 58.1452 47.3597 58.1266C59.5883 58.0947 68.6528 58.071 75.3929 58.0511C75.4006 58.4082 75.409 58.7677 75.4174 59.1297C53.4841 59.2524 21.5987 59.0783 21.2204 59.0353C20.3903 58.9405 20.3927 58.6092 20.4124 55.9581C20.4147 55.648 20.4172 55.3061 20.4187 54.9291L20.4187 54.9037C20.4208 53.9055 20.4848 23.6752 20.6013 15.7532C20.6047 15.517 20.6068 15.3256 20.683 15.1707C21.1969 14.1266 25.0805 14.741 55.4603 14.4879C66.5125 14.3959 77.5744 14.3991 88.6377 14.4023C90.6651 14.4029 92.6932 14.4035 94.7205 14.4035Z" fill="#644DF6"/>
<path d="M29.1925 47.3501C29.1353 43.7785 29.0789 45.5786 29.1221 27.2843C29.136 21.4908 29.0795 21.7418 30.2048 21.6874C33.8886 21.511 57.358 21.4762 58.905 21.4622C60.5642 21.4476 60.6068 21.3353 60.6068 23.164V45.5221C60.6068 48.0389 60.7755 48.1058 59.7493 48.1093C29.1785 48.2215 29.2155 48.7423 29.1932 47.3501H29.1925ZM59.7764 22.6997C59.7779 21.6449 59.7764 22.4884 30.4858 22.3901C29.6422 22.3874 30.0075 22.8398 30.0075 24.2321C30.0145 45.8728 30.0179 44.818 29.9231 47.1388C29.8939 47.8562 28.1935 47.378 59.1434 47.378C60.3105 47.378 59.7409 47.3919 59.7764 22.6997Z" fill="#644DF6"/>
<path d="M42.3403 31.4889C43.409 32.0794 42.5829 31.4889 47.8807 34.8639C48.5158 35.2682 48.5158 35.5283 47.8667 35.9048C41.153 39.7949 41.9045 39.392 41.9045 36.0031C41.9045 31.6158 41.7923 31.5454 42.3403 31.4889Z" fill="#644DF6"/>
<path fill-rule="evenodd" clip-rule="evenodd" d="M82.852 38.4209C85.9878 38.3553 97.2652 38.1678 99.22 38.1678L99.2186 38.1685C100.27 38.1685 100.101 38.5464 99.3002 40.3414C99.2647 40.4204 99.2284 40.5022 99.1907 40.5869C99.1126 40.7616 98.9927 44.8988 98.8366 50.2994C98.6595 56.4193 98.435 64.1616 98.1715 69.5981C97.8835 69.2642 97.588 68.9672 97.2868 68.7043C97.6256 59.695 98.1512 45.8273 98.4748 41.4584V41.4577C98.4873 41.2913 98.5075 41.1651 98.4622 41.0704C98.198 40.5166 95.6903 41.0336 76.201 40.8533C76.0957 40.8524 76.0135 40.8005 75.9514 40.8186C75.6251 40.9146 75.874 42.9661 76.3697 64.8288C76.5712 73.7016 76.3147 75.0994 76.712 75.3197C76.7873 75.3616 76.8863 75.3609 77.0167 75.3609C81.2206 75.3595 84.5412 75.3665 87.1646 75.3755C87.1437 75.6537 87.1304 75.9332 87.1256 76.2114C82.6944 76.1821 78.2904 76.1494 77.1979 76.1208C75.7513 76.0831 75.7513 76.0657 75.722 74.6504L75.7213 74.6024C75.6404 70.6606 75.5498 66.753 75.4627 63.0266C75.2494 53.8574 75.0611 45.7838 75.1169 40.9948C75.1218 40.5964 74.8394 40.1852 74.5871 39.8174C74.1443 39.1728 73.7937 38.6621 75.2438 38.5903C75.6209 38.5715 75.9368 38.5662 76.1982 38.5618C77.108 38.5463 77.3653 38.542 77.283 38.0276C77.1931 37.4665 77.4092 37.3117 77.9718 37.3388C79.1953 37.3974 79.1967 37.3675 79.2092 36.1579C79.2127 35.8471 79.2113 35.5481 79.2107 35.2657C79.2065 34.1933 79.2037 33.3617 79.4484 33.0499C81.6619 30.2305 81.8508 29.9917 81.8452 29.7571C81.8446 29.7309 81.8417 29.7047 81.839 29.6749C81.7421 28.6766 82.8945 27.9864 83.4139 28.4235C83.9632 28.8864 83.4564 30.1894 82.4155 30.2375C82.3618 30.24 82.32 30.2417 82.2796 30.2518C82.0439 30.3106 81.8801 30.6544 80.011 33.0917C79.7335 33.4538 79.7342 33.5839 79.7405 34.7348C79.7433 35.2302 79.7468 35.9149 79.73 36.8885C79.7237 37.2538 79.829 37.3528 80.1944 37.3103C80.4537 37.2796 80.7179 37.2777 80.9836 37.2758C81.2074 37.2742 81.4318 37.2725 81.657 37.2538C82.2398 37.2053 82.2064 37.4752 82.1701 37.7675C82.1297 38.0886 82.0865 38.4369 82.852 38.4209ZM98.6128 40.2121C98.6316 40.1833 98.6435 40.1491 98.6574 40.1087C98.7647 39.8026 98.8937 39.5041 99.0346 39.1774C99.0806 39.0695 99.1287 38.9586 99.1775 38.8433C77.946 39.1269 75.1336 38.9393 75.0716 39.2699C75.0548 39.3596 75.2396 39.4874 75.3149 39.6729C75.3721 39.814 75.4132 39.9268 75.4843 40.0165C75.8998 40.5443 77.3248 40.277 88.8985 40.2914C97.657 40.3026 98.4434 40.4644 98.6128 40.2121Z" fill="#252525"/>
<path fill-rule="evenodd" clip-rule="evenodd" d="M79.7454 45.2975L93.6099 45.0863L93.6106 45.0869C94.5671 45.073 94.6145 45.1016 94.5811 46.0435C94.1983 56.7993 93.9592 63.2406 93.8058 67.1008C93.6224 67.082 93.4398 67.0722 93.2593 67.0715C93.4377 60.8075 93.7396 51.0061 94.2004 46.0003V45.9995C94.2346 45.6343 94.1168 45.6258 93.8351 45.6342C88.5359 45.7946 81.39 45.7848 79.8716 45.7325C79.6882 45.7263 79.5557 45.685 79.4651 45.7291C79.0489 45.9318 79.5097 47.9359 79.9141 63.4086C80.1121 71.0042 79.9134 72.28 80.2919 72.4843C80.3686 72.5261 80.4697 72.5234 80.6029 72.5206C81.5029 72.5011 84.6653 72.5282 87.6199 72.5548C87.5843 72.7004 87.5501 72.8482 87.5167 72.9982C86.8076 72.989 86.0777 72.9786 85.3541 72.9674C83.4641 72.9395 81.6145 72.9131 80.2661 72.9152C80.1713 72.9152 80.087 72.9158 80.011 72.89C79.3215 72.6593 79.3494 70.2868 78.8879 46.0149C78.8746 45.3394 78.8879 45.3115 79.7454 45.2975Z" fill="#252525"/>
<path d="M44.0979 105.397C43.2962 105.397 43.1951 105.355 43.1414 104.567C42.3494 92.829 44.8425 90.9579 53.2378 90.6037C55.3048 90.5165 64.1212 90.4524 66.9057 90.8149C70.1816 91.2409 72.0243 91.4619 73.4584 94.1473C75.103 97.2267 74.8115 99.4207 74.7662 104.469C74.7557 105.608 74.7802 105.397 44.0979 105.397ZM51.2696 93.0228C46.1232 93.262 46.2779 100.265 47.1076 100.335C47.7824 100.391 47.8403 94.5329 51.7758 94.2742C53.5619 94.1564 53.0976 93.0933 51.2696 93.0228Z" fill="#644DF6"/>
<path d="M64.3052 67.5994C63.9957 70.0743 62.3183 69.8505 62.6321 70.7212C63.7552 73.8348 64.5277 79.1256 61.732 80.8315C61.0425 81.2527 60.961 81.9847 60.9442 82.702C60.9198 83.7708 60.9303 83.7694 61.9286 84.0099C67.9765 85.4656 71.8681 90.7432 71.4059 91.1392C70.982 91.5023 69.3959 89.0567 67.4125 87.4972C55.9873 78.517 46.4591 91.6188 45.6448 90.9C45.2788 90.5772 46.3336 89.6061 46.8683 89.086C52.4492 83.6564 56.027 84.7545 55.9385 83.6439C55.6715 80.3101 55.8137 80.66 55.3201 80.3672C49.0721 76.6715 51.4111 66.5508 55.8827 66.5027C57.4437 66.4859 57.7797 64.621 60.7622 64.2669C62.8426 64.0201 64.3478 65.0547 64.306 67.5994H64.3052ZM58.8631 83.7283C60.2693 83.7387 60.4973 83.9249 60.3962 83.1943C59.9723 80.1413 62.2912 80.6063 62.7729 78.526C63.3592 75.9939 62.9876 73.5106 62.2528 71.0733C62.1719 70.8049 62.0416 70.8481 61.8449 70.9325C60.65 71.5655 61.4671 72.718 61.5779 73.3231C61.7501 74.2649 60.8473 73.5887 60.4247 73.4918C59.5533 73.2917 59.3678 73.9017 59.8064 74.4058C61.205 76.0155 61.5222 79.4539 59.6377 80.4383C57.0784 81.7748 56.1804 80.0444 56.3756 81.3384C56.8867 84.7266 55.7851 83.7067 58.8645 83.729L58.8631 83.7283Z" fill="#252525"/>
<path d="M8.04396 105.059C7.97358 104.765 7.4667 99.7442 8.07186 97.1571C9.47664 91.1523 11.8965 90.2976 28.5176 90.7027C38.4028 90.9432 39.7511 93.2194 39.5984 104.371C39.5845 105.412 39.7253 105.449 35.6468 105.467C8.0433 105.592 8.22522 105.819 8.04396 105.059ZM11.9251 100.419C12.2339 100.45 12.0959 100.294 12.9513 97.818C14.5304 93.2494 17.6035 94.9066 17.7464 93.909C17.8433 93.2341 14.9919 92.4345 13.0078 94.4716C11.2942 96.2305 11.1791 100.344 11.9251 100.42V100.419Z" fill="#644DF6"/>
<path d="M22.3589 83.1796C21.1918 83.798 19.1498 83.8315 18.6046 82.0405C18.5321 81.802 18.4081 81.7978 18.2107 81.7874C16.6233 81.7023 15.802 80.3226 16.5515 78.9332C16.8171 78.4403 15.802 78.5372 15.9045 77.1896C15.915 77.0487 16.0175 76.8919 15.7219 76.8522C13.7412 76.5844 13.2023 74.8827 13.6547 73.4911C14.8581 69.7906 18.5203 70.1301 19.2934 71.3257C20.3483 69.9195 21.6185 69.5737 23.1606 70.4117C24.1339 70.9409 25.1636 69.702 26.7887 71.2692C27.2969 71.7594 27.7905 72.2529 27.9139 73.0129C28.16 74.5306 27.1958 74.4198 27.7591 75.0799C28.335 75.7555 28.9394 76.4025 29.615 76.9783C30.8371 78.0199 29.6896 77.7243 29.4742 79.4533C29.3361 80.5645 29.8673 82.4894 27.0131 83.6014C26.4366 83.8259 26.8661 84.5419 26.7176 85.1059C26.6144 85.4984 28.0547 85.0194 32.3423 87.2713C36.9701 89.7016 37.2274 91.7638 36.3356 91.0959C35.3297 90.3423 34.0169 88.0542 28.1656 86.2729C18.0713 83.1999 13.4456 90.755 13.021 90.435C12.5874 90.1081 15.0596 87.9308 16.0726 87.2574C19.7933 84.7824 22.2146 85.009 22.2146 85.009C22.2146 85.009 22.3777 84.18 22.3582 83.1789L22.3589 83.1796ZM24.6512 83.4187C25.8043 83.3205 28.8823 83.3908 28.9959 80.2264C29.0377 79.0733 29.0656 78.4542 29.4177 78.1314C30.232 77.3848 28.1014 77.1791 26.7601 74.2503C26.4066 73.4779 24.7795 73.1809 25.1148 74.2503C25.8782 76.6821 22.8525 75.9089 23.3572 78.061C23.809 79.9873 20.952 79.2559 20.8823 79.8472C20.7826 80.6907 22.612 79.7628 22.8929 81.7316C23.5538 86.358 20.9945 84.4456 26.3662 85.177C26.2818 83.8977 26.3794 83.6907 25.8461 83.7429C25.4801 83.7785 25.0729 83.7855 24.6512 83.4195V83.4187Z" fill="#252525"/>
<path d="M26.2958 75.2348C26.7036 75.2208 26.7448 75.5958 26.408 75.6844C25.547 75.9117 25.5073 76.7274 25.2688 76.6688C24.8882 76.5747 25.4097 75.2061 26.2951 75.2347L26.2958 75.2348Z" fill="#252525"/>
<path d="M26.901 79.8472C27.0118 79.7189 27.1255 79.8053 27.2245 79.8897C27.3709 80.0144 27.8345 80.2299 28.0157 80.2153C28.1308 80.2062 28.2465 80.1943 28.2368 80.3533C28.1273 81.0449 26.5015 80.3093 26.901 79.8472Z" fill="#252525"/>
<path d="M26.521 77.4426C26.1557 77.3861 26.0421 76.5321 26.4931 76.6129C26.9003 76.6861 27.168 77.4851 26.521 77.4426Z" fill="#252525"/>
<path d="M79.548 105.144C77.7765 105.073 77.9035 105.087 77.9306 103.541C78.144 91.6592 77.9306 89.857 98.5172 90.3932C107.672 90.6316 110.187 92.2072 109.569 104.272C109.499 105.651 109.654 105.257 98.2921 105.257C98.2921 105.257 83.3867 105.298 79.548 105.144V105.144ZM101.33 92.9099C99.4313 92.9371 99.4173 94.008 100.556 94.063C105.028 94.2791 104.817 100.222 105.591 100.137C106.491 100.039 106.546 92.836 101.33 92.9099H101.33Z" fill="#644DF6"/>
<path d="M99.1642 83.6439C99.1642 86.6389 99.9095 86.0554 95.3814 86.245C95.0579 86.2582 95.0879 86.0623 95.0858 85.8651C95.0789 85.2041 95.0015 83.3901 94.5658 82.8414C94.2987 86.2868 94.4953 86.2994 93.7926 86.2582C89.7713 86.0254 91.0367 86.5113 90.8115 83.8398C90.0098 85.1895 90.3751 86.0909 89.7706 85.8085C88.6022 85.2627 87.997 85.4962 86.8879 86.1042C80.9591 89.3509 80.522 91.823 79.9978 91.335C79.8304 91.1788 80.0661 91.0101 80.1526 90.8707C83.577 85.3714 87.6764 85.7807 87.7175 84.2901C87.7747 82.251 88.423 81.2094 88.1818 80.8308C86.3713 77.9934 87.1995 73.1118 88.3226 70.3831C90.5619 64.9424 101.622 64.1832 102.384 84.3466C102.398 84.698 102.3 84.8527 101.864 85.1763C104.522 86.878 106.788 90.3255 106.378 90.5898C105.874 90.916 105.697 89.0755 101.752 85.879C101.317 85.5262 100.963 85.4384 100.444 85.6399C99.2026 86.1216 100.135 85.0068 99.1649 83.6432L99.1642 83.6439ZM88.5338 80.3532C89.6444 77.6113 89.6577 77.3422 90.3053 76.9504C92.6911 75.5086 91.8524 74.0397 90.2489 74.5737C89.1523 74.9391 89.839 73.9979 89.4472 72.7458C89.3195 72.3379 89.1397 71.9817 88.6879 71.8318C88.3379 71.7154 88.1636 71.7468 88.1253 72.1692C87.8263 75.4849 87.2818 77.4984 88.5332 80.3533L88.5338 80.3532Z" fill="#252525"/>
</svg>
