<svg width="120" height="120" viewBox="0 0 120 120" fill="none" xmlns="http://www.w3.org/2000/svg">
<path d="M72.72 52.8516C73.236 52.962 73.98 53.118 73.92 53.4426C73.8894 53.7582 73.4622 53.6934 72.8652 53.6586C72.5004 53.6358 72.3426 53.6034 72.1572 53.58C72.099 53.5732 72.043 53.5539 71.993 53.5236C71.9429 53.4932 71.9 53.4524 71.8671 53.404C71.8342 53.3555 71.8121 53.3006 71.8023 53.2429C71.7925 53.1851 71.7953 53.126 71.8104 53.0694C72.0989 51.8225 72.4954 50.6031 72.9954 49.425C73.0554 49.3122 73.5546 48.345 73.8912 48.5172C74.2998 48.7494 73.5126 49.7952 72.72 52.8516Z" fill="#252525"/>
<path d="M76.3326 48.693C77.3154 48.3234 77.9814 49.422 78.3258 49.1544C78.6198 48.9528 78.2256 47.916 76.9392 47.7858C75.6906 47.6598 75.0996 48.7566 75.4392 48.9948C75.6192 49.1238 75.6222 49.023 76.3326 48.693Z" fill="#252525"/>
<path d="M72.432 55.6284C72.4866 56.1297 72.6232 56.6186 72.8364 57.0756C72.9713 57.3327 73.1649 57.5543 73.4015 57.7226C73.6381 57.8908 73.911 58.0009 74.1981 58.0439C74.4852 58.0868 74.7784 58.0615 75.0539 57.9699C75.3294 57.8782 75.5794 57.7229 75.7836 57.5166C76.108 57.1423 76.3446 56.7002 76.4761 56.2226C76.6076 55.7451 76.6308 55.2442 76.5438 54.7566C75.1488 54.96 73.8 55.3116 72.432 55.6284Z" fill="#644DF6"/>
<path d="M76.26 54.5087C76.2713 54.4523 76.3017 54.4015 76.346 54.3648C76.3903 54.3282 76.4459 54.3078 76.5035 54.3073C76.561 54.3067 76.617 54.3259 76.662 54.3617C76.707 54.3976 76.7384 54.4478 76.7508 54.5039C77.3712 56.5079 76.2 58.7351 74.136 58.4579C73.0272 58.3097 72.4524 57.5387 72.171 56.4779C72.0951 56.2166 72.0421 55.9492 72.0126 55.6787C72.0018 55.5773 72.028 55.4753 72.0863 55.3915C72.1446 55.3078 72.2311 55.2479 72.33 55.2227C73.6169 54.8714 74.9318 54.6325 76.26 54.5087ZM76.2888 55.0919C75.3408 55.3205 75.4728 55.3319 72.9078 55.9427C72.925 56.0494 72.9493 56.1549 72.9804 56.2583C73.1652 56.9669 73.4754 57.5225 74.2518 57.6287C75.5712 57.8117 76.2288 56.4059 76.2894 55.0919H76.2888Z" fill="#252525"/>
<path d="M46.8342 88.8258C44.8956 88.2372 42.6156 89.1528 42.6156 91.1658C42.5747 91.1913 42.5414 91.2274 42.5193 91.2703C42.4972 91.3131 42.4871 91.3612 42.49 91.4093C42.493 91.4574 42.5089 91.5039 42.5361 91.5437C42.5632 91.5835 42.6007 91.6153 42.6444 91.6356C43.1814 91.9815 43.8255 92.1214 44.4575 92.0293C45.0896 91.9372 45.667 91.6194 46.083 91.1346C46.511 90.6145 46.8524 90.0288 47.094 89.4C47.1178 89.3456 47.1299 89.2868 47.1296 89.2273C47.1292 89.1679 47.1163 89.1093 47.0918 89.0551C47.0674 89.001 47.0318 88.9526 46.9874 88.9131C46.943 88.8736 46.8908 88.8439 46.8342 88.8258Z" fill="#644DF6"/>
<path d="M44.0208 93.7956C43.9914 93.7553 43.9519 93.7234 43.9063 93.7032C43.8607 93.683 43.8106 93.6751 43.761 93.6804C43.7273 93.6659 43.691 93.6588 43.6543 93.6596C43.6177 93.6605 43.5817 93.6693 43.5488 93.6853C43.5158 93.7014 43.4867 93.7244 43.4635 93.7527C43.4403 93.7811 43.4235 93.8141 43.4142 93.8496C43.3045 94.162 43.0763 94.4187 42.7788 94.5642C42.5568 94.6958 42.2941 94.741 42.0409 94.6911C41.7877 94.6413 41.5617 94.4999 41.4062 94.2939C41.2507 94.088 41.1765 93.832 41.1978 93.5748C41.2191 93.3176 41.3345 93.0773 41.5218 92.8998C41.5977 92.8384 41.68 92.7853 41.7672 92.7414C41.8442 92.7013 41.9066 92.638 41.9454 92.5604C41.9843 92.4829 41.9978 92.395 41.9838 92.3094C41.895 91.7736 41.0628 91.9602 40.5684 92.0556C38.3238 92.5212 36.9798 95.586 38.502 97.5756C38.8188 97.9644 39.2187 98.2774 39.6722 98.4916C40.1258 98.7058 40.6215 98.8157 41.1231 98.8133C41.6247 98.8109 42.1194 98.6962 42.5708 98.4776C43.0223 98.2591 43.4191 97.9423 43.7322 97.5504C44.1945 97.0476 44.4744 96.404 44.5267 95.7229C44.5791 95.0419 44.4009 94.3631 44.0208 93.7956Z" fill="#644DF6"/>
<path d="M53.8284 37.5072C53.6489 37.4203 53.4947 37.2887 53.3808 37.125C53.2979 37.0043 53.2511 36.8625 53.2459 36.7161C53.2407 36.5698 53.2773 36.425 53.3514 36.2988C53.4379 36.1517 53.5549 36.0248 53.6943 35.9265C53.8338 35.8282 53.9926 35.7608 54.1602 35.7288C54.1752 35.7288 54.1752 35.7252 54.1752 35.7252V35.748C55.2135 35.4581 56.3005 35.3866 57.3678 35.538C57.5235 35.5682 57.6688 35.6381 57.7897 35.7407C57.9106 35.8434 58.0031 35.9754 58.0583 36.1242C58.1134 36.2729 58.1293 36.4333 58.1046 36.59C58.0798 36.7466 58.0151 36.8943 57.9168 37.0188C58.0747 37.2144 58.1567 37.4605 58.1478 37.7118C58.0482 39.0498 55.983 39.204 54.7242 38.8362C54.578 38.8079 54.4388 38.7511 54.3146 38.669C54.1905 38.5869 54.0837 38.481 54.0005 38.3576C53.9173 38.2341 53.8592 38.0955 53.8297 37.9495C53.8002 37.8036 53.7997 37.6533 53.8284 37.5072ZM54.276 36.2412C54.276 36.3204 54.2814 36.1746 54.0018 36.4566C53.7702 36.7464 54.1938 36.8688 54.5652 36.8718C54.6524 36.876 54.7358 36.9083 54.8032 36.9637C54.8706 37.0191 54.9184 37.0947 54.9395 37.1794C54.9606 37.2641 54.9538 37.3533 54.9202 37.4338C54.8866 37.5144 54.828 37.582 54.753 37.6266C54.6516 37.683 54.5796 37.7262 54.6084 37.7916C54.7968 38.3052 57.2328 38.3268 57.3084 37.6716C57.3084 37.5666 57.2214 37.4796 57.0912 37.4244C57.0149 37.3924 56.9498 37.3385 56.9039 37.2696C56.8581 37.2007 56.8337 37.1198 56.8337 37.0371C56.8337 36.9543 56.8581 36.8734 56.9039 36.8045C56.9498 36.7356 57.0149 36.6818 57.0912 36.6498C57.1926 36.6072 57.2796 36.5298 57.2796 36.4434C57.2814 36.1434 54.6516 36.231 54.276 36.24V36.2412Z" fill="#252525"/>
<path d="M54.9078 40.023C54.9619 40.1004 55.0252 40.1709 55.0962 40.233C55.5923 40.438 56.1449 40.4607 56.6562 40.2972C56.7764 40.2444 56.8884 40.1745 56.9886 40.0896C57.0245 40.0822 57.0585 40.0677 57.0887 40.0468C57.1188 40.026 57.1444 39.9992 57.164 39.9682C57.1836 39.9372 57.1967 39.9026 57.2025 39.8664C57.2084 39.8303 57.2069 39.7933 57.1981 39.7577C57.1894 39.7221 57.1735 39.6886 57.1515 39.6593C57.1295 39.63 57.1018 39.6054 57.0701 39.5871C57.0384 39.5687 57.0033 39.5569 56.9669 39.5525C56.9305 39.548 56.8936 39.5509 56.8584 39.561C56.7324 39.5214 56.6004 39.5042 56.4684 39.51C56.1579 39.559 55.8427 39.5707 55.5294 39.5448C55.3008 39.5088 55.2474 39.5814 55.1394 39.5814C55.0792 39.5506 55.0095 39.5444 54.9448 39.5639C54.8801 39.5835 54.8256 39.6274 54.7926 39.6864C54.7634 39.7464 54.7591 39.8154 54.7807 39.8785C54.8022 39.9416 54.848 39.9936 54.9078 40.023Z" fill="#252525"/>
<path d="M53.0736 35.4114C52.4113 34.8737 51.9194 34.1552 51.6576 33.3432C51.4157 32.6769 51.3267 31.9648 51.3972 31.2594C51.4574 30.6847 51.6368 30.1288 51.9238 29.6273C52.2109 29.1257 52.5994 28.6895 53.0645 28.3466C53.5296 28.0036 54.0611 27.7613 54.6251 27.6353C55.1891 27.5092 55.7731 27.5021 56.34 27.6144C57.2676 27.837 58.0935 28.3646 58.6853 29.1128C59.2771 29.8609 59.6004 30.7861 59.6034 31.74C59.5644 32.5225 59.287 33.2743 58.8084 33.8946C58.5427 34.275 58.2323 34.6221 57.8838 34.9284C57.832 34.9754 57.8004 35.0406 57.7956 35.1104C57.7907 35.1801 57.813 35.249 57.8577 35.3028C57.9025 35.3565 57.9662 35.3908 58.0357 35.3987C58.1052 35.4065 58.175 35.3872 58.2306 35.3448C59.3976 34.4214 60.3138 33.255 60.4122 31.7814C60.4301 30.6295 60.0528 29.5062 59.3432 28.5987C58.6336 27.6911 57.6344 27.0541 56.5122 26.7936C55.3791 26.5638 54.2014 26.7359 53.1815 27.2804C52.1616 27.8249 51.3633 28.7077 50.9239 29.7771C50.4845 30.8465 50.4314 32.0356 50.7738 33.1399C51.1162 34.2442 51.8327 35.1946 52.8 35.8278C52.8551 35.8594 52.9202 35.8687 52.982 35.8539C53.0438 35.8391 53.0976 35.8013 53.1325 35.7482C53.1674 35.6951 53.1807 35.6307 53.1698 35.5681C53.1588 35.5056 53.1244 35.4495 53.0736 35.4114Z" fill="#252525"/>
<path d="M55.4136 31.353L57.2628 29.9604C57.3301 29.9104 57.4107 29.8817 57.4945 29.8779C57.5782 29.8741 57.6612 29.8954 57.7327 29.9392C57.8042 29.9829 57.8609 30.0471 57.8957 30.1234C57.9304 30.1996 57.9415 30.2846 57.9276 30.3672C57.465 32.8962 57.879 30.9246 57.1332 34.3746C57.1288 34.4098 57.1174 34.4438 57.0996 34.4745C57.0819 34.5053 57.0582 34.5321 57.0299 34.5536C57.0016 34.575 56.9693 34.5905 56.9349 34.5993C56.9005 34.608 56.8647 34.6097 56.8296 34.6044C56.7935 34.601 56.7585 34.59 56.7268 34.5723C56.6951 34.5545 56.6675 34.5304 56.6457 34.5013C56.6239 34.4723 56.6084 34.4391 56.6002 34.4037C56.592 34.3684 56.5913 34.3317 56.598 34.296C56.6539 33.2784 56.7648 32.2645 56.9304 31.2588L55.7028 32.1822C55.6381 32.2337 55.5595 32.2647 55.4771 32.2712C55.3947 32.2777 55.3122 32.2595 55.2402 32.2188C54.8904 32.031 54.5466 31.839 54.2004 31.647C54.5286 33.5562 54.3414 32.1774 54.7056 34.6644C54.7199 34.729 54.7083 34.7966 54.6733 34.8526C54.6383 34.9087 54.5827 34.9489 54.5184 34.9644C54.4532 34.9786 54.385 34.9667 54.3283 34.9315C54.2716 34.8962 54.2309 34.8402 54.2148 34.7754C53.7422 33.529 53.4172 32.2316 53.2464 30.9096C53.2368 30.8328 53.2489 30.7549 53.2814 30.6847C53.314 30.6145 53.3656 30.5548 53.4304 30.5125C53.4952 30.4702 53.5706 30.447 53.648 30.4455C53.7254 30.444 53.8016 30.4643 53.868 30.504C54.3102 30.765 54.7134 30.981 55.4136 31.353Z" fill="#644DF6"/>
<path d="M46.8036 34.2774C47.3094 34.2204 47.8146 34.1694 48.3204 34.0866C48.6246 34.035 49.2312 33.8898 49.2018 33.5808C49.101 33.0588 47.5344 33.3366 47.0058 33.4098C46.6488 33.4572 45.4824 33.612 45.5754 34.0476C45.6108 34.38 46.473 34.314 46.8036 34.2774Z" fill="#644DF6"/>
<path d="M49.3602 28.4544C49.4526 28.5096 49.9122 28.6284 50.0538 28.4238C50.2404 28.1022 49.7652 27.7314 49.4472 27.5358C48.3348 26.8548 47.7486 27.6858 49.3602 28.4544Z" fill="#644DF6"/>
<path d="M54.5184 23.9484C54.5784 24.3684 54.6684 26.0964 55.1826 26.0328C55.6968 25.9692 55.3914 24.0942 55.3128 23.4774C55.269 23.1342 55.1268 21.7224 54.6624 21.7926C54.198 21.8628 54.4518 23.4672 54.5184 23.9484Z" fill="#644DF6"/>
<path d="M61.8426 26.7132C62.1426 26.4732 63.0426 25.8024 62.7378 25.4562C62.5548 25.2114 62.0514 25.53 61.7844 25.7088C61.2888 26.0568 59.592 27.228 59.979 27.6888C60.273 28.0368 61.434 27.036 61.8426 26.7132Z" fill="#644DF6"/>
<path d="M64.515 31.98C64.92 31.9356 65.955 31.8306 65.9166 31.4214C65.865 30.8916 63.9102 31.1928 63.273 31.2756C62.9569 31.3043 62.6431 31.3549 62.334 31.4268C62.1618 31.4754 61.479 31.6944 61.539 31.9734C61.632 32.4096 62.916 32.166 64.515 31.98Z" fill="#644DF6"/>
<path d="M70.1058 94.5558C70.2082 94.2371 70.3284 93.9244 70.4658 93.6192C70.7018 92.9122 71.1448 92.2924 71.7372 91.8402C72.0214 91.6703 72.3388 91.5638 72.6679 91.5279C72.997 91.492 73.3299 91.5275 73.644 91.632C73.71 91.665 73.7862 91.671 73.8565 91.6486C73.9268 91.6261 73.9856 91.5771 74.0202 91.512C74.051 91.4461 74.0545 91.3707 74.0302 91.3023C74.0058 91.2338 73.9555 91.1776 73.89 91.146C71.88 89.679 69.3636 92.2212 69.6138 94.5144C69.6083 94.5796 69.629 94.6443 69.6712 94.6944C69.7135 94.7444 69.7739 94.7756 69.8391 94.7811C69.9044 94.7865 69.9691 94.7659 70.0191 94.7236C70.0691 94.6814 70.1003 94.621 70.1058 94.5558Z" fill="#252525"/>
<path d="M72.7356 95.9796C72.819 95.724 73.0986 95.073 73.125 95.013C73.2948 94.4301 73.5843 93.8889 73.9749 93.424C74.3655 92.9592 74.8486 92.5808 75.3936 92.313C75.6555 92.1937 75.9325 92.1108 76.2168 92.0664C76.2889 92.0683 76.3588 92.0415 76.4111 91.9919C76.4634 91.9423 76.4939 91.8739 76.4958 91.8018C76.4977 91.7297 76.4709 91.6598 76.4213 91.6075C76.3717 91.5552 76.3033 91.5247 76.2312 91.5228C75.7772 91.4477 75.3115 91.4906 74.8789 91.6475C74.4463 91.8044 74.0613 92.0699 73.761 92.4186C73.2797 92.8635 72.8963 93.4036 72.6352 94.0047C72.3741 94.6058 72.2409 95.2547 72.2442 95.91C72.238 95.943 72.2386 95.9769 72.2459 96.0096C72.2531 96.0424 72.267 96.0733 72.2865 96.1006C72.3061 96.1279 72.331 96.1509 72.3597 96.1683C72.3884 96.1857 72.4203 96.197 72.4535 96.2018C72.4867 96.2065 72.5206 96.2044 72.553 96.1957C72.5854 96.1869 72.6157 96.1717 72.642 96.151C72.6684 96.1302 72.6903 96.1043 72.7063 96.0749C72.7224 96.0454 72.7324 96.013 72.7356 95.9796Z" fill="#252525"/>
<path d="M75.5088 96.3348C75.5658 96.2232 75.8214 95.823 75.8688 95.751C76.2673 95.0177 76.7905 94.3595 77.415 93.8058C77.9488 93.4085 78.5858 93.1733 79.2498 93.1284C79.3214 93.139 79.3944 93.1216 79.4535 93.0798C79.5126 93.038 79.5533 92.9751 79.5672 92.904C79.5748 92.8325 79.5553 92.7606 79.5126 92.7028C79.4698 92.6449 79.4068 92.6051 79.3362 92.5914C79.1033 92.5165 78.8608 92.476 78.6162 92.4714C77.3352 92.4384 75.2772 94.1226 75.0336 96.1806C75.0234 96.2117 75.0194 96.2444 75.0219 96.277C75.0243 96.3096 75.0332 96.3414 75.048 96.3705C75.0627 96.3997 75.0831 96.4256 75.1079 96.4469C75.1328 96.4681 75.1615 96.4843 75.1926 96.4944C75.2557 96.5141 75.324 96.5085 75.383 96.4787C75.4421 96.4489 75.4872 96.3973 75.5088 96.3348Z" fill="#252525"/>
<path d="M78.4998 97.7695C78.9306 97.0895 79.4237 96.4512 79.9728 95.8627C80.2839 95.5151 80.6719 95.245 81.1059 95.0739C81.5399 94.9029 82.0078 94.8356 82.4724 94.8775C83.7252 94.8931 86.2368 95.5459 88.8144 94.6375C89.7491 94.3243 90.5691 93.7393 91.1694 92.9575C91.2121 92.8999 91.2313 92.8283 91.2231 92.7571C91.215 92.6859 91.1801 92.6205 91.1256 92.5741C91.0987 92.5513 91.0675 92.5341 91.0339 92.5237C91.0002 92.5132 90.9648 92.5096 90.9298 92.5132C90.8947 92.5167 90.8607 92.5272 90.8298 92.5442C90.7989 92.5612 90.7718 92.5842 90.75 92.6119C89.9638 93.3431 88.9875 93.8382 87.933 94.0405C83.325 95.0929 80.5674 91.8565 78.066 97.5331C78.0505 97.5615 78.0407 97.5928 78.0373 97.6251C78.0338 97.6573 78.0368 97.6899 78.046 97.721C78.0551 97.7522 78.0703 97.7812 78.0907 97.8064C78.1111 97.8317 78.1362 97.8526 78.1647 97.8682C78.1932 97.8837 78.2245 97.8934 78.2567 97.8969C78.289 97.9003 78.3216 97.8974 78.3527 97.8882C78.3838 97.879 78.4128 97.8638 78.4381 97.8435C78.4633 97.8231 78.4843 97.7979 78.4998 97.7695Z" fill="#252525"/>
<path d="M78.1236 85.7346C78.6335 85.9974 79.1131 86.315 79.554 86.682C79.845 86.862 80.214 87.1734 80.4498 86.9526C80.643 86.7462 80.2398 86.2392 80.19 86.1774C79.7711 85.7409 79.2768 85.3837 78.7308 85.1232C78.3798 84.9678 77.727 84.8394 77.6328 85.1232C77.58 85.2882 77.6322 85.3926 78.1236 85.7346Z" fill="#252525"/>
<path d="M80.6664 84.3C81.6174 85.4004 81.9732 86.5446 82.4004 86.3454C83.0136 86.088 81.8604 84.3576 81.3312 83.8122C81.039 83.5122 80.4456 83.121 80.2476 83.3604C80.085 83.559 80.4852 84.12 80.6664 84.3Z" fill="#252525"/>
<path d="M77.445 78.1476C78.585 78.3276 78.5568 78.2454 80.8254 78.081C81.7268 78.103 82.6279 78.0253 83.5122 77.8494C83.5795 77.8384 83.6401 77.8024 83.6822 77.7487C83.7242 77.695 83.7445 77.6275 83.7391 77.5595C83.7336 77.4916 83.7028 77.4281 83.6528 77.3818C83.6028 77.3355 83.5372 77.3096 83.469 77.3094C82.5729 77.2046 81.669 77.1833 80.769 77.2458C79.6453 77.261 78.5264 77.397 77.4318 77.6514C77.3661 77.6543 77.3041 77.6822 77.2584 77.7294C77.2126 77.7766 77.1867 77.8395 77.1858 77.9052C77.1866 77.9383 77.1939 77.9708 77.2074 78.001C77.2209 78.0312 77.2403 78.0583 77.2645 78.0809C77.2886 78.1035 77.317 78.121 77.348 78.1325C77.379 78.1439 77.412 78.1491 77.445 78.1476Z" fill="#252525"/>
<path d="M67.5204 100.241C67.5194 101.318 67.6112 102.392 67.7946 103.453C67.9698 104.024 67.9644 104.272 68.2566 104.249C68.3281 104.242 68.394 104.207 68.4401 104.152C68.4861 104.097 68.5086 104.026 68.5026 103.955C68.5674 103.111 68.6226 103.859 68.4156 101.623C68.3196 100.588 68.3256 99.2778 67.9098 99.2658C67.62 99.2574 67.5204 100.076 67.5204 100.241Z" fill="#252525"/>
<path d="M76.5324 51.7075C76.7153 51.7191 76.8972 51.6295 77.0379 51.4585C77.1786 51.2875 77.2667 51.049 77.2827 50.7955C77.2988 50.5421 77.2415 50.2944 77.1235 50.107C77.0055 49.9196 76.8364 49.8078 76.6535 49.7962C76.5629 49.7904 76.4716 49.8095 76.3849 49.8522C76.2981 49.8949 76.2176 49.9605 76.148 50.0452C76.0783 50.1299 76.0208 50.232 75.9788 50.3457C75.9368 50.4595 75.9111 50.5826 75.9031 50.7081C75.8952 50.8336 75.9051 50.9591 75.9324 51.0772C75.9598 51.1953 76.0039 51.3039 76.0623 51.3967C76.1208 51.4895 76.1924 51.5647 76.273 51.6181C76.3537 51.6714 76.4418 51.7018 76.5324 51.7075Z" fill="#252525"/>
<path d="M70.968 76.9727C70.968 77.0864 70.9876 77.1989 71.0256 77.3038C71.0635 77.4088 71.1192 77.5042 71.1894 77.5845C71.2596 77.6649 71.343 77.7286 71.4347 77.7721C71.5264 77.8156 71.6247 77.8379 71.724 77.8379C71.8233 77.8379 71.9216 77.8156 72.0133 77.7721C72.105 77.7286 72.1884 77.6649 72.2586 77.5845C72.3288 77.5042 72.3845 77.4088 72.4225 77.3038C72.4604 77.1989 72.48 77.0864 72.48 76.9727C72.48 76.8591 72.4604 76.7466 72.4225 76.6416C72.3845 76.5367 72.3288 76.4413 72.2586 76.361C72.1884 76.2806 72.105 76.2169 72.0133 76.1734C71.9216 76.1299 71.8233 76.1075 71.724 76.1075C71.6247 76.1075 71.5264 76.1299 71.4347 76.1734C71.343 76.2169 71.2596 76.2806 71.1894 76.361C71.1192 76.4413 71.0635 76.5367 71.0256 76.6416C70.9876 76.7466 70.968 76.8591 70.968 76.9727Z" fill="#252525"/>
<path d="M70.2888 84.2472C70.2888 84.4766 70.3685 84.6967 70.5102 84.8589C70.652 85.0212 70.8443 85.1124 71.0448 85.1124C71.2453 85.1124 71.4376 85.0212 71.5794 84.8589C71.7212 84.6967 71.8008 84.4766 71.8008 84.2472C71.8008 84.0177 71.7212 83.7976 71.5794 83.6354C71.4376 83.4731 71.2453 83.382 71.0448 83.382C70.8443 83.382 70.652 83.4731 70.5102 83.6354C70.3685 83.7976 70.2888 84.0177 70.2888 84.2472Z" fill="#252525"/>
<path d="M31.4466 32.76C31.5035 32.7616 31.5594 32.745 31.6063 32.7126C31.6531 32.6802 31.6884 32.6338 31.707 32.58H31.68C33.0396 28.098 37.0578 25.2516 38.586 21.18C39.1181 19.7112 39.2934 18.137 39.0974 16.5872C38.9014 15.0374 38.3397 13.5564 37.4586 12.2664C37.4241 12.2087 37.3756 12.1606 37.3176 12.1266C37.2596 12.0927 37.194 12.0739 37.1268 12.072C33.3012 11.9208 16.2468 12.0876 12.7116 12.9684C12.6574 12.9823 12.6064 13.0069 12.5618 13.0408C12.5172 13.0746 12.4799 13.1171 12.4519 13.1656C12.424 13.2141 12.406 13.2677 12.3991 13.3233C12.3922 13.3789 12.3964 13.4353 12.4116 13.4892C13.8078 18.6756 10.9158 20.6292 7.9764 24.8508C6.33698 27.0902 5.33357 29.7312 5.0724 32.4942C5.06373 32.6 5.09638 32.705 5.16351 32.7872C5.23064 32.8695 5.32701 32.9225 5.4324 32.9352C8.0364 33.1836 10.6464 32.9538 13.2768 32.9136C18.12 32.8362 31.4466 32.82 31.4466 32.76ZM36.8784 12.8832C32.523 12.735 17.4468 12.9612 13.3302 13.6992C14.5902 18.9792 11.4222 21.342 8.6502 25.3236C7.19761 27.341 6.2602 29.683 5.9196 32.1456C8.3454 32.3352 10.8666 32.1222 13.2582 32.1C15.2808 32.0814 30.2766 32.2164 31.2582 32.2338C33.168 25.8258 39.9414 22.7484 38.034 15.507C37.784 14.5783 37.3944 13.693 36.8784 12.8814V12.8832Z" fill="#252525"/>
<path d="M35.22 65.4138C35.2642 65.4161 35.3083 65.4066 35.3476 65.3862C35.3869 65.3658 35.4201 65.3353 35.4437 65.2978C35.4673 65.2604 35.4804 65.2173 35.4818 65.173C35.4832 65.1287 35.4728 65.0849 35.4516 65.046H35.4366C34.044 62.4456 33.42 59.1132 32.76 56.1912C31.5792 50.9652 30.3954 43.674 31.5318 38.418C31.5437 38.3596 31.5426 38.2993 31.5286 38.2414C31.5146 38.1834 31.4881 38.1293 31.4509 38.0827C31.4137 38.0361 31.3668 37.9983 31.3134 37.9718C31.2599 37.9454 31.2014 37.931 31.1418 37.9296C28.4118 37.9026 17.5218 38.0124 14.8032 38.0742C11.181 38.157 7.4364 38.412 3.8232 38.1084C3.71628 38.1004 3.61035 38.1336 3.52713 38.2013C3.44391 38.2689 3.3897 38.3657 3.3756 38.472C2.1276 48.0426 4.08 57.1434 8.202 66.0822C8.23669 66.1588 8.29408 66.2229 8.36641 66.2659C8.43875 66.3088 8.52252 66.3285 8.6064 66.3222C17.883 65.6352 35.22 65.4948 35.22 65.4138ZM30.6378 38.7492C28.095 38.7306 10.4124 39.0744 8.202 39.0912C6.8442 39.1014 5.502 39.0756 4.1568 38.9784C3.0354 48.1464 4.9578 56.973 8.823 65.4816C16.224 64.9728 27.4086 64.8696 34.7838 64.8912C33.3912 62.178 32.8494 59.4666 32.097 56.346C30.7494 50.76 29.709 44.3952 30.6378 38.7492Z" fill="#252525"/>
<path d="M52.9866 80.9401C51.177 77.8321 50.0064 73.1329 45.9222 72.1645C45.3944 72.0433 44.8465 72.0398 44.3172 72.1543C43.4946 72.0739 43.4328 72.0343 38.5254 72.3295C37.5306 72.3943 36.6762 72.4495 36.6762 72.7675C36.6762 73.0981 37.3758 73.1173 38.0922 73.1431C38.9478 73.1713 41.6058 73.0039 42.4494 72.9493C40.1262 74.4097 38.8494 76.9819 36.0408 73.2775C35.5376 72.5719 35.0793 71.8355 34.6686 71.0725C34.6306 71.0036 34.5735 70.947 34.5043 70.9096C34.435 70.8721 34.3565 70.8554 34.278 70.8613C28.3224 71.3371 24.7536 72.1213 17.8086 72.1507C10.4022 72.1801 10.3488 71.8969 10.1232 72.3163C10.0865 72.3818 10.0684 72.4562 10.071 72.5313C10.0735 72.6064 10.0965 72.6793 10.1376 72.7423C11.7912 75.3295 13.1418 76.8421 16.8126 77.4025C18.783 77.7025 21.1362 77.6365 26.2038 77.4145C26.7532 77.799 27.2401 78.2659 27.6474 78.7987C28.0357 79.3991 28.3373 80.0513 28.5432 80.7361C28.7184 81.2887 28.7634 81.2599 28.8894 81.6283C28.9035 81.6986 28.9448 81.7605 29.0044 81.8004C29.064 81.8404 29.137 81.855 29.2074 81.8413C29.2781 81.8266 29.3403 81.7849 29.3808 81.7251C29.4213 81.6652 29.4368 81.592 29.424 81.5209C29.4167 81.182 29.3782 80.8446 29.3088 80.5129C29.0407 79.281 28.3736 78.1721 27.411 77.3581C27.837 77.3371 34.2636 76.9381 37.0518 76.7551C37.0885 76.7546 37.1247 76.7467 37.1583 76.7319C37.1918 76.7171 37.2221 76.6956 37.2471 76.6689C37.2722 76.6421 37.2916 76.6105 37.3042 76.576C37.3168 76.5416 37.3223 76.5049 37.3203 76.4683C37.3184 76.4316 37.3091 76.3958 37.2929 76.3628C37.2768 76.3299 37.2541 76.3005 37.2264 76.2765C37.1986 76.2526 37.1663 76.2344 37.1313 76.2232C37.0964 76.2121 37.0595 76.2081 37.023 76.2115C34.2348 76.3315 24.9456 76.6915 23.082 76.7227C19.8276 76.7947 15.9036 77.1241 13.2582 75.1993C12.4699 74.5632 11.7959 73.7974 11.265 72.9349C14.4948 72.9541 17.7318 73.0549 20.9586 72.9307C25.3758 72.7597 29.6766 72.0829 34.0758 71.7151C35.1174 73.6051 36.8496 76.2283 38.988 75.9979C39.999 75.8881 40.9236 75.1453 41.9064 74.3509C43.0002 73.4401 44.3742 72.6187 45.7632 72.9235C49.4322 73.7233 50.7144 78.2239 52.5678 81.1963C52.5833 81.2244 52.6044 81.2491 52.6298 81.2689C52.6552 81.2886 52.6843 81.3029 52.7155 81.3109C52.7466 81.319 52.779 81.3206 52.8108 81.3156C52.8426 81.3106 52.873 81.2992 52.9002 81.2821C52.9567 81.2479 52.9975 81.1929 53.0137 81.1288C53.0299 81.0648 53.0201 80.997 52.9866 80.9401Z" fill="#252525"/>
<path d="M102.914 96.7116C103.174 95.4282 103.622 94.1412 103.81 92.8464C104.459 88.5379 104.148 84.1394 102.9 79.965C100.882 73.365 96.5826 68.385 89.7534 66.1602C86.6478 65.145 83.2968 64.755 80.1702 64.257C80.2134 63.819 78.3972 62.2698 77.7918 62.019C77.7278 61.9898 77.6578 61.976 77.5875 61.9787C77.5171 61.9814 77.4484 62.0006 77.3868 62.0346C73.0668 64.3746 72.0018 64.956 71.4114 65.349C71.295 64.4544 71.2866 63.8166 71.2038 62.919C71.2046 62.8829 71.1972 62.8471 71.1823 62.8143C71.1673 62.7815 71.1451 62.7524 71.1174 62.7294C71.0917 62.6705 71.0442 62.624 70.9849 62.5995C70.9256 62.575 70.8591 62.5744 70.7994 62.598C69.8298 62.9238 68.0502 63.018 67.5714 64.3674C65.5635 64.4723 63.5738 64.804 61.6404 65.3562C57.4956 66.5028 52.4478 69.1296 50.9496 73.1376C50.9264 73.1963 50.9267 73.2617 50.9504 73.3202C50.9741 73.3787 51.0194 73.4259 51.0769 73.452C51.1344 73.478 51.1997 73.481 51.2594 73.4602C51.319 73.4394 51.3683 73.3965 51.3972 73.3404C51.9419 72.3526 52.6448 71.4607 53.478 70.7004C57.1218 67.0914 62.3652 65.8164 67.4052 64.9818C67.0622 66.529 66.8062 68.0943 66.6384 69.6702C66.6296 69.7527 66.6449 69.8361 66.6826 69.9101C66.7202 69.9841 66.7786 70.0456 66.8505 70.0871C66.9225 70.1285 67.005 70.1481 67.0879 70.1436C67.1708 70.139 67.2506 70.1105 67.3176 70.0614C68.5068 69.0994 69.6442 68.0752 70.725 66.993C68.916 73.5048 68.0208 81.4698 67.65 88.1646C67.5084 91.0218 67.6842 91.6824 67.6356 93.9246C67.6333 93.9968 67.6596 94.067 67.7087 94.12C67.7578 94.173 67.8258 94.2045 67.898 94.2077C67.9701 94.211 68.0407 94.1856 68.0943 94.1372C68.148 94.0889 68.1804 94.0213 68.1846 93.9492C68.55 89.0742 68.1624 82.923 71.2956 66.9294C72.1806 68.1018 73.4076 69.5196 74.31 70.599C74.3476 70.6441 74.3945 70.6808 74.4474 70.7064C74.5003 70.732 74.5581 70.7461 74.6168 70.7476C74.6756 70.7491 74.734 70.7381 74.7882 70.7153C74.8424 70.6924 74.8911 70.6583 74.931 70.6152C75.546 69.9684 77.0238 68.2116 77.4306 67.7154C79.1484 65.5356 79.6182 65.0226 79.8546 64.7154C83.289 65.3892 86.484 65.8638 89.508 66.9054C96.147 69.189 100.146 73.8462 102.108 80.2152C103.318 84.2706 103.619 88.5431 102.989 92.7282C102.739 94.434 101.828 96.9354 101.92 98.1114C101.957 98.9334 102.327 100.049 101.876 100.825C101.668 101.175 101.428 101.185 101.241 101.031C101.006 100.81 100.885 100.286 100.374 98.9274C100.028 98.0712 99.6072 97.2469 99.1176 96.4638C97.326 93.495 94.7616 90.0372 91.5042 91.2618C91.4695 91.2723 91.4373 91.2897 91.4095 91.313C91.3817 91.3362 91.3589 91.3648 91.3423 91.397C91.3258 91.4292 91.3159 91.4645 91.3132 91.5006C91.3105 91.5367 91.3151 91.573 91.3267 91.6074C91.3383 91.6417 91.3567 91.6733 91.3808 91.7004C91.4049 91.7275 91.4341 91.7495 91.4669 91.765C91.4996 91.7806 91.5351 91.7894 91.5713 91.791C91.6075 91.7925 91.6437 91.7868 91.6776 91.7742C94.5702 90.7188 96.921 94.2342 98.4528 96.861C99.3954 98.484 99.4128 98.7162 100.316 101.098C100.981 102.506 102.776 102.164 102.917 100.067C102.989 98.9046 102.493 98.5332 102.914 96.7116ZM68.04 68.3664C67.8954 68.4924 67.7514 68.6166 67.62 68.739C67.759 67.3486 67.9996 65.9703 68.34 64.6152C68.55 63.909 69.7494 63.5682 70.6512 63.1986C70.5891 64.1045 70.5988 65.0139 70.68 65.9184C69.8028 66.7146 68.9358 67.5696 68.04 68.3664ZM76.8816 67.113C76.3848 67.6968 74.9016 69.4158 74.6424 69.6972C73.7748 68.6652 72.5508 67.2192 71.7528 66.1344C72.6972 65.4696 74.5854 64.5528 76.737 63.3006C77.757 62.7264 77.5812 62.7438 77.676 62.784C78.3664 63.1549 78.999 63.6244 79.554 64.1778C78.69 65.2014 78.6504 65.034 76.8816 67.113Z" fill="#252525"/>
<path d="M89.8548 88.8414C90.0715 86.9994 89.7972 85.1329 89.0598 83.4312C89.0388 83.4021 89.0239 83.369 89.0161 83.3339C89.0084 83.2989 89.0079 83.2626 89.0147 83.2274C89.0215 83.1921 89.0354 83.1586 89.0557 83.129C89.0759 83.0993 89.102 83.0741 89.1324 83.055C89.1623 83.0354 89.1958 83.0219 89.231 83.0154C89.2662 83.0089 89.3023 83.0094 89.3373 83.017C89.3723 83.0246 89.4054 83.0391 89.4347 83.0596C89.464 83.0801 89.4889 83.1063 89.508 83.1366C90.7644 84.7566 90.936 87.1302 90.648 89.1702C90.6381 89.2319 90.6149 89.2907 90.58 89.3425C90.545 89.3943 90.4993 89.4379 90.4458 89.4702C89.2866 90.0852 89.0286 91.266 89.2176 92.577C89.2269 92.6084 89.2298 92.6413 89.2261 92.6739C89.2223 92.7064 89.2121 92.7379 89.1959 92.7663C89.1797 92.7948 89.1579 92.8197 89.1318 92.8395C89.1058 92.8594 89.0759 92.8737 89.0442 92.8818C89.0127 92.8904 88.9797 92.8927 88.9473 92.8885C88.9149 92.8843 88.8836 92.8737 88.8554 92.8573C88.8271 92.8409 88.8024 92.819 88.7827 92.7929C88.763 92.7668 88.7487 92.7371 88.7406 92.7054C88.1556 91.2174 88.4124 89.7522 89.8548 88.8414Z" fill="#252525"/>
<path d="M93.2208 88.98C93.7808 88.9671 94.34 89.0319 94.8822 89.1726C96.3024 89.5638 97.1388 90.543 97.4394 90.2178C97.6794 89.9592 97.128 89.442 96.861 89.2188C95.8053 88.4292 94.4914 88.0656 93.18 88.2C92.9556 88.2342 92.148 88.4106 92.1828 88.74C92.2284 88.9638 92.3856 88.956 93.2208 88.98Z" fill="#252525"/>
<path d="M12.2904 26.8085C14.709 27.0779 14.1324 26.9039 16.899 27.1085C18.4152 27.2195 19.1916 27.4811 20.6838 27.2681C20.7574 27.2667 20.8275 27.2364 20.8789 27.1838C20.9303 27.1311 20.9589 27.0603 20.9586 26.9867C20.952 26.9148 20.9186 26.8479 20.8651 26.7993C20.8115 26.7508 20.7417 26.7241 20.6694 26.7245C19.713 26.6687 15.8094 25.8335 12.276 26.3135C12.2103 26.3165 12.1483 26.3444 12.1025 26.3916C12.0568 26.4387 12.0309 26.5016 12.03 26.5673C12.0309 26.6004 12.0384 26.6329 12.0521 26.663C12.0657 26.6931 12.0853 26.7202 12.1095 26.7427C12.1338 26.7651 12.1622 26.7825 12.1933 26.7938C12.2244 26.8052 12.2574 26.8102 12.2904 26.8085Z" fill="#644DF6"/>
<path d="M11.0046 28.8486C11.6838 28.8726 12.3624 28.9212 13.0416 28.9542C13.287 28.9656 24.093 29.337 24.3096 29.3406C25.0032 29.3514 25.6968 29.331 26.3904 29.2746C26.4271 29.2751 26.4634 29.2681 26.4973 29.2542C26.5312 29.2402 26.562 29.2196 26.5877 29.1935C26.6135 29.1674 26.6337 29.1364 26.6471 29.1023C26.6606 29.0682 26.667 29.0317 26.6661 28.995C26.6651 28.9584 26.6567 28.9223 26.6415 28.889C26.6262 28.8556 26.6044 28.8257 26.5773 28.801C26.5503 28.7763 26.5185 28.7573 26.4839 28.7452C26.4493 28.7331 26.4126 28.728 26.376 28.7304C25.6674 28.7304 24.96 28.6302 24.2526 28.563C21.3606 28.2996 14.571 28.1166 12.8394 28.203C12.2184 28.233 11.5968 28.293 10.9902 28.3518C10.9555 28.3496 10.9208 28.3546 10.8881 28.3666C10.8555 28.3785 10.8257 28.3972 10.8007 28.4213C10.7757 28.4454 10.756 28.4745 10.7429 28.5067C10.7298 28.5388 10.7235 28.5734 10.7245 28.6081C10.7256 28.6429 10.7338 28.677 10.7488 28.7084C10.7637 28.7397 10.7851 28.7676 10.8114 28.7903C10.8378 28.8129 10.8686 28.8298 10.9019 28.8398C10.9351 28.8499 10.9701 28.8529 11.0046 28.8486Z" fill="#644DF6"/>
<path d="M7.74 42.5214C9.7896 42.5166 19.2834 42.6882 21.3348 42.576C21.9702 42.543 22.5768 42.4836 23.1984 42.4236C23.2705 42.4217 23.3389 42.3912 23.3885 42.3389C23.4381 42.2866 23.4649 42.2167 23.463 42.1446C23.4611 42.0725 23.4306 42.0041 23.3783 41.9545C23.326 41.9049 23.2561 41.8781 23.184 41.88C23.124 41.88 15.924 41.6832 12.363 41.7048C10.8013 41.6777 9.24023 41.7845 7.6968 42.024C7.63208 42.032 7.57262 42.0637 7.52995 42.1131C7.48728 42.1624 7.46442 42.2258 7.4658 42.291C7.47191 42.3578 7.50414 42.4195 7.55549 42.4626C7.60684 42.5058 7.67316 42.5269 7.74 42.5214Z" fill="#644DF6"/>
<path d="M19.644 48.24C21.939 48.2118 21.177 48.1548 23.0532 48.0516C26.85 47.8416 25.1802 48.0042 26.766 47.7966C26.8383 47.7945 26.9069 47.7648 26.9579 47.7135C27.0089 47.6623 27.0384 47.5935 27.0402 47.5212C27.0388 47.4494 27.0093 47.3811 26.958 47.3308C26.9067 47.2806 26.8378 47.2524 26.766 47.2524C25.3217 47.0765 23.8615 47.0765 22.4172 47.2524C21.4441 47.272 20.4797 47.4395 19.557 47.7492C19.4948 47.7638 19.4406 47.8016 19.4055 47.8549C19.3704 47.9082 19.357 47.973 19.3682 48.0358C19.3793 48.0987 19.4141 48.1549 19.4654 48.1928C19.5167 48.2308 19.5806 48.2477 19.644 48.24Z" fill="#644DF6"/>
<path d="M19.8 51.0738C20.2368 51.2022 20.04 51.2256 21.303 51.2232C21.8078 51.2886 22.3208 51.2379 22.803 51.075C22.873 51.0718 22.939 51.0416 22.9873 50.991C23.0356 50.9403 23.0626 50.873 23.0626 50.8029C23.0626 50.7329 23.0356 50.6656 22.9873 50.6149C22.939 50.5642 22.873 50.5341 22.803 50.5308C22.6004 50.4556 22.3876 50.4115 22.1718 50.4C21.5269 50.3646 20.8804 50.3702 20.2362 50.4168C20.077 50.4536 19.9219 50.5066 19.7736 50.5752C19.7092 50.5813 19.6494 50.6116 19.6065 50.6601C19.5636 50.7086 19.5408 50.7715 19.5426 50.8362C19.5456 50.9018 19.5743 50.9635 19.6224 51.008C19.6706 51.0524 19.7344 51.0761 19.8 51.0738Z" fill="#644DF6"/>
<path d="M9.3288 58.2383C9.7812 58.2749 10.4556 58.3355 11.1204 58.3421C12.4668 58.3553 19.3698 58.0133 19.7004 57.9893C20.1912 57.9527 20.6826 57.8981 21.1884 57.8597C21.2605 57.8582 21.3293 57.8289 21.3804 57.778C21.4315 57.727 21.4609 57.6583 21.4626 57.5861C21.459 57.5149 21.4289 57.4476 21.3781 57.3975C21.3274 57.3474 21.2597 57.3182 21.1884 57.3155C20.5818 57.2783 19.9884 57.2315 19.3968 57.2231C17.9448 57.2027 11.1558 57.5537 10.8168 57.5831C10.311 57.6257 9.8202 57.6923 9.3288 57.7403C9.26575 57.7447 9.20671 57.7729 9.16359 57.8191C9.12047 57.8653 9.0965 57.9261 9.0965 57.9893C9.0965 58.0525 9.12047 58.1134 9.16359 58.1596C9.20671 58.2058 9.26575 58.234 9.3288 58.2383Z" fill="#644DF6"/>
<path d="M10.3686 61.3722C11.5968 61.4826 11.0184 61.479 13.8792 61.3182C14.9515 61.3014 16.0222 61.2281 17.0868 61.0986C17.1236 61.1003 17.1604 61.0946 17.1949 61.0817C17.2294 61.0688 17.261 61.049 17.2876 61.0236C17.3143 60.9981 17.3355 60.9676 17.35 60.9337C17.3645 60.8998 17.372 60.8633 17.372 60.8265C17.372 60.7896 17.3645 60.7532 17.35 60.7193C17.3355 60.6854 17.3143 60.6548 17.2876 60.6294C17.261 60.604 17.2294 60.5842 17.1949 60.5713C17.1604 60.5584 17.1236 60.5527 17.0868 60.5544C16.7283 60.4906 16.3666 60.4471 16.0032 60.4242C15.3024 60.3948 12.8142 60.4986 11.5392 60.6426C11.1353 60.6983 10.7347 60.7759 10.3392 60.8748C10.2736 60.8793 10.2124 60.9096 10.1691 60.959C10.1258 61.0085 10.1039 61.0732 10.1082 61.1388C10.1135 61.2036 10.1435 61.2639 10.1919 61.3073C10.2404 61.3507 10.3036 61.3739 10.3686 61.3722Z" fill="#644DF6"/>
<path d="M33.0792 79.5168C33.4794 79.488 34.4796 79.449 34.914 79.4202C41.403 78.9912 41.2806 79.3452 44.5788 78.8652C44.6505 78.8576 44.7168 78.8236 44.7648 78.7698C44.8129 78.716 44.8392 78.6463 44.8386 78.5742C44.8313 78.5007 44.7953 78.4331 44.7385 78.3859C44.6817 78.3387 44.6086 78.3158 44.535 78.3222C43.6092 78.3222 43.6398 78.2784 42.123 78.3036C36.8082 78.3924 35.2428 78.4308 32.9928 79.0236C32.9274 79.035 32.8692 79.072 32.8311 79.1264C32.7929 79.1807 32.7779 79.248 32.7894 79.3134C32.8009 79.3788 32.8378 79.437 32.8922 79.4751C32.9465 79.5133 33.0138 79.5283 33.0792 79.5168Z" fill="#644DF6"/>
<path d="M35.304 81.7722C36.3953 81.7762 37.4859 81.712 38.5692 81.5802C39.5751 81.5619 40.5786 81.4775 41.5734 81.3276C41.6102 81.3293 41.647 81.3235 41.6815 81.3106C41.716 81.2978 41.7476 81.278 41.7742 81.2526C41.8009 81.2271 41.8221 81.1965 41.8366 81.1627C41.8511 81.1288 41.8586 81.0923 41.8586 81.0555C41.8586 81.0186 41.8511 80.9822 41.8366 80.9483C41.8221 80.9144 41.8009 80.8838 41.7742 80.8584C41.7476 80.833 41.716 80.8132 41.6815 80.8003C41.647 80.7874 41.6102 80.7817 41.5734 80.7834C40.5164 80.6184 39.441 80.6073 38.3808 80.7504C37.7934 80.79 36.6366 80.8992 36.156 81.0012C35.8423 81.074 35.5337 81.167 35.232 81.2796C35.1656 81.2893 35.1057 81.3246 35.0651 81.378C35.0244 81.4314 35.0064 81.4986 35.0148 81.5652C35.0278 81.6299 35.0649 81.6873 35.1186 81.7257C35.1723 81.7642 35.2385 81.7808 35.304 81.7722Z" fill="#644DF6"/>
<path d="M17.448 53.6352C16.8776 51.3385 16.5003 48.9982 16.32 46.6386C16.3147 46.5351 16.2696 46.4376 16.1942 46.3666C16.1187 46.2956 16.0186 46.2565 15.915 46.2576C14.1816 46.2792 8.4318 46.3728 7.275 46.4082C7.16978 46.412 7.06981 46.4552 6.99491 46.5292C6.92002 46.6032 6.87565 46.7026 6.8706 46.8078C6.82611 49.2865 7.27375 51.7494 8.1876 54.054C8.3544 54.4854 8.883 54.3102 10.3116 54.3204C10.9464 54.3204 11.5968 54.3342 12.2316 54.3288C12.3738 54.3288 15.5958 54.2364 15.6558 54.2328C16.1845 54.2143 16.7087 54.1289 17.2158 53.9784C17.255 53.9742 17.2929 53.9615 17.3267 53.9412C17.3605 53.9208 17.3895 53.8934 17.4116 53.8607C17.4337 53.828 17.4484 53.7909 17.4547 53.752C17.461 53.713 17.4587 53.6732 17.448 53.6352ZM16.7682 53.2752C15.306 52.3692 13.7856 51.378 12.396 50.3424C14.736 48.1038 14.436 48.5124 15.5616 47.3064C15.7611 49.3332 16.1653 51.3346 16.7682 53.28V53.2752ZM14.82 47.0928C13.7367 47.9485 12.6999 48.8614 11.7138 49.8276C10.0938 48.5886 10.6134 48.9168 8.2068 47.2224C10.398 47.16 12.7698 47.1246 14.82 47.0928ZM7.7082 47.6328C8.2554 48.1956 8.286 48.2274 11.118 50.4186C10.2196 51.2751 9.43877 52.2469 8.796 53.3088C8.12984 51.4875 7.76191 49.5707 7.7064 47.6322L7.7082 47.6328ZM9.462 53.517C10.362 52.4832 11.0718 51.6522 11.793 50.937C13.1228 51.9907 14.5647 52.8945 16.0926 53.6322C15.8844 53.6346 11.2872 53.4822 9.4602 53.5164L9.462 53.517Z" fill="#644DF6"/>
<path d="M35.52 16.4352C35.5121 16.3341 35.4658 16.2398 35.3906 16.1716C35.3154 16.1035 35.217 16.0666 35.1156 16.0686C31.188 16.0542 18.6402 15.6186 16.5804 16.0086C16.4968 16.0244 16.4195 16.0641 16.358 16.1229C16.2964 16.1817 16.2532 16.257 16.2336 16.3398C15.7981 18.7431 14.8253 21.0169 13.3878 22.9914C13.3433 23.0526 13.3161 23.1247 13.3092 23.2C13.3022 23.2753 13.3157 23.3511 13.3483 23.4194C13.3809 23.4877 13.4313 23.5459 13.4942 23.5879C13.5571 23.6299 13.6302 23.6541 13.7058 23.658C17.037 23.8686 20.2968 23.8428 23.6016 23.9808C27.5832 24.1008 32.1408 24.6204 32.4714 24.2766C33.5046 23.2591 34.3104 22.0342 34.8359 20.6826C35.3614 19.331 35.5945 17.8834 35.52 16.4352ZM33.0186 16.8408C28.647 18.0282 28.425 17.9952 24.0786 19.4562C20.04 17.508 22.9362 18.84 18.3354 16.716C21.651 16.6128 29.2386 16.7892 33.0192 16.8408H33.0186ZM16.989 16.8408C17.5407 17.0887 18.0751 17.3733 18.5886 17.6928L22.9506 19.836C18.0426 21.4866 17.3838 21.4644 14.721 22.5318C15.8075 20.7835 16.5755 18.8565 16.9896 16.8402L16.989 16.8408ZM23.631 23.1828C21.3192 23.0754 15.8628 22.9326 15.4386 22.914C18.4596 22.0968 18.5376 22.194 24.0186 20.358C25.5582 21.1062 30.7872 23.589 31.2318 23.7948C28.674 23.631 26.16 23.3292 23.631 23.1828ZM32.319 23.6958C29.961 22.2678 27.4338 21.0654 25.164 19.9758C30.6312 18.1644 31.6842 18.192 34.7562 16.8954C34.8314 19.3886 33.9607 21.818 32.319 23.6958Z" fill="#644DF6"/>
<path d="M91.1838 107.129C91.1838 107.129 94.5066 107.116 95.2866 107.094C95.598 107.086 112.472 106.305 116.74 106.014C116.811 106.008 116.877 105.976 116.925 105.923C116.974 105.871 117 105.802 117 105.73C116.995 105.658 116.962 105.59 116.908 105.541C116.854 105.493 116.783 105.467 116.711 105.47C108.288 105.704 93.1308 106.434 91.1694 106.629C91.1025 106.631 91.0393 106.66 90.9934 106.709C90.9475 106.758 90.9225 106.822 90.924 106.889C90.9289 106.955 90.9584 107.016 91.0066 107.061C91.0548 107.105 91.1182 107.13 91.1838 107.129Z" fill="#252525"/>
<path d="M99.7362 102.033C98.5876 102.929 97.3703 103.734 96.0954 104.44C92.7876 106.286 89.2746 107.417 85.4754 106.988C80.8362 106.461 76.7808 103.67 73.8024 100.114C73.3692 99.6 73.0656 99.2142 72.936 99.0234C72.8591 98.9105 72.7546 98.8192 72.6324 98.7582C70.3404 98.109 69.519 97.968 68.3418 97.7004C68.2772 97.6855 68.2093 97.6964 68.1525 97.7308C68.0958 97.7652 68.0548 97.8204 68.0382 97.8846C68.0252 97.9492 68.0374 98.0162 68.0724 98.072C68.1073 98.1278 68.1623 98.1681 68.226 98.1846C69.3204 98.4846 70.71 98.8998 72.3 99.4446C74.1984 102.159 76.6972 104.399 79.602 105.991C79.1928 105.979 76.164 105.896 74.9046 105.956C74.7336 105.116 73.7046 104.854 72.849 104.873L64.8888 104.719C64.4688 103.248 59.616 86.5098 59.3688 85.7226C59.1665 84.9694 58.7182 84.3055 58.0951 83.8365C57.472 83.3674 56.71 83.1203 55.9302 83.1342C55.5102 83.145 24.162 83.3424 23.3964 83.3376C22.1826 83.331 21.555 83.7438 21.2292 84.2262C21.0346 84.5849 20.9256 84.9837 20.9106 85.3915C20.8956 85.7993 20.9751 86.205 21.1428 86.577C21.1428 86.517 21.9168 88.6368 28.8054 105.974C26.9184 105.904 14.8632 106.023 11.3766 106.379C11.3126 106.382 11.2523 106.41 11.2081 106.456C11.1639 106.502 11.1392 106.564 11.1392 106.628C11.1392 106.692 11.1639 106.754 11.2081 106.8C11.2523 106.847 11.3126 106.874 11.3766 106.877C15.1296 107.091 26.6766 106.733 29.0232 106.533C29.2698 106.944 29.6213 107.281 30.0415 107.511C30.4616 107.741 30.9354 107.855 31.4142 107.842H72.894C73.4032 107.731 73.8911 107.538 74.3388 107.272C74.5644 107.127 74.741 106.918 74.8452 106.672C76.0974 106.763 80.0742 106.895 81.3192 106.792C86.4018 108.822 91.752 107.998 96.471 105.091C97.7382 104.304 98.9452 103.423 100.082 102.457C100.134 102.41 100.166 102.345 100.171 102.275C100.176 102.205 100.154 102.136 100.11 102.081C100.066 102.027 100.002 101.992 99.9327 101.983C99.8632 101.974 99.7929 101.992 99.7362 102.033ZM73.7466 106.66C73.1046 106.968 75.6666 106.829 31.4178 107.404C30.9626 107.378 30.523 107.229 30.1464 106.972C29.301 106.378 29.9856 107.572 21.8832 86.2878C21.8688 86.2878 21.8688 86.28 21.8688 86.28C21.7897 86.0578 21.7362 85.8273 21.7092 85.593C21.6222 84.7044 22.023 84.1314 23.3856 84.1452C24.3966 84.1542 55.9482 83.9736 55.9482 83.9736C56.5412 83.9648 57.1204 84.1528 57.5952 84.5082C58.0659 84.8818 58.405 85.396 58.563 85.9758C58.8084 86.7606 64.1826 105.249 64.1826 105.249C64.2055 105.335 64.2562 105.411 64.3269 105.465C64.3975 105.52 64.4841 105.549 64.5732 105.549C64.5732 105.549 72.8532 105.706 72.8652 105.705C73.1514 105.691 74.0934 105.741 74.0934 106.213C74.1078 106.448 73.92 106.573 73.7466 106.66Z" fill="#252525"/>
<path d="M83.5848 42.24C83.1567 41.3177 82.5065 40.5159 81.6924 39.9066C80.6297 39.323 79.4374 39.0158 78.225 39.0132C76.639 38.9036 75.0482 39.1414 73.5636 39.71C72.079 40.2786 70.7364 41.1643 69.6294 42.3054C66.8766 45.0726 66.1116 49.0686 65.0928 52.8192C64.2924 55.991 63.1087 59.0536 61.5678 61.9392C61.5361 61.9972 61.5185 62.0619 61.5166 62.128C61.5146 62.1941 61.5283 62.2598 61.5564 62.3196C61.5846 62.3794 61.6265 62.4317 61.6788 62.4723C61.731 62.5128 61.7921 62.5405 61.857 62.553C65.0688 63.249 69.2172 62.3436 72.0132 60.4416C72.0132 62.01 72.042 62.3706 72.042 63.1614C72.0377 63.2342 72.0625 63.3057 72.111 63.3602C72.1594 63.4148 72.2275 63.4478 72.3003 63.4521C72.3731 63.4564 72.4446 63.4316 72.4992 63.3831C72.5537 63.3347 72.5867 63.2666 72.591 63.1938C72.7254 62.0106 72.7566 61.2966 72.7884 60.7308C72.9314 60.7811 73.0777 60.8212 73.2264 60.8508C73.9566 61.0044 75.1872 60.9108 75.09 60.4152C75.0522 60.0294 74.031 60.1704 73.3998 60.0276C71.466 59.6118 70.6026 57.804 70.4814 55.8234C70.3428 53.0196 71.274 50.391 71.8542 47.9034C73.794 47.5668 75.9228 47.7414 77.8926 47.8134C77.9906 47.8163 78.0866 47.7845 78.1634 47.7236C78.2403 47.6627 78.2931 47.5765 78.3126 47.4804C78.5424 46.5114 78.9867 45.6064 79.6128 44.832C79.5535 45.883 79.888 46.9184 80.5512 47.736C80.511 48.7444 80.54 49.7544 80.6382 50.7588C80.6318 50.8178 80.6373 50.8775 80.6543 50.9343C80.6712 50.9912 80.6994 51.0441 80.737 51.09C80.7747 51.1359 80.8211 51.1737 80.8735 51.2015C80.926 51.2292 80.9835 51.2462 81.0426 51.2514C81.4626 51.2622 81.9384 51.1806 82.386 51.2052C83.964 51.2982 83.5644 53.5482 81.8376 53.7984C81.0336 53.9184 80.8338 53.7048 80.5806 53.9226C80.5374 53.9588 80.5022 54.0037 80.4773 54.0543C80.4524 54.1049 80.4383 54.1602 80.436 54.2166C80.386 55.3641 80.0371 56.4785 79.4238 57.4497C78.8106 58.4208 77.9543 59.215 76.9398 59.7534C76.8778 59.7741 76.8238 59.8135 76.785 59.8661C76.7462 59.9187 76.7247 59.982 76.7232 60.0474L76.68 61.6116C76.6748 61.6786 76.6963 61.7449 76.74 61.796C76.7837 61.8471 76.8458 61.8787 76.9128 61.884C76.9798 61.8892 77.0461 61.8677 77.0972 61.824C77.1483 61.7803 77.18 61.7182 77.1852 61.6512L77.3586 60.3096C78.3267 59.9158 79.1642 59.257 79.7748 58.4088C80.1204 58.4436 80.319 58.4688 82.0548 58.5486C82.8054 58.5834 84.048 58.7352 84.843 58.3632C85.0624 58.2679 85.2534 58.1176 85.3976 57.9268C85.5418 57.736 85.6344 57.5112 85.6662 57.2742C85.6688 57.2277 85.664 57.1811 85.6518 57.1362C86.007 55.6026 85.9086 54.0882 85.9842 52.4874C86.139 49.0518 87.2478 42.8748 83.5848 42.24ZM70.4814 45.228C68.0538 48.7998 67.1628 54.2832 66.2214 57.5718C66.0336 58.2096 65.8014 58.815 65.6004 59.3988C65.5806 59.4626 65.5366 59.516 65.4779 59.5478C65.4191 59.5795 65.3503 59.587 65.2861 59.5687C65.2219 59.5503 65.1674 59.5076 65.1343 59.4496C65.1012 59.3916 65.0922 59.323 65.109 59.2584C65.6733 56.266 66.387 53.3037 67.2474 50.3826C67.9188 48.2964 68.6376 46.5072 70.0674 44.895C70.1116 44.8393 70.176 44.8034 70.2467 44.7953C70.3173 44.7871 70.3882 44.8073 70.4439 44.8515C70.4996 44.8957 70.5355 44.9601 70.5436 45.0307C70.5518 45.1013 70.5316 45.1723 70.4874 45.228H70.4814ZM74.0934 42.2628C73.6181 42.6695 73.1109 43.0372 72.5766 43.3626C72.5266 43.4052 72.4633 43.4291 72.3976 43.43C72.3319 43.431 72.2679 43.4091 72.2166 43.368C71.8566 43.002 73.1292 42.048 73.8054 41.7996C74.1564 41.6712 74.3652 42.0156 74.0934 42.2628Z" fill="#252525"/>
</svg>
