<svg width="120" height="120" viewBox="0 0 120 120" fill="none" xmlns="http://www.w3.org/2000/svg">
<path d="M62.7222 25.647C62.109 26.2386 61.9722 27.327 60.6876 28.3104C59.8266 28.9662 58.4676 29.3106 57.6876 28.3434C57.3591 27.8433 57.1505 27.2741 57.078 26.6802C56.6844 24.6432 57.378 22.203 57.2436 21.3198C57.2344 21.2885 57.2163 21.2607 57.1915 21.2395C57.1668 21.2184 57.1364 21.2049 57.1041 21.2007C57.0718 21.1965 57.039 21.2018 57.0096 21.2159C56.9803 21.23 56.9557 21.2523 56.9388 21.2802C56.8244 21.6189 56.7532 21.9707 56.727 22.3272C56.421 24.3006 55.968 27.6996 57.567 29.0124C57.8809 29.2557 58.2503 29.4174 58.642 29.4828C59.0338 29.5483 59.4356 29.5155 59.8116 29.3874C59.8575 29.6833 59.8237 29.9861 59.7138 30.2646C59.5938 30.6246 60.1446 30.762 60.2772 30.417C60.3519 30.2273 60.3872 30.0244 60.3809 29.8207C60.3746 29.617 60.3269 29.4166 60.2406 29.232C61.2898 28.6917 62.1385 27.8296 62.6622 26.772C62.8514 26.4932 62.9967 26.187 63.093 25.8642C63.1064 25.8169 63.1037 25.7665 63.0853 25.7209C63.067 25.6753 63.034 25.637 62.9916 25.6122C62.9492 25.5873 62.8997 25.5773 62.8509 25.5836C62.8022 25.5899 62.7569 25.6122 62.7222 25.647Z" fill="#666666"/>
<path d="M65.4384 23.3676C65.3766 23.269 65.2953 23.184 65.1996 23.1179C65.1038 23.0517 64.9956 23.0058 64.8815 22.9828C64.7674 22.9598 64.6499 22.9603 64.536 22.9843C64.4221 23.0083 64.3143 23.0552 64.2192 23.1222C64.0464 23.2602 64.239 23.5134 64.425 23.4666C64.98 23.328 65.424 24.1344 64.8618 24.825C64.6986 25.026 64.4118 25.2954 64.1418 25.1496C63.9432 25.0434 63.9432 24.8178 63.711 24.7296C63.5514 24.6696 63.303 24.9054 63.3732 25.1334C63.4404 25.3588 63.5866 25.5525 63.7849 25.6791C63.9832 25.8057 64.2204 25.8567 64.4532 25.8228C64.7069 25.7653 64.943 25.6471 65.141 25.4783C65.339 25.3095 65.4931 25.0952 65.59 24.8537C65.6869 24.6122 65.7237 24.3508 65.6973 24.092C65.6709 23.8331 65.582 23.5845 65.4384 23.3676Z" fill="#666666"/>
<path d="M64.5504 29.0526C64.2876 28.243 64.2085 27.385 64.3188 26.541C64.3181 26.5101 64.3075 26.4802 64.2885 26.4558C64.2695 26.4315 64.2431 26.4139 64.2133 26.4057C64.1834 26.3976 64.1518 26.3993 64.123 26.4105C64.0942 26.4218 64.0699 26.4421 64.0536 26.4684C63.8033 27.0199 63.7271 27.6347 63.8352 28.2306C63.9012 28.728 64.0254 29.5314 64.4448 29.8608C64.5648 29.9538 64.8096 29.9136 64.7892 29.715C64.7425 29.4837 64.6621 29.2605 64.5504 29.0526Z" fill="#666666"/>
<path d="M57.8916 22.9962C57.9449 23.0252 58.0041 23.0419 58.0648 23.045C58.1254 23.048 58.186 23.0374 58.242 23.0139C58.298 22.9904 58.348 22.9546 58.3883 22.9092C58.4286 22.8637 58.4582 22.8098 58.4748 22.7514C58.5184 22.5805 58.4997 22.3997 58.422 22.2414C58.3838 22.1751 58.3246 22.1234 58.2537 22.0945C58.1829 22.0656 58.1045 22.0612 58.0308 22.0818C57.9354 22.1064 57.8493 22.1585 57.7832 22.2316C57.7171 22.3047 57.674 22.3956 57.6592 22.493C57.6443 22.5904 57.6585 22.6901 57.6998 22.7795C57.7411 22.869 57.8078 22.9443 57.8916 22.9962Z" fill="#666666"/>
<path d="M60.3828 23.076C60.4362 23.105 60.4954 23.1217 60.5561 23.1247C60.6168 23.1277 60.6774 23.1171 60.7334 23.0935C60.7894 23.0699 60.8394 23.0341 60.8797 22.9886C60.9199 22.943 60.9494 22.889 60.966 22.8306C61.0096 22.6597 60.9909 22.4789 60.9132 22.3206C60.8749 22.2544 60.8157 22.2029 60.7448 22.1741C60.674 22.1453 60.5956 22.1409 60.522 22.1616C60.4268 22.1864 60.3409 22.2386 60.275 22.3117C60.2091 22.3848 60.1661 22.4756 60.1513 22.5729C60.1365 22.6702 60.1505 22.7697 60.1917 22.8592C60.2328 22.9486 60.2993 23.0239 60.3828 23.076Z" fill="#666666"/>
<path d="M57.9516 24.8316C58.0301 24.983 58.1491 25.1096 58.2952 25.1974C58.4414 25.2852 58.6091 25.3308 58.7796 25.329C58.8341 25.3273 58.8862 25.3062 58.9267 25.2696C58.9672 25.233 58.9933 25.1832 59.0005 25.1291C59.0077 25.0751 58.9955 25.0202 58.966 24.9743C58.9366 24.9283 58.8917 24.8944 58.8396 24.8784C58.7111 24.8556 58.5904 24.8009 58.4886 24.7194C59.1133 24.06 59.4759 23.1954 59.5086 22.2876C59.5083 22.2536 59.4958 22.2208 59.4734 22.1952C59.4509 22.1696 59.4201 22.1529 59.3864 22.1481C59.3527 22.1433 59.3184 22.1507 59.2898 22.1691C59.2611 22.1874 59.2399 22.2154 59.2302 22.248C58.4808 24.627 57.7062 24.423 57.9516 24.8316Z" fill="#666666"/>
<path d="M58.6404 25.6068C58.4477 25.6002 58.2552 25.6249 58.0704 25.68C57.7476 25.8228 58.3104 26.2938 59.3958 25.9116C59.7174 25.801 60.0161 25.6326 60.2772 25.4148C60.3198 26.0613 60.1773 26.7065 59.8662 27.2748C59.6592 27.5988 59.2986 27.9534 58.8924 27.7188C58.5432 27.5166 58.5204 27.0762 58.4616 26.7186C58.4214 26.4732 58.0656 26.5134 58.0044 26.7186C57.7008 27.7344 58.8186 28.8378 59.7936 28.1958C60.9126 27.459 60.8562 25.983 60.7608 24.8166C60.7586 24.7639 60.7398 24.7133 60.7069 24.672C60.6741 24.6307 60.629 24.6008 60.5782 24.5868C60.5273 24.5728 60.4733 24.5753 60.424 24.594C60.3746 24.6126 60.3325 24.6465 60.3036 24.6906C59.8894 25.2006 59.2928 25.5292 58.6404 25.6068Z" fill="#666666"/>
<path d="M65.8098 17.1258C65.6434 16.8542 65.443 16.605 65.2134 16.3842C66.1656 15.537 64.6692 14.4534 63.8484 14.787C63.7253 14.8278 63.6167 14.9033 63.5356 15.0044C63.4545 15.1056 63.4043 15.228 63.3912 15.357C63.3846 15.357 63.378 15.3504 63.3714 15.3504C62.2324 15.0947 61.0435 15.1781 59.9514 15.5904C59.1498 15.8694 58.0212 16.4304 57.8838 17.3796C57.8706 17.4726 57.9762 17.565 58.056 17.4792C58.3126 17.1611 58.5989 16.8682 58.911 16.6044C60.1584 15.8067 61.6632 15.5152 63.1182 15.7896C63.7968 15.931 64.4172 16.2733 64.8987 16.7719C65.3802 17.2705 65.7006 17.9025 65.8182 18.5856C65.91 19.056 65.8296 19.5126 65.8842 19.977C65.8847 20.0197 65.8991 20.061 65.9252 20.0948C65.9514 20.1285 65.9878 20.1528 66.0289 20.164C66.0701 20.1752 66.1138 20.1727 66.1534 20.1568C66.193 20.1409 66.2264 20.1126 66.2484 20.076C66.6654 19.3578 66.249 17.856 65.8098 17.1258ZM64.8156 16.0524C64.4765 15.8048 64.104 15.6064 63.7092 15.4632C63.775 15.355 63.8721 15.2695 63.9876 15.2178C64.0945 15.1942 64.2051 15.1933 64.3123 15.215C64.4196 15.2367 64.5211 15.2806 64.6104 15.3438C64.755 15.4248 64.9416 15.5292 64.9812 15.7038C65.028 15.8538 64.9284 15.96 64.8156 16.0524Z" fill="#666666"/>
<path d="M75.5958 27.2634C73.9872 27.6792 72.6348 26.223 72.0378 24.8916C70.62 21.72 72.3 17.58 70.9248 14.628C70.6271 14.0129 70.1793 13.4827 69.6227 13.0863C69.0661 12.69 68.4186 12.4402 67.74 12.36C65.9778 12.1626 64.266 13.356 64.0032 14.4138C63.996 14.4415 63.9981 14.4708 64.0092 14.4972C64.0203 14.5235 64.0397 14.5456 64.0645 14.5599C64.0892 14.5742 64.118 14.58 64.1464 14.5763C64.1748 14.5727 64.2012 14.5599 64.2216 14.5398C64.4688 14.3028 64.6728 14.0298 64.9374 13.7976C65.2708 13.4826 65.6642 13.2379 66.0942 13.0782C66.5242 12.9186 66.9819 12.8471 67.4401 12.8681C67.8982 12.8891 68.3475 13.0021 68.7611 13.2005C69.1746 13.3988 69.544 13.6784 69.8472 14.0226C70.3669 14.6629 70.6871 15.4417 70.7682 16.2624C71.2632 19.4748 70.0086 23.0562 71.9142 25.9758C72.6414 27.09 74.37 28.581 75.7836 27.6984C75.8316 27.6677 75.8672 27.6209 75.8839 27.5664C75.9006 27.512 75.8974 27.4533 75.8748 27.401C75.8522 27.3487 75.8117 27.3061 75.7606 27.2809C75.7095 27.2557 75.6511 27.2495 75.5958 27.2634Z" fill="#666666"/>
<path d="M67.7244 25.3152C68.2236 28.218 71.6496 29.0838 72.6804 28.4298C72.711 28.4107 72.7355 28.3831 72.7508 28.3505C72.7661 28.3178 72.7717 28.2814 72.7668 28.2456C72.7619 28.2099 72.7468 28.1763 72.7233 28.1489C72.6998 28.1216 72.6688 28.1016 72.6342 28.0914C71.9442 27.945 71.0622 28.293 69.7584 27.4956C68.9441 26.9567 68.3295 26.1651 68.0094 25.2426C68.0046 25.2239 67.9962 25.2063 67.9847 25.1908C67.9731 25.1754 67.9586 25.1623 67.942 25.1525C67.9254 25.1426 67.907 25.1361 67.8879 25.1333C67.8688 25.1306 67.8493 25.1316 67.8306 25.1364C67.8119 25.1412 67.7943 25.1496 67.7788 25.1611C67.7634 25.1727 67.7503 25.1872 67.7405 25.2038C67.7306 25.2204 67.7241 25.2388 67.7214 25.2579C67.7186 25.277 67.7196 25.2965 67.7244 25.3152Z" fill="#666666"/>
<path d="M68.904 22.74C68.8887 23.4069 69.0161 24.0694 69.2777 24.683C69.5393 25.2966 69.929 25.8473 70.4208 26.298C70.692 26.5566 71.0304 26.9058 71.4282 26.8812C71.4527 26.8804 71.4766 26.8733 71.4975 26.8606C71.5185 26.8479 71.5358 26.83 71.5479 26.8087C71.5599 26.7874 71.5663 26.7633 71.5664 26.7388C71.5664 26.7143 71.5602 26.6902 71.5482 26.6688C71.4024 26.3406 71.037 26.1726 70.7862 25.9332C69.9089 25.0663 69.3548 23.9253 69.216 22.6998C69.1872 22.5132 68.9154 22.572 68.904 22.74Z" fill="#666666"/>
<path d="M55.3542 30.96C52.212 30.276 48.5028 32.7048 46.098 34.8756C45.6979 35.1891 45.3587 35.5732 45.0972 36.009C45.0768 36.047 45.0692 36.0905 45.0755 36.1332C45.0817 36.1758 45.1016 36.2153 45.1322 36.2458C45.1627 36.2762 45.2022 36.296 45.2449 36.3022C45.2875 36.3084 45.3311 36.3007 45.369 36.2802C45.7438 36.0552 46.0851 35.7787 46.383 35.4588C47.4145 34.4639 48.5598 33.5943 49.7952 32.868C52.1316 31.5306 53.4642 31.4928 55.3014 31.3176C55.4934 31.3002 55.566 31.0068 55.3542 30.96Z" fill="#666666"/>
<path d="M53.6052 37.8246C52.398 37.6296 50.4924 39.1764 49.6032 39.912C48.3432 40.953 47.0646 42.1488 45.429 42.5292C44.6158 42.7345 43.7551 42.6275 43.017 42.2292C41.178 41.2158 39.7962 39.0774 38.8692 37.2C38.1132 35.67 37.641 34.044 36.9612 32.4828C36.8802 32.2974 36.6324 32.4426 36.6612 32.6088C37.0842 34.9272 38.577 38.7078 40.491 40.9374C45.393 46.6482 48.9978 40.4844 52.3572 38.817C52.8025 38.6487 53.2364 38.4517 53.6562 38.2272C53.7966 38.136 53.8038 37.86 53.6052 37.8246Z" fill="#666666"/>
<path d="M44.0304 35.8968C45.012 37.6086 44.9862 37.9272 45.369 38.229C45.3895 38.2476 45.4148 38.26 45.4421 38.2648C45.4693 38.2696 45.4973 38.2667 45.523 38.2563C45.5486 38.2459 45.5708 38.2284 45.587 38.206C45.6031 38.1835 45.6126 38.157 45.6144 38.1294C45.7146 37.1544 42.42 31.3884 39.24 29.556C39.2055 29.5371 39.1653 29.5312 39.1268 29.5393C39.0883 29.5474 39.054 29.5691 39.03 29.6003C39.006 29.6315 38.994 29.6702 38.9961 29.7095C38.9982 29.7488 39.0142 29.7861 39.0414 29.8146C40.149 30.9882 42.0978 32.5248 44.0304 35.8968Z" fill="#666666"/>
<path d="M56.34 44.484C56.5574 45.6144 56.6486 46.7655 56.6118 47.916C56.6109 47.9933 56.6408 48.0679 56.6949 48.1232C56.7489 48.1785 56.8227 48.21 56.9001 48.2109C56.9774 48.2118 57.0519 48.1819 57.1072 48.1278C57.1625 48.0738 57.1941 47.9999 57.195 47.9226C57.3139 46.7217 57.1151 45.5106 56.6184 44.4108C56.5536 44.2848 56.3226 44.34 56.34 44.484Z" fill="#666666"/>
<path d="M67.6116 45.1134C67.292 45.6925 67.1043 46.335 67.062 46.995C67.0134 47.3922 66.7968 48.3534 67.221 48.5982C67.2419 48.6113 67.266 48.6183 67.2906 48.6183C67.3152 48.6183 67.3393 48.6113 67.3602 48.5982C67.5672 48.4554 67.5594 48.2802 67.5654 48.042C67.6104 46.1868 67.8522 46.2324 67.9164 45.1926C67.9428 45.0204 67.698 44.9808 67.6116 45.1134Z" fill="#666666"/>
<path d="M54.546 79.6398C54.3427 79.4712 54.0865 79.3795 53.8224 79.3807C53.5583 79.3819 53.303 79.4759 53.1012 79.6464C52.6398 80.1044 52.3597 80.7139 52.3128 81.3624C52.125 82.2318 51.366 82.3224 50.6034 82.1778C49.9149 81.9592 49.1803 81.9294 48.4764 82.0914C47.2164 82.5204 46.3302 83.775 45.5214 84.7548C44.0498 86.4243 42.8956 88.3487 42.1158 90.4332C41.8564 90.9754 41.8135 91.5962 41.9958 92.169C42.1467 92.4282 42.377 92.6319 42.6526 92.7501C42.9283 92.8683 43.2346 92.8947 43.5264 92.8254C46.3578 92.5122 47.7264 90.7854 49.6158 89.7906C51.0479 88.9762 52.4049 88.0361 53.6706 86.9814C56.7336 84.6066 57.2538 84.3414 57.4338 83.43C57.7416 81.87 56.466 80.4234 55.1682 79.7592C55.1167 79.7302 55.0566 79.7205 54.9986 79.7321C54.9407 79.7437 54.8889 79.7757 54.8525 79.8223C54.8162 79.8688 54.7978 79.9269 54.8007 79.9859C54.8035 80.0449 54.8275 80.101 54.8682 80.1438C55.701 81.0138 57.0048 81.753 56.8356 83.1648C56.748 83.9004 56.0874 84.3048 55.5504 84.7218C51.9324 87.5358 51.4212 88.0254 50.2302 88.737C49.6302 89.094 48.9972 89.3724 48.4146 89.7444C47.832 90.1164 47.3022 90.5844 46.725 90.9702C45.8688 91.539 44.058 92.3388 43.0476 92.2092C42.2592 92.1078 42.5004 91.2426 42.6702 90.7182C43.473 88.2402 45.0996 86.124 46.7976 84.1452C48.1884 82.5252 48.8256 82.3704 50.2434 82.6614C52.0542 83.0334 52.6602 82.4364 52.8834 81.2436C53.0034 80.607 53.4534 79.4742 54.3234 79.9182C54.4926 80.031 54.72 79.7844 54.546 79.6398Z" fill="#666666"/>
<path d="M47.6286 85.0464C47.2616 84.2584 46.7592 83.5409 46.1442 82.9266C45.6918 82.5066 44.8368 81.903 44.2164 82.3566C43.6308 82.7844 44.295 83.7216 44.5938 84.132C45.0523 84.7676 45.6629 85.278 46.3698 85.6164C46.68 85.7646 46.953 85.3242 46.641 85.146C45.8736 84.7074 45.0246 84.0582 44.1366 83.9136C43.8061 83.8402 43.4602 83.8907 43.1646 84.0556C42.869 84.2206 42.6444 84.4884 42.5334 84.8082C42.3474 85.5282 43.0902 86.133 43.6068 86.5044C44.2671 87.0068 45.0704 87.2855 45.9 87.3C46.1916 87.2874 46.284 86.8296 45.9726 86.7702C45.3921 86.6991 44.8264 86.5371 44.2962 86.2902C43.8912 86.0736 43.0362 85.5618 43.0506 85.0302C43.0704 84.2418 44.1576 84.4302 44.6076 84.6396C45.2112 84.924 45.7872 85.2888 46.3638 85.62C46.4562 85.461 46.5492 85.3086 46.635 85.1496C46.1541 84.9238 45.7202 84.6091 45.3564 84.222C45.1764 84.03 44.2638 82.902 44.6808 82.7442C44.9262 82.653 45.3378 82.9344 45.5286 83.076C46.2202 83.7065 46.8222 84.4288 47.3178 85.2228C47.3439 85.2582 47.3821 85.2827 47.4252 85.2918C47.4682 85.3009 47.5131 85.294 47.5513 85.2723C47.5895 85.2506 47.6185 85.2156 47.6328 85.174C47.647 85.1324 47.6455 85.087 47.6286 85.0464Z" fill="#666666"/>
<path d="M92.1666 101.896C91.7094 100.392 89.9142 99.7092 88.4694 99.7092C88.4107 99.7106 88.3544 99.7329 88.3106 99.7721C88.2668 99.8112 88.2384 99.8647 88.2305 99.9229C88.2225 99.9811 88.2356 100.04 88.2672 100.09C88.2989 100.139 88.3472 100.176 88.4034 100.193C89.5434 100.591 91.0668 100.657 91.5372 102.008C91.7694 102.677 91.398 103.294 91.1268 103.883C89.1588 108.117 88.9758 108.648 88.3104 109.774C87.966 110.35 87.5484 110.874 87.1908 111.437C86.4108 112.651 85.9374 114.696 83.7852 116.108C83.5404 116.274 83.202 116.473 82.9038 116.327C82.3092 116.045 82.2468 114.232 82.2216 113.577C82.1991 112.723 82.2429 111.868 82.3524 111.02C82.8238 110.991 83.2832 110.86 83.6988 110.635C83.7536 110.6 83.7943 110.547 83.8136 110.485C83.8329 110.423 83.8295 110.356 83.804 110.297C83.7786 110.237 83.7327 110.188 83.6746 110.159C83.6165 110.13 83.55 110.123 83.487 110.138C83.1417 110.248 82.7908 110.34 82.4358 110.412C82.5216 109.844 82.6122 109.363 82.7046 108.912C82.9203 108.936 83.1374 108.946 83.3544 108.94C83.4242 108.937 83.49 108.907 83.5383 108.856C83.5865 108.806 83.6134 108.739 83.6134 108.669C83.6134 108.599 83.5865 108.532 83.5383 108.481C83.49 108.431 83.4242 108.4 83.3544 108.397C83.1816 108.39 83.0034 108.378 82.8216 108.365C82.8768 108.117 82.9336 107.87 82.992 107.624C83.3298 107.796 83.661 107.984 84.0042 108.145C84.0439 108.17 84.0919 108.178 84.1374 108.167C84.1829 108.156 84.2223 108.128 84.2469 108.088C84.2714 108.048 84.2792 108 84.2685 107.955C84.2577 107.909 84.2293 107.87 84.1896 107.845C83.8476 107.584 83.4866 107.348 83.1096 107.141C83.2242 106.622 83.4134 106.123 83.6712 105.659C84.4944 104.291 85.9848 104.811 86.9046 103.771C87.091 103.549 87.2121 103.279 87.2545 102.993C87.2969 102.706 87.2588 102.413 87.1446 102.147C86.9526 101.511 86.7846 100.227 87.8046 100.246C88.017 100.246 88.0764 99.921 87.8646 99.8808C87.6715 99.8387 87.4707 99.8492 87.2832 99.9114C86.991 98.9646 86.2482 98.655 85.5432 97.1514C84.8694 95.7156 83.8992 95.6274 82.4682 96.3432C81.4638 96.8502 79.5282 97.9368 79.5198 99.0594C79.5132 99.405 79.6398 99.594 80.5866 101.054C80.8452 101.451 81.1302 101.829 81.4266 102.2C82.0182 102.943 83.0286 104.272 84.0666 104.462C83.2727 105.043 82.7314 105.905 82.554 106.873C81.702 106.508 80.3472 106.203 79.9356 107.011C79.629 107.605 80.4564 108.103 80.9388 108.358C79.9464 108.524 79.476 109.198 79.5318 109.84C79.6146 110.729 80.8614 110.986 81.7374 111.029C81.5147 112.584 81.5506 114.165 81.8436 115.709C81.8801 115.971 81.9808 116.22 82.1369 116.434C82.293 116.648 82.4995 116.82 82.7382 116.935C83.3742 117.16 83.9838 116.743 84.4674 116.371C86.733 114.598 86.679 113.208 88.2906 110.925C89.1661 109.551 89.9199 108.103 90.5436 106.598C92.0322 103.417 92.454 102.832 92.1666 101.896ZM80.6844 100.173C80.1384 99.2916 79.7568 99.078 80.5254 98.2914C80.9681 97.8579 81.4738 97.4938 82.0254 97.2114C83.4096 96.4314 84.3618 95.9574 85.0332 97.3836C85.2565 97.899 85.5462 98.3831 85.8948 98.8236C86.2987 99.2263 86.6035 99.7175 86.7852 100.258C86.1798 100.968 86.5698 101.909 86.7096 102.574C86.8818 103.421 86.0868 103.793 85.4046 103.978C85.0026 104.074 84.6108 104.208 84.2346 104.378C84.2472 104.361 84.2558 104.342 84.2599 104.321C84.2639 104.3 84.2632 104.278 84.2579 104.258C84.2525 104.237 84.2427 104.218 84.229 104.202C84.2153 104.185 84.1981 104.172 84.1788 104.164C82.98 103.576 81.3852 101.3 80.6844 100.173ZM80.5644 107.104C81.0864 106.843 81.8892 107.136 82.437 107.362C82.3644 107.677 82.3008 107.989 82.2378 108.287C82.0626 108.24 81.8892 108.182 81.7176 108.118C81.4992 108.038 80.0814 107.349 80.565 107.104H80.5644ZM80.0676 109.684C80.139 108.811 81.3036 108.844 82.113 108.87C82.0008 109.402 81.9006 109.937 81.8202 110.475C81.2016 110.48 80.022 110.321 80.0682 109.68L80.0676 109.684Z" fill="#666666"/>
<path d="M46.2 78.6C46.1948 78.8762 46.2758 79.1471 46.4316 79.3752C46.7476 80.0311 47.1535 80.6397 47.6376 81.1836C47.8277 81.4681 48.0941 81.6933 48.4062 81.8334C48.5454 81.8718 48.7248 81.7266 48.6648 81.5748C48.5185 81.3206 48.325 81.0966 48.0948 80.9148C46.6404 79.3746 46.7946 78.8148 46.3788 78.5292C46.3629 78.5194 46.3449 78.5134 46.3263 78.5118C46.3077 78.5102 46.289 78.5129 46.2717 78.5198C46.2543 78.5267 46.2388 78.5375 46.2263 78.5514C46.2139 78.5653 46.2049 78.582 46.2 78.6Z" fill="#666666"/>
<path d="M46.6014 78.7656C47.7516 77.8944 48.6948 76.749 50.166 76.3998C50.3564 76.3304 50.5647 76.3283 50.7564 76.3938C50.9481 76.4593 51.1115 76.5885 51.2196 76.7598C51.8615 77.8138 52.4496 78.8996 52.9818 80.013C53.1408 80.3376 53.619 80.052 53.466 79.728C53.0382 78.828 52.5594 77.9448 52.0542 77.0844C51.6576 76.4076 51.246 75.7194 50.3514 75.8244C48.9042 75.996 47.1306 77.4816 46.3632 78.5208C46.2558 78.6654 46.4622 78.8712 46.6014 78.7656Z" fill="#666666"/>
<path d="M65.4984 95.0118C64.7623 95.0928 64.0348 95.2392 63.3246 95.4492C60.9846 96.0318 50.9886 98.565 48.7746 99.5892C48.5166 99.7092 48.7146 100.045 48.9546 100.006C50.5398 99.7542 51.2256 99.4254 56.2032 98.0652C55.809 98.5386 52.764 102.892 52.4664 103.564C52.3344 103.864 52.6836 104.206 52.9464 103.936C53.4432 103.418 56.4978 98.7234 56.73 98.2956C56.8419 98.6655 56.9813 99.0265 57.147 99.3756C57.3366 99.8736 58.0746 101.814 58.2474 102.291C58.3804 102.807 58.5738 103.305 58.8234 103.775C58.9626 103.981 59.3514 103.928 59.3274 103.636C59.2337 103.113 59.0708 102.605 58.8432 102.125C58.4004 100.942 58.0254 100.025 57.684 99.2298C57.5535 98.851 57.393 98.4832 57.204 98.13C59.169 98.772 59.712 99.2292 61.683 99.654C62.1072 99.7452 62.6976 100.047 63.123 99.8724C63.1616 99.8619 63.1945 99.8364 63.2144 99.8017C63.2344 99.7669 63.2397 99.7257 63.2292 99.687C63.0276 98.9946 61.9656 99.1206 60.3798 98.607C59.411 98.2011 58.3966 97.9143 57.3588 97.7526C61.479 96.6468 64.8438 95.886 65.6388 95.5524C65.9202 95.4366 65.7768 94.9932 65.4984 95.0118Z" fill="#666666"/>
<path d="M64.935 96.3504C64.743 96.8958 64.968 97.3248 64.842 98.5704C64.6549 100.441 63.7787 102.175 62.3837 103.435C60.9888 104.695 59.175 105.391 57.2952 105.388C55.6891 105.452 54.0947 105.089 52.6752 104.335C51.1644 103.44 50.4012 101.846 49.4148 100.465C49.2948 100.299 48.9846 100.392 49.0638 100.611C50.4312 104.4 52.6926 105.914 56.6304 106.15C58.7617 106.313 60.8749 105.657 62.5384 104.314C64.202 102.972 65.2905 101.046 65.5818 98.928C65.694 98.1066 65.8494 96.9438 65.31 96.2448C65.2056 96.1056 64.9866 96.204 64.935 96.3504Z" fill="#666666"/>
<path d="M32.1 68.2038C31.5829 67.6808 31.0171 67.2083 30.4104 66.7926C28.5252 65.3454 20.277 59.0628 18.1596 58.0068C17.934 57.8946 17.6796 58.1796 17.8812 58.3668C18.8466 59.2668 19.2168 59.4216 23.9412 62.8596C23.4504 62.8512 18.09 63.1428 17.2626 63.363C17.1954 63.3864 17.1384 63.4323 17.1011 63.4928C17.0639 63.5534 17.0486 63.625 17.058 63.6955C17.0674 63.766 17.1008 63.8311 17.1526 63.8798C17.2044 63.9286 17.2714 63.9579 17.3424 63.963C17.9601 63.9874 18.5788 63.9562 19.191 63.87C19.9644 63.8058 23.5482 63.516 24.087 63.4194C23.8823 63.7141 23.7007 64.0242 23.544 64.347C23.2722 64.8174 22.1586 66.687 21.8676 67.1496C21.5547 67.5643 21.2944 68.0161 21.0924 68.4948C21.0784 68.5518 21.0833 68.6117 21.1061 68.6658C21.1289 68.7198 21.1685 68.7651 21.2191 68.7949C21.2697 68.8246 21.3285 68.8373 21.3868 68.831C21.4452 68.8247 21.4999 68.7998 21.543 68.76C21.8859 68.3681 22.1734 67.931 22.3974 67.461C23.274 65.9814 23.2668 66.0072 24.0174 64.632C24.2065 64.3325 24.3705 64.0178 24.5076 63.6912C24.8076 64.5012 26.46 70.1502 27.0588 69.363C27.3378 68.9952 25.167 63.954 24.9054 63.5718C29.6196 67.059 30.9888 68.2812 31.7454 68.6718C31.8076 68.7012 31.8781 68.7083 31.945 68.6919C32.0118 68.6755 32.071 68.6366 32.1126 68.5817C32.1542 68.5268 32.1756 68.4593 32.1733 68.3905C32.171 68.3217 32.1451 68.2557 32.1 68.2038Z" fill="#666666"/>
<path d="M30.7458 68.6148C29.7594 68.9862 29.4342 70.0392 27.135 70.7748C25.724 71.2267 24.2116 71.2554 22.7845 70.8573C21.3573 70.4593 20.0781 69.6519 19.1046 68.535C18.0479 67.3663 17.2948 65.9557 16.9116 64.4274C16.4916 62.526 17.3364 60.8118 17.8458 59.0274C17.8563 58.983 17.8506 58.9363 17.8297 58.8956C17.8089 58.855 17.7744 58.8231 17.7322 58.8056C17.69 58.7881 17.643 58.7861 17.5996 58.8C17.5561 58.8139 17.519 58.8429 17.4948 58.8816C15.4404 62.2356 15.4956 65.1504 18.144 68.5884C19.4021 70.2475 21.2318 71.3797 23.2778 71.7654C25.3238 72.151 27.4402 71.7625 29.2158 70.6752C29.8632 70.2756 30.816 69.684 31.0158 68.8998C31.0608 68.733 30.9186 68.55 30.7458 68.6148Z" fill="#666666"/>
<path d="M34.62 88.545C34.3961 89.6731 34.3984 90.8345 34.627 91.9618C34.8555 93.089 35.3057 94.1596 35.9514 95.1114C36.324 95.667 36.8724 96.4914 37.5282 96.7146C37.7406 96.7872 37.866 96.5424 37.7934 96.3702C37.5654 95.8302 34.6506 93.5226 34.9644 88.5978C34.9642 88.5558 34.949 88.5153 34.9216 88.4835C34.8941 88.4517 34.8563 88.4308 34.8148 88.4244C34.7733 88.418 34.7309 88.4267 34.6952 88.4488C34.6595 88.4709 34.6328 88.505 34.62 88.545Z" fill="#666666"/>
<path d="M37.6698 89.6778C37.7257 90.6944 37.9982 91.6873 38.469 92.5901C38.9399 93.4928 39.5981 94.2845 40.3998 94.9122C40.8804 95.378 41.5031 95.6696 42.1686 95.7408C42.1988 95.7397 42.2281 95.7301 42.2531 95.713C42.2781 95.6959 42.2976 95.672 42.3094 95.6441C42.3213 95.6163 42.3249 95.5856 42.32 95.5558C42.315 95.5259 42.3016 95.4981 42.2814 95.4756C41.6598 94.7556 40.7484 94.6956 39.5052 93.057C38.7446 92.0455 38.2309 90.8702 38.0052 89.625C37.9746 89.4462 37.6632 89.4858 37.6698 89.6778Z" fill="#666666"/>
<path d="M101.595 107.468C102.407 106.656 103.05 105.691 103.487 104.628C103.923 103.566 104.145 102.428 104.14 101.279C104.14 100.61 104.14 99.621 103.715 99.0666C103.577 98.8866 103.337 99.027 103.304 99.2058C103.184 99.8658 104.352 103.306 101.33 107.249C101.22 107.396 101.449 107.607 101.595 107.468Z" fill="#666666"/>
<path d="M99.6936 104.831C100.215 103.956 100.543 102.979 100.655 101.966C100.767 100.953 100.661 99.9284 100.343 98.9604C100.201 98.3061 99.8473 97.7169 99.336 97.2846C99.3103 97.2681 99.2804 97.2594 99.2499 97.2596C99.2193 97.2598 99.1895 97.2689 99.1641 97.2857C99.1386 97.3026 99.1186 97.3265 99.1065 97.3545C99.0944 97.3826 99.0908 97.4135 99.096 97.4436C99.2226 98.3634 99.9444 99.0204 100.063 101.002C100.133 102.265 99.9034 103.527 99.3942 104.686C99.3096 104.858 99.5928 104.996 99.6936 104.831Z" fill="#666666"/>
<path d="M18.4356 93.2094C18.3366 93.1164 18.132 93.2094 18.1902 93.3552C18.3252 93.6954 18.9348 94.758 19.3164 95.6544C19.899 97.0206 19.8564 97.5792 20.1978 97.9998C20.2196 98.0212 20.2466 98.0365 20.2762 98.0442C20.3057 98.0519 20.3368 98.0517 20.3662 98.0437C20.3957 98.0357 20.4226 98.0201 20.4442 97.9985C20.4658 97.9769 20.4813 97.9501 20.4894 97.9206C20.5208 97.4924 20.441 97.0633 20.2578 96.675C19.9326 95.7 19.2096 93.9414 18.4356 93.2094Z" fill="#666666"/>
<path d="M23.2986 96.582C23.2026 95.535 23.0586 94.7886 23.0586 93.7794C23.0839 93.4739 23.0682 93.1663 23.0118 92.865C23.003 92.8352 22.9857 92.8086 22.9621 92.7884C22.9385 92.7681 22.9096 92.7552 22.8788 92.751C22.848 92.7468 22.8167 92.7516 22.7885 92.7648C22.7604 92.778 22.7367 92.799 22.7202 92.8254C22.537 93.295 22.4843 93.8055 22.5678 94.3026C22.6158 95.2272 22.8564 96.93 22.8462 97.0722C22.7502 97.0919 22.6526 97.1029 22.5546 97.1052C22.0365 97.116 21.522 97.1941 21.024 97.3374C20.8986 97.3848 20.8584 97.6032 21.024 97.6374C21.6117 97.6941 22.2043 97.6739 22.7868 97.5774C22.8779 97.5864 22.9698 97.5738 23.055 97.5404C23.1402 97.507 23.2163 97.4539 23.277 97.3854C23.4156 97.1742 23.3196 96.807 23.2986 96.582Z" fill="#666666"/>
<path d="M26.1876 88.3464C26.4651 88.0522 26.663 87.6922 26.7627 87.3003C26.8624 86.9085 26.8607 86.4976 26.7576 86.1066C26.7226 85.8938 26.6445 85.6903 26.5282 85.5087C26.4119 85.327 26.2598 85.171 26.0812 85.0501C25.9026 84.9292 25.7012 84.846 25.4894 84.8055C25.2775 84.7651 25.0596 84.7682 24.849 84.8148C24.669 83.9664 23.7756 83.112 23.0268 83.3304C22.7994 81.9504 21.0228 80.9466 20.0982 82.0782C19.9051 81.8398 19.6721 81.6368 19.4094 81.4782C17.6094 80.3478 16.4058 80.9034 16.0902 82.1544C15.9687 82.5965 15.9438 83.0596 16.017 83.5122C15.8191 83.4477 15.6087 83.4309 15.403 83.4632C15.1973 83.4955 15.0022 83.576 14.8336 83.6981C14.665 83.8202 14.5276 83.9804 14.4328 84.1658C14.3379 84.3511 14.2882 84.5562 14.2878 84.7644C14.0866 84.7669 13.8886 84.8159 13.7094 84.9075C13.5302 84.9991 13.3746 85.1308 13.2547 85.2924C13.1348 85.454 13.0538 85.6412 13.0181 85.8392C12.9824 86.0373 12.9929 86.2409 13.0488 86.4342C11.766 86.6418 10.8396 87.87 11.0742 88.7796C11.2589 89.2826 11.6203 89.7012 12.091 89.9572C12.5616 90.2132 13.1094 90.2892 13.632 90.171C13.6016 90.8036 13.741 91.4327 14.0358 91.9932C14.2257 92.3303 14.5248 92.5926 14.8836 92.7371C15.2425 92.8816 15.6399 92.8996 16.0104 92.7882C16.5012 93.8646 18.1104 93.7152 18.3822 92.331C18.6131 92.4744 18.874 92.5626 19.1445 92.5886C19.415 92.6146 19.6879 92.5778 19.9419 92.4809C20.1959 92.3841 20.424 92.23 20.6086 92.0305C20.7932 91.831 20.9292 91.5915 21.006 91.3308C21.1603 91.5202 21.3559 91.6719 21.5779 91.7741C21.7998 91.8763 22.0421 91.9265 22.2864 91.9207C22.5307 91.9149 22.7704 91.8533 22.9872 91.7407C23.204 91.6281 23.3922 91.4673 23.5374 91.2708C23.6896 91.5038 23.8962 91.6964 24.1392 91.832C24.3823 91.9676 24.6546 92.0421 24.9329 92.0493C25.2111 92.0564 25.4869 91.9959 25.7366 91.873C25.9863 91.75 26.2024 91.5683 26.3664 91.3434C27.051 90.3636 27.2082 88.9242 26.1876 88.3464ZM19.6146 89.6184C19.6009 89.6711 19.5734 89.7192 19.5348 89.7576C19.4963 89.796 19.4481 89.8234 19.3954 89.837C19.3427 89.8505 19.2873 89.8497 19.235 89.8346C19.1827 89.8194 19.1354 89.7906 19.098 89.751C19.0589 89.7103 19.0335 89.6585 19.0252 89.6027C19.017 89.5469 19.0262 89.4899 19.0518 89.4396C18.9732 89.1396 18.7464 88.5576 18.4554 88.611C18.3426 88.632 18.2376 88.7844 18.1704 88.863C18.1381 88.8951 18.098 88.9182 18.054 88.9302C18.01 88.9421 17.9637 88.9424 17.9196 88.931C17.8755 88.9196 17.8351 88.897 17.8024 88.8653C17.7697 88.8336 17.7458 88.7939 17.733 88.7502C17.67 88.518 17.4792 87.9852 17.1564 88.2336C16.9698 88.3776 16.8792 88.6452 16.6992 88.8102C16.6674 88.8419 16.6278 88.8647 16.5844 88.8764C16.541 88.8881 16.4953 88.8882 16.4519 88.8768C16.4084 88.8654 16.3687 88.8429 16.3366 88.8114C16.3045 88.78 16.2812 88.7406 16.269 88.6974C16.2555 88.5094 16.2039 88.3261 16.1172 88.1587C16.0306 87.9912 15.9107 87.8432 15.765 87.7236C15.3492 87.4836 15.0942 87.8952 14.97 88.2468C14.9613 88.2793 14.94 88.3069 14.9108 88.3237C14.8817 88.3405 14.8471 88.345 14.8146 88.3362C14.7821 88.3275 14.7545 88.3062 14.7377 88.277C14.721 88.2479 14.7165 88.2133 14.7252 88.1808C14.747 87.8929 14.8635 87.6204 15.0564 87.4056C15.4494 87.057 16.2426 87.1272 16.6134 88.101C16.6805 87.9728 16.78 87.8643 16.902 87.7864C17.024 87.7085 17.1642 87.6639 17.3088 87.657C17.4788 87.6685 17.6421 87.7282 17.7794 87.8292C17.9167 87.9301 18.0223 88.0681 18.084 88.227C18.6996 87.807 19.2312 88.347 19.4892 89.0748C19.5767 89.2423 19.6199 89.4295 19.6146 89.6184ZM20.2242 84.7482C19.59 83.9328 18.7506 84.5922 19.1244 85.1526C19.2834 85.3926 18.939 85.6326 18.747 85.4442C18.6972 85.3904 18.636 85.3485 18.5679 85.3215C18.4998 85.2945 18.4265 85.2831 18.3534 85.2882C18.2803 85.2932 18.2092 85.3146 18.1455 85.3508C18.0817 85.3869 18.0269 85.4369 17.985 85.497C17.9493 85.5549 17.9256 85.6193 17.9153 85.6865C17.905 85.7537 17.9083 85.8223 17.925 85.8882C17.9434 85.9418 17.9783 85.9882 18.0246 86.0208C18.3006 86.0664 18.1788 86.5404 17.8524 86.478C17.0592 86.3262 17.352 84.5856 18.5544 84.8214C18.5771 84.5972 18.6756 84.3874 18.8337 84.2267C18.9918 84.0661 19.2 83.9642 19.4238 83.9379C19.6477 83.9116 19.8738 83.9624 20.0648 84.0821C20.2559 84.2017 20.4004 84.3829 20.4744 84.5958C20.4842 84.6279 20.4831 84.6624 20.4711 84.6938C20.4592 84.7252 20.4371 84.7517 20.4085 84.7691C20.3798 84.7866 20.3461 84.794 20.3128 84.7902C20.2794 84.7864 20.2482 84.7717 20.2242 84.7482ZM23.3184 86.0142C23.0397 85.9694 22.7539 86.0157 22.5036 86.1462C22.317 86.271 22.1844 86.5458 22.431 86.6898C22.6026 86.79 22.5966 87.1278 22.371 87.1602C22.2108 87.1645 22.058 87.2281 21.9419 87.3385C21.8258 87.4489 21.7548 87.5985 21.7425 87.7582C21.7301 87.918 21.7775 88.0766 21.8753 88.2035C21.9731 88.3304 22.1144 88.4166 22.272 88.4454C22.4442 88.5054 22.6218 88.5132 22.7424 88.6644C22.9536 88.9296 22.5204 89.2932 21.768 88.8234C21.5886 88.7168 21.4415 88.5633 21.3428 88.3794C21.244 88.1955 21.1973 87.9882 21.2075 87.7797C21.2177 87.5713 21.2846 87.3695 21.4009 87.1962C21.5172 87.0229 21.6786 86.8845 21.8676 86.796C21.5862 86.1456 22.233 85.296 23.3718 85.7226C23.511 85.7742 23.5044 86.0274 23.3184 86.0142Z" fill="#666666"/>
<path d="M91.0536 67.2498C89.807 71.2814 87.767 75.0231 85.0536 78.255C84.9263 78.4472 84.737 78.5899 84.5172 78.6594C84.1728 78.708 84.165 78.3876 84.1794 78.1362C84.285 77.1178 84.4822 76.1109 84.7686 75.1278C85.2714 73.0536 85.779 70.9794 86.3856 68.9328C86.682 67.932 86.9454 66.7236 87.6642 65.9244C88.113 65.4258 88.698 65.6454 89.2608 65.8044C89.8206 65.9659 90.3695 66.1629 90.9042 66.3942C91.1502 66.4986 91.362 66.1746 91.1232 66.0228C90.4314 65.5842 88.8792 64.9062 88.0752 65.0226C87.0942 65.1642 86.5878 66.426 86.286 67.2354C85.2008 70.674 84.3116 74.1715 83.6226 77.7108C83.5588 77.9264 83.5435 78.1535 83.5779 78.3757C83.6122 78.5979 83.6953 78.8097 83.8212 78.996C83.9739 79.1377 84.1691 79.2249 84.3764 79.2441C84.5838 79.2633 84.7917 79.2134 84.9678 79.1022C85.3805 78.8022 85.7351 78.4295 86.0142 78.0024C88.5264 74.8526 90.4092 71.2489 91.56 67.3878C91.5783 67.3207 91.5692 67.249 91.5346 67.1886C91.5001 67.1282 91.4429 67.0839 91.3758 67.0656C91.3086 67.0473 91.237 67.0565 91.1766 67.091C91.1161 67.1255 91.0719 67.1827 91.0536 67.2498Z" fill="#666666"/>
<path d="M89.76 68.4888C89.7838 68.4882 89.807 68.4816 89.8275 68.4694C89.848 68.4573 89.8651 68.4402 89.8771 68.4196C89.8891 68.3991 89.8957 68.3758 89.8962 68.352C89.8967 68.3282 89.8911 68.3047 89.88 68.2836C89.7042 67.917 89.22 67.8228 88.8528 67.7466C88.4364 67.6605 88.0062 67.6673 87.5928 67.7664C87.42 67.8054 87.4668 68.0664 87.6324 68.0712C89.0802 68.1252 89.2572 68.5494 89.76 68.4888Z" fill="#666666"/>
<path d="M88.7478 70.86C88.7686 70.8601 88.7891 70.8552 88.8077 70.8458C88.8263 70.8364 88.8423 70.8228 88.8546 70.806C88.8669 70.7892 88.875 70.7697 88.8784 70.7492C88.8817 70.7287 88.8802 70.7076 88.8738 70.6878C88.8072 70.3968 88.4694 70.2306 88.218 70.125C87.8911 69.9899 87.537 69.9332 87.1842 69.9594C87.1412 69.962 87.1007 69.9809 87.0711 70.0123C87.0416 70.0437 87.0251 70.0852 87.0251 70.1283C87.0251 70.1715 87.0416 70.213 87.0711 70.2444C87.1007 70.2757 87.1412 70.2947 87.1842 70.2972C88.1022 70.3896 88.374 70.8426 88.7478 70.86Z" fill="#666666"/>
<path d="M86.568 72.0072C86.328 72.033 86.316 72.399 86.568 72.3912C86.7542 72.3852 86.9396 72.4191 87.1116 72.4908C87.2666 72.5729 87.4284 72.6416 87.5952 72.696C87.6942 72.7176 87.8178 72.6246 87.7752 72.516C87.6507 72.3174 87.468 72.1619 87.252 72.0709C87.036 71.9798 86.7971 71.9576 86.568 72.0072Z" fill="#666666"/>
<path d="M89.2116 64.4076C89.3404 63.6697 89.5414 62.9462 89.8116 62.2476C89.9004 62.0298 90.0258 61.8276 89.9442 61.5978C89.9342 61.56 89.9097 61.5277 89.876 61.5079C89.8422 61.4881 89.8021 61.4825 89.7642 61.4922C89.3442 61.635 89.2164 62.3472 89.115 62.7246C88.9546 63.2547 88.8807 63.8072 88.896 64.3608C88.8929 64.3815 88.894 64.4026 88.8991 64.4229C88.9042 64.4433 88.9132 64.4624 88.9257 64.4792C88.9382 64.496 88.9538 64.5102 88.9718 64.521C88.9898 64.5318 89.0097 64.5389 89.0304 64.542C89.0511 64.545 89.0723 64.544 89.0926 64.5389C89.1129 64.5338 89.132 64.5248 89.1489 64.5123C89.1657 64.4998 89.1799 64.4842 89.1907 64.4662C89.2014 64.4482 89.2086 64.4283 89.2116 64.4076Z" fill="#666666"/>
<path d="M90.6294 64.8714C91.0757 63.9398 91.4329 62.9681 91.6962 61.9692C91.8364 61.6602 91.8848 61.3173 91.8354 60.9816C91.825 60.9482 91.8062 60.9181 91.7809 60.8941C91.7555 60.87 91.7244 60.8529 91.6905 60.8443C91.6566 60.8357 91.6211 60.8359 91.5874 60.8449C91.5536 60.854 91.5227 60.8715 91.4976 60.8958C91.3251 61.1324 91.2213 61.4121 91.1976 61.704C90.9276 62.8224 90.4278 64.5156 90.3576 64.764C90.3481 64.7989 90.3517 64.8362 90.3679 64.8686C90.3841 64.9009 90.4117 64.9262 90.4454 64.9395C90.4791 64.9528 90.5165 64.9532 90.5504 64.9407C90.5844 64.9281 90.6125 64.9034 90.6294 64.8714Z" fill="#666666"/>
<path d="M92.7366 62.373C92.5055 62.7543 92.3378 63.1705 92.2398 63.6054C92.0521 64.0889 91.8213 64.5546 91.5504 64.9968C91.437 65.1822 91.7088 65.3208 91.8288 65.163C92.1583 64.738 92.4321 64.2727 92.6436 63.7782C92.8842 63.3687 92.9821 62.891 92.922 62.4198C92.917 62.4009 92.9071 62.3837 92.8932 62.37C92.8793 62.3562 92.862 62.3465 92.8431 62.3417C92.8242 62.3369 92.8043 62.3373 92.7856 62.3428C92.7669 62.3483 92.7499 62.3588 92.7366 62.373Z" fill="#666666"/>
<path d="M96.3144 58.5102C96.6744 56.682 95.5086 55.1304 94.6116 55.635C93.9792 53.9094 91.8864 53.796 91.584 54.5352C91.3179 54.377 91.0179 54.2848 90.7089 54.2663C90.3999 54.2479 90.091 54.3036 89.808 54.429C89.5656 54.5598 89.3802 54.7756 89.2872 55.0349C89.1943 55.2942 89.2005 55.5786 89.3046 55.8336C87.6216 55.6752 86.952 57.1464 87.5952 57.987C87.6983 58.1649 87.8658 58.2964 88.0631 58.3544C88.2604 58.4123 88.4724 58.3923 88.6554 58.2984C88.6783 58.2843 88.6966 58.2639 88.7081 58.2396C88.7197 58.2153 88.7239 58.1882 88.7203 58.1615C88.7168 58.1349 88.7056 58.1098 88.6881 58.0894C88.6706 58.069 88.6476 58.054 88.6218 58.0464C87.2064 57.6264 87.9324 55.9356 89.6358 56.4168C89.6849 56.4289 89.7365 56.4264 89.7842 56.4097C89.8319 56.393 89.8738 56.3628 89.9047 56.3228C89.9356 56.2827 89.9541 56.2346 89.9582 56.1842C89.9622 56.1338 89.9515 56.0833 89.9274 56.0388C89.6934 55.5498 89.6226 54.9786 90.2652 54.8064C90.768 54.7484 91.2747 54.8765 91.6896 55.1664C91.7343 55.1911 91.7853 55.2023 91.8362 55.1986C91.8872 55.195 91.936 55.1766 91.9767 55.1457C92.0174 55.1148 92.0483 55.0728 92.0656 55.0247C92.0829 54.9766 92.0859 54.9246 92.0742 54.8748C91.9872 54.504 92.7234 54.6216 92.9022 54.6696C93.2518 54.77 93.5646 54.9702 93.8024 55.2455C94.0401 55.5208 94.1924 55.8595 94.2408 56.22C94.2678 56.4846 94.7034 56.604 94.7508 56.286C94.803 55.935 95.1882 56.094 95.3508 56.2596C95.6274 56.6103 95.811 57.0251 95.8844 57.4657C95.9578 57.9062 95.9187 58.3582 95.7708 58.7796C95.703 58.998 96.0162 59.1996 96.168 59.0118C96.288 58.866 96.3006 59.3562 96.294 59.376C96.229 60.0745 95.9463 60.735 95.4858 61.2642C95.301 61.4112 94.9416 61.4766 94.8498 61.185C94.8369 61.1421 94.8119 61.1038 94.7777 61.0748C94.7435 61.0459 94.7016 61.0274 94.6572 61.0218C94.6127 61.0161 94.5675 61.0235 94.5272 61.043C94.4868 61.0625 94.453 61.0933 94.4298 61.1316C94.035 61.7382 92.7564 60.4974 93.2634 59.6544C93.2879 59.6109 93.2975 59.5606 93.2907 59.5112C93.284 59.4617 93.2612 59.4158 93.2259 59.3805C93.1906 59.3452 93.1447 59.3224 93.0953 59.3157C93.0458 59.3089 92.9955 59.3185 92.952 59.343C92.1336 59.8446 91.443 59.5644 91.4082 59.1708C91.4071 59.1177 91.3871 59.0667 91.3517 59.027C91.3164 58.9873 91.2681 58.9615 91.2154 58.9543C91.1628 58.9471 91.1093 58.9589 91.0645 58.9875C91.0198 59.0162 90.9868 59.0599 90.9714 59.1108C90.9345 59.3022 90.8489 59.4809 90.7227 59.6295C90.5966 59.7781 90.4343 59.8917 90.2514 59.9592C90.1546 59.9817 90.054 59.9833 89.9565 59.9637C89.859 59.9441 89.7669 59.9039 89.6862 59.8458C89.6056 59.7876 89.5383 59.7129 89.4889 59.6266C89.4395 59.5403 89.4092 59.4444 89.4 59.3454C89.3928 59.1864 89.1408 59.133 89.1084 59.3058C88.9284 60.2916 90.4284 60.963 91.1958 59.703C91.3964 59.884 91.6442 60.0044 91.9104 60.0501C92.1767 60.0959 92.4505 60.0652 92.7 59.9616C92.6052 61.0686 93.8346 62.1108 94.5948 61.6116C94.6963 61.7129 94.822 61.7867 94.9599 61.8261C95.0978 61.8654 95.2435 61.8691 95.3832 61.8366C95.6352 61.739 95.8611 61.584 96.0428 61.384C96.2246 61.1839 96.3572 60.9443 96.4302 60.684C96.7314 59.9364 97.08 58.7574 96.3144 58.5102Z" fill="#666666"/>
<path d="M108.811 80.223C106.995 79.203 104.731 80.0256 103.331 81.396C103.201 81.5238 103.371 81.6876 103.504 81.6078C104.239 81.0926 105.048 80.6926 105.904 80.4216C106.678 80.2103 107.5 80.2596 108.244 80.562C106.285 82.6194 104.833 81.7494 103.72 81.9324C103.671 81.9376 103.625 81.9604 103.591 81.9965C103.557 82.0326 103.537 82.0798 103.534 82.1294C103.532 82.179 103.547 82.2279 103.578 82.2671C103.608 82.3064 103.652 82.3334 103.7 82.3434C105.787 82.7832 107.304 82.5498 108.902 80.6538C108.928 80.621 108.947 80.5827 108.957 80.5417C108.967 80.5006 108.968 80.4579 108.959 80.4166C108.95 80.3753 108.932 80.3365 108.907 80.303C108.881 80.2695 108.848 80.2422 108.811 80.223Z" fill="#666666"/>
<path d="M70.9116 38.4342C69.9152 37.3204 69.1746 36.0021 68.7418 34.5717C68.3091 33.1413 68.1947 31.6335 68.4066 30.1542C68.4113 30.1376 68.4115 30.12 68.4071 30.1032C68.4028 30.0865 68.394 30.0712 68.3818 30.059C68.3696 30.0468 68.3543 30.038 68.3376 30.0337C68.3208 30.0293 68.3032 30.0295 68.2866 30.0342C67.1079 30.222 65.9013 30.1242 64.7682 29.7492C64.7496 29.7438 64.7297 29.7448 64.7116 29.752C64.6936 29.7592 64.6785 29.7721 64.6686 29.7888C64.4179 30.2738 64.0499 30.6883 63.598 30.9947C63.1462 31.301 62.6249 31.4895 62.0816 31.5429C61.5382 31.5963 60.9902 31.5129 60.4874 31.3003C59.9845 31.0877 59.5429 30.7527 59.2026 30.3258C59.1421 30.2252 59.052 30.1457 58.9446 30.0982C58.8372 30.0508 58.7177 30.0376 58.6026 30.0606C57.7026 30.1398 56.7804 30.2592 55.8858 30.405C55.87 30.3902 55.85 30.3808 55.8285 30.378C55.8071 30.3752 55.7853 30.3793 55.7662 30.3895C55.7472 30.3998 55.7319 30.4158 55.7224 30.4353C55.713 30.4547 55.7099 30.4767 55.7136 30.498C56.76 35.826 53.283 37.1076 54.5256 40.992C54.8778 42.0918 55.4466 43.1124 55.6986 44.2452C55.7067 44.2724 55.7251 44.2952 55.7499 44.3089C55.7747 44.3226 55.8039 44.326 55.8312 44.3184C60.0599 43.6081 64.3963 43.9007 68.4912 45.1728C68.5042 45.1766 68.5179 45.1777 68.5314 45.1761C68.5449 45.1745 68.5579 45.1701 68.5697 45.1633C68.5814 45.1566 68.5917 45.1475 68.5999 45.1366C68.6081 45.1258 68.6139 45.1134 68.6172 45.1002C69.4308 42.9154 70.2414 40.7266 71.049 38.5338C71.0772 38.46 70.98 38.4078 70.9116 38.4342ZM64.2726 42.12C63.1038 42.0774 61.191 40.5468 60.8736 38.5686C60.8624 38.5201 60.8704 38.4691 60.8961 38.4264C60.9217 38.3837 60.963 38.3526 61.0111 38.3398C61.0593 38.3269 61.1105 38.3333 61.154 38.3575C61.1976 38.3817 61.23 38.4219 61.2444 38.4696C61.5217 39.1926 61.9515 39.8475 62.5044 40.3896C63.0651 40.8891 63.7211 41.2699 64.4328 41.5092C64.4939 41.5458 64.5415 41.6012 64.5684 41.6671C64.5953 41.733 64.6 41.8059 64.582 41.8747C64.5639 41.9436 64.524 42.0047 64.4682 42.049C64.4124 42.0932 64.3438 42.1181 64.2726 42.12Z" fill="#C0C0C0"/>
<path d="M66.5052 21.2076C65.5903 20.1779 64.4712 19.3498 63.219 18.7758C61.4281 17.9353 59.4434 17.5943 57.4746 17.7888C57.4586 17.7923 57.4435 17.7993 57.4305 17.8092C57.4175 17.8192 57.4068 17.8318 57.3992 17.8464C57.3915 17.8609 57.3872 17.8769 57.3865 17.8933C57.3857 17.9097 57.3886 17.926 57.3948 17.9412C57.1451 18.1613 56.9422 18.4294 56.7984 18.7296C57.8182 18.5022 58.8739 18.4885 59.8992 18.6894C60.2364 18.7061 60.5622 18.8164 60.84 19.008C60.8661 19.0364 60.8842 19.0711 60.8927 19.1087C60.9012 19.1463 60.8997 19.1854 60.8883 19.2223C60.877 19.2591 60.8562 19.2923 60.828 19.3186C60.7999 19.3449 60.7653 19.3634 60.7278 19.3722C60.3886 19.386 60.0496 19.3389 59.727 19.233C58.7133 19.0684 57.685 19.0107 56.6592 19.0608C56.5929 19.2499 56.5463 19.4453 56.52 19.644C56.809 19.5893 57.1012 19.5538 57.3948 19.5378C57.6534 19.5192 57.9234 19.446 58.0842 19.6902C58.096 19.7118 58.1016 19.7362 58.1005 19.7607C58.0993 19.7853 58.0914 19.809 58.0776 19.8294C57.945 20.061 57.6666 20.0094 57.4278 20.0094C57.1134 20.0116 56.7992 19.9939 56.487 19.9566C56.487 20.2062 56.4528 20.514 56.6994 20.6256C56.8574 20.6638 57.0225 20.6616 57.1794 20.619C57.5088 20.6078 57.8385 20.6188 58.1664 20.652C63.0318 20.9616 63.6594 21.7434 65.322 22.7262C65.5728 22.8738 65.871 23.142 66.1572 22.9062C66.4146 22.6926 66.4782 22.1166 66.5676 21.8196C66.612 21.7211 66.6296 21.6127 66.6186 21.5052C66.6077 21.3978 66.5686 21.2951 66.5052 21.2076Z" fill="#C0C0C0"/>
<path d="M98.6934 24.474C98.4204 24.234 98.349 24.2634 95.9436 23.514C95.0343 23.1786 94.0992 22.9178 93.1476 22.734C93.0414 22.719 92.9946 22.9266 93.0942 22.9788C93.9552 23.43 94.6368 23.6058 97.2618 24.4302C97.7012 24.6354 98.1815 24.738 98.6664 24.7302C98.7726 24.699 98.76 24.5328 98.6934 24.474Z" fill="#666666"/>
<path d="M105.305 23.8314C105.013 23.3946 104.184 23.0712 103.894 23.6856C103.874 23.7227 103.865 23.7648 103.869 23.8068C103.873 23.8488 103.889 23.8888 103.915 23.9219C103.941 23.955 103.976 23.9798 104.016 23.9931C104.056 24.0065 104.099 24.0078 104.14 23.997C105.243 23.706 105.065 25.5204 104.935 26.157C104.699 27.1621 104.279 28.1147 103.696 28.9662C103.483 29.3524 103.169 29.6732 102.788 29.8938C102.591 29.9804 102.367 29.9865 102.166 29.911C101.964 29.8355 101.8 29.6842 101.708 29.4894C101.291 28.7736 101.629 27.3234 101.888 26.5542C102.45 24.879 103.098 24.4296 103.518 23.679C103.531 23.655 103.537 23.6272 103.533 23.5999C103.529 23.5727 103.516 23.5474 103.497 23.5279C103.477 23.5084 103.452 23.4958 103.425 23.492C103.398 23.4882 103.37 23.4934 103.346 23.5068C102.861 23.8597 102.458 24.314 102.166 24.8382C101.271 26.2026 100.274 28.875 101.417 30.1128C101.6 30.3154 101.838 30.4599 102.102 30.5282C102.366 30.5965 102.644 30.5856 102.902 30.4968C103.408 30.2742 103.832 29.8989 104.114 29.4234C104.902 28.3543 105.414 27.1072 105.605 25.7928C105.723 25.1239 105.618 24.4345 105.305 23.8314Z" fill="#666666"/>
<path d="M100.588 29.4828C100.246 29.3636 99.9343 29.1716 99.6738 28.92C98.7498 27.864 99.2844 26.298 99.8064 25.0374C100.094 24.1836 100.673 23.4584 101.443 22.9896C101.825 22.7814 102.263 22.6975 102.695 22.7496C103.157 22.8538 103.604 23.015 104.027 23.2296C104.213 23.3082 104.285 23.031 104.153 22.9296C102.113 21.3942 100.242 22.4562 99.2562 24.8442C98.7418 25.8584 98.5346 27.0007 98.6598 28.131C98.8182 28.9062 99.5424 30.0336 100.46 29.9262C100.675 29.9022 100.826 29.5974 100.588 29.4828Z" fill="#666666"/>
<path d="M72.3426 30.3114C76.767 30.7446 79.3422 34.0788 81.2412 35.3598C81.486 35.5254 81.6918 35.1798 81.5322 34.9824C80.7188 34.0678 79.803 33.2496 78.8028 32.544C77.8512 31.7759 76.8127 31.1222 75.7086 30.5964C73.6686 29.6742 71.1534 29.349 69.0486 30.225C68.922 30.2778 68.9226 30.4848 69.0816 30.4836C70.176 30.48 71.2362 30.2028 72.3426 30.3114Z" fill="#666666"/>
<path d="M88.3968 26.349C88.0164 28.2366 88.2054 34.2762 86.1768 38.262C85.3542 39.8784 83.8644 41.3628 81.903 41.0316C78.9852 40.539 78.357 38.1762 73.6272 37.4736C72.6215 37.3106 71.5978 37.2904 70.5864 37.4136C70.5539 37.4237 70.5254 37.4439 70.5053 37.4714C70.4851 37.4988 70.4742 37.5319 70.4742 37.566C70.4742 37.6 70.4851 37.6332 70.5053 37.6606C70.5254 37.688 70.5539 37.7083 70.5864 37.7184C71.5248 37.965 74.0022 37.7958 76.4364 38.8842C78.2778 39.708 79.7562 41.3148 81.81 41.6538C83.6922 41.9646 85.2948 40.8786 86.2956 39.3546C87.8754 36.9504 88.4556 33.0354 88.7142 30.165C88.8894 28.9254 88.9449 27.6718 88.8798 26.4216C88.8534 26.163 88.4544 26.064 88.3968 26.349Z" fill="#666666"/>
<path d="M87.2106 22.5792C87.3342 22.3071 87.3909 22.0095 87.3762 21.711C87.4221 21.3692 87.5135 21.035 87.648 20.7174C87.9075 20.0496 88.3969 19.4964 89.028 19.1574C89.0613 19.1358 89.0868 19.1042 89.101 19.0671C89.1152 19.03 89.1173 18.9894 89.1069 18.9511C89.0966 18.9128 89.0744 18.8787 89.0435 18.8538C89.0126 18.8289 88.9746 18.8144 88.935 18.8124C88.1802 18.7932 87.5232 19.74 87.219 20.3364C87.0285 20.7131 86.901 21.1185 86.8416 21.5364C86.7846 21.7149 86.768 21.9039 86.7933 22.0896C86.8185 22.2753 86.8848 22.453 86.9874 22.6098C87.0029 22.6252 87.0216 22.6368 87.0423 22.6438C87.063 22.6507 87.085 22.6528 87.1066 22.6498C87.1282 22.6468 87.1488 22.6389 87.1669 22.6267C87.1849 22.6144 87.1999 22.5982 87.2106 22.5792Z" fill="#666666"/>
<path d="M90.0666 19.6902C89.0862 19.875 88.5252 20.8302 88.2114 21.7704C88.0452 22.1044 87.9895 22.4827 88.0524 22.8504C88.062 22.8828 88.0797 22.9121 88.1039 22.9356C88.1281 22.9591 88.1579 22.976 88.1905 22.9847C88.2231 22.9933 88.2573 22.9935 88.29 22.9851C88.3227 22.9767 88.3526 22.9601 88.377 22.9368C88.8366 22.5108 88.6026 20.9568 90.1926 19.9818C90.225 19.9613 90.2489 19.93 90.2602 19.8934C90.2715 19.8568 90.2694 19.8174 90.2542 19.7822C90.239 19.747 90.2117 19.7185 90.1774 19.7016C90.143 19.6847 90.1037 19.6807 90.0666 19.6902Z" fill="#666666"/>
<path d="M91.0734 20.4984C90.837 20.6108 90.6262 20.7705 90.4542 20.9678C90.2821 21.165 90.1524 21.3955 90.0732 21.645C89.7628 22.2178 89.662 22.8809 89.7882 23.52C89.7961 23.5446 89.8108 23.5665 89.8307 23.5831C89.8505 23.5997 89.8746 23.6103 89.9002 23.6138C89.9258 23.6172 89.9519 23.6134 89.9754 23.6026C89.9989 23.5918 90.0189 23.5747 90.033 23.553C90.5196 22.7976 90.216 21.7878 91.239 20.7834C91.353 20.6718 91.239 20.4312 91.0734 20.4984Z" fill="#666666"/>
<path d="M92.5974 21.141C92.3515 21.2057 92.1252 21.3295 91.9382 21.5016C91.7511 21.6738 91.6089 21.889 91.524 22.1286C91.3116 22.5852 90.9408 23.3742 91.1862 23.8644C91.1995 23.8873 91.218 23.9069 91.2402 23.9215C91.2623 23.9361 91.2875 23.9453 91.3139 23.9485C91.3402 23.9517 91.367 23.9488 91.392 23.9399C91.417 23.931 91.4396 23.9165 91.458 23.8974C91.851 23.5374 91.803 21.9714 92.73 21.4458C92.9088 21.36 92.7828 21.102 92.5974 21.141Z" fill="#666666"/>
<path d="M84.6066 22.9368C84.4505 22.3281 84.4667 21.6881 84.6534 21.0882C84.6622 21.052 84.6579 21.0139 84.6411 20.9806C84.6244 20.9474 84.5963 20.9212 84.562 20.9067C84.5277 20.8923 84.4894 20.8905 84.4539 20.9018C84.4184 20.9131 84.3881 20.9366 84.3684 20.9682C84.1415 21.411 84.0227 21.9012 84.0215 22.3987C84.0204 22.8962 84.137 23.3869 84.3618 23.8308C84.6153 24.2552 84.9202 24.6468 85.2696 24.9966C86.13 26.0118 85.1604 26.8344 84.3948 28.0446C83.4479 29.5144 82.7327 31.1212 82.2744 32.8086C82.026 33.7452 81.6186 35.7546 81.9498 36.6648C81.9591 36.6935 81.9772 36.7186 82.0016 36.7364C82.0261 36.7541 82.0555 36.7637 82.0857 36.7637C82.1159 36.7637 82.1453 36.7541 82.1697 36.7364C82.1942 36.7186 82.2123 36.6935 82.2216 36.6648C82.5972 35.6808 82.1826 33.6084 83.9706 30.0324C85.1424 27.6888 86.3484 26.7846 86.2104 25.6326C86.0844 24.5874 84.9462 24.2244 84.6066 22.9368Z" fill="#666666"/>
<path d="M79.134 17.9544C80.3724 18.4536 82.6362 19.02 85.1304 19.9818C85.4047 20.1328 85.7064 20.2274 86.0178 20.2602C86.0494 20.2532 86.0787 20.2383 86.1029 20.2168C86.1271 20.1953 86.1454 20.168 86.156 20.1374C86.1666 20.1069 86.1693 20.0741 86.1637 20.0422C86.1581 20.0104 86.1444 19.9805 86.124 19.9554C85.959 19.7952 85.9026 19.779 84.474 19.2594C83.8914 19.0476 83.3016 18.8394 82.7118 18.6498C81.5696 18.2097 80.3866 17.8835 79.1802 17.676C79.035 17.6592 79.0152 17.9064 79.134 17.9544Z" fill="#666666"/>
<path d="M54.294 10.719C53.1975 9.63576 52.0286 8.62843 50.7954 7.70399C50.5842 7.55099 50.3574 7.87739 50.5242 8.05559C51.216 8.79479 51.9414 9.49559 52.6776 10.1886C54.252 11.6766 54.3918 11.9796 54.8442 12.0486C54.8835 12.0581 54.9246 12.0573 54.9635 12.0463C55.0024 12.0353 55.0378 12.0145 55.0664 11.9859C55.0949 11.9573 55.1157 11.9218 55.1265 11.8829C55.1374 11.844 55.1381 11.8029 55.1286 11.7636C55.0506 11.3346 54.5928 11.0034 54.294 10.719Z" fill="#666666"/>
<path d="M59.409 5.09339C59.3695 4.56927 59.2965 4.04821 59.1906 3.53339C59.1784 3.49516 59.1556 3.46122 59.1247 3.43561C59.0938 3.41 59.0562 3.3938 59.0164 3.38894C58.9766 3.38407 58.9362 3.39074 58.9001 3.40816C58.8639 3.42558 58.8336 3.45301 58.8126 3.48719C58.6116 3.90719 58.6476 4.24379 58.9122 6.63419C59.028 7.68119 59.0184 8.89379 59.4618 9.86759C59.4815 9.89947 59.5099 9.92498 59.5438 9.94106C59.5776 9.95714 59.6154 9.96309 59.6525 9.95821C59.6897 9.95333 59.7246 9.93782 59.7531 9.91355C59.7817 9.88928 59.8026 9.85727 59.8134 9.82139C60.0228 8.79539 59.7432 7.66139 59.6142 6.63419C59.5494 6.11999 59.4852 5.60459 59.409 5.09339Z" fill="#666666"/>
<path d="M67.9896 3.10622C67.9581 3.05703 67.9093 3.02151 67.8528 3.00672C67.7963 2.99193 67.7363 2.99896 67.6848 3.02642C67.3404 3.19862 67.3074 3.67562 67.221 4.01342C66.921 5.19362 66.6114 6.28502 66.2334 8.26082C66.2233 8.3096 66.2321 8.36039 66.258 8.40295C66.2839 8.4455 66.3249 8.47666 66.3729 8.49013C66.4208 8.5036 66.4721 8.49839 66.5164 8.47554C66.5606 8.4527 66.5946 8.41392 66.6114 8.36702C67.4214 5.96702 67.542 5.31842 67.8438 4.25882C67.9458 3.90002 68.1906 3.45302 67.9896 3.10622Z" fill="#666666"/>
<path d="M53.0022 17.2584C52.3956 17.0184 52.0704 17.1468 49.7754 16.9404C47.4036 16.7274 47.1132 16.5324 46.4688 16.6158C46.323 16.635 46.224 16.8402 46.383 16.9206C47.1978 17.3334 50.3082 17.604 51.2862 17.6628C51.8564 17.7486 52.4381 17.7169 52.9956 17.5698C53.03 17.5612 53.0606 17.5416 53.0827 17.5139C53.1048 17.4862 53.1172 17.452 53.1179 17.4166C53.1187 17.3812 53.1077 17.3465 53.0868 17.3179C53.0659 17.2893 53.0362 17.2684 53.0022 17.2584Z" fill="#666666"/>
<path d="M37.5042 18.1662C37.5738 17.847 37.6246 17.5241 37.6566 17.199C37.7292 16.7286 37.9092 16.224 37.5108 15.8604C37.1907 15.545 36.7684 15.3543 36.3201 15.3227C35.8718 15.2911 35.427 15.4208 35.0658 15.6882C35.0452 15.6908 35.0256 15.6989 35.0093 15.7118C34.993 15.7248 34.9806 15.7419 34.9734 15.7614C34.6561 16.4274 34.5675 17.1795 34.7214 17.901C33.8268 17.7552 32.943 18.4476 32.4558 19.1466C32.2233 19.4857 32.0403 19.8563 31.9122 20.247C31.9089 20.2531 31.9072 20.2599 31.9072 20.2668C31.9072 20.2737 31.9089 20.2805 31.9122 20.2866C31.932 20.3466 31.9524 20.3988 31.9722 20.4522C31.988 20.4985 32.0179 20.5387 32.0577 20.5672C32.0975 20.5956 32.1452 20.6109 32.1942 20.6109C32.2431 20.6109 32.2908 20.5956 32.3306 20.5672C32.3705 20.5387 32.4004 20.4985 32.4162 20.4522C32.5502 19.8764 32.8582 19.3559 33.2983 18.9612C33.7384 18.5665 34.2893 18.3168 34.8762 18.246C35.0378 18.4639 35.2514 18.6379 35.4974 18.7521C35.7435 18.8663 36.0142 18.9172 36.285 18.9C36.4415 18.9303 36.6024 18.9289 36.7583 18.8959C36.9143 18.863 37.062 18.7991 37.1928 18.708C38.9328 20.0058 37.8984 22.8708 37.5576 25.0152C36.9858 28.6104 37.2306 30.1422 36.3114 31.4028C35.655 32.3028 34.503 32.3694 33.4956 32.1582C33.0479 32.0902 32.6179 31.9346 32.2303 31.7004C31.8427 31.4662 31.505 31.1579 31.2366 30.7932C30.9988 30.3815 30.886 29.9095 30.912 29.4348C30.912 29.2692 30.7482 29.2464 30.627 29.1948C30.5993 29.1825 30.569 29.177 30.5387 29.1789C30.5085 29.1807 30.4791 29.1898 30.4531 29.2054C30.4271 29.221 30.4052 29.2426 30.3893 29.2685C30.3734 29.2943 30.364 29.3236 30.3618 29.3538C30.3175 29.8056 30.3791 30.2614 30.5418 30.6852C31.2708 32.5074 34.0734 33.396 35.8026 32.6004C37.8804 31.644 37.6872 28.4688 38.0358 25.9878C38.3484 23.7618 38.7138 22.4514 38.7846 21.4278C38.8658 20.8201 38.7909 20.2018 38.5669 19.6311C38.3428 19.0605 37.9771 18.5563 37.5042 18.1662ZM37.1664 16.914C36.9582 18.225 37.146 18.534 36.0204 18.3648C35.8504 18.3574 35.6855 18.3043 35.5432 18.2111C35.4008 18.1178 35.2863 17.9879 35.2116 17.835C35.0777 17.308 35.0848 16.7552 35.232 16.2318C35.3797 16.0788 35.566 15.9685 35.7712 15.9126C35.9764 15.8566 36.1928 15.857 36.3978 15.9138C36.63 15.9588 37.0998 16.1058 37.2258 16.3374C37.2984 16.47 37.1898 16.7676 37.1664 16.914Z" fill="#666666"/>
<path d="M31.647 21.7506C30.7338 23.52 34.1802 25.134 35.1 24.4674C35.1214 24.4533 35.139 24.4341 35.1512 24.4115C35.1633 24.389 35.1697 24.3637 35.1697 24.3381C35.1697 24.3125 35.1633 24.2872 35.1512 24.2646C35.139 24.2421 35.1214 24.2229 35.1 24.2088C34.7268 23.9226 34.0584 24.0402 33.1386 23.5596C32.4558 23.2032 31.8522 22.6596 31.9386 21.8238C31.9548 21.6708 31.719 21.6114 31.647 21.7506Z" fill="#666666"/>
<path d="M30.945 23.2086C30.0588 24.7122 33.645 26.7978 34.3836 25.8588C34.4031 25.8383 34.4177 25.8137 34.4264 25.7869C34.4351 25.76 34.4377 25.7315 34.4339 25.7035C34.4301 25.6755 34.42 25.6487 34.4044 25.6251C34.3889 25.6015 34.3682 25.5817 34.344 25.5672C33.8154 25.3032 33.5838 25.6608 32.3958 24.9708C32.0685 24.823 31.7876 24.5889 31.5834 24.2935C31.3792 23.9982 31.2593 23.6528 31.2366 23.2944C31.2381 23.2595 31.2278 23.225 31.2075 23.1966C31.1871 23.1682 31.1579 23.1473 31.1243 23.1375C31.0908 23.1276 31.0549 23.1292 31.0224 23.1421C30.9899 23.155 30.9626 23.1784 30.945 23.2086Z" fill="#666666"/>
<path d="M30.183 24.951C30.33 25.8792 30.969 26.7426 32.3562 27.2502C32.7319 27.4351 33.1581 27.491 33.5688 27.4092C33.6025 27.3992 33.633 27.3806 33.6574 27.3553C33.6817 27.33 33.6991 27.2987 33.7077 27.2647C33.7164 27.2306 33.7161 27.1949 33.7067 27.161C33.6974 27.1271 33.6795 27.0962 33.6546 27.0714C33.273 26.7456 32.61 26.7774 31.7796 26.2962C31.2054 25.9802 30.765 25.467 30.54 24.8514C30.5237 24.8078 30.4916 24.7718 30.4501 24.7507C30.4086 24.7296 30.3607 24.7249 30.3158 24.7374C30.271 24.7499 30.2324 24.7788 30.2078 24.8183C30.1833 24.8579 30.1744 24.9052 30.183 24.951Z" fill="#666666"/>
<path d="M30.0108 26.7996C30.24 28.761 32.5218 28.9242 34.0788 28.887C34.1427 28.8847 34.2037 28.8599 34.2512 28.817C34.2986 28.7741 34.3294 28.7159 34.3382 28.6525C34.3469 28.5892 34.333 28.5248 34.299 28.4707C34.2649 28.4166 34.2129 28.3762 34.152 28.3566C32.8656 28.0242 31.2786 28.6056 30.3486 26.7066C30.273 26.5524 29.9904 26.6274 30.0108 26.7996Z" fill="#666666"/>
<path d="M83.3808 95.3232C83.607 95.2342 83.8428 95.172 84.0834 95.1378C82.8352 92.1669 81.2263 89.3608 79.293 86.7828C76.2408 82.6278 74.973 82.0428 74.6484 80.4486C74.4894 79.6716 74.5746 78.0228 74.3172 75.2076C73.782 69.366 72.8544 67.8642 72.3624 65.1228C71.8338 62.1768 72.5424 59.4306 71.3424 55.4694C70.758 53.5513 69.8579 51.7441 68.679 50.1222C68.3862 49.719 68.052 49.3524 67.758 48.9564C67.7056 48.8631 67.6454 48.7744 67.578 48.6912C67.4027 48.5755 67.207 48.4941 67.0014 48.4512C63.6828 47.3112 59.8614 47.4834 56.4072 48.0912C56.3904 48.0957 56.3751 48.1049 56.3633 48.1178C56.3515 48.1307 56.3437 48.1466 56.3406 48.1638C51.7693 46.7058 47.1225 45.4961 42.4206 44.5398C37.8966 43.725 35.4048 44.6454 34.8078 49.2798C34.6003 51.4567 34.8624 53.6527 35.5764 55.7196C37.335 61.377 42.873 73.3482 46.1838 77.8632C47.162 76.6308 48.5161 75.7517 50.04 75.36C50.1749 75.3236 50.3123 75.297 50.451 75.2802C49.2858 69.9402 48.0336 66.216 47.337 63.9504C46.4903 61.0696 45.4838 58.2382 44.322 55.4694C44.2362 55.2642 44.1696 55.032 44.0706 54.8202C44.1234 54.8466 44.1828 54.8802 44.2362 54.906C43.4898 53.4138 43.1292 53.0268 42.447 51.8184C42.4229 51.7741 42.4154 51.7227 42.4256 51.6733C42.4359 51.624 42.4633 51.5798 42.5031 51.5488C42.5428 51.5178 42.5923 51.5019 42.6427 51.5039C42.693 51.5059 42.7411 51.5257 42.7782 51.5598C43.8299 52.6731 44.6739 53.9657 45.27 55.3764C46.2636 55.8006 47.2974 56.1384 48.2976 56.4696C51.9672 57.6891 55.7602 58.5002 59.6076 58.8882C59.4323 57.7417 59.4367 56.5749 59.6208 55.4298C59.6736 55.1844 60.0048 55.2708 60.0252 55.4826C60.0894 56.1384 60.0984 56.7942 60.138 57.4506C60.339 55.4406 59.8614 59.1906 62.3178 67.0116C63.3978 70.4502 64.7178 73.803 65.9484 77.1882C67.1642 80.4002 68.705 83.4796 70.5468 86.3784C72.1452 88.9614 73.698 90.7374 79.326 97.8738C80.4878 96.7538 81.8682 95.8855 83.3808 95.3232Z" fill="#C0C0C0"/>
<path d="M104.63 83.3634C103.888 83.0988 102.757 83.4414 102.218 82.7274C102.087 82.527 101.971 82.3166 101.873 82.098C101.726 81.6339 101.468 81.213 101.12 80.8723C100.772 80.5316 100.346 80.2814 99.879 80.1438C98.679 79.7652 97.6668 80.3298 96.9108 81.2436C95.9764 82.4126 95.2217 83.7145 94.6716 85.1064C94.1808 86.3118 93.6162 87.9096 94.1082 89.2008C94.2033 89.4752 94.3568 89.7256 94.5581 89.935C94.7593 90.1443 95.0036 90.3075 95.274 90.4134C95.5992 90.5256 95.976 90.4938 96.255 90.7134C96.5123 90.9843 96.7369 91.2846 96.924 91.608C98.9442 94.1424 105.133 90.648 106.094 86.751C106.41 85.47 105.988 83.8482 104.63 83.3634ZM99.6738 81.5748C99.0348 81.789 98.5992 81.7734 98.0238 82.6416C97.4754 83.469 97.413 84.0708 96.9504 84.1788C96.9162 84.1864 96.8804 84.1811 96.8498 84.164C96.8193 84.1468 96.7961 84.119 96.7848 84.0858C96.6324 83.7216 96.9444 83.3058 97.1094 82.9926C97.2915 82.628 97.5115 82.2837 97.7658 81.9654C98.2008 81.4458 99.0366 80.8632 99.7134 81.2568C99.7408 81.2754 99.7626 81.3012 99.7762 81.3314C99.7899 81.3616 99.795 81.395 99.7909 81.4279C99.7868 81.4608 99.7737 81.4919 99.753 81.5178C99.7324 81.5437 99.705 81.5634 99.6738 81.5748Z" fill="#C0C0C0"/>
<path d="M79.803 13.8726C79.814 13.8501 79.8167 13.8245 79.8106 13.8003C79.8046 13.776 79.7902 13.7547 79.77 13.74C79.357 13.463 78.8727 13.3113 78.3755 13.3031C77.8783 13.2949 77.3893 13.4306 76.9674 13.6938C76.1028 14.3016 75.4735 15.1881 75.1848 16.2048C74.7996 17.2248 74.5248 18.2526 74.9796 19.2924C75.1723 19.7354 75.4649 20.1279 75.8346 20.439C76.1562 20.7072 76.7496 21.144 77.1264 20.9556C78.6834 22.026 80.4864 20.994 80.5716 19.8822C80.5722 19.8458 80.5618 19.8101 80.5417 19.7798C80.5216 19.7495 80.4928 19.726 80.4591 19.7123C80.4254 19.6987 80.3884 19.6956 80.3529 19.7034C80.3173 19.7112 80.285 19.7296 80.2602 19.7562C79.999 20.1043 79.6836 20.4082 79.326 20.6562C78.1062 21.3246 76.4142 20.367 76.7022 18.2046C76.8294 17.1569 77.2293 16.1609 77.862 15.3162C78.9102 14.0274 80.8056 14.0562 81.0888 15.5874C81.1421 16.1193 81.0595 16.6561 80.8488 17.1474C80.8104 17.2674 80.9796 17.3712 81.0606 17.2728C82.02 16.1106 81.567 14.0172 79.803 13.8726ZM77.9148 14.4888C76.5438 15.6162 75.5748 18.5688 76.4838 20.22C76.0428 19.9411 75.6945 19.5377 75.483 19.0608C75.0936 18.1884 75.3678 17.304 75.6822 16.4568C76.368 14.6082 77.2422 13.5768 79.2468 13.9062C78.7577 13.9744 78.2969 14.176 77.9148 14.4888Z" fill="#666666"/>
</svg>
