<svg width="120" height="120" viewBox="0 0 120 120" fill="none" xmlns="http://www.w3.org/2000/svg">
<path d="M42.2114 93.7211C42.5876 94.2853 42.5248 95.79 43.0891 97.4202C43.9668 99.9281 45.597 99.3638 49.8605 99.1757C57.2588 98.8622 66.2873 97.2321 72.1809 96.7932C73.7483 96.6678 75.3158 96.2916 76.8832 95.9154C78.8895 95.4139 77.8237 93.4703 78.3879 93.3449C78.9522 93.2822 79.1403 95.4139 78.1998 96.1662C76.7578 97.2321 71.2404 97.7337 69.3595 97.7964C66.977 97.8591 54.939 99.9281 45.9732 99.9908C44.0923 99.9908 43.0892 99.2384 42.5249 97.4202C42.2741 96.6051 41.7725 94.4107 42.2114 93.7211Z" fill="#252525"/>
<path d="M57.3213 52.4661C60.143 52.6542 62.9017 53.7828 64.4064 56.1026C65.0334 57.043 64.7199 57.1684 64.1556 57.2938C46.6628 59.739 47.5406 59.551 47.666 58.7986C48.1049 55.7892 50.8636 53.72 53.8104 52.905C52.6818 51.7137 52.9953 50.3344 53.9357 49.5193C55.8167 47.7011 59.2023 49.0805 57.3213 52.4661ZM48.1676 58.7986C63.7167 56.4789 64.3437 57.043 63.9048 56.4161C59.8292 51.1495 50.1112 52.4035 48.1676 58.7986ZM53.6848 51.2749C53.6848 53.0932 55.5032 52.4662 55.6913 52.5289C57.1333 52.717 58.0737 49.9583 56.2555 49.394C55.127 48.9552 53.6848 49.9583 53.6848 51.2749Z" fill="#252525"/>
<path d="M36.3803 62.623C36.3176 60.3033 36.6312 58.8614 38.4494 58.1718C39.9542 57.6702 47.3524 56.1027 47.3524 56.7924C47.3524 57.0432 46.9761 56.9804 45.4087 57.2939C39.2016 58.5478 37.2581 58.4852 37.0073 60.8675C36.443 66.8865 39.8286 78.799 39.2643 78.987C38.8254 79.0497 36.6311 68.4539 36.3803 62.623Z" fill="#252525"/>
<path d="M46.6 90.3354C46.2239 90.3981 46.1611 90.3354 45.5968 85.8212C45.4087 84.3164 45.2833 84.818 51.2396 83.8775C52.1174 83.7521 51.8039 84.0029 52.6189 88.956C52.807 89.8338 52.6817 89.583 46.6 90.3354ZM51.0515 84.6299C45.973 85.2569 45.973 85.1315 46.0357 85.5704C46.7254 89.8965 46.5373 89.9592 46.9762 89.8965C51.992 89.2068 52.0547 89.3949 51.992 88.956C51.3023 84.6299 51.365 84.5045 51.0515 84.6299Z" fill="#252525"/>
<path d="M42.9009 69.5825C42.5247 69.6452 42.462 69.5824 41.8977 65.0682C41.7097 63.5635 41.5843 64.065 47.5405 63.1246C48.4183 62.9992 48.1048 63.25 48.9199 68.2031C49.108 69.0808 48.9825 68.8301 42.9009 69.5825ZM47.3524 63.8143C42.2739 64.4412 42.2739 64.3158 42.3366 64.7547C43.0263 69.0808 42.8382 69.1436 43.2771 69.0809C48.2929 68.3912 48.3556 68.5792 48.2929 68.1404C47.6032 63.8143 47.6659 63.7516 47.3524 63.8143Z" fill="#252525"/>
<path d="M44.5937 79.5513C44.2175 79.614 44.1549 79.5519 43.5906 75.0377C43.4025 73.533 43.2772 74.0345 49.2334 73.0941C50.1112 72.9687 49.7976 73.2195 50.6127 78.1726C50.8008 79.0503 50.6753 78.7989 44.5937 79.5513ZM49.0453 73.7837C43.9668 74.4107 43.9668 74.2853 44.0295 74.7242C44.7191 79.0503 44.5311 79.113 44.9699 79.0503C49.9857 78.3606 50.0484 78.5487 49.9857 78.1099C49.2961 73.7837 49.3587 73.721 49.0453 73.7837Z" fill="#252525"/>
<path d="M65.4095 55.1622C65.5976 54.7233 69.7984 54.3471 72.7451 54.5352C74.3753 54.6606 74.5634 55.2249 75.065 59.9273C75.9427 67.9524 75.1903 68.3913 75.065 67.0746C74.1245 56.2281 74.3753 55.2249 72.9959 55.0368C70.1746 54.7233 65.5976 55.6011 65.4095 55.1622Z" fill="#252525"/>
<path d="M56.7569 76.7926C54.1863 76.4164 55.5656 75.5386 53.6221 77.4196C53.4967 77.5449 53.4339 77.6703 53.2458 77.6076C52.995 77.4823 53.0577 77.2942 53.2458 76.291C53.4339 75.4759 52.7443 75.8521 52.0546 75.4759C51.3022 75.037 52.6816 74.5354 53.1832 74.5354C53.8729 74.5354 53.4967 74.0966 53.7474 73.1561C53.9982 72.341 54.6252 73.1561 55.0014 73.9085C55.2521 74.4101 55.3775 74.0966 56.2553 73.7204C56.5061 73.595 56.8197 73.7831 56.6316 74.1593C56.13 75.037 55.691 75.0997 56.2553 75.6013C56.318 75.664 57.1331 76.6045 57.0704 76.7299C57.0704 76.7926 56.9449 76.7926 56.7569 76.7926Z" fill="#644DF6"/>
<path d="M58.4498 65.5698C58.7633 63.6262 58.5124 64.4412 57.4466 63.9397C57.0704 63.7516 57.0704 63.5008 57.4466 63.3127C58.5124 62.8111 59.0141 63.1873 58.9514 62.4976C58.9514 61.808 59.2022 60.8675 59.7038 61.4318C60.4564 62.3096 60.331 62.8111 60.8953 62.4976C61.2088 62.3096 61.773 61.9334 61.9611 62.2469C62.0865 62.435 61.9611 62.623 61.7103 62.9992C61.0834 63.9397 61.3342 63.6889 62.1492 64.8801C62.2119 65.0055 62.4 65.1309 62.3373 65.2563C62.2119 65.4444 62.0238 65.3817 61.8984 65.319C59.7665 64.7547 60.3937 64.4412 59.014 65.8833C58.8886 66.0087 58.7633 66.1968 58.5752 66.1341C58.3871 66.0087 58.5125 65.7579 58.4498 65.5698Z" fill="#644DF6"/>
<path d="M65.0961 64.0023C65.4096 62.0587 65.1588 62.8737 64.0929 62.3722C63.7167 62.1841 63.7167 61.9333 64.0929 61.7452C65.1588 61.2436 65.6604 61.6198 65.5977 60.9301C65.5977 60.2406 65.8485 59.3001 66.35 59.8644C67.1024 60.7422 66.977 61.2436 67.5413 60.9301C67.8548 60.7422 68.4191 60.366 68.6072 60.6795C68.7326 60.8674 68.6072 61.0555 68.3564 61.4317C67.7294 62.3722 67.9802 62.1214 68.7953 63.3126C68.858 63.438 69.0461 63.5634 68.9834 63.6888C68.858 63.8769 68.6699 63.8142 68.5445 63.7515C66.4127 63.1872 67.0397 62.8737 65.6604 64.3158C65.535 64.4412 65.4096 64.6293 65.2215 64.5666C65.0334 64.4412 65.1588 64.1904 65.0961 64.0023Z" fill="#644DF6"/>
<path d="M51.365 65.4445C51.0515 65.3818 50.2992 65.257 50.2992 64.8808C50.2992 64.5673 51.2397 64.2538 51.6159 64.2538C52.3683 64.2538 51.9921 63.6269 52.2429 62.7491C52.4936 61.934 53.0579 62.8739 53.4968 63.5636C53.8103 64.1278 53.9357 63.5015 54.7508 63.3134C54.9389 63.2507 55.0642 63.2501 55.1896 63.4382C55.4404 63.7517 54.3745 64.5046 54.4999 64.8808C54.5626 65.257 55.0642 65.5705 55.1896 65.884C55.315 66.0721 55.6912 66.1974 55.5031 66.4482C55.3777 66.699 55.0642 66.4482 54.8134 66.4482C52.9324 66.0094 53.6849 65.5705 52.2429 67.0752C52.1175 67.2006 51.992 67.4508 51.7412 67.3254C51.2396 67.1373 52.1174 65.5698 51.365 65.4445Z" fill="#644DF6"/>
<path d="M48.7945 74.5983C47.1016 79.0498 47.3524 79.8649 44.9698 76.8554C44.8444 76.73 44.5937 76.5419 44.8445 76.3538C45.0953 76.1657 45.2834 76.2911 46.4119 77.5451C46.9135 78.1721 46.6627 77.4197 48.1675 74.0967C48.3556 73.7205 50.2365 69.6452 50.6754 69.5825C50.7381 70.6484 48.9199 74.3475 48.7945 74.5983Z" fill="#644DF6"/>
<path d="M47.6032 64.63C45.9103 69.0815 46.1612 69.8966 43.7787 66.8871C43.6533 66.7617 43.4024 66.573 43.6532 66.3849C43.904 66.1968 44.0921 66.3228 45.2206 67.5768C45.7222 68.2037 45.4714 67.4514 46.9762 64.1284C47.1643 63.7522 49.0452 59.6767 49.4841 59.614C49.5468 60.7426 47.6658 64.4419 47.6032 64.63Z" fill="#644DF6"/>
<path d="M66.6635 61.4318C70.8642 65.6953 73.4342 68.8301 75.0643 70.8365C82.0238 79.3633 82.3372 79.0498 81.8984 79.426C81.5222 79.7395 81.3347 79.2379 81.0839 79.0499C78.0118 75.915 69.673 65.758 66.4754 61.6826C66.4127 61.4945 66.4127 61.3691 66.6635 61.4318Z" fill="#252525"/>
<path d="M31.3018 118.8C30.1732 117.86 32.3049 101.684 35.189 95.2884C36.6938 92.0281 34.8755 96.8559 40.3929 100.116C42.4619 101.307 43.4024 101.057 43.904 101.495C43.3397 102.311 37.6342 100.868 35.816 95.3511C32.9946 102.311 31.8661 111.402 31.3018 118.8Z" fill="#252525"/>
<path d="M78.8895 98.4232C79.0149 96.4169 80.3315 97.7335 85.4728 96.4796C89.5481 95.5391 90.3004 92.9065 90.7393 93.2826C91.1155 93.5961 89.3594 96.1034 86.2872 96.9812C80.2682 98.7367 79.7045 96.6683 79.5165 99.1135C78.1371 115.666 78.8895 116.481 78.2625 116.481C77.2594 116.481 78.8268 99.6772 78.8895 98.4232Z" fill="#252525"/>
<path d="M101.147 110.9C99.7051 109.333 99.6424 107.828 92.3695 95.5392C91.3037 93.7837 91.3037 93.6583 91.5544 93.5329C91.9933 93.3448 100.457 107.326 101.147 110.9Z" fill="#252525"/>
<path d="M72.9959 75.1626C73.184 77.357 72.4316 80.6806 74.1871 84.6932C76.3816 89.7718 80.3315 91.4019 80.5823 91.59C83.2156 93.7217 71.6792 89.8345 72.4316 77.8592C72.3689 77.5457 72.557 75.2253 72.9959 75.1626Z" fill="#252525"/>
<path d="M41.5216 82.1847C41.647 82.122 41.7724 82.122 41.8978 82.1847C42.0232 82.3101 42.0231 82.4355 41.9604 82.5609C40.9572 83.9403 39.2017 86.072 38.9509 89.5203C38.6374 94.8496 41.5215 97.2948 41.3334 97.5456C40.581 98.2353 35.3145 90.5235 40.3929 83.5014C40.581 83.0625 41.02 82.5609 41.5216 82.1847Z" fill="#252525"/>
<path d="M94.1249 78.6108C93.2471 83.6893 90.4258 85.7583 90.1123 90.0217C89.9869 91.9027 90.5512 92.2788 90.2377 92.4042C89.7988 92.5923 89.3599 90.9622 89.548 89.2694C90.3004 83.6893 95.2535 80.8679 92.7456 74.3474C92.6202 73.8458 94.6265 75.4132 94.1249 78.6108Z" fill="#252525"/>
<path d="M52.6818 118.675C51.7413 117.671 46.0985 102.373 47.1016 102.185C47.2897 102.122 47.3525 102.373 47.3525 102.499C50.6755 112.342 53.058 118.236 52.6818 118.675Z" fill="#252525"/>
<path d="M81.5848 68.6418C88.2307 68.5791 89.2972 80.7425 86.664 83.1877C86.4759 83.3758 86.2878 83.3131 86.4132 83.0623C88.0433 79.0497 87.5417 73.5323 84.4695 70.4601C83.8426 69.8331 83.0896 69.5823 81.5848 68.7672V68.6418Z" fill="#252525"/>
<path d="M76.3188 69.0808C78.764 68.7046 82.3371 70.5228 83.4657 75.4132C83.9673 77.6076 83.6544 81.6203 82.902 81.4322C82.4632 81.3068 82.8393 80.7425 82.902 80.3664C84.0933 70.4601 77.1966 69.8959 76.3188 69.0808Z" fill="#252525"/>
<path d="M89.4221 82.9369C91.5537 78.36 91.6797 74.0966 87.6671 70.5228C88.2314 70.4601 89.0465 70.899 89.6108 71.6513C92.9964 75.9148 91.0521 82.0591 89.4221 82.9369Z" fill="#252525"/>
<path d="M97.6361 74.8491C94.8147 74.9118 95.0028 75.0999 94.752 74.7864C94.1878 74.034 93.4354 73.4697 92.4322 73.4697C91.9933 73.4697 90.614 68.642 87.2283 69.7079C86.6641 69.896 86.2252 68.5793 83.9681 67.9524C82.3379 67.5135 81.7736 68.5166 80.8959 68.1405C79.7046 67.6389 78.5134 67.6389 77.3221 67.9524C76.7578 68.0778 76.7578 68.0778 76.6951 67.5135C75.9428 55.1622 75.7547 53.5321 73.7483 53.4694C73.3095 53.4694 73.2468 53.2186 73.2468 52.9678C72.9333 48.0774 72.8079 45.8203 72.8079 44.1274C72.6825 39.7386 71.9302 39.2997 72.9333 38.6727C76.7578 36.4156 83.2157 34.7229 83.6546 34.6602C84.1561 34.5348 84.4069 34.5975 84.595 35.0991C85.222 36.9799 86.8522 36.9173 88.1061 36.2276C90.9902 34.6602 90.3632 33.2809 91.4291 33.5944C96.8837 35.0364 100.395 35.7259 102.715 37.5442C103.404 38.0458 104.031 38.0458 103.655 38.6727C101.774 41.933 101.398 44.1275 101.461 46.0711C101.523 47.8893 100.771 46.5099 99.2663 47.7639C94.1878 52.2154 92.056 58.924 92.1187 64.0651C92.2441 69.269 94.0623 72.1531 97.6361 74.8491ZM91.3037 33.9079C91.0529 33.9079 90.1124 36.2275 87.7926 36.9172C87.5418 36.9799 87.4791 37.1055 87.6672 37.3562C89.4854 38.9863 89.36 40.5538 90.1124 39.8641C91.6798 38.4848 92.9338 36.8545 93.8116 34.9109C94.0624 34.5347 94.2505 34.7229 91.3037 33.9079ZM85.6609 36.8546C85.2847 36.4157 84.9085 36.7918 84.0934 35.0363C83.8427 34.5347 83.78 35.099 80.3943 35.9767C80.0808 36.0394 80.1435 36.165 80.2062 36.4158C80.3943 37.3562 80.7705 38.2339 81.1466 39.1116C81.7736 40.5537 81.3974 39.864 85.222 37.4188C85.4101 37.2934 85.5982 37.168 85.6609 36.8546Z" fill="#644DF6"/>
<path d="M110.865 68.5793C111.179 68.2032 110.991 68.5166 110.552 48.14C110.489 46.5726 109.11 47.4502 109.611 46.6352C111.116 44.3153 111.304 44.1274 111.618 44.5663C120.458 55.4756 117.135 70.5857 109.862 74.5983C105.661 76.9181 101.837 77.0435 97.8242 74.2222C94.3131 71.7769 92.8084 68.454 92.7457 64.3159C92.5576 57.3566 95.3163 53.5946 97.5107 50.3971C97.8869 49.8955 98.2004 50.2717 104.47 50.0836C106.1 50.0209 107.73 50.1463 109.423 50.0836C109.799 50.0836 109.862 50.1464 109.862 50.5226C110.364 65.5072 110.364 68.3286 110.865 68.5793Z" fill="#644DF6"/>
<path d="M80.5823 16.666C77.5102 16.7914 76.3816 17.7944 75.0023 19.55C73.6229 21.3055 70.1746 17.9825 69.9865 16.1016C69.4849 11.5874 73.5608 8.38993 77.6362 10.5216C79.0782 11.274 79.4538 12.2144 81.0212 12.089C84.2188 11.8382 85.5982 11.7129 87.7298 14.2835C88.9211 15.7255 89.7989 17.7318 89.2973 19.6127C89.1092 20.2397 90.1124 20.3024 89.7362 21.7444C88.9838 24.5658 88.2947 24.8167 88.9217 27.5753C89.9249 32.0269 90.9901 32.6539 90.3631 32.9674C90.1124 33.0928 90.1124 32.7793 90.0497 32.6539C86.9775 25.381 88.3574 24.5032 89.2352 21.6818C89.486 20.9294 89.1719 20.3652 88.6703 20.1144C88.1687 19.8636 87.7298 20.4278 87.2909 20.8039C86.6013 21.4936 86.3505 20.9293 85.8489 21.1174C84.4069 21.619 86.2258 22.1834 84.8464 24.1897C84.094 25.2556 82.4633 25.1927 81.6482 24.0642C81.0212 23.1865 81.272 22.9357 80.8958 22.873C77.9491 22.8103 80.3315 23.312 79.1403 25.7572C78.7014 26.5723 77.5735 26.9483 76.6957 26.5095C75.191 25.8198 74.6888 23.7508 75.6292 22.4341C76.3816 21.3683 77.8864 21.3683 78.8268 22.4341C79.0776 22.7476 79.2657 22.9357 79.7046 22.6849C80.2688 22.246 81.3347 23.1865 81.1466 22.1833C80.7704 20.6158 83.1536 18.7978 84.8464 20.7413C84.9718 20.8667 84.9712 21.1802 85.3474 21.0548C85.9116 20.8667 85.9116 20.8666 85.7235 20.3024C84.5323 17.481 83.968 16.7914 80.5823 16.666ZM84.8464 23.8762C85.4734 22.9358 85.0966 21.3055 84.0934 20.6158C83.0902 19.9262 81.899 20.3651 81.5228 21.5563C80.8958 23.8134 83.467 25.8826 84.8464 23.8762ZM79.1403 25.1927C79.9553 22.7476 76.6951 20.6158 75.6919 23.1238C74.6261 25.757 78.3252 27.8261 79.1403 25.1927ZM79.2036 13.7819C78.8901 12.4652 76.1935 10.9606 74.2499 11.3368C72.4943 11.7129 71.93 13.0295 72.4943 13.4684C73.1213 13.97 73.6856 12.2771 75.9427 12.6533C77.3848 12.8414 77.7616 13.0922 79.2036 13.7819ZM80.8958 14.1581C84.5323 14.0327 80.2061 12.5906 80.2688 13.7819C80.3315 14.2208 80.7077 14.1581 80.8958 14.1581Z" fill="#252525"/>
<path d="M64.8453 53.783C64.1557 53.8457 63.4033 52.2782 59.5162 51.2751C58.7012 51.087 59.6417 48.8926 57.2592 47.7014C56.9457 47.576 56.9456 47.6387 58.2623 43.626C59.0773 41.2435 59.2027 41.4315 59.5162 41.6195C63.0271 44.0648 68.4818 45.3188 71.2405 45.1934C72.181 45.1307 72.181 45.1934 72.2436 46.0712C72.369 48.3283 72.4944 50.5854 72.6825 52.8425C72.7452 53.4695 72.6825 53.0306 64.8453 53.783Z" fill="#644DF6"/>
<path d="M71.2404 43.3123C66.2873 42.6854 65.2215 42.0583 61.0208 40.052C60.7073 39.8639 60.3311 39.6758 60.3938 39.425C60.8954 37.7949 65.0961 41.8702 70.9269 42.121C72.2436 42.1837 72.2436 43.5004 71.5539 43.375C71.4912 43.3123 71.3658 43.3123 71.2404 43.3123Z" fill="#644DF6"/>
<path d="M100.959 48.5789C99.3916 48.5789 99.3916 48.6416 99.3289 48.4535C99.2662 48.2027 100.019 47.7638 100.646 47.7011C101.9 47.5758 109.987 46.9487 109.862 48.0773C109.737 48.9551 109.298 48.14 101.649 48.5789H100.959Z" fill="#644DF6"/>
<path d="M63.7168 38.422C63.2152 37.5442 66.5382 34.4092 69.2342 21.7444C69.7985 23.061 67.7294 31.5879 64.3438 37.3561C64.093 37.7323 64.0303 38.1712 63.7168 38.422Z" fill="#252525"/>
<path d="M87.6672 28.3276C86.7895 31.4625 84.6577 30.6474 84.8458 31.9014C84.9085 32.4657 84.8458 32.9673 84.7204 33.5316C84.6577 33.7824 84.5323 33.8451 84.3442 33.8451C84.0935 33.7824 84.2189 33.5942 84.2815 33.4688C84.4696 30.0831 84.9085 32.2777 81.3347 31.3999C78.8269 30.7729 77.3848 27.8888 77.8864 27.7007C78.1372 27.5753 78.0745 27.8889 78.1372 27.9516C80.0181 31.4626 83.5292 31.7133 85.7863 30.3339C86.7268 29.6443 87.1657 28.453 87.6672 28.3276Z" fill="#252525"/>
<path d="M109.298 32.0271C108.357 33.281 104.282 37.9832 102.715 44.7545C102.652 44.9426 102.715 45.3188 102.464 45.2561C101.523 45.1934 104.47 35.6636 109.298 32.0271Z" fill="#252525"/>
<path d="M77.5102 27.45C70.6762 33.9078 71.8675 39.5506 70.9897 40.6164C69.8611 37.4815 74.3126 28.4531 77.5102 27.45Z" fill="#252525"/>
<path d="M108.545 46.6351C108.232 44.6915 113.875 41.9329 111.43 40.4281C108.107 38.3592 107.417 38.6727 107.605 38.2965C107.793 37.7322 111.241 39.7384 111.806 40.0519C114.251 41.6193 110.677 44.0019 108.984 46.3844C108.796 46.5098 108.734 46.6351 108.545 46.6351Z" fill="#252525"/>
<path d="M115.442 32.4031C113.31 33.3435 110.176 34.9737 108.107 36.7919C107.918 36.9173 107.73 37.2935 107.542 37.0428C107.103 36.6039 111.555 33.1554 115.442 32.4031Z" fill="#252525"/>
<path d="M117.574 34.2838C109.799 37.356 110.301 38.2338 109.988 37.7949C109.361 36.9798 117.01 33.7822 117.574 34.2838Z" fill="#252525"/>
<path d="M118.201 36.7921C111.743 38.7357 112.057 39.4254 111.868 38.9865C111.367 38.1714 118.013 36.2278 118.201 36.7921Z" fill="#252525"/>
<path d="M74.1245 23.2494C68.9833 27.0739 69.6103 28.3904 69.046 28.0143C68.4817 27.5754 73.2468 22.6851 74.1245 23.2494Z" fill="#252525"/>
<path d="M74.9397 24.8794C70.2373 28.4531 70.6762 29.3309 70.2373 29.0801C69.673 28.7666 72.8706 25.3182 74.9397 24.8794Z" fill="#252525"/>
<path d="M75.7547 26.4468C71.554 30.2086 71.9302 30.522 71.6167 30.3339C71.1778 29.9577 74.0618 26.9483 75.7547 26.4468Z" fill="#252525"/>
<path d="M118.702 39.1118C113.311 40.4285 113.436 40.742 113.311 40.3658C113.122 39.9269 116.132 39.1118 118.702 39.1118Z" fill="#252525"/>
<path d="M75.4412 22.5596C74.6888 21.7446 75.8801 20.4907 77.0086 20.1145C77.3848 19.9891 77.5102 20.3025 77.1967 20.4906C76.3817 20.9922 75.5039 21.4938 75.4412 22.5596Z" fill="#252525"/>
<path d="M81.5228 19.0487C82.4006 19.1114 82.714 18.8606 83.341 18.7352C83.7172 18.6725 83.8426 18.9233 83.4664 19.1114C82.2125 19.8638 80.8959 19.7383 80.8959 19.3621C80.8959 18.9233 81.5228 19.0487 81.5228 19.0487Z" fill="#252525"/>
<path d="M84.1561 26.0708C82.0244 27.5128 82.0871 27.7636 81.899 27.5755C81.7109 27.3247 82.8394 26.1335 84.1561 26.0708Z" fill="#252525"/>
<path d="M80.7078 25.8196C80.0181 25.8196 79.8927 25.6943 79.83 25.13C79.83 24.8166 79.6419 24.1896 79.9554 24.1896C80.5197 24.1269 79.7673 25.5062 80.7078 25.4435C81.2721 25.3808 81.3348 25.3807 81.3348 25.5061C81.3975 25.7569 80.9586 25.7569 80.7078 25.8196Z" fill="#252525"/>
<path d="M83.7799 22.3717C83.7172 23.0614 82.9648 22.8732 82.9648 22.1836C82.9648 21.6193 83.6545 21.5566 83.7799 22.3717Z" fill="#252525"/>
<path d="M76.9459 24.0642C76.9459 23.3746 77.8864 23.6253 77.8864 24.3777C77.8864 25.1301 76.9459 24.8793 76.9459 24.0642Z" fill="#252525"/>
<path d="M28.2927 29.6441C29.1077 30.083 34.0609 33.7195 36.5061 28.5783C37.9481 25.5688 37.6345 21.995 37.0703 18.672C36.8822 17.7315 35.5656 16.2269 34.9386 15.7253C34.3117 15.2237 34.4997 16.6656 32.368 16.1013C32.0545 16.0386 31.6785 15.8506 31.365 15.7879C31.0515 17.3553 29.2332 17.6688 27.7912 16.5402C27.7285 18.3585 26.9134 19.926 25.0952 19.926C25.0325 20.1768 26.3491 21.1172 25.5968 22.5593C25.1579 23.3744 24.2174 23.437 23.3396 23.3744C22.9008 23.3117 22.3992 23.8132 22.8381 24.3148C24.7189 26.6973 26.9133 24.8164 27.0387 31.6504C26.7879 31.6504 26.5999 31.5876 26.5999 31.2741C26.6626 30.6472 26.4118 30.0202 26.3491 29.3933C26.2864 29.0798 26.2237 29.0171 25.9103 29.0798C24.6563 29.5186 23.2142 28.6409 23.3396 27.4497C23.3396 27.1989 23.3397 27.1361 23.0889 27.0734C22.1484 26.8853 21.5841 26.0077 21.7722 25.1299C22.023 23.8133 20.6436 24.7538 19.8285 22.9355C19.0134 21.18 20.7064 21.0545 20.2675 20.2395C19.5778 19.0482 19.6405 17.4807 20.581 16.7283C21.208 16.164 21.2707 15.788 21.0199 15.0356C20.5183 13.4681 21.7095 11.838 23.1515 11.6499C24.0293 11.5246 24.0292 11.5244 24.5308 10.8975C25.722 9.51814 27.2268 9.3928 28.6062 10.6467C29.1077 11.1483 29.2331 9.7063 31.4275 9.7063C33.4965 9.7063 33.0577 11.6499 33.9982 11.2737C35.3148 10.7094 36.4434 12.0888 36.1926 13.4681C38.4497 13.1546 39.2021 15.9132 37.9482 17.3553C37.4466 17.9196 39.2647 18.1077 38.8259 20.2395C38.6378 21.3053 37.7601 21.1799 37.8228 21.9323C39.0141 33.4059 30.2989 33.4686 28.2927 29.6441ZM30.6126 13.9697C29.6094 15.4745 28.4809 14.6594 28.4182 15.2237C28.4182 15.4745 28.6062 15.5999 28.7943 15.6626C29.7348 15.976 30.9261 14.9729 30.6126 13.9697ZM26.0982 16.4148C25.7847 16.6656 25.722 17.6061 24.8443 18.045C24.4681 18.2331 24.907 18.8601 25.534 18.4212C26.0356 18.045 26.2863 17.2299 26.0982 16.4148ZM25.6594 11.4618C26.788 10.9602 27.4777 11.5872 27.6031 10.9602C27.7285 10.2078 25.9729 10.2705 25.6594 11.4618Z" fill="#252525"/>
<path d="M54.1866 47.0115C53.0581 45.0051 51.4281 43.5004 49.7352 41.9957C43.0893 36.3529 34.3743 38.3593 33.6846 32.9673C33.6219 32.2776 33.5592 32.3402 32.9323 32.4029C32.368 32.4656 32.556 32.7165 32.556 34.8482C32.556 34.9736 32.6188 35.0989 32.4307 35.2243C32.1799 34.66 32.1798 34.0958 32.0544 33.4688C31.929 32.6537 31.929 32.6537 31.114 32.7164C30.5497 32.7791 30.8005 32.9672 30.8632 34.9736C30.8632 35.099 30.9886 35.3498 30.7378 35.4125C30.4243 35.4125 30.487 35.0363 30.3616 33.7196C30.2989 32.8418 30.2363 32.9046 29.3586 32.9673C28.4181 32.9673 28.7941 32.8418 28.7941 35.4125C28.5433 34.9736 28.4181 34.5346 28.4181 34.0957C28.3554 32.2775 27.9791 32.9672 26.9132 32.4029C26.2236 32.0267 27.1014 34.472 25.722 35.1617C21.3332 37.4815 13.4333 36.7919 5.34536 48.0147C2.33588 52.1527 0.893835 57.2938 1.39538 63.1246C2.71202 77.1062 18.888 83.4386 26.7879 67.8269C28.6688 64.1277 29.86 58.1088 29.86 57.6073C29.86 57.1684 29.4211 57.1058 29.1076 56.9177C28.8568 56.7923 27.8538 59.3002 27.603 59.1121C27.3522 58.924 27.8538 58.0461 28.1046 57.6073C28.7943 56.2907 28.23 56.6669 27.4149 55.9772C26.6625 55.3502 25.2831 58.297 25.0951 57.9835C24.907 57.6701 26.5371 55.8518 26.4117 55.4756C26.349 55.1621 25.7847 54.974 25.4085 54.7859C24.7189 54.4097 24.7189 54.4098 24.1546 55.0367C23.7157 55.5383 22.9633 56.7296 22.7125 56.4161C22.4617 56.1026 24.5935 54.2217 24.0292 53.9082C22.023 53.0304 22.9633 52.5915 20.4554 55.0367C20.3927 55.0994 20.2673 55.2248 20.1419 55.1621C19.9538 55.0367 20.0793 55.0994 21.3332 53.5947C21.5213 53.3439 22.4617 52.905 20.9569 52.7796C20.33 52.7169 18.5119 53.9709 18.073 54.2844C26.2237 58.9241 29.6719 60.4288 27.9791 59.9272C25.095 59.0495 20.6436 56.4788 18.073 54.8486C17.446 54.4725 17.5086 54.5352 13.7467 57.1058C10.8 59.1122 10.9254 59.2374 10.8 59.1121C10.6119 58.924 10.8 58.7987 10.9254 58.6733C11.427 58.2344 11.9285 57.7955 12.4928 57.4193C20.0792 52.1527 20.8942 51.5883 22.5244 52.278C22.7752 52.4034 22.9633 52.2153 23.026 52.0272C23.5903 49.8956 28.0419 43.1242 32.1172 42.1838C32.9323 41.9957 33.1203 42.6853 32.6814 43.1242C32.6814 43.1242 28.4807 46.9488 28.8569 47.3877C29.2958 47.952 30.3617 45.1306 35.9418 44.2528C38.8259 43.814 39.0139 45.0051 37.6345 45.3813C35.9417 45.8828 33.183 46.7606 31.8037 47.8892C32.368 47.9519 33.4966 46.886 35.9418 46.5098C36.945 46.3844 39.8917 45.8828 39.9544 46.9487C40.0171 47.7011 39.0765 47.2622 34.7504 48.8296C34.3743 48.955 32.9323 49.4566 33.1204 49.7701C33.1831 49.8954 33.6219 49.5821 34.4997 49.2686C36.0044 48.767 41.083 48.2028 40.9576 49.5821C40.9576 49.8956 40.7067 49.8956 40.4559 49.8956C31.741 51.0869 37.7599 50.648 39.5155 51.4631C39.8917 51.6511 40.1425 52.1526 39.3901 52.278C37.3838 52.7169 35.064 52.278 33.8727 54.0335C33.0576 55.2248 32.4307 55.4129 30.926 56.7296C30.1736 57.3566 30.6751 57.2939 29.4211 62.5603C25.8474 77.3569 16.0666 74.5355 27.2895 75.7268C30.2362 76.0403 33.183 75.8522 36.1297 75.2879C36.3805 75.2252 36.4433 75.1625 36.3806 74.9117C35.7537 70.3975 35.0012 64.5039 35.3774 59.9272C35.6282 57.3566 38.0107 56.5415 47.1646 55.2249C48.1677 55.0995 47.4781 54.0336 50.9892 51.9018C51.9297 51.3376 50.8638 48.8923 53.8106 47.5757C54.5002 47.5757 54.5001 47.5758 54.1866 47.0115Z" fill="#644DF6"/>
<path d="M29.1077 56.228C29.9854 55.2875 34.6878 54.4097 32.9323 51.8391C32.1172 50.6478 31.1141 49.7701 29.9228 49.0178C27.6657 47.513 31.5529 48.5162 33.5592 51.8391C35.2521 54.5978 30.1108 56.2907 29.1077 56.228Z" fill="#252525"/>
<path d="M32.3053 42.748C28.9196 45.3186 27.4776 46.5726 25.0951 50.7733C23.9666 52.7796 24.092 52.905 23.8412 52.7796C22.9634 52.4034 28.5435 43.375 32.3053 42.748Z" fill="#252525"/>
<path d="M37.8854 44.8796C30.9887 46.8232 30.7379 48.2026 30.4244 47.701C30.1736 47.2621 34.8759 44.6288 37.8854 44.8796Z" fill="#252525"/>
<path d="M32.4934 20.1143C32.8069 20.4904 32.6188 21.0546 33.4339 23.4371C33.8101 24.5657 32.2425 25.1927 32.0544 24.8166C31.8036 24.315 33.4339 24.6912 32.8069 22.6221C32.5561 21.9325 32.4933 21.1801 32.3679 20.4278C32.3679 20.3024 32.368 20.2397 32.4934 20.1143Z" fill="#252525"/>
<path d="M32.3679 26.7599C31.6155 27.7004 29.9854 27.3241 29.7347 25.9448C29.672 25.5059 30.048 25.3178 30.1734 25.6313C30.6123 26.6344 31.302 27.0107 32.3679 26.7599Z" fill="#252525"/>
<path d="M28.1047 20.4903C28.1674 19.1736 30.4245 18.3587 30.4245 19.1737C30.4245 19.6753 29.7976 19.1736 28.1047 20.4903Z" fill="#252525"/>
<path d="M29.1704 22.3086C28.3554 23.061 28.9195 20.8665 30.487 21.4308C30.6751 21.4935 30.8632 21.5562 30.8005 21.7443C30.7378 22.2459 30.0481 21.4936 29.1704 22.3086Z" fill="#252525"/>
<path d="M35.1268 20.9291C35.8792 20.9918 36.13 21.6189 35.9419 21.7443C35.7538 21.9324 35.1894 21.3054 34.4371 21.6189C33.9355 21.8697 33.8728 20.8664 35.1268 20.9291Z" fill="#252525"/>
<path d="M35.8164 18.4212C33.8101 18.4212 33.7474 18.484 33.6847 18.2332C33.622 17.6689 35.2521 17.5434 35.8164 18.4212Z" fill="#252525"/>
<path d="M39.7663 47.1366C33.9355 47.7636 32.1799 49.5819 31.9291 49.2684C31.3022 48.3906 37.8227 46.3215 39.7663 47.1366Z" fill="#252525"/>
<path d="M40.7695 49.7074C35.5656 49.7074 33.9355 51.2748 33.7474 50.5851C33.4966 49.7073 39.5155 49.0178 40.7695 49.7074Z" fill="#252525"/>
<path d="M39.641 52.1523C38.0108 52.2777 36.3806 52.2778 34.7505 52.4032C34.5624 52.4032 34.3744 52.4659 34.3117 52.2151C34.249 51.4 38.5751 51.6508 39.641 52.1523Z" fill="#252525"/>
<path d="M34.4373 5.63103C34.7508 4.50249 35.0643 4.12623 34.3119 4.00083C34.1238 4.00083 33.4342 3.68745 33.4342 3.43665C33.4969 2.99775 34.5 2.93511 34.9389 2.87241C35.5659 2.80971 35.2524 2.37069 35.6286 1.49295C35.9421 0.677847 36.4436 1.74381 36.8198 2.49615C37.0079 2.87235 37.0706 2.68431 38.0738 2.37081C38.2619 2.30811 38.7007 2.43351 38.1991 2.99781C37.6976 3.62475 37.0706 3.56211 38.3245 5.06685C38.638 5.44299 38.3872 5.63103 38.011 5.50563C35.942 4.69059 36.569 4.50243 34.8762 5.88177C34.5627 6.19527 34.3746 6.06993 34.4373 5.63103Z" fill="#644DF6"/>
<path d="M31.9293 2.8724C31.7413 3.5621 30.55 3.81272 31.3024 4.62782C31.4905 4.81592 31.6159 5.06672 31.7413 5.25482C31.804 5.38016 32.0547 5.56826 31.9293 5.75636C31.804 5.94446 31.5532 5.81906 31.4278 5.75636C29.3588 4.94132 30.174 4.75328 28.4184 6.13262C28.1049 6.38342 27.854 6.13262 27.9794 5.81912C28.2929 4.75328 28.5438 4.43978 28.0422 4.25174C26.0985 3.75014 27.3526 3.06038 28.4184 3.06038C29.0454 3.06038 28.7946 2.5589 29.1707 1.61846C29.4215 0.991459 29.9858 1.80644 30.2366 2.43338C30.4874 3.24848 30.8008 2.6843 31.6159 2.5589C31.7413 2.5589 31.8666 2.6216 31.9293 2.8724Z" fill="#644DF6"/>
<path d="M20.8948 6.44633C21.0202 5.31779 21.6471 5.00429 20.832 4.75349C19.2019 4.25195 19.9543 3.68765 21.3336 3.62495C21.8979 3.62495 21.6471 3.31145 22.086 2.24561C22.3368 1.49321 22.8384 2.43371 23.2145 3.18605C23.4026 3.68765 23.5906 3.43679 24.5311 3.12329C24.8446 3.06059 25.0327 3.31139 24.8446 3.56219C24.1549 4.37723 23.8415 4.43999 24.155 4.87889C24.155 4.87889 25.0327 6.13277 24.9073 6.25817C24.7192 6.57167 23.2145 5.75657 23.2145 5.75657C22.6503 5.44307 22.5248 5.75663 21.3963 6.63443C21.1455 6.82253 20.8948 6.75983 20.8948 6.44633Z" fill="#644DF6"/>
<path d="M77.5735 7.5121C77.887 6.38356 78.1371 6.07 77.5102 5.8819C76.0681 5.5057 76.507 4.81606 78.0118 4.81606C78.7014 4.81606 78.3879 4.31452 78.7641 3.43672C79.0776 2.62168 79.5165 3.62482 79.8926 4.37722C80.2061 5.00422 80.2694 4.43986 81.2099 4.31446C81.8996 4.18906 81.3974 5.00416 80.8331 5.443C80.2061 5.9446 81.7742 7.07314 81.5234 7.44934C81.398 7.57474 81.2726 7.51204 81.0845 7.44934C78.9528 6.5716 79.7052 6.44626 77.9497 7.8256C77.6989 8.0137 77.5108 7.951 77.5735 7.5121Z" fill="#644DF6"/>
</svg>
