<svg width="120" height="120" viewBox="0 0 120 120" fill="none" xmlns="http://www.w3.org/2000/svg">
<path d="M42.2114 93.7211C42.5876 94.2853 42.5248 95.79 43.0891 97.4202C43.9669 99.9281 45.5971 99.3638 49.8605 99.1757C57.2588 98.8622 66.2873 97.2321 72.1809 96.7932C73.7483 96.6678 75.3158 96.2916 76.8832 95.9154C78.8896 95.4139 77.8237 93.4703 78.388 93.3449C78.9523 93.2822 79.1404 95.4139 78.1999 96.1662C76.7578 97.2321 71.2405 97.7337 69.3595 97.7964C66.977 97.8591 54.939 99.9281 45.9733 99.9908C44.0923 99.9908 43.0892 99.2384 42.5249 97.4202C42.2741 96.6051 41.7725 94.4107 42.2114 93.7211Z" fill="#666666"/>
<path d="M57.3214 52.4662C60.143 52.6543 62.9017 53.7828 64.4065 56.1027C65.0334 57.0431 64.7199 57.1684 64.1557 57.2938C46.6628 59.739 47.5406 59.5511 47.666 58.7987C48.1049 55.7892 50.8636 53.7201 53.8104 52.905C52.6818 51.7138 52.9953 50.3345 53.9357 49.5194C55.8167 47.7012 59.2023 49.0806 57.3214 52.4662ZM48.1676 58.7987C63.7168 56.4789 64.3438 57.0431 63.9049 56.4162C59.8292 51.1495 50.1112 52.4035 48.1676 58.7987ZM53.6848 51.275C53.6848 53.0932 55.5032 52.4662 55.6913 52.5289C57.1333 52.717 58.0738 49.9584 56.2555 49.3941C55.127 48.9552 53.6848 49.9584 53.6848 51.275Z" fill="#666666"/>
<path d="M36.3803 62.6231C36.3176 60.3034 36.6312 58.8615 38.4494 58.1718C39.9542 57.6702 47.3524 56.1028 47.3524 56.7924C47.3524 57.0432 46.9761 56.9804 45.4087 57.2939C39.2016 58.5479 37.2581 58.4853 37.0073 60.8676C36.443 66.8865 39.8286 78.7991 39.2643 78.9871C38.8254 79.0498 36.6311 68.4539 36.3803 62.6231Z" fill="#666666"/>
<path d="M46.6001 90.3354C46.224 90.3981 46.1612 90.3354 45.5969 85.8212C45.4088 84.3164 45.2834 84.818 51.2397 83.8775C52.1175 83.7521 51.804 84.0029 52.619 88.956C52.8071 89.8338 52.6818 89.583 46.6001 90.3354ZM51.0516 84.6299C45.9731 85.2569 45.9731 85.1315 46.0358 85.5704C46.7255 89.8965 46.5374 89.9592 46.9763 89.8965C51.9921 89.2068 52.0548 89.3949 51.9921 88.956C51.3024 84.6299 51.3651 84.5045 51.0516 84.6299Z" fill="#666666"/>
<path d="M42.901 69.5825C42.5248 69.6452 42.4621 69.5825 41.8978 65.0683C41.7098 63.5635 41.5844 64.0651 47.5406 63.1247C48.4184 62.9993 48.1049 63.25 48.92 68.2032C49.1081 69.0809 48.9826 68.8301 42.901 69.5825ZM47.3525 63.8144C42.274 64.4413 42.274 64.3159 42.3367 64.7548C43.0264 69.0809 42.8383 69.1436 43.2772 69.0809C48.293 68.3913 48.3557 68.5793 48.293 68.1405C47.6033 63.8143 47.666 63.7517 47.3525 63.8144Z" fill="#666666"/>
<path d="M44.5937 79.5514C44.2175 79.6141 44.1549 79.5521 43.5906 75.0378C43.4025 73.5331 43.2772 74.0346 49.2335 73.0942C50.1112 72.9688 49.7976 73.2196 50.6127 78.1727C50.8008 79.0505 50.6753 78.7991 44.5937 79.5514ZM49.0453 73.7838C43.9668 74.4108 43.9668 74.2854 44.0295 74.7243C44.7191 79.0505 44.5311 79.1132 44.9699 79.0505C49.9857 78.3608 50.0484 78.5489 49.9857 78.11C49.2961 73.7838 49.3587 73.7211 49.0453 73.7838Z" fill="#666666"/>
<path d="M65.4096 55.1622C65.5977 54.7233 69.7984 54.3471 72.7452 54.5352C74.3753 54.6606 74.5634 55.2249 75.065 59.9273C75.9428 67.9524 75.1904 68.3913 75.065 67.0746C74.1245 56.2281 74.3753 55.2249 72.996 55.0368C70.1746 54.7233 65.5977 55.6011 65.4096 55.1622Z" fill="#666666"/>
<path d="M56.757 76.7927C54.1864 76.4165 55.5658 75.5388 53.6222 77.4197C53.4968 77.545 53.434 77.6704 53.2459 77.6077C52.9951 77.4824 53.0578 77.2943 53.2459 76.2911C53.434 75.4761 52.7444 75.8523 52.0547 75.4761C51.3023 75.0372 52.6817 74.5355 53.1833 74.5355C53.873 74.5355 53.4968 74.0967 53.7475 73.1562C53.9983 72.3412 54.6253 73.1562 55.0015 73.9086C55.2523 74.4102 55.3777 74.0967 56.2555 73.7205C56.5063 73.5951 56.8198 73.7832 56.6317 74.1594C56.1301 75.0371 55.6912 75.0999 56.2555 75.6015C56.3182 75.6642 57.1332 76.6046 57.0705 76.73C57.0705 76.7927 56.945 76.7927 56.757 76.7927Z" fill="#C0C0C0"/>
<path d="M58.4499 65.5698C58.7634 63.6263 58.5125 64.4413 57.4467 63.9398C57.0705 63.7517 57.0705 63.5009 57.4467 63.3128C58.5125 62.8112 59.0143 63.1874 58.9516 62.4977C58.9516 61.808 59.2023 60.8676 59.7039 61.4318C60.4565 62.3096 60.3311 62.8112 60.8954 62.4977C61.2089 62.3096 61.7731 61.9334 61.9612 62.2469C62.0866 62.435 61.9612 62.6231 61.7104 62.9993C61.0835 63.9398 61.3343 63.689 62.1493 64.8802C62.212 65.0056 62.4001 65.131 62.3374 65.2564C62.212 65.4444 62.0239 65.3817 61.8985 65.3191C59.7666 64.7548 60.3938 64.4413 59.0141 65.8833C58.8887 66.0087 58.7634 66.1968 58.5753 66.1341C58.3872 66.0087 58.5126 65.7579 58.4499 65.5698Z" fill="#C0C0C0"/>
<path d="M65.0961 64.0024C65.4096 62.0588 65.1588 62.8739 64.0929 62.3723C63.7167 62.1842 63.7167 61.9334 64.0929 61.7453C65.1588 61.2437 65.6604 61.6199 65.5977 60.9302C65.5977 60.2407 65.8485 59.3003 66.35 59.8645C67.1024 60.7423 66.977 61.2437 67.5413 60.9302C67.8548 60.7423 68.4191 60.3662 68.6072 60.6797C68.7326 60.8675 68.6072 61.0556 68.3564 61.4318C67.7294 62.3723 67.9802 62.1215 68.7953 63.3128C68.858 63.4382 69.0461 63.5636 68.9834 63.689C68.858 63.877 68.6699 63.8143 68.5445 63.7517C66.4127 63.1874 67.0397 62.8739 65.6604 64.3159C65.535 64.4413 65.4096 64.6294 65.2215 64.5667C65.0334 64.4413 65.1588 64.1905 65.0961 64.0024Z" fill="#C0C0C0"/>
<path d="M51.365 65.4445C51.0515 65.3818 50.2993 65.257 50.2993 64.8808C50.2993 64.5673 51.2398 64.2538 51.616 64.2538C52.3684 64.2538 51.9922 63.6269 52.243 62.7491C52.4937 61.934 53.058 62.8739 53.4969 63.5636C53.8104 64.1278 53.9358 63.5015 54.7508 63.3134C54.9389 63.2507 55.0643 63.2501 55.1897 63.4382C55.4405 63.7517 54.3745 64.5046 54.4999 64.8808C54.5626 65.257 55.0643 65.5705 55.1897 65.884C55.3151 66.0721 55.6912 66.1974 55.5032 66.4482C55.3778 66.699 55.0642 66.4482 54.8134 66.4482C52.9325 66.0094 53.685 65.5705 52.243 67.0752C52.1176 67.2006 51.9921 67.4508 51.7413 67.3254C51.2397 67.1373 52.1174 65.5698 51.365 65.4445Z" fill="#C0C0C0"/>
<path d="M48.7946 74.5983C47.1017 79.0498 47.3525 79.8649 44.9699 76.8554C44.8445 76.73 44.5939 76.5419 44.8446 76.3538C45.0954 76.1657 45.2835 76.2911 46.412 77.5451C46.9136 78.1721 46.6628 77.4197 48.1676 74.0967C48.3557 73.7205 50.2366 69.6452 50.6755 69.5825C50.7382 70.6484 48.92 74.3475 48.7946 74.5983Z" fill="#C0C0C0"/>
<path d="M47.6032 64.63C45.9104 69.0815 46.1612 69.8966 43.7787 66.8871C43.6533 66.7617 43.4024 66.573 43.6532 66.3849C43.904 66.1968 44.0921 66.3228 45.2207 67.5768C45.7223 68.2037 45.4715 67.4514 46.9762 64.1284C47.1643 63.7522 49.0452 59.6767 49.4841 59.614C49.5468 60.7426 47.6658 64.4419 47.6032 64.63Z" fill="#C0C0C0"/>
<path d="M66.6635 61.4318C70.8643 65.6952 73.4342 68.8301 75.0644 70.8364C82.0238 79.3633 82.3373 79.0498 81.8984 79.426C81.5223 79.7395 81.3347 79.2379 81.084 79.0498C78.0118 75.9149 69.673 65.7579 66.4754 61.6826C66.4127 61.4945 66.4127 61.3691 66.6635 61.4318Z" fill="#666666"/>
<path d="M31.3018 118.8C30.1733 117.86 32.305 101.684 35.1891 95.2885C36.6938 92.0282 34.8756 96.8559 40.393 100.116C42.462 101.307 43.4025 101.057 43.9041 101.496C43.3398 102.311 37.6343 100.869 35.816 95.3512C32.9947 102.311 31.8661 111.402 31.3018 118.8Z" fill="#666666"/>
<path d="M78.8896 98.4233C79.015 96.417 80.3316 97.7336 85.4728 96.4797C89.5481 95.5392 90.3005 92.9066 90.7394 93.2827C91.1156 93.5962 89.3594 96.1035 86.2873 96.9813C80.2683 98.7368 79.7046 96.6684 79.5166 99.1136C78.1372 115.666 78.8896 116.481 78.2626 116.481C77.2594 116.481 78.8269 99.6773 78.8896 98.4233Z" fill="#666666"/>
<path d="M101.147 110.9C99.7051 109.333 99.6424 107.828 92.3695 95.5392C91.3037 93.7837 91.3037 93.6583 91.5544 93.5329C91.9933 93.3448 100.457 107.326 101.147 110.9Z" fill="#666666"/>
<path d="M72.996 75.1625C73.1841 77.357 72.4317 80.6806 74.1872 84.6932C76.3817 89.7717 80.3316 91.4018 80.5824 91.5899C83.2157 93.7216 71.6794 89.8344 72.4317 77.8592C72.369 77.5457 72.5571 75.2252 72.996 75.1625Z" fill="#666666"/>
<path d="M41.5216 82.1847C41.647 82.122 41.7725 82.122 41.8978 82.1847C42.0232 82.3101 42.0231 82.4355 41.9604 82.5609C40.9572 83.9402 39.2017 86.0719 38.9509 89.5203C38.6375 94.8496 41.5215 97.2948 41.3334 97.5456C40.581 98.2353 35.3145 90.5235 40.3929 83.5013C40.581 83.0625 41.02 82.5609 41.5216 82.1847Z" fill="#666666"/>
<path d="M94.1251 78.6109C93.2473 83.6894 90.4259 85.7584 90.1124 90.0218C89.987 91.9028 90.5513 92.279 90.2378 92.4044C89.7989 92.5924 89.36 90.9623 89.5481 89.2695C90.3005 83.6894 95.2536 80.868 92.7457 74.3475C92.6203 73.8459 94.6267 75.4133 94.1251 78.6109Z" fill="#666666"/>
<path d="M52.6818 118.675C51.7414 117.671 46.0985 102.373 47.1017 102.185C47.2898 102.122 47.3525 102.373 47.3525 102.499C50.6755 112.342 53.058 118.236 52.6818 118.675Z" fill="#666666"/>
<path d="M81.5849 68.642C88.2308 68.5793 89.2973 80.7426 86.664 83.1879C86.4759 83.376 86.2878 83.3133 86.4132 83.0625C88.0434 79.0499 87.5418 73.5324 84.4696 70.4603C83.8427 69.8333 83.0897 69.5825 81.5849 68.7674V68.642Z" fill="#666666"/>
<path d="M76.319 69.0809C78.7641 68.7047 82.3373 70.523 83.4658 75.4134C83.9674 77.6078 83.6546 81.6204 82.9022 81.4323C82.4633 81.3069 82.8395 80.7426 82.9022 80.3665C84.0934 70.4603 77.1967 69.896 76.319 69.0809Z" fill="#666666"/>
<path d="M89.4221 82.9371C91.5538 78.3601 91.6798 74.0967 87.6672 70.523C88.2315 70.4603 89.0465 70.8992 89.6108 71.6515C92.9965 75.915 91.0522 82.0593 89.4221 82.9371Z" fill="#666666"/>
<path d="M97.6361 74.8491C94.8147 74.9118 95.0028 75.0999 94.752 74.7864C94.1878 74.034 93.4354 73.4697 92.4322 73.4697C91.9933 73.4697 90.614 68.642 87.2283 69.7079C86.6641 69.896 86.2252 68.5793 83.9681 67.9524C82.3379 67.5135 81.7736 68.5166 80.8959 68.1405C79.7046 67.6389 78.5134 67.6389 77.3221 67.9524C76.7578 68.0778 76.7578 68.0778 76.6951 67.5135C75.9428 55.1622 75.7547 53.5321 73.7483 53.4694C73.3095 53.4694 73.2468 53.2186 73.2468 52.9678C72.9333 48.0774 72.8079 45.8203 72.8079 44.1274C72.6825 39.7386 71.9302 39.2997 72.9333 38.6727C76.7578 36.4156 83.2157 34.7229 83.6546 34.6602C84.1561 34.5348 84.4069 34.5975 84.595 35.0991C85.222 36.9799 86.8522 36.9173 88.1061 36.2276C90.9902 34.6602 90.3632 33.2809 91.4291 33.5944C96.8837 35.0364 100.395 35.7259 102.715 37.5442C103.404 38.0458 104.031 38.0458 103.655 38.6727C101.774 41.933 101.398 44.1275 101.461 46.0711C101.523 47.8893 100.771 46.5099 99.2663 47.7639C94.1878 52.2154 92.056 58.924 92.1187 64.0651C92.2441 69.269 94.0623 72.1531 97.6361 74.8491ZM91.3037 33.9079C91.0529 33.9079 90.1124 36.2275 87.7926 36.9172C87.5418 36.9799 87.4791 37.1055 87.6672 37.3562C89.4854 38.9863 89.36 40.5538 90.1124 39.8641C91.6798 38.4848 92.9338 36.8545 93.8116 34.9109C94.0624 34.5347 94.2505 34.7229 91.3037 33.9079ZM85.6609 36.8546C85.2847 36.4157 84.9085 36.7918 84.0934 35.0363C83.8427 34.5347 83.78 35.099 80.3943 35.9767C80.0808 36.0394 80.1435 36.165 80.2062 36.4158C80.3943 37.3562 80.7705 38.2339 81.1466 39.1116C81.7736 40.5537 81.3974 39.864 85.222 37.4188C85.4101 37.2934 85.5982 37.168 85.6609 36.8546Z" fill="#C0C0C0"/>
<path d="M110.865 68.5793C111.179 68.2031 110.991 68.5166 110.552 48.14C110.489 46.5725 109.11 47.4502 109.611 46.6351C111.116 44.3153 111.304 44.1274 111.618 44.5662C120.458 55.4756 117.135 70.5856 109.862 74.5982C105.661 76.9181 101.837 77.0435 97.8242 74.2221C94.3132 71.7769 92.8084 68.4539 92.7457 64.3159C92.5576 57.3565 95.3163 53.5945 97.5107 50.397C97.8869 49.8954 98.2004 50.2716 104.47 50.0835C106.1 50.0208 107.73 50.1462 109.423 50.0835C109.799 50.0835 109.862 50.1463 109.862 50.5225C110.364 65.5072 110.364 68.3285 110.865 68.5793Z" fill="#C0C0C0"/>
<path d="M80.5824 16.666C77.5102 16.7914 76.3817 17.7944 75.0023 19.55C73.623 21.3055 70.1746 17.9825 69.9865 16.1016C69.4849 11.5874 73.5609 8.38993 77.6362 10.5216C79.0783 11.274 79.4539 12.2144 81.0213 12.089C84.2188 11.8382 85.5982 11.7129 87.7299 14.2835C88.9211 15.7255 89.7989 17.7318 89.2973 19.6127C89.1092 20.2397 90.1124 20.3024 89.7362 21.7444C88.9838 24.5658 88.2948 24.8167 88.9218 27.5753C89.9249 32.0269 90.9902 32.6539 90.3632 32.9674C90.1124 33.0928 90.1124 32.7793 90.0497 32.6539C86.9776 25.381 88.3575 24.5032 89.2353 21.6818C89.486 20.9294 89.1719 20.3652 88.6703 20.1144C88.1688 19.8636 87.7299 20.4278 87.291 20.8039C86.6014 21.4936 86.3506 20.9293 85.849 21.1174C84.4069 21.619 86.2258 22.1834 84.8464 24.1897C84.0941 25.2556 82.4633 25.1927 81.6482 24.0642C81.0213 23.1865 81.272 22.9357 80.8959 22.873C77.9491 22.8103 80.3316 23.312 79.1404 25.7572C78.7015 26.5723 77.5735 26.9483 76.6958 26.5095C75.191 25.8198 74.6888 23.7508 75.6293 22.4341C76.3817 21.3683 77.8864 21.3683 78.8269 22.4341C79.0777 22.7476 79.2658 22.9357 79.7047 22.6849C80.2689 22.246 81.3347 23.1865 81.1467 22.1833C80.7705 20.6158 83.1536 18.7978 84.8465 20.7413C84.9718 20.8667 84.9712 21.1802 85.3474 21.0548C85.9117 20.8667 85.9117 20.8666 85.7236 20.3024C84.5323 17.481 83.9681 16.7914 80.5824 16.666ZM84.8464 23.8762C85.4734 22.9358 85.0966 21.3055 84.0935 20.6158C83.0903 19.9262 81.899 20.3651 81.5228 21.5563C80.8959 23.8134 83.4671 25.8826 84.8464 23.8762ZM79.1404 25.1927C79.9554 22.7476 76.6951 20.6158 75.692 23.1238C74.6261 25.757 78.3253 27.8261 79.1404 25.1927ZM79.2037 13.7819C78.8902 12.4652 76.1936 10.9606 74.2499 11.3368C72.4944 11.7129 71.9301 13.0295 72.4944 13.4684C73.1214 13.97 73.6856 12.2771 75.9428 12.6533C77.3848 12.8414 77.7616 13.0922 79.2037 13.7819ZM80.8959 14.1581C84.5323 14.0327 80.2062 12.5906 80.2689 13.7819C80.3316 14.2208 80.7078 14.1581 80.8959 14.1581Z" fill="#666666"/>
<path d="M64.8453 53.7828C64.1557 53.8455 63.4033 52.2781 59.5162 51.275C58.7012 51.0869 59.6417 48.8925 57.2592 47.7012C56.9457 47.5758 56.9456 47.6385 58.2623 43.6259C59.0773 41.2434 59.2027 41.4314 59.5162 41.6194C63.0271 44.0646 68.4818 45.3187 71.2405 45.1933C72.181 45.1306 72.181 45.1932 72.2436 46.071C72.369 48.3281 72.4944 50.5853 72.6825 52.8424C72.7452 53.4694 72.6825 53.0305 64.8453 53.7828Z" fill="#C0C0C0"/>
<path d="M71.2405 43.3125C66.2873 42.6855 65.2215 42.0584 61.0208 40.0521C60.7073 39.864 60.3311 39.6759 60.3938 39.4251C60.8954 37.795 65.0961 41.8704 70.927 42.1212C72.2436 42.1839 72.2436 43.5005 71.554 43.3751C71.4913 43.3124 71.3659 43.3125 71.2405 43.3125Z" fill="#C0C0C0"/>
<path d="M100.959 48.5789C99.3916 48.5789 99.3916 48.6417 99.3289 48.4536C99.2662 48.2028 100.019 47.7639 100.646 47.7012C101.9 47.5759 109.988 46.9488 109.862 48.0773C109.737 48.9551 109.298 48.14 101.649 48.5789H100.959Z" fill="#C0C0C0"/>
<path d="M63.7167 38.4221C63.2151 37.5443 66.5381 34.4094 69.2341 21.7445C69.7984 23.0611 67.7294 31.588 64.3437 37.3562C64.0929 37.7324 64.0302 38.1713 63.7167 38.4221Z" fill="#666666"/>
<path d="M87.6672 28.3276C86.7895 31.4625 84.6577 30.6474 84.8458 31.9014C84.9085 32.4657 84.8458 32.9673 84.7204 33.5316C84.6577 33.7824 84.5323 33.8451 84.3442 33.8451C84.0935 33.7824 84.2189 33.5942 84.2815 33.4688C84.4696 30.0831 84.9085 32.2777 81.3347 31.3999C78.8269 30.7729 77.3848 27.8888 77.8864 27.7007C78.1372 27.5753 78.0745 27.8889 78.1372 27.9516C80.0181 31.4626 83.5292 31.7133 85.7863 30.3339C86.7268 29.6443 87.1657 28.453 87.6672 28.3276Z" fill="#666666"/>
<path d="M109.298 32.0271C108.357 33.281 104.282 37.9832 102.715 44.7545C102.652 44.9426 102.715 45.3188 102.464 45.2561C101.523 45.1934 104.47 35.6636 109.298 32.0271Z" fill="#666666"/>
<path d="M77.5102 27.45C70.6762 33.9079 71.8675 39.5506 70.9897 40.6165C69.8611 37.4816 74.3126 28.4532 77.5102 27.45Z" fill="#666666"/>
<path d="M108.545 46.6352C108.232 44.6916 113.875 41.9329 111.43 40.4282C108.107 38.3592 107.417 38.6727 107.605 38.2966C107.793 37.7323 111.241 39.7385 111.806 40.0519C114.251 41.6194 110.677 44.002 108.984 46.3845C108.796 46.5099 108.734 46.6352 108.545 46.6352Z" fill="#666666"/>
<path d="M115.442 32.4031C113.31 33.3435 110.176 34.9737 108.107 36.7919C107.919 36.9173 107.73 37.2935 107.542 37.0428C107.103 36.6039 111.555 33.1554 115.442 32.4031Z" fill="#666666"/>
<path d="M117.574 34.2838C109.799 37.356 110.301 38.2338 109.987 37.7949C109.361 36.9798 117.01 33.7822 117.574 34.2838Z" fill="#666666"/>
<path d="M118.201 36.792C111.743 38.7357 112.057 39.4253 111.868 38.9864C111.367 38.1714 118.013 36.2277 118.201 36.792Z" fill="#666666"/>
<path d="M74.1245 23.2494C68.9834 27.0739 69.6103 28.3905 69.0461 28.0143C68.4818 27.5754 73.2468 22.6851 74.1245 23.2494Z" fill="#666666"/>
<path d="M74.9396 24.8794C70.2373 28.4531 70.6762 29.3309 70.2373 29.0801C69.673 28.7666 72.8706 25.3182 74.9396 24.8794Z" fill="#666666"/>
<path d="M75.7547 26.4468C71.554 30.2086 71.9302 30.522 71.6167 30.3339C71.1778 29.9577 74.0618 26.9483 75.7547 26.4468Z" fill="#666666"/>
<path d="M118.702 39.1118C113.31 40.4285 113.436 40.742 113.31 40.3658C113.122 39.9269 116.132 39.1118 118.702 39.1118Z" fill="#666666"/>
<path d="M75.4412 22.5597C74.6889 21.7447 75.8801 20.4908 77.0086 20.1146C77.3848 19.9892 77.5102 20.3027 77.1967 20.4908C76.3817 20.9923 75.5039 21.4939 75.4412 22.5597Z" fill="#666666"/>
<path d="M81.5228 19.0486C82.4006 19.1113 82.7141 18.8605 83.3411 18.7351C83.7173 18.6724 83.8427 18.9233 83.4665 19.1114C82.2125 19.8637 80.8959 19.7382 80.8959 19.362C80.8959 18.9232 81.5228 19.0486 81.5228 19.0486Z" fill="#666666"/>
<path d="M84.1561 26.0709C82.0244 27.5129 82.0871 27.7636 81.899 27.5755C81.7109 27.3247 82.8395 26.1336 84.1561 26.0709Z" fill="#666666"/>
<path d="M80.7078 25.8195C80.0181 25.8195 79.8927 25.6943 79.83 25.13C79.83 24.8165 79.6419 24.1895 79.9554 24.1895C80.5197 24.1268 79.7673 25.5062 80.7078 25.4435C81.2721 25.3808 81.3348 25.3806 81.3348 25.506C81.3975 25.7568 80.9586 25.7568 80.7078 25.8195Z" fill="#666666"/>
<path d="M83.78 22.3715C83.7173 23.0612 82.9649 22.8731 82.9649 22.1834C82.9649 21.6191 83.6546 21.5565 83.78 22.3715Z" fill="#666666"/>
<path d="M76.9459 24.0643C76.9459 23.3747 77.8864 23.6254 77.8864 24.3778C77.8864 25.1302 76.9459 24.8794 76.9459 24.0643Z" fill="#666666"/>
<path d="M28.2927 29.6442C29.1077 30.0831 34.0609 33.7197 36.5061 28.5785C37.9481 25.569 37.6346 21.9951 37.0703 18.6722C36.8822 17.7317 35.5656 16.227 34.9386 15.7255C34.3117 15.2239 34.4997 16.6658 32.368 16.1015C32.0545 16.0388 31.6785 15.8508 31.365 15.7881C31.0515 17.3555 29.2332 17.669 27.7912 16.5404C27.7285 18.3587 26.9135 19.9262 25.0952 19.9262C25.0325 20.177 26.3492 21.1174 25.5968 22.5594C25.1579 23.3745 24.2174 23.4372 23.3396 23.3745C22.9008 23.3118 22.3992 23.8134 22.8381 24.315C24.719 26.6975 26.9133 24.8166 27.0387 31.6506C26.7879 31.6506 26.5999 31.5878 26.5999 31.2743C26.6626 30.6474 26.4119 30.0204 26.3492 29.3934C26.2865 29.0799 26.2238 29.0172 25.9103 29.0799C24.6563 29.5188 23.2142 28.6411 23.3396 27.4499C23.3396 27.1991 23.3397 27.1363 23.0889 27.0736C22.1484 26.8855 21.5841 26.0079 21.7722 25.1301C22.023 23.8134 20.6436 24.7539 19.8285 22.9357C19.0134 21.1802 20.7064 21.0547 20.2675 20.2397C19.5779 19.0484 19.6406 17.4809 20.581 16.7285C21.208 16.1642 21.2707 15.7881 21.0199 15.0357C20.5183 13.4683 21.7095 11.8382 23.1515 11.6501C24.0293 11.5248 24.0293 11.5246 24.5308 10.8977C25.722 9.51832 27.2268 9.39298 28.6062 10.6469C29.1077 11.1485 29.2331 9.70648 31.4276 9.70648C33.4965 9.70648 33.0578 11.6501 33.9982 11.2739C35.3148 10.7096 36.4434 12.089 36.1926 13.4683C38.4497 13.1548 39.2021 15.9134 37.9482 17.3555C37.4466 17.9198 39.2648 18.1079 38.8259 20.2397C38.6378 21.3055 37.7601 21.1801 37.8228 21.9325C39.0141 33.4061 30.299 33.4688 28.2927 29.6442ZM30.6126 13.9699C29.6094 15.4746 28.4809 14.6595 28.4182 15.2238C28.4182 15.4746 28.6062 15.6 28.7943 15.6627C29.7348 15.9762 30.9261 14.973 30.6126 13.9699ZM26.0982 16.415C25.7847 16.6658 25.722 17.6063 24.8443 18.0452C24.4681 18.2333 24.9071 18.8603 25.534 18.4214C26.0356 18.0452 26.2863 17.2301 26.0982 16.415ZM25.6594 11.462C26.788 10.9604 27.4777 11.5874 27.6031 10.9604C27.7285 10.208 25.9729 10.2707 25.6594 11.462Z" fill="#666666"/>
<path d="M54.1866 47.0115C53.0581 45.0052 51.4281 43.5005 49.7352 41.9957C43.0893 36.353 34.3743 38.3594 33.6847 32.9673C33.6219 32.2777 33.5592 32.3403 32.9323 32.403C32.368 32.4657 32.556 32.7165 32.556 34.8483C32.556 34.9737 32.6188 35.099 32.4307 35.2244C32.1799 34.6601 32.1798 34.0958 32.0544 33.4688C31.929 32.6537 31.929 32.6537 31.114 32.7164C30.5497 32.7791 30.8006 32.9673 30.8633 34.9736C30.8633 35.099 30.9887 35.3498 30.7379 35.4125C30.4244 35.4125 30.487 35.0363 30.3616 33.7197C30.2989 32.8419 30.2363 32.9046 29.3586 32.9673C28.4181 32.9673 28.7942 32.8419 28.7942 35.4125C28.5434 34.9736 28.4181 34.5347 28.4181 34.0958C28.3554 32.2776 27.9791 32.9672 26.9132 32.4029C26.2236 32.0268 27.1014 34.4721 25.722 35.1618C21.3332 37.4816 13.4333 36.7919 5.34539 48.0147C2.33591 52.1528 0.893866 57.2939 1.39541 63.1247C2.71205 77.1062 18.888 83.4386 26.7879 67.827C28.6688 64.1278 29.86 58.1089 29.86 57.6074C29.86 57.1685 29.4212 57.1058 29.1077 56.9177C28.8569 56.7923 27.8538 59.3003 27.603 59.1122C27.3522 58.9241 27.8538 58.0462 28.1046 57.6074C28.7943 56.2907 28.23 56.6669 27.4149 55.9773C26.6625 55.3503 25.2831 58.2971 25.0951 57.9836C24.907 57.6701 26.5371 55.8519 26.4117 55.4757C26.349 55.1622 25.7847 54.974 25.4085 54.786C24.7189 54.4098 24.7189 54.4098 24.1546 55.0368C23.7157 55.5384 22.9634 56.7296 22.7126 56.4162C22.4618 56.1027 24.5936 54.2217 24.0293 53.9082C22.023 53.0305 22.9633 52.5916 20.4554 55.0368C20.3927 55.0995 20.2673 55.2249 20.1419 55.1622C19.9538 55.0368 20.0793 55.0995 21.3332 53.5947C21.5213 53.344 22.4617 52.905 20.957 52.7796C20.33 52.7169 18.5119 53.971 18.073 54.2845C26.2237 58.9241 29.672 60.4289 27.9791 59.9273C25.095 59.0495 20.6436 56.4788 18.073 54.8487C17.4461 54.4725 17.5086 54.5353 13.7468 57.1059C10.8 59.1122 10.9254 59.2375 10.8 59.1122C10.6119 58.9241 10.8 58.7987 10.9254 58.6733C11.427 58.2344 11.9285 57.7955 12.4928 57.4194C20.0792 52.1528 20.8943 51.5883 22.5244 52.278C22.7752 52.4034 22.9634 52.2154 23.0261 52.0273C23.5904 49.8956 28.0419 43.1243 32.1172 42.1838C32.9323 41.9957 33.1203 42.6854 32.6814 43.1243C32.6814 43.1243 28.4807 46.9489 28.8569 47.3877C29.2958 47.952 30.3617 45.1307 35.9418 44.2529C38.8259 43.814 39.0139 45.0051 37.6346 45.3813C35.9417 45.8829 33.183 46.7607 31.8037 47.8892C32.368 47.9519 33.4966 46.8861 35.9418 46.5099C36.945 46.3845 39.8917 45.8829 39.9544 46.9487C40.0171 47.7011 39.0765 47.2622 34.7504 48.8297C34.3743 48.9551 32.9324 49.4567 33.1204 49.7702C33.1831 49.8955 33.6219 49.5822 34.4997 49.2687C36.0044 48.7671 41.083 48.2028 40.9576 49.5822C40.9576 49.8957 40.7067 49.8957 40.4559 49.8957C31.741 51.0869 37.76 50.648 39.5155 51.4631C39.8917 51.6512 40.1426 52.1526 39.3902 52.278C37.3838 52.7169 35.064 52.278 33.8727 54.0336C33.0576 55.2248 32.4308 55.413 30.926 56.7296C30.1736 57.3566 30.6751 57.2939 29.4212 62.5604C25.8474 77.357 16.0667 74.5356 27.2895 75.7268C30.2363 76.0403 33.183 75.8522 36.1298 75.288C36.3806 75.2253 36.4433 75.1626 36.3806 74.9118C35.7537 70.3976 35.0012 64.504 35.3774 59.9273C35.6282 57.3567 38.0108 56.5416 47.1646 55.2249C48.1677 55.0995 47.4782 54.0336 50.9892 51.9019C51.9297 51.3377 50.8638 48.8924 53.8106 47.5757C54.5003 47.5757 54.5001 47.5758 54.1866 47.0115Z" fill="#C0C0C0"/>
<path d="M29.1077 56.228C29.9855 55.2875 34.6878 54.4098 32.9324 51.8392C32.1173 50.6479 31.1141 49.7702 29.9229 49.0178C27.6657 47.5131 31.553 48.5162 33.5593 51.8392C35.2521 54.5979 30.1109 56.2907 29.1077 56.228Z" fill="#666666"/>
<path d="M32.3054 42.7482C28.9197 45.3187 27.4777 46.5727 25.0952 50.7734C23.9666 52.7797 24.092 52.9051 23.8412 52.7797C22.9634 52.4035 28.5436 43.3751 32.3054 42.7482Z" fill="#666666"/>
<path d="M37.8854 44.8797C30.9887 46.8234 30.7379 48.2027 30.4244 47.7011C30.1736 47.2623 34.8759 44.6289 37.8854 44.8797Z" fill="#666666"/>
<path d="M32.4935 20.1143C32.807 20.4905 32.6189 21.0546 33.4339 23.4371C33.8101 24.5657 32.2425 25.1928 32.0544 24.8166C31.8036 24.315 33.4339 24.6912 32.807 22.6222C32.5562 21.9326 32.4934 21.1802 32.368 20.4278C32.368 20.3024 32.3681 20.2397 32.4935 20.1143Z" fill="#666666"/>
<path d="M32.3679 26.76C31.6155 27.7005 29.9855 27.3242 29.7347 25.9449C29.672 25.506 30.0481 25.3179 30.1735 25.6314C30.6124 26.6345 31.3021 27.0108 32.3679 26.76Z" fill="#666666"/>
<path d="M28.1047 20.4904C28.1674 19.1737 30.4244 18.3588 30.4244 19.1739C30.4244 19.6755 29.7975 19.1737 28.1047 20.4904Z" fill="#666666"/>
<path d="M29.1704 22.3088C28.3554 23.0612 28.9196 20.8667 30.487 21.431C30.6751 21.4937 30.8632 21.5564 30.8005 21.7445C30.7378 22.246 30.0482 21.4937 29.1704 22.3088Z" fill="#666666"/>
<path d="M35.1268 20.9293C35.8792 20.992 36.1301 21.619 35.942 21.7444C35.7539 21.9325 35.1894 21.3055 34.4371 21.619C33.9355 21.8698 33.8729 20.8666 35.1268 20.9293Z" fill="#666666"/>
<path d="M35.8165 18.4214C33.8101 18.4214 33.7475 18.4842 33.6848 18.2334C33.6221 17.6691 35.2522 17.5436 35.8165 18.4214Z" fill="#666666"/>
<path d="M39.7664 47.1367C33.9355 47.7636 32.18 49.5819 31.9292 49.2684C31.3022 48.3907 37.8227 46.3216 39.7664 47.1367Z" fill="#666666"/>
<path d="M40.7695 49.7075C35.5657 49.7075 33.9355 51.2748 33.7474 50.5851C33.4966 49.7074 39.5156 49.0178 40.7695 49.7075Z" fill="#666666"/>
<path d="M39.641 52.1526C38.0109 52.278 36.3807 52.278 34.7506 52.4034C34.5625 52.4034 34.3745 52.4661 34.3118 52.2153C34.2491 51.4003 38.5752 51.651 39.641 52.1526Z" fill="#666666"/>
<path d="M34.4373 5.63109C34.7508 4.50255 35.0643 4.12629 34.312 4.00089C34.1239 4.00089 33.4343 3.68751 33.4343 3.43671C33.497 2.99781 34.5001 2.93517 34.9389 2.87247C35.5659 2.80977 35.2525 2.37075 35.6287 1.49301C35.9422 0.677908 36.4437 1.74387 36.8199 2.49621C37.008 2.87241 37.0707 2.68437 38.0738 2.37087C38.2619 2.30817 38.7008 2.43357 38.1992 2.99787C37.6976 3.62481 37.0706 3.56217 38.3246 5.06691C38.6381 5.44305 38.3873 5.63109 38.0111 5.50569C35.9421 4.69065 36.569 4.50249 34.8762 5.88183C34.5627 6.19533 34.3746 6.06999 34.4373 5.63109Z" fill="#C0C0C0"/>
<path d="M31.9295 2.87252C31.7414 3.56222 30.5501 3.81284 31.3025 4.62794C31.4906 4.81604 31.616 5.06684 31.7414 5.25494C31.8041 5.38028 32.0549 5.56838 31.9295 5.75648C31.8041 5.94458 31.5533 5.81918 31.4279 5.75648C29.3589 4.94144 30.1741 4.7534 28.4186 6.13274C28.1051 6.38354 27.8541 6.13274 27.9795 5.81924C28.293 4.7534 28.5439 4.4399 28.0423 4.25186C26.0987 3.75026 27.3527 3.0605 28.4186 3.0605C29.0455 3.0605 28.7947 2.55902 29.1708 1.61858C29.4216 0.991581 29.9859 1.80656 30.2367 2.4335C30.4875 3.2486 30.8009 2.68442 31.616 2.55902C31.7414 2.55902 31.8668 2.62172 31.9295 2.87252Z" fill="#C0C0C0"/>
<path d="M20.8949 6.44639C21.0203 5.31785 21.6472 5.00435 20.8321 4.75355C19.202 4.25201 19.9544 3.68771 21.3337 3.62501C21.898 3.62501 21.6472 3.31151 22.0861 2.24567C22.3369 1.49327 22.8385 2.43377 23.2146 3.18611C23.4027 3.68771 23.5907 3.43685 24.5312 3.12335C24.8447 3.06065 25.0328 3.31145 24.8447 3.56225C24.155 4.37729 23.8416 4.44005 24.1551 4.87895C24.1551 4.87895 25.0328 6.13283 24.9074 6.25823C24.7193 6.57173 23.2146 5.75663 23.2146 5.75663C22.6504 5.44313 22.5249 5.75669 21.3964 6.63449C21.1456 6.82259 20.8949 6.75989 20.8949 6.44639Z" fill="#C0C0C0"/>
<path d="M77.5735 7.5121C77.887 6.38356 78.1372 6.07 77.5102 5.8819C76.0682 5.5057 76.5071 4.81606 78.0118 4.81606C78.7015 4.81606 78.388 4.31452 78.7642 3.43672C79.0777 2.62168 79.5166 3.62482 79.8927 4.37722C80.2062 5.00422 80.2695 4.43986 81.21 4.31446C81.8996 4.18906 81.3974 5.00416 80.8332 5.443C80.2062 5.9446 81.7742 7.07314 81.5235 7.44934C81.3981 7.57474 81.2727 7.51204 81.0846 7.44934C78.9529 6.5716 79.7053 6.44626 77.9497 7.8256C77.6989 8.0137 77.5108 7.951 77.5735 7.5121Z" fill="#C0C0C0"/>
</svg>
