<svg width="120" height="120" viewBox="0 0 120 120" fill="none" xmlns="http://www.w3.org/2000/svg">
<path d="M93.4974 81.0852C94.1574 83.0232 94.2342 85.7946 94.2474 88.1592C94.2738 92.9934 93.36 94.0992 93.2904 95.214C93.2912 95.2579 93.3048 95.3006 93.3296 95.3368C93.3545 95.3729 93.3894 95.401 93.4301 95.4175C93.4707 95.434 93.5153 95.4382 93.5584 95.4295C93.6014 95.4209 93.6409 95.3998 93.672 95.3688C94.2186 94.6752 94.548 92.769 94.674 91.8966C94.9518 89.4091 94.9669 86.8993 94.719 84.4086C94.6479 83.209 94.3333 82.0364 93.7944 80.9622C93.7743 80.929 93.7429 80.904 93.706 80.8919C93.6691 80.8798 93.629 80.8813 93.5931 80.8962C93.5572 80.9111 93.5278 80.9383 93.5102 80.973C93.4927 81.0076 93.4881 81.0475 93.4974 81.0852Z" fill="#191919"/>
<path d="M40.5972 43.1022C40.5336 42.5312 40.5552 41.9539 40.6614 41.3892C41.0142 39.9702 41.6214 40.0776 41.748 37.2444C41.7902 36.9679 41.7521 36.6851 41.6382 36.4296C41.6185 36.3976 41.5909 36.3712 41.5581 36.3528C41.5253 36.3345 41.4883 36.3249 41.4507 36.3249C41.4131 36.3249 41.3761 36.3345 41.3433 36.3528C41.3105 36.3712 41.2829 36.3976 41.2632 36.4296C41.0538 36.8022 41.1804 37.1724 41.0754 38.1816C41.0125 38.7989 40.8555 39.4029 40.6098 39.9726C40.1802 40.9704 39.7578 42.1416 40.2804 43.1868C40.2999 43.2178 40.3288 43.2418 40.3629 43.2552C40.3971 43.2687 40.4346 43.2708 40.47 43.2613C40.5054 43.2519 40.5369 43.2313 40.5598 43.2027C40.5827 43.174 40.5958 43.1388 40.5972 43.1022Z" fill="#191919"/>
<path d="M39.12 38.2074C39.0403 36.4433 39.1378 34.6756 39.411 32.931C39.6072 31.8252 39.7548 31.6194 39.591 31.3212C39.5651 31.2785 39.5234 31.2478 39.475 31.2357C39.4266 31.2235 39.3754 31.231 39.3324 31.2564C39.2334 31.3415 39.1522 31.4453 39.0934 31.5618C39.0346 31.6784 38.9994 31.8054 38.9898 31.9356C38.4774 34.0019 38.4419 36.1577 38.886 38.2398C38.8947 38.2666 38.9126 38.2894 38.9364 38.3043C38.9603 38.3193 38.9887 38.3253 39.0166 38.3215C39.0444 38.3176 39.0701 38.3041 39.089 38.2832C39.1079 38.2624 39.1189 38.2355 39.12 38.2074Z" fill="#191919"/>
<path d="M37.4934 29.9112C36.8058 31.0866 36.7938 35.2392 36.8982 36.591C36.8785 36.8574 36.9568 37.1217 37.1184 37.3344C37.1534 37.3674 37.1996 37.3858 37.2477 37.3858C37.2958 37.3858 37.342 37.3674 37.377 37.3344C37.7772 36.9144 37.308 35.3544 37.629 31.929C37.7503 31.2925 37.8217 30.6476 37.8426 30C37.8407 29.9597 37.8259 29.9211 37.8003 29.8898C37.7748 29.8586 37.7399 29.8364 37.7008 29.8264C37.6618 29.8165 37.6205 29.8194 37.5831 29.8346C37.5458 29.8499 37.5143 29.8767 37.4934 29.9112Z" fill="#191919"/>
<path d="M35.3916 31.6056C35.1136 33.2035 35.0809 34.8344 35.2944 36.4422C35.3376 36.8694 35.3304 37.5576 35.6544 37.8648C35.674 37.8845 35.698 37.8994 35.7243 37.9082C35.7507 37.9171 35.7787 37.9198 35.8063 37.916C35.8338 37.9122 35.8602 37.9021 35.8831 37.8865C35.9061 37.8708 35.9252 37.8501 35.9388 37.8258C36.1518 37.425 35.9658 36.8058 35.9196 36.3774C35.6934 34.3104 35.7894 33.114 35.6994 31.6506C35.6916 31.4766 35.4378 31.4184 35.3916 31.6056Z" fill="#191919"/>
<path d="M33.5682 34.2C33.3935 35.9869 33.594 37.7906 34.1568 39.4956C34.4784 40.2891 34.8565 41.0585 35.2884 41.7978C35.6891 42.5544 35.8953 43.3987 35.8884 44.2548C35.9142 44.442 36.1788 44.442 36.2634 44.3064C36.6936 43.6188 36.3912 42.6864 36.0954 41.9982C35.346 40.263 34.7682 40.2408 34.2396 37.0902C34.0788 36.1332 33.954 35.1642 33.8796 34.2C33.8796 34.1587 33.8632 34.1191 33.834 34.0899C33.8048 34.0607 33.7652 34.0443 33.7239 34.0443C33.6826 34.0443 33.643 34.0607 33.6138 34.0899C33.5846 34.1191 33.5682 34.1587 33.5682 34.2Z" fill="#191919"/>
<path d="M58.3338 37.1922C58.652 37.1934 58.9621 37.0914 59.2174 36.9014C59.4728 36.7115 59.6596 36.4438 59.7498 36.1386C59.8571 35.8036 59.8931 35.4498 59.8552 35.1001C59.8174 34.7504 59.7067 34.4125 59.5302 34.1082C59.2644 33.714 58.557 33.5466 58.3662 34.1082C58.3092 34.2762 58.527 34.3722 58.644 34.2696C59.148 33.8268 59.454 35.4366 59.1294 36.0804C59.0624 36.2335 58.9504 36.3625 58.8083 36.4503C58.6662 36.538 58.5006 36.5804 58.3338 36.5718C57.9522 36.531 57.798 36.2082 57.5322 35.9898C57.5085 35.9682 57.4797 35.9528 57.4485 35.9453C57.4173 35.9377 57.3847 35.9381 57.3537 35.9465C57.3228 35.9549 57.2944 35.9709 57.2712 35.9932C57.2481 36.0154 57.231 36.0432 57.2214 36.0738C57.0318 36.6984 57.7908 37.1688 58.3338 37.1922Z" fill="#191919"/>
<path d="M51.5832 29.2392C52.0487 28.0714 52.9377 27.1222 54.0726 26.5812C54.7357 26.2918 55.4506 26.1397 56.1741 26.1342C56.8976 26.1286 57.6147 26.2696 58.2822 26.5488C60.291 27.4644 60.54 30.0642 60.6486 32.2782C60.7272 33.8706 60.3342 35.382 60.8556 36.8106C60.9433 37.1323 61.0981 37.4318 61.3099 37.6893C61.5217 37.9468 61.7857 38.1565 62.0844 38.3046C62.355 38.403 62.4984 38.0454 62.343 37.8648C61.8482 37.4371 61.4999 36.8651 61.347 36.2292C61.0224 34.9458 61.4448 33.837 61.2498 31.3854C61.2074 30.5883 61.095 29.7964 60.9138 29.019C59.4888 23.55 51.939 25.044 51.2922 29.1162C51.2664 29.28 51.5052 29.4198 51.5832 29.2392Z" fill="#191919"/>
<path d="M61.7352 38.9574C61.7475 38.9034 61.7425 38.8469 61.721 38.7959C61.6994 38.7449 61.6625 38.7019 61.6152 38.673C61.1007 38.4952 60.646 38.1772 60.3024 37.755C60.1662 37.6134 59.9232 37.7988 60.0312 37.962C60.3666 38.4684 60.8004 39.1386 61.4856 39.1452C61.5415 39.1434 61.5955 39.1245 61.6402 39.0908C61.6848 39.0572 61.718 39.0106 61.7352 38.9574Z" fill="#191919"/>
<path d="M59.8986 39.72C60.1896 39.9072 60.7686 39.9966 60.9396 39.6036C60.9493 39.5734 60.9481 39.5407 60.9363 39.5112C60.9245 39.4817 60.9027 39.4573 60.8748 39.4422C60.5574 39.2784 60.18 39.6006 59.4912 38.427C59.4705 38.3861 59.435 38.3546 59.3919 38.339C59.3488 38.3233 59.3014 38.3247 59.2593 38.3428C59.2172 38.361 59.1836 38.3945 59.1654 38.4366C59.1471 38.4786 59.1456 38.5261 59.1612 38.5692C59.2658 39.0268 59.5266 39.4337 59.8986 39.72Z" fill="#191919"/>
<path d="M53.1156 29.853C53.2476 29.5722 53.0754 29.3886 53.3484 28.812C53.5854 28.311 53.8836 28.2258 53.937 27.9648C53.997 27.6822 53.3586 27.6462 52.9344 28.605C52.7826 28.9494 52.6176 29.5686 52.902 29.8854C52.9171 29.8999 52.9352 29.9107 52.9552 29.917C52.9751 29.9233 52.9961 29.925 53.0168 29.9218C53.0374 29.9187 53.0571 29.9109 53.0742 29.8989C53.0914 29.887 53.1055 29.8713 53.1156 29.853Z" fill="#191919"/>
<path d="M56.4648 28.605C56.4743 28.5956 56.4815 28.5842 56.4857 28.5716C56.49 28.559 56.4912 28.5455 56.4894 28.5323C56.4875 28.5192 56.4826 28.5066 56.475 28.4957C56.4674 28.4847 56.4573 28.4757 56.4456 28.4694C56.2806 28.4164 56.104 28.4107 55.936 28.4532C55.768 28.4956 55.6152 28.5844 55.4952 28.7094C55.1957 28.9349 54.976 29.2502 54.8682 29.6094C54.8604 29.6452 54.8655 29.6827 54.8825 29.7152C54.8996 29.7477 54.9276 29.7731 54.9615 29.787C54.9955 29.8009 55.0333 29.8024 55.0682 29.7912C55.1032 29.78 55.133 29.7568 55.1526 29.7258C55.6956 28.8258 56.1552 28.98 56.4648 28.605Z" fill="#191919"/>
<path d="M57.1248 30.1638C57.0854 30.187 57.0568 30.2248 57.0454 30.269C57.0339 30.3132 57.0404 30.3602 57.0636 30.3996C57.0868 30.439 57.1246 30.4676 57.1688 30.479C57.213 30.4905 57.26 30.484 57.2994 30.4608C57.9144 30.195 58.2624 30.447 58.638 30.3318C58.6541 30.327 58.6688 30.3186 58.6812 30.3073C58.6936 30.2959 58.7032 30.2819 58.7094 30.2664C58.7155 30.2508 58.7181 30.234 58.7169 30.2173C58.7156 30.2005 58.7106 30.1843 58.7022 30.1698C58.3848 29.64 57.5322 29.9052 57.1248 30.1638Z" fill="#191919"/>
<path d="M58.1334 31.98C58.8066 32.25 59.025 32.7948 59.388 33.0534C59.4666 33.1098 59.5476 33.0336 59.556 32.9562C59.6304 32.2626 58.7718 31.8084 58.2108 31.7022C58.174 31.6919 58.1346 31.6967 58.1012 31.7155C58.0679 31.7343 58.0435 31.7656 58.0332 31.8024C58.0229 31.8392 58.0277 31.8786 58.0465 31.9119C58.0653 31.9452 58.0966 31.9697 58.1334 31.98Z" fill="#191919"/>
<path d="M54.771 34.7544C54.5832 34.8144 54.4032 34.8672 54.2148 34.923C54.099 34.9566 53.7564 35.1162 53.6394 35.0394C53.4888 34.9398 53.655 34.6194 53.8794 33.6552C54.3072 31.8054 54.426 31.641 54.3708 31.2552C54.3645 31.2323 54.3524 31.2114 54.3355 31.1947C54.3186 31.178 54.2977 31.166 54.2747 31.1599C54.2517 31.1538 54.2276 31.1539 54.2046 31.1601C54.1817 31.1663 54.1608 31.1784 54.144 31.1952C53.8752 31.542 53.2476 34.0836 53.142 34.5126C53.0448 34.9068 52.9932 35.3274 53.4588 35.4954C53.892 35.6508 54.486 35.3436 54.8946 35.2236C54.9287 35.2187 54.9613 35.2066 54.9904 35.1882C55.0195 35.1698 55.0443 35.1454 55.0634 35.1168C55.0824 35.0881 55.0951 35.0557 55.1007 35.0217C55.1063 34.9877 55.1047 34.953 55.0959 34.9197C55.0871 34.8864 55.0714 34.8553 55.0498 34.8286C55.0282 34.8018 55.0012 34.7799 54.9705 34.7642C54.9398 34.7486 54.9062 34.7397 54.8718 34.738C54.8374 34.7363 54.8031 34.7419 54.771 34.7544Z" fill="#191919"/>
<path d="M55.5792 32.847C55.7856 32.9004 55.851 33.099 55.9152 33.2736C55.9794 33.4482 56.2752 33.4938 56.3226 33.2736C56.4966 32.4336 55.1112 32.0136 54.8682 32.8662C54.8609 32.8898 54.861 32.915 54.8685 32.9385C54.8761 32.962 54.8907 32.9826 54.9104 32.9975C54.9301 33.0124 54.9539 33.0208 54.9785 33.0217C55.0032 33.0226 55.0275 33.0158 55.0482 33.0024C55.198 32.8831 55.3887 32.8273 55.5792 32.847Z" fill="#191919"/>
<path d="M52.0164 32.6142C52.0212 32.6922 52.0998 32.775 52.1844 32.7438C52.3452 32.6838 52.4688 32.5368 52.65 32.5434C52.857 32.55 52.9404 32.7312 53.01 32.8926C53.13 33.1644 53.5008 32.9574 53.4564 32.7048C53.4137 32.5361 53.3176 32.3858 53.1824 32.2763C53.0472 32.1667 52.8803 32.1038 52.7064 32.097C52.4238 32.088 51.9954 32.2722 52.0164 32.6142Z" fill="#191919"/>
<path d="M53.0184 38.4402C52.7874 38.2002 52.8582 37.9806 52.7598 37.6968C52.7506 37.6652 52.7333 37.6364 52.7097 37.6134C52.6861 37.5904 52.657 37.5738 52.6251 37.5654C52.5932 37.5569 52.5597 37.5569 52.5278 37.5652C52.4959 37.5735 52.4667 37.5899 52.443 37.6128C52.1664 37.905 52.3554 38.3928 52.5726 38.6664C53.4786 39.8064 54.9948 38.8086 54.8742 36.9864C54.8733 36.9576 54.866 36.9294 54.8527 36.9038C54.8394 36.8782 54.8205 36.856 54.7975 36.8387C54.7744 36.8214 54.7478 36.8095 54.7195 36.8039C54.6913 36.7983 54.6621 36.7992 54.6342 36.8064C54.009 36.9948 53.3538 36.8142 52.7262 36.9552C52.7028 36.9635 52.6826 36.9788 52.6683 36.9991C52.654 37.0193 52.6463 37.0435 52.6463 37.0683C52.6463 37.0931 52.654 37.1173 52.6683 37.1375C52.6826 37.1578 52.7028 37.1731 52.7262 37.1814C53.3087 37.2884 53.9043 37.3036 54.4914 37.2264C54.3162 38.6754 53.4798 38.9208 53.0184 38.4402Z" fill="#191919"/>
<path d="M60.6162 76.2804C60.3684 78.3204 60.5076 79.4664 60.1506 83.4582C59.946 85.7538 59.919 85.7754 58.7604 87.435C57.0706 89.8456 55.7053 92.4682 54.6996 95.235C54.377 95.9523 54.1823 96.7204 54.1242 97.5048C54.126 97.5397 54.1387 97.5732 54.1605 97.6004C54.1824 97.6277 54.2123 97.6474 54.246 97.6567C54.2796 97.666 54.3154 97.6644 54.3482 97.6522C54.3809 97.6401 54.409 97.6179 54.4284 97.5888C55.1238 96.5568 55.3206 94.224 57.9714 89.7708C60.4038 85.6854 60.5238 87.3408 60.888 81.7398C61.0828 79.9291 61.1065 78.104 60.9588 76.2888C60.9575 76.2449 60.9395 76.2032 60.9083 76.1722C60.8772 76.1412 60.8354 76.1234 60.7915 76.1223C60.7476 76.1212 60.7049 76.137 60.6723 76.1664C60.6397 76.1958 60.6196 76.2366 60.6162 76.2804Z" fill="#191919"/>
<path d="M58.4634 88.98C58.8672 94.1694 58.242 95.652 58.4694 96.2868C58.488 96.3176 58.5134 96.3437 58.5438 96.363C58.5741 96.3823 58.6085 96.3943 58.6443 96.398C58.6801 96.4017 58.7163 96.3971 58.7499 96.3845C58.7836 96.3718 58.8139 96.3515 58.8384 96.3252C58.9857 96.0642 59.068 95.7715 59.0784 95.472C59.3295 93.2941 59.2355 91.0902 58.8 88.9416C58.7676 88.8 58.4514 88.8318 58.4634 88.98Z" fill="#191919"/>
<path d="M58.6056 76.6686C58.3386 79.8012 58.2498 81.2706 57.8616 83.5878C57.6294 84.9738 57.4794 85.3674 57.5706 85.8378C57.6108 86.0442 57.8814 86.0388 57.9846 85.8894C58.1711 85.5607 58.2899 85.198 58.3338 84.8226C58.881 82.1452 59.0853 79.409 58.9416 76.68C58.9431 76.6354 58.9269 76.5921 58.8964 76.5595C58.866 76.527 58.8239 76.5078 58.7793 76.5063C58.7347 76.5048 58.6914 76.521 58.6588 76.5515C58.6263 76.5819 58.6071 76.624 58.6056 76.6686Z" fill="#191919"/>
<path d="M65.214 77.0502C65.331 78.4503 65.7479 79.8088 66.4362 81.0336C66.6252 81.33 66.9336 81.8706 67.3218 81.8736C67.3677 81.8722 67.4113 81.8534 67.4438 81.8209C67.4762 81.7885 67.495 81.7449 67.4964 81.699C67.4916 81.1938 66.8856 81.1224 66.2874 79.5324C65.9778 78.711 65.7702 77.8524 65.5434 77.0046C65.4972 76.8306 65.1888 76.86 65.214 77.0502Z" fill="#191919"/>
<path d="M48.2592 81.531C49.4693 81.0934 50.4907 80.2505 51.15 79.1454C51.324 78.8604 51.6366 78.39 51.5508 78.0396C51.5451 78.0195 51.5349 78.001 51.521 77.9854C51.5072 77.9698 51.49 77.9576 51.4708 77.9495C51.4515 77.9414 51.4307 77.9378 51.4099 77.9388C51.3891 77.9399 51.3687 77.9456 51.3504 77.9556C50.8794 78.2556 50.8704 79.7706 48.1494 81.2724C48.0126 81.348 48.1104 81.5826 48.2592 81.531Z" fill="#191919"/>
<path d="M22.815 53.04C22.1065 54.0274 21.5849 55.1363 21.276 56.3118C19.9251 55.1047 18.7671 53.6978 17.8422 52.14C17.2872 51.1002 17.4036 50.7714 17.1894 50.478C17.1756 50.4551 17.1562 50.4362 17.133 50.4231C17.1097 50.41 17.0835 50.4031 17.0568 50.4031C17.0301 50.4031 17.0039 50.41 16.9807 50.4231C16.9574 50.4362 16.938 50.4551 16.9242 50.478C16.8331 50.7507 16.8446 51.0472 16.9566 51.312C17.4162 53.052 19.893 55.812 21.2826 56.9898C21.3192 57.0237 21.3647 57.0465 21.4138 57.0554C21.4629 57.0643 21.5135 57.059 21.5597 57.04C21.6058 57.0211 21.6456 56.9894 21.6744 56.9486C21.7031 56.9078 21.7196 56.8596 21.7218 56.8098C21.7962 55.8078 22.6488 54.1698 23.1384 53.2854C23.2446 53.0946 22.9626 52.8528 22.815 53.04Z" fill="#191919"/>
<path d="M26.0934 52.5432C25.8905 51.8041 25.595 51.0937 25.2138 50.4288C25.1064 50.2656 25.0002 50.0232 24.7872 49.989C24.7477 49.9793 24.7059 49.9855 24.6709 50.0063C24.6359 50.027 24.6105 50.0607 24.6 50.1C24.5478 50.34 24.6978 50.4126 25.08 51.2124C25.6204 52.2888 25.8909 53.4804 25.8684 54.6846C25.3677 53.8948 24.6357 53.2786 23.772 52.92C23.5578 52.857 23.412 53.184 23.6166 53.2884C24.5102 53.8518 25.2712 54.602 25.8474 55.4874C25.8793 55.5189 25.9188 55.5414 25.9622 55.5527C26.0055 55.5641 26.051 55.5638 26.0942 55.5521C26.1374 55.5403 26.1768 55.5173 26.2083 55.4856C26.2399 55.4538 26.2625 55.4143 26.274 55.371C26.4432 54.4277 26.3813 53.4573 26.0934 52.5432Z" fill="#191919"/>
<path d="M78.6246 34.2C78.5883 34.1801 78.5457 34.1752 78.5058 34.1864C78.466 34.1976 78.4321 34.224 78.4116 34.26C78.3198 34.4334 78.393 34.602 78.4242 34.7832C78.6085 36.3313 78.4109 37.901 77.8488 39.3552C77.3712 38.6026 76.6955 37.9962 75.8958 37.6026C75.8729 37.589 75.8475 37.5801 75.8211 37.5764C75.7948 37.5726 75.7679 37.5741 75.7421 37.5808C75.69 37.5941 75.6454 37.6277 75.618 37.674C75.5906 37.7203 75.5828 37.7756 75.5962 37.8277C75.6096 37.8798 75.6431 37.9244 75.6894 37.9518C76.4963 38.4966 77.1738 39.2118 77.6742 40.047C77.6968 40.0852 77.729 40.1168 77.7676 40.1388C77.8061 40.1607 77.8497 40.1723 77.8941 40.1723C77.9385 40.1723 77.9821 40.1607 78.0206 40.1388C78.0592 40.1168 78.0914 40.0852 78.114 40.047C79.1364 37.6956 79.26 34.4928 78.6246 34.2Z" fill="#191919"/>
<path d="M82.233 34.4634C81.7842 34.3536 79.893 33.7158 78.7866 33.7914C78.6636 33.7992 78.5862 33.9846 78.7152 34.0434C79.1898 34.2594 80.622 34.5438 81.987 34.8966C82.5564 35.0442 82.8348 34.611 82.233 34.4634Z" fill="#191919"/>
<path d="M70.8264 34.2372C70.5348 34.086 70.3464 34.0938 68.9382 34.3344C66.8519 34.676 64.8357 35.3574 62.97 36.3516C62.8338 36.435 62.9184 36.6816 63.0864 36.6234C64.3926 36.171 65.661 35.643 66.9984 35.2848C69.5424 34.6038 70.4508 34.7598 70.8588 34.4184C70.8701 34.405 70.8782 34.3892 70.8828 34.3722C70.8873 34.3553 70.888 34.3375 70.8849 34.3202C70.8818 34.303 70.875 34.2866 70.8649 34.2722C70.8548 34.2579 70.8416 34.2459 70.8264 34.2372Z" fill="#191919"/>
<path d="M80.7264 26.4714C80.7093 26.1825 80.5993 25.9069 80.413 25.6855C80.2266 25.4641 79.9737 25.3088 79.692 25.2426C79.8846 25.1628 79.938 24.9504 80.1186 23.4708C80.3058 22.0608 80.4372 20.5092 79.3812 19.3308C79.1187 19.0354 78.791 18.8051 78.4242 18.6582C78.0042 18.4968 77.4672 18.6258 77.0922 18.3864C76.3196 17.7644 75.4698 17.2451 74.5638 16.8414C73.7544 16.5222 73.1838 16.83 72.999 17.3586C72.333 16.9902 71.6412 16.473 70.899 16.9386C70.119 17.424 70.2006 18.6396 70.4334 19.3896C70.7934 20.5296 71.0628 20.1096 70.8018 20.8296C70.3303 22.2611 70.3258 23.8054 70.7892 25.2396C70.5945 25.1991 70.3928 25.2063 70.2014 25.2604C70.01 25.3146 69.8345 25.4141 69.6898 25.5505C69.5451 25.687 69.4355 25.8564 69.3702 26.0443C69.305 26.2322 69.286 26.433 69.315 26.6298C69.3554 26.8718 69.455 27.1 69.605 27.2941C69.7551 27.4882 69.9508 27.6421 70.1748 27.7422C70.4916 27.891 71.0478 27.9102 71.2608 27.5934C71.1282 29.439 71.3352 31.1934 72.9876 31.9518C72.9228 32.2818 72.9486 32.6178 72.8904 32.9538C72.7854 33.2277 72.7519 33.5238 72.7932 33.8142C72.7983 33.8316 72.8072 33.8476 72.8193 33.8611C72.8315 33.8746 72.8465 33.8851 72.8633 33.8919C72.8801 33.8987 72.8983 33.9016 72.9164 33.9004C72.9345 33.8993 72.952 33.894 72.9678 33.885C73.2678 33.6978 73.2978 33.345 73.3428 33.0186C73.398 32.7151 73.398 32.4041 73.3428 32.1006C74.2205 32.3752 75.148 32.4525 76.059 32.3268C77.3124 32.1846 76.6686 31.7268 76.9188 33.0576C76.9778 33.4476 77.1132 33.8222 77.3172 34.1598C77.2224 34.3368 77.1426 34.5198 77.0418 34.6998C76.5328 35.5559 75.8526 36.2978 75.0438 36.879C73.1292 35.6454 73.0392 35.1426 72.1794 33.8526C72.1602 33.8242 72.131 33.8041 72.0976 33.7965C72.0642 33.7888 72.0291 33.7942 71.9995 33.8114C71.9699 33.8287 71.948 33.8565 71.9382 33.8894C71.9283 33.9222 71.9313 33.9575 71.9466 33.9882C71.9018 33.9742 71.8535 33.9767 71.8104 33.9954C71.4744 34.1568 71.4612 34.881 71.442 35.1954C71.3928 36.7886 71.6931 38.3733 72.3216 39.8382C72.344 39.8767 72.3761 39.9086 72.4147 39.9308C72.4532 39.953 72.497 39.9647 72.5415 39.9647C72.586 39.9647 72.6298 39.953 72.6683 39.9308C72.7069 39.9086 72.739 39.8767 72.7614 39.8382C73.2568 38.9993 73.9353 38.283 74.7462 37.743C74.7925 37.7155 74.826 37.6708 74.8393 37.6187C74.8527 37.5665 74.8448 37.5112 74.8173 37.4649C74.7899 37.4186 74.7451 37.3851 74.693 37.3717C74.6408 37.3584 74.5855 37.3663 74.5392 37.3938C73.7412 37.7897 73.0662 38.3956 72.5868 39.1464C72.1233 37.9134 71.9015 36.6028 71.9334 35.286C71.9478 34.9685 71.9879 34.6526 72.0534 34.3416C72.519 35.6286 73.7334 36.6372 74.9244 37.3872C74.9762 37.4131 75.0344 37.4233 75.0919 37.4165C75.1493 37.4097 75.2036 37.3861 75.2478 37.3488C75.8631 36.9063 76.4213 36.3893 76.9098 35.8098C77.419 35.2895 77.763 34.6303 77.8986 33.915C77.8947 33.8846 77.8842 33.8554 77.8677 33.8295C77.8513 33.8036 77.8293 33.7817 77.8034 33.7652C77.7775 33.7488 77.7483 33.7383 77.7179 33.7344C77.6875 33.7305 77.6566 33.7334 77.6274 33.7428C77.3672 33.1873 77.2303 32.582 77.226 31.9686C77.7606 31.6945 78.182 31.2413 78.4164 30.6882C78.7596 29.7483 78.9937 28.7721 79.1142 27.7788C79.3091 27.8231 79.5116 27.8225 79.7062 27.7771C79.9009 27.7317 80.0827 27.6427 80.238 27.5168C80.3932 27.3909 80.5179 27.2314 80.6025 27.0503C80.6871 26.8692 80.7295 26.6713 80.7264 26.4714ZM71.253 17.9748C71.2627 17.9456 71.2823 17.9207 71.3083 17.9042C71.3344 17.8878 71.3653 17.881 71.3959 17.8848C71.4264 17.8886 71.4547 17.9029 71.4759 17.9252C71.4971 17.9475 71.5099 17.9765 71.5122 18.0072C71.5107 18.3735 71.5831 18.7364 71.7252 19.074C71.8548 19.3584 72.1716 19.6044 72.2232 19.914C72.2646 20.2026 71.6736 20.2506 71.2854 19.2612C71.1927 19.0603 71.142 18.8425 71.1364 18.6213C71.1309 18.4001 71.1705 18.1801 71.253 17.9748ZM79.1484 27.1698C79.1424 27.1698 79.1358 27.1632 79.1292 27.1632C79.1169 27.0088 79.0843 26.8566 79.032 26.7108C78.987 26.5812 78.7668 26.5104 78.7026 26.6652C78.5152 27.3075 78.4023 27.9693 78.366 28.6374C77.967 30.8316 77.5386 31.9374 74.8032 31.767C71.4432 31.5558 71.7276 29.5764 71.7576 26.2062C71.7576 26.0448 71.499 25.9992 71.4666 26.1672C71.3958 26.5104 71.3466 26.8596 71.2986 27.2148C71.2656 27.1713 71.2182 27.1409 71.1649 27.1291C71.1116 27.1174 71.0558 27.125 71.0076 27.1506C70.7484 27.2736 70.6554 27.4314 70.2834 27.1758C69.4392 26.5974 69.9078 25.5558 70.9626 25.6824C71.0226 25.6896 71.5998 25.5978 71.6088 25.2942C71.6367 23.9915 71.762 22.6926 71.9838 21.4086C73.8053 22.4286 75.9123 22.8193 77.9784 22.5204C79.1568 24.663 78.8466 26.142 79.2648 25.8204C79.7448 25.4712 80.1702 26.0922 80.1894 26.5404C80.1805 26.6591 80.1434 26.774 80.0811 26.8755C80.0188 26.9769 79.9331 27.062 79.8312 27.1236C79.7294 27.1852 79.6142 27.2216 79.4954 27.2296C79.3766 27.2376 79.2577 27.2171 79.1484 27.1698Z" fill="#191919"/>
<path d="M73.7172 25.1262C73.6892 25.0143 73.6802 24.8985 73.6908 24.7836C73.6908 24.7114 73.6647 24.6416 73.6174 24.587C73.5701 24.5325 73.5047 24.4968 73.4332 24.4866C73.3617 24.4764 73.289 24.4923 73.2283 24.5314C73.1676 24.5706 73.123 24.6303 73.1028 24.6996C73.0451 24.8935 73.0428 25.0997 73.0962 25.2948C73.1073 25.3356 73.1263 25.3738 73.1521 25.4072C73.1779 25.4406 73.2101 25.4686 73.2467 25.4896C73.2834 25.5107 73.3239 25.5242 73.3658 25.5296C73.4077 25.535 73.4502 25.5321 73.491 25.521C73.5318 25.5099 73.57 25.4909 73.6034 25.4651C73.6368 25.4393 73.6649 25.4071 73.6859 25.3704C73.7069 25.3338 73.7204 25.2933 73.7258 25.2514C73.7312 25.2095 73.7283 25.167 73.7172 25.1262Z" fill="#191919"/>
<path d="M76.98 24.9906C76.8882 24.6018 76.4574 24.4506 76.2948 24.7578C76.2575 24.8818 76.2521 25.0132 76.2791 25.1398C76.3062 25.2664 76.3648 25.3841 76.4496 25.482C76.4806 25.5125 76.5181 25.5355 76.5594 25.5492C76.6006 25.563 76.6444 25.5671 76.6875 25.5613C76.7306 25.5556 76.7718 25.54 76.8079 25.5158C76.844 25.4917 76.8742 25.4596 76.896 25.422C76.9782 25.2943 77.0083 25.1398 76.98 24.9906Z" fill="#191919"/>
<path d="M74.1114 23.0958C73.9404 22.878 73.5042 22.9938 73.284 23.0766C72.9981 23.1845 72.7582 23.3878 72.6048 23.652C72.5142 23.8008 72.7092 23.9244 72.831 23.8266C73.1065 23.6074 73.4431 23.4787 73.7946 23.4582C73.9758 23.445 74.2962 23.331 74.1114 23.0958Z" fill="#191919"/>
<path d="M76.4328 23.16C76.4118 23.166 76.3932 23.1787 76.3801 23.1962C76.3669 23.2137 76.3598 23.235 76.3598 23.2569C76.3598 23.2788 76.3669 23.3001 76.3801 23.3176C76.3932 23.335 76.4118 23.3478 76.4328 23.3538C76.7927 23.448 77.1112 23.6591 77.3382 23.9538C77.5056 24.1416 77.748 23.901 77.6616 23.7078C77.5482 23.4916 77.3653 23.3199 77.1423 23.2205C76.9193 23.1211 76.6694 23.0998 76.4328 23.16Z" fill="#191919"/>
<path d="M74.331 27.4608C74.4808 27.5331 74.6444 27.5722 74.8107 27.5755C74.977 27.5789 75.142 27.5463 75.2946 27.48C75.3161 27.4742 75.3357 27.4628 75.3515 27.4472C75.3674 27.4315 75.3789 27.4119 75.3849 27.3905C75.391 27.369 75.3913 27.3464 75.386 27.3248C75.3807 27.3031 75.3699 27.2832 75.3546 27.267C75.2983 27.2032 75.2241 27.158 75.1416 27.1374C74.9544 27.09 74.7042 27.2574 74.6178 27.0534C74.5458 26.883 74.6586 26.8686 74.844 25.9476C75.0013 25.248 75.0619 24.5301 75.024 23.814C75.0114 23.652 74.7528 23.5938 74.724 23.775C74.6103 24.723 74.4462 25.6644 74.2326 26.595C74.1564 26.898 74.028 27.2526 74.331 27.4608Z" fill="#191919"/>
<path d="M76.1934 27.9648C75.2498 28.1091 74.2918 28.1331 73.3422 28.0362C73.1868 28.023 73.1742 28.248 73.3098 28.2948C73.7797 28.5037 74.289 28.6094 74.8032 28.605C75.2163 28.6208 75.63 28.5971 76.0386 28.5342C76.116 29.2584 76.1094 30.0858 75.5016 30.5646C75.346 30.6831 75.1594 30.7541 74.9644 30.769C74.7694 30.7839 74.5742 30.7421 74.4024 30.6486C74.2121 30.5738 74.0456 30.449 73.9204 30.2874C73.7951 30.1259 73.7158 29.9335 73.6908 29.7306C73.6764 29.6827 73.6469 29.6407 73.6067 29.6109C73.5666 29.5811 73.5179 29.565 73.4679 29.565C73.4179 29.565 73.3692 29.5811 73.329 29.6109C73.2889 29.6407 73.2594 29.6827 73.245 29.7306C73.0386 30.795 74.5248 31.5654 75.4176 31.2174C76.6326 30.744 76.6392 29.3166 76.53 28.23C76.53 28.1887 76.5206 28.1481 76.5025 28.111C76.4845 28.0739 76.4583 28.0414 76.4259 28.0158C76.3936 27.9903 76.3558 27.9725 76.3155 27.9636C76.2753 27.9548 76.2335 27.9552 76.1934 27.9648Z" fill="#191919"/>
<path d="M85.8798 67.0146C84.8208 68.2548 83.8842 70.4424 83.3388 71.9874C82.1337 75.6852 81.5184 79.5497 81.5154 83.439C81.4416 86.7768 81.5538 89.8968 80.5128 93.0798C80.1425 94.113 79.684 95.1125 79.1424 96.0672C79.0188 96.3 79.3368 96.5784 79.5234 96.3582C81.909 93.549 82.0626 88.4214 82.11 84.8934C82.179 79.7886 82.602 74.838 84.7032 70.1634C85.1502 69.1686 85.6974 68.2236 86.1708 67.2408C86.259 67.0584 86.0286 66.84 85.8798 67.0146Z" fill="#191919"/>
<path d="M99.9762 67.1634C100.788 68.7006 101.079 70.5234 101.399 72.2196C101.734 73.9834 101.969 75.7646 102.104 77.5548C102.785 86.721 100.496 91.9746 100.048 94.011C100.002 94.218 100.294 94.3602 100.403 94.1598C101.815 91.5768 102.563 86.4018 102.737 83.4714C102.985 78.7968 102.536 74.1113 101.405 69.5688C101.206 68.6277 100.809 67.7395 100.241 66.963C100.118 66.8082 99.891 67.002 99.9762 67.1634Z" fill="#191919"/>
<path d="M94.8876 76.533C94.067 77.5858 93.419 78.7622 92.9676 80.0184C89.8422 87.3822 91.5876 90.0384 87.7752 96.2418C87.743 96.3022 87.7332 96.3721 87.7476 96.4391C87.762 96.506 87.7996 96.5657 87.8538 96.6076C87.9081 96.6494 87.9753 96.6707 88.0438 96.6677C88.1122 96.6646 88.1773 96.6375 88.2276 96.591C89.8338 94.8672 90.6834 91.662 91.1502 89.4138C91.7352 86.5986 91.9758 84.2478 93.2328 81.0852C93.7869 79.6013 94.4437 78.1578 95.1984 76.7652C95.2992 76.587 95.028 76.3638 94.8876 76.533Z" fill="#191919"/>
<path d="M89.5848 64.1502C89.25 63.849 88.9507 63.5106 88.6926 63.1416C88.3436 62.5969 88.1166 61.9832 88.0273 61.3425C87.9381 60.7018 87.9886 60.0493 88.1754 59.43C88.2828 59.0922 88.3692 58.968 88.3692 58.932C87.7362 58.4584 87.2263 57.8396 86.8824 57.1278C86.5332 56.3857 86.3817 55.566 86.4426 54.7482C86.4672 54.4554 86.5536 54.2166 86.5848 53.9982C86.3366 53.8774 86.0961 53.7414 85.8648 53.5908C85.0576 52.9883 84.462 52.1457 84.1634 51.1837C83.8649 50.2218 83.8786 49.19 84.2028 48.2364C83.8191 47.8191 83.5007 47.3461 83.2584 46.8336C82.4958 47.4738 81.72 48.2238 80.8272 49.1292C80.2973 48.4393 79.7206 47.7868 79.101 47.1762C77.9538 47.6136 76.401 48.2178 76.2042 48.2754C76.1122 51.6973 76.4535 55.117 77.22 58.4532C77.8044 60.9312 79.047 64.7076 81.216 66.0318C81.6029 66.2848 82.0441 66.443 82.5036 66.4936C82.9631 66.5442 83.4281 66.4856 83.8608 66.3228C85.293 65.6988 86.2314 64.0338 86.5506 63.6228C86.6819 64.5866 86.874 65.5411 87.126 66.4806C87.5568 66.3852 88.626 66.1956 89.5896 66.0798C89.76 64.4922 89.814 64.38 89.5848 64.1502ZM84.3732 58.143C84.367 58.1651 84.3552 58.1852 84.339 58.2014C84.3227 58.2176 84.3025 58.2292 84.2804 58.2353C84.2583 58.2413 84.235 58.2415 84.2127 58.2359C84.1905 58.2302 84.1701 58.2189 84.1536 58.203C83.956 57.899 83.8298 57.5541 83.7846 57.1944C82.8714 53.5704 81.7404 51.6576 80.8818 49.5186C80.8218 49.3764 81.0312 49.3176 81.108 49.422C82.7268 51.6294 84.5832 57.4266 84.3732 58.143Z" fill="#644DF6"/>
<path d="M106.779 46.68C107.024 46.1739 107.058 45.5916 106.876 45.06C106.654 44.5434 106.126 44.2518 105.97 43.6956C105.737 42.8646 106.062 41.1486 105.259 40.8378C105.225 40.8283 105.19 40.8267 105.155 40.8333C105.12 40.8398 105.087 40.8543 105.059 40.8756C105.031 40.8968 105.008 40.9243 104.992 40.9558C104.977 40.9874 104.968 41.0221 104.968 41.0574C104.999 41.2859 105.064 41.5085 105.162 41.7174C105.326 42.3348 105.204 43.1112 105.395 43.8126C105.647 44.7402 106.445 44.9346 106.507 45.7464C106.529 46.0302 106.436 46.3086 106.436 46.593C106.437 46.633 106.451 46.6714 106.476 46.7026C106.501 46.7337 106.536 46.7559 106.575 46.7657C106.613 46.7755 106.654 46.7725 106.691 46.757C106.728 46.7416 106.759 46.7145 106.779 46.68Z" fill="#191919"/>
<path d="M107.315 41.9712C107.558 40.6177 108.121 39.3421 108.958 38.2512C109.157 38.0112 109.646 37.656 109.604 37.3068C109.603 37.278 109.593 37.2503 109.576 37.2273C109.558 37.2043 109.534 37.187 109.507 37.1778C109.096 37.0968 108.732 37.6764 108.518 37.9536C107.598 39.0753 107.091 40.4794 107.083 41.9304C107.087 42.0678 107.288 42.1062 107.315 41.9712Z" fill="#191919"/>
<path d="M109.152 40.6386C109.412 39.8351 109.886 39.1176 110.522 38.5632C110.698 38.415 110.93 38.298 110.988 38.0652C110.991 38.0527 110.992 38.0396 110.99 38.0268C110.989 38.0139 110.984 38.0015 110.978 37.9904C110.971 37.9792 110.962 37.9695 110.952 37.9617C110.942 37.954 110.93 37.9483 110.917 37.9452C110.433 37.8432 109.891 38.5734 109.643 38.9088C109.273 39.402 109.031 39.9792 108.938 40.5888C108.933 40.6165 108.939 40.6451 108.955 40.6687C108.97 40.6922 108.994 40.7089 109.022 40.7153C109.049 40.7217 109.078 40.7173 109.102 40.703C109.126 40.6888 109.144 40.6657 109.152 40.6386Z" fill="#191919"/>
<path d="M109.928 41.001C110.469 40.4222 111.062 39.894 111.7 39.423C111.874 39.303 112.015 39.216 112.036 38.9898C112.035 38.9575 112.024 38.9262 112.004 38.9006C111.984 38.875 111.957 38.8565 111.926 38.8476C111.681 38.7684 111.506 38.9514 111.318 39.0936C110.685 39.5772 110.142 40.1682 109.714 40.8396C109.698 40.8681 109.693 40.9015 109.699 40.9336C109.706 40.9657 109.724 40.9943 109.75 41.0141C109.776 41.0338 109.809 41.0434 109.841 41.041C109.874 41.0386 109.905 41.0244 109.928 41.001Z" fill="#191919"/>
<path d="M111.96 40.5288C110.53 41.3736 110.34 43.098 110.13 43.8396C109.796 45.0102 108.325 46.065 108.675 46.9884C108.685 47.0212 108.704 47.0506 108.73 47.0729C108.756 47.0952 108.788 47.1097 108.822 47.1145C108.856 47.1192 108.891 47.1142 108.922 47.1C108.953 47.0857 108.98 47.0628 108.998 47.034C109.126 46.8066 109.178 46.5486 109.298 46.3098C109.645 45.6084 110.278 45.0546 110.566 44.202C110.999 42.9132 110.583 42.6144 112.126 40.7424C112.216 40.6254 112.1 40.4448 111.96 40.5288Z" fill="#191919"/>
<path d="M108.027 42.876C108.44 43.896 108.068 44.2896 108.156 44.736C108.162 44.7575 108.173 44.7771 108.189 44.7929C108.205 44.8087 108.224 44.8202 108.246 44.8263C108.267 44.8323 108.29 44.8327 108.312 44.8274C108.333 44.8221 108.353 44.8113 108.37 44.796C108.477 44.6587 108.555 44.5001 108.597 44.3308C108.639 44.1614 108.646 43.9851 108.615 43.8132C108.592 43.4425 108.479 43.083 108.286 42.7656C108.206 42.6318 107.963 42.72 108.027 42.876Z" fill="#191919"/>
<path d="M79.362 41.4924C79.3923 41.2305 79.4054 40.967 79.401 40.7034C79.3878 40.5678 79.2084 40.4526 79.101 40.5834C78.4746 41.3466 79.1178 42.8682 78.8424 43.9332C78.6294 44.7546 77.5956 46.0074 78.4824 46.7784C78.5031 46.7969 78.5297 46.8077 78.5575 46.8089C78.5853 46.81 78.6127 46.8014 78.6349 46.7846C78.6571 46.7678 78.6727 46.7438 78.6792 46.7168C78.6856 46.6897 78.6825 46.6612 78.6702 46.6362C78.1638 45.5958 79.1796 44.7216 79.3488 43.7394C79.4092 42.9918 79.4136 42.2407 79.362 41.4924Z" fill="#191919"/>
<path d="M75.0942 38.8992C74.9526 38.802 74.811 39.0078 74.9196 39.126C77.0412 41.4318 76.5582 41.877 77.0856 42.2232C77.1031 42.2331 77.1226 42.2389 77.1427 42.2402C77.1627 42.2415 77.1828 42.2383 77.2015 42.2308C77.2201 42.2233 77.2369 42.2117 77.2505 42.1969C77.264 42.1821 77.2741 42.1644 77.28 42.1452C77.3013 41.8525 77.2238 41.5612 77.0598 41.3178C76.6121 40.3631 75.9372 39.5327 75.0942 38.8992Z" fill="#191919"/>
<path d="M74.4282 43.0704C74.5764 43.2906 74.7054 43.6146 74.9454 43.7364C74.9662 43.7482 74.9897 43.7544 75.0136 43.7545C75.0375 43.7545 75.061 43.7484 75.0818 43.7367C75.1026 43.725 75.1201 43.7081 75.1324 43.6876C75.1448 43.6672 75.1517 43.6439 75.1524 43.62C75.1896 43.335 74.9394 43.0314 74.784 42.8052C74.2489 41.9882 73.5086 41.3261 72.6372 40.8852C72.5076 40.8342 72.4098 41.022 72.501 41.1114C73.2327 41.6701 73.8815 42.3296 74.4282 43.0704Z" fill="#191919"/>
<path d="M75.7602 46.5492C75.2479 46.2662 74.8687 45.7915 74.706 45.2292C74.376 43.725 73.9098 43.335 72.4818 42.6168C72.4561 42.6029 72.426 42.5995 72.3979 42.6072C72.3697 42.6149 72.3456 42.6332 72.3306 42.6583C72.3155 42.6834 72.3108 42.7133 72.3173 42.7417C72.3238 42.7702 72.341 42.7951 72.3654 42.8112C73.0602 43.3098 73.9128 43.962 74.1246 44.7054C74.3394 45.462 74.163 45.9282 75.2172 46.7166C75.4061 46.848 75.5854 46.9928 75.7536 47.1498C75.9222 47.3178 75.9936 47.5296 76.155 47.6994C76.1757 47.7193 76.2012 47.7336 76.229 47.7409C76.2568 47.7482 76.286 47.7483 76.3138 47.7411C76.3416 47.734 76.3672 47.7198 76.388 47.7C76.4088 47.6802 76.4243 47.6554 76.4328 47.628C76.5564 47.1828 76.083 46.7952 75.7602 46.5492Z" fill="#191919"/>
<path d="M76.8468 43.995C76.6864 44.3295 76.5919 44.6916 76.5684 45.0618C76.5331 45.2303 76.5321 45.4041 76.5655 45.573C76.5989 45.7419 76.666 45.9023 76.7628 46.0446C76.7813 46.0619 76.8039 46.0742 76.8285 46.0804C76.8531 46.0865 76.8789 46.0864 76.9034 46.0799C76.9279 46.0735 76.9503 46.0609 76.9687 46.0434C76.987 46.0259 77.0006 46.004 77.0082 45.9798C77.1714 45.5676 76.86 45.4674 77.157 44.124C77.1954 43.9494 76.9314 43.8138 76.8468 43.995Z" fill="#191919"/>
<path d="M74.706 41.169C75.3306 41.9112 75.2958 42.2598 75.546 42.4686C75.5635 42.485 75.5848 42.4968 75.6081 42.5027C75.6313 42.5087 75.6557 42.5087 75.6789 42.5027C75.7022 42.4967 75.7235 42.485 75.741 42.4685C75.7584 42.452 75.7714 42.4314 75.7788 42.4086C75.9114 41.9526 75.4092 41.3688 75.1392 41.0382C74.7345 40.5754 74.2838 40.1551 73.794 39.7836C73.7709 39.7663 73.7423 39.7578 73.7135 39.7599C73.6847 39.7619 73.6576 39.7743 73.6371 39.7947C73.6167 39.8152 73.6043 39.8423 73.6023 39.8711C73.6002 39.8999 73.6087 39.9285 73.626 39.9516C73.9872 40.356 74.358 40.755 74.706 41.169Z" fill="#191919"/>
<path d="M91.9968 64.6284C94.1292 61.4484 93.0078 58.4082 91.0656 58.2084C91.3824 57.0894 91.6182 55.8684 91.176 54.7614C91.0317 54.3616 90.7974 54.0003 90.4912 53.7054C90.1851 53.4106 89.8152 53.1901 89.4102 53.061C89.6707 52.5374 89.823 51.9667 89.858 51.3829C89.893 50.7991 89.8101 50.2143 89.6141 49.6633C89.4181 49.1123 89.113 48.6064 88.7172 48.1759C88.3214 47.7454 87.8428 47.3991 87.3102 47.1576C87.7467 46.3457 87.9339 45.423 87.8485 44.5052C87.7632 43.5874 87.4089 42.7151 86.8302 41.9976C87.6332 41.1393 88.0981 40.0192 88.1385 38.8445C88.179 37.6698 87.7925 36.5203 87.0504 35.6088C87.4291 34.9946 87.6589 34.3003 87.7214 33.5815C87.7839 32.8626 87.6774 32.1391 87.4104 31.4688C87.1908 30.9168 87.0126 30.8088 86.9838 30.5892C86.9424 30.2784 87.393 29.9448 87.624 29.781C87.9344 29.5751 88.2746 29.4181 88.6326 29.3154C88.8417 29.4876 89.0004 29.7131 89.0916 29.9682C88.989 30.0096 88.9194 30.0678 88.3416 30.3498C88.1181 30.4371 87.9121 30.5642 87.7338 30.7248C87.7164 30.743 87.7046 30.7659 87.6999 30.7907C87.6952 30.8155 87.6978 30.8411 87.7074 30.8644C87.717 30.8877 87.7332 30.9077 87.754 30.922C87.7747 30.9364 87.7992 30.9443 87.8244 30.945C88.2171 30.8649 88.5933 30.7184 88.9368 30.5118C89.2146 30.3882 89.5764 30.285 89.5446 29.9166C89.5166 29.6648 89.423 29.4248 89.2732 29.2205C89.1234 29.0163 88.9225 28.8549 88.6908 28.7526C88.6335 28.0643 88.3312 27.4194 87.8388 26.9349C87.3465 26.4505 86.6968 26.1587 86.0076 26.1126C83.883 25.9446 82.5006 28.4964 83.4984 30.3096C83.0887 30.5999 82.7539 30.9834 82.5216 31.4286C82.2894 31.8737 82.1663 32.3678 82.1625 32.8699C82.1588 33.372 82.2745 33.8678 82.5001 34.3163C82.7257 34.7649 83.0547 35.1534 83.46 35.4498C82.9708 36.4134 82.7819 37.5017 82.9178 38.5738C83.0538 39.6459 83.5083 40.6526 84.2226 41.4636C83.5309 42.4994 83.2263 43.7458 83.3623 44.9839C83.4984 46.222 84.0664 47.3725 84.9666 48.2334C84.5789 49.0843 84.4939 50.0421 84.7256 50.9479C84.9573 51.8538 85.4918 52.6532 86.2404 53.2134C86.4918 53.3934 86.7972 53.4966 87.0486 53.679C87.4086 53.9424 87.1086 54.5652 87.081 54.9462C87.0337 55.6534 87.1671 56.361 87.4686 57.0024C87.7949 57.664 88.2819 58.2332 88.8852 58.6578C89.4252 59.0778 88.6326 59.3286 88.6326 60.8562C88.6297 61.5964 88.8407 62.3217 89.2404 62.9448C89.973 64.0608 90.513 63.7152 90.3654 65.1822C90.2538 66.3022 90.1376 67.4222 90.0168 68.5422C90.0168 68.6228 90.0488 68.7001 90.1057 68.7571C90.1626 68.8141 90.2398 68.8462 90.3204 68.8464C91.1494 68.8106 91.9675 68.6448 92.745 68.355C92.8206 68.3322 92.8843 68.2811 92.923 68.2123C92.9616 68.1434 92.972 68.0623 92.952 67.986C92.6634 66.8628 92.3592 65.7342 91.9968 64.6284ZM89.2878 61.5312C88.947 59.9304 90.1368 59.1354 89.4624 58.4016C89.208 58.125 88.854 57.9492 88.596 57.6708C88.0981 57.1269 87.7797 56.4429 87.684 55.7118C87.5286 54.5454 88.0602 54.0792 87.6708 53.4918C87.3606 53.025 86.7876 53.0586 86.1108 52.3278C85.6231 51.795 85.3117 51.1247 85.2191 50.4083C85.1266 49.6919 85.2574 48.9645 85.5936 48.3252C85.6247 48.268 85.637 48.2025 85.6289 48.138C85.6209 48.0734 85.5928 48.013 85.5486 47.9652C84.6604 47.1948 84.0923 46.1203 83.9559 44.9525C83.8195 43.7847 84.1245 42.6081 84.8112 41.6538C84.8644 41.5968 84.894 41.5217 84.894 41.4438C84.894 41.3658 84.8644 41.2908 84.8112 41.2338C84.0934 40.4847 83.6371 39.5235 83.5103 38.4937C83.3836 37.464 83.5932 36.4208 84.108 35.52C84.1461 35.4518 84.1566 35.3715 84.1374 35.2958C84.1182 35.22 84.0708 35.1545 84.0048 35.1126C83.6205 34.8791 83.3036 34.5496 83.0854 34.1564C82.8672 33.7633 82.7552 33.32 82.7604 32.8704C82.7656 32.4207 82.8879 31.9802 83.1151 31.5922C83.3424 31.2042 83.6668 30.8821 84.0564 30.6576C84.0901 30.6378 84.1196 30.6115 84.1431 30.5803C84.1665 30.549 84.1836 30.5134 84.1932 30.4755C84.2028 30.4376 84.2048 30.3981 84.199 30.3595C84.1932 30.3208 84.1798 30.2836 84.1596 30.2502C83.981 29.9765 83.861 29.6688 83.8069 29.3465C83.7529 29.0242 83.7661 28.6942 83.8456 28.3773C83.9252 28.0603 84.0694 27.7632 84.2692 27.5046C84.469 27.246 84.7201 27.0315 85.0068 26.8746C86.4318 26.1768 88.227 27.549 88.227 28.7628C87.6217 28.9527 87.0803 29.3056 86.6622 29.7828C86.0022 30.546 86.4762 30.9228 86.7822 31.6128C87.0445 32.2367 87.1442 32.9169 87.0717 33.5898C86.9993 34.2627 86.7573 34.9062 86.3682 35.46C86.3335 35.5204 86.3197 35.5906 86.3291 35.6596C86.3384 35.7286 86.3703 35.7926 86.4198 35.8416C86.7931 36.2438 87.083 36.716 87.2728 37.2309C87.4626 37.7458 87.5486 38.2931 87.5258 38.8414C87.503 39.3897 87.3718 39.928 87.1399 40.4254C86.9079 40.9227 86.5798 41.3691 86.1744 41.739C86.1169 41.7976 86.0848 41.8765 86.0848 41.9586C86.0848 42.0407 86.1169 42.1195 86.1744 42.1782C86.7826 42.8397 87.1539 43.6845 87.2299 44.5799C87.3059 45.4753 87.0824 46.3706 86.5944 47.1252C86.5715 47.1654 86.558 47.2102 86.555 47.2564C86.5519 47.3025 86.5593 47.3488 86.5766 47.3916C86.5939 47.4345 86.6207 47.4729 86.6549 47.504C86.6892 47.535 86.73 47.558 86.7744 47.571C87.2963 47.7707 87.7681 48.0824 88.1564 48.4842C88.5448 48.8859 88.8403 49.368 89.0222 49.8964C89.2041 50.4247 89.2678 50.9866 89.209 51.5423C89.1502 52.098 88.9702 52.634 88.6818 53.1126C88.6564 53.1581 88.6432 53.2094 88.6437 53.2614C88.6441 53.3135 88.6581 53.3646 88.6842 53.4096C88.7104 53.4547 88.7478 53.4921 88.7928 53.5183C88.8379 53.5445 88.8889 53.5585 88.941 53.559C89.3585 53.6223 89.7476 53.8087 90.0586 54.0944C90.3695 54.3801 90.5881 54.7521 90.6864 55.1628C91.0068 56.2284 90.69 57.375 90.3762 58.4088C90.3649 58.4526 90.3636 58.4985 90.3725 58.5429C90.3814 58.5873 90.4003 58.6291 90.4276 58.6651C90.455 58.7012 90.4902 58.7306 90.5305 58.7512C90.5709 58.7717 90.6153 58.7829 90.6606 58.7838C91.9254 58.6602 93.1248 60.0906 92.2254 62.8188C92.08 63.2484 91.887 63.6603 91.65 64.047C91.5576 64.2012 91.3716 64.377 91.3656 64.5648C91.3524 64.9554 91.539 64.6812 92.2836 67.869C91.7463 68.0444 91.191 68.1593 90.6282 68.2116C90.7188 67.3254 90.8082 66.4392 90.9 65.5536C91.0098 64.5222 91.1346 64.0566 90.3696 63.3486C89.8237 62.8743 89.4445 62.2372 89.2878 61.5312Z" fill="#191919"/>
<path d="M22.5366 40.1604C22.485 40.0404 22.44 39.9234 22.2456 39.9342C22.0842 39.9426 22.0002 40.0632 21.9486 40.2054C21.8939 40.1999 21.8387 40.2057 21.7864 40.2224C21.7341 40.2391 21.6857 40.2664 21.6444 40.3026C21.5918 40.2853 21.5361 40.2792 21.481 40.2847C21.4259 40.2902 21.3726 40.3073 21.3245 40.3347C21.2763 40.3621 21.2345 40.3993 21.2017 40.4439C21.1688 40.4885 21.1457 40.5395 21.1338 40.5936C21.0396 40.6225 20.959 40.6845 20.907 40.7682C20.8548 40.7804 20.8085 40.8103 20.7757 40.8527C20.7429 40.895 20.7257 40.9474 20.727 41.001C20.7396 41.1108 20.7456 41.2146 20.7528 41.3244C20.7559 41.3775 20.7789 41.4274 20.8173 41.4642C20.8557 41.501 20.9066 41.5219 20.9597 41.5227C21.0129 41.5236 21.0644 41.5043 21.1039 41.4687C21.1434 41.4331 21.168 41.3839 21.1728 41.331C21.2332 41.3212 21.2894 41.2941 21.3348 41.253C21.522 41.337 21.7938 41.193 21.7224 40.962C21.7796 40.9646 21.836 40.9474 21.882 40.9133C21.928 40.8792 21.9608 40.8303 21.975 40.7748C22.0025 40.7945 22.0343 40.8072 22.0678 40.8118C22.1013 40.8165 22.1354 40.8129 22.1672 40.8015C22.1991 40.79 22.2276 40.771 22.2505 40.7461C22.2733 40.7212 22.2898 40.6911 22.2984 40.6584C22.2984 40.6518 22.3044 40.626 22.311 40.587C22.3393 40.6043 22.3712 40.6149 22.4043 40.6181C22.4373 40.6213 22.4707 40.617 22.5018 40.6054C22.5329 40.5939 22.561 40.5754 22.584 40.5514C22.607 40.5275 22.6242 40.4986 22.6344 40.467C22.6565 40.4429 22.6718 40.4134 22.6788 40.3815C22.6858 40.3496 22.6843 40.3165 22.6744 40.2853C22.6645 40.2542 22.6465 40.2263 22.6223 40.2043C22.5981 40.1824 22.5685 40.1672 22.5366 40.1604Z" fill="#191919"/>
<path d="M25.9056 40.2444C25.8684 40.0692 25.8618 39.9042 25.6728 39.8304C25.6052 39.8036 25.5323 39.7925 25.4598 39.798C25.4147 39.7649 25.3628 39.7424 25.3079 39.732C25.253 39.7216 25.1964 39.7237 25.1424 39.738L25.065 39.6414C25.0201 39.5974 24.9598 39.5728 24.897 39.5728C24.8342 39.5728 24.7739 39.5974 24.729 39.6414C24.699 39.6718 24.6709 39.704 24.645 39.738C24.1812 39.738 24.285 40.2858 24.5286 40.2036C24.5286 40.2102 24.5346 40.2234 24.5346 40.2294C24.545 40.2671 24.5648 40.3015 24.592 40.3295C24.6192 40.3576 24.653 40.3784 24.6903 40.3899C24.7277 40.4015 24.7673 40.4036 24.8056 40.3958C24.8439 40.3881 24.8797 40.3709 24.9096 40.3458C24.9665 40.3712 25.0301 40.3774 25.0909 40.3634C25.1516 40.3495 25.2061 40.3161 25.2462 40.2684C25.2942 40.3048 25.3544 40.3212 25.4142 40.314C25.4162 40.3484 25.4253 40.3819 25.4409 40.4126C25.4566 40.4433 25.4784 40.4704 25.5051 40.4922C25.5317 40.514 25.5626 40.53 25.5957 40.5393C25.6289 40.5486 25.6636 40.5509 25.6977 40.5461C25.7318 40.5412 25.7645 40.5294 25.7938 40.5113C25.8231 40.4932 25.8483 40.4692 25.8678 40.4408C25.8873 40.4125 25.9008 40.3804 25.9073 40.3466C25.9138 40.3128 25.9132 40.278 25.9056 40.2444Z" fill="#191919"/>
<path d="M24.561 42.0162C24.3621 41.4752 24.0308 40.9927 23.5974 40.6128C23.5764 40.6018 23.5528 40.597 23.5292 40.599C23.5056 40.601 23.4831 40.6096 23.4642 40.6239C23.4454 40.6381 23.4309 40.6575 23.4227 40.6796C23.4144 40.7018 23.4125 40.7258 23.4174 40.749C23.568 41.3178 23.7624 41.2536 24.5814 43.1544C24.6807 43.3676 24.7565 43.5909 24.8076 43.8204C24.8076 43.827 24.8676 44.1114 24.8268 44.1498C24.7452 44.232 23.7558 43.824 23.262 44.124C23.2278 44.1444 23.1995 44.1733 23.1798 44.2079C23.1602 44.2425 23.1498 44.2816 23.1498 44.3214C23.1498 44.3612 23.1602 44.4003 23.1798 44.4349C23.1995 44.4695 23.2278 44.4984 23.262 44.5188C23.5234 44.599 23.7988 44.6231 24.0702 44.5896C24.3473 44.639 24.6291 44.6563 24.9102 44.6412C25.3824 44.538 25.3458 43.9944 25.2594 43.6326C25.0896 43.0687 24.8553 42.5263 24.561 42.0162Z" fill="#191919"/>
<path d="M22.7244 42.7596C23.0172 42.189 22.3332 41.7186 22.1358 42.1134C22.0962 42.1746 22.07 42.2436 22.059 42.3157C22.048 42.3878 22.0524 42.4614 22.072 42.5317C22.0915 42.602 22.1258 42.6673 22.1725 42.7233C22.2192 42.7794 22.2772 42.8249 22.3428 42.8568C22.4064 42.8942 22.4821 42.905 22.5536 42.8868C22.6251 42.8686 22.6865 42.8229 22.7244 42.7596Z" fill="#191919"/>
<path d="M25.68 41.5572C25.6594 41.5142 25.6304 41.4758 25.5946 41.4442C25.5589 41.4127 25.5171 41.3886 25.4719 41.3735C25.4267 41.3584 25.3789 41.3525 25.3314 41.3563C25.2838 41.36 25.2375 41.3732 25.1952 41.3952C25.1394 41.4286 25.0988 41.4824 25.0819 41.5452C25.065 41.608 25.0731 41.6749 25.1046 41.7318C25.0446 42.129 25.557 42.4026 25.6866 42.0228C25.7187 41.9492 25.7347 41.8696 25.7335 41.7893C25.7324 41.709 25.7141 41.6299 25.68 41.5572Z" fill="#191919"/>
<path d="M25.1814 45.2688C24.3348 44.9886 23.43 45.2772 22.569 45.1008C22.5185 45.0879 22.4654 45.09 22.4161 45.1069C22.3668 45.1239 22.3236 45.1548 22.2917 45.196C22.2598 45.2373 22.2406 45.2869 22.2366 45.3388C22.2326 45.3908 22.2438 45.4428 22.269 45.4884C22.8024 46.4694 22.9506 47.0976 23.6658 47.3376C24.4986 47.6178 25.383 46.9332 25.1982 46.4454C25.1752 46.3746 25.1267 46.315 25.0622 46.2779C24.9977 46.2409 24.9217 46.2292 24.849 46.245C24.609 46.2834 24.5448 46.5024 24.3576 46.62C24.253 46.6862 24.1326 46.7235 24.0089 46.728C23.8851 46.7325 23.7624 46.7042 23.6532 46.6458C23.3532 46.4838 23.22 46.1088 22.9806 45.6858C23.7006 45.7308 24.429 45.5982 25.1466 45.5886C25.1862 45.5882 25.2243 45.5732 25.2536 45.5466C25.283 45.52 25.3016 45.4835 25.3058 45.4441C25.3101 45.4048 25.2998 45.3652 25.2769 45.3329C25.254 45.3005 25.22 45.2778 25.1814 45.2688Z" fill="#191919"/>
<path d="M19.0254 45.5856C18.696 45.87 18.3984 46.122 17.9454 45.8958C17.7206 45.7508 17.5371 45.5502 17.4124 45.3135C17.2878 45.0768 17.2262 44.812 17.2338 44.5446C17.1595 44.0179 17.2474 43.4811 17.4858 43.0056C17.5551 42.9241 17.64 42.8574 17.7355 42.8093C17.831 42.7612 17.9352 42.7326 18.0419 42.7254C18.1486 42.7182 18.2556 42.7324 18.3568 42.7673C18.4579 42.8021 18.551 42.8568 18.6306 42.9282C18.7344 43.005 18.8514 42.8562 18.7986 42.7596C18.6863 42.5852 18.5269 42.4462 18.3388 42.3587C18.1508 42.2712 17.9418 42.2388 17.736 42.2652C17.5303 42.2917 17.3363 42.3759 17.1765 42.5081C17.0166 42.6403 16.8976 42.8151 16.833 43.0122C16.7514 42.9689 16.6602 42.9466 16.5678 42.9474C16.5554 42.9275 16.5375 42.9116 16.5162 42.9018C15.8652 42.567 15.3006 43.2318 15.339 43.8462C15.1537 43.8983 14.9817 43.9896 14.8347 44.114C14.6877 44.2383 14.5691 44.3928 14.487 44.5669C14.4048 44.741 14.361 44.9308 14.3585 45.1233C14.3561 45.3158 14.395 45.5066 14.4726 45.6828C14.3128 45.7534 14.1709 45.8588 14.0573 45.9915C13.9436 46.1241 13.8611 46.2805 13.8159 46.4492C13.7707 46.6179 13.7638 46.7946 13.7958 46.9663C13.8279 47.138 13.898 47.3004 14.001 47.4414C14.0334 47.4864 14.1096 47.5452 14.13 47.5968C14.1612 47.6748 14.1636 47.6568 14.091 47.7582C13.8114 48.156 13.5804 48.5982 13.335 49.0128C13.3148 49.0504 13.3046 49.0925 13.3053 49.1351C13.306 49.1777 13.3175 49.2194 13.3389 49.2563C13.3602 49.2933 13.3906 49.3241 13.4272 49.3459C13.4638 49.3678 13.5054 49.3799 13.548 49.3812C14.1102 49.4616 14.6742 49.521 15.2358 49.6008C15.3009 49.6008 15.3634 49.575 15.4095 49.529C15.4557 49.483 15.4816 49.4205 15.4818 49.3554C15.4616 49.0035 15.4051 48.6547 15.3132 48.3144C15.4504 48.2679 15.5768 48.194 15.6847 48.0973C15.7925 48.0006 15.8797 47.883 15.9408 47.7516C16.0992 47.344 16.0992 46.892 15.9408 46.4844C16.1386 46.3189 16.2893 46.1042 16.3777 45.8619C16.4662 45.6197 16.4893 45.3584 16.4448 45.1044C16.54 45.0734 16.6266 45.0204 16.6974 44.9496C16.7329 45.3107 16.8737 45.6534 17.1024 45.935C17.3312 46.2167 17.6377 46.4248 17.9838 46.5336C18.1187 47.2786 18.1341 48.0404 18.0294 48.7902C17.9694 49.068 17.8098 49.314 17.7642 49.5858C17.7504 49.6437 17.7557 49.7046 17.7792 49.7593C17.8028 49.814 17.8433 49.8596 17.8949 49.8894C17.9465 49.9192 18.0063 49.9316 18.0654 49.9247C18.1246 49.9177 18.1799 49.8919 18.2232 49.851C18.8346 49.3212 18.747 47.913 18.579 47.109C18.5472 46.9249 18.5016 46.7434 18.4428 46.566C18.6789 46.5721 18.9094 46.4932 19.0922 46.3437C19.275 46.1941 19.398 45.9839 19.4388 45.7512C19.4544 45.534 19.1682 45.4626 19.0254 45.5856Z" fill="#191919"/>
<path d="M14.4672 43.1478C14.7202 43.164 14.9724 43.1051 15.1921 42.9785C15.4118 42.8519 15.5892 42.6632 15.702 42.4362C15.8298 42.4971 15.969 42.5303 16.1106 42.5337C16.2521 42.5371 16.3928 42.5106 16.5234 42.456C16.877 42.2916 17.1512 41.9939 17.286 41.628C18.6708 42.57 19.7544 40.7058 18.726 40.0956C18.666 40.0228 18.5911 39.9637 18.5063 39.9223C18.4216 39.8809 18.3289 39.8582 18.2346 39.8556C18.0645 39.8529 17.8957 39.8854 17.7387 39.9511C17.5818 40.0168 17.4401 40.1142 17.3226 40.2372C17.01 40.0708 16.6497 40.0173 16.3022 40.0856C15.9548 40.1539 15.6415 40.3399 15.4152 40.6122C15.0068 40.5172 14.5778 40.5736 14.2079 40.7711C13.838 40.9685 13.5524 41.2934 13.404 41.6856C11.6898 41.8602 12.3798 43.035 11.742 43.503C11.382 43.7682 10.89 44.0004 10.947 44.5374C11.0031 44.7819 11.1263 45.0059 11.3028 45.1842C11.4828 45.4158 11.6772 45.6438 11.8782 45.8568C11.9063 45.8847 11.9404 45.9058 11.9779 45.9185C12.0154 45.9312 12.0554 45.9352 12.0946 45.9302C12.1339 45.9251 12.1715 45.9112 12.2046 45.8895C12.2377 45.8677 12.2654 45.8387 12.2856 45.8046C12.5568 45.3246 12.8352 44.8416 13.0872 44.3436C13.2581 44.3652 13.4317 44.3505 13.5965 44.3006C13.7614 44.2507 13.9139 44.1665 14.0441 44.0537C14.1743 43.9409 14.2793 43.8019 14.3522 43.6458C14.4251 43.4897 14.4643 43.32 14.4672 43.1478Z" fill="#191919"/>
<path d="M20.112 37.9554C19.9481 37.8897 19.7707 37.8648 19.595 37.8828C19.4193 37.9008 19.2506 37.9611 19.1034 38.0586C18.9952 37.9294 18.8613 37.8241 18.7103 37.7492C18.5593 37.6744 18.3944 37.6317 18.226 37.6238C18.0577 37.6159 17.8895 37.643 17.7321 37.7034C17.5748 37.7638 17.4317 37.8561 17.3118 37.9746C16.4256 37.479 15.7218 37.7004 15.3786 38.1948C15.0769 38.0048 14.726 37.9077 14.3695 37.9157C14.0131 37.9237 13.6669 38.0364 13.374 38.2398C13.245 38.3304 13.1616 38.4936 13.038 38.5764C12.8712 38.688 12.5142 38.6082 12.318 38.6082C12.027 38.6082 11.742 38.6148 11.451 38.6148C11.4098 38.6158 11.3693 38.6262 11.3326 38.645C11.2959 38.6639 11.2639 38.6908 11.2391 38.7237C11.2142 38.7567 11.1971 38.7948 11.189 38.8352C11.1809 38.8757 11.1821 38.9175 11.1924 38.9574C11.3536 39.5637 11.5837 40.1495 11.8782 40.7034C11.9131 40.761 11.9692 40.8027 12.0344 40.8196C12.0996 40.8366 12.1689 40.8274 12.2274 40.794C12.5652 40.551 12.9 40.3026 13.236 40.0572C13.3888 40.198 13.5736 40.2994 13.7744 40.3527C13.9753 40.406 14.1861 40.4095 14.3886 40.363C14.5911 40.3165 14.7792 40.2214 14.9366 40.0858C15.0941 39.9502 15.2161 39.7784 15.2922 39.585C15.5496 39.7759 15.8706 39.8602 16.1885 39.8204C16.5065 39.7807 16.7968 39.6198 16.9992 39.3714C17.2163 39.5891 17.5104 39.7126 17.8179 39.7151C18.1254 39.7175 18.4214 39.5988 18.642 39.3846C18.7578 39.5747 18.9281 39.7255 19.1309 39.8173C19.3336 39.9091 19.5593 39.9376 19.7786 39.8992C19.9978 39.8608 20.2003 39.7572 20.3598 39.6019C20.5192 39.4467 20.6282 39.2469 20.6724 39.0288C20.8758 38.928 20.7432 38.22 20.112 37.9554Z" fill="#191919"/>
<path d="M12.747 37.2246C13.2089 37.147 13.6588 37.0101 14.0856 36.8172C14.2053 36.9463 14.3502 37.0497 14.5112 37.1209C14.6722 37.1922 14.8461 37.2299 15.0221 37.2318C15.1982 37.2336 15.3728 37.1996 15.5353 37.1317C15.6978 37.0638 15.8447 36.9636 15.9672 36.837C16.1675 37.0547 16.4458 37.1843 16.7413 37.1976C17.0368 37.2109 17.3256 37.1067 17.5446 36.9078C17.7874 37.1807 18.1158 37.3631 18.4758 37.425C19.7124 37.6314 19.9728 36.294 18.8358 35.865C18.6521 35.7558 18.4426 35.6976 18.2289 35.6964C18.0152 35.6952 17.805 35.7512 17.6202 35.8584C17.538 35.7513 17.4338 35.6631 17.3145 35.5999C17.1952 35.5367 17.0637 35.5 16.9289 35.4922C16.7941 35.4844 16.6593 35.5057 16.5335 35.5547C16.4077 35.6038 16.294 35.6793 16.2 35.7762C15.9405 35.582 15.6352 35.458 15.3138 35.4162C14.9205 35.3764 14.5242 35.4528 14.1738 35.6358C13.9634 35.5433 13.7602 35.4352 13.566 35.3124C13.314 35.1828 13.0608 35.0544 12.8094 34.9182C12.7744 34.8987 12.7356 34.8873 12.6956 34.8847C12.6557 34.8821 12.6157 34.8885 12.5785 34.9033C12.5413 34.9181 12.5079 34.9411 12.4807 34.9704C12.4535 34.9998 12.4332 35.0348 12.4212 35.073C12.2547 35.7252 12.2613 36.4096 12.4404 37.0584C12.461 37.1198 12.504 37.1711 12.5609 37.2019C12.6179 37.2328 12.6843 37.2409 12.747 37.2246Z" fill="#191919"/>
<path d="M21.5154 36.06C21.5164 35.89 21.4823 35.7216 21.4152 35.5653C21.3482 35.409 21.2497 35.2683 21.1258 35.1518C21.0019 35.0353 20.8554 34.9456 20.6953 34.8883C20.5352 34.8309 20.3651 34.8072 20.1954 34.8186C20.1657 34.612 20.089 34.4151 19.9711 34.2428C19.8532 34.0706 19.6974 33.9278 19.5156 33.8254C19.3337 33.7229 19.1308 33.6636 18.9225 33.652C18.7141 33.6404 18.5059 33.6768 18.3138 33.7584C17.8482 33.3834 17.3718 33.024 16.8738 32.6976C16.8246 32.6701 16.7679 32.659 16.712 32.666C16.6561 32.673 16.6039 32.6978 16.563 32.7366C16.1719 33.1561 15.8172 33.6081 15.5028 34.0878C15.4835 34.1219 15.4722 34.1599 15.4698 34.1989C15.4674 34.238 15.474 34.2771 15.489 34.3132C15.5039 34.3494 15.527 34.3817 15.5563 34.4076C15.5856 34.4335 15.6205 34.4524 15.6582 34.4628C16.198 34.6493 16.7622 34.7561 17.3328 34.7796C17.6622 35.5752 18.6132 35.5818 19.3728 35.4264C19.4535 35.7418 19.6348 36.0222 19.8892 36.2252C20.1437 36.4283 20.4574 36.5428 20.7828 36.5514C20.7671 36.7324 20.7884 36.9146 20.8454 37.0871C20.9023 37.2596 20.9937 37.4187 21.114 37.5547C21.2343 37.6908 21.381 37.801 21.5452 37.8787C21.7094 37.9563 21.8877 37.9998 22.0692 38.0064C22.5738 37.968 22.7226 37.4958 22.5672 37.0752C22.5417 36.8084 22.4216 36.5595 22.2288 36.3734C22.0359 36.1872 21.7829 36.0761 21.5154 36.06Z" fill="#191919"/>
<path d="M23.6232 35.1558C23.6933 34.9612 23.7136 34.7522 23.6822 34.5477C23.6508 34.3433 23.5687 34.15 23.4435 33.9854C23.3182 33.8208 23.1537 33.6902 22.965 33.6055C22.7763 33.5208 22.5694 33.4847 22.3632 33.5004C22.3452 33.3428 22.2948 33.1906 22.2151 33.0535C22.1353 32.9163 22.028 32.7972 21.8999 32.7036C21.7718 32.61 21.6257 32.544 21.4708 32.5097C21.3159 32.4754 21.1556 32.4736 21 32.5044C20.76 32.1684 20.5044 31.8486 20.2308 31.5342C20.1917 31.4947 20.1405 31.4694 20.0853 31.4625C20.0302 31.4555 19.9743 31.4672 19.9266 31.4958C19.4848 31.7683 19.0637 32.0729 18.6666 32.4072C18.6402 32.4354 18.6204 32.4691 18.6086 32.5058C18.5967 32.5426 18.5931 32.5815 18.5981 32.6197C18.603 32.658 18.6163 32.6948 18.6371 32.7273C18.6579 32.7598 18.6856 32.7874 18.7182 32.808C19.147 33.0993 19.6277 33.3056 20.1342 33.4158C20.1413 33.5729 20.1868 33.7259 20.2668 33.8613C20.3469 33.9966 20.4589 34.1103 20.5932 34.1922C20.903 34.3662 21.2657 34.4212 21.6132 34.347C21.6026 34.6238 21.6845 34.8962 21.8461 35.1211C22.0077 35.3461 22.2397 35.5107 22.5054 35.589C22.5708 35.607 22.6542 35.6016 22.7322 35.6148C22.642 36.061 22.6837 36.5239 22.8522 36.9468C22.9932 37.3158 23.2596 37.7082 23.706 37.671C24.1134 37.6368 24.2556 37.2762 24.288 36.921C24.3683 36.7628 24.4148 36.5896 24.4246 36.4124C24.4343 36.2352 24.407 36.058 24.3445 35.8919C24.2819 35.7259 24.1855 35.5747 24.0613 35.4479C23.9372 35.3212 23.7879 35.2217 23.6232 35.1558Z" fill="#191919"/>
<path d="M26.1318 35.6082C26.6298 34.9398 26.3238 33.8838 25.1718 33.6102C25.1691 33.4113 25.1245 33.2151 25.0409 33.0346C24.9572 32.8541 24.8364 32.6932 24.6864 32.5626C24.102 32.0412 23.0124 31.749 22.7922 32.4204C22.7705 32.5383 22.7787 32.6598 22.8159 32.7738C22.8531 32.8878 22.9181 32.9907 23.0052 33.0732C23.2255 33.415 23.5399 33.6859 23.9106 33.8532C23.9408 34.1801 24.048 34.4952 24.2233 34.7728C24.3986 35.0504 24.637 35.2826 24.9192 35.4504C23.895 36.8664 25.4886 38.217 26.1024 37.332C26.2295 37.2281 26.3324 37.0978 26.4039 36.9502C26.4755 36.8025 26.5141 36.641 26.5169 36.4769C26.5197 36.3128 26.4867 36.1501 26.4202 36.0001C26.3537 35.8501 26.2553 35.7163 26.1318 35.6082Z" fill="#191919"/>
<path d="M27.0048 42.0294C26.9156 40.6438 26.5646 39.2877 25.9704 38.0328C25.9457 37.9947 25.9084 37.9665 25.865 37.9532C25.8216 37.9399 25.7749 37.9424 25.7331 37.9602C25.6914 37.978 25.6572 38.01 25.6368 38.0505C25.6163 38.091 25.6108 38.1374 25.6212 38.1816C26.1783 40.2643 26.5201 42.3987 26.6412 44.5512C26.781 48.3912 23.3928 49.4922 21.345 47.2086C21.1987 47.0095 21.0196 46.8368 20.8152 46.698C20.6856 46.626 20.4714 46.7106 20.4918 46.8852C20.5836 47.6682 21.8082 48.5052 22.5606 48.7866C22.748 48.8556 22.9406 48.9096 23.1366 48.948C23.0514 49.491 23.1516 50.0469 23.421 50.526C23.366 51.0917 23.2058 51.6421 22.9488 52.149C21.8558 51.874 20.7856 51.5151 19.7478 51.0756C18.8357 50.7271 18.0371 50.1342 17.4396 49.362C17.4241 49.3364 17.3999 49.3172 17.3714 49.3081C17.3429 49.2989 17.3121 49.3003 17.2845 49.312C17.257 49.3238 17.2346 49.3451 17.2216 49.372C17.2085 49.399 17.2056 49.4297 17.2134 49.4586C17.4612 50.4462 18.4926 51.0714 19.3536 51.4764C20.5319 52.0199 21.7597 52.4487 23.0202 52.7568C23.0799 52.7724 23.1431 52.7682 23.2002 52.7449C23.2573 52.7215 23.3053 52.6802 23.337 52.6272C23.8359 51.7379 24.0628 50.7217 23.9898 49.7046C23.9844 49.657 23.9679 49.6113 23.9417 49.5713C23.9154 49.5312 23.8801 49.4979 23.8386 49.4739C23.7971 49.45 23.7505 49.4361 23.7027 49.4335C23.6549 49.4308 23.6071 49.4394 23.5632 49.4586C23.544 49.3038 23.5374 49.155 23.5308 48.9996C25.5468 49.1448 26.8854 47.6232 27.1908 45.7146C27.3015 44.4836 27.2388 43.2431 27.0048 42.0294Z" fill="#191919"/>
<path d="M14.6094 67.551C14.6083 67.5268 14.6003 67.5033 14.5864 67.4835C14.5726 67.4636 14.5533 67.448 14.531 67.4386C14.5086 67.4292 14.4841 67.4263 14.4602 67.4303C14.4362 67.4342 14.4139 67.4449 14.3958 67.461C14.108 67.8134 13.9504 68.2541 13.9494 68.709C13.8182 70.2938 13.9539 71.8893 14.3508 73.4292C14.3838 73.584 14.6436 73.5492 14.6286 73.3902C14.4355 71.9158 14.377 70.4268 14.454 68.9418C14.5523 68.4846 14.6043 68.0186 14.6094 67.551Z" fill="#191919"/>
<path d="M33.5166 62.3328C33.6744 63.4728 33.9912 64.4166 34.2924 66.3936C34.4238 67.257 34.3596 67.4076 34.5444 67.6416C34.583 67.6784 34.6345 67.6985 34.6878 67.6973C34.7411 67.6962 34.7918 67.674 34.8288 67.6356C35.0544 67.2984 34.8762 66.7566 34.8162 66.3876C34.5889 64.9815 34.236 63.5986 33.762 62.2554C33.72 62.1264 33.4986 62.2038 33.5166 62.3328Z" fill="#191919"/>
<path d="M35.2884 82.5726C36.9156 87.5634 36.8298 92.061 36.633 97.2378C36.5992 98.6689 36.4761 100.096 36.2646 101.512C36.2658 101.553 36.2799 101.592 36.305 101.624C36.33 101.656 36.3645 101.679 36.4036 101.689C36.4426 101.7 36.4841 101.698 36.5219 101.684C36.5598 101.669 36.592 101.643 36.6138 101.609C36.8575 101.05 36.9977 100.452 37.0278 99.8436C37.1478 98.712 37.2558 95.1636 37.2732 94.0236C37.3332 90.2292 37.1178 85.9686 35.6244 82.4436C35.5398 82.2426 35.2248 82.38 35.2884 82.5726Z" fill="#191919"/>
<path d="M31.2792 83.5164C31.2828 84.6426 31.6062 86.7258 31.68 89.6364C31.7232 91.347 31.7586 91.9272 31.4664 92.4684C31.1106 93.1284 30.4944 93.6186 30.2064 94.3182C30.0756 94.6344 30.588 94.8354 30.7464 94.5444C31.128 93.8586 31.7424 93.3156 32.0664 92.6046C32.454 91.7508 32.3064 90.6708 32.2734 89.7594C32.2354 87.6476 32.0036 85.5438 31.581 83.4744C31.5697 83.4399 31.5467 83.4105 31.5159 83.3912C31.4851 83.372 31.4485 83.3642 31.4125 83.3692C31.3766 83.3742 31.3435 83.3917 31.3192 83.4186C31.2948 83.4455 31.2806 83.4801 31.2792 83.5164Z" fill="#191919"/>
<path d="M29.268 84.7386C29.2848 86.517 29.4198 87.8184 29.5398 90.972C29.5165 91.6525 29.5839 92.3331 29.7402 92.9958C29.7485 93.0192 29.7638 93.0394 29.7841 93.0537C29.8043 93.068 29.8285 93.0757 29.8533 93.0757C29.8781 93.0757 29.9023 93.068 29.9225 93.0537C29.9428 93.0394 29.9581 93.0192 29.9664 92.9958C30.1332 92.3958 30.1164 91.9188 29.9538 88.851C29.88 87.4608 29.778 86.076 29.5788 84.693C29.5536 84.5184 29.2668 84.564 29.268 84.7386Z" fill="#191919"/>
<path d="M29.3196 95.0652C28.2048 96.2652 27.951 97.8438 26.9532 101.732C26.8317 102.096 26.777 102.48 26.7918 102.863C26.7916 102.903 26.8046 102.942 26.8287 102.973C26.8527 103.005 26.8866 103.028 26.9249 103.038C26.9633 103.048 27.004 103.046 27.0407 103.031C27.0773 103.015 27.108 102.988 27.1278 102.954C27.4878 102.432 27.4074 102.294 28.3044 98.796C28.5435 97.5581 28.9711 96.3642 29.5722 95.256C29.6754 95.1102 29.4474 94.9278 29.3196 95.0652Z" fill="#191919"/>
<path d="M76.0704 61.8222C75.6946 57.3612 74.5116 53.0055 72.579 48.9672C70.8228 45.5742 67.899 43.5576 64.3218 42.3006C62.8224 41.7897 61.282 41.4083 59.7174 41.1606C59.2536 41.0826 59.2158 41.001 58.7802 41.3286C58.5123 40.0844 58.4314 38.8071 58.5402 37.539C58.5528 37.3452 58.2558 37.3128 58.2036 37.494C58.0209 38.1524 57.9399 38.8349 57.9636 39.5178C57.975 39.7902 58.0062 41.4378 58.4094 41.613C57.1494 42.4494 55.0494 42.873 53.8494 41.973C53.9965 41.752 54.0941 41.5019 54.1356 41.2397C54.177 40.9774 54.1612 40.7094 54.0894 40.4538C55.2528 40.1382 56.8968 38.8038 57.1866 37.4016C57.197 37.359 57.1919 37.314 57.1723 37.2748C57.1526 37.2356 57.1195 37.2046 57.0791 37.1875C57.0387 37.1704 56.9935 37.1682 56.9516 37.1814C56.9098 37.1946 56.874 37.2222 56.8506 37.2594C56.44 37.8642 55.9816 38.435 55.4796 38.9664C55.6864 38.5616 55.774 38.1063 55.7322 37.6536C55.7227 37.2315 55.5825 36.8227 55.3308 36.4836C55.0013 36.2807 54.621 36.1754 54.234 36.18C54.1176 36.174 54.0918 36.3354 54.174 36.387C54.6414 36.6828 54.9282 36.6054 54.9882 36.8982C55.15 37.8138 55.0044 38.7572 54.5742 39.5814C54.5605 39.6005 54.5518 39.6228 54.549 39.6462C54.1412 39.9283 53.6413 40.0444 53.1509 39.9711C52.6605 39.8978 52.2164 39.6404 51.909 39.2514C51.483 38.1168 51.99 37.5714 52.1028 36.9174C52.1346 36.717 52.1478 36.6972 52.3548 36.6522C52.6392 36.5874 53.0148 36.5322 53.1306 36.2322C53.1396 36.1963 53.1346 36.1583 53.1167 36.1259C53.0987 36.0935 53.0692 36.0691 53.034 36.0576C52.8265 36.0535 52.6189 36.0646 52.413 36.0906C51.9078 36.0588 51.582 36.1704 51.501 36.672C51.3876 37.452 51.1974 37.4874 51.1974 38.172C50.849 37.4213 50.719 36.5877 50.8224 35.7666C50.9328 33.435 51.399 32.196 51.702 30.4266C51.7278 30.291 51.5334 30.1866 51.462 30.3294C50.9426 31.4878 50.6087 32.7206 50.4726 33.9828C50.3046 35.1594 50.0844 36.5028 50.4276 37.662C50.8806 39.2274 52.0086 40.7868 53.7054 40.5528C53.6806 40.8698 53.6088 41.1814 53.4924 41.4774C53.4519 41.438 53.4028 41.4087 53.3489 41.3918C53.295 41.3749 53.2379 41.3709 53.1822 41.3802C51.8643 41.5575 50.5609 41.8299 49.2822 42.195C50.0334 42.6108 49.2972 43.4484 50.1096 45.315C50.3166 45.6366 50.3952 46.0242 50.3298 46.401C50.2865 46.5642 50.191 46.7088 50.0578 46.8127C49.9247 46.9166 49.7613 46.9741 49.5924 46.9764C49.4966 46.9762 49.4019 46.9557 49.3146 46.9164C49.2935 47.0318 49.2483 47.1415 49.1819 47.2382C49.1155 47.3349 49.0293 47.4165 48.9292 47.4775C48.829 47.5386 48.717 47.5778 48.6006 47.5926C48.4842 47.6074 48.3661 47.5973 48.2538 47.5632C48.1952 47.7178 48.0908 47.8509 47.9545 47.9445C47.8182 48.0381 47.6566 48.0878 47.4912 48.087C47.2875 48.0796 47.091 48.0096 46.9284 47.8866C46.8312 47.9862 46.7095 48.0584 46.5755 48.0958C46.4414 48.1332 46.2999 48.1345 46.1652 48.0996C45.378 47.8878 44.9016 47.0442 44.6052 46.5672C44.3018 46.0739 44.0629 45.5438 43.8942 44.9898C43.2543 45.5234 42.6869 46.1384 42.2064 46.8192L41.418 44.1372C41.3952 44.0601 41.3434 43.9947 41.2735 43.9549C41.2036 43.9151 41.121 43.9039 41.043 43.9236C39.6206 44.182 38.211 44.488 36.8142 44.8416C36.2514 44.9844 35.6142 45.0618 35.5338 45.7536C35.4876 46.451 35.4768 47.1503 35.5014 47.8488C35.4522 53.355 35.643 58.98 37.7064 64.1088C40.232 62.5235 42.8611 61.1093 45.576 59.8758C45.7866 59.3478 46.6464 58.3758 47.451 58.3302C47.6279 58.3242 47.8047 58.3461 47.9748 58.395C48.4786 57.9601 48.8392 57.3831 49.0092 56.7396C49.3809 55.7216 49.983 54.8032 50.7684 54.0564C51.1746 53.6718 51.4722 53.496 51.7122 53.2806C51.9691 53.0026 52.3142 52.822 52.689 52.7694C52.8026 52.7667 52.9155 52.7878 53.0205 52.8312C53.1255 52.8746 53.2203 52.9395 53.2988 53.0217C53.3773 53.1039 53.4378 53.2015 53.4764 53.3084C53.515 53.4153 53.5309 53.529 53.523 53.6424C53.5019 53.9401 53.3863 54.2232 53.193 54.4506C53.4066 54.315 53.6202 54.186 53.8398 54.0564C53.904 53.9916 54.2874 53.6484 54.9516 52.9572C55.5174 52.3518 55.7442 52.029 56.3166 51.9096C56.4279 51.8845 56.5432 51.8831 56.6551 51.9054C56.767 51.9277 56.873 51.9732 56.9662 52.0391C57.0594 52.1049 57.1378 52.1895 57.1962 52.2875C57.2546 52.3855 57.2918 52.4947 57.3054 52.608C58.4628 51.5742 59.553 52.713 58.6314 53.9526C58.7351 53.9314 58.8419 53.9311 58.9457 53.9516C59.0496 53.9722 59.1482 54.0131 59.2361 54.0721C59.3239 54.1312 59.3991 54.207 59.4573 54.2954C59.5156 54.3838 59.5556 54.4828 59.5752 54.5868C59.5913 54.86 59.5374 55.1329 59.4187 55.3795C59.2999 55.6261 59.1202 55.8384 58.8966 55.9962C58.8642 56.022 58.8366 56.0562 58.806 56.0802C58.9153 56.1369 59.0101 56.218 59.0831 56.3171C59.1562 56.4162 59.2055 56.5308 59.2274 56.6519C59.2492 56.7731 59.243 56.8977 59.2091 57.016C59.1753 57.1344 59.1148 57.2435 59.0322 57.3348C55.0962 61.827 52.617 61.1748 51.9774 61.5636C51.7218 61.7081 51.4307 61.7776 51.1374 61.764C51.0722 62.2868 50.8357 62.7734 50.4648 63.1476C50.0795 63.707 49.55 64.1518 48.9324 64.4346C47.9653 66.8348 46.7151 69.1109 45.2082 71.2146C45.7953 71.1182 46.3488 70.876 46.818 70.5102C47.011 72.2735 47.5623 73.9788 48.438 75.5214C48.1764 75.747 47.9992 76.0548 47.9358 76.3944C47.8723 76.7339 47.9263 77.085 48.0888 77.3898C48.0531 77.3838 48.0163 77.3894 47.984 77.4056C47.9516 77.4219 47.9253 77.4481 47.9088 77.4804C45.5896 82.1692 43.8254 87.1126 42.6522 92.2104C42.231 93.6148 41.9497 95.0574 41.8122 96.5172C41.799 96.8172 42.213 96.84 42.3102 96.582C42.8982 94.962 42.8424 93.8394 44.2302 89.055C45.8502 83.442 47.6652 79.3914 48.2718 77.571C48.316 77.5831 48.3623 77.5853 48.4074 77.5776C60.717 74.3076 65.7246 76.5294 67.5864 76.6854C67.6334 76.6847 67.6788 76.6688 67.7159 76.6401C67.753 76.6113 67.7798 76.5713 67.7922 76.526C67.8046 76.4807 67.8019 76.4326 67.7846 76.389C67.7673 76.3453 67.7363 76.3085 67.6962 76.284C66.5322 75.8409 65.3146 75.554 64.0752 75.4308C58.8468 74.7474 53.5224 75.654 48.4788 77.0508C48.4066 76.827 48.3877 76.5894 48.4236 76.357C48.4595 76.1245 48.5493 75.9037 48.6858 75.7122C52.8589 74.7001 57.1433 74.2199 61.437 74.283C63.6371 74.3924 65.8252 74.6757 67.9806 75.1302C67.9806 76.0572 67.8606 76.7688 67.9356 77.0574C68.806 80.5016 69.2211 84.0449 69.1704 87.597C69.171 87.673 69.2011 87.7457 69.2544 87.7998C69.141 89.8908 69.3408 91.1106 69.0798 94.6128C68.9742 96.258 68.8494 96.5472 68.9766 97.0248C68.9892 97.0655 69.0132 97.1018 69.0458 97.1292C69.0783 97.1567 69.1181 97.1741 69.1604 97.1796C69.2027 97.185 69.2456 97.1782 69.2841 97.1599C69.3225 97.1416 69.3549 97.1126 69.3774 97.0764C69.5249 96.7191 69.6062 96.3379 69.6174 95.9514C69.8268 93.7866 70.0098 90.0168 69.693 87.8778C70.4447 87.8746 71.194 87.9641 71.9238 88.1442C71.4888 89.6298 71.772 90.2442 71.6088 91.6842C71.4953 92.6926 71.2112 93.6744 70.7688 94.5876C70.595 94.8407 70.4822 95.1307 70.4394 95.4348C70.4402 95.47 70.45 95.5044 70.468 95.5347C70.4859 95.565 70.5114 95.5902 70.542 95.6077C70.5725 95.6253 70.607 95.6347 70.6423 95.635C70.6775 95.6353 70.7122 95.6265 70.743 95.6094C70.9933 95.4286 71.1791 95.1726 71.2734 94.8786C72.6918 91.9098 72.0222 90.2586 72.2976 88.245C72.396 88.273 72.4942 88.3028 72.5922 88.3344C72.6528 88.3505 72.717 88.3467 72.7753 88.3235C72.8335 88.3002 72.8827 88.2588 72.9156 88.2054C73.2517 87.4194 73.4759 86.5901 73.5816 85.7418C75.2766 77.9802 76.8 69.732 76.0704 61.8222ZM44.3304 57.0504C44.2848 57.1212 44.1558 57.1404 44.1168 57.0504C43.8264 56.3988 44.2512 56.61 43.3368 52.0968C42.6666 48.7728 42.3552 48.252 42.186 47.0664C42.1668 46.9464 42.3474 46.8396 42.4062 46.9758C43.0302 48.3462 44.1 53.031 44.3586 54.6318C44.4852 55.473 44.64 56.5482 44.328 57.0504H44.3304ZM52.9476 42.2682C52.6429 42.5626 52.2623 42.7664 51.8484 42.8568C51.8024 42.8662 51.7545 42.8578 51.7145 42.8332C51.6745 42.8087 51.6454 42.7698 51.633 42.7245C51.6206 42.6792 51.6259 42.6309 51.6479 42.5894C51.6699 42.5479 51.7068 42.5163 51.7512 42.501C51.9312 42.4236 52.1196 42.3654 52.3008 42.288C52.4737 42.2017 52.6545 42.1324 52.8408 42.081C52.8643 42.0758 52.8889 42.0782 52.9109 42.088C52.933 42.0977 52.9513 42.1143 52.9632 42.1352C52.9752 42.1562 52.9801 42.1804 52.9773 42.2043C52.9745 42.2282 52.9641 42.2506 52.9476 42.2682ZM54.1374 42.9732C54.0672 43.1742 53.8938 43.5846 53.6844 43.626C53.6136 43.6392 53.5182 43.5942 53.5296 43.506C53.5611 43.3903 53.6233 43.2852 53.7096 43.2018C53.7889 43.1027 53.8624 42.9991 53.9298 42.8916C53.9952 42.78 54.18 42.8502 54.1374 42.9732ZM55.7928 44.2536C55.7742 44.2693 55.7516 44.2795 55.7275 44.2829C55.7034 44.2863 55.6788 44.2828 55.6566 44.2728C55.521 44.208 55.521 44.04 55.5018 43.9044C55.4777 43.7351 55.4668 43.5642 55.4694 43.3932C55.4706 43.3619 55.483 43.3321 55.5042 43.309C55.5254 43.286 55.5541 43.2712 55.5852 43.2674C55.6163 43.2636 55.6477 43.2709 55.6739 43.2882C55.7 43.3054 55.7192 43.3313 55.728 43.3614C55.7776 43.5241 55.8144 43.6904 55.8378 43.8588C55.86 43.995 55.9092 44.1564 55.7928 44.2536ZM57.9588 43.8654C57.7698 44.0124 57.4788 43.5252 57.312 43.3092C57.2148 43.1802 57.4284 43.0248 57.5322 43.1412C57.642 43.245 58.1724 43.6974 57.96 43.8654H57.9588ZM59.7306 42.7338C59.4906 42.624 59.2716 42.4818 59.0454 42.3588C59.0156 42.3414 58.9932 42.3138 58.9823 42.2811C58.9715 42.2484 58.9729 42.2129 58.9864 42.1811C58.9999 42.1494 59.0244 42.1237 59.0555 42.1088C59.0866 42.0939 59.122 42.0908 59.1552 42.1002C59.4221 42.1729 59.6769 42.2841 59.9118 42.4302C59.9431 42.458 59.9636 42.4959 59.97 42.5373C59.9764 42.5786 59.9681 42.6209 59.9467 42.6569C59.9252 42.6928 59.8919 42.7202 59.8525 42.7342C59.813 42.7483 59.7699 42.7481 59.7306 42.7338ZM69.546 69.9696C69.249 71.127 68.9838 72.4656 68.2788 73.455C68.214 73.5456 68.0388 73.5258 68.046 73.3902C68.1222 72.6989 68.2741 72.018 68.499 71.3598C70.3824 65.0178 70.419 60.237 70.0764 54.5478C70.0638 54.3534 70.3806 54.315 70.413 54.5022C71.1654 58.6902 70.941 64.5906 69.546 69.9696Z" fill="#191919"/>
<path d="M48.4536 59.145C49.4238 58.9938 49.9338 57.315 50.361 56.52C51.441 54.5076 52.749 54.534 52.7532 53.6556C52.7525 53.6188 52.7423 53.5829 52.7235 53.5513C52.7047 53.5197 52.678 53.4935 52.6461 53.4754C52.6141 53.4572 52.578 53.4477 52.5412 53.4477C52.5044 53.4478 52.4683 53.4574 52.4364 53.4756C52.1915 53.6146 51.9638 53.7817 51.7578 53.9736C49.5 55.6842 49.62 57.072 48.861 58.227C48.7038 58.467 48.4866 58.647 48.3048 58.8738C48.2794 58.8982 48.2628 58.9303 48.2574 58.9651C48.2521 58.9999 48.2584 59.0355 48.2753 59.0664C48.2923 59.0973 48.3189 59.1217 48.3511 59.1359C48.3834 59.1501 48.4194 59.1533 48.4536 59.145Z" fill="#191919"/>
<path d="M52.275 56.7978C53.5453 55.9531 54.7167 54.9683 55.767 53.862C56.349 53.2746 56.4978 53.1552 56.517 52.7568C56.5163 52.7288 56.5093 52.7013 56.4964 52.6764C56.4836 52.6516 56.4653 52.6299 56.4429 52.6131C56.4205 52.5963 56.3946 52.5848 56.3671 52.5794C56.3396 52.5741 56.3113 52.575 56.2842 52.5822C55.8258 52.6578 55.5474 53.106 55.2432 53.4222C54.4182 54.2796 52.7352 55.8756 52.0554 56.5062C51.9126 56.6556 52.1058 56.913 52.275 56.7978Z" fill="#191919"/>
<path d="M54.189 56.8236C55.4581 56.1466 56.593 55.2438 57.5382 54.1596C57.81 53.8596 58.2192 53.5128 58.1982 53.0736C58.1974 53.0464 58.1905 53.0198 58.1779 52.9957C58.1654 52.9715 58.1475 52.9506 58.1257 52.9343C58.1038 52.9181 58.0786 52.9071 58.0519 52.902C58.0252 52.8969 57.9977 52.8979 57.9714 52.905C57.4632 53.0124 57.3714 53.5008 56.0706 54.7416C55.4016 55.3788 54.696 55.9752 53.9886 56.565C53.8368 56.6922 54.0276 56.9022 54.189 56.8236Z" fill="#191919"/>
<path d="M54.9972 57.8586C55.572 57.7836 56.7936 56.9136 57.2538 56.559C57.5988 56.2926 57.927 56.0053 58.2366 55.6986C58.4838 55.4544 58.8804 55.1382 58.7994 54.7482C58.7901 54.7155 58.7707 54.6866 58.744 54.6657C58.7172 54.6448 58.6845 54.6329 58.6506 54.6318C58.095 54.5844 57.9906 55.4244 55.8768 56.8818C55.5078 57.0855 55.1604 57.3261 54.84 57.6C54.818 57.6254 54.8047 57.6572 54.8019 57.6907C54.7991 57.7242 54.807 57.7578 54.8245 57.7865C54.8419 57.8152 54.8681 57.8377 54.8991 57.8507C54.9301 57.8636 54.9645 57.8664 54.9972 57.8586Z" fill="#191919"/>
<path d="M58.1526 56.7204C56.0952 58.4682 54.8868 59.8686 52.2168 60.2124C51.7578 60.2724 50.7072 60.3954 50.8458 61.0656C50.8542 61.0967 50.8705 61.125 50.8933 61.1477C50.916 61.1705 50.9443 61.1868 50.9754 61.1952C51.2718 61.2552 51.4668 61.0656 51.7446 60.9816C52.6044 60.7224 54.9366 61.0452 58.4178 56.9856C58.4499 56.9498 58.4671 56.9031 58.4658 56.8551C58.4645 56.8071 58.4448 56.7614 58.4108 56.7274C58.3768 56.6934 58.3311 56.6738 58.2831 56.6725C58.2351 56.6712 58.1884 56.6883 58.1526 56.7204Z" fill="#191919"/>
<path d="M50.361 61.6026C50.2032 61.1614 49.9258 60.7728 49.56 60.48C49.0872 59.9886 47.9712 58.9464 47.2968 59.0316C46.9691 59.1287 46.6717 59.308 46.4329 59.5525C46.1941 59.797 46.0218 60.0985 45.9324 60.4284C45.6324 60.4284 38.9808 63.7956 37.1058 65.259C36.7578 63.153 36.078 60.5274 35.5086 58.4886C35.0286 56.775 34.4784 55.0374 33.336 53.6388C31.4094 51.2814 27.2856 49.0344 24.2964 49.4388C24.2587 49.4388 24.2225 49.4538 24.1959 49.4805C24.1692 49.5071 24.1542 49.5433 24.1542 49.581C24.1542 49.6187 24.1692 49.6549 24.1959 49.6816C24.2225 49.7082 24.2587 49.7232 24.2964 49.7232C25.89 49.8798 27.445 50.3086 28.8936 50.991C30.3075 51.6534 31.5791 52.5845 32.6376 53.7324C33.7093 55.0739 34.4589 56.6433 34.8288 58.32C35.6846 61.2026 36.3287 64.1438 36.756 67.1202C36.756 67.1802 36.7798 67.2377 36.8223 67.2802C36.8647 67.3226 36.9222 67.3464 36.9822 67.3464C37.0422 67.3464 37.0997 67.3226 37.1422 67.2802C37.1846 67.2377 37.2084 67.1802 37.2084 67.1202C37.2791 66.6479 37.2704 66.1671 37.1826 65.6976C38.388 65.0976 40.5684 63.4086 45.9768 60.9648C46.4749 61.7018 47.01 62.4131 47.58 63.096C47.6886 63.2328 47.9028 63.4194 47.8836 63.6132C47.8487 63.7598 47.7944 63.901 47.7222 64.0332C47.1477 65.4164 46.4864 66.7619 45.7422 68.0616C43.542 71.8572 40.7916 74.385 38.9334 75.459C37.6218 76.2168 37.299 75.9204 36.6312 76.059C36.5857 76.0727 36.5451 76.0992 36.5142 76.1353C36.4833 76.1715 36.4636 76.2157 36.4572 76.2629C36.4509 76.31 36.4583 76.3579 36.4785 76.4009C36.4987 76.4439 36.5309 76.4802 36.5712 76.5054C37.1628 76.9146 38.1102 76.5894 38.7054 76.3254C40.2786 75.6234 42.447 73.5654 43.6254 72.1548C45.424 69.944 46.89 67.4825 47.9772 64.848C48.0972 64.563 48.249 64.2726 48.3456 63.9684C48.8826 64.02 49.6776 63.0684 49.9236 62.7528C50.215 62.4419 50.3722 62.0286 50.361 61.6026ZM49.6884 62.0034C49.4476 62.3916 49.1538 62.7442 48.8154 63.051C48.7134 63.1428 48.4728 63.264 48.5154 63.4062C48.5002 63.3601 48.474 63.3184 48.4391 63.2846C48.4042 63.2509 48.3616 63.2261 48.315 63.2124C47.9458 62.668 47.5396 62.1496 47.0994 61.6608C46.8496 61.3164 46.566 60.9978 46.2528 60.7098C46.3495 60.4917 46.464 60.282 46.5954 60.0828C47.2626 59.3514 47.4402 59.4306 48.1344 59.934C48.6139 60.3159 49.0517 60.7473 49.4406 61.221C49.6554 61.4604 49.8696 61.6734 49.6884 62.0034Z" fill="#191919"/>
<path d="M89.9862 30.2802C91.0508 30.3763 92.0471 30.8458 92.799 31.6056C93.924 32.6022 93.5292 33.5358 94.0146 34.134C94.17 34.3254 94.5384 33.7872 94.1178 32.5494C93.9239 31.9957 93.5817 31.5059 93.1284 31.1334C92.1348 30.2814 91.2252 29.6844 89.9484 29.9694C89.9112 29.9788 89.8786 30.0015 89.8569 30.0331C89.8352 30.0648 89.8257 30.1033 89.8304 30.1415C89.835 30.1796 89.8534 30.2147 89.8821 30.2403C89.9108 30.2658 89.9478 30.28 89.9862 30.2802Z" fill="#191919"/>
<path d="M92.094 31.92C91.8666 31.701 91.5186 31.3524 91.1694 31.44C91.1413 31.4483 91.1176 31.4671 91.103 31.4924C91.0885 31.5178 91.0843 31.5478 91.0914 31.5762C91.2078 31.8672 91.5372 31.9902 91.758 32.1906C92.0178 32.4399 92.2516 32.7149 92.4558 33.0114C92.5404 33.1278 92.7558 33.063 92.7084 32.9082C92.5968 32.5293 92.3845 32.1877 92.094 31.92Z" fill="#191919"/>
<path d="M90.66 33.24C90.6824 33.2604 90.7113 33.2722 90.7416 33.2734C90.7719 33.2747 90.8017 33.2651 90.8257 33.2466C90.8497 33.2281 90.8664 33.2016 90.8728 33.172C90.8793 33.1424 90.8751 33.1114 90.861 33.0846C90.7203 32.831 90.5598 32.5888 90.381 32.3604C90.2674 32.1556 90.0936 31.9907 89.883 31.8882C89.8692 31.8847 89.8548 31.8845 89.8409 31.8874C89.827 31.8903 89.8139 31.8964 89.8027 31.9051C89.7915 31.9138 89.7824 31.925 89.7762 31.9378C89.7699 31.9506 89.7666 31.9646 89.7666 31.9788C89.8154 32.2246 89.9371 32.4499 90.1158 32.6256C90.284 32.8417 90.4658 33.0469 90.66 33.24Z" fill="#191919"/>
<path d="M89.1906 33.7974C89.325 33.8832 89.4906 33.6732 89.3652 33.5712C89.2047 33.4439 89.0744 33.2826 88.9836 33.099C88.8798 32.8836 88.8558 32.3838 88.602 32.4852L88.6086 32.4786C88.5486 32.4852 88.518 32.5434 88.4988 32.5884C88.4797 32.7095 88.4853 32.8333 88.5153 32.9522C88.5453 33.0711 88.5991 33.1826 88.6734 33.2802C88.8046 33.4894 88.9814 33.6662 89.1906 33.7974Z" fill="#191919"/>
<path d="M90.309 36.3324C90.1454 36.3996 90.0116 36.5236 89.932 36.6815C89.8525 36.8394 89.8325 37.0207 89.8758 37.1922C89.8823 37.2124 89.8944 37.2303 89.9107 37.2439C89.927 37.2574 89.9468 37.266 89.9678 37.2688C89.9888 37.2715 90.0102 37.2681 90.0294 37.2591C90.0486 37.2501 90.0648 37.2359 90.0762 37.218C90.1354 37.0392 90.243 36.8804 90.387 36.759C90.4142 36.7411 90.4451 36.7296 90.4774 36.7252C90.5096 36.7209 90.5425 36.7237 90.5735 36.7337C90.6045 36.7436 90.6329 36.7604 90.6566 36.7827C90.6802 36.8051 90.6986 36.8324 90.7104 36.8628C90.8178 37.0962 91.2288 36.9264 91.1304 36.6882C91.0671 36.5333 90.9457 36.4094 90.7922 36.3429C90.6387 36.2764 90.4653 36.2726 90.309 36.3324Z" fill="#191919"/>
<path d="M92.9538 36.24C92.9946 36.105 93.096 35.94 93.2448 35.9298C93.3936 35.9196 93.4908 36.0498 93.5814 36.1494C93.6058 36.1742 93.637 36.1911 93.6711 36.1981C93.7051 36.2051 93.7405 36.2017 93.7727 36.1885C93.8048 36.1754 93.8323 36.1529 93.8517 36.124C93.8711 36.0951 93.8814 36.0612 93.8814 36.0264C93.8675 35.9489 93.8379 35.875 93.7944 35.8094C93.7509 35.7437 93.6944 35.6877 93.6284 35.6447C93.5624 35.6017 93.4883 35.5727 93.4107 35.5594C93.3331 35.5461 93.2535 35.5488 93.177 35.5674C93.104 35.5812 93.0346 35.6095 92.9729 35.6509C92.9112 35.6922 92.8586 35.7456 92.8181 35.8078C92.7776 35.8701 92.7501 35.9399 92.7374 36.013C92.7246 36.0862 92.7268 36.1611 92.7438 36.2334C92.7506 36.2555 92.7641 36.275 92.7826 36.2891C92.801 36.3031 92.8233 36.3111 92.8464 36.3118C92.8696 36.3125 92.8924 36.306 92.9116 36.2931C92.9309 36.2803 92.9456 36.2617 92.9538 36.24Z" fill="#191919"/>
<path d="M91.6092 35.6016C91.7246 36.3994 92.1497 37.1197 92.7924 37.6062C92.28 37.9662 91.9698 37.8918 91.764 38.1234C91.5312 38.3862 92.322 38.7276 93.2322 37.7418C93.2517 37.7209 93.2663 37.6959 93.275 37.6686C93.2837 37.6413 93.2863 37.6125 93.2826 37.5841C93.2788 37.5558 93.2689 37.5286 93.2534 37.5045C93.238 37.4804 93.2174 37.46 93.1932 37.4448C92.5506 36.9834 92.0762 36.3248 91.842 35.5692C91.8 35.46 91.596 35.46 91.6092 35.6016Z" fill="#191919"/>
<path d="M92.3916 39.7272C94.0362 39.567 94.1388 38.8314 93.7752 38.8218C93.5226 38.8152 93.3084 39.0066 93.0768 39.0936C92.1168 39.4536 91.5696 39.2256 90.7812 39.1194C90.678 39.1056 90.5616 39.2226 90.639 39.3198C90.855 42.288 94.0524 42.2454 93.9174 39.8502C93.9042 39.6102 93.5226 39.5268 93.4776 39.7902C93.4711 40.1448 93.3849 40.4934 93.2256 40.8102C93.1083 40.9571 92.948 41.0635 92.7671 41.1147C92.5862 41.1658 92.3938 41.159 92.217 41.0952C91.506 40.893 91.2018 40.164 90.957 39.5238C91.409 39.7165 91.9038 39.7867 92.3916 39.7272Z" fill="#191919"/>
<path d="M89.0094 40.32C88.9983 40.278 88.9709 40.2421 88.9333 40.2203C88.8957 40.1985 88.851 40.1925 88.809 40.2036C88.767 40.2147 88.7311 40.2421 88.7093 40.2797C88.6875 40.3173 88.6815 40.362 88.6926 40.404C89.2866 43.1676 88.6818 43.2342 88.8348 43.7088C88.8506 43.7634 88.8873 43.8097 88.937 43.8374C88.9866 43.8651 89.0452 43.8722 89.1 43.857C89.6226 43.6464 89.6046 42.7836 89.58 42.312C89.502 41.6209 89.3092 40.9476 89.0094 40.32Z" fill="#191919"/>
<path d="M94.9584 38.169C94.9178 37.2858 94.8032 36.4075 94.6158 35.5434C94.5965 35.2714 94.4898 35.0129 94.3116 34.8066C94.2912 34.7874 94.2662 34.7738 94.2391 34.7669C94.212 34.76 94.1835 34.76 94.1564 34.7671C94.1294 34.7742 94.1045 34.788 94.0842 34.8073C94.0639 34.8266 94.0488 34.8507 94.0404 34.8774C93.9504 35.166 94.0944 35.2218 94.2924 36.3066C94.581 37.89 94.7886 41.0352 93.549 42.0666C93.3328 42.1949 93.0874 42.2658 92.8362 42.2726C92.5849 42.2794 92.336 42.2219 92.1132 42.1056C91.4261 41.8118 90.789 41.4126 90.225 40.9224C90.0825 40.7774 89.9137 40.661 89.7276 40.5792C89.6238 40.5468 89.5596 40.6632 89.598 40.7478C89.7378 40.9709 89.9203 41.1642 90.135 41.3166C90.8345 42.011 91.7188 42.49 92.6826 42.6966C92.6314 42.9536 92.6521 43.2198 92.7426 43.4658C92.8452 43.7508 92.9946 44.148 93.3306 44.1708C93.3801 44.1699 93.4273 44.1498 93.4624 44.1148C93.4974 44.0797 93.5175 44.0325 93.5184 43.983C93.5628 43.6428 93.1368 43.5192 93.0594 42.7158C93.3808 42.6692 93.6833 42.5354 93.9341 42.3291C94.1849 42.1227 94.3744 41.8516 94.482 41.5452C94.9141 40.4756 95.0777 39.3164 94.9584 38.169Z" fill="#191919"/>
<path d="M29.9796 70.08C29.2632 67.98 26.829 61.6596 26.3196 60.1482C25.6146 58.0548 25.4166 57.1482 25.1166 56.5332C25.101 56.508 25.0777 56.4886 25.0501 56.4779C25.0225 56.4672 24.9921 56.4658 24.9637 56.4739C24.9352 56.4819 24.9101 56.4991 24.8922 56.5226C24.8744 56.5462 24.8647 56.575 24.8646 56.6046C24.8826 56.9214 24.9324 57.2356 25.0134 57.5424C24.6156 57.2626 24.1477 57.0991 23.6622 57.0702C23.6453 56.9687 23.6214 56.8685 23.5908 56.7702C24.6654 56.3544 24.9822 56.5902 25.0392 56.3178C25.0962 56.0454 25.2468 55.7388 25.0992 55.4838C25.0821 55.4546 25.0541 55.4335 25.0213 55.4249C24.9886 55.4164 24.9538 55.4212 24.9246 55.4382C24.8374 55.5199 24.7686 55.6193 24.7229 55.7297C24.6772 55.8401 24.6555 55.959 24.6594 56.0784C24.264 56.1425 23.8791 56.26 23.5152 56.4276C23.2434 56.169 22.971 55.905 22.6806 55.6644C22.6032 55.6002 22.455 55.6902 22.5258 55.7808C22.7832 56.112 23.3058 56.6898 23.3658 56.751C23.1858 56.931 23.5134 59.8866 23.553 60.3138C23.6592 61.446 24.315 68.2938 24.5424 70.5738C24.5748 70.8972 25.0824 70.9038 25.0536 70.5738C25.026 70.2828 24.9936 69.9918 24.969 69.7074C25.2846 69.9306 25.9188 69.915 29.4372 70.9554C29.4929 70.9751 29.5537 70.9742 29.6088 70.9529C29.6639 70.9315 29.7094 70.8911 29.7372 70.839C29.7765 70.9192 29.8241 70.9951 29.8794 71.0652C29.9838 71.1942 30.1746 71.0778 30.1836 70.9452C30.1726 70.6463 30.1033 70.3524 29.9796 70.08ZM23.7462 57.4512C23.945 57.4945 24.1397 57.5548 24.3282 57.6312C24.5127 57.7574 24.7125 57.8596 24.9228 57.9354C25.2582 57.9888 24.8724 57.2688 25.7442 59.985C25.555 59.8939 25.3606 59.8138 25.1622 59.745C24.778 59.5617 24.3758 59.4185 23.9622 59.3178C23.9225 58.6923 23.8504 58.0693 23.7462 57.4512ZM24.0048 59.7078C24.3222 59.8879 24.6504 60.0482 24.9876 60.1878C25.2632 60.3724 25.5871 60.4716 25.9188 60.4728C26.2674 61.5012 27.1962 63.9948 27.2508 64.1586C26.3237 63.4537 25.3218 62.8529 24.2634 62.367C24.2568 62.3028 24.042 60.1734 24.0048 59.7078ZM24.6048 65.8506C24.5334 65.1198 24.333 63.0636 24.3006 62.766C26.9154 64.4874 27.2448 64.9122 27.489 64.7904C27.6456 65.2014 28.4358 67.23 28.575 67.6482C27.2892 67.1334 24.84 65.7918 24.606 65.8506H24.6048ZM26.0598 69.543C25.9752 69.5262 25.113 69.2934 24.954 69.4524C24.8502 68.3658 24.7404 67.2798 24.6372 66.1872C25.7124 66.8727 26.8387 67.4745 28.0062 67.9872C28.7262 68.3022 28.689 68.3274 28.8402 68.388C28.9692 68.7306 29.5644 70.4052 29.5776 70.4376C28.422 70.0778 27.2481 69.7791 26.061 69.543H26.0598Z" fill="#644DF6"/>
<path d="M31.2858 77.742C31.1444 77.9211 31.0249 78.1165 30.93 78.324C30.8106 78.4996 30.7621 78.714 30.7944 78.924C30.8046 78.9565 30.8229 78.9858 30.8476 79.0093C30.8724 79.0327 30.9027 79.0494 30.9357 79.0578C30.9687 79.0662 31.0033 79.0661 31.0362 79.0574C31.0691 79.0486 31.0993 79.0316 31.1238 79.008C31.3038 78.8622 31.2306 78.7326 31.6086 77.928C31.6277 77.8857 31.6303 77.8377 31.6161 77.7936C31.6018 77.7494 31.5716 77.7121 31.5314 77.6889C31.4912 77.6657 31.4437 77.6583 31.3984 77.6681C31.353 77.6779 31.3129 77.7043 31.2858 77.742Z" fill="#644DF6"/>
<path d="M32.16 30.1638C33.1126 28.8987 34.3974 27.9225 35.8716 27.3438C36.3752 27.2226 36.87 27.067 37.3524 26.8782C37.3899 26.8545 37.4198 26.8206 37.4388 26.7805C37.4577 26.7404 37.4649 26.6957 37.4594 26.6517C37.4539 26.6077 37.4361 26.5661 37.4079 26.5318C37.3797 26.4976 37.3423 26.4721 37.3002 26.4582C36.7538 26.4016 36.2028 26.5074 35.7162 26.7624C34.0976 27.3297 32.7308 28.4493 31.8558 29.9244C31.749 30.1146 32.0046 30.3456 32.16 30.1638Z" fill="#644DF6"/>
<path d="M29.1516 29.2974C29.7889 27.8469 30.8193 26.6036 32.1264 25.7082C32.5879 25.4759 33.0329 25.2123 33.4584 24.9192C33.4889 24.8864 33.5094 24.8454 33.5175 24.8013C33.5255 24.7572 33.5207 24.7117 33.5036 24.6702C33.4866 24.6287 33.458 24.593 33.4213 24.5673C33.3845 24.5415 33.3412 24.5269 33.2964 24.525C32.8164 24.4686 32.1966 24.9378 31.8222 25.185C30.3732 26.103 29.2982 27.5067 28.7898 29.145C28.7328 29.3556 29.043 29.511 29.1516 29.2974Z" fill="#644DF6"/>
<path d="M113.827 35.0844C113.595 34.5887 113.248 34.1554 112.815 33.8203C112.382 33.4852 111.875 33.2579 111.337 33.1572C111.105 33.1242 110.995 33.4482 111.234 33.5172C111.7 33.6813 112.128 33.9393 112.49 34.2752C112.853 34.6111 113.143 35.0178 113.342 35.4702C113.938 36.7044 113.876 37.9956 114.17 38.9034C114.215 39.0456 114.473 39.0834 114.499 38.9034C114.621 37.5932 114.389 36.2742 113.827 35.0844Z" fill="#644DF6"/>
<path d="M116.899 36.3648C116.739 35.1869 116.144 34.1117 115.23 33.3516C115.043 33.2028 114.776 33.45 114.959 33.6228C115.747 34.4282 116.238 35.4784 116.349 36.6C116.549 38.148 116.16 39.5724 116.219 40.5378C116.22 40.5786 116.236 40.6178 116.263 40.6483C116.29 40.6787 116.328 40.6984 116.368 40.7038C116.409 40.7093 116.45 40.7 116.484 40.6779C116.518 40.6557 116.544 40.622 116.555 40.5828C116.986 39.2206 117.103 37.7787 116.899 36.3648Z" fill="#644DF6"/>
<path d="M36.0642 75.492C36.0294 75.297 35.724 75.3432 35.7276 75.537C35.8189 77.0147 35.6078 78.4955 35.1072 79.8888C34.6416 79.9344 34.1694 79.9794 33.7038 80.0184C33.6783 79.9125 33.6313 79.8131 33.5657 79.7263C33.5 79.6394 33.4171 79.5671 33.3222 79.5138C33.0534 79.3985 32.7638 79.3396 32.4713 79.3407C32.1788 79.3418 31.8897 79.403 31.6218 79.5204C31.0883 79.4004 30.5353 79.3959 30 79.5072C29.1996 79.6218 28.8396 79.791 28.7196 80.5098C27.6633 80.6239 26.6192 80.8315 25.5996 81.1302C25.5763 81.1355 25.5545 81.1457 25.5355 81.1602C25.5166 81.1747 25.501 81.1931 25.4898 81.2142C25.2456 81.249 24.1698 82.1328 21.5838 83.361C21.2154 83.5362 21.4812 84.1008 21.8556 84.0078C24.1569 83.4978 26.4866 83.1263 28.8324 82.8954C29.103 83.706 29.9622 83.4468 30.6924 83.355C31.3134 83.2764 31.9338 83.1996 32.5614 83.1222C33.033 83.0622 33.4728 82.986 33.693 82.5078C33.7638 82.401 33.4872 82.4814 34.818 82.3332C35.0733 82.3448 35.3283 82.3052 35.568 82.2168C35.6508 82.1519 35.7168 82.0681 35.7606 81.9725C35.8045 81.8769 35.8248 81.7722 35.82 81.6672C35.8664 81.1641 35.8426 80.6571 35.7492 80.1606C36.308 78.6686 36.4176 77.0455 36.0642 75.492ZM33.1842 81.654C33.1662 82.3896 32.955 82.518 32.4642 82.5786C31.6884 82.6758 30.9132 82.7802 30.1362 82.8696C29.6826 82.9218 29.4582 82.8768 29.3994 82.404C29.3086 81.689 29.3129 80.9651 29.412 80.2512C29.625 80.0286 30.8466 79.9458 31.5198 79.7712C31.6482 80.079 31.9398 79.7448 32.7162 79.9392C32.9376 79.9614 33.0102 79.9956 33.0396 80.172C33.1755 80.6535 33.2253 81.1552 33.1866 81.654H33.1842Z" fill="#191919"/>
<path d="M44.4378 44.499C44.2471 43.9921 44.22 43.4381 44.3604 42.915C44.41 42.8213 44.4831 42.7421 44.5727 42.6854C44.6623 42.6287 44.7651 42.5963 44.871 42.5916C44.8635 42.4791 44.8826 42.3665 44.9268 42.2628C44.971 42.1591 45.039 42.0674 45.1254 41.9949C45.2117 41.9225 45.314 41.8715 45.4237 41.846C45.5335 41.8205 45.6478 41.8212 45.7572 41.8482C45.7648 41.6958 45.811 41.5479 45.8915 41.4184C45.972 41.2888 46.084 41.1818 46.2172 41.1074C46.3504 41.033 46.5003 40.9937 46.6528 40.9931C46.8053 40.9926 46.9555 41.0308 47.0892 41.1042C47.3658 40.2114 48.3306 40.3908 48.8028 41.2206C48.8166 41.2452 48.8221 41.2735 48.8185 41.3015C48.8148 41.3295 48.8023 41.3555 48.7827 41.3757C48.763 41.396 48.7374 41.4093 48.7096 41.4138C48.6817 41.4183 48.6532 41.4136 48.6282 41.4006C48.2178 41.1954 47.5758 40.371 47.4444 41.6334C47.421 41.8602 47.0562 41.9634 47.0112 41.6982C46.9338 41.2392 46.0764 41.268 46.1772 42.267C46.2036 42.5256 45.8322 42.54 45.7506 42.3318C45.6774 42.1452 45.4206 42.2994 45.3624 42.3966C45.2925 42.5532 45.2789 42.7291 45.324 42.8946C45.3666 43.1202 45.0444 43.3086 44.9226 43.0692C44.8512 42.927 44.7426 43.1592 44.7288 43.1982C44.7249 44.3342 45.0928 45.4403 45.7764 46.3476C46.0609 46.6306 46.3034 46.9528 46.4964 47.3046C46.5027 47.327 46.5029 47.3506 46.4971 47.3731C46.4912 47.3956 46.4794 47.4162 46.463 47.4326C46.4466 47.449 46.426 47.4608 46.4035 47.4667C46.381 47.4725 46.3574 47.4723 46.335 47.466C45.8244 47.3298 45.4206 46.6464 45.1578 46.218C44.8306 45.6855 44.5877 45.1057 44.4378 44.499Z" fill="#191919"/>
<path d="M48.7638 42.8178C48.7721 42.7881 48.7908 42.7625 48.8166 42.7454C48.8423 42.7284 48.8732 42.7212 48.9038 42.7252C48.9344 42.7291 48.9625 42.7439 48.9831 42.7669C49.0036 42.7898 49.0152 42.8194 49.0158 42.8502C48.9926 43.4727 49.0581 44.0953 49.2102 44.6994C49.4748 45.7194 49.7802 45.8796 49.695 46.2324C49.6881 46.2615 49.67 46.2867 49.6446 46.3025C49.6192 46.3182 49.5885 46.3233 49.5594 46.3164C49.3008 46.2312 49.215 45.987 49.113 45.747C48.7217 44.8234 48.6006 43.8076 48.7638 42.8178Z" fill="#191919"/>
<path d="M47.64 43.6134C47.8038 44.637 48.1404 45.6252 48.6354 46.536C48.6954 46.6716 48.7266 46.8666 48.5514 46.9242C48.3114 47.0028 48.1794 46.6578 48.1056 46.5102C47.6417 45.6259 47.3936 44.6443 47.3814 43.6458C47.3802 43.5096 47.6118 43.4646 47.64 43.6134Z" fill="#191919"/>
<path d="M46.38 44.4666C46.947 46.3152 47.6046 46.812 47.6478 47.2794C47.6592 47.409 47.5176 47.4558 47.415 47.4156C46.9722 47.2416 46.689 46.4916 46.5096 46.0836C46.2963 45.5803 46.1568 45.0488 46.0956 44.5056C46.0866 44.3442 46.332 44.3184 46.38 44.4666Z" fill="#191919"/>
<path d="M109.43 47.94L109.397 47.82C108.303 47.6001 107.198 47.4383 106.087 47.3352L105.938 47.3868C105.194 48.318 105.001 49.5786 104.341 50.5746C103.851 49.2482 103.045 48.061 101.994 47.115C101.831 47.6045 101.612 48.0732 101.341 48.5118C101.027 49.1973 100.472 49.743 99.7806 50.0442C99.6459 50.0793 99.5043 50.078 99.3703 50.0406C99.2362 50.0032 99.1145 49.931 99.0174 49.8312C98.9169 49.9197 98.7965 49.9825 98.6664 50.0145C98.5364 50.0465 98.4005 50.0466 98.2704 50.0149C98.1403 49.9831 98.0198 49.9204 97.9191 49.8322C97.8184 49.7439 97.7405 49.6326 97.692 49.5078C97.5798 49.5407 97.4619 49.5497 97.3459 49.5344C97.23 49.5191 97.1185 49.4797 97.0187 49.4188C96.9188 49.358 96.8327 49.2769 96.766 49.1808C96.6993 49.0848 96.6534 48.9758 96.6312 48.861C96.5436 48.8995 96.4491 48.9199 96.3534 48.921C96.1843 48.9196 96.0204 48.8624 95.8871 48.7584C95.7538 48.6544 95.6585 48.5093 95.616 48.3456C95.4558 47.7132 95.8476 47.4684 96.1074 46.4856C96.4614 45.1458 96.1074 44.73 96.4506 44.3256C95.5629 44.0872 94.6475 43.9676 93.7284 43.9698C91.2384 45.8838 89.337 44.4498 88.8204 43.9698C88.6476 43.8102 88.4988 43.9182 88.4388 43.9182C88.5925 44.8607 88.4921 45.8271 88.1478 46.7178C89.1033 47.3116 89.8301 48.2108 90.2104 49.2695C90.5907 50.3282 90.6022 51.4843 90.243 52.5504C90.9466 52.9601 91.4877 53.5995 91.7754 54.3612C92.1341 55.4027 92.1611 56.5298 91.8528 57.5874C93.7098 58.3602 94.6728 61.341 92.7066 64.5648C92.8422 64.9914 92.9718 65.418 93.0942 65.8512C94.6363 65.8509 96.1774 65.931 97.7112 66.0912C98.5002 66.1614 98.196 66.2592 98.985 66.324C99.153 65.9358 99.315 65.0952 99.483 64.7142C99.9936 65.6838 101.966 66.612 103.066 66.5958C103.621 66.561 104.162 66.4094 104.655 66.1509C105.147 65.8924 105.579 65.5329 105.923 65.0958C107.536 63.1866 110.053 55.9266 109.43 47.94ZM100.067 62.1852C100.002 62.6548 99.9139 63.1208 99.8016 63.5814C99.795 63.6041 99.7819 63.6243 99.7639 63.6395C99.7459 63.6548 99.7238 63.6644 99.7004 63.6671C99.6769 63.6699 99.6532 63.6657 99.6321 63.655C99.6111 63.6443 99.5936 63.6277 99.582 63.6072C98.8836 62.328 100.296 60.159 100.888 58.344C101.621 56.0964 100.85 55.5576 100.397 51.7032C100.378 51.5412 100.622 51.5292 100.661 51.6642C101.006 52.8252 101.27 53.997 101.515 55.182C102.199 58.4898 100.643 59.6646 100.067 62.1846V62.1852ZM104.36 51.1146C103.781 53.4018 103.074 55.35 102.776 58.4862C102.581 60.5334 102.616 60.543 102.491 60.7944C102.48 60.8129 102.465 60.8283 102.446 60.839C102.428 60.8497 102.406 60.8553 102.385 60.8553C102.363 60.8553 102.342 60.8497 102.324 60.839C102.305 60.8283 102.289 60.8129 102.278 60.7944C101.959 60.081 102.507 54.222 104.095 51.0048C104.172 50.8488 104.4 50.9592 104.36 51.114V51.1146Z" fill="#644DF6"/>
<path d="M101.515 46.4454C101.706 45.9385 101.733 45.3845 101.593 44.8614C101.543 44.7676 101.47 44.6885 101.38 44.6317C101.291 44.575 101.188 44.5427 101.082 44.538C101.09 44.4256 101.071 44.3129 101.026 44.2093C100.982 44.1056 100.914 44.0138 100.828 43.9413C100.742 43.8689 100.64 43.8178 100.53 43.7923C100.42 43.7668 100.306 43.7676 100.196 43.7946C100.189 43.6422 100.143 43.4942 100.062 43.3645C99.9816 43.2348 99.8695 43.1278 99.7362 43.0534C99.603 42.979 99.453 42.9397 99.3004 42.9392C99.1478 42.9387 98.9975 42.9771 98.8638 43.0506C98.5878 42.1572 97.6224 42.3372 97.1508 43.167C97.137 43.1916 97.1315 43.22 97.1351 43.2479C97.1388 43.2759 97.1513 43.3019 97.1709 43.3221C97.1906 43.3424 97.2162 43.3557 97.244 43.3602C97.2719 43.3647 97.3004 43.3601 97.3254 43.347C97.7352 43.1418 98.3778 42.3174 98.5086 43.5798C98.532 43.8066 98.8968 43.9098 98.9418 43.6446C99.0192 43.1856 99.8772 43.2144 99.7758 44.2134C99.7494 44.472 100.121 44.4858 100.202 44.2782C100.276 44.0916 100.532 44.2458 100.591 44.343C100.66 44.4996 100.674 44.6754 100.63 44.841C100.586 45.0666 100.909 45.255 101.03 45.0156C101.102 44.8734 101.21 45.1056 101.224 45.1446C101.228 46.2804 100.86 47.3863 100.177 48.2934C99.8926 48.5768 99.6502 48.899 99.4566 49.2504C99.4501 49.2728 99.4498 49.2966 99.4556 49.3191C99.4614 49.3417 99.4732 49.3624 99.4896 49.3789C99.5061 49.3954 99.5267 49.4072 99.5492 49.4131C99.5718 49.419 99.5956 49.4188 99.618 49.4124C100.129 49.2762 100.532 48.5928 100.795 48.1644C101.123 47.6321 101.366 47.0522 101.515 46.4454Z" fill="#191919"/>
<path d="M97.1826 44.7642C97.1743 44.7345 97.1555 44.7088 97.1298 44.6918C97.1041 44.6748 97.0732 44.6676 97.0426 44.6716C97.012 44.6755 96.9839 44.6903 96.9633 44.7132C96.9428 44.7362 96.9312 44.7658 96.9306 44.7966C96.954 45.4191 96.8887 46.0417 96.7368 46.6458C96.4716 47.6658 96.1662 47.826 96.252 48.1782C96.2553 48.1927 96.2614 48.2064 96.27 48.2186C96.2786 48.2307 96.2895 48.241 96.3021 48.2489C96.3147 48.2567 96.3288 48.262 96.3435 48.2644C96.3581 48.2668 96.3731 48.2663 96.3876 48.2628C96.6456 48.1776 96.7314 47.9334 96.8334 47.6934C97.2266 46.7702 97.3478 45.7539 97.1826 44.7642Z" fill="#191919"/>
<path d="M98.3142 45.5598C98.1508 46.5825 97.8146 47.57 97.32 48.48C97.26 48.6156 97.2288 48.8106 97.404 48.8682C97.644 48.9468 97.7766 48.6018 97.8498 48.4542C98.3139 47.5699 98.5622 46.5884 98.5746 45.5898C98.5734 45.456 98.34 45.411 98.3142 45.5598Z" fill="#191919"/>
<path d="M99.5688 46.413C99.0024 48.2616 98.3442 48.7584 98.3016 49.2258C98.2896 49.3554 98.4312 49.4022 98.5344 49.362C98.9766 49.188 99.2598 48.438 99.4398 48.03C99.6592 47.5288 99.7987 46.9964 99.8532 46.452C99.87 46.2906 99.6144 46.2648 99.5688 46.413Z" fill="#191919"/>
<path d="M36.4068 67.9008C36.4043 67.8617 36.3929 67.8238 36.3734 67.7898C36.3539 67.7559 36.3269 67.7268 36.2945 67.7049C36.262 67.683 36.225 67.6689 36.1862 67.6635C36.1475 67.6581 36.108 67.6617 36.0708 67.674C35.8308 67.7514 35.715 67.9974 35.5272 68.154C34.965 68.634 33.9858 68.9076 33.3162 69.3888C32.5758 69.9222 32.2896 70.6452 31.7316 71.2578C31.6115 71.3753 31.4827 71.4836 31.3464 71.5818C30.7146 71.1402 29.9898 71.3742 29.2746 71.6586C28.8479 71.8156 28.4419 72.0239 28.0656 72.279C28.0102 72.2186 27.9338 72.1817 27.852 72.1758C25.0557 72.0991 22.2578 72.2461 19.485 72.6156C16.584 73.0248 14.4066 73.4844 11.997 74.8464C11.4223 75.1249 10.8891 75.4817 10.4124 75.9066C10.3848 75.9364 10.3673 75.9742 10.3626 76.0146C10.3579 76.055 10.3662 76.0958 10.3862 76.1312C10.4063 76.1665 10.4371 76.1946 10.4742 76.2113C10.5112 76.228 10.5526 76.2324 10.5924 76.224C10.8574 76.1345 11.1165 76.0285 11.3682 75.9066C12.741 75.1866 14.9766 73.3476 23.1882 72.8874C24.675 72.8028 26.1558 72.7902 27.6432 72.7674C28.1028 73.9734 29.2692 77.1366 29.3892 77.3196C27.7494 78.1596 23.4318 81.8502 18.7848 83.2812C13.5216 84.9042 9.89401 83.7012 7.37161 81.1812C4.41001 78.213 3.56281 73.932 3.65161 69.8778C3.65424 65.7695 4.80806 61.7441 6.98221 58.2582C10.0422 53.6244 13.3548 51.1956 16.8042 49.8654C16.8464 49.8513 16.8816 49.8216 16.9027 49.7824C16.9237 49.7432 16.929 49.6974 16.9175 49.6544C16.9059 49.6115 16.8784 49.5745 16.8405 49.5512C16.8026 49.5278 16.7572 49.5198 16.7136 49.5288C11.5536 50.6856 6.20641 57.0288 4.37581 62.196C3.68377 64.2152 3.2515 66.3143 3.08941 68.4426C2.73361 72.6582 3.33481 77.2026 6.02461 80.6226C7.19247 82.133 8.7466 83.2999 10.5228 84C12.5007 84.6689 14.6194 84.8071 16.6674 84.4008C16.0699 85.4368 15.5795 86.5311 15.204 87.6666C13.9454 91.3072 12.9547 95.0349 12.24 98.82C11.52 102.378 11.46 102.54 11.5158 103.08C11.5344 103.26 11.796 103.38 11.8974 103.184C12.4044 102.208 13.1574 95.4168 15.5376 88.4988C16.0043 87.0723 16.5526 85.6738 17.1798 84.3102C21.3918 83.5356 25.0956 81.0318 28.5156 78.573C28.9168 78.284 29.2932 77.9619 29.6406 77.61C29.6756 77.5781 29.6966 77.5337 29.6991 77.4864C29.7015 77.4391 29.6853 77.3928 29.6538 77.3574C29.678 77.3457 29.6987 77.328 29.7138 77.3058C29.841 77.2872 31.3026 76.8708 31.3626 76.8534C31.7997 76.7691 32.2107 76.583 32.5626 76.3104C33.3324 75.6054 32.8152 74.3058 32.5026 73.4976C32.3187 72.9329 32.0489 72.3998 31.7028 71.9172C32.4228 71.5116 32.9118 70.3542 33.7122 69.831C34.5126 69.3078 36.48 68.76 36.4068 67.9008ZM32.04 73.7592C32.2986 74.4444 32.82 75.6534 31.9686 76.0992C31.359 76.4208 30.1872 76.557 29.6286 76.8036C29.1756 75.4074 28.6776 74.0298 28.206 72.6396C28.9368 72.336 29.7126 71.8506 30.5076 71.838C30.716 71.8451 30.9179 71.9124 31.0889 72.0318C31.2599 72.1511 31.3927 72.3174 31.4712 72.5106C31.6971 72.9093 31.8875 73.3271 32.04 73.7592Z" fill="#191919"/>
<path d="M34.8936 70.44C35.592 70.1832 36.5574 69.48 37.8684 69.2826C39.3414 69.0606 40.3038 69.747 40.914 69.2694C40.9478 69.2461 40.9742 69.2135 40.9899 69.1755C41.0056 69.1375 41.0099 69.0958 41.0023 69.0554C40.9948 69.015 40.9757 68.9777 40.9473 68.9479C40.919 68.9182 40.8826 68.8973 40.8426 68.8878C40.5558 68.844 40.2663 68.8203 39.9762 68.817C39.19 68.6235 38.3711 68.603 37.5762 68.757C36.5144 68.9661 35.5302 69.4625 34.731 70.1922C34.7076 70.2171 34.6932 70.2493 34.6902 70.2834C34.6872 70.3175 34.6958 70.3516 34.7146 70.3802C34.7334 70.4088 34.7613 70.4303 34.7937 70.4411C34.8262 70.452 34.8614 70.4516 34.8936 70.44Z" fill="#191919"/>
<path d="M36.129 71.0106C37.4245 70.7322 38.7614 70.706 40.0668 70.9332C40.3836 70.9794 40.827 71.1432 41.1078 70.92C41.1349 70.901 41.154 70.8726 41.1612 70.8403C41.1684 70.808 41.1633 70.7741 41.1468 70.7454C40.9668 70.3938 40.4034 70.4136 40.0602 70.3704C38.7134 70.1206 37.3237 70.2483 36.045 70.7394C36.011 70.7521 35.9832 70.7774 35.9673 70.8099C35.9513 70.8425 35.9484 70.88 35.9591 70.9146C35.9699 70.9492 35.9934 70.9785 36.025 70.9963C36.0566 71.0142 36.0938 71.0193 36.129 71.0106Z" fill="#191919"/>
<path d="M36.3942 72.0906C37.5492 72.216 38.5716 71.925 39.8598 72.5754C40.131 72.7122 40.4286 73.0062 40.7454 72.9828C40.7933 72.979 40.8377 72.9565 40.8692 72.9203C40.9007 72.8841 40.9168 72.8369 40.914 72.789C40.8846 72.2034 39.681 71.787 39.1032 71.664C38.2007 71.4582 37.2601 71.4915 36.3744 71.7606C36.24 71.82 36.2256 72.0726 36.3942 72.0906Z" fill="#191919"/>
<path d="M40.17 74.0178C39.7451 73.6853 39.2458 73.461 38.715 73.3644C38.2203 73.1981 37.696 73.1385 37.1766 73.1898C36.7044 73.2936 36.3234 73.7466 35.9022 73.9698C34.362 74.7954 33.2724 74.3658 32.9862 74.6616C32.4684 75.1974 34.5462 75.5388 36.4518 74.3772C36.705 74.223 36.9246 74.0094 37.1766 73.8666C37.4795 73.7619 37.808 73.7573 38.1138 73.8534C39.1422 74.0124 39.5466 74.2884 40.0086 74.3448C40.0489 74.3513 40.0901 74.3447 40.1264 74.326C40.1626 74.3073 40.1919 74.2774 40.21 74.2409C40.228 74.2043 40.2339 74.1629 40.2267 74.1228C40.2195 74.0826 40.1996 74.0458 40.17 74.0178Z" fill="#191919"/>
</svg>
