<svg width="120" height="120" viewBox="0 0 120 120" fill="none" xmlns="http://www.w3.org/2000/svg">
<path d="M43.7274 41.526C43.7589 41.0668 43.6769 40.6068 43.4885 40.1868C43.3002 39.7667 43.0113 39.3996 42.6474 39.1176C42.5208 39.0858 40.3026 41.2884 37.0674 39.0858C36.8327 39.1892 36.6214 39.3392 36.4463 39.5265C36.2711 39.7139 36.1358 39.9348 36.0484 40.176C35.9611 40.4171 35.9235 40.6734 35.9379 40.9295C35.9524 41.1856 36.0186 41.4361 36.1326 41.6658C39.2226 44.391 41.3298 43.0284 42.6126 42.4896C42.819 42.4104 42.9774 42.7116 42.819 42.8544C40.9176 44.502 37.2252 43.884 35.8308 41.7606C31.764 42.48 23.3664 50.4948 21.8928 52.4118C21.9071 53.565 21.7685 54.715 21.4806 55.8318C21.4332 56.0064 21.132 55.9746 21.1482 55.7844C21.7344 50.619 20.3238 45.3744 19.9278 45.2952C19.5162 45.216 18.9294 46.1664 16.1568 45.1842C15.5232 44.9622 13.4316 53.487 16.014 59.3178C16.1974 59.7981 16.517 60.2144 16.9336 60.5156C17.3503 60.8169 17.8458 60.9899 18.3594 61.0134C20.0394 61.1718 27.0264 58.272 28.7394 57.2262C28.518 58.383 29.1672 63.9924 29.3394 65.4024C29.7036 68.1912 30.813 73.848 31.0032 73.959C36.1842 77.1756 42.8712 75.0678 42.8712 75.0678C42.8712 75.0678 44.1546 71.7246 49.4628 66.2898C50.1756 65.5608 50.0628 56.0538 49.8432 54.4698C50.8728 55.3254 51.8712 56.2602 52.9488 57.0846C52.8216 55.7532 55.1826 51.2532 55.1826 50.6646C55.1676 48.5616 43.7118 41.6052 43.7274 41.526ZM42.54 40.7658C42.0576 41.213 41.4744 41.5371 40.8399 41.7108C40.2055 41.8845 39.5385 41.9027 38.8956 41.7636C38.6898 41.7324 38.7846 41.415 38.9748 41.4468C40.1702 41.5702 41.3685 41.2426 42.3348 40.5282C42.4914 40.4328 42.6492 40.6542 42.54 40.7658Z" fill="#644DF6"/>
<path d="M60.2538 81.8682C60.0021 81.7962 59.7362 81.7897 59.4813 81.8493C59.2264 81.909 58.9909 82.0327 58.7972 82.2089C58.6036 82.3851 58.4582 82.6078 58.3747 82.8559C58.2913 83.1041 58.2727 83.3694 58.3206 83.6268C58.376 83.861 58.4885 84.0778 58.648 84.2579C58.8076 84.438 59.0093 84.5758 59.2351 84.659C59.4608 84.7422 59.7037 84.7682 59.942 84.7346C60.1803 84.7011 60.4065 84.6091 60.6006 84.4668C61.7748 83.6904 60.8082 82.0596 60.2538 81.8682Z" fill="#644DF6"/>
<path d="M73.0728 74.8962C64.041 74.904 55.0248 74.8644 45.993 74.9118C45.9409 74.9124 45.8897 74.9247 45.8431 74.9479C45.7964 74.9711 45.7556 75.0044 45.7237 75.0456C45.6917 75.0867 45.6695 75.1345 45.6585 75.1854C45.6476 75.2363 45.6483 75.289 45.6606 75.3396C46.548 80.664 47.3718 85.9878 48.4176 91.2798C48.465 91.4862 48.8298 91.4382 48.798 91.2324C48.1164 86.0034 47.2134 80.7924 46.3896 75.5934C55.1496 75.6408 63.8982 75.609 72.6606 75.6252C71.8524 80.7432 70.9806 85.8768 70.4406 91.0266C66.9864 90.9948 51.252 90.8046 49.6518 91.1058C49.4934 91.1376 49.5408 91.359 49.683 91.3752C51.3468 91.5492 67.113 91.7394 70.5198 91.4544C70.5567 91.4847 70.6005 91.5054 70.6473 91.5145C70.6942 91.5237 70.7425 91.5211 70.7881 91.5069C70.8337 91.4928 70.875 91.4675 70.9084 91.4334C70.9418 91.3993 70.9662 91.3575 70.9794 91.3116C72.0726 86.0514 72.627 80.664 73.4508 75.3558C73.4611 75.3 73.4591 75.2427 73.445 75.1878C73.4308 75.1329 73.4048 75.0818 73.3688 75.038C73.3328 74.9942 73.2876 74.9588 73.2365 74.9343C73.1854 74.9098 73.1295 74.8968 73.0728 74.8962Z" fill="#191919"/>
<path d="M71.5356 92.1672C71.5216 92.1192 71.4924 92.0772 71.4524 92.0472C71.4124 92.0173 71.3638 92.0011 71.3139 92.0011C71.264 92.0011 71.2154 92.0173 71.1754 92.0472C71.1354 92.0772 71.1062 92.1192 71.0922 92.1672C71.0433 92.3697 71.0167 92.5769 71.013 92.7852C69.333 92.9118 52.9494 92.7252 49.2258 92.7534C49.1975 92.48 49.1444 92.2097 49.0674 91.9458C49.0577 91.9135 49.0379 91.8852 49.0109 91.8651C48.9839 91.845 48.9511 91.8342 48.9174 91.8342C48.8837 91.8342 48.8509 91.845 48.8239 91.8651C48.7969 91.8852 48.7771 91.9135 48.7674 91.9458C48.7145 92.3076 48.6932 92.6734 48.7038 93.039C48.7061 93.114 48.7369 93.1852 48.79 93.2382C48.8431 93.2912 48.9144 93.3219 48.9894 93.324C52.776 93.5778 69.4926 93.546 71.3148 93.3714C71.3935 93.3686 71.4681 93.336 71.5238 93.2804C71.5795 93.2247 71.612 93.15 71.6148 93.0714C71.621 92.768 71.5944 92.4649 71.5356 92.1672Z" fill="#191919"/>
<path d="M43.3314 91.44C42.1944 92.4426 38.34 97.065 37.437 98.2056C35.7096 97.6194 28.6584 95.9394 26.9472 95.5278C30.0846 93.0402 32.6358 90.7584 35.6472 88.5558C35.7035 88.5125 35.7426 88.4506 35.7576 88.3812C38.0817 89.0714 40.4408 89.6374 42.825 90.0768C43.0308 90.093 43.0308 89.8236 42.8724 89.76C40.502 89.0149 38.0894 88.4118 35.6472 87.954C35.6012 87.9459 35.5539 87.9542 35.5134 87.9773C35.4729 88.0004 35.4417 88.0369 35.4252 88.0806C35.6946 87.8586 31.8756 90.9324 26.5836 95.4804C26.5519 95.4913 26.524 95.511 26.5032 95.5373C26.4824 95.5636 26.4695 95.5952 26.4662 95.6286C26.4628 95.6619 26.4691 95.6956 26.4843 95.7254C26.4995 95.7553 26.5229 95.7802 26.5518 95.7972C28.5372 96.6882 37.2732 98.9808 37.5642 98.6172C38.6736 97.4916 42.8088 92.8812 43.6326 91.6452C43.7274 91.47 43.4742 91.3122 43.3314 91.44Z" fill="#191919"/>
<path d="M30.5124 94.5918C31.6908 94.8318 36.2958 96.414 37.4526 96.6834C37.4971 96.6947 37.5441 96.6896 37.5851 96.669C37.626 96.6484 37.6582 96.6136 37.6756 96.5712C37.693 96.5287 37.6944 96.4815 37.6797 96.438C37.665 96.3946 37.635 96.3579 37.5954 96.3348C35.4564 95.2416 32.9052 94.8294 30.5754 94.3224C30.42 94.2906 30.339 94.5558 30.5124 94.5918Z" fill="#191919"/>
<path d="M31.923 92.928C33.2292 93.6234 34.6535 94.0694 36.123 94.2432C36.345 94.2588 36.3762 93.9432 36.1704 93.8784C34.7715 93.5442 33.391 93.1371 32.0346 92.6586C31.875 92.6112 31.764 92.8644 31.923 92.928Z" fill="#191919"/>
<path d="M34.44 90.9792C36.1041 91.6765 37.8142 92.2589 39.558 92.7222C39.7482 92.7696 39.891 92.4822 39.7008 92.3892C38.0093 91.7246 36.2789 91.1636 34.5192 90.7092C34.4843 90.7014 34.4477 90.7072 34.4169 90.7254C34.3861 90.7436 34.3634 90.7728 34.3533 90.8071C34.3432 90.8415 34.3466 90.8783 34.3627 90.9103C34.3788 90.9422 34.4064 90.9669 34.44 90.9792Z" fill="#191919"/>
<path d="M57.72 59.6688C58.1472 60.3504 59.16 61.0488 59.97 60.5562C60.009 60.5299 60.0388 60.4921 60.0553 60.448C60.0718 60.404 60.074 60.3558 60.0618 60.3104C60.0496 60.265 60.0234 60.2245 59.9871 60.1947C59.9507 60.1649 59.9059 60.1471 59.859 60.144C59.5104 60.1284 58.5438 60.384 57.9102 59.5104C57.8298 59.3838 57.639 59.5422 57.72 59.6688Z" fill="#191919"/>
<path d="M59.5884 58.7658C59.7191 58.8349 59.8647 58.8712 60.0126 58.8714C60.1605 58.8717 60.3062 58.836 60.4372 58.7674C60.5682 58.6987 60.6806 58.5993 60.7645 58.4775C60.8485 58.3558 60.9016 58.2154 60.9192 58.0686C60.9202 56.8678 60.7275 55.6747 60.3486 54.5352C60.2538 54.345 60 54.456 59.9844 54.63C59.9208 55.23 60.7764 58.7184 59.6844 58.53C59.6553 58.5255 59.6255 58.5309 59.5999 58.5454C59.5742 58.5599 59.5542 58.5826 59.5431 58.6099C59.532 58.6372 59.5304 58.6675 59.5386 58.6958C59.5469 58.724 59.5644 58.7487 59.5884 58.7658Z" fill="#191919"/>
<path d="M61.965 55.0104C61.9481 55.2976 61.997 55.5849 62.1078 55.8504C62.1256 55.8821 62.1526 55.9076 62.1852 55.9237C62.2178 55.9398 62.2545 55.9456 62.2905 55.9404C62.3264 55.9352 62.36 55.9192 62.3867 55.8946C62.4134 55.87 62.4321 55.8378 62.4402 55.8024C62.4834 55.5163 62.4629 55.2241 62.3802 54.9468C62.361 54.7092 61.9494 54.7566 61.965 55.0104Z" fill="#191919"/>
<path d="M58.0038 55.8978C58.0203 55.9232 58.042 55.9449 58.0674 55.9613C58.0929 55.9777 58.1215 55.9885 58.1515 55.993C58.1815 55.9975 58.212 55.9955 58.2412 55.9873C58.2704 55.979 58.2974 55.9647 58.3206 55.9452C58.479 55.755 58.4316 55.4226 58.4316 55.185C58.4316 54.963 58.083 54.852 58.0038 55.185C57.9716 55.4215 57.9716 55.6613 58.0038 55.8978Z" fill="#191919"/>
<path d="M57.3702 54.6462C57.6638 54.2892 58.0462 54.0158 58.479 53.8536C58.5068 53.8357 58.5282 53.8094 58.54 53.7785C58.5518 53.7476 58.5534 53.7138 58.5445 53.6819C58.5357 53.65 58.5168 53.6218 58.4908 53.6015C58.4647 53.5811 58.4329 53.5696 58.3998 53.5686C58.111 53.5681 57.8283 53.6517 57.5863 53.8093C57.3443 53.9669 57.1535 54.1917 57.0372 54.456C57.0231 54.4779 57.0137 54.5025 57.0094 54.5282C57.0051 54.5539 57.0061 54.5802 57.0123 54.6055C57.0185 54.6308 57.0298 54.6545 57.0455 54.6753C57.0612 54.6961 57.081 54.7135 57.1036 54.7264C57.1262 54.7393 57.1512 54.7475 57.1771 54.7505C57.203 54.7534 57.2292 54.7511 57.2541 54.7436C57.279 54.736 57.3022 54.7236 57.3222 54.7068C57.3421 54.6901 57.3585 54.6695 57.3702 54.6462Z" fill="#191919"/>
<path d="M61.6644 53.616C62.1708 53.7906 62.694 54.678 62.8842 54.8994C62.9098 54.9237 62.9426 54.939 62.9776 54.943C63.0127 54.947 63.0481 54.9395 63.0785 54.9216C63.1089 54.9037 63.1327 54.8764 63.1463 54.8438C63.1598 54.8113 63.1624 54.7752 63.1536 54.741C63.0505 54.4218 62.8776 54.1297 62.6473 53.8858C62.4171 53.6419 62.1355 53.4523 61.8228 53.331C61.6482 53.22 61.4742 53.505 61.6644 53.616Z" fill="#191919"/>
<path d="M57.1956 65.8488C58.812 69.8892 62.4084 67.4016 62.7414 66.1968C62.8206 65.928 62.472 65.8326 62.3292 66.0228C61.7118 66.8154 59.652 69.0174 57.5124 65.7696C57.3858 65.595 57.1326 65.64 57.1956 65.8488Z" fill="#191919"/>
<path d="M91.4214 91.5654C91.2828 90.6612 90.3912 89.553 89.4882 89.9334C89.4726 89.6166 89.4726 89.2992 89.4564 88.9824C89.8368 88.0824 87.84 86.4948 82.992 87.7464C82.752 87.81 82.8648 88.206 83.1024 88.1268C85.7646 87.192 89.5992 88.0632 88.5216 89.0616C87.9216 89.6166 84.18 90.3294 82.5162 88.5216C82.4526 88.3158 82.2468 88.3314 82.1994 88.4742C82.1994 88.4742 81.8994 93.909 82.1838 94.9074C82.1838 96.4158 87.0996 97.9536 89.4246 95.4618C89.5674 95.3034 89.3142 95.0658 89.1396 95.1768C88.1412 95.7768 85.1148 97.221 82.5954 94.9074C82.8354 93.8934 82.6272 90.0906 82.5798 89.2824C83.895 90.5496 88.1568 90.249 89.0286 89.5362C88.9686 90.2328 88.8384 93.624 89.1714 94.4796C89.2506 94.6698 89.5674 94.7334 89.6148 94.4796C89.6463 94.323 89.6622 94.1636 89.6622 94.0038C89.9393 93.9625 90.2054 93.8662 90.4447 93.7205C90.6841 93.5748 90.8918 93.3826 91.0558 93.1554C91.2197 92.9282 91.3365 92.6704 91.3993 92.3974C91.4621 92.1243 91.4696 91.8414 91.4214 91.5654ZM90.8214 91.9932C90.8032 92.3127 90.6824 92.6178 90.4771 92.8633C90.2717 93.1088 89.9927 93.2815 89.6814 93.3558C89.6496 92.8158 89.523 90.8046 89.5068 90.3294C90.3438 90.0918 90.867 91.3116 90.819 91.9932H90.8214Z" fill="#191919"/>
<path d="M69.9036 54.6462C69.0685 55.6621 68.502 56.8715 68.256 58.1634C68.208 58.4034 68.556 58.4964 68.6046 58.2588C68.8064 57.5003 69.1044 56.7708 69.4914 56.088C69.2988 58.522 69.3519 60.9691 69.6498 63.3924C69.666 63.6144 70.0146 63.6324 70.0146 63.3924C70.062 60.6828 69.7146 58.0212 69.9984 55.3272C70.0017 55.3075 70.0006 55.2873 69.9951 55.2681C69.9896 55.2489 69.9799 55.2312 69.9666 55.2162C70.0302 55.0896 70.0938 54.9762 70.1574 54.852C70.2678 54.6936 70.0278 54.5016 69.9036 54.6462Z" fill="#191919"/>
<path d="M81.2484 32.3838C81.2352 32.5104 81.138 33.033 81.2328 33.144C81.2503 33.1729 81.274 33.1974 81.3022 33.2159C81.3304 33.2344 81.3624 33.2464 81.3958 33.2509C81.4292 33.2555 81.4632 33.2525 81.4953 33.2422C81.5274 33.2319 81.5568 33.2145 81.5814 33.1914C81.6924 33.081 81.6924 32.5578 81.6924 32.4312C81.6768 32.1144 81.2676 32.2098 81.2484 32.3838Z" fill="#191919"/>
<path d="M77.652 32.5422C77.6046 32.8196 77.5939 33.102 77.6202 33.3822C77.652 33.5568 77.9052 33.5406 77.9526 33.3822C78.0007 33.105 78.0168 32.8231 78.0006 32.5422C77.998 32.4977 77.9785 32.456 77.9461 32.4254C77.9137 32.3949 77.8708 32.3778 77.8263 32.3778C77.7818 32.3778 77.7389 32.3949 77.7065 32.4254C77.6741 32.456 77.6546 32.4977 77.652 32.5422Z" fill="#191919"/>
<path d="M77.3508 32.16C77.6601 31.9041 78.0432 31.7542 78.444 31.7322C78.6186 31.7004 78.5706 31.4784 78.444 31.4322C78.1921 31.3696 77.9266 31.3896 77.687 31.4895C77.4473 31.5893 77.2462 31.7636 77.1132 31.9866C77.0022 32.1144 77.2416 32.274 77.3508 32.16Z" fill="#191919"/>
<path d="M81.027 30.894C81.3544 31.2583 81.7037 31.6023 82.0728 31.9242C82.0992 31.9384 82.1292 31.9447 82.159 31.9421C82.1889 31.9395 82.2173 31.9282 82.2409 31.9096C82.2644 31.8911 82.282 31.866 82.2915 31.8376C82.3009 31.8092 82.3019 31.7786 82.2942 31.7496C82.0857 31.26 81.6931 30.8721 81.201 30.6696C81.06 30.609 80.8986 30.7848 81.027 30.894Z" fill="#191919"/>
<path d="M103.21 35.8692C103.196 35.7108 102.925 35.6478 102.91 35.8218C102.788 36.6568 102.714 37.4982 102.688 38.3418C102.522 38.1528 102.33 37.9877 102.118 37.851C102.471 36.4743 102.541 35.0405 102.324 33.636C102.277 33.396 101.912 33.4614 101.896 33.699C101.864 35.0304 101.96 36.3456 101.801 37.692C101.59 37.5956 101.366 37.5317 101.135 37.5024C101.347 35.7631 101.196 33.9989 100.692 32.3208C100.645 32.178 100.392 32.1942 100.407 32.3526C100.581 34.0638 100.771 35.7594 100.787 37.4862C100.562 37.4994 99.9936 37.617 99.9156 37.7718C99.92 36.3125 99.5778 34.873 98.9172 33.5718C98.894 33.5347 98.8584 33.5071 98.8166 33.494C98.7749 33.481 98.7299 33.4833 98.6897 33.5005C98.6495 33.5178 98.6169 33.5489 98.5976 33.5881C98.5784 33.6274 98.5738 33.6723 98.5848 33.7146C99.2378 35.5327 99.5492 37.4557 99.5034 39.387C99.5034 39.6564 99.9 39.6408 99.9156 39.387C99.9312 38.9274 99.9474 38.4678 99.9312 38.007C99.9482 38.0331 99.9718 38.0542 99.9997 38.0681C100.027 38.082 100.059 38.0882 100.09 38.0862C100.559 38.0003 101.043 38.0384 101.493 38.1967C101.943 38.3551 102.344 38.6283 102.656 38.9892C102.641 39.5754 102.498 44.1708 102.498 45.882C102.498 46.0404 102.738 46.0404 102.752 45.882C102.893 44.1726 103.356 37.5156 103.21 35.8692Z" fill="#191919"/>
<path d="M101.72 46.74C101.18 46.6446 99.9936 46.3278 99.7086 45.7098C100.117 44.5765 100.188 43.3494 99.9144 42.1764C99.9405 42.1515 99.9596 42.1203 99.97 42.0858C99.9804 42.0513 99.9817 42.0147 99.9737 41.9796C99.9657 41.9445 99.9488 41.912 99.9245 41.8854C99.9002 41.8588 99.8695 41.8389 99.8352 41.8278C97.7436 41.0196 98.076 38.5164 96.6024 37.1376C96.492 37.0266 96.27 37.1694 96.3624 37.3122C97.3926 38.6748 97.4238 42.018 99.5952 42.2082C99.722 43.2606 99.6684 44.3268 99.4368 45.3612C99.3518 45.2271 99.2563 45.0999 99.1512 44.9808C99.0876 44.9178 99.0084 44.9016 98.8512 45.0918C96.8712 47.5794 97.2192 53.7276 97.425 55.5654C97.4574 55.7718 97.7742 55.7718 97.758 55.5654C97.584 53.8068 97.998 47.9598 99.0576 45.7098C99.3576 46.5972 101.038 47.247 101.688 47.0898C101.895 47.04 101.911 46.755 101.72 46.74Z" fill="#191919"/>
<path d="M105.143 29.1192C104.998 28.9638 104.779 29.1828 104.903 29.3592C107.993 33.5106 106.964 38.0262 106.343 39.7848C106.28 39.975 106.565 40.0848 106.66 39.9276C107.583 38.1971 107.933 36.2187 107.661 34.2766C107.388 32.3345 106.507 30.5289 105.143 29.1192Z" fill="#644DF6"/>
<path d="M108.709 29.7534C108.598 29.61 108.36 29.7534 108.469 29.8956C109.927 31.9398 110.275 34.1742 110.243 36.6156C110.245 36.6596 110.262 36.7016 110.292 36.7341C110.322 36.7666 110.362 36.7875 110.406 36.7932C110.449 36.7988 110.494 36.7889 110.531 36.7651C110.568 36.7412 110.595 36.7051 110.608 36.663C111.101 34.2534 110.173 31.6494 108.709 29.7534Z" fill="#644DF6"/>
<path d="M96.6978 51.2712C96.135 49.0512 92.3406 45.2178 85.3842 43.0788C85.3893 42.811 85.3179 42.5473 85.1784 42.3186C84.9726 41.9538 83.3718 40.5756 82.833 40.5912C82.6272 40.623 82.533 40.9872 82.4532 41.1144C82.3986 40.8424 82.3023 40.5805 82.1676 40.338C82.1429 40.2991 82.1063 40.2692 82.0633 40.2527C82.0202 40.2362 81.9731 40.234 81.9287 40.2464C81.8843 40.2587 81.845 40.2851 81.8168 40.3214C81.7885 40.3578 81.7726 40.4023 81.7716 40.4484C81.8251 40.8696 81.954 41.2777 82.152 41.6532C81.7925 42.2713 81.2722 42.7805 80.6466 43.1268C80.4882 43.206 80.5992 43.4436 80.7732 43.4118C81.9132 43.1424 82.881 41.5896 82.9932 41.1318C83.5871 41.5014 84.1491 41.9201 84.6732 42.3834C85.5288 43.1286 83.469 45.822 82.296 46.947C82.3278 45.567 81.171 44.2218 80.094 43.527C79.6662 43.416 78.1608 45.7608 77.907 47.013C76.1553 46.0146 74.8389 44.3986 74.2152 42.4812C74.7772 41.6617 75.5971 41.0537 76.5444 40.7538C76.5762 42.1008 78.1764 43.4316 79.3968 43.6218C79.587 43.6536 79.7454 43.3686 79.539 43.2894C78.7497 42.9091 78.0398 42.3821 77.4474 41.7366C77.5876 41.4528 77.6787 41.1472 77.7168 40.833C77.7143 40.7932 77.6994 40.7552 77.6743 40.7244C77.6491 40.6935 77.6149 40.6713 77.5764 40.6608C77.538 40.6503 77.4972 40.6522 77.4599 40.6661C77.4226 40.6799 77.3905 40.7052 77.3682 40.7382C77.2739 40.9073 77.2045 41.0892 77.1624 41.2782C77.039 41.0464 76.9278 40.8083 76.8294 40.5648C76.809 40.5201 76.7744 40.4835 76.731 40.4606C76.6876 40.4377 76.6378 40.4298 76.5894 40.4382C75.4806 40.6128 73.7532 41.5782 73.8798 42.609C71.3448 42.849 68.3658 45.669 67.7958 46.7448C67.7763 46.7808 67.7704 46.8225 67.7789 46.8624C67.7875 46.9024 67.8101 46.938 67.8426 46.9628C67.875 46.9876 67.9153 47.0001 67.9561 46.9978C67.997 46.9956 68.0356 46.9788 68.0652 46.9506C69.063 46.1268 70.1562 44.3046 73.9596 42.9576C74.4348 44.8434 76.1298 46.935 77.9364 47.4576C77.9656 47.4651 77.9962 47.4651 78.0254 47.4577C78.0546 47.4504 78.0815 47.4357 78.1036 47.4153C78.1256 47.3948 78.1422 47.3691 78.1518 47.3405C78.1614 47.312 78.1637 47.2815 78.1584 47.2518C78.174 47.2356 78.9186 44.8116 80.0784 43.9242C82.1574 45.4152 81.5298 47.6658 82.2018 47.442C83.739 46.9662 85.2618 44.0034 85.3548 43.4172C93.42 46.428 95.7348 50.421 96.3672 51.435C96.3953 51.4657 96.4326 51.4865 96.4736 51.4941C96.5145 51.5018 96.5568 51.4959 96.5941 51.4775C96.6314 51.459 96.6617 51.4289 96.6804 51.3917C96.6991 51.3544 96.7052 51.3122 96.6978 51.2712Z" fill="#191919"/>
<path d="M16.6956 44.3622C16.134 42.627 14.16 34.8552 13.7958 34.0632C13.701 33.873 13.4316 33.984 13.4154 34.158C13.3836 34.9818 15.6816 42.7464 16.3626 44.4414C16.44 44.6478 16.7616 44.5674 16.6956 44.3622Z" fill="#191919"/>
<path d="M14.5404 32.6844C14.5109 34.0205 14.8276 35.3415 15.4596 36.519C15.4689 36.5408 15.4825 36.5606 15.4995 36.5772C15.5164 36.5938 15.5365 36.6069 15.5586 36.6157C15.5806 36.6245 15.6041 36.6289 15.6279 36.6287C15.6516 36.6284 15.6751 36.6235 15.6969 36.6141C15.7187 36.6048 15.7385 36.5912 15.7551 36.5743C15.7717 36.5573 15.7848 36.5372 15.7936 36.5152C15.8024 36.4931 15.8068 36.4696 15.8066 36.4458C15.8063 36.4221 15.8013 36.3986 15.792 36.3768C15.3786 35.1567 15.0557 33.9077 14.826 32.64C14.8098 32.4786 14.5416 32.526 14.5404 32.6844Z" fill="#191919"/>
<path d="M16.2678 31.6386C16.0713 33.0091 16.2351 34.4072 16.743 35.6952C16.8222 35.8854 17.076 35.7426 17.043 35.5686C16.7794 34.2794 16.6256 32.9701 16.5834 31.6548C16.587 31.6327 16.586 31.6101 16.5803 31.5885C16.5746 31.5669 16.5644 31.5467 16.5503 31.5292C16.5363 31.5118 16.5187 31.4976 16.4988 31.4874C16.4789 31.4772 16.457 31.4714 16.4347 31.4702C16.4123 31.4691 16.39 31.4726 16.3691 31.4807C16.3482 31.4888 16.3293 31.5012 16.3136 31.5171C16.2978 31.533 16.2856 31.552 16.2777 31.573C16.2698 31.5939 16.2664 31.6163 16.2678 31.6386Z" fill="#191919"/>
<path d="M18.5496 31.0524C17.5038 33.2394 18.042 36.7884 18.5016 37.7394C18.5808 37.9134 18.8664 37.8186 18.8502 37.644C18.7872 36.5982 18.1056 33.9522 18.8664 31.1316C18.9294 30.9414 18.6288 30.8466 18.5496 31.0524Z" fill="#191919"/>
<path d="M15.6498 37.6914C16.2982 37.3037 17.0339 37.0857 17.7888 37.0578C17.979 37.026 18.0582 36.741 17.8362 36.6936C17.417 36.6333 16.9897 36.6659 16.5845 36.7891C16.1793 36.9123 15.8061 37.123 15.4914 37.4064C15.3168 37.533 15.4746 37.8174 15.6498 37.6914Z" fill="#191919"/>
<path d="M20.8944 35.46C19.7148 36.8004 20.7042 39.8808 18.5016 40.3404C18.3432 40.3716 18.375 40.6572 18.5496 40.6404C18.7062 40.6206 18.8601 40.5835 19.0086 40.53C19.0335 41.9461 19.2468 43.3527 19.6428 44.7126C19.7058 44.8716 19.9914 44.7924 19.9752 44.6178C19.9122 43.9362 19.4682 41.1 19.4052 40.3398C20.7648 39.4998 20.679 37.1988 21.2274 35.6814C21.2414 35.6383 21.2409 35.5918 21.226 35.549C21.2111 35.5062 21.1826 35.4694 21.1449 35.4443C21.1072 35.4192 21.0623 35.4072 21.017 35.41C20.9718 35.4128 20.9287 35.4304 20.8944 35.46Z" fill="#191919"/>
<path d="M12.132 27.8202C12.2574 27.6606 12.0054 27.4716 11.8626 27.6144C9.5334 29.88 9.264 33.8574 10.3572 36.7566C10.4364 36.9468 10.7376 36.8676 10.674 36.6774C10.1832 35.172 9.7074 30.9168 12.132 27.8202Z" fill="#644DF6"/>
<path d="M8.583 26.3148C6.8232 27.7242 6.4752 30.4818 7.1094 32.5104C7.12255 32.5494 7.14991 32.5821 7.18604 32.6018C7.22216 32.6216 7.2644 32.627 7.30435 32.617C7.34429 32.607 7.37901 32.5823 7.40159 32.5479C7.42417 32.5135 7.43296 32.4718 7.4262 32.4312C7.1862 31.3692 7.2516 28.1844 8.8998 26.5512C9.06 26.3784 8.7414 26.1882 8.583 26.3148Z" fill="#644DF6"/>
<path d="M30.7974 74.6904C30.5574 76.3062 30.9876 82.7712 31.59 84.1656C31.6176 84.2097 31.6588 84.2436 31.7074 84.2623C31.756 84.2809 31.8093 84.2833 31.8593 84.269C31.9093 84.2547 31.9534 84.2246 31.9848 84.1831C32.0162 84.1416 32.0332 84.091 32.0334 84.039C31.8594 82.4862 31.1148 76.2906 31.1304 74.7216C31.1148 74.5476 30.8136 74.5002 30.7974 74.6904Z" fill="#191919"/>
<path d="M38.5302 38.2146C38.7213 38.4217 38.9534 38.5868 39.2118 38.6992C39.4703 38.8115 39.7493 38.8688 40.0311 38.8673C40.3129 38.8658 40.5913 38.8055 40.8485 38.6903C41.1056 38.5751 41.336 38.4076 41.5248 38.1984C41.6676 37.9926 41.3982 37.8024 41.208 37.8816C40.852 38.1607 40.4177 38.3214 39.9658 38.3414C39.5139 38.3613 39.0671 38.2393 38.688 37.9926C38.6586 37.9771 38.6245 37.9728 38.5921 37.9805C38.5597 37.9882 38.5313 38.0074 38.512 38.0345C38.4927 38.0617 38.4839 38.0949 38.4873 38.128C38.4906 38.1611 38.5059 38.1919 38.5302 38.2146Z" fill="#191919"/>
<path d="M39.5916 37.2C40.9992 37.8204 40.5264 34.221 40.1916 33.6504C40.1714 33.617 40.142 33.5903 40.1068 33.5734C40.0717 33.5564 40.0324 33.5501 39.9937 33.5551C39.9551 33.5602 39.9187 33.5763 39.8891 33.6017C39.8594 33.627 39.8378 33.6604 39.8268 33.6978C39.7956 33.9378 40.2072 36.9624 39.7164 36.8832C39.5442 36.852 39.4032 37.1172 39.5916 37.2Z" fill="#191919"/>
<path d="M41.4774 34.4118C41.4464 34.7176 41.4898 35.0264 41.604 35.3118C41.6299 35.3385 41.6616 35.3588 41.6966 35.3711C41.7317 35.3835 41.7691 35.3875 41.806 35.3829C41.8429 35.3783 41.8782 35.3652 41.9092 35.3447C41.9401 35.3241 41.9659 35.2966 41.9844 35.2644C42.0397 34.9584 42.0235 34.6438 41.937 34.3452C41.8734 34.08 41.5056 34.158 41.4774 34.4118Z" fill="#191919"/>
<path d="M37.6272 34.4118C37.5247 34.7353 37.5137 35.0809 37.5954 35.4102C37.6174 35.4424 37.647 35.4687 37.6815 35.4869C37.716 35.5051 37.7544 35.5146 37.7934 35.5146C37.8324 35.5146 37.8708 35.5051 37.9053 35.4869C37.9398 35.4687 37.9694 35.4424 37.9914 35.4102C38.0713 35.1052 38.1033 34.7896 38.0862 34.4748C38.0706 34.2216 37.6638 34.143 37.6272 34.4118Z" fill="#191919"/>
<path d="M37.1358 33.9048C37.4526 33.4608 38.1654 33.4608 38.3718 33.3816C38.514 33.3342 38.5938 33.0966 38.4192 33.0174C38.1293 32.9406 37.8226 32.9558 37.5417 33.0608C37.2607 33.1658 37.0193 33.3555 36.8508 33.6036C36.6918 33.8094 36.9456 34.095 37.1358 33.9048Z" fill="#191919"/>
<path d="M41.2398 33.2076C41.8578 33.2706 42.0954 33.8256 42.2856 33.9048C42.4278 33.9648 42.6342 33.8886 42.618 33.7146C42.5706 33.1284 41.7942 32.859 41.3028 32.8272C41.2567 32.8275 41.2121 32.844 41.177 32.874C41.1419 32.9039 41.1185 32.9453 41.1109 32.9908C41.1034 33.0364 41.1122 33.0831 41.1358 33.1228C41.1593 33.1624 41.1962 33.1925 41.2398 33.2076Z" fill="#191919"/>
<path d="M41.9526 26.0454C41.1768 25.68 37.9596 25.68 37.26 25.98C31.2864 28.4202 32.6172 33.6492 32.6334 33.6966C32.7805 34.2227 33.0776 34.6946 33.4883 35.0548C33.899 35.415 34.4056 35.6479 34.9464 35.7252C35.1485 36.8671 35.6705 37.9282 36.4518 38.7852C39.5424 42.1134 45.0102 40.0608 44.9448 34.6968C45.7212 34.5702 46.1178 33.6036 46.1652 32.8908C46.2607 31.4536 45.9064 30.0224 45.1516 28.7957C44.3967 27.569 43.2786 26.6078 41.9526 26.0454ZM43.458 37.8186C43.1373 38.3686 42.6863 38.8313 42.1448 39.1661C41.6032 39.5009 40.9877 39.6975 40.3524 39.7386C37.0404 40.0554 35.4402 36.6648 35.0286 33.9078C35.0442 33.8442 35.3928 33.084 37.4844 32.6718C38.6568 32.4498 39.7344 30.5484 39.687 29.265C39.729 30.1734 40.971 32.0514 43.0302 32.751C43.4799 32.8887 43.8703 33.1733 44.139 33.5592C44.2842 35.014 44.0496 36.4816 43.458 37.8186Z" fill="#191919"/>
<path d="M41.0496 25.1742C41.6196 25.3014 42.2856 25.5228 42.555 24.7776C42.8718 23.8746 43.395 21.2442 38.9106 21.0702C37.8719 21.0048 36.8341 21.2116 35.8998 21.6702C35.2283 22.0181 34.7104 22.6035 34.4468 23.3123C34.1831 24.0211 34.1927 24.8026 34.4736 25.5048C34.8384 26.424 35.5194 26.2974 36.1848 25.8378C38.1654 24.5088 40.4154 25.032 41.0496 25.1742Z" fill="#191919"/>
<path d="M29.3556 84.18C28.0155 77.8883 25.0552 72.0558 20.7678 67.26C20.7283 67.2224 20.6798 67.1956 20.6269 67.1822C20.574 67.1689 20.5185 67.1694 20.4659 67.1838C20.4133 67.1981 20.3653 67.2259 20.3265 67.2642C20.2877 67.3026 20.2595 67.3503 20.2446 67.4028C18.819 71.142 18.9138 75.7056 20.8944 79.239C21.0372 79.5084 21.4014 79.2708 21.2904 78.999C19.7255 75.5715 19.4995 71.6826 20.6568 68.097C24.6779 72.7605 27.5492 78.3021 29.04 84.2766C29.0862 84.4668 29.4 84.3882 29.3556 84.18Z" fill="#191919"/>
<path d="M19.3416 76.86C17.9154 74.76 13.6692 70.902 5.1444 68.7786C4.8906 68.7186 4.5738 68.9688 4.6848 69.2382C6.43702 73.7669 9.48367 77.6795 13.4448 80.4882C11.9708 80.0949 10.4545 79.8821 8.9292 79.8546C8.86863 79.856 8.80945 79.873 8.75738 79.904C8.7053 79.935 8.6621 79.9788 8.63193 80.0314C8.60177 80.0839 8.58567 80.1434 8.58519 80.2039C8.58472 80.2645 8.59987 80.3242 8.6292 80.3772C9.849 82.5642 11.8932 84.513 14.3652 85.131C14.6052 85.1946 14.7612 84.8454 14.5392 84.7344C12.5373 83.8022 10.8159 82.3597 9.5478 80.5518C11.3226 80.5836 14.8878 81.2802 14.9196 81.249C14.9676 81.254 15.0159 81.2445 15.0584 81.2217C15.1009 81.1988 15.1355 81.1637 15.1577 81.1209C15.1799 81.0781 15.1887 81.0295 15.183 80.9817C15.1772 80.9338 15.1571 80.8887 15.1254 80.8524C14.238 79.9974 8.9778 76.9392 5.6976 69.7296C10.5462 71.235 15.6486 73.2156 19.1184 77.034C19.215 77.178 19.44 77.0028 19.3416 76.86Z" fill="#191919"/>
<path d="M21.7662 73.98C25.0776 79.1616 25.3152 81.9 25.8696 83.5506C25.9332 83.7408 26.2818 83.7246 26.25 83.5032C25.8384 80.049 24.0636 76.5948 22.05 73.8216C21.9084 73.6602 21.639 73.8 21.7662 73.98Z" fill="#191919"/>
<path d="M22.62 82.803C22.6091 81.9738 22.5288 81.1469 22.38 80.331C22.3326 80.1252 22.0314 80.1882 22.0314 80.3784C22.0373 81.1907 22.1063 82.0014 22.2378 82.803C22.2732 83.0244 22.6362 83.04 22.62 82.803Z" fill="#191919"/>
<path d="M18.2166 78.4296C18.2088 77.8896 18.1374 77.3682 18.1056 76.845C18.09 76.734 17.9154 76.7184 17.9154 76.845C17.9154 77.385 17.9154 77.9064 17.9316 78.4296C17.9303 78.4491 17.9331 78.4686 17.9397 78.487C17.9463 78.5054 17.9565 78.5222 17.9699 78.5365C17.9833 78.5507 17.9994 78.5621 18.0173 78.5699C18.0352 78.5776 18.0546 78.5816 18.0741 78.5816C18.0936 78.5816 18.113 78.5776 18.1309 78.5699C18.1488 78.5621 18.1649 78.5507 18.1783 78.5365C18.1916 78.5222 18.2019 78.5054 18.2085 78.487C18.2151 78.4686 18.2179 78.4491 18.2166 78.4296Z" fill="#191919"/>
<path d="M14.7 75.324C14.5751 74.8531 14.4163 74.3919 14.2248 73.944C14.1612 73.8012 13.9554 73.9128 13.9848 74.0394C14.0746 74.5015 14.1963 74.9567 14.349 75.402C14.4294 75.6408 14.7648 75.5448 14.7 75.324Z" fill="#191919"/>
<path d="M19.5954 82.0584C18.9687 81.99 18.3363 81.99 17.7096 82.0584C17.535 82.074 17.4558 82.3434 17.6622 82.3908C18.3005 82.499 18.9489 82.5363 19.5954 82.5018C19.6522 82.4989 19.7057 82.4742 19.7449 82.433C19.784 82.3917 19.8059 82.337 19.8059 82.2801C19.8059 82.2232 19.784 82.1685 19.7449 82.1273C19.7057 82.086 19.6522 82.0614 19.5954 82.0584Z" fill="#191919"/>
<path d="M15.4752 77.64C15.0215 77.6049 14.5673 77.5785 14.1126 77.5608C13.9224 77.5608 13.9386 77.8146 14.1126 77.8464C14.5566 77.9064 15.0126 77.9412 15.4752 77.973C15.6816 77.9856 15.6816 77.6526 15.4752 77.64Z" fill="#191919"/>
<path d="M22.32 83.7852C20.4924 81.3404 18.3688 79.1316 15.9978 77.2092C13.6705 75.2364 11.1674 73.4809 8.52 71.9646C8.3934 71.8854 8.2662 72.0912 8.3934 72.1704C9.49117 72.8611 10.564 73.5905 11.61 74.3574C11.0812 74.4628 10.5467 74.5369 10.0092 74.5794C9.867 74.595 9.8826 74.8326 10.0092 74.8644C10.5511 74.9606 11.1088 74.9116 11.6256 74.7222C11.6519 74.7136 11.6761 74.6994 11.6964 74.6806C11.7167 74.6618 11.7327 74.6387 11.7433 74.6131C11.7538 74.5875 11.7587 74.5599 11.7576 74.5322C11.7564 74.5045 11.7493 74.4774 11.7366 74.4528C17.1024 78.399 18.8832 80.8302 22.0518 83.9754C22.194 84.12 22.431 83.9442 22.32 83.7852Z" fill="#191919"/>
<path d="M97.7274 82.0584C97.6304 80.4171 97.7109 78.7702 97.9674 77.1462C97.9774 77.1085 97.9721 77.0684 97.9527 77.0346C97.9332 77.0008 97.9013 76.976 97.8637 76.9655C97.8261 76.9551 97.786 76.9599 97.7519 76.9789C97.7179 76.9979 97.6927 77.0296 97.6818 77.067C97.2422 78.6929 97.1401 80.3916 97.3818 82.0584C97.4106 82.2642 97.743 82.2798 97.7274 82.0584Z" fill="#191919"/>
<path d="M111.592 70.98C110.087 71.7575 108.655 72.6696 107.314 73.7052C107.722 72.9514 108.24 72.2625 108.851 71.661C108.978 71.5188 108.819 71.2812 108.645 71.3922C107.764 72.0515 107.133 72.9897 106.855 74.0538C105.856 74.799 102.735 77.4738 102.148 78.0312C102.359 76.7361 102.893 75.5152 103.701 74.4816C103.796 74.355 103.654 74.1966 103.527 74.3076C102.967 74.8419 102.52 75.4833 102.212 76.1938C101.904 76.9043 101.743 77.6693 101.737 78.4434C100.16 79.9842 98.7081 81.6478 97.395 83.4186C97.2522 83.6088 97.5852 83.8464 97.7118 83.6718C100.152 80.3286 104.605 76.6518 104.779 76.5096C106.126 76.5096 107.742 76.2882 108.851 75.5118C108.883 75.4916 108.907 75.4606 108.918 75.4243C108.929 75.3879 108.927 75.3489 108.911 75.3141C108.896 75.2794 108.868 75.2514 108.834 75.2353C108.8 75.2191 108.761 75.2159 108.724 75.2262C107.571 75.6228 106.39 75.9353 105.191 76.161C108.043 73.7052 110.641 72.39 111.83 71.4396C112.036 71.2518 111.829 70.8864 111.592 70.98Z" fill="#191919"/>
<path d="M100.595 81.678C102.048 81.7646 103.498 81.4809 104.81 80.8536C104.969 80.7744 104.858 80.5056 104.684 80.5536C103.347 80.9411 101.979 81.2115 100.595 81.3618C100.557 81.3671 100.522 81.386 100.497 81.4151C100.472 81.4441 100.458 81.4814 100.458 81.5199C100.458 81.5585 100.472 81.5957 100.497 81.6248C100.522 81.6538 100.557 81.6727 100.595 81.678Z" fill="#191919"/>
<path d="M65.2134 17.9802C65.1995 17.9387 65.1729 17.9026 65.1374 17.877C65.1018 17.8514 65.0592 17.8377 65.0154 17.8377C64.9716 17.8377 64.929 17.8514 64.8934 17.877C64.8579 17.9026 64.8313 17.9387 64.8174 17.9802C64.6428 18.5982 64.5006 31.3062 64.4208 33.984C63.5022 33.8412 54.3276 34.0632 52.3008 34.224C52.38 32.9406 51.7608 20.784 51.2868 18.2364C53.2992 18.2676 62.6316 18.4266 63.5352 18.2676C63.8202 18.2202 63.7254 17.8242 63.4716 17.7924C62.505 17.6814 53.0316 17.6814 50.9538 17.8398C50.9065 17.841 50.8613 17.8596 50.8269 17.8921C50.7925 17.9246 50.7713 17.9686 50.7674 18.0157C50.7634 18.0629 50.777 18.1098 50.8056 18.1476C50.8341 18.1853 50.8756 18.2112 50.922 18.2202C50.9064 20.8824 51.5082 33.0354 51.651 34.3668C51.6538 34.4262 51.6729 34.4836 51.7061 34.5329C51.7394 34.5821 51.7855 34.6213 51.8396 34.646C51.8936 34.6708 51.9534 34.6803 52.0124 34.6733C52.0714 34.6664 52.1274 34.6434 52.1742 34.6068C54.3312 34.7064 64.2984 34.5246 64.4856 34.3374C64.581 34.4166 64.7706 34.4004 64.7856 34.242C65.2608 31.5756 65.4336 18.5832 65.2134 17.9802Z" fill="#191919"/>
<path d="M31.5108 29.2464C30.5748 29.2224 26.7708 29.4996 25.8384 29.6262C25.7926 29.6285 25.7478 29.6406 25.707 29.6616C25.6662 29.6827 25.6304 29.7122 25.602 29.7482C25.5736 29.7843 25.5532 29.826 25.5422 29.8705C25.5313 29.9151 25.53 29.9615 25.5384 30.0066C26.172 34.6176 26.6184 39.3234 26.79 43.9662C26.7904 43.9945 26.7978 44.0223 26.8114 44.0472C26.825 44.0721 26.8445 44.0932 26.8681 44.1088C26.8918 44.1244 26.9189 44.134 26.9471 44.1368C26.9753 44.1395 27.0038 44.1354 27.03 44.1246C27.7378 44.1487 28.4458 44.0848 29.1378 43.9344C29.3274 43.887 29.2644 43.6344 29.0898 43.6176C28.4381 43.5755 27.7837 43.6128 27.141 43.7286C26.9982 39.1968 26.745 34.6812 26.1744 30.1812C27.0462 30.0858 30.6906 29.9592 31.5744 29.6898C31.6277 29.6755 31.6738 29.6421 31.7042 29.5961C31.7345 29.5501 31.7469 29.4945 31.7391 29.4399C31.7313 29.3853 31.7037 29.3355 31.6617 29.2998C31.6196 29.2642 31.5659 29.2452 31.5108 29.2464Z" fill="#191919"/>
<path d="M72.8664 41.64C71.9056 41.4956 70.9289 41.4903 69.9666 41.6244C69.84 39.2634 69.4914 29.4234 69.4122 28.9644C70.1568 28.9806 70.9176 28.9806 71.6622 28.9326C71.7105 28.9326 71.7568 28.9134 71.791 28.8793C71.8251 28.8451 71.8443 28.7988 71.8443 28.7505C71.8443 28.7022 71.8251 28.6559 71.791 28.6217C71.7568 28.5876 71.7105 28.5684 71.6622 28.5684C70.791 28.4736 69.9036 28.4736 69.0162 28.4256C68.541 28.41 68.7942 28.8534 68.7942 28.8696C68.7942 28.8858 69.3804 39.5808 69.3492 41.9574C69.352 42.0406 69.3863 42.1196 69.4451 42.1785C69.5039 42.2374 69.5828 42.2718 69.666 42.2748C70.7118 42.243 71.7732 42.243 72.8034 42.1158C73.0566 42.0648 73.1514 41.7 72.8664 41.64Z" fill="#191919"/>
<path d="M80.583 26.0136C78.6978 23.0034 74.5302 24.2868 73.1994 27.1068C72.5499 28.6617 72.4221 30.3853 72.8352 32.019C73.104 33.255 73.7856 34.8714 75.1482 35.2512C75.2118 35.8512 75.3066 36.4716 75.402 37.0896C75.9966 41.034 80.382 41.8548 82.437 39.4506C83.5938 38.4204 83.9898 36.852 84.1008 35.2674C84.8616 34.998 85.3686 33.873 85.6218 33.1914C87.4392 28.0764 83.6898 25.1088 80.583 26.0136ZM80.694 36.9786C80.6148 37.4538 79.314 38.04 78.333 37.47C78.1116 37.3428 78.3018 37.0104 78.5394 37.1214C78.8585 37.2423 79.2062 37.2662 79.5389 37.1901C79.8715 37.114 80.1742 36.9412 80.409 36.6936C80.5356 36.5508 80.7258 36.8358 80.694 36.9786ZM83.4828 36.456C83.3508 36.1407 83.15 35.859 82.895 35.6315C82.64 35.4039 82.3374 35.2362 82.0092 35.1408C81.2892 34.9392 80.1288 35.3994 79.569 35.4894C79.236 34.9344 79.5378 34.1898 79.6326 33.54C79.6644 33.3186 79.347 33.2076 79.284 33.4452C79.0369 34.1019 78.9447 34.8068 79.0146 35.505C78.6816 35.4576 78.3648 35.3148 78.0324 35.265C77.7151 35.2166 77.3911 35.2368 77.0822 35.3243C76.7733 35.4117 76.4868 35.5644 76.242 35.772C76.0204 35.9682 75.8653 36.2284 75.798 36.5166C75.4465 35.0641 75.2708 33.5746 75.2748 32.0802C76.2258 31.953 79.902 30.6858 80.3616 29.0202C80.6016 30.3036 83.1024 31.4286 83.8632 31.6344C83.8632 31.7496 83.5302 36.2814 83.4828 36.456Z" fill="#191919"/>
<path d="M114.112 64.98C111.925 65.202 109.881 66.8814 108.201 68.1648C106.997 69.084 103.448 71.7774 102.801 72.0648C99.5052 73.5048 101.105 69.2286 100.361 68.4834C97.2408 65.2986 91.5828 80.6034 90.9804 83.5998C90.9492 83.7264 91.155 83.79 91.1868 83.6634C92.6268 78.5928 97.2552 68.103 99.7746 68.9112C100.393 69.102 99.759 71.2248 100.044 72.0312C101.343 75.8496 109.344 68.0712 111.484 66.7866C115.097 64.6314 116.524 67.008 116.095 68.2914C115.319 70.6368 109.441 74.2968 109.551 76.2774C109.678 78.5574 112.483 77.133 112.577 77.862C112.877 80.3502 107.459 83.883 105.162 85.167C104.845 85.341 105.13 85.8168 105.448 85.6584C107.792 84.501 114.542 80.1594 113.037 77.244C112.705 76.5786 110.549 77.7198 110.296 76.1982C110.09 74.9628 115.747 71.1912 116.716 68.8302C117.686 66.4056 116.04 64.7772 114.112 64.98Z" fill="#191919"/>
<path d="M105.428 53.1882C105.296 52.0002 103.828 47.5314 103.099 46.7082C102.941 46.5336 102.576 46.7238 102.687 46.9482C103.147 48.0576 104.779 52.5282 104.874 53.6982C105.032 55.8372 104.921 58.7844 103.543 60.5436C101.99 62.5236 95.256 61.6368 91.152 57.3582C90.9752 55.7132 90.7107 54.0789 90.3594 52.4622C90.3282 52.2882 90.0594 52.3674 90.09 52.5414C91.1258 59.0713 91.0079 65.7323 89.7414 72.2214C88.4424 72.5538 85.0992 73.869 80.5992 73.7742C80.9634 71.8254 82.5636 55.4886 80.472 45.7914C80.4246 45.5856 80.1234 45.5856 80.1396 45.7914C80.9546 55.0923 80.9012 64.449 79.98 73.74C78.6804 73.6452 76.8426 73.455 75.8286 73.2648C74.3886 70.0164 70.425 66.8946 70.3938 66.8634C69.5456 64.8411 68.5443 62.8864 67.3986 61.0164C66.2898 59.226 66.7986 56.8806 66.939 54.789C67.0818 52.5552 67.1136 49.8456 65.64 47.976C65.1 47.2788 64.1508 45.9792 61.14 45.789C60.3202 45.7607 59.517 46.0246 58.8738 46.5336C55.9902 45.5358 53.265 47.1834 52.0446 49.8294C50.4426 53.286 51.81 57.369 50.76 59.352C50.4906 59.8746 48.3516 62.838 47.9874 64.0266C47.7234 64.8918 47.1222 67.0794 47.8128 67.6548C43.0128 71.6796 42.2328 75.9738 41.697 78.414C40.0488 85.9404 44.2638 90.6144 46.815 91.2324C47.1 91.296 47.3376 90.852 47.0364 90.7254C42.4098 88.6656 41.76 83.0562 42.4416 78.6198C43.6614 70.5864 50.8416 66.4032 51.711 65.991C53.3714 65.2109 55.1483 64.7079 56.9712 64.5018C56.9528 64.7017 56.9583 64.9032 56.9874 65.1018C56.9905 65.1428 57.0076 65.1815 57.0358 65.2115C57.064 65.2415 57.1016 65.2609 57.1423 65.2665C57.1831 65.2721 57.2245 65.2636 57.2598 65.2423C57.295 65.2211 57.3219 65.1885 57.336 65.1498C57.5552 64.3777 57.6364 63.573 57.576 62.7726C59.3034 63.9768 61.5846 63.1056 62.1708 62.757C62.1293 63.5596 62.3046 64.3585 62.6784 65.07C62.7732 65.2128 63.0426 65.1654 63.027 64.9752C62.9952 64.7058 62.9472 64.4352 62.8998 64.167C63.3056 64.13 63.7136 64.1248 64.1202 64.1514C66.6151 65.008 68.9145 66.3528 70.8841 68.1074C72.8538 69.8621 74.4543 71.9914 75.5922 74.3712C80.1234 83.9712 74.5776 89.5512 73.3578 90.2166C73.0248 90.4068 73.263 90.8664 73.611 90.8028C75.7344 90.4386 77.7468 85.7166 77.7942 85.4628C80.2344 85.4154 90.2646 85.2888 90.2646 85.2888C90.2646 85.2888 90.1854 74.1336 90.1536 73.056C90.7536 71.5668 91.8966 64.0404 91.2468 57.9084C95.763 62.5194 99.0744 62.1684 100.944 62.2182C105.365 62.3148 105.794 56.4858 105.428 53.1882ZM55.4844 57.7674C55.3336 57.8077 55.1755 57.8129 55.0223 57.7825C54.8692 57.7521 54.7251 57.6869 54.6011 57.592C54.4771 57.4971 54.3765 57.375 54.3072 57.2352C54.2378 57.0953 54.2015 56.9413 54.201 56.7852C54.2358 56.4655 54.3818 56.1681 54.6135 55.945C54.8452 55.722 55.148 55.5874 55.4688 55.5648C55.4582 55.0946 55.5588 54.6285 55.7623 54.2045C55.9658 53.7805 56.2665 53.4105 56.64 53.1246C57.2106 52.6968 57.9234 52.491 58.5252 52.1106C58.8414 51.9441 59.099 51.6847 59.2633 51.3674C59.4276 51.0501 59.4908 50.6901 59.4444 50.3358C59.6772 51.5004 61.2006 51.9498 61.932 52.3644C62.2997 52.6174 62.6305 52.9203 62.9148 53.2644C63.5855 54.0219 63.9863 54.9802 64.0548 55.9896C64.1325 55.9572 64.2175 55.946 64.301 55.9572C64.3845 55.9684 64.4635 56.0015 64.53 56.0532C65.49 56.8194 65.1612 58.1322 64.356 58.2396C64.2139 58.2556 64.0703 58.2556 63.9282 58.2396C63.8328 59.1588 62.5974 62.4546 60.3786 62.6766C59.715 62.7584 59.0414 62.6877 58.4093 62.4697C57.7772 62.2516 57.2033 61.8922 56.7312 61.4187C56.2591 60.9451 55.9014 60.3701 55.6853 59.7373C55.4692 59.1045 55.4005 58.4308 55.4844 57.7674Z" fill="#191919"/>
<path d="M103.685 85.116C103.639 85.0484 103.574 84.9959 103.498 84.9649C103.422 84.934 103.338 84.926 103.258 84.942C101.182 84.7836 82.0566 85.0056 77.8104 85.1478C77.7662 85.1478 77.7239 85.1654 77.6927 85.1966C77.6614 85.2278 77.6439 85.2702 77.6439 85.3143C77.6439 85.3585 77.6614 85.4008 77.6927 85.432C77.7239 85.4633 77.7662 85.4808 77.8104 85.4808C82.0566 85.623 101.102 85.8294 103.13 85.6866C105.206 88.3644 114.586 100.296 115.679 101.437C101.467 101.69 8.202 100.993 4.1298 101.137C6.126 98.4744 16.4094 85.1958 16.4094 85.1646C20.2122 85.3704 38.3868 85.4646 39.3696 85.212C39.6546 85.1328 39.6864 84.6576 39.3696 84.612C38.3712 84.4536 20.022 84.7704 16.1088 84.7548C15.7284 84.7548 5.0964 98.4294 3.1152 101.218C3.0996 101.234 2.7354 101.677 3.3846 101.709C13.938 102.105 108.644 102.406 116.266 102.249C116.551 102.217 117.058 101.932 116.821 101.584C115.157 98.9172 105.592 87.54 103.685 85.116Z" fill="#644DF6"/>
</svg>
