<svg width="120" height="120" viewBox="0 0 120 120" fill="none" xmlns="http://www.w3.org/2000/svg">
<path d="M26.7906 32.6226C27.0485 32.7577 27.3435 32.8046 27.6306 32.7564C27.6809 32.7366 27.7258 32.7051 27.7614 32.6645C27.7971 32.6239 27.8225 32.5754 27.8356 32.523C27.8487 32.4705 27.8491 32.4157 27.8367 32.3631C27.8243 32.3105 27.7995 32.2617 27.7644 32.2206C27.5244 31.8858 26.832 31.7544 26.6244 32.0532C26.46 32.2902 26.5896 32.4882 26.7906 32.6226Z" fill="#666666"/>
<path d="M30.9108 31.62C30.9498 31.0008 29.973 31.5 29.973 31.92C29.9352 32.5584 30.9108 32.0148 30.9108 31.62Z" fill="#666666"/>
<path d="M27.5274 30.78C27.596 30.7583 27.6543 30.7123 27.6913 30.6507C27.7284 30.589 27.7416 30.5159 27.7284 30.4452C27.6684 30.2094 27.393 30.2052 27.1926 30.2442C26.7417 30.2828 26.3003 30.396 25.8864 30.579C25.8531 30.5899 25.8252 30.613 25.8083 30.6437C25.7913 30.6744 25.7867 30.7104 25.7952 30.7443C25.8037 30.7783 25.8248 30.8078 25.8542 30.8269C25.8836 30.846 25.9191 30.8532 25.9536 30.8472C26.4751 30.7772 27.0019 30.7547 27.5274 30.78Z" fill="#666666"/>
<path d="M29.571 30.0096C29.409 30.1716 29.4138 30.3546 29.4708 30.4116C29.6046 30.5454 29.7708 30.378 29.9058 30.3108C30.0867 30.2127 30.2776 30.1343 30.4752 30.0768C30.6762 30.0432 30.8436 29.7768 30.6432 29.6076C30.576 29.5404 30.5088 29.5404 30.4086 29.5074C29.9046 29.5074 29.7534 29.8272 29.571 30.0096Z" fill="#666666"/>
<path d="M21.1296 61.9326C22.545 62.3184 22.977 62.583 23.2734 62.4348C23.2965 62.4226 23.3168 62.4058 23.3329 62.3852C23.349 62.3647 23.3607 62.341 23.367 62.3157C23.3733 62.2904 23.3743 62.264 23.3697 62.2383C23.3652 62.2126 23.3552 62.1882 23.3406 62.1666C23.1732 61.899 22.737 61.9044 22.4694 61.8666C22.0662 61.8066 21.6654 61.7352 21.2304 61.6656C21.0288 61.632 20.9286 61.8654 21.1296 61.9326Z" fill="#666666"/>
<path d="M20.9622 63.6408C21.6597 63.882 22.377 64.0613 23.106 64.1766C23.406 64.1766 23.406 63.7524 23.1732 63.6744C22.4888 63.4451 21.7793 63.2993 21.06 63.24C20.8284 63.2046 20.7276 63.5736 20.9622 63.6408Z" fill="#666666"/>
<path d="M20.5938 65.349C21.0882 65.505 22.9722 66.0966 22.9722 65.5836C22.972 65.5277 22.9562 65.473 22.9267 65.4256C22.8971 65.3783 22.8549 65.3401 22.8048 65.3154C22.101 65.148 21.3966 65.1522 20.694 64.9806C20.6692 64.9719 20.6428 64.9683 20.6166 64.9702C20.5903 64.9721 20.5648 64.9794 20.5415 64.9917C20.5182 65.0039 20.4976 65.0208 20.4812 65.0413C20.4647 65.0618 20.4526 65.0855 20.4457 65.1109C20.4388 65.1363 20.4372 65.1628 20.441 65.1889C20.4449 65.2149 20.454 65.2399 20.4679 65.2622C20.4818 65.2845 20.5001 65.3038 20.5218 65.3187C20.5434 65.3336 20.568 65.3439 20.5938 65.349Z" fill="#666666"/>
<path d="M17.28 59.9226C17.4342 59.0826 17.6022 58.1796 17.682 57.3426C17.7108 57.0426 17.2464 57.0078 17.1792 57.2754C16.9289 58.1225 16.8604 59.013 16.9782 59.8884C17.0094 60.0564 17.241 60.123 17.28 59.9226Z" fill="#666666"/>
<path d="M31.7148 73.4886C31.9837 71.9399 32.0288 70.3606 31.8486 68.799C30.2412 69.201 28.6332 69.639 26.9886 69.9714C26.754 70.005 26.52 70.6416 26.352 70.8426C25.5054 71.8593 24.4407 72.6723 23.2368 73.221C23.1366 73.221 23.0694 73.1538 23.103 73.0536C23.5722 72.3498 24.309 71.9814 24.912 71.4456C25.212 71.211 25.8162 70.1724 26.151 70.1058C24.7221 70.3579 23.2796 70.5255 21.831 70.608C23.0022 82.7736 21.8238 94.3446 22.9026 106.517C22.9028 106.573 22.9185 106.627 22.9481 106.675C22.9777 106.722 23.0199 106.76 23.07 106.785C24.5409 107.382 26.1728 107.453 27.69 106.986C28.395 106.756 29.2056 106.55 29.1972 105.713C29.1636 102.329 28.6944 84.2082 28.6944 82.1328C28.6944 79.7778 28.8954 74.9238 28.8954 74.8638C29.6994 74.73 30.7044 74.6628 31.341 74.127C31.5043 73.9394 31.6311 73.7229 31.7148 73.4886ZM23.91 89.0652C24.6126 88.8936 26.0202 89.5002 26.523 90.003C26.5635 90.0542 26.5972 90.1105 26.6232 90.1704C26.9232 90.6396 26.0874 90.405 25.9866 90.3378C24.216 89.4528 24.1476 89.6712 23.8428 89.3664C23.819 89.3456 23.8013 89.3188 23.7915 89.2888C23.7817 89.2588 23.7802 89.2267 23.787 89.1959C23.7939 89.1651 23.809 89.1367 23.8306 89.1137C23.8522 89.0907 23.8797 89.0739 23.91 89.0652Z" fill="#C0C0C0"/>
<path d="M37.7106 105.344C38.2023 105.314 38.6791 105.164 39.0995 104.907C39.5199 104.65 39.8711 104.294 40.1226 103.871C40.6386 102.791 38.9622 73.083 38.8164 70.7424C37.9997 69.875 37.3924 68.8321 37.041 67.6938C35.4618 67.9351 33.8964 68.2593 32.3514 68.6652C32.4915 70.1268 32.4577 71.5999 32.2506 73.0536C32.2537 73.4689 32.1115 73.8721 31.8486 74.1936C33.2418 79.0692 34.3686 98.4636 34.6962 103.47C34.725 103.906 34.5954 104.575 34.9638 104.944C35.5332 105.445 37.0746 105.412 37.7106 105.344ZM36.54 89.2326C37.1176 88.7377 37.7338 88.2897 38.3826 87.8928C38.4294 87.8671 38.4832 87.8573 38.536 87.8649C38.5888 87.8724 38.6378 87.8969 38.6755 87.9346C38.7133 87.9724 38.7377 88.0213 38.7453 88.0741C38.7528 88.127 38.743 88.1808 38.7174 88.2276C38.1924 88.9932 36.6876 89.7276 36.54 89.4336C36.5237 89.4026 36.5152 89.3681 36.5152 89.3331C36.5152 89.2981 36.5237 89.2636 36.54 89.2326Z" fill="#C0C0C0"/>
<path d="M37.68 67.6266C37.9625 68.5051 38.345 69.3482 38.82 70.1394C38.7528 69.2682 38.7192 68.4306 38.6526 67.5594C38.3136 67.5936 38.0124 67.5936 37.68 67.6266Z" fill="#C0C0C0"/>
<path d="M18.3828 115.461C18.4164 115.461 18.4164 115.427 18.3828 115.427C18.3492 115.427 18.3492 115.461 18.3828 115.461Z" fill="#666666"/>
<path d="M28.2984 109.398C28.365 109.431 28.4988 108.829 28.4988 108.761C28.5142 108.364 28.4217 107.97 28.2312 107.621C28.0638 107.286 27.561 107.521 27.6282 107.856C27.6954 108.191 27.8922 108.591 27.7284 108.961C27.6258 109.195 27.2958 109.367 27.0924 109.531C26.7924 109.771 26.4924 109.969 26.1876 110.201C24.3528 111.596 21.1428 114.026 18.7182 114.488C18.5838 114.521 18.4836 114.589 18.4836 114.388C18.5589 113.91 18.7952 113.473 19.1532 113.148C20.0885 112.129 21.0841 111.167 22.1346 110.268C22.2018 110.302 22.8714 110.737 23.106 110.603C23.1369 110.587 23.1628 110.563 23.1806 110.534C23.1985 110.504 23.2075 110.47 23.2068 110.435C23.2068 110.168 22.6068 109.866 22.5702 109.866C22.7712 109.699 23.0058 109.498 23.2068 109.33C23.4078 109.43 24.2448 109.967 24.4794 109.799C24.5299 109.754 24.5638 109.693 24.576 109.626C24.5882 109.56 24.5778 109.491 24.5466 109.43C24.2883 109.229 24.0062 109.06 23.7066 108.928C23.9748 108.694 24.2088 108.493 24.477 108.258C24.5128 108.22 24.5337 108.17 24.5358 108.118C24.5379 108.066 24.521 108.015 24.4884 107.974C24.4558 107.933 24.4095 107.906 24.3581 107.896C24.3067 107.887 24.2537 107.897 24.2088 107.923C23.8325 108.14 23.4741 108.386 23.1372 108.66C23.07 108.627 21.8976 108.158 21.3618 107.99C21.1944 107.923 21.0936 108.191 21.228 108.29C21.6966 108.525 22.1658 108.793 22.668 109.061C22.5006 109.195 22.068 109.564 22.032 109.597C22.032 109.597 21.027 109.128 20.5578 108.927C20.2404 108.821 20.1132 109.155 20.3232 109.295C20.7588 109.496 21.1632 109.731 21.5628 109.966C21.0936 110.368 20.6568 110.767 20.1894 111.205C19.2348 112.099 17.346 113.72 17.9448 114.856C18.0359 114.996 18.1711 115.101 18.3289 115.156C18.4867 115.21 18.6581 115.21 18.816 115.156C19.241 115.078 19.6566 114.954 20.0556 114.788C22.0656 113.948 23.9485 112.832 25.6494 111.472C25.6529 111.505 25.6644 111.537 25.6829 111.565C25.7015 111.594 25.7265 111.617 25.7559 111.633C25.7854 111.65 25.8183 111.659 25.852 111.66C25.8856 111.661 25.919 111.654 25.9494 111.639C26.5709 111.491 27.1462 111.192 27.624 110.768C27.8946 110.537 28.4946 110.098 28.5282 109.696C28.5192 109.631 28.4932 109.569 28.4529 109.517C28.4126 109.464 28.3594 109.423 28.2984 109.398Z" fill="#666666"/>
<path d="M47.1906 107.756C46.5461 107.387 45.8602 107.094 45.147 106.885C44.3772 106.617 43.6398 106.349 42.867 106.115C43.2046 105.816 43.5182 105.491 43.8048 105.143C43.872 104.976 43.6716 104.843 43.5366 104.876C43.0435 105.175 42.5734 105.511 42.1302 105.881C41.862 105.814 41.6274 105.746 41.3598 105.68C41.7399 105.345 42.0875 104.975 42.3978 104.574C42.3978 104.507 42.3312 104.407 42.264 104.407C41.7027 104.704 41.1844 105.076 40.7232 105.512C40.2932 105.407 39.8569 105.328 39.417 105.278C39.1482 105.251 39.1488 105.613 39.3498 105.713C39.6498 105.814 39.9864 105.914 40.2876 106.013C39.991 106.372 39.7223 106.753 39.4836 107.153C39.384 107.321 39.6498 107.554 39.7836 107.387C40.1142 106.982 40.4868 106.583 40.8552 106.181C41.0898 106.249 41.592 106.382 41.6256 106.382C41.2974 106.704 40.9951 107.052 40.7214 107.421C40.6972 107.445 40.678 107.474 40.665 107.506C40.6519 107.537 40.6451 107.571 40.6451 107.605C40.6451 107.639 40.6519 107.673 40.665 107.705C40.678 107.737 40.6972 107.765 40.7214 107.789C40.7456 107.814 40.7743 107.833 40.8059 107.846C40.8375 107.859 40.8714 107.866 40.9056 107.866C40.9398 107.866 40.9737 107.859 41.0053 107.846C41.0369 107.833 41.0656 107.814 41.0898 107.789C41.4918 107.387 41.8938 106.985 42.3294 106.583C42.798 106.717 45.1788 107.549 45.8802 107.823C46.4396 107.972 46.934 108.302 47.2866 108.761C47.3832 108.931 47.3538 108.928 47.1864 108.962C47.019 108.995 46.8516 109.03 46.6836 109.062C44.1126 109.553 39.2652 108.256 37.4724 107.957C37.2042 107.89 36.8358 107.89 36.6324 107.689C36.264 107.32 36.4032 106.549 36.3324 106.081C36.3324 105.997 36.2989 105.916 36.2393 105.856C36.1796 105.797 36.0988 105.763 36.0144 105.763C35.9301 105.763 35.8492 105.797 35.7896 105.856C35.7299 105.916 35.6964 105.997 35.6964 106.081C35.619 106.874 35.685 107.917 36.366 108.325C36.366 108.325 36.2658 108.794 36.4668 108.895C37.4416 109.159 38.44 109.328 39.4476 109.397C39.4765 109.391 39.5038 109.379 39.5279 109.362C39.5521 109.345 39.5726 109.324 39.5882 109.299C39.6039 109.274 39.6144 109.246 39.6191 109.217C39.6238 109.188 39.6226 109.158 39.6156 109.129C40.0026 109.129 44.1432 110.155 46.683 109.729C47.0883 109.737 47.4862 109.62 47.823 109.394C48.3954 108.894 47.6568 108.06 47.1906 107.756Z" fill="#666666"/>
<path d="M116.898 16.14C116.501 11.0202 115.715 8.92802 113.178 8.16782C104.372 4.86782 69.8196 3.74222 57.171 5.11922C55.0602 5.34902 52.878 5.58002 51.0408 6.72722C44.9118 10.5564 42.0822 22.3326 40.7592 29.4402C40.5282 30.6804 40.3464 31.9566 40.1226 33.192C40.092 33.36 40.3584 33.4266 40.3908 33.2586C41.3065 28.3436 42.5599 23.4975 44.142 18.7548C45.432 15.1428 47.0052 11.2662 49.8366 8.57162C50.9036 7.49083 52.2481 6.72552 53.7222 6.36002C62.7426 4.38002 89.1132 5.35142 101.657 6.76202C110.477 7.75442 111.737 8.57102 112.141 8.57102C111.964 8.65982 110.429 8.77142 108.055 11.619C101.092 19.9728 98.2146 29.859 96.699 40.527C94.563 55.551 93.519 77.7528 93.519 92.5146C92.6928 92.2788 56.5854 92.2692 55.734 92.28C52.1832 92.3262 48.594 92.3352 45.015 92.6154C44.646 92.6442 44.2434 92.6394 43.875 92.682C43.8262 92.682 43.7793 92.7014 43.7448 92.736C43.7102 92.7705 43.6908 92.8174 43.6908 92.8662C43.6908 92.9151 43.7102 92.9619 43.7448 92.9965C43.7793 93.031 43.8262 93.0504 43.875 93.0504C47.3586 93.0672 50.8086 92.9838 54.2922 92.9838C72.195 92.9838 93.1764 93.5154 94.0872 93.1512C94.1268 93.1517 94.1658 93.1418 94.2004 93.1226C94.2349 93.1033 94.2638 93.0753 94.2842 93.0413C94.3045 93.0074 94.3156 92.9687 94.3163 92.9291C94.317 92.8895 94.3073 92.8505 94.2882 92.8158C94.2794 76.6888 95.174 60.574 96.9678 44.547C98.1954 33.9912 100.157 24.447 105.945 15.7392C106.91 14.2542 107.985 12.8434 109.161 11.5188C110.244 10.323 111.706 9.07922 113.415 9.20702C113.843 9.24904 114.247 9.42322 114.571 9.70536C114.895 9.9875 115.123 10.3636 115.224 10.7814C117.661 17.8206 115.764 26.0814 114.118 33.3252C114.085 33.2916 114.052 33.2244 113.984 33.1914C109.812 31.1424 104.642 30.4716 102.495 30.7794C102.453 30.783 102.414 30.8021 102.385 30.8331C102.357 30.8641 102.341 30.9047 102.341 30.9468C102.341 30.9889 102.357 31.0295 102.385 31.0605C102.414 31.0915 102.453 31.1107 102.495 31.1142C106.313 31.4496 110.132 32.1864 113.582 33.8946C113.653 33.923 113.729 33.9348 113.804 33.929C113.88 33.9231 113.953 33.8999 114.018 33.861C114.018 33.8946 113.984 33.9618 113.984 33.9954C113.978 34.0158 113.976 34.0373 113.978 34.0585C113.981 34.0797 113.987 34.1002 113.998 34.1187C114.009 34.1371 114.023 34.1532 114.04 34.1658C114.058 34.1784 114.077 34.1873 114.098 34.1919C114.119 34.1966 114.141 34.1968 114.162 34.1927C114.182 34.1885 114.202 34.1801 114.22 34.1679C114.237 34.1557 114.252 34.1399 114.263 34.1217C114.274 34.1035 114.282 34.0832 114.284 34.062C115.567 30.1773 116.443 26.1698 116.898 22.104C117.025 20.118 117.025 18.126 116.898 16.14Z" fill="#666666"/>
<path d="M90.201 56.439C90.6624 56.0544 91.2252 55.881 91.005 55.3668C90.9769 55.3157 90.9388 55.2708 90.893 55.2347C90.8473 55.1986 90.7948 55.172 90.7386 55.1565C90.6824 55.1409 90.6237 55.1368 90.5659 55.1442C90.5081 55.1517 90.4524 55.1707 90.402 55.2C84.084 59.553 76.6434 66.8166 72.3132 72.384C70.5908 70.4673 68.671 68.7377 66.5856 67.224C66.2502 66.9558 65.7816 67.458 65.9856 67.824C68.5185 71.5839 70.7904 75.5131 72.7854 79.584C72.823 79.6483 72.8768 79.7017 72.9414 79.7388C73.006 79.7759 73.0793 79.7955 73.1538 79.7955C73.2283 79.7955 73.3016 79.7759 73.3662 79.7388C73.4308 79.7017 73.4846 79.6483 73.5222 79.584C75.2586 76.2954 77.4822 73.2564 79.5852 70.2384C85.776 61.3614 87.1626 60 90.201 56.439Z" fill="#C0C0C0"/>
<path d="M19.3878 69.804C28.3482 69.804 33.2538 66.7188 38.9478 66.6552C39.4278 66.5862 40.5624 66.5724 41.1252 66.5214C41.2651 66.5117 41.4055 66.5305 41.5379 66.5766C41.6703 66.6227 41.792 66.6951 41.8956 66.7896C41.9721 66.901 42.0073 67.0356 41.995 67.1701C41.9828 67.3047 41.9238 67.4307 41.8284 67.5264C41.3168 68.1361 40.6433 68.5889 39.8856 68.8326C39.7518 68.8998 39.7518 69.1326 39.9192 69.1008C40.3653 69.0492 40.7975 68.9127 41.1924 68.6988C41.7636 68.4132 42.4524 67.9914 42.5652 67.3254C42.5988 67.3254 42.6324 67.2918 42.666 67.2252C42.7037 67.0579 42.692 66.8832 42.6324 66.7224C42.459 65.7756 40.6578 52.2312 40.2876 49.6392C39.7302 46.9096 38.9803 44.2229 38.0436 41.5992C38.0335 41.5645 38.0368 41.5273 38.053 41.495C38.0692 41.4627 38.0969 41.4376 38.1307 41.4249C38.1645 41.4122 38.2019 41.4127 38.2354 41.4263C38.2688 41.4399 38.2959 41.4657 38.3112 41.4984C39.3767 43.8981 40.2296 46.3866 40.86 48.9354C45.7104 45.5694 55.071 38.8914 59.685 35.4C59.7852 35.2998 59.886 35.199 59.8188 35.0316C59.7186 34.6968 59.283 33.8256 59.2188 33.6582C59.5872 33.4572 59.9226 33.156 60.2574 32.955C61.2774 32.445 61.4838 32.895 62.0664 33.0222C62.6367 33.1725 63.2361 33.1725 63.8064 33.0222C64.4128 32.9247 64.987 32.6833 65.481 32.3184C65.5041 32.2925 65.5193 32.2605 65.5247 32.2262C65.53 32.1919 65.5254 32.1568 65.5112 32.1251C65.4971 32.0934 65.4741 32.0664 65.445 32.0475C65.4159 32.0286 65.3819 32.0185 65.3472 32.0184C65.0497 32.0495 64.7571 32.1171 64.476 32.2194C61.7958 33.1434 61.6938 31.5372 60.0546 32.5194C59.7078 32.7367 59.3723 32.9716 59.0496 33.2232C59.0832 33.1896 58.2792 31.4142 58.3464 31.3806C58.8183 31.1243 59.2767 30.8439 59.7198 30.5406C60.0089 30.3351 60.2396 30.0581 60.3894 29.7366C60.5125 29.3645 60.5006 28.9608 60.3558 28.5966C60.1254 27.6912 60.9162 27.081 61.4616 26.4864C62.6785 25.1748 63.5632 23.5905 64.0416 21.8664C64.2641 22.1538 64.4238 22.4847 64.5102 22.8378C64.6128 23.2785 64.6128 23.7369 64.5102 24.1776C64.2729 24.9564 63.7613 25.6228 63.0702 26.0532C63.0365 26.0865 63.0146 26.1299 63.0078 26.1767C63.0009 26.2236 63.0095 26.2714 63.0321 26.313C63.0548 26.3546 63.0904 26.3876 63.1335 26.4072C63.1766 26.4268 63.225 26.4319 63.2712 26.4216C63.7685 26.2561 64.1939 25.9251 64.4766 25.4838C64.8051 25.0301 65.014 24.5009 65.0843 23.9452C65.1545 23.3895 65.0838 22.825 64.8786 22.3038C64.713 21.8682 64.4436 21.2322 63.8736 21.2658C63.8175 21.2675 63.7636 21.2884 63.7211 21.3249C63.6785 21.3615 63.6497 21.4116 63.6396 21.4668C63.227 23.1386 62.4234 24.6885 61.2948 25.989C60.7938 26.5596 60.1026 27.0882 59.8878 27.8646C59.8058 28.232 59.8289 28.615 59.9544 28.9698C60.0078 29.1536 60.008 29.3487 59.9549 29.5326C59.9018 29.7164 59.7976 29.8814 59.6544 30.0084C59.1952 30.388 58.7019 30.7245 58.1808 31.0134C58.0128 30.4776 57.8592 29.9382 57.7116 29.3718C57.6953 29.3186 57.6656 29.2706 57.6253 29.2323C57.585 29.194 57.5355 29.1669 57.4815 29.1534C57.4276 29.1399 57.3711 29.1406 57.3175 29.1555C57.264 29.1703 57.2151 29.1987 57.1758 29.238C56.9076 29.4726 53.022 31.248 52.1178 31.683C44.2404 35.4756 37.4778 38.916 29.7414 40.1244C29.4066 40.158 29.4414 40.7244 29.7414 40.7946C29.8086 40.7946 29.8422 40.8282 29.9088 40.8282C29.9088 40.8612 29.8752 40.8948 29.8752 40.962C29.8752 41.946 29.9016 42.516 28.971 43.242C28.5966 43.4705 28.1801 43.6215 27.7463 43.6862C27.3125 43.7509 26.8701 43.7279 26.4453 43.6186C26.0206 43.5093 25.622 43.3159 25.2733 43.0498C24.9246 42.7837 24.6328 42.4504 24.4152 42.0696C24.2272 41.7588 24.0914 41.4193 24.0132 41.0646C24.5661 41.1194 25.1243 41.0625 25.6548 40.8972C25.7583 40.7797 25.838 40.6431 25.8894 40.4952C25.7484 38.8752 25.3926 36.6324 25.32 36.342C25.4538 36.1074 25.1532 35.7738 24.8508 35.9064C24.0816 36.2442 22.8822 36.0732 22.7742 35.0352C22.68 34.1304 23.8128 33.93 24.5142 33.93C24.5629 33.9301 24.611 33.9188 24.6546 33.8969C24.6982 33.8751 24.736 33.8434 24.7652 33.8044C24.7943 33.7653 24.8139 33.72 24.8224 33.672C24.831 33.624 24.8281 33.5747 24.8142 33.528C24.4746 32.2279 24.3838 30.8754 24.5466 29.5416C24.6792 28.8816 24.7692 28.1616 25.4508 28.2354C26.077 28.3043 26.6879 28.4741 27.2598 28.7382C27.327 28.7712 27.36 28.7382 27.3936 28.7046C27.804 28.4058 28.1857 28.0693 28.5336 27.6996C28.6368 27.6012 28.8336 27.2976 29.0364 27.2976H29.1C30.0239 27.9703 30.8474 28.7712 31.5456 29.676C31.6794 30.5802 31.7856 31.4844 31.8804 32.3892C32.0782 33.4078 31.9971 34.4609 31.6458 35.4372C31.3289 36.2712 30.7069 36.9537 29.9058 37.3464C29.0308 37.7032 28.0578 37.7389 27.159 37.4472C26.8914 37.38 26.7246 37.7796 26.958 37.8828C27.2962 38.0419 27.6586 38.1433 28.0302 38.1828C28.0302 38.754 27.9912 40.5228 28.1976 40.7286C28.2294 40.7558 28.2667 40.7759 28.3069 40.7874C28.3472 40.7988 28.3895 40.8015 28.4308 40.7951C28.4722 40.7887 28.5117 40.7735 28.5466 40.7504C28.5816 40.7273 28.6111 40.697 28.6332 40.6614C28.704 40.5161 28.7273 40.3521 28.6998 40.1928C28.6998 40.0968 28.566 38.2488 28.566 38.1828C28.8517 38.1877 29.136 38.1424 29.406 38.049C30.133 37.91 30.7929 37.5327 31.2816 36.9768C32.2722 35.7816 32.6934 34.6122 32.4216 32.5218C32.6016 32.5218 32.4294 32.5644 33.6276 32.0532C33.7938 31.9824 34.0632 31.9188 34.0968 31.6842C34.164 31.4502 34.0296 31.2828 33.9294 31.0842C33.762 30.7488 33.561 30.414 33.4266 30.0792C33.393 30.012 33.393 29.9784 33.36 29.9118C33.393 29.8782 33.4602 29.8446 33.4938 29.811C33.607 29.6179 33.7072 29.4174 33.7938 29.211C34.0481 28.8142 34.2192 28.3698 34.2966 27.9048C34.3135 27.7039 34.2679 27.5027 34.1659 27.3288C34.064 27.1549 33.9107 27.0168 33.7272 26.9334C32.3618 25.9882 30.8742 25.233 29.3052 24.6888C27.792 24.204 27.096 24.0006 26.592 24.2868C25.8414 24.714 25.8426 25.6122 25.5204 26.0958C25.2401 25.8083 24.8992 25.587 24.5225 25.4479C24.1458 25.3088 23.7429 25.2555 23.343 25.2918C22.3716 25.425 21.9402 26.466 21.5676 27.2346C20.7061 29.1627 20.0004 31.1566 19.4574 33.1974C19.2564 33.867 19.8258 34.0374 20.328 34.2024C20.9165 34.4268 21.5212 34.6059 22.137 34.7382V35.1402C22.317 36.2148 23.4426 36.9534 24.8502 36.5136C24.8502 37.0926 25.2048 40.3704 25.2102 40.4334C25.1874 40.4406 23.9448 40.7004 23.9448 40.7004C23.9258 40.629 23.8921 40.5624 23.8459 40.5048C23.7997 40.4471 23.7421 40.3997 23.6766 40.3656C23.4547 40.332 23.2289 40.332 23.007 40.3656C21.0642 40.1646 19.0902 40.5162 17.145 40.8012C15.2362 41.0206 13.4029 41.6737 11.7852 42.7104C-0.631809 50.0646 1.01999 63.0972 11.1474 66.42C12.3362 66.8135 13.5798 67.016 14.832 67.02C15.552 67.02 15.648 67.0896 15.9042 66.6846C16.1092 66.3463 16.2776 65.9871 16.4064 65.613C18.4218 66.2844 18.2124 66.1794 18.2826 66.2496C17.82 68.9304 17.4936 69.3288 17.7468 69.666C18.2862 69.7783 18.8372 69.8246 19.3878 69.804ZM30.6432 26.2578C31.3164 26.6178 31.9542 27.0204 32.586 27.4302C32.8011 27.5393 32.9853 27.7006 33.1218 27.8994C33.1884 28.0668 33.1218 28.2678 32.9208 28.2678C32.4516 28.2342 31.8876 27.657 31.5138 27.3966C30.906 26.961 30.268 26.5692 29.6046 26.2242C29.2026 26.0232 28.7334 25.7892 28.3314 26.0904C28.1976 26.1576 28.0638 25.9902 28.164 25.8894C28.9008 25.2528 29.943 25.8822 30.6432 26.2578ZM23.8764 29.4066C23.625 29.658 23.4912 30.4788 23.2764 30.4788C23.2366 30.4738 23.2003 30.4535 23.1752 30.4221C23.1502 30.3907 23.1385 30.3507 23.1426 30.3108C23.1552 29.8705 23.3347 29.4513 23.6448 29.1384C23.6756 29.1194 23.7114 29.11 23.7475 29.1117C23.7837 29.1133 23.8185 29.1257 23.8474 29.1474C23.8764 29.1691 23.8981 29.1991 23.9098 29.2333C23.9215 29.2676 23.9226 29.3045 23.913 29.3394C23.8764 29.34 23.8764 29.373 23.8764 29.4066ZM23.2068 27.9996C23.6448 28.146 22.701 29.1168 22.4028 29.8422C22.3356 29.976 22.1028 29.8758 22.1346 29.7414C22.2582 29.1311 22.522 28.5578 22.905 28.0668C22.9411 28.0243 22.9901 27.9947 23.0446 27.9825C23.0991 27.9704 23.156 27.9764 23.2068 27.9996ZM22.4028 26.7936C22.4473 26.7566 22.503 26.7357 22.5609 26.7342C22.6188 26.7327 22.6755 26.7507 22.7219 26.7853C22.7683 26.82 22.8017 26.8692 22.8167 26.9251C22.8318 26.981 22.8276 27.0404 22.8048 27.0936C22.6689 27.329 22.4995 27.5434 22.302 27.7302C21.7693 28.469 21.4037 29.3147 21.2304 30.2088C21.2234 30.2329 21.2077 30.2537 21.1865 30.267C21.1652 30.2804 21.1397 30.2855 21.115 30.2814C21.0902 30.2772 21.0678 30.2641 21.052 30.2445C21.0362 30.225 21.0282 30.2003 21.0294 30.1752C21.0908 29.566 21.2373 28.9684 21.4644 28.3998C21.7938 27.8262 21.879 27.2304 22.4028 26.7936ZM16.5408 59.9226C16.5255 59.8574 16.4923 59.7977 16.4449 59.7503C16.3975 59.7029 16.3378 59.6697 16.2726 59.6544C14.8326 59.2902 13.191 58.683 12.387 57.3432C10.785 54.6732 14.427 51.8502 17.3778 51.4812C17.3778 51.5148 17.3778 51.5148 17.4114 51.5484V51.582C18.0053 53.1894 18.3885 54.867 18.5514 56.5728C18.6481 57.6422 18.6593 58.7176 18.585 59.7888C18.5915 59.8844 18.6323 59.9744 18.7001 60.0421C18.7678 60.1099 18.8578 60.1507 18.9534 60.1572C19.924 60.2202 20.8875 60.3657 21.8334 60.5922C22.5551 60.691 23.2373 60.9811 23.8092 61.4322C23.863 61.4721 23.9085 61.5222 23.943 61.5796C23.9775 61.6371 24.0003 61.7007 24.0102 61.767C24.0774 62.0352 23.8716 62.2338 23.7762 62.4372C23.4942 63.0342 23.7426 63.7104 23.7426 64.3128C23.7426 64.9494 23.61 65.9562 23.0724 66.39C22.5714 66.7938 21.8334 66.69 21.264 66.6246C20.895 66.5574 16.5072 65.4522 16.5072 65.4186C17.0339 63.626 17.0455 61.7215 16.5408 59.9226ZM28.8342 59.6544C30.7638 60.5118 31.86 60.6384 32.5542 61.0278C32.5767 61.0397 32.5942 61.0592 32.6037 61.0828C32.6132 61.1065 32.6139 61.1327 32.6059 61.1568C32.5978 61.181 32.5814 61.2014 32.5596 61.2146C32.5379 61.2278 32.5121 61.2328 32.487 61.2288C31.8255 61.1779 31.1787 61.0078 30.5778 60.7266C29.9436 60.4866 29.3046 60.2238 28.6686 59.9226C28.5 59.82 28.6668 59.5542 28.8342 59.6544ZM35.3658 59.889C35.1286 59.8606 34.8936 59.8159 34.6626 59.7552C34.0026 59.5828 33.3538 59.3702 32.7198 59.1186C30.1514 58.1322 27.7633 56.7288 25.6518 54.9648C25.5198 54.8616 25.686 54.696 25.8192 54.7974C30.8364 58.6038 34.7556 59.2236 35.433 59.6574C35.5668 59.688 35.5332 59.889 35.3658 59.889Z" fill="#666666"/>
<path d="M61.527 82.0308C64.0054 84.7354 67.4009 86.4218 71.0535 86.7622C74.7061 87.1027 78.3548 86.0728 81.2904 83.8728C85.9392 80.3226 88.269 74.3526 85.578 69.6366C85.149 68.8848 84.4566 69.1932 84.8748 70.1058C86.835 74.3826 85.2084 79.0458 81.9606 82.131C76.7634 87.0642 68.7084 87.5142 63.2358 82.6668C57.0036 77.1468 57.5358 67.0164 64.5084 61.2288C68.1552 58.2018 72.5298 57.0924 76.7016 59.2188C75.8177 58.2267 74.5772 57.6247 73.251 57.5442C70.2396 57.1842 67.191 58.3182 64.743 60.09C57.6762 65.2056 55.695 75.519 61.527 82.0308Z" fill="#C0C0C0"/>
<path d="M91.1724 26.526C88.7268 25.1862 85.9458 26.6064 83.334 26.4588C80.6196 26.3058 78.5112 24.2718 75.8304 23.9802C75.2038 23.8754 74.5615 23.9144 73.9522 24.0944C73.3428 24.2743 72.7824 24.5904 72.3132 25.0188C72.2136 25.1202 72.3468 25.2528 72.4806 25.1862C72.9463 24.8293 73.4844 24.5783 74.0572 24.451C74.63 24.3236 75.2237 24.3229 75.7968 24.4488C77.0066 24.7069 78.1701 25.1475 79.2474 25.7556C82.4874 27.3756 83.2002 27.324 86.8176 26.8272C88.2258 26.634 89.6976 26.4588 91.038 26.9946C91.239 27.0282 91.4064 26.6262 91.1724 26.526Z" fill="#666666"/>
<path d="M59.7522 42.3366C62.2806 41.1026 65.1647 40.805 67.8918 41.4966C69.789 41.9766 71.5608 43.1916 73.419 43.5066C78.1884 44.3154 82.9344 40.512 87.7218 43.5402C87.78 43.5717 87.8475 43.5815 87.9123 43.5678C87.977 43.5541 88.0348 43.5177 88.0752 43.4653C88.1155 43.4129 88.1359 43.3477 88.1326 43.2816C88.1293 43.2155 88.1026 43.1528 88.0572 43.1046C86.7546 41.931 84.8082 41.6694 83.133 41.7312C80.0232 41.8458 77.073 43.1844 74.1894 43.0038C71.8704 42.8592 70.6782 41.7816 68.394 41.1282C65.4177 40.3426 62.2535 40.7262 59.5512 42.2004C59.4504 42.2028 59.5842 42.4038 59.7522 42.3366Z" fill="#666666"/>
<path d="M45.8838 49.9068C45.75 49.8726 45.6834 50.0742 45.7836 50.1078C51.0096 52.368 57.9198 48.1278 62.1636 48.9354C63.5382 49.1976 64.7436 49.9404 66.0156 50.5098C70.89 52.6902 73.2756 51.858 78.477 50.6436C80.5173 50.0724 82.6638 49.9923 84.741 50.4096C85.4134 50.5986 86.0645 50.8568 86.6838 51.18C86.8854 51.2784 87.153 51.0114 86.9514 50.8446C85.1298 49.3374 82.188 49.4046 79.8504 49.773C75.2838 50.4966 72.4218 52.3836 67.2888 50.4096C65.9826 49.9068 64.7778 49.233 63.4698 48.7344C58.2912 46.7598 53.0748 51.744 45.8838 49.9068Z" fill="#666666"/>
<path d="M86.8848 34.5C87.5678 34.6948 88.2388 34.9296 88.8942 35.2032C89.2296 35.304 89.3676 34.8636 89.1288 34.6674C88.6019 34.3117 88.011 34.0614 87.3888 33.9306C80.8488 32.0616 74.6034 36.0906 71.277 33.3276C71.112 33.1908 70.875 33.4284 71.0424 33.5622C74.34 36.8574 80.88 32.8488 86.8848 34.5Z" fill="#666666"/>
<path d="M94.8234 18.1518C91.3788 16.6518 87.4434 18.5508 83.7696 17.5518C81.6054 16.9614 79.9596 15.516 77.7732 14.8722C73.2096 13.5276 69.0396 16.9074 64.2408 16.413C60.6318 16.0404 58.6116 13.773 54.7944 14.403C53.2296 14.6622 51.7744 15.3722 50.607 16.446C50.4732 16.5468 50.6742 16.7142 50.7744 16.614C51.8982 15.7144 53.2377 15.1243 54.66 14.9022C59.52 14.1108 61.4892 18.2202 68.1258 16.7448C71.3712 16.0248 74.1384 14.7228 76.902 15.2376C79.602 15.7404 81.7758 17.9676 84.8742 18.3192C88.1232 18.6882 91.56 17.4024 94.6542 18.7548C95.0268 18.9168 95.1942 18.3132 94.8234 18.1518Z" fill="#666666"/>
<path d="M49.2 22.4058C50.5505 23.4089 52.2099 23.9068 53.8896 23.8128C55.311 23.7576 56.724 23.3274 57.8082 23.4108C58.27 23.4469 58.7288 23.514 59.1816 23.6118C59.4498 23.6478 59.6508 23.2764 59.3826 23.1426C58.1106 22.4154 55.9464 23.0826 54.291 23.31C53.4525 23.4203 52.6008 23.375 51.7788 23.1762C50.9508 22.9298 50.1443 22.6161 49.3674 22.2384C49.2336 22.104 49.0662 22.272 49.2 22.4058Z" fill="#666666"/>
<path d="M47.8602 30.579C48.7583 30.447 49.6659 30.391 50.5734 30.4116C50.8744 30.4676 51.184 30.4561 51.48 30.378C51.5059 30.3595 51.5276 30.3357 51.5436 30.3081C51.5596 30.2805 51.5695 30.2499 51.5727 30.2182C51.5758 30.1865 51.5722 30.1545 51.562 30.1243C51.5519 30.0941 51.5354 30.0665 51.5136 30.0432C51.2344 29.9015 50.9202 29.8434 50.6088 29.8758C49.647 29.8598 48.6879 29.9839 47.7618 30.2442C47.7379 30.2489 47.7153 30.2586 47.6954 30.2725C47.6754 30.2865 47.6586 30.3044 47.646 30.3253C47.6334 30.3461 47.6252 30.3693 47.6221 30.3934C47.6189 30.4176 47.6209 30.4421 47.6277 30.4655C47.6346 30.4888 47.6462 30.5105 47.6619 30.5291C47.6776 30.5477 47.6971 30.5628 47.7189 30.5735C47.7408 30.5842 47.7647 30.5902 47.789 30.5911C47.8133 30.5921 47.8376 30.5879 47.8602 30.579Z" fill="#666666"/>
<path d="M29.0688 33.96C29.1114 34.3854 30.078 33.915 30.2088 33.5916C30.2754 33.4242 30.2442 33.1272 29.9742 33.2232C29.8015 33.3092 29.6521 33.4356 29.5386 33.5916C29.4372 33.6942 29.0688 33.795 29.0688 33.96Z" fill="#666666"/>
<path d="M66.0156 26.46C66.2202 26.2655 66.3709 26.0214 66.4531 25.7514C66.5353 25.4814 66.5462 25.1947 66.4848 24.9192C66.479 24.8924 66.4642 24.8684 66.4429 24.8511C66.4215 24.8339 66.3949 24.8245 66.3675 24.8245C66.3401 24.8245 66.3135 24.8339 66.2921 24.8511C66.2708 24.8684 66.256 24.8924 66.2502 24.9192C66.0767 25.5488 65.6688 26.0881 65.1102 26.4264C64.9086 26.559 63.5022 27.1302 63.8706 27.4986C64.23 27.9744 65.61 26.9304 66.0156 26.46Z" fill="#666666"/>
<path d="M63.7716 28.938C66.1242 29.1336 67.4022 28.0434 67.4916 27.4302C67.4986 27.3958 67.4957 27.3601 67.4833 27.3273C67.4708 27.2945 67.4492 27.2659 67.4211 27.2448C67.393 27.2237 67.3595 27.2111 67.3245 27.2083C67.2895 27.2056 67.2545 27.2128 67.2234 27.2292C66.9234 27.3966 66.7224 27.6666 66.4194 27.8658C65.6226 28.3516 64.7066 28.6067 63.7734 28.6026C63.5706 28.6062 63.5706 28.9044 63.7716 28.938Z" fill="#666666"/>
<path d="M64.0728 30.0432C64.6926 30.456 66.2496 30.144 66.9528 29.9094C67.1261 29.8724 67.2899 29.8 67.4339 29.6968C67.5779 29.5935 67.6991 29.4617 67.7898 29.3094C67.8067 29.2801 67.8141 29.2462 67.811 29.2124C67.8078 29.1787 67.7943 29.1467 67.7723 29.121C67.7502 29.0953 67.7207 29.077 67.6879 29.0687C67.655 29.0605 67.6204 29.0626 67.5888 29.0748C66.9107 29.4014 66.1884 29.627 65.445 29.7444C65.0607 29.8453 64.6569 29.8453 64.2726 29.7444C64.0398 29.64 63.8718 29.9094 64.0728 30.0432Z" fill="#666666"/>
<path d="M29.1 36.0726C29.169 35.9058 29.0334 35.7042 28.8324 35.8044C28.764 35.8458 28.2444 36.2526 27.7938 36.0726C27.5856 35.9925 27.4133 35.8399 27.3087 35.6429C27.204 35.4459 27.1741 35.2177 27.2244 35.0004C28.0292 35.3361 28.9031 35.4732 29.772 35.4C29.8392 35.4 29.8392 35.2662 29.772 35.2662C29.2698 35.1324 28.767 35.0316 28.2984 34.8642C28.0638 34.797 27.7956 34.6968 27.561 34.6296C26.757 34.2852 26.6208 35.1948 26.958 35.9028C27.3792 36.7884 28.8222 36.7482 29.1 36.0726Z" fill="#666666"/>
<path d="M64.98 31.4832C66.0678 31.8912 67.4184 31.3296 67.626 30.9138C67.6346 30.8917 67.6377 30.8679 67.6352 30.8444C67.6326 30.8208 67.6244 30.7982 67.6113 30.7785C67.5982 30.7588 67.5805 30.7426 67.5598 30.7311C67.5391 30.7197 67.5159 30.7134 67.4922 30.7128C67.1538 30.7692 66.3342 31.4874 65.0466 31.2156C65.0117 31.2084 64.9754 31.215 64.9453 31.234C64.9152 31.253 64.8935 31.2829 64.8849 31.3174C64.8763 31.352 64.8814 31.3885 64.8992 31.4194C64.9169 31.4503 64.9458 31.4731 64.98 31.4832Z" fill="#666666"/>
</svg>
