<svg width="120" height="120" viewBox="0 0 120 120" fill="none" xmlns="http://www.w3.org/2000/svg">
<path fill-rule="evenodd" clip-rule="evenodd" d="M89.4828 29.862V29.34C89.4804 27.2894 88.6644 25.3236 87.2142 23.8738C85.764 22.424 83.7984 21.6086 81.7476 21.6066H10.7352C8.6847 21.6088 6.7188 22.4242 5.26868 23.874C3.81858 25.3237 3.0027 27.2895 3 29.34V70.74C3.00191 72.7908 3.81743 74.7576 5.26762 76.2078C6.71778 77.6586 8.68416 78.474 10.7352 78.4764H14.7929V77.1642H10.7352C9.03186 77.1624 7.39878 76.485 6.19434 75.2808C4.98983 74.0766 4.31231 72.4434 4.3104 70.74V29.34C4.31389 27.6375 4.99206 26.0059 6.19632 24.8025C7.40058 23.5991 9.03276 22.9222 10.7352 22.92H81.7494C83.4516 22.9219 85.0842 23.5987 86.2884 24.8022C87.4926 26.0056 88.1706 27.6375 88.1736 29.34V29.862H89.4828Z" fill="#252525"/>
<path fill-rule="evenodd" clip-rule="evenodd" d="M30.5171 41.5241V37.5965C30.5195 35.5458 31.3352 33.5798 32.7853 32.1298C34.2355 30.6797 36.2016 29.8642 38.2523 29.8619H109.265C111.316 29.864 113.282 30.6796 114.732 32.1296C116.182 33.5797 116.998 35.5457 117 37.5965V78.9965C116.998 81.0473 116.182 83.0135 114.732 84.4637C113.282 85.9139 111.316 86.7293 109.265 86.7317H101.276V85.4225H109.267C110.97 85.4207 112.603 84.7433 113.807 83.5385C115.012 82.3343 115.689 80.7011 115.691 78.9977V37.5977C115.689 35.8945 115.012 34.2616 113.807 33.0572C112.603 31.8529 110.97 31.1755 109.267 31.1735L38.2523 31.1723C36.5489 31.1746 34.9159 31.8523 33.7115 33.0568C32.5071 34.2613 31.8296 35.8943 31.8275 37.5977V41.5241H30.5171ZM101.276 79.2629V80.5727H105.389C105.559 80.5673 105.721 80.4965 105.839 80.3741C105.958 80.2517 106.024 80.0879 106.024 79.9175C106.024 79.7477 105.958 79.5839 105.839 79.4615C105.721 79.3391 105.559 79.2683 105.389 79.2629H101.276ZM55.8062 37.0697H36.6752C36.5063 37.0625 36.3467 36.9903 36.2297 36.8683C36.1127 36.7462 36.0475 36.5836 36.0475 36.4145C36.0475 36.2455 36.1127 36.0829 36.2297 35.9608C36.3467 35.8388 36.5063 35.7666 36.6752 35.7593H55.8062C55.9751 35.7666 56.1347 35.8388 56.2517 35.9608C56.3687 36.0829 56.434 36.2455 56.434 36.4145C56.434 36.5836 56.3687 36.7462 56.2517 36.8683C56.1347 36.9903 55.9751 37.0625 55.8062 37.0697ZM64.455 37.1351C64.6236 37.1279 64.7832 37.0557 64.9002 36.9336C65.0172 36.8116 65.0826 36.649 65.0826 36.4799C65.0826 36.3109 65.0172 36.1483 64.9002 36.0262C64.7832 35.9041 64.6236 35.8319 64.455 35.8247H59.6068C59.4379 35.8319 59.2783 35.9041 59.1613 36.0262C59.0443 36.1483 58.979 36.3109 58.979 36.4799C58.979 36.649 59.0443 36.8116 59.1613 36.9336C59.2783 37.0557 59.4379 37.1279 59.6068 37.1351H64.455Z" fill="#252525"/>
<path d="M93.54 98.394H22.5281C20.4775 98.3916 18.5114 97.5762 17.0614 96.1266C15.6112 94.6764 14.7954 92.7108 14.7929 90.66V49.26C14.7949 47.209 15.6106 45.2427 17.0607 43.7924C18.5108 42.3421 20.4772 41.5264 22.5281 41.5242H93.54C95.5908 41.5261 97.5576 42.3417 99.0078 43.7921C100.458 45.2424 101.274 47.2089 101.276 49.26V90.66C101.273 92.7108 100.457 94.6764 99.0072 96.1266C97.557 97.5762 95.5908 98.3922 93.54 98.394ZM22.5281 42.8346C20.8246 42.8366 19.1916 43.5143 17.9871 44.7189C16.7827 45.9234 16.1052 47.5565 16.1033 49.26V90.66C16.1052 92.3634 16.7827 93.9966 17.9872 95.2008C19.1916 96.4056 20.8247 97.083 22.5281 97.0848H93.54C95.2434 97.0836 96.8772 96.4062 98.082 95.2014C99.2868 93.9972 99.9648 92.3634 99.9666 90.66V49.26C99.9648 47.5561 99.2874 45.9224 98.0826 44.7177C96.8778 43.513 95.244 42.8357 93.54 42.8346H22.5281Z" fill="#644DF6"/>
<path d="M51.9988 78.3C51.6881 78.3 51.3902 78.1764 51.1706 77.9568C50.951 77.7372 50.8276 77.4396 50.8276 77.1288C50.8276 59.544 50.5966 60.0486 51.3634 59.5542C52.1302 59.0598 51.5692 59.061 67.659 66.3486C67.8504 66.4356 68.0154 66.573 68.1354 66.7464C68.2554 66.9192 68.3274 67.1214 68.3424 67.3314C68.3574 67.5414 68.316 67.7514 68.2218 67.9398C68.1276 68.1282 67.9842 68.2878 67.8072 68.4018C52.1002 78.4608 52.5322 78.3 51.9988 78.3ZM52.138 60.7548V76.8744L66.8856 67.4364L52.138 60.7548Z" fill="#644DF6"/>
<path d="M89.6646 92.235C89.8332 92.2278 89.9928 92.1558 90.1098 92.0334C90.2268 91.9116 90.2922 91.749 90.2922 91.5798C90.2922 91.4106 90.2268 91.248 90.1098 91.1262C89.9928 91.0038 89.8332 90.9318 89.6646 90.9246H28.7886C28.6982 90.909 28.6057 90.9126 28.5167 90.9348C28.4278 90.957 28.3444 90.9972 28.272 91.0536C28.1995 91.11 28.1396 91.1802 28.096 91.2612C28.0524 91.3416 28.0261 91.4304 28.0187 91.5222C28.0114 91.6134 28.0231 91.7052 28.0532 91.7916C28.0834 91.8786 28.1312 91.9578 28.1937 92.025C28.2562 92.0922 28.332 92.1456 28.4162 92.1816C28.5005 92.2176 28.5913 92.2356 28.683 92.235H89.6646Z" fill="#644DF6"/>
<path d="M20.9519 48.7314H40.0829C40.2532 48.7263 40.4147 48.655 40.5333 48.5328C40.6519 48.4105 40.7183 48.2469 40.7183 48.0765C40.7183 47.9062 40.6519 47.7426 40.5333 47.6203C40.4147 47.4981 40.2532 47.4268 40.0829 47.4216H20.9519C20.7816 47.4268 20.6201 47.4981 20.5015 47.6203C20.3828 47.7426 20.3165 47.9062 20.3165 48.0765C20.3165 48.2469 20.3828 48.4105 20.5015 48.5328C20.6201 48.655 20.7816 48.7263 20.9519 48.7314Z" fill="#644DF6"/>
<path d="M48.7306 48.7973C48.8995 48.7901 49.0591 48.7179 49.176 48.5959C49.293 48.4738 49.3583 48.3112 49.3583 48.1421C49.3583 47.9731 49.293 47.8105 49.176 47.6884C49.0591 47.5664 48.8995 47.4941 48.7306 47.4869H43.8826C43.7136 47.4941 43.554 47.5664 43.4371 47.6884C43.3201 47.8105 43.2548 47.9731 43.2548 48.1421C43.2548 48.3112 43.3201 48.4738 43.4371 48.5959C43.554 48.7179 43.7136 48.7901 43.8826 48.7973H48.7306Z" fill="#644DF6"/>
<path d="M25.8652 91.6452C25.8652 93.7266 22.7206 93.7266 22.7206 91.6452C22.7206 89.5638 25.8652 89.5644 25.8652 91.6452Z" fill="#644DF6"/>
</svg>
